<?xml version="1.0" encoding="UTF-8"?>
<svg xmlns="http://www.w3.org/2000/svg" xmlns:xlink="http://www.w3.org/1999/xlink" version="1.2" >
<font id="Capita-Bold" horiz-adv-x="560">
<font-face  font-family="Capita" units-per-em="1000" ascent="725" descent="-275" font-style="normal" font-weight="700" font-stretch="normal" cap-height="676" x-height="464" underline-position="-75" underline-thickness="50" />
<missing-glyph horiz-adv-x="300" />
<glyph glyph-name="NULL" horiz-adv-x="0" >
</glyph>
<glyph glyph-name="CR" unicode="&#xd;" horiz-adv-x="250" >
</glyph>
<glyph glyph-name="space" unicode="&#x20;" horiz-adv-x="219" />
<glyph glyph-name="exclam" unicode="&#x21;" horiz-adv-x="304" d="M209 225 C245 487 261 596 261 629 C261 671 236 706 178 706 C113 706 93 663 93 627 C93 592 107 491 145 225 L209 225 Z M252 75 C252 120 217 154 170 154 C123 154 90 118 90 72 C90 24 123 -9 171 -9 C218 -9 252 21 252 75 L252 75 Z " />
<glyph glyph-name="quotedbl" unicode="&#x22;" horiz-adv-x="349" d="M114 416 C143 583 150 626 150 656 C150 687 135 711 90 711 C52 711 32 690 32 656 C32 629 39 582 64 416 L114 416 Z M282 416 C309 583 317 626 317 656 C317 687 304 711 258 711 C218 711 199 690 199 656 C199 629 207 582 232 416 L282 416 Z " />
<glyph glyph-name="numbersign" unicode="&#x23;" horiz-adv-x="570" d="M160 -13 L202 199 L313 199 L270 -13 L328 -13 L371 199 L489 199 L489 294 L391 294 L411 387 L531 387 L531 484 L431 484 L469 671 L410 671 L371 484 L261 484 L300 671 L240 671 L203 484 L80 484 L80 387 L183 387 L164 294 L39 294 L39 199 L143 199 L102 -13 L160 -13 Z M222 294 L242 387 L351 387 L333 294 L222 294 Z " />
<glyph glyph-name="dollar" unicode="&#x24;" horiz-adv-x="582" d="M328 -115 L328 -1 C453 11 539 76 539 200 C539 291 487 344 390 379 L328 401 L328 559 C358 557 383 550 397 540 C417 525 427 490 431 456 L504 456 C508 489 513 534 513 559 C513 598 503 620 477 633 C438 652 378 662 328 663 L328 764 L271 764 L271 660 C128 645 65 565 65 465 C65 398 86 327 211 283 L271 261 L271 100 C226 102 188 113 169 134 C156 147 142 168 133 219 L59 219 C56 194 54 165 54 130 C54 78 66 46 123 21 C157 6 216 -3 271 -4 L271 -115 L328 -115 Z M333 239 C371 225 390 207 390 168 C390 137 369 113 328 104 L328 241 L333 239 Z M211 494 C211 522 227 548 271 557 L271 422 L269 423 C224 439 211 464 211 494 L211 494 Z " />
<glyph glyph-name="percent" unicode="&#x25;" horiz-adv-x="911" d="M388 463 C388 590 345 668 213 668 C95 668 27 592 27 454 C27 316 82 244 208 244 C309 244 388 305 388 463 L388 463 Z M274 459 C274 371 253 326 209 326 C164 326 142 359 142 462 C142 544 162 588 210 588 C254 588 274 555 274 459 L274 459 Z M575 679 L284 12 L345 -13 L635 655 L575 679 Z M883 210 C883 338 841 416 709 416 C591 416 523 340 523 202 C523 63 578 -8 704 -8 C805 -8 883 53 883 210 L883 210 Z M769 206 C769 118 749 73 705 73 C660 73 637 107 637 209 C637 292 658 335 706 335 C750 335 769 302 769 206 L769 206 Z " />
<glyph glyph-name="ampersand" unicode="&#x26;" horiz-adv-x="819" d="M765 111 C753 109 744 109 733 109 C695 109 654 124 610 154 C631 180 651 211 672 250 C689 283 703 300 712 306 C726 315 744 318 768 319 L768 399 C733 397 667 397 635 397 C610 397 531 398 501 399 L501 319 C518 318 529 316 543 314 C558 311 567 304 567 291 C567 281 563 267 559 258 C552 243 543 227 534 216 C475 264 426 315 387 371 C507 421 561 467 561 553 C561 637 492 691 375 691 C187 691 150 593 150 516 C150 464 167 425 193 379 C92 340 37 281 37 185 C37 67 141 -13 297 -13 C378 -13 447 6 506 41 C546 12 620 -9 698 -9 C722 -9 746 -7 766 -4 L765 111 Z M342 446 C317 480 308 503 308 528 C308 566 331 589 377 589 C417 589 438 568 438 537 C438 506 415 476 342 446 L342 446 Z M245 290 C284 235 327 184 405 115 C380 101 353 96 317 96 C254 96 199 142 199 205 C199 246 214 271 245 290 L245 290 Z " />
<glyph glyph-name="quotesingle" unicode="&#x27;" horiz-adv-x="181" d="M114 416 C143 583 150 626 150 656 C150 687 135 711 90 711 C52 711 32 690 32 656 C32 629 39 582 64 416 L114 416 Z " />
<glyph glyph-name="parenleft" unicode="&#x28;" horiz-adv-x="331" d="M327 -150 C224 -49 151 93 151 290 C151 510 213 632 322 733 L287 781 C120 675 37 512 37 290 C37 62 127 -97 289 -196 L327 -150 Z " />
<glyph glyph-name="parenright" unicode="&#x29;" horiz-adv-x="331" d="M5 736 C107 634 180 493 180 296 C180 76 118 -46 8 -147 L44 -196 C211 -89 294 73 294 296 C294 523 203 683 42 781 L5 736 Z " />
<glyph glyph-name="asterisk" unicode="&#x2a;" horiz-adv-x="411" d="M229 550 C242 595 253 633 253 657 C253 690 234 701 206 701 C184 701 159 692 159 656 C159 637 167 613 177 583 C182 568 186 554 191 542 C127 593 101 611 83 611 C54 611 37 584 37 559 C37 525 55 518 81 515 C107 511 128 510 151 509 C160 509 167 509 178 508 C89 450 77 423 77 404 C77 378 106 359 123 359 C154 359 173 371 205 481 C238 376 246 359 283 359 C303 359 331 377 331 403 C331 428 311 453 235 506 C270 508 301 509 334 513 C364 517 375 532 375 560 C375 587 362 609 333 609 C312 609 287 591 226 542 L229 550 Z " />
<glyph glyph-name="plus" unicode="&#x2b;" horiz-adv-x="617" d="M352 71 L352 269 L531 269 L531 358 L352 358 L352 555 L266 555 L266 358 L86 358 L86 269 L266 269 L266 71 L352 71 Z " />
<glyph glyph-name="comma" unicode="&#x2c;" horiz-adv-x="238" d="M50 -194 C158 -120 212 -42 212 49 C212 111 178 154 118 154 C64 154 32 115 32 77 C32 33 55 15 82 6 C99 0 106 -13 106 -26 C106 -60 75 -100 14 -145 L50 -194 Z " />
<glyph glyph-name="hyphen" unicode="&#x2d;" horiz-adv-x="281" d="M251 296 L28 296 L28 201 L251 201 L251 296 Z " />
<glyph glyph-name="period" unicode="&#x2e;" horiz-adv-x="225" d="M194 75 C194 120 159 154 111 154 C65 154 32 118 32 72 C32 24 65 -9 112 -9 C159 -9 194 21 194 75 L194 75 Z " />
<glyph glyph-name="slash" unicode="&#x2f;" horiz-adv-x="341" d="M322 714 L252 731 L22 -65 L91 -82 L322 714 Z " />
<glyph glyph-name="zero" unicode="0" horiz-adv-x="604" d="M569 339 C569 546 506 670 310 670 C135 670 35 549 35 325 C35 100 116 -14 302 -14 C452 -14 569 82 569 339 L569 339 Z M414 332 C414 182 377 99 303 99 C230 99 190 162 190 338 C190 479 226 560 305 560 C380 560 414 498 414 332 L414 332 Z " />
<glyph glyph-name="one" unicode="1" horiz-adv-x="604" d="M498 -1 L498 79 C425 83 403 90 396 100 C391 108 388 119 388 159 L388 402 C388 498 389 555 389 601 C389 654 361 671 330 671 C305 671 275 663 259 658 C217 643 142 616 103 596 L127 509 C151 517 192 525 210 525 C224 525 233 519 235 500 C238 475 239 429 239 393 L239 159 C239 126 238 109 229 100 C220 91 200 83 125 79 L125 -1 C167 0 295 1 318 1 C342 1 457 0 498 -1 L498 -1 Z " />
<glyph glyph-name="two" unicode="2" horiz-adv-x="604" d="M548 205 L476 205 C468 176 459 154 452 144 C440 124 418 119 362 119 C332 119 262 118 223 118 C414 244 510 360 510 482 C510 597 437 670 284 670 C212 670 156 656 128 644 C85 624 67 599 67 560 C67 537 72 492 77 460 L161 460 C163 510 171 529 182 539 C195 550 222 560 254 560 C331 560 354 514 354 461 C354 371 275 281 39 88 L39 0 L465 0 C515 0 533 20 537 44 C544 82 547 152 548 205 L548 205 Z " />
<glyph glyph-name="three" unicode="3" horiz-adv-x="604" d="M63 197 C59 164 56 125 56 81 C56 42 76 21 110 7 C140 -4 205 -14 260 -14 C430 -14 533 56 533 186 C533 273 487 325 375 344 C481 379 506 447 506 505 C506 595 459 670 287 670 C211 670 144 650 119 636 C86 620 72 595 72 559 C72 538 76 491 79 467 L162 467 C166 507 173 531 187 542 C203 553 230 561 270 561 C328 561 352 529 352 481 C352 431 326 396 262 386 C237 382 213 383 191 382 L191 280 C214 280 239 280 262 278 C343 274 378 246 378 186 C378 138 344 100 270 100 C223 100 187 108 171 124 C159 135 150 157 147 197 L63 197 Z " />
<glyph glyph-name="four" unicode="4" horiz-adv-x="604" d="M558 -1 L558 79 C499 82 478 90 471 99 C466 106 463 125 463 151 L463 176 L563 176 L563 286 L463 286 L463 432 C463 467 464 542 464 585 C464 653 426 671 391 671 C336 671 315 651 278 599 L34 253 L34 175 L319 175 L319 153 C319 130 316 109 310 99 C304 90 280 83 219 79 L219 -1 C262 0 357 1 379 1 C403 1 517 0 558 -1 L558 -1 Z M319 283 L158 283 L323 522 C320 470 320 377 319 283 L319 283 Z " />
<glyph glyph-name="five" unicode="5" horiz-adv-x="604" d="M68 190 C64 160 61 109 61 79 C61 43 75 23 115 7 C142 -4 196 -14 255 -14 C404 -14 538 49 538 229 C538 370 440 428 321 428 C282 428 240 422 213 414 L224 535 L501 535 L501 654 L125 654 L102 406 C100 387 100 365 100 355 C100 308 126 296 155 296 C168 296 192 301 206 304 C227 308 244 310 257 310 C347 310 383 270 383 201 C383 142 344 94 260 94 C223 94 190 103 175 119 C164 130 156 150 153 190 L68 190 Z " />
<glyph glyph-name="six" unicode="6" horiz-adv-x="604" d="M208 371 C212 495 267 561 354 561 C376 561 404 557 420 544 C433 534 439 516 444 478 L528 478 C531 502 535 561 535 581 C535 618 518 637 487 650 C461 661 412 670 357 670 C207 670 55 597 55 299 C55 95 152 -14 308 -14 C462 -14 554 87 554 217 C554 323 502 430 350 430 C301 430 234 410 208 371 L208 371 Z M207 262 C229 295 272 315 309 315 C366 315 410 291 410 211 C410 136 370 98 310 98 C264 98 221 122 210 203 C208 218 207 236 207 262 L207 262 Z " />
<glyph glyph-name="seven" unicode="7" horiz-adv-x="604" d="M57 449 L121 449 C127 490 136 518 155 526 C176 535 218 535 283 535 L411 535 L189 54 C183 41 179 26 179 13 C179 -18 213 -36 247 -36 C276 -36 292 -16 302 8 L542 570 L542 654 L111 654 C65 654 50 629 50 593 C50 561 52 504 57 449 L57 449 Z " />
<glyph glyph-name="eight" unicode="8" horiz-adv-x="604" d="M170 323 C78 288 44 224 44 161 C44 52 131 -15 287 -15 C465 -15 551 81 551 182 C551 249 534 305 417 365 C487 399 528 438 528 510 C528 601 459 670 307 670 C139 670 67 581 67 489 C67 436 82 375 170 323 L170 323 Z M253 276 C355 237 388 210 388 166 C388 124 357 91 289 91 C219 91 185 128 185 173 C185 213 203 242 253 276 L253 276 Z M329 408 C249 438 220 465 220 503 C220 536 246 567 305 567 C357 567 387 537 387 500 C387 466 366 434 329 408 L329 408 Z " />
<glyph glyph-name="nine" unicode="9" horiz-adv-x="604" d="M395 287 C390 161 341 99 256 99 C215 99 194 107 181 119 C169 130 160 146 155 184 L71 184 C68 159 65 105 65 77 C65 40 83 19 114 6 C140 -4 191 -14 247 -14 C404 -14 548 58 548 358 C548 562 453 670 296 670 C141 670 51 571 51 440 C51 333 100 230 253 230 C302 230 368 249 395 287 L395 287 Z M396 396 C374 362 330 345 294 345 C237 345 194 366 194 446 C194 524 232 560 292 560 C340 560 382 536 393 460 C395 445 396 421 396 396 L396 396 Z " />
<glyph glyph-name="colon" unicode="&#x3a;" horiz-adv-x="246" d="M215 75 C215 120 181 154 132 154 C86 154 53 118 53 72 C53 24 86 -9 133 -9 C181 -9 215 21 215 75 L215 75 Z M215 380 C215 426 181 459 132 459 C86 459 53 424 53 378 C53 330 86 296 133 296 C181 296 215 326 215 380 L215 380 Z " />
<glyph glyph-name="semicolon" unicode="&#x3b;" horiz-adv-x="252" d="M215 380 C215 426 181 459 132 459 C86 459 53 424 53 378 C53 330 86 296 133 296 C181 296 215 326 215 380 L215 380 Z M71 -194 C178 -120 233 -42 233 49 C233 111 199 154 139 154 C85 154 53 115 53 77 C53 33 76 15 103 6 C120 0 127 -13 127 -26 C127 -60 96 -100 35 -145 L71 -194 Z " />
<glyph glyph-name="less" unicode="&#x3c;" horiz-adv-x="616" d="M496 65 L496 171 L192 321 L496 471 L496 574 L98 368 L98 274 L496 65 Z " />
<glyph glyph-name="equal" unicode="&#x3d;" horiz-adv-x="616" d="M538 181 L538 273 L77 273 L77 181 L538 181 Z M538 376 L538 467 L77 467 L77 376 L538 376 Z " />
<glyph glyph-name="greater" unicode="&#x3e;" horiz-adv-x="616" d="M120 574 L120 468 L424 319 L120 169 L120 65 L518 273 L518 367 L120 574 Z " />
<glyph glyph-name="question" unicode="&#x3f;" horiz-adv-x="470" d="M235 217 C238 237 238 250 240 265 C243 287 251 307 274 317 C418 380 460 435 460 525 C460 622 403 698 241 699 C196 699 137 689 105 676 C74 663 56 642 56 606 C56 579 61 541 65 520 L149 520 C151 556 157 576 169 585 C182 595 207 598 230 598 C297 597 309 549 309 514 C309 477 287 440 226 413 C174 390 156 376 156 335 C156 313 159 264 166 217 L235 217 Z M283 75 C283 120 249 154 201 154 C155 154 122 118 122 72 C122 24 155 -9 202 -9 C250 -9 283 21 283 75 L283 75 Z " />
<glyph glyph-name="at" unicode="&#x40;" horiz-adv-x="833" d="M738 -50 L706 6 C630 -41 545 -74 430 -74 C248 -74 130 43 130 211 C130 418 263 573 463 573 C605 573 708 501 708 341 C708 262 683 200 651 164 C632 141 610 128 592 128 C573 128 568 139 568 155 C568 180 576 223 585 258 L635 466 L561 466 L543 439 C516 452 484 460 454 460 C398 460 344 443 297 393 C245 337 212 251 212 184 C212 92 265 48 334 48 C395 48 438 78 472 114 C473 107 474 95 477 87 C489 58 510 46 550 46 C593 46 641 65 676 95 C743 152 785 240 785 346 C785 514 672 637 464 637 C223 637 46 452 46 211 C46 -3 197 -146 420 -146 C542 -146 652 -106 738 -50 L738 -50 Z M470 167 C442 144 402 129 377 129 C340 129 314 144 314 198 C314 241 340 310 370 346 C394 374 421 382 451 382 C474 382 495 375 513 366 L484 240 C478 214 474 193 470 167 L470 167 Z " />
<glyph glyph-name="A" unicode="A" horiz-adv-x="759" d="M315 -1 L315 81 C281 83 254 86 241 91 C225 97 224 106 224 115 C224 132 231 157 239 178 L253 213 L462 213 L477 172 C485 148 490 127 490 117 C490 106 487 96 469 90 C456 85 433 82 406 81 L406 -1 C457 0 587 1 612 1 C638 1 704 0 749 -1 L749 81 C717 82 700 88 692 93 C674 107 664 122 649 164 L481 622 C464 669 436 693 387 693 C337 693 306 668 286 615 L123 190 C99 126 92 112 79 100 C67 88 47 82 10 81 L10 -1 C52 0 111 1 132 1 C155 1 269 0 315 -1 L315 -1 Z M282 321 C310 398 343 488 356 527 C365 490 401 396 426 321 L282 321 Z " />
<glyph glyph-name="B" unicode="B" horiz-adv-x="653" d="M22 -1 C59 0 122 1 153 1 C205 1 315 -1 356 -1 C425 -1 483 13 517 32 C588 70 614 127 614 196 C614 288 554 348 442 361 C535 383 578 439 578 519 C578 598 531 652 429 668 C396 673 319 677 265 677 L22 677 L22 596 C80 593 91 591 100 581 C107 574 109 561 109 523 L109 156 C109 109 106 103 96 94 C88 88 72 82 22 81 L22 -1 Z M263 404 L263 566 L292 566 C320 566 352 564 370 559 C404 548 420 523 420 487 C420 448 402 421 361 410 C347 406 313 404 291 404 L263 404 Z M262 298 L285 298 C343 298 380 295 404 282 C431 267 448 239 448 201 C448 132 404 100 330 100 C318 100 295 101 282 103 C267 106 262 112 262 132 L262 298 Z " />
<glyph glyph-name="C" unicode="C" horiz-adv-x="679" d="M638 209 L550 209 C536 165 524 142 512 129 C495 111 461 100 402 100 C310 100 200 153 200 336 C200 512 298 580 401 580 C458 580 491 571 509 551 C519 539 526 514 531 469 L617 469 C621 495 630 554 630 599 C630 629 611 652 577 667 C546 681 485 692 407 692 C175 692 40 554 40 326 C40 107 171 -14 383 -14 C461 -14 522 1 552 12 C585 24 609 42 619 65 C628 87 635 130 638 209 L638 209 Z " />
<glyph glyph-name="D" unicode="D" horiz-adv-x="738" d="M22 0 L282 0 C396 0 491 17 550 50 C653 108 699 205 699 351 C699 477 662 570 573 624 C510 661 430 676 225 676 L22 676 L22 596 C86 593 97 591 105 574 C108 566 109 545 109 519 L109 156 C109 115 107 106 101 97 C93 87 79 83 22 81 L22 0 Z M262 149 L262 562 L306 562 C362 562 406 556 441 542 C502 517 535 455 535 340 C535 175 473 108 337 108 C319 108 293 110 278 118 C266 124 262 133 262 149 L262 149 Z " />
<glyph glyph-name="E" unicode="E" horiz-adv-x="635" d="M609 203 L530 203 C521 179 511 140 496 127 C479 111 447 100 369 100 C346 100 316 100 289 104 C269 107 262 120 262 147 L262 296 L300 296 C337 296 360 295 373 282 C382 272 387 253 392 224 L465 224 C464 266 464 329 464 346 C464 374 464 440 465 465 L389 465 C385 443 378 419 369 409 C358 396 335 394 300 394 L262 394 L262 573 L377 573 C421 573 439 569 449 562 C460 554 468 532 475 489 L561 489 C564 515 572 590 572 625 C572 656 549 676 499 676 L22 676 L22 596 C78 591 94 587 103 576 C109 570 109 549 109 520 L109 160 C109 122 109 106 101 97 C92 88 71 85 22 81 L22 0 L498 0 C544 0 582 14 590 36 C602 70 608 154 609 203 L609 203 Z " />
<glyph glyph-name="F" unicode="F" horiz-adv-x="597" d="M370 -1 L370 81 C308 83 283 91 274 102 C267 109 262 127 262 172 L262 279 L318 279 C355 279 379 279 391 265 C401 254 405 232 410 203 L479 203 C477 245 477 311 477 328 C477 356 477 426 478 451 L407 451 C403 428 396 401 387 391 C376 378 353 376 318 376 L262 376 L262 571 L378 571 C423 571 440 563 450 555 C460 548 467 532 476 489 L562 489 C565 513 572 588 572 622 C572 654 556 676 504 676 L22 676 L22 596 C78 591 94 587 103 576 C109 570 109 549 109 520 L109 160 C109 117 107 104 101 97 C93 88 82 83 22 81 L22 -1 C66 0 164 1 187 1 C212 1 327 0 370 -1 L370 -1 Z " />
<glyph glyph-name="G" unicode="G" horiz-adv-x="724" d="M702 252 L702 334 C666 333 596 332 566 332 C545 332 434 333 405 334 L405 252 C437 250 467 246 481 240 C489 235 493 225 493 202 L493 152 C493 135 492 124 485 117 C481 113 472 107 462 105 C452 102 421 100 403 100 C321 100 200 144 200 336 C200 533 316 580 413 580 C472 580 508 574 525 551 C534 538 542 514 548 468 L634 468 C641 507 647 566 647 596 C647 629 630 648 605 661 C566 681 502 692 406 692 C182 692 40 549 40 326 C40 105 182 -15 384 -15 C467 -15 551 1 604 24 C630 35 641 48 641 80 L641 201 C641 215 643 232 648 238 C656 247 672 250 702 252 L702 252 Z " />
<glyph glyph-name="H" unicode="H" horiz-adv-x="770" d="M349 -1 L349 81 C288 84 277 90 270 98 C265 105 262 119 262 164 L262 298 L507 298 L507 160 C507 117 506 103 500 96 C492 87 477 83 420 81 L420 -1 C464 0 566 1 589 1 C614 1 705 0 748 -1 L748 81 C684 84 676 88 669 97 C663 104 661 119 661 164 L661 520 C661 560 663 571 669 578 C676 588 688 593 748 596 L748 677 C705 676 612 674 587 674 C564 674 464 676 420 677 L420 596 C477 593 492 589 500 579 C506 572 507 556 507 519 L507 410 L262 410 L262 520 C262 560 265 571 270 578 C276 587 287 593 349 596 L349 677 C306 676 210 674 185 674 C161 674 65 676 22 677 L22 596 C78 593 95 589 102 579 C108 572 109 557 109 521 L109 160 C109 117 107 104 101 97 C93 88 80 83 22 81 L22 -1 C66 0 163 1 186 1 C211 1 306 0 349 -1 L349 -1 Z " />
<glyph glyph-name="I" unicode="I" horiz-adv-x="371" d="M349 -1 L349 81 C286 84 278 90 270 99 C264 106 262 119 262 164 L262 520 C262 560 265 571 270 578 C276 587 287 593 349 596 L349 677 C309 676 243 674 185 674 C129 674 49 676 22 677 L22 596 C78 593 95 589 102 579 C108 572 109 557 109 521 L109 160 C109 117 107 104 101 97 C93 88 80 83 22 81 L22 -1 C66 0 163 1 186 1 C211 1 306 0 349 -1 L349 -1 Z " />
<glyph glyph-name="J" unicode="J" horiz-adv-x="361" d="M39 -162 C108 -136 182 -87 216 -32 C251 24 260 86 260 170 L260 520 C260 560 263 571 268 578 C275 587 282 593 344 596 L344 677 C304 676 241 674 183 674 C127 674 47 676 19 677 L19 596 C75 593 93 589 100 579 C106 572 107 557 107 521 L107 168 C107 91 100 39 86 4 C73 -28 36 -61 -5 -85 L39 -162 Z " />
<glyph glyph-name="K" unicode="K" horiz-adv-x="727" d="M350 -1 L350 81 C288 84 278 90 270 99 C264 106 262 119 262 164 L262 520 C262 560 265 572 270 579 C276 587 288 593 349 596 L349 677 C306 676 210 674 185 674 C161 674 65 676 22 677 L22 596 C78 593 95 589 102 580 C108 572 109 558 109 521 L109 160 C109 117 107 104 101 97 C92 88 80 83 22 81 L22 -1 C66 0 163 1 186 1 C211 1 307 0 350 -1 L350 -1 Z M717 1 L717 82 C703 82 683 84 668 89 C650 96 636 105 614 126 C567 170 496 261 429 364 C473 411 549 491 580 525 C615 564 638 581 655 587 C668 592 685 595 699 596 L699 677 C655 675 590 675 566 675 C543 675 449 675 406 677 L406 596 C457 593 463 585 463 570 C463 554 450 533 431 510 C397 471 331 398 272 338 C352 202 424 96 478 44 C510 14 561 -4 620 -4 C639 -4 680 -4 717 1 L717 1 Z " />
<glyph glyph-name="L" unicode="L" horiz-adv-x="623" d="M595 207 L523 207 C516 183 504 147 492 134 C476 116 447 107 369 107 C346 107 316 107 289 111 C269 114 262 127 262 154 L262 520 C262 560 265 571 270 578 C276 587 289 593 350 596 L350 677 C311 676 243 674 185 674 C129 674 49 676 22 677 L22 596 C79 593 95 589 102 580 C108 572 109 558 109 521 L109 160 C109 122 109 106 101 97 C92 88 69 85 22 81 L22 0 L492 0 C537 0 568 14 576 36 C589 70 594 158 595 207 L595 207 Z " />
<glyph glyph-name="M" unicode="M" horiz-adv-x="908" d="M304 -1 L304 81 C250 83 235 87 227 96 C220 103 217 117 217 139 C217 166 215 421 215 523 C242 448 259 402 361 143 C372 114 389 97 427 97 C464 97 482 115 493 142 C601 399 627 471 645 522 C643 394 643 167 643 152 C643 120 640 106 635 98 C629 90 612 84 554 81 L554 -1 C612 0 698 1 725 1 C756 1 837 0 886 -1 L886 81 C826 84 812 88 805 98 C802 105 798 114 797 172 C794 478 793 501 793 525 C793 554 794 572 801 580 C807 590 819 594 878 596 L878 677 C841 675 752 675 735 675 C711 675 639 676 598 677 C498 440 473 371 451 308 C431 372 406 442 312 677 C278 675 211 675 186 675 C164 675 73 675 28 677 L28 596 C94 594 102 589 109 581 C114 575 116 556 116 547 C116 525 114 490 109 178 C108 135 105 107 97 96 C89 86 63 81 21 81 L21 -1 C72 0 168 1 188 1 C210 1 261 0 304 -1 L304 -1 Z " />
<glyph glyph-name="N" unicode="N" horiz-adv-x="768" d="M304 -1 L304 81 C244 84 231 87 222 97 C215 106 213 122 212 183 C211 275 209 366 208 503 C255 429 298 364 515 38 C535 8 559 -11 596 -11 C651 -11 670 14 670 62 C670 104 669 205 669 242 C669 361 669 438 670 493 C671 555 673 571 682 579 C694 589 706 593 759 596 L759 677 C706 676 650 675 622 675 C600 675 527 676 474 677 L474 596 C535 594 551 587 558 576 C565 563 566 546 568 493 C570 454 570 339 574 239 C530 310 481 385 281 677 C246 675 185 675 168 675 C152 675 41 676 19 677 L19 596 C41 595 61 594 74 591 C92 588 101 583 106 573 C110 565 112 539 112 492 C112 438 110 284 109 184 C109 135 108 111 103 101 C96 89 82 84 21 81 L21 -1 C72 0 141 1 162 1 C191 1 251 0 304 -1 L304 -1 Z " />
<glyph glyph-name="O" unicode="O" horiz-adv-x="750" d="M711 349 C711 558 616 691 383 691 C179 691 39 558 39 335 C39 129 147 -14 374 -14 C562 -14 711 102 711 349 L711 349 Z M547 343 C547 179 486 100 375 100 C269 100 201 166 201 349 C201 495 263 580 377 580 C490 580 547 511 547 343 L547 343 Z " />
<glyph glyph-name="P" unicode="P" horiz-adv-x="639" d="M362 -1 L362 81 C301 82 282 86 272 97 C264 106 262 121 262 162 L262 252 C286 250 315 250 340 250 C515 250 607 334 607 479 C607 580 553 648 450 666 C412 673 343 676 270 676 L22 676 L22 596 C80 593 92 589 99 582 C107 575 109 566 109 523 L109 155 C109 105 105 99 93 92 C84 87 62 82 22 81 L22 -1 C76 0 139 1 170 1 C193 1 313 0 362 -1 L362 -1 Z M262 360 L262 563 L296 563 C336 563 368 561 387 555 C426 543 450 513 450 466 C450 382 394 359 313 359 C302 359 278 359 262 360 L262 360 Z " />
<glyph glyph-name="Q" unicode="Q" horiz-adv-x="750" d="M711 349 C711 558 616 691 383 691 C179 691 39 558 39 335 C39 146 130 10 320 -11 C392 -78 439 -118 515 -149 C552 -164 628 -175 697 -175 C726 -175 754 -173 778 -169 L778 -86 C773 -87 767 -87 760 -87 C717 -87 648 -72 604 -51 C562 -30 541 -13 514 12 C629 58 711 169 711 349 L711 349 Z M547 343 C547 179 486 100 375 100 C269 100 201 166 201 349 C201 495 263 580 377 580 C490 580 547 511 547 343 L547 343 Z " />
<glyph glyph-name="R" unicode="R" horiz-adv-x="679" d="M671 0 L671 83 C654 84 639 88 626 95 C609 105 591 120 569 143 C531 183 502 222 463 282 C551 313 597 382 597 481 C597 581 543 646 442 665 C406 672 343 676 270 676 L22 676 L22 596 C80 593 93 589 99 582 C106 574 109 566 109 524 L109 155 C109 105 105 99 93 92 C84 87 60 82 22 81 L22 -1 C76 0 139 1 170 1 C193 1 299 0 347 -1 L347 81 C294 82 282 86 272 97 C264 106 262 121 262 162 L262 267 C274 265 293 263 310 262 C357 173 403 99 453 55 C484 27 527 -2 619 -2 C639 -2 665 -1 671 0 L671 0 Z M262 374 L262 563 L293 563 C314 563 366 561 385 555 C420 544 440 513 440 473 C440 399 390 373 320 373 C308 373 278 373 262 374 L262 374 Z " />
<glyph glyph-name="S" unicode="S" horiz-adv-x="600" d="M54 229 C51 204 48 169 48 128 C48 74 60 40 122 13 C159 -4 227 -14 287 -14 C447 -14 561 56 561 202 C561 298 509 354 404 392 L277 438 C228 456 214 481 214 513 C214 551 240 583 314 583 C357 583 396 578 413 563 C429 548 439 522 447 466 L525 466 C529 502 533 555 533 581 C533 624 523 645 496 661 C454 684 385 691 330 691 C143 691 60 600 60 482 C60 412 82 338 215 290 L344 243 C384 229 404 209 404 168 C404 126 369 95 296 95 C241 95 193 108 170 131 C155 147 140 171 130 229 L54 229 Z " />
<glyph glyph-name="T" unicode="T" horiz-adv-x="683" d="M516 -1 L516 81 C449 84 437 90 430 99 C424 107 422 122 422 165 L422 569 C504 569 531 567 548 554 C564 542 570 520 577 452 L648 452 C651 495 653 591 653 616 C653 651 636 676 586 676 L98 676 C47 676 32 647 32 608 C32 583 34 495 37 452 L108 452 C114 529 128 548 140 556 C156 567 184 569 269 569 L269 161 C269 119 267 105 261 98 C253 89 241 83 175 81 L175 -1 C218 0 324 1 348 1 C373 1 474 0 516 -1 L516 -1 Z " />
<glyph glyph-name="U" unicode="U" horiz-adv-x="785" d="M770 596 L770 677 C735 677 671 676 648 676 C624 676 524 676 487 677 L487 596 C532 593 555 591 567 581 C577 573 578 556 580 518 C584 445 584 345 584 317 C584 252 581 192 555 151 C531 114 478 98 415 98 C347 98 295 118 277 167 C264 202 260 258 260 313 C260 405 260 483 261 528 C262 557 264 571 270 578 C277 588 293 594 357 596 L357 677 C318 676 192 675 166 675 C137 675 57 676 17 677 L17 596 C76 593 93 587 100 575 C104 568 107 554 107 520 C107 487 105 397 105 308 C105 173 118 122 146 80 C185 19 275 -16 391 -16 C490 -16 577 12 622 65 C664 113 681 171 681 296 L681 510 C681 541 682 562 688 573 C693 583 708 591 770 596 L770 596 Z " />
<glyph glyph-name="V" unicode="V" horiz-adv-x="760" d="M746 596 L746 677 C703 676 596 675 574 675 C551 675 486 676 440 677 L440 596 C474 595 502 592 515 587 C527 583 531 571 531 562 C531 544 525 521 518 499 C447 288 427 224 406 159 C384 225 362 289 288 501 C280 524 273 549 273 557 C273 571 278 581 295 587 C308 592 332 595 358 596 L358 677 C307 676 217 675 190 675 C165 675 58 676 14 677 L14 596 C42 595 62 589 70 583 C87 569 98 552 113 510 L281 51 C298 5 326 -13 377 -13 C426 -13 458 7 476 57 L642 508 C655 543 665 567 677 578 C690 591 712 595 746 596 L746 596 Z " />
<glyph glyph-name="W" unicode="W" horiz-adv-x="1072" d="M1055 596 L1055 677 C1018 676 944 675 922 675 C892 675 803 676 754 677 L754 596 C841 593 848 580 848 553 C848 544 846 529 839 497 C807 362 787 271 771 187 C749 274 729 342 648 610 C634 655 619 679 564 679 C506 679 484 644 474 608 C402 362 378 277 355 188 C337 274 322 340 283 500 C278 522 276 542 276 552 C276 576 287 595 370 596 L370 677 C350 676 231 675 200 675 C173 675 89 676 26 677 L26 596 C55 595 71 591 83 585 C99 577 109 556 116 528 L238 52 C250 4 277 -13 327 -13 C376 -13 405 8 420 59 C491 297 519 401 536 474 C556 402 583 294 655 52 C669 4 693 -13 745 -13 C796 -13 824 7 838 59 L958 504 C969 543 977 568 992 580 C1001 587 1019 594 1055 596 L1055 596 Z " />
<glyph glyph-name="X" unicode="X" horiz-adv-x="769" d="M330 -1 L330 81 C263 84 248 91 248 111 C248 124 258 140 266 152 L349 273 L446 144 C455 132 459 124 459 112 C459 96 448 84 390 81 L390 -1 C449 0 553 1 582 1 C615 1 686 0 751 -1 L751 81 C710 83 691 84 678 95 C664 106 654 116 643 131 L487 343 L628 536 C642 554 658 574 669 582 C682 592 700 595 727 596 L727 677 C682 675 629 675 605 675 C578 675 491 675 452 677 L452 596 C501 593 515 589 515 569 C515 556 507 540 495 522 L428 422 L355 523 C342 541 335 556 335 568 C335 584 346 595 397 596 L397 677 C364 675 240 675 210 675 C176 675 108 675 45 677 L45 596 C73 595 95 592 110 584 C125 576 136 559 148 543 L286 358 L127 137 C115 120 106 109 91 97 C76 85 47 82 17 81 L17 -1 C76 1 139 1 165 1 C192 1 273 0 330 -1 L330 -1 Z " />
<glyph glyph-name="Y" unicode="Y" horiz-adv-x="673" d="M505 -1 L505 81 C433 84 419 93 414 105 C412 111 410 130 410 150 L410 266 L558 493 C590 543 609 572 620 581 C631 590 646 595 668 596 L668 677 C626 675 592 675 571 675 C539 675 456 675 409 677 L409 596 C466 595 475 584 475 570 C475 558 468 542 459 527 C430 474 397 418 366 363 C336 417 305 470 275 521 C267 534 258 552 258 567 C258 582 267 593 324 596 L324 677 C273 676 182 675 154 675 C128 675 63 676 6 677 L6 596 C32 594 40 591 54 582 C69 571 80 555 102 518 L256 265 L256 150 C256 124 255 108 250 100 C244 90 236 86 166 81 L166 -1 C216 0 312 1 337 1 C360 1 451 0 505 -1 L505 -1 Z " />
<glyph glyph-name="Z" unicode="Z" horiz-adv-x="672" d="M635 225 L545 225 C530 164 518 143 507 131 C490 113 470 104 355 104 C320 104 278 104 251 107 L602 629 L602 676 L106 676 C61 676 43 653 43 616 C43 584 45 519 51 463 L133 463 C143 525 156 549 174 559 C196 572 213 573 381 573 L27 46 L27 0 L540 0 C597 0 619 21 623 46 C630 84 634 169 635 225 L635 225 Z " />
<glyph glyph-name="bracketleft" unicode="&#x5b;" horiz-adv-x="325" d="M308 -170 L308 -111 L195 -111 L195 696 L308 696 L308 754 L89 754 L89 -170 L308 -170 Z " />
<glyph glyph-name="backslash" unicode="&#x5c;" horiz-adv-x="341" d="M256 -83 L325 -63 L93 733 L25 714 L256 -83 Z " />
<glyph glyph-name="bracketright" unicode="&#x5d;" horiz-adv-x="325" d="M18 754 L18 695 L130 695 L130 -111 L18 -111 L18 -170 L235 -170 L235 754 L18 754 Z " />
<glyph glyph-name="asciicircum" unicode="&#x5e;" horiz-adv-x="616" d="M516 350 L351 706 L266 706 L99 349 L192 349 L306 600 L423 350 L516 350 Z " />
<glyph glyph-name="underscore" unicode="&#x5f;" horiz-adv-x="491" d="M493 -139 L493 -80 L-2 -80 L-2 -139 L493 -139 Z " />
<glyph glyph-name="grave" unicode="&#x60;" horiz-adv-x="295" d="M247 548 L161 689 C135 730 121 739 101 739 C75 739 47 719 47 689 C47 670 58 654 83 629 L207 515 L247 548 Z " />
<glyph glyph-name="a" unicode="a" horiz-adv-x="535" d="M521 9 L521 93 C507 91 497 90 485 90 C461 90 448 102 448 148 C448 159 449 286 449 319 C449 371 438 408 418 431 C396 455 358 479 249 479 C204 479 148 467 116 454 C85 441 67 420 67 384 C67 357 72 320 76 299 L158 299 C160 335 166 352 178 361 C191 371 213 375 238 375 C269 375 292 368 302 351 C309 339 311 325 311 299 L311 272 C300 274 278 274 269 274 C91 274 30 223 30 131 C30 31 111 -11 187 -11 C242 -11 291 12 326 47 C340 -3 380 -9 415 -9 C444 -9 491 -2 521 9 L521 9 Z M311 108 C292 97 263 88 231 88 C203 88 172 100 172 139 C172 170 195 189 270 189 C281 189 302 188 311 186 L311 108 Z " />
<glyph glyph-name="b" unicode="b" horiz-adv-x="592" d="M75 25 C125 3 229 -9 291 -9 C468 -9 557 99 557 247 C557 379 507 479 376 479 C309 479 256 451 217 417 C218 509 218 576 218 652 C218 704 202 731 159 731 C107 731 60 720 5 694 L5 617 C13 618 23 619 29 619 C42 619 55 617 64 610 C74 601 76 578 76 513 L76 155 C76 126 76 72 75 25 L75 25 Z M216 114 L216 343 C245 360 275 368 308 368 C375 368 406 317 406 233 C406 161 371 104 295 104 C267 104 240 107 216 114 L216 114 Z " />
<glyph glyph-name="c" unicode="c" horiz-adv-x="493" d="M468 55 L427 136 C387 114 343 99 299 99 C236 99 181 127 181 232 C181 333 231 371 286 371 C307 371 327 368 337 360 C347 352 356 335 359 299 L444 299 C450 333 452 375 452 399 C452 438 430 454 391 466 C364 474 321 479 287 479 C141 479 35 385 35 221 C35 73 134 -14 267 -14 C337 -14 415 11 468 55 L468 55 Z " />
<glyph glyph-name="d" unicode="d" horiz-adv-x="615" d="M401 49 C410 10 433 -9 486 -9 C510 -9 552 -5 595 9 L595 93 C582 91 567 90 559 90 C531 90 522 110 522 139 L522 446 C522 495 524 614 524 657 C524 695 511 731 464 731 C425 731 365 722 310 694 L310 617 C320 618 330 619 337 619 C357 619 373 612 376 595 C380 582 382 558 382 536 L382 458 C356 470 314 476 286 476 C109 476 35 363 35 215 C35 84 116 -12 252 -12 C314 -12 362 8 401 49 L401 49 Z M382 126 C361 108 330 98 298 98 C228 98 181 144 181 232 C181 323 229 368 303 368 C330 368 362 363 382 351 L382 126 Z " />
<glyph glyph-name="e" unicode="e" horiz-adv-x="521" d="M498 61 L456 143 C395 112 344 100 297 100 C219 100 178 147 178 197 L178 205 L422 205 C442 205 461 208 472 220 C482 231 486 258 486 279 C486 390 428 479 283 479 C141 479 35 389 35 222 C35 78 131 -14 271 -14 C361 -14 443 16 498 61 L498 61 Z M179 293 C184 353 227 375 275 375 C327 375 352 346 352 307 L352 297 L179 293 Z " />
<glyph glyph-name="f" unicode="f" horiz-adv-x="352" d="M328 -1 L328 79 C264 82 251 87 244 95 C236 106 233 120 233 165 L233 356 C269 356 305 357 349 360 L349 448 C300 450 264 450 233 450 L233 508 C233 557 237 580 248 598 C259 616 281 624 299 624 C312 624 324 622 332 616 C343 608 349 593 349 556 L431 556 C434 581 438 631 438 656 C438 690 425 708 397 718 C367 729 338 731 303 731 C253 731 201 715 165 687 C121 653 97 602 91 514 C89 479 81 464 64 452 C48 440 28 436 13 433 L13 356 L93 356 L93 147 C93 127 92 104 86 96 C78 87 65 83 20 79 L20 -1 C67 0 152 1 174 1 C199 1 284 0 328 -1 L328 -1 Z " />
<glyph glyph-name="g" unicode="g" horiz-adv-x="544" d="M332 301 C332 248 300 220 254 220 C208 220 175 242 175 303 C175 346 204 379 253 379 C299 379 332 359 332 301 L332 301 Z M201 125 C213 123 229 122 248 122 C390 122 469 190 469 306 C469 320 465 346 458 356 C485 356 503 357 538 359 L538 447 C504 449 463 450 387 450 C358 468 320 479 255 479 C111 479 33 402 33 298 C33 224 64 175 131 146 C85 113 66 80 66 48 C66 18 79 -6 113 -22 C84 -32 60 -44 43 -57 C13 -79 0 -103 0 -140 C0 -214 71 -279 257 -279 C424 -279 529 -204 529 -92 C529 -16 499 35 402 50 C322 62 271 65 230 71 C192 77 182 88 182 98 C182 107 188 117 201 125 L201 125 Z M172 -51 C184 -55 210 -59 308 -71 C365 -78 380 -92 380 -114 C380 -144 352 -171 270 -171 C159 -171 133 -137 133 -107 C133 -89 142 -72 172 -51 L172 -51 Z " />
<glyph glyph-name="h" unicode="h" horiz-adv-x="612" d="M286 -1 L286 79 C255 82 245 85 237 93 C230 100 229 116 229 150 L229 338 C259 351 291 358 316 358 C340 358 359 354 369 343 C380 330 383 307 383 273 L383 151 C383 113 380 100 375 95 C369 87 359 83 324 79 L324 -1 C368 0 443 1 467 1 C489 1 555 0 597 -1 L597 79 C547 85 534 89 529 99 C525 107 524 120 524 149 L524 310 C524 380 514 420 489 444 C468 464 434 476 394 476 C338 476 269 450 228 405 C228 497 230 575 230 652 C230 704 212 731 169 731 C118 731 71 720 16 694 L16 617 C24 618 34 619 40 619 C52 619 66 617 74 610 C85 601 88 580 88 518 L88 148 C88 113 85 101 80 95 C73 87 62 84 16 79 L16 -1 C61 1 137 1 160 1 C186 1 242 0 286 -1 L286 -1 Z " />
<glyph glyph-name="i" unicode="i" horiz-adv-x="323" d="M231 639 C231 684 208 719 150 719 C101 719 68 684 68 637 C68 593 98 555 147 555 C201 555 231 593 231 639 L231 639 Z M305 -1 L305 79 C267 82 249 85 242 94 C235 102 233 115 233 150 C233 232 237 325 237 395 C237 460 205 474 169 474 C123 474 70 462 20 437 L20 359 C28 360 38 360 45 360 C56 360 70 358 78 353 C87 347 93 331 93 290 L93 149 C93 114 90 101 85 95 C77 87 66 84 20 79 L20 -1 C65 1 141 1 165 1 C190 1 262 0 305 -1 L305 -1 Z " />
<glyph glyph-name="j" unicode="j" horiz-adv-x="301" d="M221 639 C221 684 197 719 139 719 C90 719 58 684 58 637 C58 593 87 555 137 555 C191 555 221 593 221 639 L221 639 Z M-20 -207 L12 -275 C74 -256 147 -212 184 -159 C218 -109 224 -59 224 27 C224 108 222 325 222 395 C222 459 195 474 158 474 C113 474 60 462 10 437 L10 359 C18 360 27 361 34 361 C46 361 60 359 69 353 C77 347 83 331 83 291 L83 30 C83 -49 78 -101 63 -131 C49 -158 18 -186 -20 -207 L-20 -207 Z " />
<glyph glyph-name="k" unicode="k" horiz-adv-x="603" d="M302 -1 L302 79 C268 82 249 84 242 93 C235 100 231 116 231 150 L231 504 C231 553 232 602 232 654 C232 705 214 731 171 731 C120 731 74 720 18 694 L18 617 C26 619 36 619 43 619 C54 619 67 617 75 610 C86 600 90 576 90 527 L90 148 C90 113 88 101 83 95 C75 87 64 84 19 79 L19 -1 C64 1 139 1 163 1 C188 1 258 0 302 -1 L302 -1 Z M596 1 L596 81 C569 83 539 92 526 101 C511 110 482 137 472 148 C436 188 417 212 382 259 C396 271 435 307 458 328 C497 362 517 374 529 378 C544 385 561 386 574 386 L574 465 C527 463 470 463 445 463 C420 463 362 463 309 465 L309 387 C359 386 366 378 366 366 C366 351 352 333 315 298 C288 273 262 251 239 233 C282 169 336 83 392 35 C425 6 474 -2 526 -2 C546 -2 574 -1 596 1 L596 1 Z " />
<glyph glyph-name="l" unicode="l" horiz-adv-x="319" d="M302 -1 L302 79 C267 82 249 85 242 93 C235 100 231 116 231 150 L231 463 C231 521 232 600 232 654 C232 705 214 731 171 731 C123 731 72 719 18 694 L18 617 C26 619 36 619 43 619 C53 619 66 617 75 610 C86 601 90 576 90 493 L90 148 C90 113 88 101 83 95 C75 87 64 84 19 79 L19 -1 C64 1 139 1 163 1 C188 1 258 0 302 -1 L302 -1 Z " />
<glyph glyph-name="m" unicode="m" horiz-adv-x="901" d="M289 -1 L289 79 C258 82 250 85 242 93 C234 101 233 116 233 150 L233 338 C263 351 290 358 315 358 C339 358 359 355 369 343 C380 331 382 307 382 273 L382 151 C382 114 380 100 375 95 C369 87 359 83 325 79 L325 -1 C369 0 441 1 465 1 C487 1 540 0 582 -1 L582 79 C542 83 533 89 528 98 C524 106 523 120 523 149 L523 308 C523 316 522 328 521 338 C552 351 579 358 604 358 C629 358 647 354 657 343 C668 330 672 307 672 273 L672 151 C672 114 668 101 663 95 C656 87 648 82 617 79 L617 -1 C661 0 732 1 755 1 C778 1 843 0 886 -1 L886 79 C835 85 823 89 818 99 C813 107 812 120 812 149 L812 310 C812 380 802 420 778 444 C757 465 723 476 682 476 C626 476 556 447 512 401 C495 458 450 476 396 476 C340 476 273 450 232 405 C228 461 199 474 167 474 C122 474 70 462 20 437 L20 359 C28 360 38 360 45 360 C56 360 70 358 78 353 C87 347 93 331 93 290 L93 149 C93 114 90 101 85 95 C77 87 66 84 20 79 L20 -1 C65 1 144 1 167 1 C192 1 244 0 289 -1 L289 -1 Z " />
<glyph glyph-name="n" unicode="n" horiz-adv-x="618" d="M291 -1 L291 79 C260 82 250 85 242 93 C235 101 233 116 233 150 L233 338 C263 351 295 358 320 358 C344 358 363 354 373 343 C385 330 388 307 388 273 L388 151 C388 113 386 101 379 94 C372 87 363 83 329 79 L329 -1 C372 0 447 1 471 1 C493 1 559 0 601 -1 L601 79 C551 85 539 89 533 99 C529 107 528 120 528 149 L528 310 C528 380 518 420 494 444 C473 465 438 476 398 476 C342 476 273 450 232 405 C227 461 199 474 167 474 C122 474 70 462 20 437 L20 359 C28 360 38 360 45 360 C56 360 70 358 78 353 C87 347 93 331 93 290 L93 149 C93 114 90 101 85 95 C77 87 66 84 20 79 L20 -1 C65 1 141 1 165 1 C190 1 247 0 291 -1 L291 -1 Z " />
<glyph glyph-name="o" unicode="o" horiz-adv-x="573" d="M537 240 C537 384 459 479 293 479 C141 479 35 384 35 230 C35 87 116 -14 285 -14 C426 -14 537 72 537 240 L537 240 Z M392 231 C392 136 355 94 286 94 C221 94 181 132 181 240 C181 325 218 371 286 371 C357 371 392 331 392 231 L392 231 Z " />
<glyph glyph-name="p" unicode="p" horiz-adv-x="597" d="M320 -262 L320 -183 C255 -179 243 -174 236 -166 C227 -155 224 -140 224 -95 L224 -2 C247 -5 274 -9 296 -9 C474 -9 563 99 563 247 C563 379 513 479 382 479 C315 479 258 445 222 410 C218 465 189 474 157 474 C113 474 61 462 11 437 L11 359 C20 360 28 360 36 360 C47 360 61 358 69 353 C77 347 83 331 83 290 L83 -108 C83 -128 83 -157 76 -165 C69 -174 55 -179 11 -183 L11 -262 C58 -261 143 -260 165 -260 C190 -260 274 -261 320 -262 L320 -262 Z M223 114 L223 336 C249 353 284 364 314 364 C382 364 412 317 412 233 C412 157 378 104 302 104 C273 104 245 107 223 114 L223 114 Z " />
<glyph glyph-name="q" unicode="q" horiz-adv-x="605" d="M593 -262 L593 -183 C549 -179 535 -174 528 -165 C522 -157 522 -128 522 -108 L522 319 C522 383 522 416 524 447 C475 464 400 479 308 479 C121 479 35 383 35 215 C35 84 116 -12 252 -12 C304 -12 348 3 381 32 C381 20 380 -73 380 -95 C380 -140 378 -156 369 -166 C362 -175 351 -179 286 -183 L286 -262 C332 -261 415 -260 440 -260 C462 -260 547 -261 593 -262 L593 -262 Z M382 126 C362 109 328 99 298 99 C228 99 181 144 181 232 C181 323 229 370 303 370 C330 370 361 366 382 355 L382 126 Z " />
<glyph glyph-name="r" unicode="r" horiz-adv-x="434" d="M316 -1 L316 79 C280 81 252 84 244 93 C237 101 233 118 233 152 L233 342 C247 354 269 363 285 363 C306 363 316 353 322 314 L406 314 C412 356 416 392 416 415 C416 463 386 477 350 477 C306 477 258 448 231 411 C225 463 197 474 167 474 C122 474 70 462 20 437 L20 359 C28 360 38 360 45 360 C56 360 70 358 78 353 C87 347 93 331 93 290 L93 149 C93 114 90 101 85 95 C77 87 66 84 20 79 L20 -1 C65 1 141 1 165 1 C190 1 272 0 316 -1 L316 -1 Z " />
<glyph glyph-name="s" unicode="s" horiz-adv-x="475" d="M41 177 C38 159 37 129 37 96 C37 58 48 20 102 2 C130 -8 180 -14 224 -14 C343 -14 438 35 438 136 C438 201 416 239 313 276 L220 310 C193 320 183 328 183 345 C183 363 194 379 239 379 C267 379 296 374 309 365 C322 356 330 346 336 307 L410 307 C414 330 418 378 418 396 C418 428 406 446 384 457 C353 472 301 479 259 479 C116 479 45 412 45 331 C45 270 63 229 170 189 L262 155 C287 146 297 138 297 119 C297 99 279 86 232 86 C193 86 166 93 147 110 C135 120 122 135 116 177 L41 177 Z " />
<glyph glyph-name="t" unicode="t" horiz-adv-x="368" d="M363 20 L345 105 C321 99 296 98 278 98 C246 98 228 114 224 149 C222 169 222 200 222 234 L222 356 C256 356 298 357 337 359 L337 447 C289 450 249 450 222 450 L222 544 C222 583 202 596 168 596 C132 596 112 578 105 549 C97 519 95 503 84 478 C79 466 69 456 57 450 C39 442 21 436 4 433 L4 356 L82 356 C81 273 79 195 79 126 C79 21 133 -12 208 -12 C254 -12 321 -3 363 20 L363 20 Z " />
<glyph glyph-name="u" unicode="u" horiz-adv-x="600" d="M380 54 C388 5 427 -11 461 -11 C499 -11 546 -5 586 11 L586 93 C573 91 562 90 554 90 C519 90 513 105 513 157 C513 202 517 350 517 393 C517 459 487 474 451 474 C406 474 349 462 301 437 L301 359 C310 360 319 360 326 360 C337 360 351 358 359 353 C369 347 374 331 374 290 L374 128 C350 113 320 104 286 104 C247 104 215 115 215 184 C215 250 218 350 218 394 C218 459 189 474 152 474 C106 474 54 462 5 437 L5 359 C11 359 25 360 31 360 C44 360 52 359 62 353 C71 348 75 331 75 290 L75 165 C75 111 82 78 98 49 C119 8 165 -12 224 -12 C289 -12 345 15 380 54 L380 54 Z " />
<glyph glyph-name="v" unicode="v" horiz-adv-x="573" d="M567 383 L567 465 C536 464 471 463 452 463 C430 463 371 464 338 465 L338 383 C354 382 364 381 380 378 C391 376 398 369 398 358 C398 346 393 327 387 313 C363 252 336 183 315 127 C293 186 267 248 240 311 C234 327 230 341 230 351 C230 364 237 375 253 378 C263 380 279 382 289 383 L289 465 C253 464 198 463 174 463 C149 463 39 464 5 465 L5 383 C22 382 43 378 51 371 C63 362 73 343 86 313 L213 23 C225 -5 250 -18 288 -18 C321 -18 347 -4 359 22 L489 315 C502 344 511 359 522 370 C532 379 550 381 567 383 L567 383 Z " />
<glyph glyph-name="w" unicode="w" horiz-adv-x="823" d="M812 383 L812 465 C774 463 734 463 715 463 C692 463 625 463 583 465 L583 383 C606 381 622 380 635 377 C643 375 652 369 652 355 C652 347 649 331 645 317 C631 266 614 201 601 150 C575 229 544 323 509 418 C498 447 487 467 446 467 C401 467 387 444 377 417 C344 324 308 217 284 143 C271 194 252 257 236 317 C233 328 230 344 230 354 C230 368 239 376 255 378 C269 380 281 382 298 383 L298 465 C248 463 173 463 148 463 C127 463 58 463 13 465 L13 383 C40 381 53 379 62 369 C72 359 78 339 82 328 L182 23 C192 -6 216 -18 255 -18 C287 -18 313 -4 324 22 C366 127 395 213 419 286 C441 216 470 130 506 24 C516 -5 540 -18 577 -18 C612 -18 637 -4 646 24 L742 324 C752 354 758 369 771 374 C781 379 792 381 812 383 L812 383 Z " />
<glyph glyph-name="x" unicode="x" horiz-adv-x="600" d="M257 0 L257 79 C218 81 210 90 210 100 C210 111 216 120 233 141 L262 178 L297 143 C316 124 329 111 330 100 C330 89 322 81 287 79 L287 0 C341 1 406 1 431 1 C460 1 535 0 587 0 L587 79 C561 80 547 83 535 89 C522 96 511 103 495 121 L388 234 L485 338 C497 351 508 362 518 369 C530 379 541 381 568 383 L568 465 C531 463 480 463 459 463 C434 463 389 463 345 465 L345 383 C375 381 382 378 382 367 C382 356 378 347 367 334 L333 294 L296 335 C285 347 277 358 277 366 C277 376 282 382 313 383 L313 465 C261 463 194 463 168 463 C143 463 81 463 29 465 L29 383 C48 383 63 380 73 375 C86 368 101 355 112 344 L207 239 L105 126 C92 111 81 102 72 95 C60 86 48 81 12 79 L12 0 C51 1 103 2 127 2 C149 2 208 2 257 0 L257 0 Z " />
<glyph glyph-name="y" unicode="y" horiz-adv-x="573" d="M48 -120 C45 -138 42 -160 42 -188 C42 -229 62 -250 90 -262 C108 -270 134 -274 160 -274 C200 -274 248 -258 279 -213 C308 -171 335 -105 380 14 L490 308 C503 344 510 362 523 371 C533 378 551 381 567 383 L567 465 C536 464 471 463 452 463 C430 463 367 464 335 465 L335 383 C352 381 369 381 384 378 C391 377 402 370 402 358 C402 345 397 326 386 294 C365 230 346 176 327 120 C303 179 274 240 249 297 C236 326 232 342 232 353 C232 366 236 376 254 378 C265 380 281 381 293 383 L293 465 C256 464 198 463 174 463 C149 463 39 464 6 465 L6 383 C22 381 42 377 51 371 C64 362 76 341 88 315 L211 45 C225 14 240 -3 270 -3 C242 -79 222 -123 209 -143 C197 -162 183 -172 167 -172 C158 -172 148 -170 143 -166 C134 -158 130 -146 128 -120 L48 -120 Z " />
<glyph glyph-name="z" unicode="z" horiz-adv-x="512" d="M18 0 L418 0 C464 0 481 20 484 45 C489 91 492 163 492 184 L419 184 C414 161 406 141 399 127 C393 113 380 96 369 92 C354 86 328 81 286 81 C266 81 243 81 212 82 L468 409 L468 464 L92 464 C46 464 28 437 28 399 C28 365 32 319 35 293 L114 293 C119 323 122 341 130 356 C137 370 150 376 168 378 C193 380 218 380 274 380 L18 50 L18 0 Z " />
<glyph glyph-name="braceleft" unicode="&#x7b;" horiz-adv-x="318" d="M315 -184 L315 -124 C226 -124 208 -83 208 10 L208 153 C208 251 162 279 92 294 C166 312 208 340 208 434 L208 573 C208 682 225 714 315 714 L315 773 C151 773 104 696 104 590 L104 472 C104 362 91 331 12 324 L12 263 C88 257 106 216 106 126 L106 -15 C106 -133 170 -184 315 -184 L315 -184 Z " />
<glyph glyph-name="bar" unicode="&#x7c;" horiz-adv-x="270" d="M181 -183 L181 769 L89 769 L89 -183 L181 -183 Z " />
<glyph glyph-name="braceright" unicode="&#x7d;" horiz-adv-x="318" d="M6 773 L6 713 C95 713 113 671 113 578 L113 436 C113 337 159 309 228 295 C156 276 114 248 114 154 L114 15 C114 -93 96 -126 6 -126 L6 -184 C169 -184 216 -108 216 -2 L216 117 C216 226 230 257 309 264 L309 325 C233 332 214 372 214 462 L214 603 C214 721 150 773 6 773 L6 773 Z " />
<glyph glyph-name="asciitilde" unicode="&#x7e;" horiz-adv-x="616" d="M120 193 C149 242 177 262 214 262 C237 262 256 252 311 221 C353 196 378 189 407 189 C458 189 512 222 558 288 L500 350 C460 297 434 281 404 281 C382 281 362 291 329 310 C259 351 240 355 210 355 C155 355 108 325 58 257 L120 193 Z " />
<glyph glyph-name="exclamdown" unicode="&#xa1;" horiz-adv-x="304" d="M95 276 C55 10 43 -91 43 -127 C43 -162 62 -205 127 -205 C185 -205 211 -171 211 -128 C211 -95 195 12 158 276 L95 276 Z M40 428 C40 381 73 347 119 347 C167 347 201 380 201 427 C201 480 167 510 120 510 C72 510 40 476 40 428 L40 428 Z " />
<glyph glyph-name="cent" unicode="&#xa2;" horiz-adv-x="496" d="M305 -115 L305 -2 C361 4 418 26 459 61 L422 137 C384 116 344 105 305 104 L305 357 C318 355 329 351 336 346 C346 339 353 323 356 290 L437 290 C441 320 444 364 444 387 C444 424 423 439 387 450 C365 456 333 461 305 463 L305 566 L248 566 L248 460 C132 444 51 357 51 218 C51 86 134 5 248 -3 L248 -115 L305 -115 Z M189 228 C189 298 215 335 248 350 L248 113 C213 127 189 160 189 228 L189 228 Z " />
<glyph glyph-name="sterling" unicode="&#xa3;" horiz-adv-x="626" d="M576 197 L505 197 C497 168 489 146 477 132 C465 118 423 115 356 115 C323 115 260 114 216 113 C277 157 295 202 295 251 L295 263 L438 263 L438 345 L288 345 C287 367 278 424 278 451 C278 529 308 561 374 561 C409 561 435 555 449 540 C459 529 466 505 470 465 L547 465 C551 489 554 553 554 572 C554 615 540 639 509 651 C485 661 430 670 379 670 C202 670 126 586 126 462 C126 425 136 377 143 345 L56 345 L56 263 L155 263 C155 252 156 243 156 234 C156 138 112 100 25 84 L25 0 L501 0 C536 0 556 12 561 35 C569 69 575 161 576 197 L576 197 Z " />
<glyph glyph-name="currency" unicode="&#xa4;" horiz-adv-x="614" d="M501 61 L568 130 L502 199 C529 236 541 280 541 329 C541 381 528 428 502 461 L568 529 L501 598 L436 531 C397 558 354 570 308 570 C260 570 216 557 179 531 L113 598 L46 529 L113 461 C88 424 74 381 74 329 C74 280 87 234 114 199 L46 130 L113 60 L179 129 C216 101 260 90 308 90 C354 90 397 101 436 129 L501 61 Z M445 329 C445 247 386 182 308 182 C226 182 168 246 168 332 C168 413 228 476 308 476 C386 476 445 412 445 329 L445 329 Z " />
<glyph glyph-name="yen" unicode="&#xa5;" horiz-adv-x="685" d="M578 184 L578 244 L415 244 L415 257 L445 304 L578 304 L578 364 L482 364 L549 466 C586 524 603 548 615 558 C627 567 642 572 664 573 L664 655 C623 654 588 654 567 654 C538 654 456 654 411 655 L411 573 C458 572 475 565 475 550 C475 535 469 520 457 499 C429 452 401 402 373 353 C346 400 316 448 289 493 C278 510 267 530 267 546 C267 559 276 570 331 573 L331 655 C280 654 191 654 164 654 C138 654 74 654 19 655 L19 573 C44 571 56 568 69 560 C84 549 95 533 115 499 L198 364 L106 364 L106 304 L236 304 L266 257 L266 244 L106 244 L106 184 L266 184 L266 148 C266 128 264 108 259 102 C252 91 245 86 177 81 L177 -1 C224 0 319 1 343 1 C367 1 456 0 509 -1 L509 81 C438 84 425 94 420 107 C418 113 415 131 415 148 L415 184 L578 184 Z " />
<glyph glyph-name="brokenbar" unicode="&#xa6;" horiz-adv-x="270" d="M181 367 L181 705 L89 705 L89 367 L181 367 Z M181 -119 L181 218 L89 218 L89 -119 L181 -119 Z " />
<glyph glyph-name="section" unicode="&#xa7;" horiz-adv-x="514" d="M65 -19 C62 -44 58 -85 58 -111 C58 -145 70 -162 100 -175 C131 -189 176 -195 218 -195 C360 -195 432 -115 432 -28 C432 26 424 58 361 115 C464 155 484 217 484 261 C484 328 456 369 361 439 L302 482 C239 529 223 546 223 577 C223 604 245 623 287 623 C309 623 329 616 339 607 C350 597 356 580 359 550 L434 550 C438 575 442 619 442 645 C442 673 429 691 401 702 C370 713 326 720 289 720 C149 720 97 636 97 565 C97 517 110 481 152 441 C66 409 33 352 33 294 C33 244 47 200 123 138 L215 63 C281 9 299 -13 299 -44 C299 -77 275 -98 224 -98 C196 -98 174 -87 164 -78 C154 -68 146 -51 143 -19 L65 -19 Z M311 162 C300 173 283 185 266 199 L217 241 C167 284 151 302 151 335 C151 364 174 384 195 395 C206 385 222 373 234 364 L282 325 C343 276 358 250 358 222 C358 204 344 182 311 162 L311 162 Z " />
<glyph glyph-name="dieresis" unicode="&#xa8;" horiz-adv-x="291" d="M60 552 C99 552 123 582 123 617 C123 651 99 680 62 680 C23 680 -1 651 -1 617 C-1 579 25 552 60 552 L60 552 Z M233 552 C272 552 297 582 297 617 C297 651 272 680 235 680 C197 680 172 651 172 617 C172 579 199 552 233 552 L233 552 Z " />
<glyph glyph-name="copyright" unicode="&#xa9;" horiz-adv-x="787" d="M745 342 C745 535 589 690 394 690 C197 690 41 534 41 339 C41 138 193 -16 397 -16 C591 -16 745 140 745 342 L745 342 Z M690 336 C690 163 563 29 398 29 C227 29 96 166 96 339 C96 512 224 647 396 647 C566 647 690 512 690 336 L690 336 Z M557 259 L497 259 C490 233 483 220 474 212 C463 203 447 194 412 194 C358 194 294 224 294 333 C294 436 350 475 411 475 C445 475 460 470 472 457 C478 450 483 435 486 410 L544 410 C547 426 553 461 553 489 C553 507 540 520 520 529 C501 537 461 545 414 545 C271 545 188 462 188 327 C188 198 268 124 400 124 C447 124 485 134 504 141 C524 148 540 159 546 171 C553 184 556 210 557 259 L557 259 Z " />
<glyph glyph-name="ordfeminine" unicode="&#xaa;" horiz-adv-x="363" d="M351 283 L351 339 C343 338 336 337 328 337 C314 337 305 345 305 374 C305 382 306 461 306 482 C306 516 300 542 287 556 C273 572 249 586 177 586 C147 586 112 579 91 570 C71 561 60 547 60 525 C60 507 62 485 67 469 L119 469 C121 493 126 504 132 510 C141 517 154 518 169 518 C188 518 203 514 209 503 C214 496 216 486 216 470 L216 453 C208 454 195 454 190 454 C76 454 36 421 36 362 C36 297 88 270 137 270 C172 270 203 285 225 307 C235 275 259 271 282 271 C300 271 331 276 351 283 L351 283 Z M216 346 C204 341 186 335 166 335 C149 335 129 344 129 367 C129 387 144 400 191 400 C198 400 210 399 216 399 L216 346 Z " />
<glyph glyph-name="guillemotleft" unicode="&#xab;" horiz-adv-x="487" d="M268 62 L142 226 L270 382 L219 429 L43 270 C31 259 19 243 19 224 C19 204 29 190 38 181 L215 14 L268 62 Z M467 62 L342 226 L470 382 L418 429 L243 270 C231 259 220 243 220 224 C220 204 229 189 237 181 L415 14 L467 62 Z " />
<glyph glyph-name="logicalnot" unicode="&#xac;" horiz-adv-x="616" d="M514 74 L514 359 L72 359 L72 268 L429 268 L429 74 L514 74 Z " />
<glyph glyph-name="uni00AD" unicode="&#xad;" horiz-adv-x="281" d="M251 296 L28 296 L28 201 L251 201 L251 296 Z " />
<glyph glyph-name="registered" unicode="&#xae;" horiz-adv-x="787" d="M745 342 C745 535 589 690 394 690 C197 690 41 534 41 339 C41 138 193 -16 397 -16 C591 -16 745 140 745 342 L745 342 Z M690 336 C690 163 563 29 398 29 C227 29 96 166 96 339 C96 512 224 647 396 647 C566 647 690 512 690 336 L690 336 Z M600 146 L600 199 C588 200 581 202 573 206 C564 211 551 220 539 232 C516 255 499 278 478 309 C530 329 557 368 557 426 C557 485 524 523 464 534 C441 538 404 541 360 541 L210 541 L210 490 C245 489 251 486 255 483 C260 478 261 473 261 448 L261 240 C261 210 258 206 252 203 C245 200 231 198 210 198 L210 146 C241 146 279 147 299 147 C312 147 377 146 406 146 L406 198 C375 198 367 201 361 208 C357 213 356 221 356 245 L356 300 C363 299 377 299 382 299 C410 248 437 204 466 179 C485 163 510 145 568 145 C579 145 595 146 600 146 L600 146 Z M356 366 L356 470 L373 470 C385 470 416 470 427 466 C447 459 459 444 459 421 C459 381 431 365 391 365 C384 365 366 365 356 366 L356 366 Z " />
<glyph glyph-name="macron" unicode="&#xaf;" horiz-adv-x="291" d="M280 548 L280 630 L12 630 L12 548 L280 548 Z " />
<glyph glyph-name="degree" unicode="&#xb0;" horiz-adv-x="347" d="M175 703 C101 703 40 651 40 568 C40 484 99 437 173 437 C246 437 306 486 306 569 C306 657 247 703 175 703 L175 703 Z M173 651 C223 651 252 618 252 568 C252 523 224 487 173 487 C124 487 96 523 96 569 C96 618 127 651 173 651 L173 651 Z " />
<glyph glyph-name="plusminus" unicode="&#xb1;" horiz-adv-x="616" d="M352 152 L352 342 L530 342 L530 428 L352 428 L352 619 L265 619 L265 428 L85 428 L85 342 L265 342 L265 152 L352 152 Z M530 0 L530 89 L85 89 L85 0 L530 0 Z " />
<glyph glyph-name="twosuperior" unicode="&#xb2;" horiz-adv-x="416" d="M375 558 L322 558 C318 543 313 528 309 522 C302 509 287 506 252 506 C234 506 191 504 166 504 C291 580 349 644 349 717 C349 789 301 836 198 836 C150 836 113 827 93 819 C64 806 52 790 52 765 C52 749 55 716 58 694 L120 694 C121 728 126 739 133 746 C141 751 159 756 176 756 C221 756 236 733 236 704 C236 653 192 608 34 486 L34 420 L319 420 C352 420 364 434 367 449 C371 473 374 525 375 558 L375 558 Z " />
<glyph glyph-name="threesuperior" unicode="&#xb3;" horiz-adv-x="416" d="M51 553 C47 531 45 506 45 476 C45 450 60 433 82 424 C101 418 146 412 183 412 C297 412 366 455 366 536 C366 588 340 620 267 632 C333 657 348 691 348 731 C348 787 320 836 200 836 C150 836 103 822 86 813 C65 803 56 786 56 763 C56 751 58 715 60 700 L120 700 C123 725 128 737 137 744 C147 752 164 756 186 756 C218 756 236 740 236 714 C236 687 221 668 186 663 C169 661 153 661 138 661 L138 588 C154 588 170 588 186 587 C231 585 252 570 252 539 C252 510 233 493 186 493 C158 493 138 498 128 508 C120 515 114 528 113 553 L51 553 Z " />
<glyph glyph-name="acute" unicode="&#xb4;" horiz-adv-x="295" d="M87 515 L212 629 C236 654 247 670 247 689 C247 719 220 739 194 739 C173 739 160 730 133 689 L47 548 L87 515 Z " />
<glyph glyph-name="mu" unicode="&#xb5;" horiz-adv-x="622" d="M610 11 L610 93 C597 91 586 90 577 90 C543 90 537 105 537 157 C537 202 541 350 541 393 C541 459 510 474 475 474 C429 474 373 462 324 437 L324 359 C333 360 343 360 349 360 C360 360 375 358 383 353 C393 347 398 331 398 290 L398 128 C374 113 343 104 310 104 C271 104 239 115 239 184 C239 250 242 350 242 394 C242 459 212 474 175 474 C130 474 78 462 28 437 L28 359 C35 359 48 360 55 360 C67 360 75 359 85 353 C94 348 99 331 99 290 L99 -183 C99 -214 109 -247 170 -247 C213 -247 241 -225 241 -188 C241 -167 233 -84 227 12 C243 -2 267 -6 283 -6 C339 -6 372 15 404 54 C412 5 451 -11 484 -11 C523 -11 570 -5 610 11 L610 11 Z " />
<glyph glyph-name="paragraph" unicode="&#xb6;" horiz-adv-x="556" d="M221 -260 C363 -221 439 -139 446 -19 C450 37 451 107 451 161 C451 281 448 350 448 510 C448 553 449 570 457 579 C465 587 476 591 535 593 L535 676 L371 676 C152 676 46 556 46 408 C46 235 168 154 308 154 C319 154 331 154 343 155 L343 134 C343 83 342 27 338 -12 C330 -98 278 -151 198 -183 L221 -260 Z " />
<glyph glyph-name="periodcentered" unicode="&#xb7;" horiz-adv-x="225" d="M194 249 C194 296 159 329 111 329 C65 329 32 294 32 247 C32 200 65 165 112 165 C159 165 194 196 194 249 L194 249 Z " />
<glyph glyph-name="cedilla" unicode="&#xb8;" horiz-adv-x="291" d="M60 -283 C166 -268 244 -225 244 -151 C244 -114 229 -95 178 -67 C169 -62 160 -56 160 -42 C160 -33 166 -16 175 5 L113 5 C97 -36 88 -60 88 -77 C88 -90 95 -100 108 -107 C135 -122 149 -139 149 -157 C149 -192 117 -212 48 -226 L60 -283 Z " />
<glyph glyph-name="onesuperior" unicode="&#xb9;" horiz-adv-x="416" d="M347 419 L347 478 C298 480 285 485 281 491 C277 496 275 505 275 529 L275 669 C275 722 276 753 276 788 C276 825 254 837 233 837 C214 837 192 830 182 827 C154 819 101 801 76 790 L93 725 C108 729 135 734 147 734 C156 734 162 730 163 718 C165 702 166 681 166 659 L166 530 C166 509 165 497 160 492 C153 486 142 480 91 478 L91 419 C118 420 211 421 225 421 C241 421 320 420 347 419 L347 419 Z " />
<glyph glyph-name="ordmasculine" unicode="&#xba;" horiz-adv-x="388" d="M353 433 C353 526 302 586 196 586 C98 586 31 526 31 427 C31 336 82 270 191 270 C282 270 353 326 353 433 L353 433 Z M256 427 C256 370 235 344 191 344 C151 344 127 368 127 433 C127 486 149 513 193 513 C236 513 256 489 256 427 L256 427 Z " />
<glyph glyph-name="guillemotright" unicode="&#xbb;" horiz-adv-x="487" d="M219 382 L345 217 L217 62 L268 14 L444 173 C456 184 467 200 467 219 C467 240 458 254 449 262 L272 429 L219 382 Z M20 382 L145 217 L18 62 L68 14 L244 173 C256 184 268 200 268 219 C268 240 259 254 250 262 L72 429 L20 382 Z " />
<glyph glyph-name="onequarter" unicode="&#xbc;" horiz-adv-x="903" d="M561 679 L270 12 L332 -13 L621 655 L561 679 Z M330 251 L330 311 C281 313 268 317 264 323 C260 329 258 337 258 361 L258 502 C258 554 259 585 259 620 C259 657 237 669 216 669 C197 669 175 663 165 660 C137 651 84 633 59 623 L76 557 C91 561 118 566 130 566 C139 566 145 562 146 551 C148 535 149 513 149 491 L149 362 C149 341 148 330 143 324 C136 318 125 313 74 311 L74 251 C101 252 194 254 208 254 C224 254 303 252 330 251 L330 251 Z M815 -1 L815 57 C776 58 763 62 758 69 C754 74 752 79 752 98 L752 109 L818 109 L818 185 L752 185 L752 259 C752 281 753 330 753 356 C753 403 726 417 700 417 C658 417 643 403 616 366 L464 162 L464 109 L647 109 L647 98 C647 85 646 75 641 69 C636 63 623 59 582 57 L582 -1 C609 0 678 1 692 1 C708 1 788 0 815 -1 L815 -1 Z M647 182 L552 182 L650 314 C648 287 647 239 647 182 L647 182 Z " />
<glyph glyph-name="onehalf" unicode="&#xbd;" horiz-adv-x="903" d="M543 679 L252 12 L314 -13 L603 655 L543 679 Z M317 251 L317 311 C268 313 255 317 251 323 C247 329 245 337 245 361 L245 502 C245 554 246 585 246 620 C246 657 224 669 203 669 C184 669 162 663 152 660 C124 651 71 633 46 623 L63 557 C78 561 105 566 117 566 C126 566 132 562 133 551 C135 535 136 513 136 491 L136 362 C136 341 135 330 130 324 C123 318 112 313 61 311 L61 251 C88 252 181 254 195 254 C211 254 290 252 317 251 L317 251 Z M844 138 L791 138 C787 123 782 108 778 102 C771 89 756 86 721 86 C703 86 660 84 635 84 C760 160 818 224 818 297 C818 369 770 416 667 416 C619 416 582 407 562 399 C533 386 521 370 521 345 C521 329 524 296 527 274 L589 274 C590 308 595 319 602 326 C610 331 628 336 645 336 C690 336 705 313 705 284 C705 233 661 188 503 66 L503 0 L788 0 C821 0 833 14 836 29 C840 53 843 105 844 138 L844 138 Z " />
<glyph glyph-name="threequarters" unicode="&#xbe;" horiz-adv-x="903" d="M588 679 L297 12 L359 -13 L648 655 L588 679 Z M71 385 C67 363 65 338 65 308 C65 283 80 265 102 257 C121 250 166 244 203 244 C317 244 386 287 386 368 C386 421 360 453 287 464 C353 489 368 524 368 564 C368 620 340 668 220 668 C170 668 123 654 106 646 C85 636 76 618 76 596 C76 583 78 548 80 533 L140 533 C143 557 148 570 157 576 C167 584 184 589 206 589 C238 589 256 573 256 546 C256 520 241 501 206 496 C189 494 173 494 158 494 L158 420 C174 420 190 420 206 419 C251 417 272 403 272 371 C272 342 253 326 206 326 C178 326 158 331 148 340 C140 348 134 360 133 385 L71 385 Z M835 -1 L835 57 C796 58 783 62 778 69 C774 74 772 79 772 98 L772 109 L838 109 L838 185 L772 185 L772 259 C772 281 773 330 773 356 C773 403 746 417 720 417 C678 417 663 403 636 366 L484 162 L484 109 L667 109 L667 98 C667 85 666 75 661 69 C656 63 643 59 602 57 L602 -1 C629 0 698 1 712 1 C728 1 808 0 835 -1 L835 -1 Z M667 182 L572 182 L670 314 C668 287 667 239 667 182 L667 182 Z " />
<glyph glyph-name="questiondown" unicode="&#xbf;" horiz-adv-x="471" d="M236 284 C233 264 233 254 231 239 C228 216 219 194 196 184 C53 121 10 67 10 -24 C10 -121 67 -197 229 -198 C274 -198 334 -189 365 -176 C397 -162 414 -141 414 -105 C414 -78 409 -40 405 -19 L321 -19 C319 -55 313 -75 301 -84 C288 -94 264 -97 240 -97 C174 -97 162 -48 162 -12 C162 24 185 61 244 88 C280 104 314 125 314 167 C314 189 311 237 304 284 L236 284 Z M187 427 C187 380 221 347 269 347 C315 347 349 382 349 429 C349 476 315 510 268 510 C220 510 187 480 187 427 L187 427 Z " />
<glyph glyph-name="Agrave" unicode="&#xc0;" horiz-adv-x="759" d="M315 -1 L315 81 C281 83 254 86 241 91 C225 97 224 106 224 115 C224 132 231 157 239 178 L253 213 L462 213 L477 172 C485 148 490 127 490 117 C490 106 487 96 469 90 C456 85 433 82 406 81 L406 -1 C457 0 587 1 612 1 C638 1 704 0 749 -1 L749 81 C717 82 700 88 692 93 C674 107 664 122 649 164 L481 622 C464 669 436 693 387 693 C337 693 306 668 286 615 L123 190 C99 126 92 112 79 100 C67 88 47 82 10 81 L10 -1 C52 0 111 1 132 1 C155 1 269 0 315 -1 L315 -1 Z M282 321 C310 398 343 488 356 527 C365 490 401 396 426 321 L282 321 Z M471 757 L351 881 C319 916 306 920 285 920 C260 920 238 896 238 868 C238 849 254 827 285 809 L437 717 L471 757 Z " />
<glyph glyph-name="Aacute" unicode="&#xc1;" horiz-adv-x="759" d="M315 -1 L315 81 C281 83 254 86 241 91 C225 97 224 106 224 115 C224 132 231 157 239 178 L253 213 L462 213 L477 172 C485 148 490 127 490 117 C490 106 487 96 469 90 C456 85 433 82 406 81 L406 -1 C457 0 587 1 612 1 C638 1 704 0 749 -1 L749 81 C717 82 700 88 692 93 C674 107 664 122 649 164 L481 622 C464 669 436 693 387 693 C337 693 306 668 286 615 L123 190 C99 126 92 112 79 100 C67 88 47 82 10 81 L10 -1 C52 0 111 1 132 1 C155 1 269 0 315 -1 L315 -1 Z M282 321 C310 398 343 488 356 527 C365 490 401 396 426 321 L282 321 Z M321 716 L474 808 C505 826 521 848 521 867 C521 895 499 919 474 919 C453 919 440 915 407 880 L288 756 L321 716 Z " />
<glyph glyph-name="Acircumflex" unicode="&#xc2;" horiz-adv-x="759" d="M315 -1 L315 81 C281 83 254 86 241 91 C225 97 224 106 224 115 C224 132 231 157 239 178 L253 213 L462 213 L477 172 C485 148 490 127 490 117 C490 106 487 96 469 90 C456 85 433 82 406 81 L406 -1 C457 0 587 1 612 1 C638 1 704 0 749 -1 L749 81 C717 82 700 88 692 93 C674 107 664 122 649 164 L481 622 C464 669 436 693 387 693 C337 693 306 668 286 615 L123 190 C99 126 92 112 79 100 C67 88 47 82 10 81 L10 -1 C52 0 111 1 132 1 C155 1 269 0 315 -1 L315 -1 Z M282 321 C310 398 343 488 356 527 C365 490 401 396 426 321 L282 321 Z M550 751 L433 884 C420 900 406 909 386 909 C368 909 354 899 341 884 L222 750 L256 715 L384 804 L512 715 L550 751 Z " />
<glyph glyph-name="Atilde" unicode="&#xc3;" horiz-adv-x="759" d="M315 -1 L315 81 C281 83 254 86 241 91 C225 97 224 106 224 115 C224 132 231 157 239 178 L253 213 L462 213 L477 172 C485 148 490 127 490 117 C490 106 487 96 469 90 C456 85 433 82 406 81 L406 -1 C457 0 587 1 612 1 C638 1 704 0 749 -1 L749 81 C717 82 700 88 692 93 C674 107 664 122 649 164 L481 622 C464 669 436 693 387 693 C337 693 306 668 286 615 L123 190 C99 126 92 112 79 100 C67 88 47 82 10 81 L10 -1 C52 0 111 1 132 1 C155 1 269 0 315 -1 L315 -1 Z M282 321 C310 398 343 488 356 527 C365 490 401 396 426 321 L282 321 Z M257 733 C276 770 288 783 310 783 C318 783 332 781 352 772 L389 756 C415 746 436 738 458 738 C502 738 532 791 547 866 L500 880 C484 845 472 828 454 828 C440 828 423 835 406 841 L367 857 C351 864 329 873 308 873 C257 873 227 806 212 747 L257 733 Z " />
<glyph glyph-name="Adieresis" unicode="&#xc4;" horiz-adv-x="759" d="M315 -1 L315 81 C281 83 254 86 241 91 C225 97 224 106 224 115 C224 132 231 157 239 178 L253 213 L462 213 L477 172 C485 148 490 127 490 117 C490 106 487 96 469 90 C456 85 433 82 406 81 L406 -1 C457 0 587 1 612 1 C638 1 704 0 749 -1 L749 81 C717 82 700 88 692 93 C674 107 664 122 649 164 L481 622 C464 669 436 693 387 693 C337 693 306 668 286 615 L123 190 C99 126 92 112 79 100 C67 88 47 82 10 81 L10 -1 C52 0 111 1 132 1 C155 1 269 0 315 -1 L315 -1 Z M282 321 C310 398 343 488 356 527 C365 490 401 396 426 321 L282 321 Z M288 741 C327 741 352 771 352 806 C352 840 327 869 290 869 C251 869 227 840 227 806 C227 768 253 741 288 741 L288 741 Z M473 741 C511 741 536 771 536 806 C536 840 511 869 475 869 C436 869 412 840 412 806 C412 768 438 741 473 741 L473 741 Z " />
<glyph glyph-name="Aring" unicode="&#xc5;" horiz-adv-x="759" d="M315 -1 L315 81 C281 83 254 86 241 91 C225 97 224 106 224 115 C224 132 231 157 239 178 L253 213 L462 213 L477 172 C485 148 490 127 490 117 C490 106 487 96 469 90 C456 85 433 82 406 81 L406 -1 C457 0 587 1 612 1 C638 1 704 0 749 -1 L749 81 C717 82 700 88 692 93 C674 107 664 122 649 164 L481 622 C464 669 436 693 387 693 C337 693 306 668 286 615 L123 190 C99 126 92 112 79 100 C67 88 47 82 10 81 L10 -1 C52 0 111 1 132 1 C155 1 269 0 315 -1 L315 -1 Z M282 321 C310 398 343 488 356 527 C365 490 401 396 426 321 L282 321 Z M476 805 C476 860 437 898 381 898 C328 898 284 857 284 803 C284 746 327 708 380 708 C433 708 476 749 476 805 L476 805 Z M426 805 C426 771 406 752 380 752 C352 752 332 773 332 805 C332 837 355 855 380 855 C404 855 426 838 426 805 L426 805 Z " />
<glyph glyph-name="AE" unicode="&#xc6;" horiz-adv-x="1057" d="M336 -1 L336 81 C301 82 285 84 273 88 C262 91 256 101 256 110 C256 127 262 142 276 164 L310 216 L530 216 L530 163 C530 139 530 125 528 114 C526 103 519 94 509 90 C495 85 472 83 444 81 L444 0 L919 0 C972 0 1002 12 1011 36 C1024 70 1028 154 1029 203 L951 203 C942 179 932 147 917 134 C900 118 868 107 789 107 C766 107 737 107 710 111 C690 114 683 127 683 154 L683 296 L721 296 C758 296 781 295 794 282 C803 272 808 253 813 224 L886 224 C885 266 885 329 885 346 C885 374 885 440 886 465 L810 465 C805 443 798 419 790 409 C778 396 756 394 722 394 L683 394 L683 566 L797 566 C843 566 860 563 871 555 C881 548 890 532 896 489 L981 489 C985 515 993 590 993 625 C993 656 970 676 920 676 L287 676 L287 596 C309 595 341 595 363 591 C379 587 386 581 386 568 C386 556 381 537 370 520 L149 169 C128 136 113 115 93 100 C78 89 47 82 10 81 L10 -1 C57 0 143 1 166 1 C189 1 286 0 336 -1 L336 -1 Z M371 322 C438 433 473 490 501 543 C509 559 515 564 522 564 C526 564 530 562 530 547 L530 322 L371 322 Z " />
<glyph glyph-name="Ccedilla" unicode="&#xc7;" horiz-adv-x="679" d="M276 -294 C387 -279 468 -235 468 -157 C468 -118 452 -99 399 -69 C390 -65 380 -58 380 -45 C380 -37 382 -27 387 -14 C463 -13 522 1 552 12 C585 24 609 42 619 65 C628 87 635 130 638 209 L550 209 C536 165 524 142 512 129 C495 111 461 100 402 100 C310 100 200 153 200 336 C200 512 298 580 401 580 C458 580 491 571 509 551 C519 539 526 514 531 469 L617 469 C621 495 630 554 630 599 C630 629 611 652 577 667 C546 681 485 692 407 692 C175 692 40 554 40 326 C40 128 147 9 325 -11 C311 -43 305 -64 305 -80 C305 -94 313 -104 327 -112 C355 -126 369 -144 369 -164 C369 -200 334 -221 264 -235 L276 -294 Z " />
<glyph glyph-name="Egrave" unicode="&#xc8;" horiz-adv-x="635" d="M609 203 L530 203 C521 179 511 140 496 127 C479 111 447 100 369 100 C346 100 316 100 289 104 C269 107 262 120 262 147 L262 296 L300 296 C337 296 360 295 373 282 C382 272 387 253 392 224 L465 224 C464 266 464 329 464 346 C464 374 464 440 465 465 L389 465 C385 443 378 419 369 409 C358 396 335 394 300 394 L262 394 L262 573 L377 573 C421 573 439 569 449 562 C460 554 468 532 475 489 L561 489 C564 515 572 590 572 625 C572 656 549 676 499 676 L22 676 L22 596 C78 591 94 587 103 576 C109 570 109 549 109 520 L109 160 C109 122 109 106 101 97 C92 88 71 85 22 81 L22 0 L498 0 C544 0 582 14 590 36 C602 70 608 154 609 203 L609 203 Z M400 756 L280 880 C248 915 235 919 214 919 C189 919 167 895 167 867 C167 848 183 826 214 808 L366 716 L400 756 Z " />
<glyph glyph-name="Eacute" unicode="&#xc9;" horiz-adv-x="635" d="M609 203 L530 203 C521 179 511 140 496 127 C479 111 447 100 369 100 C346 100 316 100 289 104 C269 107 262 120 262 147 L262 296 L300 296 C337 296 360 295 373 282 C382 272 387 253 392 224 L465 224 C464 266 464 329 464 346 C464 374 464 440 465 465 L389 465 C385 443 378 419 369 409 C358 396 335 394 300 394 L262 394 L262 573 L377 573 C421 573 439 569 449 562 C460 554 468 532 475 489 L561 489 C564 515 572 590 572 625 C572 656 549 676 499 676 L22 676 L22 596 C78 591 94 587 103 576 C109 570 109 549 109 520 L109 160 C109 122 109 106 101 97 C92 88 71 85 22 81 L22 0 L498 0 C544 0 582 14 590 36 C602 70 608 154 609 203 L609 203 Z M262 716 L415 808 C446 826 462 848 462 867 C462 895 440 919 415 919 C394 919 381 915 348 880 L229 756 L262 716 Z " />
<glyph glyph-name="Ecircumflex" unicode="&#xca;" horiz-adv-x="635" d="M609 203 L530 203 C521 179 511 140 496 127 C479 111 447 100 369 100 C346 100 316 100 289 104 C269 107 262 120 262 147 L262 296 L300 296 C337 296 360 295 373 282 C382 272 387 253 392 224 L465 224 C464 266 464 329 464 346 C464 374 464 440 465 465 L389 465 C385 443 378 419 369 409 C358 396 335 394 300 394 L262 394 L262 573 L377 573 C421 573 439 569 449 562 C460 554 468 532 475 489 L561 489 C564 515 572 590 572 625 C572 656 549 676 499 676 L22 676 L22 596 C78 591 94 587 103 576 C109 570 109 549 109 520 L109 160 C109 122 109 106 101 97 C92 88 71 85 22 81 L22 0 L498 0 C544 0 582 14 590 36 C602 70 608 154 609 203 L609 203 Z M485 751 L368 884 C355 900 341 909 321 909 C303 909 289 899 276 884 L157 750 L191 715 L319 804 L447 715 L485 751 Z " />
<glyph glyph-name="Edieresis" unicode="&#xcb;" horiz-adv-x="635" d="M609 203 L530 203 C521 179 511 140 496 127 C479 111 447 100 369 100 C346 100 316 100 289 104 C269 107 262 120 262 147 L262 296 L300 296 C337 296 360 295 373 282 C382 272 387 253 392 224 L465 224 C464 266 464 329 464 346 C464 374 464 440 465 465 L389 465 C385 443 378 419 369 409 C358 396 335 394 300 394 L262 394 L262 573 L377 573 C421 573 439 569 449 562 C460 554 468 532 475 489 L561 489 C564 515 572 590 572 625 C572 656 549 676 499 676 L22 676 L22 596 C78 591 94 587 103 576 C109 570 109 549 109 520 L109 160 C109 122 109 106 101 97 C92 88 71 85 22 81 L22 0 L498 0 C544 0 582 14 590 36 C602 70 608 154 609 203 L609 203 Z M234 742 C273 742 298 772 298 807 C298 841 273 870 236 870 C197 870 173 841 173 807 C173 769 199 742 234 742 L234 742 Z M419 742 C457 742 482 772 482 807 C482 841 457 870 421 870 C382 870 358 841 358 807 C358 769 384 742 419 742 L419 742 Z " />
<glyph glyph-name="Igrave" unicode="&#xcc;" horiz-adv-x="371" d="M349 -1 L349 81 C286 84 278 90 270 99 C264 106 262 119 262 164 L262 520 C262 560 265 571 270 578 C276 587 287 593 349 596 L349 677 C309 676 243 674 185 674 C129 674 49 676 22 677 L22 596 C78 593 95 589 102 579 C108 572 109 557 109 521 L109 160 C109 117 107 104 101 97 C93 88 80 83 22 81 L22 -1 C66 0 163 1 186 1 C211 1 306 0 349 -1 L349 -1 Z M277 756 L157 880 C125 915 112 919 91 919 C66 919 44 895 44 867 C44 848 60 826 91 808 L243 716 L277 756 Z " />
<glyph glyph-name="Iacute" unicode="&#xcd;" horiz-adv-x="371" d="M349 -1 L349 81 C286 84 278 90 270 99 C264 106 262 119 262 164 L262 520 C262 560 265 571 270 578 C276 587 287 593 349 596 L349 677 C309 676 243 674 185 674 C129 674 49 676 22 677 L22 596 C78 593 95 589 102 579 C108 572 109 557 109 521 L109 160 C109 117 107 104 101 97 C93 88 80 83 22 81 L22 -1 C66 0 163 1 186 1 C211 1 306 0 349 -1 L349 -1 Z M120 716 L273 808 C304 826 320 848 320 867 C320 895 298 919 273 919 C252 919 239 915 206 880 L87 756 L120 716 Z " />
<glyph glyph-name="Icircumflex" unicode="&#xce;" horiz-adv-x="371" d="M349 -1 L349 81 C286 84 278 90 270 99 C264 106 262 119 262 164 L262 520 C262 560 265 571 270 578 C276 587 287 593 349 596 L349 677 C309 676 243 674 185 674 C129 674 49 676 22 677 L22 596 C78 593 95 589 102 579 C108 572 109 557 109 521 L109 160 C109 117 107 104 101 97 C93 88 80 83 22 81 L22 -1 C66 0 163 1 186 1 C211 1 306 0 349 -1 L349 -1 Z M352 751 L235 884 C222 900 208 909 188 909 C170 909 156 899 143 884 L24 750 L58 715 L186 804 L314 715 L352 751 Z " />
<glyph glyph-name="Idieresis" unicode="&#xcf;" horiz-adv-x="371" d="M349 -1 L349 81 C286 84 278 90 270 99 C264 106 262 119 262 164 L262 520 C262 560 265 571 270 578 C276 587 287 593 349 596 L349 677 C309 676 243 674 185 674 C129 674 49 676 22 677 L22 596 C78 593 95 589 102 579 C108 572 109 557 109 521 L109 160 C109 117 107 104 101 97 C93 88 80 83 22 81 L22 -1 C66 0 163 1 186 1 C211 1 306 0 349 -1 L349 -1 Z M95 742 C134 742 159 772 159 807 C159 841 134 870 97 870 C58 870 34 841 34 807 C34 769 60 742 95 742 L95 742 Z M280 742 C318 742 343 772 343 807 C343 841 318 870 282 870 C243 870 219 841 219 807 C219 769 245 742 280 742 L280 742 Z " />
<glyph glyph-name="Eth" unicode="&#xd0;" horiz-adv-x="738" d="M22 0 L282 0 C396 0 491 17 550 50 C653 108 699 205 699 351 C699 477 662 570 573 624 C510 661 430 676 225 676 L22 676 L22 596 C86 593 97 591 105 574 C108 566 109 545 109 519 L109 391 L18 391 L18 317 L109 317 L109 156 C109 115 107 106 101 97 C93 87 79 83 22 81 L22 0 Z M262 153 L262 317 L423 317 L423 391 L262 391 L262 562 L306 562 C362 562 406 556 441 542 C502 517 535 455 535 340 C535 175 473 107 336 107 C318 107 293 110 278 118 C266 124 262 136 262 153 L262 153 Z " />
<glyph glyph-name="Ntilde" unicode="&#xd1;" horiz-adv-x="768" d="M304 -1 L304 81 C244 84 231 87 222 97 C215 106 213 122 212 183 C211 275 209 366 208 503 C255 429 298 364 515 38 C535 8 559 -11 596 -11 C651 -11 670 14 670 62 C670 104 669 205 669 242 C669 361 669 438 670 493 C671 555 673 571 682 579 C694 589 706 593 759 596 L759 677 C706 676 650 675 622 675 C600 675 527 676 474 677 L474 596 C535 594 551 587 558 576 C565 563 566 546 568 493 C570 454 570 339 574 239 C530 310 481 385 281 677 C246 675 185 675 168 675 C152 675 41 676 19 677 L19 596 C41 595 61 594 74 591 C92 588 101 583 106 573 C110 565 112 539 112 492 C112 438 110 284 109 184 C109 135 108 111 103 101 C96 89 82 84 21 81 L21 -1 C72 0 141 1 162 1 C191 1 251 0 304 -1 L304 -1 Z M281 733 C300 770 312 783 334 783 C342 783 356 781 376 772 L413 756 C439 746 460 738 482 738 C526 738 556 791 571 866 L524 880 C508 845 496 828 478 828 C464 828 447 835 430 841 L391 857 C375 864 353 873 332 873 C281 873 251 806 236 747 L281 733 Z " />
<glyph glyph-name="Ograve" unicode="&#xd2;" horiz-adv-x="750" d="M711 349 C711 558 616 691 383 691 C179 691 39 558 39 335 C39 129 147 -14 374 -14 C562 -14 711 102 711 349 L711 349 Z M547 343 C547 179 486 100 375 100 C269 100 201 166 201 349 C201 495 263 580 377 580 C490 580 547 511 547 343 L547 343 Z M460 756 L340 880 C308 915 295 919 274 919 C249 919 227 895 227 867 C227 848 243 826 274 808 L426 716 L460 756 Z " />
<glyph glyph-name="Oacute" unicode="&#xd3;" horiz-adv-x="750" d="M711 349 C711 558 616 691 383 691 C179 691 39 558 39 335 C39 129 147 -14 374 -14 C562 -14 711 102 711 349 L711 349 Z M547 343 C547 179 486 100 375 100 C269 100 201 166 201 349 C201 495 263 580 377 580 C490 580 547 511 547 343 L547 343 Z M307 716 L460 808 C491 826 507 848 507 867 C507 895 485 919 460 919 C439 919 426 915 393 880 L274 756 L307 716 Z " />
<glyph glyph-name="Ocircumflex" unicode="&#xd4;" horiz-adv-x="750" d="M711 349 C711 558 616 691 383 691 C179 691 39 558 39 335 C39 129 147 -14 374 -14 C562 -14 711 102 711 349 L711 349 Z M547 343 C547 179 486 100 375 100 C269 100 201 166 201 349 C201 495 263 580 377 580 C490 580 547 511 547 343 L547 343 Z M544 751 L427 884 C414 900 400 909 380 909 C362 909 348 899 335 884 L216 750 L250 715 L378 804 L506 715 L544 751 Z " />
<glyph glyph-name="Otilde" unicode="&#xd5;" horiz-adv-x="750" d="M711 349 C711 558 616 691 383 691 C179 691 39 558 39 335 C39 129 147 -14 374 -14 C562 -14 711 102 711 349 L711 349 Z M547 343 C547 179 486 100 375 100 C269 100 201 166 201 349 C201 495 263 580 377 580 C490 580 547 511 547 343 L547 343 Z M253 733 C272 770 284 783 306 783 C314 783 328 781 348 772 L385 756 C411 746 432 738 454 738 C498 738 528 791 543 866 L496 880 C480 845 468 828 450 828 C436 828 419 835 402 841 L363 857 C347 864 325 873 304 873 C253 873 223 806 208 747 L253 733 Z " />
<glyph glyph-name="Odieresis" unicode="&#xd6;" horiz-adv-x="750" d="M711 349 C711 558 616 691 383 691 C179 691 39 558 39 335 C39 129 147 -14 374 -14 C562 -14 711 102 711 349 L711 349 Z M547 343 C547 179 486 100 375 100 C269 100 201 166 201 349 C201 495 263 580 377 580 C490 580 547 511 547 343 L547 343 Z M289 742 C328 742 353 772 353 807 C353 841 328 870 291 870 C252 870 228 841 228 807 C228 769 254 742 289 742 L289 742 Z M474 742 C512 742 537 772 537 807 C537 841 512 870 476 870 C437 870 413 841 413 807 C413 769 439 742 474 742 L474 742 Z " />
<glyph glyph-name="multiply" unicode="&#xd7;" horiz-adv-x="596" d="M499 166 L357 318 L496 471 L436 529 L298 380 L158 529 L96 466 L241 316 L99 162 L158 103 L297 252 L439 103 L499 166 Z " />
<glyph glyph-name="Oslash" unicode="&#xd8;" horiz-adv-x="750" d="M132 -49 L188 29 C238 1 299 -14 374 -14 C562 -14 711 102 711 349 C711 466 681 559 614 618 L670 696 L615 736 L557 656 C511 678 453 691 383 691 C179 691 39 558 39 335 C39 224 70 131 135 69 L77 -11 L132 -49 Z M547 343 C547 179 486 100 375 100 C331 100 294 111 266 136 L523 492 C539 455 547 406 547 343 L547 343 Z M201 349 C201 495 263 581 377 581 C419 581 454 571 481 549 L225 195 C209 233 201 283 201 349 L201 349 Z " />
<glyph glyph-name="Ugrave" unicode="&#xd9;" horiz-adv-x="785" d="M770 596 L770 677 C735 677 671 676 648 676 C624 676 524 676 487 677 L487 596 C532 593 555 591 567 581 C577 573 578 556 580 518 C584 445 584 345 584 317 C584 252 581 192 555 151 C531 114 478 98 415 98 C347 98 295 118 277 167 C264 202 260 258 260 313 C260 405 260 483 261 528 C262 557 264 571 270 578 C277 588 293 594 357 596 L357 677 C318 676 192 675 166 675 C137 675 57 676 17 677 L17 596 C76 593 93 587 100 575 C104 568 107 554 107 520 C107 487 105 397 105 308 C105 173 118 122 146 80 C185 19 275 -16 391 -16 C490 -16 577 12 622 65 C664 113 681 171 681 296 L681 510 C681 541 682 562 688 573 C693 583 708 591 770 596 L770 596 Z M493 756 L373 880 C341 915 328 919 307 919 C282 919 260 895 260 867 C260 848 276 826 307 808 L459 716 L493 756 Z " />
<glyph glyph-name="Uacute" unicode="&#xda;" horiz-adv-x="785" d="M770 596 L770 677 C735 677 671 676 648 676 C624 676 524 676 487 677 L487 596 C532 593 555 591 567 581 C577 573 578 556 580 518 C584 445 584 345 584 317 C584 252 581 192 555 151 C531 114 478 98 415 98 C347 98 295 118 277 167 C264 202 260 258 260 313 C260 405 260 483 261 528 C262 557 264 571 270 578 C277 588 293 594 357 596 L357 677 C318 676 192 675 166 675 C137 675 57 676 17 677 L17 596 C76 593 93 587 100 575 C104 568 107 554 107 520 C107 487 105 397 105 308 C105 173 118 122 146 80 C185 19 275 -16 391 -16 C490 -16 577 12 622 65 C664 113 681 171 681 296 L681 510 C681 541 682 562 688 573 C693 583 708 591 770 596 L770 596 Z M357 716 L510 808 C541 826 557 848 557 867 C557 895 535 919 510 919 C489 919 476 915 443 880 L324 756 L357 716 Z " />
<glyph glyph-name="Ucircumflex" unicode="&#xdb;" horiz-adv-x="785" d="M770 596 L770 677 C735 677 671 676 648 676 C624 676 524 676 487 677 L487 596 C532 593 555 591 567 581 C577 573 578 556 580 518 C584 445 584 345 584 317 C584 252 581 192 555 151 C531 114 478 98 415 98 C347 98 295 118 277 167 C264 202 260 258 260 313 C260 405 260 483 261 528 C262 557 264 571 270 578 C277 588 293 594 357 596 L357 677 C318 676 192 675 166 675 C137 675 57 676 17 677 L17 596 C76 593 93 587 100 575 C104 568 107 554 107 520 C107 487 105 397 105 308 C105 173 118 122 146 80 C185 19 275 -16 391 -16 C490 -16 577 12 622 65 C664 113 681 171 681 296 L681 510 C681 541 682 562 688 573 C693 583 708 591 770 596 L770 596 Z M568 751 L451 884 C438 900 424 909 404 909 C386 909 372 899 359 884 L240 750 L274 715 L402 804 L530 715 L568 751 Z " />
<glyph glyph-name="Udieresis" unicode="&#xdc;" horiz-adv-x="785" d="M770 596 L770 677 C735 677 671 676 648 676 C624 676 524 676 487 677 L487 596 C532 593 555 591 567 581 C577 573 578 556 580 518 C584 445 584 345 584 317 C584 252 581 192 555 151 C531 114 478 98 415 98 C347 98 295 118 277 167 C264 202 260 258 260 313 C260 405 260 483 261 528 C262 557 264 571 270 578 C277 588 293 594 357 596 L357 677 C318 676 192 675 166 675 C137 675 57 676 17 677 L17 596 C76 593 93 587 100 575 C104 568 107 554 107 520 C107 487 105 397 105 308 C105 173 118 122 146 80 C185 19 275 -16 391 -16 C490 -16 577 12 622 65 C664 113 681 171 681 296 L681 510 C681 541 682 562 688 573 C693 583 708 591 770 596 L770 596 Z M317 742 C356 742 381 772 381 807 C381 841 356 870 319 870 C280 870 256 841 256 807 C256 769 282 742 317 742 L317 742 Z M502 742 C540 742 565 772 565 807 C565 841 540 870 504 870 C465 870 441 841 441 807 C441 769 467 742 502 742 L502 742 Z " />
<glyph glyph-name="Yacute" unicode="&#xdd;" horiz-adv-x="673" d="M505 -1 L505 81 C433 84 419 93 414 105 C412 111 410 130 410 150 L410 266 L558 493 C590 543 609 572 620 581 C631 590 646 595 668 596 L668 677 C626 675 592 675 571 675 C539 675 456 675 409 677 L409 596 C466 595 475 584 475 570 C475 558 468 542 459 527 C430 474 397 418 366 363 C336 417 305 470 275 521 C267 534 258 552 258 567 C258 582 267 593 324 596 L324 677 C273 676 182 675 154 675 C128 675 63 676 6 677 L6 596 C32 594 40 591 54 582 C69 571 80 555 102 518 L256 265 L256 150 C256 124 255 108 250 100 C244 90 236 86 166 81 L166 -1 C216 0 312 1 337 1 C360 1 451 0 505 -1 L505 -1 Z M307 716 L460 808 C491 826 507 848 507 867 C507 895 485 919 460 919 C439 919 426 915 393 880 L274 756 L307 716 Z " />
<glyph glyph-name="Thorn" unicode="&#xde;" horiz-adv-x="639" d="M359 -1 L359 81 C294 83 278 91 270 99 C266 104 262 118 262 139 L262 151 C286 149 315 149 339 149 C513 149 604 224 604 359 C604 451 551 513 448 531 C412 538 349 541 280 541 L262 541 L262 552 C262 567 264 575 268 581 C276 591 287 593 349 596 L349 677 C309 676 243 674 185 674 C129 674 49 676 22 677 L22 596 C78 593 95 589 102 579 C108 572 109 558 109 521 L109 160 C109 117 107 104 101 97 C93 88 81 83 22 81 L22 -1 C66 0 163 1 186 1 C211 1 316 0 359 -1 L359 -1 Z M262 248 L262 438 L294 438 C333 438 366 435 386 429 C425 418 448 392 448 348 C448 268 393 247 313 247 C302 247 278 247 262 248 L262 248 Z " />
<glyph glyph-name="germandbls" unicode="&#xdf;" horiz-adv-x="640" d="M237 -1 C234 25 233 71 233 137 L233 443 C233 493 233 523 241 560 C250 603 280 627 319 627 C364 627 390 599 390 567 C390 532 364 502 336 471 C302 433 282 399 282 362 C282 318 303 292 326 271 C350 249 379 225 413 199 C448 172 455 156 455 132 C455 110 433 94 405 94 C387 94 375 98 363 107 C352 115 347 131 340 156 L275 156 C271 129 270 86 270 67 C270 39 281 16 300 6 C323 -5 352 -14 401 -14 C536 -14 600 57 600 157 C600 202 586 246 523 300 C480 336 458 351 437 370 C422 383 417 395 417 405 C417 422 430 438 464 471 C501 508 521 550 521 596 C521 675 467 735 331 735 C283 735 207 721 159 676 C128 646 101 604 91 506 C88 479 80 468 74 461 C60 446 36 438 13 433 L13 356 L93 356 L93 145 C93 127 92 105 85 96 C77 87 60 81 20 79 L20 -1 C57 0 136 1 160 1 C182 1 212 0 237 -1 L237 -1 Z " />
<glyph glyph-name="agrave" unicode="&#xe0;" horiz-adv-x="535" d="M521 9 L521 93 C507 91 497 90 485 90 C461 90 448 102 448 148 C448 159 449 286 449 319 C449 371 438 408 418 431 C396 455 358 479 249 479 C204 479 148 467 116 454 C85 441 67 420 67 384 C67 357 72 320 76 299 L158 299 C160 335 166 352 178 361 C191 371 213 375 238 375 C269 375 292 368 302 351 C309 339 311 325 311 299 L311 272 C300 274 278 274 269 274 C91 274 30 223 30 131 C30 31 111 -11 187 -11 C242 -11 291 12 326 47 C340 -3 380 -9 415 -9 C444 -9 491 -2 521 9 L521 9 Z M311 108 C292 97 263 88 231 88 C203 88 172 100 172 139 C172 170 195 189 270 189 C281 189 302 188 311 186 L311 108 Z M328 548 L242 689 C216 730 202 739 182 739 C156 739 128 719 128 689 C128 670 139 654 164 629 L288 515 L328 548 Z " />
<glyph glyph-name="aacute" unicode="&#xe1;" horiz-adv-x="535" d="M521 9 L521 93 C507 91 497 90 485 90 C461 90 448 102 448 148 C448 159 449 286 449 319 C449 371 438 408 418 431 C396 455 358 479 249 479 C204 479 148 467 116 454 C85 441 67 420 67 384 C67 357 72 320 76 299 L158 299 C160 335 166 352 178 361 C191 371 213 375 238 375 C269 375 292 368 302 351 C309 339 311 325 311 299 L311 272 C300 274 278 274 269 274 C91 274 30 223 30 131 C30 31 111 -11 187 -11 C242 -11 291 12 326 47 C340 -3 380 -9 415 -9 C444 -9 491 -2 521 9 L521 9 Z M311 108 C292 97 263 88 231 88 C203 88 172 100 172 139 C172 170 195 189 270 189 C281 189 302 188 311 186 L311 108 Z M229 515 L354 629 C378 654 389 670 389 689 C389 719 362 739 336 739 C315 739 302 730 275 689 L189 548 L229 515 Z " />
<glyph glyph-name="acircumflex" unicode="&#xe2;" horiz-adv-x="535" d="M521 9 L521 93 C507 91 497 90 485 90 C461 90 448 102 448 148 C448 159 449 286 449 319 C449 371 438 408 418 431 C396 455 358 479 249 479 C204 479 148 467 116 454 C85 441 67 420 67 384 C67 357 72 320 76 299 L158 299 C160 335 166 352 178 361 C191 371 213 375 238 375 C269 375 292 368 302 351 C309 339 311 325 311 299 L311 272 C300 274 278 274 269 274 C91 274 30 223 30 131 C30 31 111 -11 187 -11 C242 -11 291 12 326 47 C340 -3 380 -9 415 -9 C444 -9 491 -2 521 9 L521 9 Z M311 108 C292 97 263 88 231 88 C203 88 172 100 172 139 C172 170 195 189 270 189 C281 189 302 188 311 186 L311 108 Z M410 539 L306 695 C294 712 279 721 259 721 C241 721 225 710 214 694 L106 538 L147 506 L257 611 L368 506 L410 539 Z " />
<glyph glyph-name="atilde" unicode="&#xe3;" horiz-adv-x="535" d="M521 9 L521 93 C507 91 497 90 485 90 C461 90 448 102 448 148 C448 159 449 286 449 319 C449 371 438 408 418 431 C396 455 358 479 249 479 C204 479 148 467 116 454 C85 441 67 420 67 384 C67 357 72 320 76 299 L158 299 C160 335 166 352 178 361 C191 371 213 375 238 375 C269 375 292 368 302 351 C309 339 311 325 311 299 L311 272 C300 274 278 274 269 274 C91 274 30 223 30 131 C30 31 111 -11 187 -11 C242 -11 291 12 326 47 C340 -3 380 -9 415 -9 C444 -9 491 -2 521 9 L521 9 Z M311 108 C292 97 263 88 231 88 C203 88 172 100 172 139 C172 170 195 189 270 189 C281 189 302 188 311 186 L311 108 Z M149 535 C167 571 178 584 200 584 C208 584 224 581 243 573 L271 561 C299 548 318 543 339 543 C383 543 414 595 428 670 L382 684 C365 649 353 632 335 632 C322 632 305 637 288 646 L260 659 C244 666 221 675 199 675 C149 675 119 608 104 549 L149 535 Z " />
<glyph glyph-name="adieresis" unicode="&#xe4;" horiz-adv-x="535" d="M521 9 L521 93 C507 91 497 90 485 90 C461 90 448 102 448 148 C448 159 449 286 449 319 C449 371 438 408 418 431 C396 455 358 479 249 479 C204 479 148 467 116 454 C85 441 67 420 67 384 C67 357 72 320 76 299 L158 299 C160 335 166 352 178 361 C191 371 213 375 238 375 C269 375 292 368 302 351 C309 339 311 325 311 299 L311 272 C300 274 278 274 269 274 C91 274 30 223 30 131 C30 31 111 -11 187 -11 C242 -11 291 12 326 47 C340 -3 380 -9 415 -9 C444 -9 491 -2 521 9 L521 9 Z M311 108 C292 97 263 88 231 88 C203 88 172 100 172 139 C172 170 195 189 270 189 C281 189 302 188 311 186 L311 108 Z M166 552 C205 552 229 582 229 617 C229 651 205 680 168 680 C129 680 105 651 105 617 C105 579 131 552 166 552 L166 552 Z M339 552 C378 552 403 582 403 617 C403 651 378 680 341 680 C303 680 278 651 278 617 C278 579 305 552 339 552 L339 552 Z " />
<glyph glyph-name="aring" unicode="&#xe5;" horiz-adv-x="535" d="M521 9 L521 93 C507 91 497 90 485 90 C461 90 448 102 448 148 C448 159 449 286 449 319 C449 371 438 408 418 431 C396 455 358 479 249 479 C204 479 148 467 116 454 C85 441 67 420 67 384 C67 357 72 320 76 299 L158 299 C160 335 166 352 178 361 C191 371 213 375 238 375 C269 375 292 368 302 351 C309 339 311 325 311 299 L311 272 C300 274 278 274 269 274 C91 274 30 223 30 131 C30 31 111 -11 187 -11 C242 -11 291 12 326 47 C340 -3 380 -9 415 -9 C444 -9 491 -2 521 9 L521 9 Z M311 108 C292 97 263 88 231 88 C203 88 172 100 172 139 C172 170 195 189 270 189 C281 189 302 188 311 186 L311 108 Z M357 615 C357 671 318 709 262 709 C209 709 165 669 165 613 C165 557 208 519 261 519 C314 519 357 560 357 615 L357 615 Z M307 615 C307 583 287 564 261 564 C233 564 213 585 213 615 C213 648 236 666 261 666 C285 666 307 649 307 615 L307 615 Z " />
<glyph glyph-name="ae" unicode="&#xe6;" horiz-adv-x="779" d="M756 62 L713 143 C652 112 606 100 559 100 C480 100 443 140 443 189 L443 195 L680 195 C700 195 720 200 730 211 C740 222 744 248 744 269 C744 381 688 479 545 479 C485 479 427 454 404 420 C380 460 333 479 246 479 C198 479 146 467 114 454 C83 441 66 420 66 384 C66 357 70 324 74 303 L158 303 C160 334 167 352 178 361 C192 372 213 375 238 375 C266 375 286 368 296 351 C303 339 306 327 306 300 L306 281 L277 281 C97 281 30 232 30 137 C30 33 112 -12 189 -12 C279 -12 331 16 371 48 C410 8 463 -14 534 -14 C626 -14 700 17 756 62 L756 62 Z M311 195 C312 166 316 134 328 114 C296 95 268 88 237 88 C205 88 172 100 172 141 C172 177 196 195 275 195 L311 195 Z M445 283 C449 349 488 372 534 372 C587 372 609 341 609 298 L609 286 L445 283 Z " />
<glyph glyph-name="ccedilla" unicode="&#xe7;" horiz-adv-x="493" d="M180 -283 C286 -268 364 -225 364 -151 C364 -114 349 -95 298 -67 C289 -62 280 -56 280 -42 C280 -36 283 -26 287 -13 C352 -9 420 15 468 55 L427 136 C387 114 343 99 299 99 C236 99 181 127 181 232 C181 333 231 371 286 371 C307 371 327 368 337 360 C347 352 356 335 359 299 L444 299 C450 333 452 375 452 399 C452 438 430 454 391 466 C364 474 321 479 287 479 C141 479 35 385 35 221 C35 88 114 4 227 -11 C215 -42 208 -62 208 -77 C208 -90 215 -100 228 -107 C255 -122 269 -139 269 -157 C269 -192 237 -212 168 -226 L180 -283 Z " />
<glyph glyph-name="egrave" unicode="&#xe8;" horiz-adv-x="521" d="M498 61 L456 143 C395 112 344 100 297 100 C219 100 178 147 178 197 L178 205 L422 205 C442 205 461 208 472 220 C482 231 486 258 486 279 C486 390 428 479 283 479 C141 479 35 389 35 222 C35 78 131 -14 271 -14 C361 -14 443 16 498 61 L498 61 Z M179 293 C184 353 227 375 275 375 C327 375 352 346 352 307 L352 297 L179 293 Z M355 548 L269 689 C243 730 229 739 209 739 C183 739 155 719 155 689 C155 670 166 654 191 629 L315 515 L355 548 Z " />
<glyph glyph-name="eacute" unicode="&#xe9;" horiz-adv-x="521" d="M498 61 L456 143 C395 112 344 100 297 100 C219 100 178 147 178 197 L178 205 L422 205 C442 205 461 208 472 220 C482 231 486 258 486 279 C486 390 428 479 283 479 C141 479 35 389 35 222 C35 78 131 -14 271 -14 C361 -14 443 16 498 61 L498 61 Z M179 293 C184 353 227 375 275 375 C327 375 352 346 352 307 L352 297 L179 293 Z M248 515 L373 629 C397 654 408 670 408 689 C408 719 381 739 355 739 C334 739 321 730 294 689 L208 548 L248 515 Z " />
<glyph glyph-name="ecircumflex" unicode="&#xea;" horiz-adv-x="521" d="M498 61 L456 143 C395 112 344 100 297 100 C219 100 178 147 178 197 L178 205 L422 205 C442 205 461 208 472 220 C482 231 486 258 486 279 C486 390 428 479 283 479 C141 479 35 389 35 222 C35 78 131 -14 271 -14 C361 -14 443 16 498 61 L498 61 Z M179 293 C184 353 227 375 275 375 C327 375 352 346 352 307 L352 297 L179 293 Z M425 539 L321 695 C309 712 294 721 274 721 C256 721 240 710 229 694 L121 538 L162 506 L272 611 L383 506 L425 539 Z " />
<glyph glyph-name="edieresis" unicode="&#xeb;" horiz-adv-x="521" d="M498 61 L456 143 C395 112 344 100 297 100 C219 100 178 147 178 197 L178 205 L422 205 C442 205 461 208 472 220 C482 231 486 258 486 279 C486 390 428 479 283 479 C141 479 35 389 35 222 C35 78 131 -14 271 -14 C361 -14 443 16 498 61 L498 61 Z M179 293 C184 353 227 375 275 375 C327 375 352 346 352 307 L352 297 L179 293 Z M189 552 C228 552 252 582 252 617 C252 651 228 680 191 680 C152 680 128 651 128 617 C128 579 154 552 189 552 L189 552 Z M362 552 C401 552 426 582 426 617 C426 651 401 680 364 680 C326 680 301 651 301 617 C301 579 328 552 362 552 L362 552 Z " />
<glyph glyph-name="igrave" unicode="&#xec;" horiz-adv-x="323" d="M223 548 L137 689 C111 730 97 739 77 739 C51 739 23 719 23 689 C23 670 34 654 59 629 L183 515 L223 548 Z M305 -1 L305 79 C267 82 249 85 242 94 C235 102 233 115 233 150 C233 232 237 325 237 395 C237 460 205 474 169 474 C123 474 70 462 20 437 L20 359 C28 360 38 360 45 360 C56 360 70 358 78 353 C87 347 93 331 93 290 L93 149 C93 114 90 101 85 95 C77 87 66 84 20 79 L20 -1 C65 1 141 1 165 1 C190 1 262 0 305 -1 L305 -1 Z " />
<glyph glyph-name="iacute" unicode="&#xed;" horiz-adv-x="323" d="M103 515 L228 629 C252 654 263 670 263 689 C263 719 236 739 210 739 C189 739 176 730 149 689 L63 548 L103 515 Z M305 -1 L305 79 C267 82 249 85 242 94 C235 102 233 115 233 150 C233 232 237 325 237 395 C237 460 205 474 169 474 C123 474 70 462 20 437 L20 359 C28 360 38 360 45 360 C56 360 70 358 78 353 C87 347 93 331 93 290 L93 149 C93 114 90 101 85 95 C77 87 66 84 20 79 L20 -1 C65 1 141 1 165 1 C190 1 262 0 305 -1 L305 -1 Z " />
<glyph glyph-name="icircumflex" unicode="&#xee;" horiz-adv-x="323" d="M305 -1 L305 79 C267 82 249 85 242 94 C235 102 233 115 233 150 C233 232 237 325 237 395 C237 460 205 474 169 474 C123 474 70 462 20 437 L20 359 C28 360 38 360 45 360 C56 360 70 358 78 353 C87 347 93 331 93 290 L93 149 C93 114 90 101 85 95 C77 87 66 84 20 79 L20 -1 C65 1 141 1 165 1 C190 1 262 0 305 -1 L305 -1 Z M297 539 L193 695 C181 712 166 721 146 721 C128 721 112 710 101 694 L-7 538 L34 506 L144 611 L255 506 L297 539 Z " />
<glyph glyph-name="idieresis" unicode="&#xef;" horiz-adv-x="323" d="M57 552 C96 552 120 582 120 617 C120 651 96 680 59 680 C20 680 -4 651 -4 617 C-4 579 22 552 57 552 L57 552 Z M230 552 C269 552 294 582 294 617 C294 651 269 680 232 680 C194 680 169 651 169 617 C169 579 196 552 230 552 L230 552 Z M305 -1 L305 79 C267 82 249 85 242 94 C235 102 233 115 233 150 C233 232 237 325 237 395 C237 460 205 474 169 474 C123 474 70 462 20 437 L20 359 C28 360 38 360 45 360 C56 360 70 358 78 353 C87 347 93 331 93 290 L93 149 C93 114 90 101 85 95 C77 87 66 84 20 79 L20 -1 C65 1 141 1 165 1 C190 1 262 0 305 -1 L305 -1 Z " />
<glyph glyph-name="eth" unicode="&#xf0;" horiz-adv-x="568" d="M468 637 L436 689 L356 641 C306 685 247 717 183 740 L133 667 C167 651 213 622 254 578 L157 521 L188 470 L289 529 C317 495 337 455 347 422 C326 441 292 449 263 449 C115 449 35 345 35 212 C35 89 118 -14 279 -14 C434 -14 533 88 533 247 C533 397 487 506 400 596 L468 637 Z M388 215 C388 137 344 98 289 98 C225 98 181 136 181 235 C181 307 224 351 285 351 C362 351 388 299 388 215 L388 215 Z " />
<glyph glyph-name="ntilde" unicode="&#xf1;" horiz-adv-x="618" d="M291 -1 L291 79 C260 82 250 85 242 93 C235 101 233 116 233 150 L233 338 C263 351 295 358 320 358 C344 358 363 354 373 343 C385 330 388 307 388 273 L388 151 C388 113 386 101 379 94 C372 87 363 83 329 79 L329 -1 C372 0 447 1 471 1 C493 1 559 0 601 -1 L601 79 C551 85 539 89 533 99 C529 107 528 120 528 149 L528 310 C528 380 518 420 494 444 C473 465 438 476 398 476 C342 476 273 450 232 405 C227 461 199 474 167 474 C122 474 70 462 20 437 L20 359 C28 360 38 360 45 360 C56 360 70 358 78 353 C87 347 93 331 93 290 L93 149 C93 114 90 101 85 95 C77 87 66 84 20 79 L20 -1 C65 1 141 1 165 1 C190 1 247 0 291 -1 L291 -1 Z M191 535 C209 571 220 584 242 584 C250 584 266 581 285 573 L313 561 C341 548 360 543 381 543 C425 543 456 595 470 670 L424 684 C407 649 395 632 377 632 C364 632 347 637 330 646 L302 659 C286 666 263 675 241 675 C191 675 161 608 146 549 L191 535 Z " />
<glyph glyph-name="ograve" unicode="&#xf2;" horiz-adv-x="573" d="M537 240 C537 384 459 479 293 479 C141 479 35 384 35 230 C35 87 116 -14 285 -14 C426 -14 537 72 537 240 L537 240 Z M392 231 C392 136 355 94 286 94 C221 94 181 132 181 240 C181 325 218 371 286 371 C357 371 392 331 392 231 L392 231 Z M361 548 L275 689 C249 730 235 739 215 739 C189 739 161 719 161 689 C161 670 172 654 197 629 L321 515 L361 548 Z " />
<glyph glyph-name="oacute" unicode="&#xf3;" horiz-adv-x="573" d="M537 240 C537 384 459 479 293 479 C141 479 35 384 35 230 C35 87 116 -14 285 -14 C426 -14 537 72 537 240 L537 240 Z M392 231 C392 136 355 94 286 94 C221 94 181 132 181 240 C181 325 218 371 286 371 C357 371 392 331 392 231 L392 231 Z M265 515 L390 629 C414 654 425 670 425 689 C425 719 398 739 372 739 C351 739 338 730 311 689 L225 548 L265 515 Z " />
<glyph glyph-name="ocircumflex" unicode="&#xf4;" horiz-adv-x="573" d="M537 240 C537 384 459 479 293 479 C141 479 35 384 35 230 C35 87 116 -14 285 -14 C426 -14 537 72 537 240 L537 240 Z M392 231 C392 136 355 94 286 94 C221 94 181 132 181 240 C181 325 218 371 286 371 C357 371 392 331 392 231 L392 231 Z M442 539 L338 695 C326 712 311 721 291 721 C273 721 257 710 246 694 L138 538 L179 506 L289 611 L400 506 L442 539 Z " />
<glyph glyph-name="otilde" unicode="&#xf5;" horiz-adv-x="573" d="M537 240 C537 384 459 479 293 479 C141 479 35 384 35 230 C35 87 116 -14 285 -14 C426 -14 537 72 537 240 L537 240 Z M392 231 C392 136 355 94 286 94 C221 94 181 132 181 240 C181 325 218 371 286 371 C357 371 392 331 392 231 L392 231 Z M170 535 C188 571 199 584 221 584 C229 584 245 581 264 573 L292 561 C320 548 339 543 360 543 C404 543 435 595 449 670 L403 684 C386 649 374 632 356 632 C343 632 326 637 309 646 L281 659 C265 666 242 675 220 675 C170 675 140 608 125 549 L170 535 Z " />
<glyph glyph-name="odieresis" unicode="&#xf6;" horiz-adv-x="573" d="M537 240 C537 384 459 479 293 479 C141 479 35 384 35 230 C35 87 116 -14 285 -14 C426 -14 537 72 537 240 L537 240 Z M392 231 C392 136 355 94 286 94 C221 94 181 132 181 240 C181 325 218 371 286 371 C357 371 392 331 392 231 L392 231 Z M201 552 C240 552 264 582 264 617 C264 651 240 680 203 680 C164 680 140 651 140 617 C140 579 166 552 201 552 L201 552 Z M374 552 C413 552 438 582 438 617 C438 651 413 680 376 680 C338 680 313 651 313 617 C313 579 340 552 374 552 L374 552 Z " />
<glyph glyph-name="divide" unicode="&#xf7;" horiz-adv-x="616" d="M371 491 C371 530 342 559 307 559 C271 559 244 529 244 492 C244 453 269 424 307 424 C342 424 371 451 371 491 L371 491 Z M538 278 L538 371 L77 371 L77 278 L538 278 Z M371 156 C371 196 342 224 307 224 C271 224 244 196 244 157 C244 119 269 90 307 90 C342 90 371 118 371 156 L371 156 Z " />
<glyph glyph-name="oslash" unicode="&#xf8;" horiz-adv-x="573" d="M115 -52 L159 10 C194 -5 235 -14 285 -14 C426 -14 537 72 537 240 C537 321 512 387 460 429 L502 487 L452 523 L406 460 C374 472 337 479 293 479 C141 479 35 384 35 230 C35 152 58 87 107 43 L64 -17 L115 -52 Z M395 231 C395 136 357 94 286 94 C264 94 245 98 229 107 L380 317 C390 296 395 267 395 231 L395 231 Z M178 240 C178 326 217 371 287 371 C306 371 322 368 336 362 L189 158 C182 179 178 206 178 240 L178 240 Z " />
<glyph glyph-name="ugrave" unicode="&#xf9;" horiz-adv-x="600" d="M380 54 C388 5 427 -11 461 -11 C499 -11 546 -5 586 11 L586 93 C573 91 562 90 554 90 C519 90 513 105 513 157 C513 202 517 350 517 393 C517 459 487 474 451 474 C406 474 349 462 301 437 L301 359 C310 360 319 360 326 360 C337 360 351 358 359 353 C369 347 374 331 374 290 L374 128 C350 113 320 104 286 104 C247 104 215 115 215 184 C215 250 218 350 218 394 C218 459 189 474 152 474 C106 474 54 462 5 437 L5 359 C11 359 25 360 31 360 C44 360 52 359 62 353 C71 348 75 331 75 290 L75 165 C75 111 82 78 98 49 C119 8 165 -12 224 -12 C289 -12 345 15 380 54 L380 54 Z M365 548 L279 689 C253 730 239 739 219 739 C193 739 165 719 165 689 C165 670 176 654 201 629 L325 515 L365 548 Z " />
<glyph glyph-name="uacute" unicode="&#xfa;" horiz-adv-x="600" d="M380 54 C388 5 427 -11 461 -11 C499 -11 546 -5 586 11 L586 93 C573 91 562 90 554 90 C519 90 513 105 513 157 C513 202 517 350 517 393 C517 459 487 474 451 474 C406 474 349 462 301 437 L301 359 C310 360 319 360 326 360 C337 360 351 358 359 353 C369 347 374 331 374 290 L374 128 C350 113 320 104 286 104 C247 104 215 115 215 184 C215 250 218 350 218 394 C218 459 189 474 152 474 C106 474 54 462 5 437 L5 359 C11 359 25 360 31 360 C44 360 52 359 62 353 C71 348 75 331 75 290 L75 165 C75 111 82 78 98 49 C119 8 165 -12 224 -12 C289 -12 345 15 380 54 L380 54 Z M269 515 L394 629 C418 654 429 670 429 689 C429 719 402 739 376 739 C355 739 342 730 315 689 L229 548 L269 515 Z " />
<glyph glyph-name="ucircumflex" unicode="&#xfb;" horiz-adv-x="600" d="M380 54 C388 5 427 -11 461 -11 C499 -11 546 -5 586 11 L586 93 C573 91 562 90 554 90 C519 90 513 105 513 157 C513 202 517 350 517 393 C517 459 487 474 451 474 C406 474 349 462 301 437 L301 359 C310 360 319 360 326 360 C337 360 351 358 359 353 C369 347 374 331 374 290 L374 128 C350 113 320 104 286 104 C247 104 215 115 215 184 C215 250 218 350 218 394 C218 459 189 474 152 474 C106 474 54 462 5 437 L5 359 C11 359 25 360 31 360 C44 360 52 359 62 353 C71 348 75 331 75 290 L75 165 C75 111 82 78 98 49 C119 8 165 -12 224 -12 C289 -12 345 15 380 54 L380 54 Z M439 539 L335 695 C323 712 308 721 288 721 C270 721 254 710 243 694 L135 538 L176 506 L286 611 L397 506 L439 539 Z " />
<glyph glyph-name="udieresis" unicode="&#xfc;" horiz-adv-x="600" d="M380 54 C388 5 427 -11 461 -11 C499 -11 546 -5 586 11 L586 93 C573 91 562 90 554 90 C519 90 513 105 513 157 C513 202 517 350 517 393 C517 459 487 474 451 474 C406 474 349 462 301 437 L301 359 C310 360 319 360 326 360 C337 360 351 358 359 353 C369 347 374 331 374 290 L374 128 C350 113 320 104 286 104 C247 104 215 115 215 184 C215 250 218 350 218 394 C218 459 189 474 152 474 C106 474 54 462 5 437 L5 359 C11 359 25 360 31 360 C44 360 52 359 62 353 C71 348 75 331 75 290 L75 165 C75 111 82 78 98 49 C119 8 165 -12 224 -12 C289 -12 345 15 380 54 L380 54 Z M207 552 C246 552 270 582 270 617 C270 651 246 680 209 680 C170 680 146 651 146 617 C146 579 172 552 207 552 L207 552 Z M380 552 C419 552 444 582 444 617 C444 651 419 680 382 680 C344 680 319 651 319 617 C319 579 346 552 380 552 L380 552 Z " />
<glyph glyph-name="yacute" unicode="&#xfd;" horiz-adv-x="573" d="M48 -120 C45 -138 42 -160 42 -188 C42 -229 62 -250 90 -262 C108 -270 134 -274 160 -274 C200 -274 248 -258 279 -213 C308 -171 335 -105 380 14 L490 308 C503 344 510 362 523 371 C533 378 551 381 567 383 L567 465 C536 464 471 463 452 463 C430 463 367 464 335 465 L335 383 C352 381 369 381 384 378 C391 377 402 370 402 358 C402 345 397 326 386 294 C365 230 346 176 327 120 C303 179 274 240 249 297 C236 326 232 342 232 353 C232 366 236 376 254 378 C265 380 281 381 293 383 L293 465 C256 464 198 463 174 463 C149 463 39 464 6 465 L6 383 C22 381 42 377 51 371 C64 362 76 341 88 315 L211 45 C225 14 240 -3 270 -3 C242 -79 222 -123 209 -143 C197 -162 183 -172 167 -172 C158 -172 148 -170 143 -166 C134 -158 130 -146 128 -120 L48 -120 Z M283 515 L408 629 C432 654 443 670 443 689 C443 719 416 739 390 739 C369 739 356 730 329 689 L243 548 L283 515 Z " />
<glyph glyph-name="thorn" unicode="&#xfe;" horiz-adv-x="597" d="M312 -262 L312 -183 C247 -179 236 -174 228 -166 C220 -155 217 -140 217 -95 L217 -2 C240 -5 265 -8 289 -8 C467 -8 555 99 555 247 C555 379 506 479 374 479 C307 479 251 445 215 411 C216 504 218 575 218 652 C218 704 201 731 158 731 C106 731 59 720 3 694 L3 617 C12 618 23 619 28 619 C40 619 53 617 62 610 C73 601 75 580 75 522 L75 -108 C75 -128 75 -157 69 -165 C62 -174 48 -179 4 -183 L4 -262 C51 -261 135 -260 157 -260 C183 -260 266 -261 312 -262 L312 -262 Z M215 113 L215 337 C242 353 277 364 307 364 C374 364 405 317 405 233 C405 157 371 104 294 104 C266 104 238 107 215 113 L215 113 Z " />
<glyph glyph-name="ydieresis" unicode="&#xff;" horiz-adv-x="573" d="M48 -120 C45 -138 42 -160 42 -188 C42 -229 62 -250 90 -262 C108 -270 134 -274 160 -274 C200 -274 248 -258 279 -213 C308 -171 335 -105 380 14 L490 308 C503 344 510 362 523 371 C533 378 551 381 567 383 L567 465 C536 464 471 463 452 463 C430 463 367 464 335 465 L335 383 C352 381 369 381 384 378 C391 377 402 370 402 358 C402 345 397 326 386 294 C365 230 346 176 327 120 C303 179 274 240 249 297 C236 326 232 342 232 353 C232 366 236 376 254 378 C265 380 281 381 293 383 L293 465 C256 464 198 463 174 463 C149 463 39 464 6 465 L6 383 C22 381 42 377 51 371 C64 362 76 341 88 315 L211 45 C225 14 240 -3 270 -3 C242 -79 222 -123 209 -143 C197 -162 183 -172 167 -172 C158 -172 148 -170 143 -166 C134 -158 130 -146 128 -120 L48 -120 Z M217 552 C256 552 280 582 280 617 C280 651 256 680 219 680 C180 680 156 651 156 617 C156 579 182 552 217 552 L217 552 Z M390 552 C429 552 454 582 454 617 C454 651 429 680 392 680 C354 680 329 651 329 617 C329 579 356 552 390 552 L390 552 Z " />
<glyph glyph-name="Amacron" unicode="&#x100;" horiz-adv-x="759" d="M315 -1 L315 81 C281 83 254 86 241 91 C225 97 224 106 224 115 C224 132 231 157 239 178 L253 213 L462 213 L477 172 C485 148 490 127 490 117 C490 106 487 96 469 90 C456 85 433 82 406 81 L406 -1 C457 0 587 1 612 1 C638 1 704 0 749 -1 L749 81 C717 82 700 88 692 93 C674 107 664 122 649 164 L481 622 C464 669 436 693 387 693 C337 693 306 668 286 615 L123 190 C99 126 92 112 79 100 C67 88 47 82 10 81 L10 -1 C52 0 111 1 132 1 C155 1 269 0 315 -1 L315 -1 Z M282 321 C310 398 343 488 356 527 C365 490 401 396 426 321 L282 321 Z M522 749 L522 830 L239 830 L239 749 L522 749 Z " />
<glyph glyph-name="amacron" unicode="&#x101;" horiz-adv-x="535" d="M521 9 L521 93 C507 91 497 90 485 90 C461 90 448 102 448 148 C448 159 449 286 449 319 C449 371 438 408 418 431 C396 455 358 479 249 479 C204 479 148 467 116 454 C85 441 67 420 67 384 C67 357 72 320 76 299 L158 299 C160 335 166 352 178 361 C191 371 213 375 238 375 C269 375 292 368 302 351 C309 339 311 325 311 299 L311 272 C300 274 278 274 269 274 C91 274 30 223 30 131 C30 31 111 -11 187 -11 C242 -11 291 12 326 47 C340 -3 380 -9 415 -9 C444 -9 491 -2 521 9 L521 9 Z M311 108 C292 97 263 88 231 88 C203 88 172 100 172 139 C172 170 195 189 270 189 C281 189 302 188 311 186 L311 108 Z M401 548 L401 630 L133 630 L133 548 L401 548 Z " />
<glyph glyph-name="Abreve" unicode="&#x102;" horiz-adv-x="759" d="M315 -1 L315 81 C281 83 254 86 241 91 C225 97 224 106 224 115 C224 132 231 157 239 178 L253 213 L462 213 L477 172 C485 148 490 127 490 117 C490 106 487 96 469 90 C456 85 433 82 406 81 L406 -1 C457 0 587 1 612 1 C638 1 704 0 749 -1 L749 81 C717 82 700 88 692 93 C674 107 664 122 649 164 L481 622 C464 669 436 693 387 693 C337 693 306 668 286 615 L123 190 C99 126 92 112 79 100 C67 88 47 82 10 81 L10 -1 C52 0 111 1 132 1 C155 1 269 0 315 -1 L315 -1 Z M282 321 C310 398 343 488 356 527 C365 490 401 396 426 321 L282 321 Z M484 889 C473 835 440 809 381 809 C321 809 287 840 280 889 L233 886 C233 771 290 726 380 726 C472 726 530 783 531 887 L484 889 Z " />
<glyph glyph-name="abreve" unicode="&#x103;" horiz-adv-x="535" d="M521 9 L521 93 C507 91 497 90 485 90 C461 90 448 102 448 148 C448 159 449 286 449 319 C449 371 438 408 418 431 C396 455 358 479 249 479 C204 479 148 467 116 454 C85 441 67 420 67 384 C67 357 72 320 76 299 L158 299 C160 335 166 352 178 361 C191 371 213 375 238 375 C269 375 292 368 302 351 C309 339 311 325 311 299 L311 272 C300 274 278 274 269 274 C91 274 30 223 30 131 C30 31 111 -11 187 -11 C242 -11 291 12 326 47 C340 -3 380 -9 415 -9 C444 -9 491 -2 521 9 L521 9 Z M311 108 C292 97 263 88 231 88 C203 88 172 100 172 139 C172 170 195 189 270 189 C281 189 302 188 311 186 L311 108 Z M354 686 C342 631 311 605 258 605 C204 605 172 636 165 686 L117 682 C117 566 170 522 257 522 C347 522 400 579 400 683 L354 686 Z " />
<glyph glyph-name="Aogonek" unicode="&#x104;" horiz-adv-x="759" d="M315 -1 L315 81 C281 83 254 86 241 91 C225 97 224 106 224 115 C224 132 231 157 239 178 L253 213 L462 213 L477 172 C485 148 490 127 490 117 C490 106 487 96 469 90 C456 85 433 82 406 81 L406 -1 C434 0 485 0 530 0 C455 -61 415 -122 415 -182 C415 -237 451 -286 529 -286 C573 -286 622 -264 648 -246 L630 -201 C609 -210 582 -216 559 -216 C521 -216 506 -190 506 -159 C506 -114 531 -64 596 1 L612 1 C638 1 704 0 749 -1 L749 81 C717 82 700 88 692 93 C674 107 664 122 649 164 L481 622 C464 669 436 693 387 693 C337 693 306 668 286 615 L123 190 C99 126 92 112 79 100 C67 88 47 82 10 81 L10 -1 C52 0 111 1 132 1 C155 1 269 0 315 -1 L315 -1 Z M282 321 C310 398 343 488 356 527 C365 490 401 396 426 321 L282 321 Z " />
<glyph glyph-name="aogonek" unicode="&#x105;" horiz-adv-x="535" d="M521 9 L521 93 C507 91 497 90 485 90 C461 90 448 102 448 148 C448 159 449 286 449 319 C449 371 438 408 418 431 C396 455 358 479 249 479 C204 479 148 467 116 454 C85 441 67 420 67 384 C67 357 72 320 76 299 L158 299 C160 335 166 352 178 361 C191 371 213 375 238 375 C269 375 292 368 302 351 C309 339 311 325 311 299 L311 272 C300 274 278 274 269 274 C91 274 30 223 30 131 C30 31 111 -11 187 -11 C242 -11 291 12 326 47 C336 9 362 -3 388 -7 C321 -63 285 -121 285 -176 C285 -228 321 -275 397 -275 C440 -275 488 -254 513 -237 L496 -193 C475 -202 449 -207 426 -207 C389 -207 374 -182 374 -153 C374 -111 397 -66 455 -6 C478 -3 502 2 521 9 L521 9 Z M311 108 C292 97 263 88 231 88 C203 88 172 100 172 139 C172 170 195 189 270 189 C281 189 302 188 311 186 L311 108 Z " />
<glyph glyph-name="Cacute" unicode="&#x106;" horiz-adv-x="679" d="M638 209 L550 209 C536 165 524 142 512 129 C495 111 461 100 402 100 C310 100 200 153 200 336 C200 512 298 580 401 580 C458 580 491 571 509 551 C519 539 526 514 531 469 L617 469 C621 495 630 554 630 599 C630 629 611 652 577 667 C546 681 485 692 407 692 C175 692 40 554 40 326 C40 107 171 -14 383 -14 C461 -14 522 1 552 12 C585 24 609 42 619 65 C628 87 635 130 638 209 L638 209 Z M340 716 L493 808 C524 826 540 848 540 867 C540 895 518 919 493 919 C472 919 459 915 426 880 L307 756 L340 716 Z " />
<glyph glyph-name="cacute" unicode="&#x107;" horiz-adv-x="493" d="M468 55 L427 136 C387 114 343 99 299 99 C236 99 181 127 181 232 C181 333 231 371 286 371 C307 371 327 368 337 360 C347 352 356 335 359 299 L444 299 C450 333 452 375 452 399 C452 438 430 454 391 466 C364 474 321 479 287 479 C141 479 35 385 35 221 C35 73 134 -14 267 -14 C337 -14 415 11 468 55 L468 55 Z M246 515 L371 629 C395 654 406 670 406 689 C406 719 379 739 353 739 C332 739 319 730 292 689 L206 548 L246 515 Z " />
<glyph glyph-name="Ccircumflex" unicode="&#x108;" horiz-adv-x="679" d="M638 209 L550 209 C536 165 524 142 512 129 C495 111 461 100 402 100 C310 100 200 153 200 336 C200 512 298 580 401 580 C458 580 491 571 509 551 C519 539 526 514 531 469 L617 469 C621 495 630 554 630 599 C630 629 611 652 577 667 C546 681 485 692 407 692 C175 692 40 554 40 326 C40 107 171 -14 383 -14 C461 -14 522 1 552 12 C585 24 609 42 619 65 C628 87 635 130 638 209 L638 209 Z M545 751 L428 884 C415 900 401 909 381 909 C363 909 349 899 336 884 L217 750 L251 715 L379 804 L507 715 L545 751 Z " />
<glyph glyph-name="ccircumflex" unicode="&#x109;" horiz-adv-x="493" d="M468 55 L427 136 C387 114 343 99 299 99 C236 99 181 127 181 232 C181 333 231 371 286 371 C307 371 327 368 337 360 C347 352 356 335 359 299 L444 299 C450 333 452 375 452 399 C452 438 430 454 391 466 C364 474 321 479 287 479 C141 479 35 385 35 221 C35 73 134 -14 267 -14 C337 -14 415 11 468 55 L468 55 Z M431 539 L327 695 C315 712 300 721 280 721 C262 721 246 710 235 694 L127 538 L168 506 L278 611 L389 506 L431 539 Z " />
<glyph glyph-name="Cdotaccent" unicode="&#x10a;" horiz-adv-x="679" d="M638 209 L550 209 C536 165 524 142 512 129 C495 111 461 100 402 100 C310 100 200 153 200 336 C200 512 298 580 401 580 C458 580 491 571 509 551 C519 539 526 514 531 469 L617 469 C621 495 630 554 630 599 C630 629 611 652 577 667 C546 681 485 692 407 692 C175 692 40 554 40 326 C40 107 171 -14 383 -14 C461 -14 522 1 552 12 C585 24 609 42 619 65 C628 87 635 130 638 209 L638 209 Z M376 742 C415 742 440 772 440 807 C440 841 415 870 378 870 C340 870 315 841 315 807 C315 769 342 742 376 742 L376 742 Z " />
<glyph glyph-name="cdotaccent" unicode="&#x10b;" horiz-adv-x="493" d="M468 55 L427 136 C387 114 343 99 299 99 C236 99 181 127 181 232 C181 333 231 371 286 371 C307 371 327 368 337 360 C347 352 356 335 359 299 L444 299 C450 333 452 375 452 399 C452 438 430 454 391 466 C364 474 321 479 287 479 C141 479 35 385 35 221 C35 73 134 -14 267 -14 C337 -14 415 11 468 55 L468 55 Z M278 552 C317 552 342 582 342 617 C342 651 317 680 280 680 C242 680 217 651 217 617 C217 579 244 552 278 552 L278 552 Z " />
<glyph glyph-name="Ccaron" unicode="&#x10c;" horiz-adv-x="679" d="M638 209 L550 209 C536 165 524 142 512 129 C495 111 461 100 402 100 C310 100 200 153 200 336 C200 512 298 580 401 580 C458 580 491 571 509 551 C519 539 526 514 531 469 L617 469 C621 495 630 554 630 599 C630 629 611 652 577 667 C546 681 485 692 407 692 C175 692 40 554 40 326 C40 107 171 -14 383 -14 C461 -14 522 1 552 12 C585 24 609 42 619 65 C628 87 635 130 638 209 L638 209 Z M219 874 L335 741 C348 725 361 715 382 715 C399 715 414 726 427 742 L547 875 L512 910 L384 822 L256 910 L219 874 Z " />
<glyph glyph-name="ccaron" unicode="&#x10d;" horiz-adv-x="493" d="M468 55 L427 136 C387 114 343 99 299 99 C236 99 181 127 181 232 C181 333 231 371 286 371 C307 371 327 368 337 360 C347 352 356 335 359 299 L444 299 C450 333 452 375 452 399 C452 438 430 454 391 466 C364 474 321 479 287 479 C141 479 35 385 35 221 C35 73 134 -14 267 -14 C337 -14 415 11 468 55 L468 55 Z M123 690 L228 534 C240 517 255 508 275 508 C292 508 309 519 320 535 L427 691 L387 723 L277 618 L167 723 L123 690 Z " />
<glyph glyph-name="Dcaron" unicode="&#x10e;" horiz-adv-x="738" d="M22 0 L282 0 C396 0 491 17 550 50 C653 108 699 205 699 351 C699 477 662 570 573 624 C510 661 430 676 225 676 L22 676 L22 596 C86 593 97 591 105 574 C108 566 109 545 109 519 L109 156 C109 115 107 106 101 97 C93 87 79 83 22 81 L22 0 Z M262 149 L262 562 L306 562 C362 562 406 556 441 542 C502 517 535 455 535 340 C535 175 473 108 337 108 C319 108 293 110 278 118 C266 124 262 133 262 149 L262 149 Z M166 874 L282 741 C295 725 308 715 329 715 C346 715 361 726 374 742 L494 875 L459 910 L331 822 L203 910 L166 874 Z " />
<glyph glyph-name="dcaron" unicode="&#x10f;" horiz-adv-x="615" d="M401 49 C410 10 433 -9 486 -9 C510 -9 552 -5 595 9 L595 93 C582 91 567 90 559 90 C531 90 522 110 522 139 L522 446 C522 495 524 614 524 657 C524 695 511 731 464 731 C425 731 365 722 310 694 L310 617 C320 618 330 619 337 619 C357 619 373 612 376 595 C380 582 382 558 382 536 L382 458 C356 470 314 476 286 476 C109 476 35 363 35 215 C35 84 116 -12 252 -12 C314 -12 362 8 401 49 L401 49 Z M382 126 C361 108 330 98 298 98 C228 98 181 144 181 232 C181 323 229 368 303 368 C330 368 362 363 382 351 L382 126 Z M586 463 C672 522 716 582 716 651 C716 700 690 735 640 735 C597 735 572 704 572 673 C572 641 588 628 609 618 C621 612 628 602 628 590 C628 566 605 538 557 502 L586 463 Z " />
<glyph glyph-name="Dcroat" unicode="&#x110;" horiz-adv-x="738" d="M22 0 L282 0 C396 0 491 17 550 50 C653 108 699 205 699 351 C699 477 662 570 573 624 C510 661 430 676 225 676 L22 676 L22 596 C86 593 97 591 105 574 C108 566 109 545 109 519 L109 391 L18 391 L18 317 L109 317 L109 156 C109 115 107 106 101 97 C93 87 79 83 22 81 L22 0 Z M262 153 L262 317 L423 317 L423 391 L262 391 L262 562 L306 562 C362 562 406 556 441 542 C502 517 535 455 535 340 C535 175 473 107 336 107 C318 107 293 110 278 118 C266 124 262 136 262 153 L262 153 Z " />
<glyph glyph-name="dcroat" unicode="&#x111;" horiz-adv-x="615" d="M595 506 L595 568 L523 568 C524 604 524 638 524 657 C524 695 511 731 464 731 C425 731 365 722 310 694 L310 619 C320 621 330 621 337 621 C357 621 373 614 376 597 C378 590 380 579 381 568 L256 568 L256 506 L382 506 L382 458 C356 470 314 476 286 476 C109 476 35 363 35 215 C35 84 116 -12 252 -12 C314 -12 362 8 401 49 C410 10 433 -9 486 -9 C510 -9 552 -5 595 9 L595 93 C582 91 567 90 559 90 C531 90 522 110 522 139 L522 506 L595 506 Z M382 126 C361 108 330 98 298 98 C228 98 181 144 181 232 C181 323 229 368 303 368 C330 368 362 363 382 351 L382 126 Z " />
<glyph glyph-name="Emacron" unicode="&#x112;" horiz-adv-x="635" d="M609 203 L530 203 C521 179 511 140 496 127 C479 111 447 100 369 100 C346 100 316 100 289 104 C269 107 262 120 262 147 L262 296 L300 296 C337 296 360 295 373 282 C382 272 387 253 392 224 L465 224 C464 266 464 329 464 346 C464 374 464 440 465 465 L389 465 C385 443 378 419 369 409 C358 396 335 394 300 394 L262 394 L262 573 L377 573 C421 573 439 569 449 562 C460 554 468 532 475 489 L561 489 C564 515 572 590 572 625 C572 656 549 676 499 676 L22 676 L22 596 C78 591 94 587 103 576 C109 570 109 549 109 520 L109 160 C109 122 109 106 101 97 C92 88 71 85 22 81 L22 0 L498 0 C544 0 582 14 590 36 C602 70 608 154 609 203 L609 203 Z M454 749 L454 830 L171 830 L171 749 L454 749 Z " />
<glyph glyph-name="emacron" unicode="&#x113;" horiz-adv-x="521" d="M498 61 L456 143 C395 112 344 100 297 100 C219 100 178 147 178 197 L178 205 L422 205 C442 205 461 208 472 220 C482 231 486 258 486 279 C486 390 428 479 283 479 C141 479 35 389 35 222 C35 78 131 -14 271 -14 C361 -14 443 16 498 61 L498 61 Z M179 293 C184 353 227 375 275 375 C327 375 352 346 352 307 L352 297 L179 293 Z M410 548 L410 630 L142 630 L142 548 L410 548 Z " />
<glyph glyph-name="Ebreve" unicode="&#x114;" horiz-adv-x="635" d="M609 203 L530 203 C521 179 511 140 496 127 C479 111 447 100 369 100 C346 100 316 100 289 104 C269 107 262 120 262 147 L262 296 L300 296 C337 296 360 295 373 282 C382 272 387 253 392 224 L465 224 C464 266 464 329 464 346 C464 374 464 440 465 465 L389 465 C385 443 378 419 369 409 C358 396 335 394 300 394 L262 394 L262 573 L377 573 C421 573 439 569 449 562 C460 554 468 532 475 489 L561 489 C564 515 572 590 572 625 C572 656 549 676 499 676 L22 676 L22 596 C78 591 94 587 103 576 C109 570 109 549 109 520 L109 160 C109 122 109 106 101 97 C92 88 71 85 22 81 L22 0 L498 0 C544 0 582 14 590 36 C602 70 608 154 609 203 L609 203 Z M414 889 C403 835 370 809 311 809 C251 809 217 840 210 889 L163 886 C163 771 220 726 310 726 C402 726 460 783 461 887 L414 889 Z " />
<glyph glyph-name="ebreve" unicode="&#x115;" horiz-adv-x="521" d="M498 61 L456 143 C395 112 344 100 297 100 C219 100 178 147 178 197 L178 205 L422 205 C442 205 461 208 472 220 C482 231 486 258 486 279 C486 390 428 479 283 479 C141 479 35 389 35 222 C35 78 131 -14 271 -14 C361 -14 443 16 498 61 L498 61 Z M179 293 C184 353 227 375 275 375 C327 375 352 346 352 307 L352 297 L179 293 Z M371 686 C359 631 328 605 275 605 C221 605 189 636 182 686 L134 682 C134 566 187 522 274 522 C364 522 417 579 417 683 L371 686 Z " />
<glyph glyph-name="Edotaccent" unicode="&#x116;" horiz-adv-x="635" d="M609 203 L530 203 C521 179 511 140 496 127 C479 111 447 100 369 100 C346 100 316 100 289 104 C269 107 262 120 262 147 L262 296 L300 296 C337 296 360 295 373 282 C382 272 387 253 392 224 L465 224 C464 266 464 329 464 346 C464 374 464 440 465 465 L389 465 C385 443 378 419 369 409 C358 396 335 394 300 394 L262 394 L262 573 L377 573 C421 573 439 569 449 562 C460 554 468 532 475 489 L561 489 C564 515 572 590 572 625 C572 656 549 676 499 676 L22 676 L22 596 C78 591 94 587 103 576 C109 570 109 549 109 520 L109 160 C109 122 109 106 101 97 C92 88 71 85 22 81 L22 0 L498 0 C544 0 582 14 590 36 C602 70 608 154 609 203 L609 203 Z M313 742 C352 742 377 772 377 807 C377 841 352 870 315 870 C277 870 252 841 252 807 C252 769 279 742 313 742 L313 742 Z " />
<glyph glyph-name="edotaccent" unicode="&#x117;" horiz-adv-x="521" d="M498 61 L456 143 C395 112 344 100 297 100 C219 100 178 147 178 197 L178 205 L422 205 C442 205 461 208 472 220 C482 231 486 258 486 279 C486 390 428 479 283 479 C141 479 35 389 35 222 C35 78 131 -14 271 -14 C361 -14 443 16 498 61 L498 61 Z M179 293 C184 353 227 375 275 375 C327 375 352 346 352 307 L352 297 L179 293 Z M271 552 C310 552 335 582 335 617 C335 651 310 680 273 680 C235 680 210 651 210 617 C210 579 237 552 271 552 L271 552 Z " />
<glyph glyph-name="Eogonek" unicode="&#x118;" horiz-adv-x="635" d="M609 203 L530 203 C521 179 511 140 496 127 C479 111 447 100 369 100 C346 100 316 100 289 104 C269 107 262 120 262 147 L262 296 L300 296 C337 296 360 295 373 282 C382 272 387 253 392 224 L465 224 C464 266 464 329 464 346 C464 374 464 440 465 465 L389 465 C385 443 378 419 369 409 C358 396 335 394 300 394 L262 394 L262 573 L377 573 C421 573 439 569 449 562 C460 554 468 532 475 489 L561 489 C564 515 572 590 572 625 C572 656 549 676 499 676 L22 676 L22 596 C78 591 94 587 103 576 C109 570 109 549 109 520 L109 160 C109 122 109 106 101 97 C92 88 71 85 22 81 L22 0 L461 0 C386 -61 347 -122 347 -182 C347 -237 383 -286 461 -286 C505 -286 554 -264 580 -246 L562 -201 C541 -210 514 -216 491 -216 C453 -216 438 -190 438 -159 C438 -114 463 -63 529 2 C560 7 584 19 590 36 C602 70 608 154 609 203 L609 203 Z " />
<glyph glyph-name="eogonek" unicode="&#x119;" horiz-adv-x="521" d="M498 61 L456 143 C395 112 344 100 297 100 C219 100 178 147 178 197 L178 205 L422 205 C442 205 461 208 472 220 C482 231 486 258 486 279 C486 390 428 479 283 479 C141 479 35 389 35 222 C35 78 131 -14 271 -14 C281 -14 292 -13 302 -12 C239 -67 205 -122 205 -176 C205 -228 241 -275 317 -275 C360 -275 408 -254 433 -237 L416 -193 C395 -202 369 -207 346 -207 C309 -207 294 -182 294 -153 C294 -109 319 -62 383 2 C427 15 467 35 498 61 L498 61 Z M179 293 C184 353 227 375 275 375 C327 375 352 346 352 307 L352 297 L179 293 Z " />
<glyph glyph-name="Ecaron" unicode="&#x11a;" horiz-adv-x="635" d="M609 203 L530 203 C521 179 511 140 496 127 C479 111 447 100 369 100 C346 100 316 100 289 104 C269 107 262 120 262 147 L262 296 L300 296 C337 296 360 295 373 282 C382 272 387 253 392 224 L465 224 C464 266 464 329 464 346 C464 374 464 440 465 465 L389 465 C385 443 378 419 369 409 C358 396 335 394 300 394 L262 394 L262 573 L377 573 C421 573 439 569 449 562 C460 554 468 532 475 489 L561 489 C564 515 572 590 572 625 C572 656 549 676 499 676 L22 676 L22 596 C78 591 94 587 103 576 C109 570 109 549 109 520 L109 160 C109 122 109 106 101 97 C92 88 71 85 22 81 L22 0 L498 0 C544 0 582 14 590 36 C602 70 608 154 609 203 L609 203 Z M144 874 L260 741 C273 725 286 715 307 715 C324 715 339 726 352 742 L472 875 L437 910 L309 822 L181 910 L144 874 Z " />
<glyph glyph-name="ecaron" unicode="&#x11b;" horiz-adv-x="521" d="M498 61 L456 143 C395 112 344 100 297 100 C219 100 178 147 178 197 L178 205 L422 205 C442 205 461 208 472 220 C482 231 486 258 486 279 C486 390 428 479 283 479 C141 479 35 389 35 222 C35 78 131 -14 271 -14 C361 -14 443 16 498 61 L498 61 Z M179 293 C184 353 227 375 275 375 C327 375 352 346 352 307 L352 297 L179 293 Z M128 690 L233 534 C245 517 260 508 280 508 C297 508 314 519 325 535 L432 691 L392 723 L282 618 L172 723 L128 690 Z " />
<glyph glyph-name="Gcircumflex" unicode="&#x11c;" horiz-adv-x="724" d="M702 252 L702 334 C666 333 596 332 566 332 C545 332 434 333 405 334 L405 252 C437 250 467 246 481 240 C489 235 493 225 493 202 L493 152 C493 135 492 124 485 117 C481 113 472 107 462 105 C452 102 421 100 403 100 C321 100 200 144 200 336 C200 533 316 580 413 580 C472 580 508 574 525 551 C534 538 542 514 548 468 L634 468 C641 507 647 566 647 596 C647 629 630 648 605 661 C566 681 502 692 406 692 C182 692 40 549 40 326 C40 105 182 -15 384 -15 C467 -15 551 1 604 24 C630 35 641 48 641 80 L641 201 C641 215 643 232 648 238 C656 247 672 250 702 252 L702 252 Z M561 751 L444 884 C431 900 417 909 397 909 C379 909 365 899 352 884 L233 750 L267 715 L395 804 L523 715 L561 751 Z " />
<glyph glyph-name="gcircumflex" unicode="&#x11d;" horiz-adv-x="544" d="M332 301 C332 248 300 220 254 220 C208 220 175 242 175 303 C175 346 204 379 253 379 C299 379 332 359 332 301 L332 301 Z M201 125 C213 123 229 122 248 122 C390 122 469 190 469 306 C469 320 465 346 458 356 C485 356 503 357 538 359 L538 447 C504 449 463 450 387 450 C358 468 320 479 255 479 C111 479 33 402 33 298 C33 224 64 175 131 146 C85 113 66 80 66 48 C66 18 79 -6 113 -22 C84 -32 60 -44 43 -57 C13 -79 0 -103 0 -140 C0 -214 71 -279 257 -279 C424 -279 529 -204 529 -92 C529 -16 499 35 402 50 C322 62 271 65 230 71 C192 77 182 88 182 98 C182 107 188 117 201 125 L201 125 Z M172 -51 C184 -55 210 -59 308 -71 C365 -78 380 -92 380 -114 C380 -144 352 -171 270 -171 C159 -171 133 -137 133 -107 C133 -89 142 -72 172 -51 L172 -51 Z M408 539 L304 695 C292 712 277 721 257 721 C239 721 223 710 212 694 L104 538 L145 506 L255 611 L366 506 L408 539 Z " />
<glyph glyph-name="Gbreve" unicode="&#x11e;" horiz-adv-x="724" d="M702 252 L702 334 C666 333 596 332 566 332 C545 332 434 333 405 334 L405 252 C437 250 467 246 481 240 C489 235 493 225 493 202 L493 152 C493 135 492 124 485 117 C481 113 472 107 462 105 C452 102 421 100 403 100 C321 100 200 144 200 336 C200 533 316 580 413 580 C472 580 508 574 525 551 C534 538 542 514 548 468 L634 468 C641 507 647 566 647 596 C647 629 630 648 605 661 C566 681 502 692 406 692 C182 692 40 549 40 326 C40 105 182 -15 384 -15 C467 -15 551 1 604 24 C630 35 641 48 641 80 L641 201 C641 215 643 232 648 238 C656 247 672 250 702 252 L702 252 Z M487 889 C476 835 443 809 384 809 C324 809 290 840 283 889 L236 886 C236 771 293 726 383 726 C475 726 533 783 534 887 L487 889 Z " />
<glyph glyph-name="gbreve" unicode="&#x11f;" horiz-adv-x="544" d="M332 301 C332 248 300 220 254 220 C208 220 175 242 175 303 C175 346 204 379 253 379 C299 379 332 359 332 301 L332 301 Z M201 125 C213 123 229 122 248 122 C390 122 469 190 469 306 C469 320 465 346 458 356 C485 356 503 357 538 359 L538 447 C504 449 463 450 387 450 C358 468 320 479 255 479 C111 479 33 402 33 298 C33 224 64 175 131 146 C85 113 66 80 66 48 C66 18 79 -6 113 -22 C84 -32 60 -44 43 -57 C13 -79 0 -103 0 -140 C0 -214 71 -279 257 -279 C424 -279 529 -204 529 -92 C529 -16 499 35 402 50 C322 62 271 65 230 71 C192 77 182 88 182 98 C182 107 188 117 201 125 L201 125 Z M172 -51 C184 -55 210 -59 308 -71 C365 -78 380 -92 380 -114 C380 -144 352 -171 270 -171 C159 -171 133 -137 133 -107 C133 -89 142 -72 172 -51 L172 -51 Z M350 686 C338 631 307 605 254 605 C200 605 168 636 161 686 L113 682 C113 566 166 522 253 522 C343 522 396 579 396 683 L350 686 Z " />
<glyph glyph-name="Gdotaccent" unicode="&#x120;" horiz-adv-x="724" d="M702 252 L702 334 C666 333 596 332 566 332 C545 332 434 333 405 334 L405 252 C437 250 467 246 481 240 C489 235 493 225 493 202 L493 152 C493 135 492 124 485 117 C481 113 472 107 462 105 C452 102 421 100 403 100 C321 100 200 144 200 336 C200 533 316 580 413 580 C472 580 508 574 525 551 C534 538 542 514 548 468 L634 468 C641 507 647 566 647 596 C647 629 630 648 605 661 C566 681 502 692 406 692 C182 692 40 549 40 326 C40 105 182 -15 384 -15 C467 -15 551 1 604 24 C630 35 641 48 641 80 L641 201 C641 215 643 232 648 238 C656 247 672 250 702 252 L702 252 Z M391 742 C430 742 455 772 455 807 C455 841 430 870 393 870 C355 870 330 841 330 807 C330 769 357 742 391 742 L391 742 Z " />
<glyph glyph-name="gdotaccent" unicode="&#x121;" horiz-adv-x="544" d="M332 301 C332 248 300 220 254 220 C208 220 175 242 175 303 C175 346 204 379 253 379 C299 379 332 359 332 301 L332 301 Z M201 125 C213 123 229 122 248 122 C390 122 469 190 469 306 C469 320 465 346 458 356 C485 356 503 357 538 359 L538 447 C504 449 463 450 387 450 C358 468 320 479 255 479 C111 479 33 402 33 298 C33 224 64 175 131 146 C85 113 66 80 66 48 C66 18 79 -6 113 -22 C84 -32 60 -44 43 -57 C13 -79 0 -103 0 -140 C0 -214 71 -279 257 -279 C424 -279 529 -204 529 -92 C529 -16 499 35 402 50 C322 62 271 65 230 71 C192 77 182 88 182 98 C182 107 188 117 201 125 L201 125 Z M172 -51 C184 -55 210 -59 308 -71 C365 -78 380 -92 380 -114 C380 -144 352 -171 270 -171 C159 -171 133 -137 133 -107 C133 -89 142 -72 172 -51 L172 -51 Z M254 552 C293 552 318 582 318 617 C318 651 293 680 256 680 C218 680 193 651 193 617 C193 579 220 552 254 552 L254 552 Z " />
<glyph glyph-name="Gcommaaccent" unicode="&#x122;" horiz-adv-x="724" d="M702 252 L702 334 C666 333 596 332 566 332 C545 332 434 333 405 334 L405 252 C437 250 467 246 481 240 C489 235 493 225 493 202 L493 152 C493 135 492 124 485 117 C481 113 472 107 462 105 C452 102 421 100 403 100 C321 100 200 144 200 336 C200 533 316 580 413 580 C472 580 508 574 525 551 C534 538 542 514 548 468 L634 468 C641 507 647 566 647 596 C647 629 630 648 605 661 C566 681 502 692 406 692 C182 692 40 549 40 326 C40 105 182 -15 384 -15 C467 -15 551 1 604 24 C630 35 641 48 641 80 L641 201 C641 215 643 232 648 238 C656 247 672 250 702 252 L702 252 Z M321 -317 C407 -258 451 -198 451 -129 C451 -80 425 -45 375 -45 C332 -45 307 -76 307 -106 C307 -138 323 -152 344 -162 C356 -168 363 -178 363 -189 C363 -214 340 -242 292 -277 L321 -317 Z " />
<glyph glyph-name="gcommaaccent" unicode="&#x123;" horiz-adv-x="544" d="M332 301 C332 248 300 220 254 220 C208 220 175 242 175 303 C175 346 204 379 253 379 C299 379 332 359 332 301 L332 301 Z M201 125 C213 123 229 122 248 122 C390 122 469 190 469 306 C469 320 465 346 458 356 C485 356 503 357 538 359 L538 447 C504 449 463 450 387 450 C358 468 320 479 255 479 C111 479 33 402 33 298 C33 224 64 175 131 146 C85 113 66 80 66 48 C66 18 79 -6 113 -22 C84 -32 60 -44 43 -57 C13 -79 0 -103 0 -140 C0 -214 71 -279 257 -279 C424 -279 529 -204 529 -92 C529 -16 499 35 402 50 C322 62 271 65 230 71 C192 77 182 88 182 98 C182 107 188 117 201 125 L201 125 Z M172 -51 C184 -55 210 -59 308 -71 C365 -78 380 -92 380 -114 C380 -144 352 -171 270 -171 C159 -171 133 -137 133 -107 C133 -89 142 -72 172 -51 L172 -51 Z M318 797 C231 739 187 678 187 608 C187 560 214 525 263 525 C307 525 332 556 332 586 C332 618 316 631 294 642 C283 647 276 658 276 669 C276 694 299 722 347 757 L318 797 Z " />
<glyph glyph-name="Hcircumflex" unicode="&#x124;" horiz-adv-x="770" d="M349 -1 L349 81 C288 84 277 90 270 98 C265 105 262 119 262 164 L262 298 L507 298 L507 160 C507 117 506 103 500 96 C492 87 477 83 420 81 L420 -1 C464 0 566 1 589 1 C614 1 705 0 748 -1 L748 81 C684 84 676 88 669 97 C663 104 661 119 661 164 L661 520 C661 560 663 571 669 578 C676 588 688 593 748 596 L748 677 C705 676 612 674 587 674 C564 674 464 676 420 677 L420 596 C477 593 492 589 500 579 C506 572 507 556 507 519 L507 410 L262 410 L262 520 C262 560 265 571 270 578 C276 587 287 593 349 596 L349 677 C306 676 210 674 185 674 C161 674 65 676 22 677 L22 596 C78 593 95 589 102 579 C108 572 109 557 109 521 L109 160 C109 117 107 104 101 97 C93 88 80 83 22 81 L22 -1 C66 0 163 1 186 1 C211 1 306 0 349 -1 L349 -1 Z M550 751 L433 884 C420 900 406 909 386 909 C368 909 354 899 341 884 L222 750 L256 715 L384 804 L512 715 L550 751 Z " />
<glyph glyph-name="hcircumflex" unicode="&#x125;" horiz-adv-x="612" d="M286 -1 L286 79 C255 82 245 85 237 93 C230 100 229 116 229 150 L229 338 C259 351 291 358 316 358 C340 358 359 354 369 343 C380 330 383 307 383 273 L383 151 C383 113 380 100 375 95 C369 87 359 83 324 79 L324 -1 C368 0 443 1 467 1 C489 1 555 0 597 -1 L597 79 C547 85 534 89 529 99 C525 107 524 120 524 149 L524 310 C524 380 514 420 489 444 C468 464 434 476 394 476 C338 476 269 450 228 405 C228 497 230 575 230 652 C230 704 212 731 169 731 C118 731 71 720 16 694 L16 617 C24 618 34 619 40 619 C52 619 66 617 74 610 C85 601 88 580 88 518 L88 148 C88 113 85 101 80 95 C73 87 62 84 16 79 L16 -1 C61 1 137 1 160 1 C186 1 242 0 286 -1 L286 -1 Z M313 772 L196 905 C183 921 169 930 149 930 C131 930 117 920 104 905 L-15 771 L19 736 L147 825 L275 736 L313 772 Z " />
<glyph glyph-name="Hbar" unicode="&#x126;" horiz-adv-x="770" d="M748 454 L748 528 L661 528 C661 561 663 571 669 578 C676 588 688 593 748 596 L748 677 C705 676 612 674 587 674 C564 674 464 676 420 677 L420 596 C477 593 492 589 500 579 C505 572 507 558 507 528 L262 528 C262 561 265 571 270 578 C276 587 287 593 349 596 L349 677 C306 676 210 674 185 674 C161 674 65 676 22 677 L22 596 C78 593 95 589 102 579 C107 572 109 558 109 528 L20 528 L20 454 L109 454 L109 160 C109 117 107 104 101 97 C93 88 80 83 22 81 L22 -1 C66 0 163 1 186 1 C211 1 306 0 349 -1 L349 81 C288 84 277 90 270 98 C265 105 262 119 262 164 L262 298 L507 298 L507 160 C507 117 506 103 500 96 C491 88 477 83 420 81 L420 -1 C464 0 566 1 589 1 C614 1 705 0 748 -1 L748 81 C684 84 677 89 669 97 C664 104 661 119 661 164 L661 454 L748 454 Z M262 404 L262 454 L507 454 L507 404 L262 404 Z " />
<glyph glyph-name="hbar" unicode="&#x127;" horiz-adv-x="612" d="M353 506 L353 568 L229 568 C230 596 230 624 230 652 C230 704 212 731 169 731 C118 731 71 720 16 694 L16 617 C24 618 34 619 40 619 C52 619 66 617 74 610 C81 604 85 592 87 568 L12 568 L12 506 L88 506 L88 148 C88 113 85 101 80 95 C73 87 62 84 16 79 L16 -1 C61 1 137 1 160 1 C186 1 242 0 286 -1 L286 79 C255 82 245 85 237 93 C230 100 229 116 229 150 L229 338 C259 351 291 358 316 358 C340 358 359 354 369 343 C380 330 383 307 383 273 L383 151 C383 113 380 100 375 95 C369 87 359 83 324 79 L324 -1 C368 0 443 1 467 1 C489 1 555 0 597 -1 L597 79 C547 85 534 89 529 99 C525 107 524 120 524 149 L524 310 C524 380 514 420 489 444 C468 464 434 476 394 476 C338 476 269 450 228 405 L228 506 L353 506 Z " />
<glyph glyph-name="Itilde" unicode="&#x128;" horiz-adv-x="371" d="M349 -1 L349 81 C286 84 278 90 270 99 C264 106 262 119 262 164 L262 520 C262 560 265 571 270 578 C276 587 287 593 349 596 L349 677 C309 676 243 674 185 674 C129 674 49 676 22 677 L22 596 C78 593 95 589 102 579 C108 572 109 557 109 521 L109 160 C109 117 107 104 101 97 C93 88 80 83 22 81 L22 -1 C66 0 163 1 186 1 C211 1 306 0 349 -1 L349 -1 Z M63 733 C82 770 94 783 116 783 C124 783 138 781 158 772 L195 756 C221 746 242 738 264 738 C308 738 338 791 353 866 L306 880 C290 845 278 828 260 828 C246 828 229 835 212 841 L173 857 C157 864 135 873 114 873 C63 873 33 806 18 747 L63 733 Z " />
<glyph glyph-name="itilde" unicode="&#x129;" horiz-adv-x="323" d="M30 535 C48 571 59 584 81 584 C89 584 105 581 124 573 L152 561 C180 548 199 543 220 543 C264 543 295 595 309 670 L263 684 C246 649 234 632 216 632 C203 632 186 637 169 646 L141 659 C125 666 102 675 80 675 C30 675 0 608 -15 549 L30 535 Z M305 -1 L305 79 C267 82 249 85 242 94 C235 102 233 115 233 150 C233 232 237 325 237 395 C237 460 205 474 169 474 C123 474 70 462 20 437 L20 359 C28 360 38 360 45 360 C56 360 70 358 78 353 C87 347 93 331 93 290 L93 149 C93 114 90 101 85 95 C77 87 66 84 20 79 L20 -1 C65 1 141 1 165 1 C190 1 262 0 305 -1 L305 -1 Z " />
<glyph glyph-name="Imacron" unicode="&#x12a;" horiz-adv-x="371" d="M349 -1 L349 81 C286 84 278 90 270 99 C264 106 262 119 262 164 L262 520 C262 560 265 571 270 578 C276 587 287 593 349 596 L349 677 C309 676 243 674 185 674 C129 674 49 676 22 677 L22 596 C78 593 95 589 102 579 C108 572 109 557 109 521 L109 160 C109 117 107 104 101 97 C93 88 80 83 22 81 L22 -1 C66 0 163 1 186 1 C211 1 306 0 349 -1 L349 -1 Z M323 773 L323 855 L55 855 L55 773 L323 773 Z " />
<glyph glyph-name="imacron" unicode="&#x12b;" horiz-adv-x="323" d="M280 548 L280 630 L12 630 L12 548 L280 548 Z M305 -1 L305 79 C267 82 249 85 242 94 C235 102 233 115 233 150 C233 232 237 325 237 395 C237 460 205 474 169 474 C123 474 70 462 20 437 L20 359 C28 360 38 360 45 360 C56 360 70 358 78 353 C87 347 93 331 93 290 L93 149 C93 114 90 101 85 95 C77 87 66 84 20 79 L20 -1 C65 1 141 1 165 1 C190 1 262 0 305 -1 L305 -1 Z " />
<glyph glyph-name="Ibreve" unicode="&#x12c;" horiz-adv-x="371" d="M349 -1 L349 81 C286 84 278 90 270 99 C264 106 262 119 262 164 L262 520 C262 560 265 571 270 578 C276 587 287 593 349 596 L349 677 C309 676 243 674 185 674 C129 674 49 676 22 677 L22 596 C78 593 95 589 102 579 C108 572 109 557 109 521 L109 160 C109 117 107 104 101 97 C93 88 80 83 22 81 L22 -1 C66 0 163 1 186 1 C211 1 306 0 349 -1 L349 -1 Z M288 889 C277 835 244 809 185 809 C125 809 91 840 84 889 L37 886 C37 771 94 726 184 726 C276 726 334 783 335 887 L288 889 Z " />
<glyph glyph-name="ibreve" unicode="&#x12d;" horiz-adv-x="323" d="M241 686 C229 631 198 605 145 605 C91 605 59 636 52 686 L4 682 C4 566 57 522 144 522 C234 522 287 579 287 683 L241 686 Z M305 -1 L305 79 C267 82 249 85 242 94 C235 102 233 115 233 150 C233 232 237 325 237 395 C237 460 205 474 169 474 C123 474 70 462 20 437 L20 359 C28 360 38 360 45 360 C56 360 70 358 78 353 C87 347 93 331 93 290 L93 149 C93 114 90 101 85 95 C77 87 66 84 20 79 L20 -1 C65 1 141 1 165 1 C190 1 262 0 305 -1 L305 -1 Z " />
<glyph glyph-name="Iogonek" unicode="&#x12e;" horiz-adv-x="371" d="M349 -1 L349 81 C286 84 278 90 270 99 C264 106 262 119 262 164 L262 520 C262 560 265 571 270 578 C276 587 287 593 349 596 L349 677 C309 676 243 674 185 674 C129 674 49 676 22 677 L22 596 C78 593 95 589 102 579 C108 572 109 557 109 521 L109 160 C109 117 107 104 101 97 C93 88 80 83 22 81 L22 -1 L163 1 C87 -60 48 -122 48 -182 C48 -237 84 -286 162 -286 C206 -286 255 -264 281 -246 L263 -201 C242 -210 215 -216 192 -216 C154 -216 139 -190 139 -159 C139 -114 164 -64 229 1 C268 0 320 0 349 -1 L349 -1 Z " />
<glyph glyph-name="iogonek" unicode="&#x12f;" horiz-adv-x="323" d="M305 -1 L305 79 C267 82 249 85 242 94 C235 102 233 115 233 150 C233 232 237 325 237 395 C237 460 205 474 169 474 C123 474 70 462 20 437 L20 359 C28 360 38 360 45 360 C56 360 70 358 78 353 C87 347 93 331 93 290 L93 149 C93 114 90 101 85 95 C77 87 66 84 20 79 L20 -1 C60 1 120 1 151 1 C77 -58 37 -118 37 -176 C37 -228 73 -275 149 -275 C192 -275 240 -254 265 -237 L248 -193 C227 -202 201 -207 178 -207 C141 -207 126 -182 126 -153 C126 -109 151 -62 214 1 L305 -1 Z M231 639 C231 684 208 719 150 719 C101 719 68 684 68 637 C68 593 98 555 147 555 C201 555 231 593 231 639 L231 639 Z " />
<glyph glyph-name="Idotaccent" unicode="&#x130;" horiz-adv-x="371" d="M349 -1 L349 81 C286 84 278 90 270 99 C264 106 262 119 262 164 L262 520 C262 560 265 571 270 578 C276 587 287 593 349 596 L349 677 C309 676 243 674 185 674 C129 674 49 676 22 677 L22 596 C78 593 95 589 102 579 C108 572 109 557 109 521 L109 160 C109 117 107 104 101 97 C93 88 80 83 22 81 L22 -1 C66 0 163 1 186 1 C211 1 306 0 349 -1 L349 -1 Z M185 742 C224 742 249 772 249 807 C249 841 224 870 187 870 C149 870 124 841 124 807 C124 769 151 742 185 742 L185 742 Z " />
<glyph glyph-name="dotlessi" unicode="&#x131;" horiz-adv-x="323" d="M305 -1 L305 79 C267 82 249 85 242 94 C235 102 233 115 233 150 C233 232 237 325 237 395 C237 460 205 474 169 474 C123 474 70 462 20 437 L20 359 C28 360 38 360 45 360 C56 360 70 358 78 353 C87 347 93 331 93 290 L93 149 C93 114 90 101 85 95 C77 87 66 84 20 79 L20 -1 C65 1 141 1 165 1 C190 1 262 0 305 -1 L305 -1 Z " />
<glyph glyph-name="IJ" unicode="&#x132;" horiz-adv-x="732" d="M349 -1 L349 81 C286 84 278 90 270 99 C264 106 262 119 262 164 L262 520 C262 560 265 571 270 578 C276 587 287 593 349 596 L349 677 C309 676 243 674 185 674 C129 674 49 676 22 677 L22 596 C78 593 95 589 102 579 C108 572 109 557 109 521 L109 160 C109 117 107 104 101 97 C93 88 80 83 22 81 L22 -1 C66 0 163 1 186 1 C211 1 306 0 349 -1 L349 -1 Z M410 -162 C479 -136 553 -87 587 -32 C622 24 631 86 631 170 L631 520 C631 560 634 571 639 578 C646 587 653 593 715 596 L715 677 C675 676 612 674 554 674 C498 674 418 676 390 677 L390 596 C446 593 464 589 471 579 C477 572 478 557 478 521 L478 168 C478 91 471 39 457 4 C444 -28 407 -61 366 -85 L410 -162 Z " />
<glyph glyph-name="ij" unicode="&#x133;" horiz-adv-x="624" d="M231 639 C231 684 208 719 150 719 C101 719 68 684 68 637 C68 593 98 555 147 555 C201 555 231 593 231 639 L231 639 Z M305 -1 L305 79 C267 82 249 85 242 94 C235 102 233 115 233 150 C233 232 237 325 237 395 C237 460 205 474 169 474 C123 474 70 462 20 437 L20 359 C28 360 38 360 45 360 C56 360 70 358 78 353 C87 347 93 331 93 290 L93 149 C93 114 90 101 85 95 C77 87 66 84 20 79 L20 -1 C65 1 141 1 165 1 C190 1 262 0 305 -1 L305 -1 Z M543 639 C543 684 519 719 461 719 C412 719 380 684 380 637 C380 593 409 555 459 555 C513 555 543 593 543 639 L543 639 Z M302 -207 L334 -275 C396 -256 469 -212 506 -159 C540 -109 546 -59 546 27 C546 108 544 325 544 395 C544 459 517 474 480 474 C435 474 382 462 332 437 L332 359 C340 360 349 361 356 361 C368 361 382 359 391 353 C399 347 405 331 405 291 L405 30 C405 -49 400 -101 385 -131 C371 -158 340 -186 302 -207 L302 -207 Z " />
<glyph glyph-name="Jcircumflex" unicode="&#x134;" horiz-adv-x="361" d="M39 -162 C108 -136 182 -87 216 -32 C251 24 260 86 260 170 L260 520 C260 560 263 571 268 578 C275 587 282 593 344 596 L344 677 C304 676 241 674 183 674 C127 674 47 676 19 677 L19 596 C75 593 93 589 100 579 C106 572 107 557 107 521 L107 168 C107 91 100 39 86 4 C73 -28 36 -61 -5 -85 L39 -162 Z M335 764 L231 920 C219 937 204 946 184 946 C166 946 150 935 139 919 L31 763 L72 731 L182 836 L293 731 L335 764 Z " />
<glyph glyph-name="jcircumflex" unicode="&#x135;" horiz-adv-x="301" d="M-20 -207 L12 -275 C74 -256 148 -213 184 -159 C219 -110 224 -59 224 27 C224 108 222 325 222 395 C222 459 195 474 158 474 C113 474 60 462 10 437 L10 359 C18 360 27 361 34 361 C46 361 60 359 69 353 C77 347 83 331 83 291 L83 30 C83 -49 78 -101 63 -131 C49 -158 18 -186 -20 -207 L-20 -207 Z M290 539 L185 695 C173 712 158 721 138 721 C121 721 104 710 93 694 L-15 538 L26 506 L136 611 L246 506 L290 539 Z " />
<glyph glyph-name="Kcommaaccent" unicode="&#x136;" horiz-adv-x="727" d="M350 -1 L350 81 C288 84 278 90 270 99 C264 106 262 119 262 164 L262 520 C262 560 265 572 270 579 C276 587 288 593 349 596 L349 677 C306 676 210 674 185 674 C161 674 65 676 22 677 L22 596 C78 593 95 589 102 580 C108 572 109 558 109 521 L109 160 C109 117 107 104 101 97 C92 88 80 83 22 81 L22 -1 C66 0 163 1 186 1 C211 1 307 0 350 -1 L350 -1 Z M717 1 L717 82 C703 82 683 84 668 89 C650 96 636 105 614 126 C567 170 496 261 429 364 C473 411 549 491 580 525 C615 564 638 581 655 587 C668 592 685 595 699 596 L699 677 C655 675 590 675 566 675 C543 675 449 675 406 677 L406 596 C457 593 463 585 463 570 C463 554 450 533 431 510 C397 471 331 398 272 338 C352 202 424 96 478 44 C510 14 561 -4 620 -4 C639 -4 680 -4 717 1 L717 1 Z M315 -317 C401 -258 445 -198 445 -129 C445 -80 419 -45 369 -45 C326 -45 301 -76 301 -106 C301 -138 317 -152 338 -162 C350 -168 357 -178 357 -189 C357 -214 334 -242 286 -277 L315 -317 Z " />
<glyph glyph-name="kcommaaccent" unicode="&#x137;" horiz-adv-x="603" d="M302 -1 L302 79 C268 82 249 84 242 93 C235 100 231 116 231 150 L231 504 C231 553 232 602 232 654 C232 705 214 731 171 731 C120 731 74 720 18 694 L18 617 C26 619 36 619 43 619 C54 619 67 617 75 610 C86 600 90 576 90 527 L90 148 C90 113 88 101 83 95 C75 87 64 84 19 79 L19 -1 C64 1 139 1 163 1 C188 1 258 0 302 -1 L302 -1 Z M596 1 L596 81 C569 83 539 92 526 101 C511 110 482 137 472 148 C436 188 417 212 382 259 C396 271 435 307 458 328 C497 362 517 374 529 378 C544 385 561 386 574 386 L574 465 C527 463 470 463 445 463 C420 463 362 463 309 465 L309 387 C359 386 366 378 366 366 C366 351 352 333 315 298 C288 273 262 251 239 233 C282 169 336 83 392 35 C425 6 474 -2 526 -2 C546 -2 574 -1 596 1 L596 1 Z M244 -317 C330 -258 374 -198 374 -129 C374 -80 348 -45 298 -45 C255 -45 230 -76 230 -106 C230 -138 246 -152 267 -162 C279 -168 286 -178 286 -189 C286 -214 263 -242 215 -277 L244 -317 Z " />
<glyph glyph-name="kgreenlandic" unicode="&#x138;" horiz-adv-x="603" d="M302 -1 L302 79 C268 82 249 84 242 93 C235 100 231 116 231 150 L231 271 C231 311 232 362 232 396 C232 448 214 474 171 474 C120 474 73 464 18 437 L18 359 C26 361 36 361 43 361 C54 361 67 360 75 352 C86 342 90 325 90 275 L90 148 C90 113 88 101 83 95 C75 87 64 84 19 79 L19 -1 C64 1 139 1 163 1 C188 1 258 0 302 -1 L302 -1 Z M598 1 L598 81 C571 83 542 93 528 101 C513 110 485 137 474 148 C438 188 416 213 381 260 C396 272 433 307 457 328 C495 362 517 374 530 378 C545 385 560 386 573 386 L573 465 C526 463 471 463 445 463 C420 463 361 463 308 465 L308 387 C359 386 365 378 365 366 C365 354 353 335 315 299 C288 272 260 250 239 233 C282 169 338 84 394 35 C427 7 477 -2 527 -2 C548 -2 576 -1 598 1 L598 1 Z " />
<glyph glyph-name="Lacute" unicode="&#x139;" horiz-adv-x="623" d="M595 207 L523 207 C516 183 504 147 492 134 C476 116 447 107 369 107 C346 107 316 107 289 111 C269 114 262 127 262 154 L262 520 C262 560 265 571 270 578 C276 587 289 593 350 596 L350 677 C311 676 243 674 185 674 C129 674 49 676 22 677 L22 596 C79 593 95 589 102 580 C108 572 109 558 109 521 L109 160 C109 122 109 106 101 97 C92 88 69 85 22 81 L22 0 L492 0 C537 0 568 14 576 36 C589 70 594 158 595 207 L595 207 Z M145 716 L298 808 C329 826 345 848 345 867 C345 895 323 919 298 919 C277 919 264 915 231 880 L112 756 L145 716 Z " />
<glyph glyph-name="lacute" unicode="&#x13a;" horiz-adv-x="319" d="M302 -1 L302 79 C267 82 249 85 242 93 C235 100 231 116 231 150 L231 463 C231 521 232 600 232 654 C232 705 214 731 171 731 C123 731 72 719 18 694 L18 617 C26 619 36 619 43 619 C53 619 66 617 75 610 C86 601 90 576 90 493 L90 148 C90 113 88 101 83 95 C75 87 64 84 19 79 L19 -1 C64 1 139 1 163 1 C188 1 258 0 302 -1 L302 -1 Z M83 782 L236 874 C267 892 283 914 283 933 C283 961 261 985 236 985 C215 985 202 981 169 946 L50 822 L83 782 Z " />
<glyph glyph-name="Lcommaaccent" unicode="&#x13b;" horiz-adv-x="623" d="M595 207 L523 207 C516 183 504 147 492 134 C476 116 447 107 369 107 C346 107 316 107 289 111 C269 114 262 127 262 154 L262 520 C262 560 265 571 270 578 C276 587 289 593 350 596 L350 677 C311 676 243 674 185 674 C129 674 49 676 22 677 L22 596 C79 593 95 589 102 580 C108 572 109 558 109 521 L109 160 C109 122 109 106 101 97 C92 88 69 85 22 81 L22 0 L492 0 C537 0 568 14 576 36 C589 70 594 158 595 207 L595 207 Z M243 -317 C329 -258 373 -198 373 -129 C373 -80 347 -45 297 -45 C254 -45 229 -76 229 -106 C229 -138 245 -152 266 -162 C278 -168 285 -178 285 -189 C285 -214 262 -242 214 -277 L243 -317 Z " />
<glyph glyph-name="lcommaaccent" unicode="&#x13c;" horiz-adv-x="319" d="M302 -1 L302 79 C267 82 249 85 242 93 C235 100 231 116 231 150 L231 463 C231 521 232 600 232 654 C232 705 214 731 171 731 C123 731 72 719 18 694 L18 617 C26 619 36 619 43 619 C53 619 66 617 75 610 C86 601 90 576 90 493 L90 148 C90 113 88 101 83 95 C75 87 64 84 19 79 L19 -1 C64 1 139 1 163 1 C188 1 258 0 302 -1 L302 -1 Z M108 -317 C194 -258 238 -198 238 -129 C238 -80 212 -45 162 -45 C119 -45 94 -76 94 -106 C94 -138 110 -152 131 -162 C143 -168 150 -178 150 -189 C150 -214 127 -242 79 -277 L108 -317 Z " />
<glyph glyph-name="Lcaron" unicode="&#x13d;" horiz-adv-x="623" d="M595 207 L523 207 C516 183 504 147 492 134 C476 116 447 107 369 107 C346 107 316 107 289 111 C269 114 262 127 262 154 L262 520 C262 560 265 571 270 578 C276 587 289 593 350 596 L350 677 C311 676 243 674 185 674 C129 674 49 676 22 677 L22 596 C79 593 95 589 102 580 C108 572 109 558 109 521 L109 160 C109 122 109 106 101 97 C92 88 69 85 22 81 L22 0 L492 0 C537 0 568 14 576 36 C589 70 594 158 595 207 L595 207 Z M410 429 C496 488 540 548 540 617 C540 666 514 701 464 701 C421 701 396 670 396 640 C396 608 412 594 433 584 C445 578 452 568 452 557 C452 532 429 504 381 469 L410 429 Z " />
<glyph glyph-name="lcaron" unicode="&#x13e;" horiz-adv-x="319" d="M302 -1 L302 79 C267 82 249 85 242 93 C235 100 231 116 231 150 L231 463 C231 521 232 600 232 654 C232 705 214 731 171 731 C123 731 72 719 18 694 L18 617 C26 619 36 619 43 619 C53 619 66 617 75 610 C86 601 90 576 90 493 L90 148 C90 113 88 101 83 95 C75 87 64 84 19 79 L19 -1 C64 1 139 1 163 1 C188 1 258 0 302 -1 L302 -1 Z M299 463 C385 522 429 582 429 651 C429 700 403 735 353 735 C310 735 285 704 285 673 C285 641 301 628 322 618 C334 612 341 602 341 590 C341 566 318 538 270 502 L299 463 Z " />
<glyph glyph-name="Ldot" unicode="&#x13f;" horiz-adv-x="623" d="M595 207 L523 207 C516 183 504 147 492 134 C476 116 447 107 369 107 C346 107 316 107 289 111 C269 114 262 127 262 154 L262 520 C262 560 265 571 270 578 C276 587 289 593 350 596 L350 677 C311 676 243 674 185 674 C129 674 49 676 22 677 L22 596 C79 593 95 589 102 580 C108 572 109 558 109 521 L109 160 C109 122 109 106 101 97 C92 88 69 85 22 81 L22 0 L492 0 C537 0 568 14 576 36 C589 70 594 158 595 207 L595 207 Z M568 352 C568 398 534 432 486 432 C440 432 407 396 407 349 C407 302 440 267 487 267 C534 267 568 299 568 352 L568 352 Z " />
<glyph glyph-name="ldot" unicode="&#x140;" horiz-adv-x="421" d="M302 -1 L302 79 C267 82 249 85 242 93 C235 100 231 116 231 150 L231 463 C231 521 232 600 232 654 C232 705 214 731 171 731 C123 731 72 719 18 694 L18 617 C26 619 36 619 43 619 C54 619 68 617 75 610 C83 602 87 585 88 554 C90 508 90 453 90 420 L90 148 C90 113 88 101 83 95 C75 87 64 84 19 79 L19 -1 C64 1 139 1 163 1 C188 1 258 0 302 -1 L302 -1 Z M448 364 C448 409 415 441 369 441 C326 441 293 407 293 362 C293 316 326 282 371 282 C416 282 448 313 448 364 L448 364 Z " />
<glyph glyph-name="Lslash" unicode="&#x141;" horiz-adv-x="623" d="M438 442 L402 504 L262 418 L262 520 C262 560 265 571 270 578 C276 587 289 593 350 596 L350 677 C311 676 243 674 185 674 C129 674 49 676 22 677 L22 596 C79 593 95 589 102 580 C108 572 109 558 109 521 L109 325 L1 259 L37 196 L109 240 L109 160 C109 122 109 106 101 97 C92 88 69 85 22 81 L22 0 L492 0 C537 0 568 14 576 36 C589 70 594 158 595 207 L523 207 C516 183 504 147 492 134 C476 116 447 107 369 107 C346 107 316 107 289 111 C269 114 262 127 262 154 L262 334 L438 442 Z " />
<glyph glyph-name="lslash" unicode="&#x142;" horiz-adv-x="319" d="M321 451 L284 501 L231 459 L231 463 C231 521 232 600 232 654 C232 705 214 731 171 731 C123 731 74 720 18 694 L18 617 C26 619 36 619 43 619 C54 619 68 617 75 610 C83 602 87 585 88 554 C90 508 90 453 90 420 L90 347 L2 278 L39 229 L90 269 L90 148 C90 113 88 101 83 95 C75 87 64 84 19 79 L19 -1 C64 1 139 1 163 1 C188 1 258 0 302 -1 L302 79 C267 82 249 85 242 93 C235 100 231 116 231 150 L231 380 L321 451 Z " />
<glyph glyph-name="Nacute" unicode="&#x143;" horiz-adv-x="768" d="M304 -1 L304 81 C244 84 231 87 222 97 C215 106 213 122 212 183 C211 275 209 366 208 503 C255 429 298 364 515 38 C535 8 559 -11 596 -11 C651 -11 670 14 670 62 C670 104 669 205 669 242 C669 361 669 438 670 493 C671 555 673 571 682 579 C694 589 706 593 759 596 L759 677 C706 676 650 675 622 675 C600 675 527 676 474 677 L474 596 C535 594 551 587 558 576 C565 563 566 546 568 493 C570 454 570 339 574 239 C530 310 481 385 281 677 C246 675 185 675 168 675 C152 675 41 676 19 677 L19 596 C41 595 61 594 74 591 C92 588 101 583 106 573 C110 565 112 539 112 492 C112 438 110 284 109 184 C109 135 108 111 103 101 C96 89 82 84 21 81 L21 -1 C72 0 141 1 162 1 C191 1 251 0 304 -1 L304 -1 Z M362 716 L515 808 C546 826 562 848 562 867 C562 895 540 919 515 919 C494 919 481 915 448 880 L329 756 L362 716 Z " />
<glyph glyph-name="nacute" unicode="&#x144;" horiz-adv-x="618" d="M291 -1 L291 79 C260 82 250 85 242 93 C235 101 233 116 233 150 L233 338 C263 351 295 358 320 358 C344 358 363 354 373 343 C385 330 388 307 388 273 L388 151 C388 113 386 101 379 94 C372 87 363 83 329 79 L329 -1 C372 0 447 1 471 1 C493 1 559 0 601 -1 L601 79 C551 85 539 89 533 99 C529 107 528 120 528 149 L528 310 C528 380 518 420 494 444 C473 465 438 476 398 476 C342 476 273 450 232 405 C227 461 199 474 167 474 C122 474 70 462 20 437 L20 359 C28 360 38 360 45 360 C56 360 70 358 78 353 C87 347 93 331 93 290 L93 149 C93 114 90 101 85 95 C77 87 66 84 20 79 L20 -1 C65 1 141 1 165 1 C190 1 247 0 291 -1 L291 -1 Z M282 515 L407 629 C431 654 442 670 442 689 C442 719 415 739 389 739 C368 739 355 730 328 689 L242 548 L282 515 Z " />
<glyph glyph-name="Ncommaaccent" unicode="&#x145;" horiz-adv-x="768" d="M304 -1 L304 81 C244 84 231 87 222 97 C215 106 213 122 212 183 C211 275 209 366 208 503 C255 429 298 364 515 38 C535 8 559 -11 596 -11 C651 -11 670 14 670 62 C670 104 669 205 669 242 C669 361 669 438 670 493 C671 555 673 571 682 579 C694 589 706 593 759 596 L759 677 C706 676 650 675 622 675 C600 675 527 676 474 677 L474 596 C535 594 551 587 558 576 C565 563 566 546 568 493 C570 454 570 339 574 239 C530 310 481 385 281 677 C246 675 185 675 168 675 C152 675 41 676 19 677 L19 596 C41 595 61 594 74 591 C92 588 101 583 106 573 C110 565 112 539 112 492 C112 438 110 284 109 184 C109 135 108 111 103 101 C96 89 82 84 21 81 L21 -1 C72 0 141 1 162 1 C191 1 251 0 304 -1 L304 -1 Z M331 -317 C417 -258 461 -198 461 -129 C461 -80 435 -45 385 -45 C342 -45 317 -76 317 -106 C317 -138 333 -152 354 -162 C366 -168 373 -178 373 -189 C373 -214 350 -242 302 -277 L331 -317 Z " />
<glyph glyph-name="ncommaaccent" unicode="&#x146;" horiz-adv-x="618" d="M291 -1 L291 79 C260 82 250 85 242 93 C235 101 233 116 233 150 L233 338 C263 351 295 358 320 358 C344 358 363 354 373 343 C385 330 388 307 388 273 L388 151 C388 113 386 101 379 94 C372 87 363 83 329 79 L329 -1 C372 0 447 1 471 1 C493 1 559 0 601 -1 L601 79 C551 85 539 89 533 99 C529 107 528 120 528 149 L528 310 C528 380 518 420 494 444 C473 465 438 476 398 476 C342 476 273 450 232 405 C227 461 199 474 167 474 C122 474 70 462 20 437 L20 359 C28 360 38 360 45 360 C56 360 70 358 78 353 C87 347 93 331 93 290 L93 149 C93 114 90 101 85 95 C77 87 66 84 20 79 L20 -1 C65 1 141 1 165 1 C190 1 247 0 291 -1 L291 -1 Z M252 -317 C338 -258 382 -198 382 -129 C382 -80 356 -45 306 -45 C263 -45 238 -76 238 -106 C238 -138 254 -152 275 -162 C287 -168 294 -178 294 -189 C294 -214 271 -242 223 -277 L252 -317 Z " />
<glyph glyph-name="Ncaron" unicode="&#x147;" horiz-adv-x="768" d="M304 -1 L304 81 C244 84 231 87 222 97 C215 106 213 122 212 183 C211 275 209 366 208 503 C255 429 298 364 515 38 C535 8 559 -11 596 -11 C651 -11 670 14 670 62 C670 104 669 205 669 242 C669 361 669 438 670 493 C671 555 673 571 682 579 C694 589 706 593 759 596 L759 677 C706 676 650 675 622 675 C600 675 527 676 474 677 L474 596 C535 594 551 587 558 576 C565 563 566 546 568 493 C570 454 570 339 574 239 C530 310 481 385 281 677 C246 675 185 675 168 675 C152 675 41 676 19 677 L19 596 C41 595 61 594 74 591 C92 588 101 583 106 573 C110 565 112 539 112 492 C112 438 110 284 109 184 C109 135 108 111 103 101 C96 89 82 84 21 81 L21 -1 C72 0 141 1 162 1 C191 1 251 0 304 -1 L304 -1 Z M221 874 L337 741 C350 725 363 715 384 715 C401 715 416 726 429 742 L549 875 L514 910 L386 822 L258 910 L221 874 Z " />
<glyph glyph-name="ncaron" unicode="&#x148;" horiz-adv-x="618" d="M291 -1 L291 79 C260 82 250 85 242 93 C235 101 233 116 233 150 L233 338 C263 351 295 358 320 358 C344 358 363 354 373 343 C385 330 388 307 388 273 L388 151 C388 113 386 101 379 94 C372 87 363 83 329 79 L329 -1 C372 0 447 1 471 1 C493 1 559 0 601 -1 L601 79 C551 85 539 89 533 99 C529 107 528 120 528 149 L528 310 C528 380 518 420 494 444 C473 465 438 476 398 476 C342 476 273 450 232 405 C227 461 199 474 167 474 C122 474 70 462 20 437 L20 359 C28 360 38 360 45 360 C56 360 70 358 78 353 C87 347 93 331 93 290 L93 149 C93 114 90 101 85 95 C77 87 66 84 20 79 L20 -1 C65 1 141 1 165 1 C190 1 247 0 291 -1 L291 -1 Z M145 690 L250 534 C262 517 277 508 297 508 C314 508 331 519 342 535 L449 691 L409 723 L299 618 L189 723 L145 690 Z " />
<glyph glyph-name="napostrophe" unicode="&#x149;" horiz-adv-x="618" d="M291 -1 L291 79 C260 82 250 85 242 93 C235 101 233 116 233 150 L233 338 C263 351 295 358 320 358 C344 358 363 354 373 343 C385 330 388 307 388 273 L388 151 C388 113 386 101 379 94 C372 87 363 83 329 79 L329 -1 C372 0 447 1 471 1 C493 1 559 0 601 -1 L601 79 C551 85 539 89 533 99 C529 107 528 120 528 149 L528 310 C528 380 518 420 494 444 C473 465 438 476 398 476 C342 476 273 450 232 405 C227 461 199 474 167 474 C122 474 70 462 20 437 L20 359 C28 360 38 360 45 360 C56 360 70 358 78 353 C87 347 93 331 93 290 L93 149 C93 114 90 101 85 95 C77 87 66 84 20 79 L20 -1 C65 1 141 1 165 1 C190 1 247 0 291 -1 L291 -1 Z M39 492 C125 551 169 611 169 680 C169 729 143 764 93 764 C50 764 25 733 25 703 C25 671 41 657 62 647 C74 641 81 631 81 620 C81 595 58 567 10 532 L39 492 Z " />
<glyph glyph-name="Eng" unicode="&#x14a;" horiz-adv-x="768" d="M304 -1 L304 81 C244 84 231 87 222 97 C215 106 214 122 212 183 C212 212 210 364 208 501 C296 374 376 252 532 11 L532 -6 C532 -40 527 -74 512 -99 C496 -132 445 -168 402 -189 L446 -268 C517 -243 592 -193 629 -137 C665 -82 670 -22 670 65 C670 104 669 200 669 243 C669 362 669 438 670 493 C671 555 673 571 681 579 C691 589 700 593 761 596 L761 677 C708 676 650 675 621 675 C599 675 528 676 475 677 L475 596 C536 594 551 587 558 576 C565 564 566 546 568 493 C570 454 571 377 573 243 C513 335 442 440 282 677 C247 675 185 675 168 675 C152 675 41 676 19 677 L19 596 C41 595 60 594 74 591 C92 588 101 583 106 573 C110 565 112 539 112 492 C112 438 111 266 109 184 C109 135 108 111 103 101 C96 89 82 84 21 81 L21 -1 C72 0 141 1 162 1 C191 1 250 0 304 -1 L304 -1 Z " />
<glyph glyph-name="eng" unicode="&#x14b;" horiz-adv-x="618" d="M291 -1 L291 79 C260 82 249 84 242 93 C234 100 233 116 233 150 L233 338 C263 351 295 358 320 358 C344 358 363 354 373 343 C385 330 388 307 388 273 L388 33 C388 -40 382 -90 369 -120 C356 -148 323 -177 287 -198 L329 -272 C392 -248 457 -206 491 -152 C525 -99 531 -43 531 38 C531 130 530 219 528 310 C527 380 517 418 494 444 C474 465 438 476 398 476 C342 476 273 450 232 405 C227 461 199 474 167 474 C122 474 70 462 20 437 L20 359 C28 360 38 360 45 360 C56 360 70 358 78 353 C87 347 93 331 93 290 L93 149 C93 114 90 101 85 95 C77 87 66 84 20 79 L20 -1 C65 1 141 1 165 1 C190 1 247 0 291 -1 L291 -1 Z " />
<glyph glyph-name="Omacron" unicode="&#x14c;" horiz-adv-x="750" d="M711 349 C711 558 616 691 383 691 C179 691 39 558 39 335 C39 129 147 -14 374 -14 C562 -14 711 102 711 349 L711 349 Z M547 343 C547 179 486 100 375 100 C269 100 201 166 201 349 C201 495 263 580 377 580 C490 580 547 511 547 343 L547 343 Z M518 749 L518 830 L235 830 L235 749 L518 749 Z " />
<glyph glyph-name="omacron" unicode="&#x14d;" horiz-adv-x="573" d="M537 240 C537 384 459 479 293 479 C141 479 35 384 35 230 C35 87 116 -14 285 -14 C426 -14 537 72 537 240 L537 240 Z M392 231 C392 136 355 94 286 94 C221 94 181 132 181 240 C181 325 218 371 286 371 C357 371 392 331 392 231 L392 231 Z M422 548 L422 630 L154 630 L154 548 L422 548 Z " />
<glyph glyph-name="Obreve" unicode="&#x14e;" horiz-adv-x="750" d="M711 349 C711 558 616 691 383 691 C179 691 39 558 39 335 C39 129 147 -14 374 -14 C562 -14 711 102 711 349 L711 349 Z M547 343 C547 179 486 100 375 100 C269 100 201 166 201 349 C201 495 263 580 377 580 C490 580 547 511 547 343 L547 343 Z M484 889 C473 835 440 809 381 809 C321 809 287 840 280 889 L233 886 C233 771 290 726 380 726 C472 726 530 783 531 887 L484 889 Z " />
<glyph glyph-name="obreve" unicode="&#x14f;" horiz-adv-x="573" d="M537 240 C537 384 459 479 293 479 C141 479 35 384 35 230 C35 87 116 -14 285 -14 C426 -14 537 72 537 240 L537 240 Z M392 231 C392 136 355 94 286 94 C221 94 181 132 181 240 C181 325 218 371 286 371 C357 371 392 331 392 231 L392 231 Z M384 686 C372 631 341 605 288 605 C234 605 202 636 195 686 L147 682 C147 566 200 522 287 522 C377 522 430 579 430 683 L384 686 Z " />
<glyph glyph-name="Ohungarumlaut" unicode="&#x150;" horiz-adv-x="750" d="M711 349 C711 558 616 691 383 691 C179 691 39 558 39 335 C39 129 147 -14 374 -14 C562 -14 711 102 711 349 L711 349 Z M547 343 C547 179 486 100 375 100 C269 100 201 166 201 349 C201 495 263 580 377 580 C490 580 547 511 547 343 L547 343 Z M276 716 L413 819 C442 840 457 861 457 880 C457 910 437 929 411 929 C390 929 375 920 348 887 L241 755 L276 716 Z M451 716 L588 819 C617 840 633 861 633 880 C633 910 612 929 586 929 C565 929 549 920 523 887 L416 755 L451 716 Z " />
<glyph glyph-name="ohungarumlaut" unicode="&#x151;" horiz-adv-x="573" d="M537 240 C537 384 459 479 293 479 C141 479 35 384 35 230 C35 87 116 -14 285 -14 C426 -14 537 72 537 240 L537 240 Z M392 231 C392 136 355 94 286 94 C221 94 181 132 181 240 C181 325 218 371 286 371 C357 371 392 331 392 231 L392 231 Z M206 516 L319 635 C343 660 353 676 353 695 C353 723 329 739 306 739 C285 739 271 731 246 689 L165 547 L206 516 Z M361 516 L474 635 C498 660 508 676 508 695 C508 723 484 739 460 739 C439 739 426 731 401 689 L320 547 L361 516 Z " />
<glyph glyph-name="OE" unicode="&#x152;" horiz-adv-x="1023" d="M996 203 L918 203 C909 178 897 147 884 134 C867 117 835 107 756 107 C733 107 703 107 677 111 C657 114 650 127 650 154 L650 296 L687 296 C724 296 747 295 760 282 C769 272 775 253 779 224 L853 224 C851 266 851 329 851 346 C851 374 851 440 852 465 L776 465 C772 443 765 419 756 409 C745 396 723 394 688 394 L650 394 L650 566 L764 566 C809 566 826 563 837 555 C847 548 856 532 862 489 L948 489 C952 517 960 590 960 625 C960 656 943 676 887 676 L562 676 C520 676 445 684 389 684 C154 684 38 525 38 329 C38 132 137 -6 373 -6 C441 -6 510 0 557 0 L890 0 C948 0 969 14 977 36 C990 71 995 155 996 203 L996 203 Z M496 180 C496 164 495 141 489 131 C478 112 449 101 398 101 C252 101 201 198 201 340 C201 475 261 577 405 577 C450 577 473 573 485 557 C494 546 496 522 496 492 L496 180 Z " />
<glyph glyph-name="oe" unicode="&#x153;" horiz-adv-x="859" d="M837 62 L794 143 C734 112 688 100 640 100 C563 100 526 147 526 197 L526 205 L760 205 C781 205 800 208 810 220 C820 231 824 258 824 279 C824 390 769 479 626 479 C559 479 497 454 461 410 C428 459 367 479 287 479 C137 479 35 384 35 230 C35 87 111 -14 280 -14 C349 -14 408 8 452 55 C485 11 545 -14 616 -14 C706 -14 781 17 837 62 L837 62 Z M388 231 C388 137 353 94 285 94 C220 94 181 134 181 240 C181 325 219 371 287 371 C359 371 388 330 388 231 L388 231 Z M528 293 C533 349 568 373 615 373 C668 373 690 342 690 305 L690 297 L528 293 Z " />
<glyph glyph-name="Racute" unicode="&#x154;" horiz-adv-x="679" d="M671 0 L671 83 C654 84 639 88 626 95 C609 105 591 120 569 143 C531 183 502 222 463 282 C551 313 597 382 597 481 C597 581 543 646 442 665 C406 672 343 676 270 676 L22 676 L22 596 C80 593 93 589 99 582 C106 574 109 566 109 524 L109 155 C109 105 105 99 93 92 C84 87 60 82 22 81 L22 -1 C76 0 139 1 170 1 C193 1 299 0 347 -1 L347 81 C294 82 282 86 272 97 C264 106 262 121 262 162 L262 267 C274 265 293 263 310 262 C357 173 403 99 453 55 C484 27 527 -2 619 -2 C639 -2 665 -1 671 0 L671 0 Z M262 374 L262 563 L293 563 C314 563 366 561 385 555 C420 544 440 513 440 473 C440 399 390 373 320 373 C308 373 278 373 262 374 L262 374 Z M253 716 L406 808 C437 826 453 848 453 867 C453 895 431 919 406 919 C385 919 372 915 339 880 L220 756 L253 716 Z " />
<glyph glyph-name="racute" unicode="&#x155;" horiz-adv-x="434" d="M316 -1 L316 79 C280 81 252 84 244 93 C237 101 233 118 233 152 L233 342 C247 354 269 363 285 363 C306 363 316 353 322 314 L406 314 C412 356 416 392 416 415 C416 463 386 477 350 477 C306 477 258 448 231 411 C225 463 197 474 167 474 C122 474 70 462 20 437 L20 359 C28 360 38 360 45 360 C56 360 70 358 78 353 C87 347 93 331 93 290 L93 149 C93 114 90 101 85 95 C77 87 66 84 20 79 L20 -1 C65 1 141 1 165 1 C190 1 272 0 316 -1 L316 -1 Z M196 515 L321 629 C345 654 356 670 356 689 C356 719 329 739 303 739 C282 739 269 730 242 689 L156 548 L196 515 Z " />
<glyph glyph-name="Rcommaaccent" unicode="&#x156;" horiz-adv-x="679" d="M671 0 L671 83 C654 84 639 88 626 95 C609 105 591 120 569 143 C531 183 502 222 463 282 C551 313 597 382 597 481 C597 581 543 646 442 665 C406 672 343 676 270 676 L22 676 L22 596 C80 593 93 589 99 582 C106 574 109 566 109 524 L109 155 C109 105 105 99 93 92 C84 87 60 82 22 81 L22 -1 C76 0 139 1 170 1 C193 1 299 0 347 -1 L347 81 C294 82 282 86 272 97 C264 106 262 121 262 162 L262 267 C274 265 293 263 310 262 C357 173 403 99 453 55 C484 27 527 -2 619 -2 C639 -2 665 -1 671 0 L671 0 Z M262 374 L262 563 L293 563 C314 563 366 561 385 555 C420 544 440 513 440 473 C440 399 390 373 320 373 C308 373 278 373 262 374 L262 374 Z M286 -317 C372 -258 416 -198 416 -129 C416 -80 390 -45 340 -45 C297 -45 272 -76 272 -106 C272 -138 288 -152 309 -162 C321 -168 328 -178 328 -189 C328 -214 305 -242 257 -277 L286 -317 Z " />
<glyph glyph-name="rcommaaccent" unicode="&#x157;" horiz-adv-x="434" d="M316 -1 L316 79 C280 81 252 84 244 93 C237 101 233 118 233 152 L233 342 C247 354 269 363 285 363 C306 363 316 353 322 314 L406 314 C412 356 416 392 416 415 C416 463 386 477 350 477 C306 477 258 448 231 411 C225 463 197 474 167 474 C122 474 70 462 20 437 L20 359 C28 360 38 360 45 360 C56 360 70 358 78 353 C87 347 93 331 93 290 L93 149 C93 114 90 101 85 95 C77 87 66 84 20 79 L20 -1 C65 1 141 1 165 1 C190 1 272 0 316 -1 L316 -1 Z M117 -317 C203 -258 247 -198 247 -129 C247 -80 221 -45 171 -45 C128 -45 103 -76 103 -106 C103 -138 119 -152 140 -162 C152 -168 159 -178 159 -189 C159 -214 136 -242 88 -277 L117 -317 Z " />
<glyph glyph-name="Rcaron" unicode="&#x158;" horiz-adv-x="679" d="M671 0 L671 83 C654 84 639 88 626 95 C609 105 591 120 569 143 C531 183 502 222 463 282 C551 313 597 382 597 481 C597 581 543 646 442 665 C406 672 343 676 270 676 L22 676 L22 596 C80 593 93 589 99 582 C106 574 109 566 109 524 L109 155 C109 105 105 99 93 92 C84 87 60 82 22 81 L22 -1 C76 0 139 1 170 1 C193 1 299 0 347 -1 L347 81 C294 82 282 86 272 97 C264 106 262 121 262 162 L262 267 C274 265 293 263 310 262 C357 173 403 99 453 55 C484 27 527 -2 619 -2 C639 -2 665 -1 671 0 L671 0 Z M262 374 L262 563 L293 563 C314 563 366 561 385 555 C420 544 440 513 440 473 C440 399 390 373 320 373 C308 373 278 373 262 374 L262 374 Z M140 874 L256 741 C269 725 282 715 303 715 C320 715 335 726 348 742 L468 875 L433 910 L305 822 L177 910 L140 874 Z " />
<glyph glyph-name="rcaron" unicode="&#x159;" horiz-adv-x="434" d="M316 -1 L316 79 C280 81 252 84 244 93 C237 101 233 118 233 152 L233 342 C247 354 269 363 285 363 C306 363 316 353 322 314 L406 314 C412 356 416 392 416 415 C416 463 386 477 350 477 C306 477 258 448 231 411 C225 463 197 474 167 474 C122 474 70 462 20 437 L20 359 C28 360 38 360 45 360 C56 360 70 358 78 353 C87 347 93 331 93 290 L93 149 C93 114 90 101 85 95 C77 87 66 84 20 79 L20 -1 C65 1 141 1 165 1 C190 1 272 0 316 -1 L316 -1 Z M64 690 L169 534 C181 517 196 508 216 508 C233 508 250 519 261 535 L368 691 L328 723 L218 618 L108 723 L64 690 Z " />
<glyph glyph-name="Sacute" unicode="&#x15a;" horiz-adv-x="600" d="M54 229 C51 204 48 169 48 128 C48 74 60 40 122 13 C159 -4 227 -14 287 -14 C447 -14 561 56 561 202 C561 298 509 354 404 392 L277 438 C228 456 214 481 214 513 C214 551 240 583 314 583 C357 583 396 578 413 563 C429 548 439 522 447 466 L525 466 C529 502 533 555 533 581 C533 624 523 645 496 661 C454 684 385 691 330 691 C143 691 60 600 60 482 C60 412 82 338 215 290 L344 243 C384 229 404 209 404 168 C404 126 369 95 296 95 C241 95 193 108 170 131 C155 147 140 171 130 229 L54 229 Z M274 716 L427 808 C458 826 474 848 474 867 C474 895 452 919 427 919 C406 919 393 915 360 880 L241 756 L274 716 Z " />
<glyph glyph-name="sacute" unicode="&#x15b;" horiz-adv-x="475" d="M41 177 C38 159 37 129 37 96 C37 58 48 20 102 2 C130 -8 180 -14 224 -14 C343 -14 438 35 438 136 C438 201 416 239 313 276 L220 310 C193 320 183 328 183 345 C183 363 194 379 239 379 C267 379 296 374 309 365 C322 356 330 346 336 307 L410 307 C414 330 418 378 418 396 C418 428 406 446 384 457 C353 472 301 479 259 479 C116 479 45 412 45 331 C45 270 63 229 170 189 L262 155 C287 146 297 138 297 119 C297 99 279 86 232 86 C193 86 166 93 147 110 C135 120 122 135 116 177 L41 177 Z M224 515 L349 629 C373 654 384 670 384 689 C384 719 357 739 331 739 C310 739 297 730 270 689 L184 548 L224 515 Z " />
<glyph glyph-name="Scircumflex" unicode="&#x15c;" horiz-adv-x="600" d="M54 229 C51 204 48 169 48 128 C48 74 60 40 122 13 C159 -4 227 -14 287 -14 C447 -14 561 56 561 202 C561 298 509 354 404 392 L277 438 C228 456 214 481 214 513 C214 551 240 583 314 583 C357 583 396 578 413 563 C429 548 439 522 447 466 L525 466 C529 502 533 555 533 581 C533 624 523 645 496 661 C454 684 385 691 330 691 C143 691 60 600 60 482 C60 412 82 338 215 290 L344 243 C384 229 404 209 404 168 C404 126 369 95 296 95 C241 95 193 108 170 131 C155 147 140 171 130 229 L54 229 Z M488 751 L371 884 C358 900 344 909 324 909 C306 909 292 899 279 884 L160 750 L194 715 L322 804 L450 715 L488 751 Z " />
<glyph glyph-name="scircumflex" unicode="&#x15d;" horiz-adv-x="475" d="M41 177 C38 159 37 129 37 96 C37 58 48 20 102 2 C130 -8 180 -14 224 -14 C343 -14 438 35 438 136 C438 201 416 239 313 276 L220 310 C193 320 183 328 183 345 C183 363 194 379 239 379 C267 379 296 374 309 365 C322 356 330 346 336 307 L410 307 C414 330 418 378 418 396 C418 428 406 446 384 457 C353 472 301 479 259 479 C116 479 45 412 45 331 C45 270 63 229 170 189 L262 155 C287 146 297 138 297 119 C297 99 279 86 232 86 C193 86 166 93 147 110 C135 120 122 135 116 177 L41 177 Z M397 539 L293 695 C281 712 266 721 246 721 C228 721 212 710 201 694 L93 538 L134 506 L244 611 L355 506 L397 539 Z " />
<glyph glyph-name="Scedilla" unicode="&#x15e;" horiz-adv-x="600" d="M209 -294 C320 -279 401 -235 401 -157 C401 -118 385 -99 332 -69 C323 -65 313 -58 313 -45 C313 -37 315 -26 321 -13 C463 -3 561 66 561 202 C561 298 509 354 404 392 L277 438 C228 456 214 481 214 513 C214 551 240 583 314 583 C357 583 396 578 413 563 C429 548 439 522 447 466 L525 466 C529 502 533 555 533 581 C533 624 523 645 496 661 C454 684 385 691 330 691 C143 691 60 600 60 482 C60 412 82 338 215 290 L344 243 C384 229 404 209 404 168 C404 126 369 95 296 95 C241 95 193 108 170 131 C155 147 140 171 130 229 L54 229 C51 204 48 169 48 128 C48 74 60 40 122 13 C153 -1 205 -11 257 -13 C244 -44 238 -65 238 -80 C238 -94 246 -104 260 -112 C288 -126 302 -144 302 -164 C302 -200 267 -221 197 -235 L209 -294 Z " />
<glyph glyph-name="scedilla" unicode="&#x15f;" horiz-adv-x="475" d="M147 -283 C253 -268 331 -225 331 -151 C331 -114 316 -95 265 -67 C256 -62 247 -56 247 -42 C247 -35 250 -25 255 -12 C359 -4 438 44 438 136 C438 201 416 239 313 276 L220 310 C193 320 183 328 183 345 C183 363 194 379 239 379 C267 379 296 374 309 365 C322 356 330 346 336 307 L410 307 C414 330 418 378 418 396 C418 428 406 446 384 457 C353 472 301 479 259 479 C116 479 45 412 45 331 C45 270 63 229 170 189 L262 155 C287 146 297 138 297 119 C297 99 279 86 232 86 C193 86 166 93 147 110 C135 120 122 135 116 177 L41 177 C38 159 37 129 37 96 C37 58 48 20 102 2 C123 -5 158 -11 193 -13 C181 -43 175 -62 175 -77 C175 -90 182 -100 195 -107 C222 -122 236 -139 236 -157 C236 -192 204 -212 135 -226 L147 -283 Z " />
<glyph glyph-name="Scaron" unicode="&#x160;" horiz-adv-x="600" d="M54 229 C51 204 48 169 48 128 C48 74 60 40 122 13 C159 -4 227 -14 287 -14 C447 -14 561 56 561 202 C561 298 509 354 404 392 L277 438 C228 456 214 481 214 513 C214 551 240 583 314 583 C357 583 396 578 413 563 C429 548 439 522 447 466 L525 466 C529 502 533 555 533 581 C533 624 523 645 496 661 C454 684 385 691 330 691 C143 691 60 600 60 482 C60 412 82 338 215 290 L344 243 C384 229 404 209 404 168 C404 126 369 95 296 95 C241 95 193 108 170 131 C155 147 140 171 130 229 L54 229 Z M156 874 L272 741 C285 725 298 715 319 715 C336 715 351 726 364 742 L484 875 L449 910 L321 822 L193 910 L156 874 Z " />
<glyph glyph-name="scaron" unicode="&#x161;" horiz-adv-x="475" d="M41 177 C38 159 37 129 37 96 C37 58 48 20 102 2 C130 -8 180 -14 224 -14 C343 -14 438 35 438 136 C438 201 416 239 313 276 L220 310 C193 320 183 328 183 345 C183 363 194 379 239 379 C267 379 296 374 309 365 C322 356 330 346 336 307 L410 307 C414 330 418 378 418 396 C418 428 406 446 384 457 C353 472 301 479 259 479 C116 479 45 412 45 331 C45 270 63 229 170 189 L262 155 C287 146 297 138 297 119 C297 99 279 86 232 86 C193 86 166 93 147 110 C135 120 122 135 116 177 L41 177 Z M91 690 L196 534 C208 517 223 508 243 508 C260 508 277 519 288 535 L395 691 L355 723 L245 618 L135 723 L91 690 Z " />
<glyph glyph-name="uni0162" unicode="&#x162;" horiz-adv-x="683" d="M257 -294 C368 -279 449 -235 449 -157 C449 -118 433 -99 380 -69 C371 -65 361 -58 361 -45 C361 -34 366 -19 375 1 C415 0 482 0 516 -1 L516 81 C449 84 437 90 430 99 C424 107 422 122 422 165 L422 569 C504 569 531 567 548 554 C564 542 570 520 577 452 L648 452 C651 495 653 591 653 616 C653 651 636 676 586 676 L98 676 C47 676 32 647 32 608 C32 583 34 495 37 452 L108 452 C114 529 128 548 140 556 C156 567 184 569 269 569 L269 161 C269 119 267 105 261 98 C253 89 241 83 175 81 L175 -1 C206 0 269 0 311 1 C294 -38 286 -62 286 -80 C286 -94 294 -104 308 -112 C336 -126 350 -144 350 -164 C350 -200 315 -221 245 -235 L257 -294 Z " />
<glyph glyph-name="uni0163" unicode="&#x163;" horiz-adv-x="368" d="M109 -283 C215 -268 293 -225 293 -151 C293 -114 278 -95 227 -67 C218 -62 209 -56 209 -42 C209 -35 212 -25 217 -12 C262 -11 323 -1 363 20 L345 105 C321 99 296 98 278 98 C246 98 228 114 224 149 C222 169 222 200 222 234 L222 356 C256 356 298 357 337 359 L337 447 C289 450 249 450 222 450 L222 544 C222 583 202 596 168 596 C132 596 112 578 105 549 C97 519 95 503 84 478 C79 466 69 456 57 450 C39 442 21 436 4 433 L4 356 L82 356 C81 273 79 195 79 126 C79 46 110 8 158 -5 C144 -40 137 -61 137 -77 C137 -90 144 -100 157 -107 C184 -122 198 -139 198 -157 C198 -192 166 -212 97 -226 L109 -283 Z " />
<glyph glyph-name="Tcaron" unicode="&#x164;" horiz-adv-x="683" d="M516 -1 L516 81 C449 84 437 90 430 99 C424 107 422 122 422 165 L422 569 C504 569 531 567 548 554 C564 542 570 520 577 452 L648 452 C651 495 653 591 653 616 C653 651 636 676 586 676 L98 676 C47 676 32 647 32 608 C32 583 34 495 37 452 L108 452 C114 529 128 548 140 556 C156 567 184 569 269 569 L269 161 C269 119 267 105 261 98 C253 89 241 83 175 81 L175 -1 C218 0 324 1 348 1 C373 1 474 0 516 -1 L516 -1 Z M183 874 L299 741 C312 725 325 715 346 715 C363 715 378 726 391 742 L511 875 L476 910 L348 822 L220 910 L183 874 Z " />
<glyph glyph-name="tcaron" unicode="&#x165;" horiz-adv-x="368" d="M363 20 L345 105 C321 99 296 98 278 98 C246 98 228 114 224 149 C222 169 222 200 222 234 L222 356 C256 356 298 357 337 359 L337 447 C289 450 249 450 222 450 L222 544 C222 583 202 596 168 596 C132 596 112 578 105 549 C97 519 95 503 84 478 C79 466 69 456 57 450 C39 442 21 436 4 433 L4 356 L82 356 C81 273 79 195 79 126 C79 21 133 -12 208 -12 C254 -12 321 -3 363 20 L363 20 Z M279 477 C365 536 409 596 409 665 C409 714 383 749 333 749 C290 749 265 718 265 687 C265 655 281 642 302 632 C314 626 321 616 321 604 C321 580 298 552 250 516 L279 477 Z " />
<glyph glyph-name="Tbar" unicode="&#x166;" horiz-adv-x="683" d="M562 323 L562 397 L422 397 L422 569 C504 569 531 567 548 554 C564 542 570 520 577 452 L648 452 C651 495 653 591 653 616 C653 651 636 676 586 676 L98 676 C47 676 32 647 32 608 C32 583 34 495 37 452 L108 452 C114 529 128 547 140 556 C157 566 184 569 269 569 L269 397 L128 397 L128 323 L269 323 L269 161 C269 119 267 105 261 98 C253 89 241 83 175 81 L175 -1 C218 0 324 1 348 1 C373 1 474 0 516 -1 L516 81 C449 84 437 90 430 99 C424 107 422 122 422 165 L422 323 L562 323 Z " />
<glyph glyph-name="tbar" unicode="&#x167;" horiz-adv-x="368" d="M327 230 L327 292 L222 292 L222 356 C256 356 298 357 337 359 L337 447 C289 450 249 450 222 450 L222 544 C222 583 202 596 168 596 C130 596 112 582 105 553 C97 523 94 503 84 478 C78 466 69 456 57 450 C39 442 21 436 4 433 L4 356 L82 356 C81 334 81 313 81 292 L13 292 L13 230 L80 230 C79 193 79 159 79 126 C79 21 133 -12 208 -12 C254 -12 321 -3 363 20 L345 106 C321 100 296 98 278 98 C246 98 228 114 224 149 C222 168 222 197 222 230 L327 230 Z " />
<glyph glyph-name="Utilde" unicode="&#x168;" horiz-adv-x="785" d="M770 596 L770 677 C735 677 671 676 648 676 C624 676 524 676 487 677 L487 596 C532 593 555 591 567 581 C577 573 578 556 580 518 C584 445 584 345 584 317 C584 252 581 192 555 151 C531 114 478 98 415 98 C347 98 295 118 277 167 C264 202 260 258 260 313 C260 405 260 483 261 528 C262 557 264 571 270 578 C277 588 293 594 357 596 L357 677 C318 676 192 675 166 675 C137 675 57 676 17 677 L17 596 C76 593 93 587 100 575 C104 568 107 554 107 520 C107 487 105 397 105 308 C105 173 118 122 146 80 C185 19 275 -16 391 -16 C490 -16 577 12 622 65 C664 113 681 171 681 296 L681 510 C681 541 682 562 688 573 C693 583 708 591 770 596 L770 596 Z M291 733 C310 770 322 783 344 783 C352 783 366 781 386 772 L423 756 C449 746 470 738 492 738 C536 738 566 791 581 866 L534 880 C518 845 506 828 488 828 C474 828 457 835 440 841 L401 857 C385 864 363 873 342 873 C291 873 261 806 246 747 L291 733 Z " />
<glyph glyph-name="utilde" unicode="&#x169;" horiz-adv-x="600" d="M380 54 C388 5 427 -11 461 -11 C499 -11 546 -5 586 11 L586 93 C573 91 562 90 554 90 C519 90 513 105 513 157 C513 202 517 350 517 393 C517 459 487 474 451 474 C406 474 349 462 301 437 L301 359 C310 360 319 360 326 360 C337 360 351 358 359 353 C369 347 374 331 374 290 L374 128 C350 113 320 104 286 104 C247 104 215 115 215 184 C215 250 218 350 218 394 C218 459 189 474 152 474 C106 474 54 462 5 437 L5 359 C11 359 25 360 31 360 C44 360 52 359 62 353 C71 348 75 331 75 290 L75 165 C75 111 82 78 98 49 C119 8 165 -12 224 -12 C289 -12 345 15 380 54 L380 54 Z M177 524 C195 560 206 573 228 573 C236 573 252 570 271 562 L299 550 C327 537 346 532 367 532 C411 532 442 584 456 659 L410 673 C393 638 381 621 363 621 C350 621 333 626 316 635 L288 648 C272 655 249 664 227 664 C177 664 147 597 132 538 L177 524 Z " />
<glyph glyph-name="Umacron" unicode="&#x16a;" horiz-adv-x="785" d="M770 596 L770 677 C735 677 671 676 648 676 C624 676 524 676 487 677 L487 596 C532 593 555 591 567 581 C577 573 578 556 580 518 C584 445 584 345 584 317 C584 252 581 192 555 151 C531 114 478 98 415 98 C347 98 295 118 277 167 C264 202 260 258 260 313 C260 405 260 483 261 528 C262 557 264 571 270 578 C277 588 293 594 357 596 L357 677 C318 676 192 675 166 675 C137 675 57 676 17 677 L17 596 C76 593 93 587 100 575 C104 568 107 554 107 520 C107 487 105 397 105 308 C105 173 118 122 146 80 C185 19 275 -16 391 -16 C490 -16 577 12 622 65 C664 113 681 171 681 296 L681 510 C681 541 682 562 688 573 C693 583 708 591 770 596 L770 596 Z M539 749 L539 830 L256 830 L256 749 L539 749 Z " />
<glyph glyph-name="umacron" unicode="&#x16b;" horiz-adv-x="600" d="M380 54 C388 5 427 -11 461 -11 C499 -11 546 -5 586 11 L586 93 C573 91 562 90 554 90 C519 90 513 105 513 157 C513 202 517 350 517 393 C517 459 487 474 451 474 C406 474 349 462 301 437 L301 359 C310 360 319 360 326 360 C337 360 351 358 359 353 C369 347 374 331 374 290 L374 128 C350 113 320 104 286 104 C247 104 215 115 215 184 C215 250 218 350 218 394 C218 459 189 474 152 474 C106 474 54 462 5 437 L5 359 C11 359 25 360 31 360 C44 360 52 359 62 353 C71 348 75 331 75 290 L75 165 C75 111 82 78 98 49 C119 8 165 -12 224 -12 C289 -12 345 15 380 54 L380 54 Z M424 548 L424 630 L156 630 L156 548 L424 548 Z " />
<glyph glyph-name="Ubreve" unicode="&#x16c;" horiz-adv-x="785" d="M770 596 L770 677 C735 677 671 676 648 676 C624 676 524 676 487 677 L487 596 C532 593 555 591 567 581 C577 573 578 556 580 518 C584 445 584 345 584 317 C584 252 581 192 555 151 C531 114 478 98 415 98 C347 98 295 118 277 167 C264 202 260 258 260 313 C260 405 260 483 261 528 C262 557 264 571 270 578 C277 588 293 594 357 596 L357 677 C318 676 192 675 166 675 C137 675 57 676 17 677 L17 596 C76 593 93 587 100 575 C104 568 107 554 107 520 C107 487 105 397 105 308 C105 173 118 122 146 80 C185 19 275 -16 391 -16 C490 -16 577 12 622 65 C664 113 681 171 681 296 L681 510 C681 541 682 562 688 573 C693 583 708 591 770 596 L770 596 Z M497 889 C486 835 453 809 394 809 C334 809 300 840 293 889 L246 886 C246 771 303 726 393 726 C485 726 543 783 544 887 L497 889 Z " />
<glyph glyph-name="ubreve" unicode="&#x16d;" horiz-adv-x="600" d="M380 54 C388 5 427 -11 461 -11 C499 -11 546 -5 586 11 L586 93 C573 91 562 90 554 90 C519 90 513 105 513 157 C513 202 517 350 517 393 C517 459 487 474 451 474 C406 474 349 462 301 437 L301 359 C310 360 319 360 326 360 C337 360 351 358 359 353 C369 347 374 331 374 290 L374 128 C350 113 320 104 286 104 C247 104 215 115 215 184 C215 250 218 350 218 394 C218 459 189 474 152 474 C106 474 54 462 5 437 L5 359 C11 359 25 360 31 360 C44 360 52 359 62 353 C71 348 75 331 75 290 L75 165 C75 111 82 78 98 49 C119 8 165 -12 224 -12 C289 -12 345 15 380 54 L380 54 Z M386 686 C374 631 343 605 290 605 C236 605 204 636 197 686 L149 682 C149 566 202 522 289 522 C379 522 432 579 432 683 L386 686 Z " />
<glyph glyph-name="Uring" unicode="&#x16e;" horiz-adv-x="785" d="M770 596 L770 677 C735 677 671 676 648 676 C624 676 524 676 487 677 L487 596 C532 593 555 591 567 581 C577 573 578 556 580 518 C584 445 584 345 584 317 C584 252 581 192 555 151 C531 114 478 98 415 98 C347 98 295 118 277 167 C264 202 260 258 260 313 C260 405 260 483 261 528 C262 557 264 571 270 578 C277 588 293 594 357 596 L357 677 C318 676 192 675 166 675 C137 675 57 676 17 677 L17 596 C76 593 93 587 100 575 C104 568 107 554 107 520 C107 487 105 397 105 308 C105 173 118 122 146 80 C185 19 275 -16 391 -16 C490 -16 577 12 622 65 C664 113 681 171 681 296 L681 510 C681 541 682 562 688 573 C693 583 708 591 770 596 L770 596 Z M502 805 C502 860 463 898 407 898 C354 898 310 857 310 803 C310 746 353 708 406 708 C459 708 502 749 502 805 L502 805 Z M452 805 C452 771 432 752 406 752 C378 752 358 773 358 805 C358 837 381 855 406 855 C430 855 452 838 452 805 L452 805 Z " />
<glyph glyph-name="uring" unicode="&#x16f;" horiz-adv-x="600" d="M380 54 C388 5 427 -11 461 -11 C499 -11 546 -5 586 11 L586 93 C573 91 562 90 554 90 C519 90 513 105 513 157 C513 202 517 350 517 393 C517 459 487 474 451 474 C406 474 349 462 301 437 L301 359 C310 360 319 360 326 360 C337 360 351 358 359 353 C369 347 374 331 374 290 L374 128 C350 113 320 104 286 104 C247 104 215 115 215 184 C215 250 218 350 218 394 C218 459 189 474 152 474 C106 474 54 462 5 437 L5 359 C11 359 25 360 31 360 C44 360 52 359 62 353 C71 348 75 331 75 290 L75 165 C75 111 82 78 98 49 C119 8 165 -12 224 -12 C289 -12 345 15 380 54 L380 54 Z M383 615 C383 671 344 709 288 709 C235 709 191 669 191 613 C191 557 234 519 287 519 C340 519 383 560 383 615 L383 615 Z M333 615 C333 583 313 564 287 564 C259 564 239 585 239 615 C239 648 262 666 287 666 C311 666 333 649 333 615 L333 615 Z " />
<glyph glyph-name="Uhungarumlaut" unicode="&#x170;" horiz-adv-x="785" d="M770 596 L770 677 C735 677 671 676 648 676 C624 676 524 676 487 677 L487 596 C532 593 555 591 567 581 C577 573 578 556 580 518 C584 445 584 345 584 317 C584 252 581 192 555 151 C531 114 478 98 415 98 C347 98 295 118 277 167 C264 202 260 258 260 313 C260 405 260 483 261 528 C262 557 264 571 270 578 C277 588 293 594 357 596 L357 677 C318 676 192 675 166 675 C137 675 57 676 17 677 L17 596 C76 593 93 587 100 575 C104 568 107 554 107 520 C107 487 105 397 105 308 C105 173 118 122 146 80 C185 19 275 -16 391 -16 C490 -16 577 12 622 65 C664 113 681 171 681 296 L681 510 C681 541 682 562 688 573 C693 583 708 591 770 596 L770 596 Z M275 716 L412 819 C441 840 456 861 456 880 C456 910 436 929 410 929 C389 929 374 920 347 887 L240 755 L275 716 Z M450 716 L587 819 C616 840 632 861 632 880 C632 910 611 929 585 929 C564 929 548 920 522 887 L415 755 L450 716 Z " />
<glyph glyph-name="uhungarumlaut" unicode="&#x171;" horiz-adv-x="600" d="M380 54 C388 5 427 -11 461 -11 C499 -11 546 -5 586 11 L586 93 C573 91 562 90 554 90 C519 90 513 105 513 157 C513 202 517 350 517 393 C517 459 487 474 451 474 C406 474 349 462 301 437 L301 359 C310 360 319 360 326 360 C337 360 351 358 359 353 C369 347 374 331 374 290 L374 128 C350 113 320 104 286 104 C247 104 215 115 215 184 C215 250 218 350 218 394 C218 459 189 474 152 474 C106 474 54 462 5 437 L5 359 C11 359 25 360 31 360 C44 360 52 359 62 353 C71 348 75 331 75 290 L75 165 C75 111 82 78 98 49 C119 8 165 -12 224 -12 C289 -12 345 15 380 54 L380 54 Z M197 516 L310 635 C334 660 344 676 344 695 C344 723 320 739 297 739 C276 739 262 731 237 689 L156 547 L197 516 Z M352 516 L465 635 C489 660 499 676 499 695 C499 723 475 739 451 739 C430 739 417 731 392 689 L311 547 L352 516 Z " />
<glyph glyph-name="Uogonek" unicode="&#x172;" horiz-adv-x="785" d="M770 596 L770 677 C735 677 671 676 648 676 C624 676 524 676 487 677 L487 596 C532 593 555 591 567 581 C577 573 578 556 580 518 C584 445 584 345 584 317 C584 252 581 192 555 151 C531 114 478 98 415 98 C347 98 295 118 277 167 C264 202 260 258 260 313 C260 405 260 483 261 528 C262 557 264 571 270 578 C277 588 293 594 357 596 L357 677 C318 676 192 675 166 675 C137 675 57 676 17 677 L17 596 C76 593 93 587 100 575 C104 568 107 554 107 520 C107 487 105 397 105 308 C105 173 118 122 146 80 C183 21 267 -13 376 -16 C314 -72 281 -128 281 -182 C281 -237 317 -286 395 -286 C439 -286 488 -264 514 -246 L496 -201 C475 -210 448 -216 425 -216 C387 -216 372 -190 372 -159 C372 -117 393 -71 448 -12 C523 -3 586 22 622 65 C664 113 681 171 681 296 L681 510 C681 541 682 562 688 573 C693 583 708 591 770 596 L770 596 Z " />
<glyph glyph-name="uogonek" unicode="&#x173;" horiz-adv-x="600" d="M380 54 C386 15 412 -3 439 -9 C372 -64 337 -121 337 -176 C337 -228 373 -275 449 -275 C492 -275 540 -254 565 -237 L548 -193 C527 -202 501 -207 478 -207 C441 -207 426 -182 426 -153 C426 -112 448 -67 504 -8 C531 -5 560 0 586 11 L586 93 C573 91 562 90 554 90 C519 90 513 105 513 157 C513 202 517 350 517 393 C517 459 487 474 451 474 C406 474 349 462 301 437 L301 359 C310 360 319 360 326 360 C337 360 351 358 359 353 C369 347 374 331 374 290 L374 128 C350 113 320 104 286 104 C247 104 215 115 215 184 C215 250 218 350 218 394 C218 459 189 474 152 474 C106 474 54 462 5 437 L5 359 C11 359 25 360 31 360 C44 360 52 359 62 353 C71 348 75 331 75 290 L75 165 C75 111 82 78 98 49 C119 8 165 -12 224 -12 C289 -12 345 15 380 54 L380 54 Z " />
<glyph glyph-name="Wcircumflex" unicode="&#x174;" horiz-adv-x="1072" d="M1055 596 L1055 677 C1018 676 944 675 922 675 C892 675 803 676 754 677 L754 596 C841 593 848 580 848 553 C848 544 846 529 839 497 C807 362 787 271 771 187 C749 274 729 342 648 610 C634 655 619 679 564 679 C506 679 484 644 474 608 C402 362 378 277 355 188 C337 274 322 340 283 500 C278 522 276 542 276 552 C276 576 287 595 370 596 L370 677 C350 676 231 675 200 675 C173 675 89 676 26 677 L26 596 C55 595 71 591 83 585 C99 577 109 556 116 528 L238 52 C250 4 277 -13 327 -13 C376 -13 405 8 420 59 C491 297 519 401 536 474 C556 402 583 294 655 52 C669 4 693 -13 745 -13 C796 -13 824 7 838 59 L958 504 C969 543 977 568 992 580 C1001 587 1019 594 1055 596 L1055 596 Z M728 751 L611 884 C598 900 584 909 564 909 C546 909 532 899 519 884 L400 750 L434 715 L562 804 L690 715 L728 751 Z " />
<glyph glyph-name="wcircumflex" unicode="&#x175;" horiz-adv-x="823" d="M812 383 L812 465 C774 463 734 463 715 463 C692 463 625 463 583 465 L583 383 C606 381 622 380 635 377 C643 375 652 369 652 355 C652 347 649 331 645 317 C631 266 614 201 601 150 C575 229 544 323 509 418 C498 447 487 467 446 467 C401 467 387 444 377 417 C344 324 308 217 284 143 C271 194 252 257 236 317 C233 328 230 344 230 354 C230 368 239 376 255 378 C269 380 281 382 298 383 L298 465 C248 463 173 463 148 463 C127 463 58 463 13 465 L13 383 C40 381 53 379 62 369 C72 359 78 339 82 328 L182 23 C192 -6 216 -18 255 -18 C287 -18 313 -4 324 22 C366 127 395 213 419 286 C441 216 470 130 506 24 C516 -5 540 -18 577 -18 C612 -18 637 -4 646 24 L742 324 C752 354 758 369 771 374 C781 379 792 381 812 383 L812 383 Z M591 539 L487 695 C475 712 460 721 440 721 C422 721 406 710 395 694 L287 538 L328 506 L438 611 L549 506 L591 539 Z " />
<glyph glyph-name="Ycircumflex" unicode="&#x176;" horiz-adv-x="673" d="M505 -1 L505 81 C433 84 419 93 414 105 C412 111 410 130 410 150 L410 266 L558 493 C590 543 609 572 620 581 C631 590 646 595 668 596 L668 677 C626 675 592 675 571 675 C539 675 456 675 409 677 L409 596 C466 595 475 584 475 570 C475 558 468 542 459 527 C430 474 397 418 366 363 C336 417 305 470 275 521 C267 534 258 552 258 567 C258 582 267 593 324 596 L324 677 C273 676 182 675 154 675 C128 675 63 676 6 677 L6 596 C32 594 40 591 54 582 C69 571 80 555 102 518 L256 265 L256 150 C256 124 255 108 250 100 C244 90 236 86 166 81 L166 -1 C216 0 312 1 337 1 C360 1 451 0 505 -1 L505 -1 Z M520 751 L403 884 C390 900 376 909 356 909 C338 909 324 899 311 884 L192 750 L226 715 L354 804 L482 715 L520 751 Z " />
<glyph glyph-name="ycircumflex" unicode="&#x177;" horiz-adv-x="573" d="M48 -120 C45 -138 42 -160 42 -188 C42 -229 62 -250 90 -262 C108 -270 134 -274 160 -274 C200 -274 248 -258 279 -213 C308 -171 335 -105 380 14 L490 308 C503 344 510 362 523 371 C533 378 551 381 567 383 L567 465 C536 464 471 463 452 463 C430 463 367 464 335 465 L335 383 C352 381 369 381 384 378 C391 377 402 370 402 358 C402 345 397 326 386 294 C365 230 346 176 327 120 C303 179 274 240 249 297 C236 326 232 342 232 353 C232 366 236 376 254 378 C265 380 281 381 293 383 L293 465 C256 464 198 463 174 463 C149 463 39 464 6 465 L6 383 C22 381 42 377 51 371 C64 362 76 341 88 315 L211 45 C225 14 240 -3 270 -3 C242 -79 222 -123 209 -143 C197 -162 183 -172 167 -172 C158 -172 148 -170 143 -166 C134 -158 130 -146 128 -120 L48 -120 Z M449 539 L345 695 C333 712 318 721 298 721 C280 721 264 710 253 694 L145 538 L186 506 L296 611 L407 506 L449 539 Z " />
<glyph glyph-name="Ydieresis" unicode="&#x178;" horiz-adv-x="673" d="M505 -1 L505 81 C433 84 419 93 414 105 C412 111 410 130 410 150 L410 266 L558 493 C590 543 609 572 620 581 C631 590 646 595 668 596 L668 677 C626 675 592 675 571 675 C539 675 456 675 409 677 L409 596 C466 595 475 584 475 570 C475 558 468 542 459 527 C430 474 397 418 366 363 C336 417 305 470 275 521 C267 534 258 552 258 567 C258 582 267 593 324 596 L324 677 C273 676 182 675 154 675 C128 675 63 676 6 677 L6 596 C32 594 40 591 54 582 C69 571 80 555 102 518 L256 265 L256 150 C256 124 255 108 250 100 C244 90 236 86 166 81 L166 -1 C216 0 312 1 337 1 C360 1 451 0 505 -1 L505 -1 Z M248 742 C287 742 312 772 312 807 C312 841 287 870 250 870 C211 870 187 841 187 807 C187 769 213 742 248 742 L248 742 Z M433 742 C471 742 496 772 496 807 C496 841 471 870 435 870 C396 870 372 841 372 807 C372 769 398 742 433 742 L433 742 Z " />
<glyph glyph-name="Zacute" unicode="&#x179;" horiz-adv-x="672" d="M635 225 L545 225 C530 164 518 143 507 131 C490 113 470 104 355 104 C320 104 278 104 251 107 L602 629 L602 676 L106 676 C61 676 43 653 43 616 C43 584 45 519 51 463 L133 463 C143 525 156 549 174 559 C196 572 213 573 381 573 L27 46 L27 0 L540 0 C597 0 619 21 623 46 C630 84 634 169 635 225 L635 225 Z M307 716 L460 808 C491 826 507 848 507 867 C507 895 485 919 460 919 C439 919 426 915 393 880 L274 756 L307 716 Z " />
<glyph glyph-name="zacute" unicode="&#x17a;" horiz-adv-x="512" d="M18 0 L418 0 C464 0 481 20 484 45 C489 91 492 163 492 184 L419 184 C414 161 406 141 399 127 C393 113 380 96 369 92 C354 86 328 81 286 81 C266 81 243 81 212 82 L468 409 L468 464 L92 464 C46 464 28 437 28 399 C28 365 32 319 35 293 L114 293 C119 323 122 341 130 356 C137 370 150 376 168 378 C193 380 218 380 274 380 L18 50 L18 0 Z M248 515 L373 629 C397 654 408 670 408 689 C408 719 381 739 355 739 C334 739 321 730 294 689 L208 548 L248 515 Z " />
<glyph glyph-name="Zdotaccent" unicode="&#x17b;" horiz-adv-x="672" d="M635 225 L545 225 C530 164 518 143 507 131 C490 113 470 104 355 104 C320 104 278 104 251 107 L602 629 L602 676 L106 676 C61 676 43 653 43 616 C43 584 45 519 51 463 L133 463 C143 525 156 549 174 559 C196 572 213 573 381 573 L27 46 L27 0 L540 0 C597 0 619 21 623 46 C630 84 634 169 635 225 L635 225 Z M335 742 C374 742 399 772 399 807 C399 841 374 870 337 870 C299 870 274 841 274 807 C274 769 301 742 335 742 L335 742 Z " />
<glyph glyph-name="zdotaccent" unicode="&#x17c;" horiz-adv-x="512" d="M18 0 L418 0 C464 0 481 20 484 45 C489 91 492 163 492 184 L419 184 C414 161 406 141 399 127 C393 113 380 96 369 92 C354 86 328 81 286 81 C266 81 243 81 212 82 L468 409 L468 464 L92 464 C46 464 28 437 28 399 C28 365 32 319 35 293 L114 293 C119 323 122 341 130 356 C137 370 150 376 168 378 C193 380 218 380 274 380 L18 50 L18 0 Z M257 552 C296 552 321 582 321 617 C321 651 296 680 259 680 C221 680 196 651 196 617 C196 579 223 552 257 552 L257 552 Z " />
<glyph glyph-name="Zcaron" unicode="&#x17d;" horiz-adv-x="672" d="M635 225 L545 225 C530 164 518 143 507 131 C490 113 470 104 355 104 C320 104 278 104 251 107 L602 629 L602 676 L106 676 C61 676 43 653 43 616 C43 584 45 519 51 463 L133 463 C143 525 156 549 174 559 C196 572 213 573 381 573 L27 46 L27 0 L540 0 C597 0 619 21 623 46 C630 84 634 169 635 225 L635 225 Z M167 874 L283 741 C296 725 309 715 330 715 C347 715 362 726 375 742 L495 875 L460 910 L332 822 L204 910 L167 874 Z " />
<glyph glyph-name="zcaron" unicode="&#x17e;" horiz-adv-x="512" d="M18 0 L418 0 C464 0 481 20 484 45 C489 91 492 163 492 184 L419 184 C414 161 406 141 399 127 C393 113 380 96 369 92 C354 86 328 81 286 81 C266 81 243 81 212 82 L468 409 L468 464 L92 464 C46 464 28 437 28 399 C28 365 32 319 35 293 L114 293 C119 323 122 341 130 356 C137 370 150 376 168 378 C193 380 218 380 274 380 L18 50 L18 0 Z M105 690 L210 534 C222 517 237 508 257 508 C274 508 291 519 302 535 L409 691 L369 723 L259 618 L149 723 L105 690 Z " />
<glyph glyph-name="longs" unicode="&#x17f;" horiz-adv-x="335" d="M324 0 L324 79 C266 82 251 87 244 95 C236 106 233 120 233 165 L233 503 C233 551 239 579 252 598 C265 616 283 624 306 624 C318 624 331 621 339 616 C349 609 354 588 357 556 L439 556 C442 581 446 630 446 655 C446 689 433 707 404 717 C375 728 347 731 313 731 C264 731 210 716 173 687 C126 651 97 602 90 515 C88 480 81 465 65 452 C48 441 28 436 13 433 L13 356 L93 356 L93 147 C93 127 92 104 86 96 C78 87 65 83 20 79 L20 0 C67 1 152 2 174 2 C199 2 279 1 324 0 L324 0 Z " />
<glyph glyph-name="florin" unicode="&#x192;" horiz-adv-x="570" d="M-32 -15 C-38 -42 -42 -79 -42 -103 C-42 -137 -25 -161 2 -170 C32 -181 64 -186 96 -186 C173 -186 236 -154 272 -85 C289 -53 306 19 313 103 L330 316 L467 316 L467 398 L336 398 L338 415 C343 476 351 511 367 533 C381 554 401 560 419 560 C429 560 446 558 457 551 C467 545 471 523 473 493 L555 493 C558 518 560 564 560 588 C560 625 546 644 516 654 C484 665 448 670 413 670 C328 670 258 632 221 557 C205 524 194 483 187 398 L82 398 L82 316 L181 316 L166 132 C157 22 150 -26 135 -49 C124 -68 108 -78 87 -78 C80 -78 65 -76 58 -71 C49 -64 42 -46 41 -15 L-32 -15 Z " />
<glyph glyph-name="Aringacute" unicode="&#x1fa;" horiz-adv-x="759" d="M472 742 C472 792 436 826 385 826 C337 826 296 790 296 740 C296 712 307 689 325 674 C309 661 296 641 286 615 L123 190 C99 126 92 112 79 100 C67 88 47 82 10 81 L10 -1 C52 0 111 1 132 1 C155 1 269 0 315 -1 L315 81 C281 82 254 86 241 91 C225 98 224 108 224 117 C224 134 231 157 239 178 L253 213 L462 213 L477 172 C485 148 490 127 490 117 C490 106 487 96 469 90 C456 85 433 82 406 81 L406 -1 C457 0 587 1 612 1 C638 1 704 0 749 -1 L749 81 C717 82 700 88 692 93 C674 107 664 122 649 164 L481 622 C472 646 460 665 444 677 C461 692 472 715 472 742 L472 742 Z M282 321 C310 398 343 488 356 527 C365 490 401 396 426 321 L282 321 Z M340 838 L461 907 C487 922 500 938 500 956 C500 980 480 999 460 999 C444 999 432 993 406 966 L314 872 L340 838 Z M425 742 C425 713 407 696 383 696 C359 696 341 715 341 742 C341 770 361 786 383 786 C406 786 425 770 425 742 L425 742 Z " />
<glyph glyph-name="aringacute" unicode="&#x1fb;" horiz-adv-x="535" d="M521 9 L521 93 C507 91 497 90 485 90 C461 90 448 102 448 148 C448 159 449 286 449 319 C449 371 439 409 418 431 C397 456 358 479 249 479 C204 479 148 468 116 454 C85 442 67 420 67 384 C67 357 72 322 76 301 L158 301 C160 336 167 353 178 363 C192 372 213 377 238 377 C269 377 292 369 302 353 C309 342 311 327 311 300 L311 271 C300 273 278 273 269 273 C91 273 30 220 30 131 C30 31 111 -11 187 -11 C242 -11 292 12 327 47 C340 -3 380 -9 415 -9 C444 -9 491 -2 521 9 L521 9 Z M311 107 C293 96 263 86 231 86 C203 86 172 100 172 139 C172 170 195 190 270 190 C281 190 302 189 311 188 L311 107 Z M357 615 C357 671 318 709 262 709 C209 709 165 669 165 613 C165 557 208 519 261 519 C314 519 357 560 357 615 L357 615 Z M307 615 C307 583 287 564 261 564 C233 564 213 585 213 615 C213 648 236 666 261 666 C285 666 307 649 307 615 L307 615 Z M243 732 L366 844 C391 869 401 885 401 904 C401 933 374 953 348 953 C327 953 313 945 287 903 L203 765 L243 732 Z " />
<glyph glyph-name="AEacute" unicode="&#x1fc;" horiz-adv-x="1057" d="M336 -1 L336 81 C301 82 285 84 273 88 C262 91 256 101 256 110 C256 127 262 142 276 164 L310 216 L530 216 L530 163 C530 139 530 125 528 114 C526 103 519 94 509 90 C495 85 472 83 444 81 L444 0 L919 0 C972 0 1002 12 1011 36 C1024 70 1028 154 1029 203 L951 203 C942 179 932 147 917 134 C900 118 868 107 789 107 C766 107 737 107 710 111 C690 114 683 127 683 154 L683 296 L721 296 C758 296 781 295 794 282 C803 272 808 253 813 224 L886 224 C885 266 885 329 885 346 C885 374 885 440 886 465 L810 465 C805 443 798 419 790 409 C778 396 756 394 722 394 L683 394 L683 566 L797 566 C843 566 860 563 871 555 C881 548 890 532 896 489 L981 489 C985 515 993 590 993 625 C993 656 970 676 920 676 L287 676 L287 596 C309 595 341 595 363 591 C379 587 386 581 386 568 C386 556 381 537 370 520 L149 169 C128 136 113 115 93 100 C78 89 47 82 10 81 L10 -1 C57 0 143 1 166 1 C189 1 286 0 336 -1 L336 -1 Z M371 322 C438 433 473 490 501 543 C509 559 515 564 522 564 C526 564 530 562 530 547 L530 322 L371 322 Z M608 716 L761 808 C792 826 808 848 808 867 C808 895 786 919 761 919 C740 919 727 915 694 880 L575 756 L608 716 Z " />
<glyph glyph-name="aeacute" unicode="&#x1fd;" horiz-adv-x="779" d="M756 62 L713 143 C652 112 606 100 559 100 C480 100 443 140 443 189 L443 195 L680 195 C700 195 720 200 730 211 C740 222 744 248 744 269 C744 381 688 479 545 479 C485 479 427 454 404 420 C380 460 333 479 246 479 C198 479 146 467 114 454 C83 441 66 420 66 384 C66 357 70 324 74 303 L158 303 C160 334 167 352 178 361 C192 372 213 375 238 375 C266 375 286 368 296 351 C303 339 306 327 306 300 L306 281 L277 281 C97 281 30 232 30 137 C30 33 112 -12 189 -12 C279 -12 331 16 371 48 C410 8 463 -14 534 -14 C626 -14 700 17 756 62 L756 62 Z M311 195 C312 166 316 134 328 114 C296 95 268 88 237 88 C205 88 172 100 172 141 C172 177 196 195 275 195 L311 195 Z M445 283 C449 349 488 372 534 372 C587 372 609 341 609 298 L609 286 L445 283 Z M396 515 L521 629 C545 654 556 670 556 689 C556 719 529 739 503 739 C482 739 469 730 442 689 L356 548 L396 515 Z " />
<glyph glyph-name="Oslashacute" unicode="&#x1fe;" horiz-adv-x="750" d="M132 -49 L188 29 C238 1 299 -14 374 -14 C562 -14 711 102 711 349 C711 466 681 559 614 618 L670 696 L615 736 L557 656 C511 678 453 691 383 691 C179 691 39 558 39 335 C39 224 70 131 135 69 L77 -11 L132 -49 Z M547 343 C547 179 486 100 375 100 C331 100 294 111 266 136 L523 492 C539 455 547 406 547 343 L547 343 Z M201 349 C201 495 263 581 377 581 C419 581 454 571 481 549 L225 195 C209 233 201 283 201 349 L201 349 Z M344 716 L497 808 C528 826 544 848 544 867 C544 895 522 919 497 919 C476 919 463 915 430 880 L311 756 L344 716 Z " />
<glyph glyph-name="oslashacute" unicode="&#x1ff;" horiz-adv-x="573" d="M115 -52 L159 10 C194 -5 235 -14 285 -14 C426 -14 537 72 537 240 C537 321 512 387 460 429 L502 487 L452 523 L406 460 C374 472 337 479 293 479 C141 479 35 384 35 230 C35 152 58 87 107 43 L64 -17 L115 -52 Z M267 515 L392 629 C416 654 427 670 427 689 C427 719 400 739 374 739 C353 739 340 730 313 689 L227 548 L267 515 Z M395 231 C395 136 357 94 286 94 C264 94 245 98 229 107 L380 317 C390 296 395 267 395 231 L395 231 Z M178 240 C178 326 217 371 287 371 C306 371 322 368 336 362 L189 158 C182 179 178 206 178 240 L178 240 Z " />
<glyph glyph-name="uni0218" unicode="&#x218;" horiz-adv-x="600" d="M54 229 C51 204 48 169 48 128 C48 74 60 40 122 13 C159 -4 227 -14 287 -14 C447 -14 561 56 561 202 C561 298 509 354 404 392 L277 438 C228 456 214 481 214 513 C214 551 240 583 314 583 C357 583 396 578 413 563 C429 548 439 522 447 466 L525 466 C529 502 533 555 533 581 C533 624 523 645 496 661 C454 684 385 691 330 691 C143 691 60 600 60 482 C60 412 82 338 215 290 L344 243 C384 229 404 209 404 168 C404 126 369 95 296 95 C241 95 193 108 170 131 C155 147 140 171 130 229 L54 229 Z M245 -317 C331 -258 375 -198 375 -129 C375 -80 349 -45 299 -45 C256 -45 231 -76 231 -106 C231 -138 247 -152 268 -162 C280 -168 287 -178 287 -189 C287 -214 264 -242 216 -277 L245 -317 Z " />
<glyph glyph-name="uni0219" unicode="&#x219;" horiz-adv-x="475" d="M41 177 C38 159 37 129 37 96 C37 58 48 20 102 2 C130 -8 180 -14 224 -14 C343 -14 438 35 438 136 C438 201 416 239 313 276 L220 310 C193 320 183 328 183 345 C183 363 194 379 239 379 C267 379 296 374 309 365 C322 356 330 346 336 307 L410 307 C414 330 418 378 418 396 C418 428 406 446 384 457 C353 472 301 479 259 479 C116 479 45 412 45 331 C45 270 63 229 170 189 L262 155 C287 146 297 138 297 119 C297 99 279 86 232 86 C193 86 166 93 147 110 C135 120 122 135 116 177 L41 177 Z M177 -317 C263 -258 307 -198 307 -129 C307 -80 281 -45 231 -45 C188 -45 163 -76 163 -106 C163 -138 179 -152 200 -162 C212 -168 219 -178 219 -189 C219 -214 196 -242 148 -277 L177 -317 Z " />
<glyph glyph-name="uni021A" unicode="&#x21a;" horiz-adv-x="683" d="M516 -1 L516 81 C449 84 437 90 430 99 C424 107 422 122 422 165 L422 569 C504 569 531 567 548 554 C564 542 570 520 577 452 L648 452 C651 495 653 591 653 616 C653 651 636 676 586 676 L98 676 C47 676 32 647 32 608 C32 583 34 495 37 452 L108 452 C114 529 128 548 140 556 C156 567 184 569 269 569 L269 161 C269 119 267 105 261 98 C253 89 241 83 175 81 L175 -1 C218 0 324 1 348 1 C373 1 474 0 516 -1 L516 -1 Z M290 -317 C376 -258 420 -198 420 -129 C420 -80 394 -45 344 -45 C301 -45 276 -76 276 -106 C276 -138 292 -152 313 -162 C325 -168 332 -178 332 -189 C332 -214 309 -242 261 -277 L290 -317 Z " />
<glyph glyph-name="uni021B" unicode="&#x21b;" horiz-adv-x="368" d="M363 20 L345 105 C321 99 296 98 278 98 C246 98 228 114 224 149 C222 169 222 200 222 234 L222 356 C256 356 298 357 337 359 L337 447 C289 450 249 450 222 450 L222 544 C222 583 202 596 168 596 C132 596 112 578 105 549 C97 519 95 503 84 478 C79 466 69 456 57 450 C39 442 21 436 4 433 L4 356 L82 356 C81 273 79 195 79 126 C79 21 133 -12 208 -12 C254 -12 321 -3 363 20 L363 20 Z M136 -317 C222 -258 266 -198 266 -129 C266 -80 240 -45 190 -45 C147 -45 122 -76 122 -106 C122 -138 138 -152 159 -162 C171 -168 178 -178 178 -189 C178 -214 155 -242 107 -277 L136 -317 Z " />
<glyph glyph-name="circumflex" unicode="&#x2c6;" horiz-adv-x="291" d="M297 539 L193 695 C181 712 166 721 146 721 C128 721 112 710 101 694 L-7 538 L34 506 L144 611 L255 506 L297 539 Z " />
<glyph glyph-name="caron" unicode="&#x2c7;" horiz-adv-x="291" d="M-7 690 L98 534 C110 517 125 508 145 508 C162 508 179 519 190 535 L297 691 L257 723 L147 618 L37 723 L-7 690 Z " />
<glyph glyph-name="breve" unicode="&#x2d8;" horiz-adv-x="291" d="M241 686 C229 631 198 605 145 605 C91 605 59 636 52 686 L4 682 C4 566 57 522 144 522 C234 522 287 579 287 683 L241 686 Z " />
<glyph glyph-name="dotaccent" unicode="&#x2d9;" horiz-adv-x="291" d="M144 552 C183 552 208 582 208 617 C208 651 183 680 146 680 C108 680 83 651 83 617 C83 579 110 552 144 552 L144 552 Z " />
<glyph glyph-name="ring" unicode="&#x2da;" horiz-adv-x="291" d="M242 615 C242 671 203 709 147 709 C94 709 50 669 50 613 C50 557 93 519 146 519 C199 519 242 560 242 615 L242 615 Z M192 615 C192 583 172 564 146 564 C118 564 98 585 98 615 C98 648 121 666 146 666 C170 666 192 649 192 615 L192 615 Z " />
<glyph glyph-name="ogonek" unicode="&#x2db;" horiz-adv-x="291" d="M154 8 C74 -53 31 -116 31 -176 C31 -228 67 -275 143 -275 C186 -275 234 -254 259 -237 L242 -193 C221 -202 195 -207 172 -207 C135 -207 120 -182 120 -153 C120 -108 147 -59 215 8 L154 8 Z " />
</font>
</svg>
