<?xml version="1.0" encoding="UTF-8" standalone="no"?>
<!-- Created with Inkscape (http://www.inkscape.org/) -->

<svg
   width="10000mm"
   height="5000mm"
   viewBox="0 0 10000 5000"
   version="1.1"
   id="svg1"
   inkscape:version="1.4 (e7c3feb1, 2024-10-09)"
   sodipodi:docname="Logo_JVS_org.svg"
   xmlns:inkscape="http://www.inkscape.org/namespaces/inkscape"
   xmlns:sodipodi="http://sodipodi.sourceforge.net/DTD/sodipodi-0.dtd"
   xmlns="http://www.w3.org/2000/svg"
   xmlns:svg="http://www.w3.org/2000/svg">
  <sodipodi:namedview
     id="namedview1"
     pagecolor="#ffffff"
     bordercolor="#000000"
     borderopacity="0.25"
     inkscape:showpageshadow="2"
     inkscape:pageopacity="0.0"
     inkscape:pagecheckerboard="0"
     inkscape:deskcolor="#d1d1d1"
     inkscape:document-units="mm"
     showguides="true"
     inkscape:zoom="0.01"
     inkscape:cx="15450"
     inkscape:cy="21300"
     inkscape:window-width="1512"
     inkscape:window-height="855"
     inkscape:window-x="10"
     inkscape:window-y="38"
     inkscape:window-maximized="0"
     inkscape:current-layer="layer1" />
  <defs
     id="defs1" />
  <g
     inkscape:label="Ebene 1"
     inkscape:groupmode="layer"
     id="layer1">
    <path
       id="path644-9"
       style="display:inline;fill:#ccff00;stroke-width:0.258275;stroke:none"
       d="M 3476.5403,2924.1056 A 1347.7185,1319.9319 0 0 0 4823.0737,4227.8082 1347.7185,1319.9319 0 0 0 6170.3823,2924.1056 H 5114.3138 v 572.1111 h -563.6869 v -572.1111 z" />
    <path
       d="m 4379.0392,2921.587 a 1372.7062,1372.7062 0 0 1 -749.9357,588.9584 1347.7185,1319.9319 0 0 0 1193.521,714.7445 A 1347.7185,1319.9319 0 0 0 6169.933,2921.587 H 5113.8646 v 572.1114 h -563.687 V 2921.587 Z"
       style="display:inline;fill:#ff00ff;stroke-width:0.258275;stroke:none"
       id="path7" />
    <rect
       style="fill:#d4ff2a;stroke-width:0.312753;stroke:none"
       id="rect640-2"
       width="1562.2314"
       height="1054.4781"
       x="898.58722"
       y="-2910.4983"
       ry="0"
       transform="rotate(90)" />
    <rect
       style="fill:#d4ff2a;stroke-width:0.241004;stroke:none"
       id="rect640-2-2"
       width="721.41162"
       height="1355.9561"
       x="895.7182"
       y="-3209.0474"
       ry="0"
       transform="rotate(90)" />
    <rect
       style="fill:#ff0000;stroke-width:0.209175;stroke:none"
       id="rect640-2-9"
       width="685.23206"
       height="1075.374"
       x="2239.9172"
       y="-4552.9155"
       ry="0"
       transform="rotate(90)" />
    <rect
       style="fill:#ff00ff;stroke-width:0.207289;stroke:none"
       id="rect640-2-9-7"
       width="685.23206"
       height="1056.0726"
       x="2243.084"
       y="-6168.5693"
       ry="0"
       transform="rotate(90)" />
    <path
       id="rect640-2-9-7-3"
       style="fill:#ff00ff;stroke-width:0.158252;stroke:none"
       d="m 5113.0702,3205.1698 v 8.546 h 0.7938 a 279.17489,279.17489 0 0 0 -0.7938,-8.546 z m 0.7938,8.546 a 279.17489,279.17489 0 0 1 0.04,1.6219 279.17489,279.17489 0 0 1 -279.1725,279.1725 279.17489,279.17489 0 0 1 -279.1751,-279.1725 279.17489,279.17489 0 0 1 0.053,-0.7487 h -1.5187 v -0.8732 h -271.4916 v 399.378 h 1056.0712 v -399.378 z" />
    <rect
       style="fill:#ff00ff;stroke-width:0.114514;stroke:none"
       id="rect640-2-9-7-3-3"
       width="816.01477"
       height="270.64282"
       x="2502.7307"
       y="-4553.2466"
       ry="0"
       transform="rotate(90)" />
    <path
       id="path641-1-6-1-7-7-7-7"
       style="fill:#ff00ff;stroke-width:0.264381;stroke:none"
       d="m 1853.3269,2239.692 v 1019.2649 c 0,0 41.7962,239.2627 -236.8444,239.2627 -122.6662,0 -323.1145,-0.6217 -593.7039,-1.225 v 724.5826 h 1142.6243 c 0,0 741.1826,8.345 746.7574,-723.3576 5.5721,-731.6972 0,-1254.1276 0,-1254.1276 z" />
    <path
       style="fill:#ff00ff;stroke-width:0.346427;stroke:none"
       d="M 1020.1037,4219.6749 A 752.24644,728.54229 0 0 1 268.2161,3496.0104 h 1501.2432 v -1.6696 h 2.7887 a 752.24644,728.54229 0 0 1 -752.1443,725.3341 z"
       id="rect640-23-2-5-7-7-3-9-4-0-5" />
    <path
       id="path644"
       style="display:inline;fill:#ff0000;stroke-width:0.25838;stroke:none"
       d="M 3204.8265,894.37574 A 1348.8224,1319.9319 0 0 0 1856.0071,2214.3079 1348.8224,1319.9319 0 0 0 2913.3483,3499.6166 V 1625.9672 h 564.1472 v 1293.7225 h 863.42 a 1348.8224,1319.9319 0 0 0 212.733,-705.3818 1348.8224,1319.9319 0 0 0 -1348.822,-1319.93216 z" />
    <g
       id="g16"
       transform="translate(-133.86686)">
      <rect
         style="fill:#ff0000;stroke:none;stroke-width:0.195228"
         id="rect640-23-3-7"
         width="879.68274"
         height="729.82416"
         x="7507.0757"
         y="3498.0359"
         ry="0"
         inkscape:transform-center-x="46.958089"
         inkscape:transform-center-y="1469.1652" />
      <path
         style="fill:#d40000;stroke:none;stroke-width:0.33551"
         d="m 8601.9375,1615.0954 a 714.87659,719.06552 0 0 0 24.0612,1.7304 v -1.7304 z"
         id="path655" />
      <path
         style="fill:#d4ff2a;stroke:none;stroke-width:0.358947"
         d="M 8580.0538,1634.6667 A 791.78776,743.0717 0 0 0 9371.4622,896.56385 H 7791.3097 v -1.69863 h -2.9369 a 791.78776,743.0717 0 0 0 791.681,739.80148 z"
         id="rect640-23" />
      <path
         style="fill:#ff0000;stroke:none;stroke-width:0.349382"
         d="m 7489.8964,4226.607 a 752.24644,741.02422 0 0 1 -751.8876,-736.0629 h 1501.2431 v -1.6987 h 2.7887 a 752.24644,741.02422 0 0 1 -752.1442,737.7616 z"
         id="rect640-23-2" />
      <path
         id="rect640-2-98"
         style="fill:#ff0000;stroke:none;stroke-width:0.191512"
         d="m 8375.978,2219.1603 a 993.74223,1004.6516 0 0 0 -8.4905,0.5927 l 4.3154,685.8132 1.3361,0.2223 h 1.5664 v 0.2619 l 2.7384,0.4577 0.053,0.5265 a 288.92389,292.09571 0 0 1 283.6783,291.5867 288.92389,292.09571 0 0 1 -288.925,292.1 288.92389,292.09571 0 0 1 -4.31,-0.5794 h -951.4549 a 993.74223,1004.6516 0 0 0 954.8601,738.3198 993.74223,1004.6516 0 0 0 996.0557,-1002.3105 993.74223,1004.6516 0 0 0 -991.4229,-1006.9909 z m -1058.7963,686.6282 v 0.2698 h 24.04 l 0.079,-0.2698 z m 1055.0286,583.3057 v 0.7778 h 1.2145 z" />
      <path
         id="rect640-2-98-0"
         style="fill:#ff0000;stroke:none;stroke-width:0.191095"
         d="m 7740.8748,895.7992 -0.5238,2.72786 a 991.53881,1002.5057 0 0 0 -7.8423,-0.59796 991.53881,1002.5057 0 0 0 -993.8464,1000.1673 991.53881,1002.5057 0 0 0 989.2241,1004.8398 991.53881,1002.5057 0 0 0 3.6963,-0.2592 v -684.9031 h -2.4263 v -0.844 l -0.2593,0.032 -0.064,-0.079 a 288.28325,291.47177 0 0 1 -285.5113,-291.3175 288.28325,291.47177 0 0 1 283.2311,-290.7982 v -0.4948 l 2.3892,0.1773 a 288.28325,291.47177 0 0 1 2.6617,-0.3545 288.28325,291.47177 0 0 1 4.3022,0.5741 h 949.3435 A 991.53881,1002.5057 0 0 0 7903.0988,915.16141 l 0.1826,-4.55348 c -0.5186,-0.0582 -1.016,-0.0741 -1.5373,-0.13494 -68.7625,-8.09095 -110.2995,-12.14966 -134.7575,-14.19225 z m -9.2921,1320.8185 -0.6006,0.085 -1.8151,0.2249 a 288.28325,291.47177 0 0 0 2.4157,0.1138 z m 981.2072,0.889 -0.085,0.2672 h 71.6306 v -0.2672 z" />
      <path
         id="path642-0-4-6"
         style="fill:#ff0000;stroke:none;stroke-width:0.194358"
         d="m 7142.1942,1629.9068 a 1002.687,1004.6818 0 0 0 -54.7952,318.6033 1002.687,1004.6818 0 0 0 37.1052,269.8671 l 964.7687,2.1113 v -2.7411 a 291.52455,292.10449 0 0 1 -0.6139,0.026 291.52455,292.10449 0 0 1 -291.5232,-292.1079 291.52455,292.10449 0 0 1 291.5232,-292.1026 291.52455,292.10449 0 0 1 0.6139,0.069 v -3.7227 z" />
      <path
         id="path642-0-4-6-9"
         style="fill:#ff0000;stroke:none;stroke-width:0.194086"
         d="m 8158.3794,2903.259 v 2.8999 a 291.52455,291.2868 0 0 1 4.5641,-0.1799 291.52455,291.2868 0 0 1 291.5232,291.2903 291.52455,291.2868 0 0 1 -291.5232,291.2851 291.52455,291.2868 0 0 1 -4.5641,-0.5133 v 4.1566 h 951.0289 a 1002.687,1001.8693 0 0 0 54.7952,-317.7116 1002.687,1001.8693 0 0 0 -37.1052,-269.1104 z" />
      <path
         style="fill:#ff0000;stroke:none;stroke-width:0.154266"
         d="m 8156.5167,2215.8901 217.8712,3.9634 2.3574,686.4641 -220.2286,-2.9712 z"
         id="path659" />
      <path
         style="fill:#ff0000;stroke:none;stroke-width:0.218552"
         d="m 7731.1752,2215.8901 437.2928,3.9634 4.7307,686.4641 -442.0235,-2.9712 z"
         id="path659-43" />
      <ellipse
         style="fill:#ff0000;stroke:none;stroke-width:0.264956"
         id="path666"
         cx="8178.4185"
         cy="2561.6919"
         rx="337.5228"
         ry="344.5163" />
    </g>
    <rect
       style="fill:#ff00ff;stroke-width:2.73809;stroke:none"
       id="rect667"
       width="742.38678"
       height="724.23199"
       x="1054.566"
       y="3495.3486"
       ry="0" />
    <path
       id="path4"
       style="fill:#ff0000;stroke:none;stroke-width:0.266896"
       d="m 4525.5279,2499.9373 -168.6016,131.3354 -216.1651,357.1824 -360.2746,157.1603 -96.0732,23.812 -41.5345,336.908 a 1372.7062,1360.9224 0 0 0 911.4674,-1006.3981 z" />
    <path
       style="fill:#ff0000;stroke:none;stroke-width:0.268049"
       d="m 3628.5992,3516.8024 a 1372.7062,1372.7062 0 0 1 -4.8612,1.6449 l 0.3757,1.002 a 1372.7062,1372.7062 0 0 0 5.0389,-1.4801 1347.7185,1319.9319 0 0 1 -0.5534,-1.1668 z"
       id="path10" />
    <path
       style="fill:#ff0000;stroke:none;stroke-width:0.267732"
       d="m 4378.1539,2918.7266 c -1.1094,1.9785 -2.2237,3.9543 -3.3428,5.9273 h -900.8148 c 2.2551,116.7018 25.3897,238.7542 58.6902,350.8055 l 64.7407,176.2956 c 9.0321,20.4647 18.5911,40.7013 28.6678,60.6904 314.2267,-100.5198 581.7024,-311.3418 753.2673,-593.7188 z"
       id="path9"
       sodipodi:nodetypes="cccccccc" />
    <circle
       style="fill:#ff00ff;stroke-width:0.205463;stroke:none"
       id="path667"
       cx="1032.771"
       cy="3857.646"
       r="362.2847" />
    <rect
       style="fill:#ff0000;stroke:none;stroke-width:0.228118"
       id="rect10"
       width="133.46484"
       height="137.36978"
       x="3473.5969"
       y="2794.8235"
       ry="0" />
    <rect
       style="display:inline;fill:#ffffff;stroke:none;stroke-width:0.432842"
       id="rect642-5"
       width="564.38409"
       height="1756.1267"
       x="-2573.9265"
       y="2311.9922"
       transform="rotate(-90)" />
    <rect
       style="display:inline;fill:#ffffff;stroke:none;stroke-width:0.432842"
       id="rect642-5-6"
       width="564.38409"
       height="1756.1267"
       x="2913.5293"
       y="1446.0317" />
    <g
       id="g18">
      <path
         id="path644-0"
         style="display:inline;fill:#ff00ff;stroke:none;stroke-width:0.272701"
         d="M 6529.649 844.79288 A 1502.3953 1320.0112 2.6920135 0 0 5505.1601 1246.0304 L 5838.2783 1262.0697 A 428.98157 222.1032 0 0 1 6253.8167 1094.3952 A 428.98157 222.1032 0 0 1 6349.8445 1100.0626 A 550.18947 490.2987 3.5752401 0 1 6732.9291 852.70506 A 1502.3953 1320.0112 2.6920135 0 0 6653.0761 846.08582 A 1502.3953 1320.0112 2.6920135 0 0 6529.649 844.79288 z " />
      <path
         style="fill:#ff00ff;stroke:none;stroke-width:0.25838"
         d="m 6168.5699,895.09276 a 1348.8224,1319.9319 0 0 0 -1057.6031,1285.36694 1348.8224,1319.9319 0 0 0 216.1593,709.5411 h 841.1818 V 1592.119 h 0.262 z"
         id="path649" />
      <path
         id="path659-40-8-6-4"
         style="fill:#ff00ff;stroke:none;stroke-width:0.468329"
         d="m 6753.2353,853.05087 a 644.43629,1006.9816 0 0 0 -2.3291,0.25215 v 0.01 10e-4 h 2.1834 z m -2.3291,0.262 -37.9712,-0.18729 -149.5453,31.76586 -403.2078,80.44318 6.3223,618.39128 0.9574,0.9458 0.105,-0.03 a 644.43629,1006.9816 0 0 1 583.3396,-731.32873 z m 675.1685,1321.35733 -0.056,0.2714 h 46.5566 v -0.2714 z" />
    </g>
  </g>
</svg>
