<?xml version="1.0" encoding="UTF-8" standalone="no"?>
<!-- Created with Inkscape (http://www.inkscape.org/) -->

<svg
   width="10000mm"
   height="5000mm"
   viewBox="0 0 10000 5000"
   version="1.1"
   id="svg1"
   inkscape:version="1.4 (e7c3feb1, 2024-10-09)"
   sodipodi:docname="Logo_JVS_org3.svg"
   inkscape:export-filename="Logo_JVS_rot.png"
   inkscape:export-xdpi="2.54"
   inkscape:export-ydpi="2.54"
   xmlns:inkscape="http://www.inkscape.org/namespaces/inkscape"
   xmlns:sodipodi="http://sodipodi.sourceforge.net/DTD/sodipodi-0.dtd"
   xmlns="http://www.w3.org/2000/svg"
   xmlns:svg="http://www.w3.org/2000/svg">
  <sodipodi:namedview
     id="namedview1"
     pagecolor="#ffffff"
     bordercolor="#000000"
     borderopacity="0.25"
     inkscape:showpageshadow="2"
     inkscape:pageopacity="0.0"
     inkscape:pagecheckerboard="0"
     inkscape:deskcolor="#d1d1d1"
     inkscape:document-units="mm"
     showguides="true"
     inkscape:zoom="0.01"
     inkscape:cx="8950"
     inkscape:cy="17700"
     inkscape:window-width="1512"
     inkscape:window-height="855"
     inkscape:window-x="19"
     inkscape:window-y="50"
     inkscape:window-maximized="0"
     inkscape:current-layer="layer1" />
  <defs
     id="defs1" />
  <g
     inkscape:label="Ebene 1"
     inkscape:groupmode="layer"
     id="layer1">
    <path
       id="path644-9"
       style="display:inline;fill:#ff0000;stroke-width:0.258275;stroke:none"
       d="M 3476.5403,2924.1056 A 1347.7185,1319.9319 0 0 0 4823.0737,4227.8082 1347.7185,1319.9319 0 0 0 6170.3823,2924.1056 H 5114.3138 v 572.1111 h -563.6869 v -572.1111 z" />
    <path
       d="m 4379.0392,2921.587 a 1372.7062,1372.7062 0 0 1 -749.9357,588.9584 1347.7185,1319.9319 0 0 0 1193.521,714.7445 A 1347.7185,1319.9319 0 0 0 6169.933,2921.587 H 5113.8646 v 572.1114 h -563.687 V 2921.587 Z"
       style="display:inline;fill:#ff0000;stroke-width:0.258275;stroke:none"
       id="path7" />
    <path
       id="rect640-2-9"
       style="fill:#ff0000;stroke-width:0.209175;stroke:none"
       d="M 2239.917 -4071.7406 L 2651.2387 -4071.7406 C 2687.6018 -4071.7406 2716.876 -4042.4664 2716.876 -4006.1033 L 2716.876 -3477.5417 L 2925.1491 -3477.5417 L 2925.1491 -4552.9154 L 2239.917 -4552.9154 L 2239.917 -4071.7406 z "
       transform="rotate(90)" />
    <rect
       style="fill:#ff0000;stroke-width:0.207289;stroke:none"
       id="rect640-2-9-7"
       width="685.23206"
       height="1056.0726"
       x="2243.084"
       y="-6168.5693"
       ry="0"
       transform="rotate(90)" />
    <path
       id="rect640-2-9-7-3"
       style="fill:#ff0000;stroke-width:0.158252;stroke:none"
       d="m 5113.0702,3205.1698 v 8.546 h 0.7938 a 279.17489,279.17489 0 0 0 -0.7938,-8.546 z m 0.7938,8.546 a 279.17489,279.17489 0 0 1 0.04,1.6219 279.17489,279.17489 0 0 1 -279.1725,279.1725 279.17489,279.17489 0 0 1 -279.1751,-279.1725 279.17489,279.17489 0 0 1 0.053,-0.7487 h -1.5187 v -0.8732 h -271.4916 v 399.378 h 1056.0712 v -399.378 z" />
    <rect
       style="fill:#ff0000;stroke-width:0.114514;stroke:none"
       id="rect640-2-9-7-3-3"
       width="816.01477"
       height="270.64282"
       x="2502.7307"
       y="-4553.2466"
       ry="0"
       transform="rotate(90)" />
    <path
       id="path641-1-6-1-7-7-7-7"
       style="fill:#ff0000;stroke-width:0.264381;stroke:none"
       d="M 1853.3267 2239.6922 L 1853.3267 3258.9571 C 1853.3267 3258.9571 1895.1233 3498.2195 1616.4827 3498.2195 C 1493.8165 3498.2195 1293.3678 3497.5981 1022.7784 3496.9948 L 1022.7784 4221.5769 L 2165.4027 4221.5769 C 2165.4027 4221.5769 2906.5854 4229.9221 2912.1602 3498.2195 C 2914.5314 3186.8558 2914.7043 2926.4042 2914.3275 2714.9604 L 2377.6295 2714.9604 C 2341.2664 2714.9604 2311.9922 2685.6862 2311.9922 2649.323 L 2311.9922 2241.5981 L 1853.3267 2239.6922 z " />
    <path
       style="fill:#ff0000;stroke-width:0.346427;stroke:none"
       d="M 1020.1037,4219.6749 A 752.24644,728.54229 0 0 1 268.2161,3496.0104 h 1501.2432 v -1.6696 h 2.7887 a 752.24644,728.54229 0 0 1 -752.1443,725.3341 z"
       id="rect640-23-2-5-7-7-3-9-4-0-5" />
    <path
       id="path644"
       style="display:inline;fill:#ff0000;stroke-width:0.25838;stroke:none"
       d="M 3204.8266 894.3759 A 1348.8224 1319.9319 0 0 0 1856.0071 2214.3077 A 1348.8224 1319.9319 0 0 0 2913.3483 3499.6164 L 2913.3483 2716.6471 L 2377.9654 2716.6471 C 2341.6023 2716.6471 2312.3281 2687.3729 2312.3281 2651.0098 L 2312.3281 2217.9003 C 2312.3281 2181.5372 2341.6023 2152.2629 2377.9654 2152.2629 L 2913.3483 2152.2629 L 2913.3483 1625.9674 L 2916.9853 1625.9674 C 2925.1107 1601.9197 2947.5465 1584.5839 2974.4055 1584.5839 L 3417.0374 1584.5839 C 3443.8965 1584.5839 3466.3317 1601.9197 3474.4572 1625.9674 L 3477.4957 1625.9674 L 3477.4957 1641.2936 C 3477.5916 1642.6967 3477.9133 1644.0321 3477.9133 1645.4603 L 3477.9133 2152.2629 L 4002.8172 2152.2629 C 4039.1803 2152.2629 4068.4545 2181.5372 4068.4545 2217.9003 L 4068.4545 2651.0098 C 4068.4545 2687.3729 4039.1803 2716.6471 4002.8172 2716.6471 L 3477.9133 2716.6471 L 3477.9133 2919.6895 L 4340.9154 2919.6895 A 1348.8224 1319.9319 0 0 0 4553.6487 2214.3077 A 1348.8224 1319.9319 0 0 0 3204.8266 894.3759 z " />
    <rect
       style="fill:#ff0000;stroke:none;stroke-width:0.195228"
       id="rect640-23-3-7"
       width="879.68274"
       height="729.82416"
       x="7373.209"
       y="3498.0359"
       ry="0"
       inkscape:transform-center-x="46.958089"
       inkscape:transform-center-y="1469.1652" />
    <path
       style="fill:#ff0000;stroke:none;stroke-width:0.33551"
       d="m 8468.0706,1615.0954 a 714.87659,719.06552 0 0 0 24.0612,1.7304 v -1.7304 z"
       id="path655" />
    <path
       style="fill:#ff0000;stroke:none;stroke-width:0.349382"
       d="M 7267.3136,4226.607 A 752.24644,741.02422 0 0 1 6515.426,3490.5441 h 1501.2431 v -1.6987 h 2.7887 a 752.24644,741.02422 0 0 1 -752.1442,737.7616 z"
       id="rect640-23-2" />
    <path
       id="rect640-2-98"
       style="fill:#ff0000;stroke:none;stroke-width:0.191512"
       d="m 8242.1111,2219.1603 a 993.74223,1004.6516 0 0 0 -8.4905,0.5927 l 4.3154,685.8132 1.3361,0.2223 h 1.5664 v 0.2619 l 2.7384,0.4577 0.053,0.5265 a 288.92389,292.09571 0 0 1 283.6783,291.5867 288.92389,292.09571 0 0 1 -288.925,292.1 288.92389,292.09571 0 0 1 -4.31,-0.5794 h -951.4549 a 993.74223,1004.6516 0 0 0 954.8601,738.3198 993.74223,1004.6516 0 0 0 996.0557,-1002.3105 993.74223,1004.6516 0 0 0 -991.4229,-1006.9909 z m -1058.7963,686.6282 v 0.2698 h 24.04 l 0.079,-0.2698 z m 1055.0286,583.3057 v 0.7778 h 1.2145 z" />
    <path
       id="rect640-2-98-0"
       style="fill:#ff0000;stroke:none;stroke-width:0.191095"
       d="m 7607.0079,895.7992 -0.5238,2.72786 a 991.53881,1002.5057 0 0 0 -7.8423,-0.59796 991.53881,1002.5057 0 0 0 -993.8464,1000.1673 991.53881,1002.5057 0 0 0 989.2241,1004.8398 991.53881,1002.5057 0 0 0 3.6963,-0.2592 v -684.9031 h -2.4263 v -0.844 l -0.2593,0.032 -0.064,-0.079 a 288.28325,291.47177 0 0 1 -285.5113,-291.3175 288.28325,291.47177 0 0 1 283.2311,-290.7982 v -0.4948 l 2.3892,0.1773 a 288.28325,291.47177 0 0 1 2.6617,-0.3545 288.28325,291.47177 0 0 1 4.3022,0.5741 h 949.3435 A 991.53881,1002.5057 0 0 0 7769.2319,915.16141 l 0.1826,-4.55348 c -0.5186,-0.0582 -1.016,-0.0741 -1.5373,-0.13494 -68.7625,-8.09095 -110.2995,-12.14966 -134.7575,-14.19225 z m -9.2921,1320.8185 -0.6006,0.085 -1.8151,0.2249 a 288.28325,291.47177 0 0 0 2.4157,0.1138 z m 981.2072,0.889 -0.085,0.2672 h 71.6306 v -0.2672 z" />
    <path
       id="path642-0-4-6"
       style="fill:#ff0000;stroke:none;stroke-width:0.194358"
       d="m 7008.3273,1629.9068 a 1002.687,1004.6818 0 0 0 -54.7952,318.6033 1002.687,1004.6818 0 0 0 37.1052,269.8671 l 964.7687,2.1113 v -2.7411 a 291.52455,292.10449 0 0 1 -0.6139,0.026 291.52455,292.10449 0 0 1 -291.5232,-292.1079 291.52455,292.10449 0 0 1 291.5232,-292.1026 291.52455,292.10449 0 0 1 0.6139,0.069 v -3.7227 z" />
    <path
       id="path642-0-4-6-9"
       style="fill:#ff0000;stroke:none;stroke-width:0.194086"
       d="m 8024.5125,2903.259 v 2.8999 a 291.52455,291.2868 0 0 1 4.5641,-0.1799 291.52455,291.2868 0 0 1 291.5232,291.2903 291.52455,291.2868 0 0 1 -291.5232,291.2851 291.52455,291.2868 0 0 1 -4.5641,-0.5133 v 4.1566 h 951.0289 a 1002.687,1001.8693 0 0 0 54.7952,-317.7116 1002.687,1001.8693 0 0 0 -37.1052,-269.1104 z" />
    <path
       style="fill:#ff0000;stroke:none;stroke-width:0.154266"
       d="m 8022.6498,2215.8901 217.8712,3.9634 2.3574,686.4641 -220.2286,-2.9712 z"
       id="path659" />
    <path
       style="fill:#ff0000;stroke:none;stroke-width:0.218552"
       d="m 7597.3083,2215.8901 437.2928,3.9634 4.7307,686.4641 -442.0235,-2.9712 z"
       id="path659-43" />
    <ellipse
       style="fill:#ff0000;stroke:none;stroke-width:0.264956"
       id="path666"
       cx="8044.5518"
       cy="2561.6919"
       rx="337.5228"
       ry="344.5163" />
    <rect
       style="fill:#ff0000;stroke-width:2.73809;stroke:none"
       id="rect667"
       width="742.38678"
       height="724.23199"
       x="1054.566"
       y="3495.3486"
       ry="0" />
    <g
       id="g19"
       transform="matrix(-1,0,0,-1.0216146,14392.212,2200.4372)">
      <path
         style="fill:#ff0000;stroke:none;stroke-width:0.346427"
         d="M 6016.845,1279.0331 A 752.24644,728.54229 0 0 1 5264.9574,555.36864 h 1501.2432 v -1.6696 h 2.7887 A 752.24644,728.54229 0 0 1 6016.845,1279.0331 Z"
         id="rect640-23-2-5-7-7-3-9-4-0-5-5" />
      <rect
         style="fill:#ff0000;stroke:none;stroke-width:2.73809"
         id="rect667-1"
         width="742.38678"
         height="724.23199"
         x="6051.3071"
         y="554.70685"
         ry="0" />
    </g>
    <path
       id="path4"
       style="fill:#ff0000;stroke:none;stroke-width:0.266896"
       d="M 4525.5279 2499.9373 L 4356.9263 2631.2725 L 4140.7612 2988.4553 L 3780.4866 3145.6152 L 3684.4134 3169.4272 L 3642.8789 3506.3353 A 1372.7062 1360.9224 0 0 0 4554.3463 2499.9373 L 4525.5279 2499.9373 z " />
    <path
       style="fill:#ff0000;stroke:none;stroke-width:0.268049"
       d="m 3628.5992,3516.8024 a 1372.7062,1372.7062 0 0 1 -4.8612,1.6449 l 0.3757,1.002 a 1372.7062,1372.7062 0 0 0 5.0389,-1.4801 1347.7185,1319.9319 0 0 1 -0.5534,-1.1668 z"
       id="path10" />
    <path
       style="fill:#ff0000;stroke:none;stroke-width:0.267732"
       d="m 4378.1539,2918.7266 c -1.1094,1.9785 -2.2237,3.9543 -3.3428,5.9273 h -900.8148 c 2.2551,116.7018 25.3897,238.7542 58.6902,350.8055 l 64.7407,176.2956 c 9.0321,20.4647 18.5911,40.7013 28.6678,60.6904 314.2267,-100.5198 581.7024,-311.3418 753.2673,-593.7188 z"
       id="path9"
       sodipodi:nodetypes="cccccccc" />
    <circle
       style="fill:#ff0000;stroke-width:0.205463;stroke:none"
       id="path667"
       cx="1032.771"
       cy="3857.646"
       r="362.2847" />
    <rect
       style="fill:#ff0000;stroke:none;stroke-width:0.28301"
       id="rect10"
       width="133.46484"
       height="211.43373"
       x="3474.4983"
       y="2718.0557"
       ry="0" />
    <g
       id="g18"
       style="fill:#ff0000"
       transform="translate(0,143.07537)">
      <path
         id="path644-0"
         style="display:inline;fill:#ff0000;stroke:none;stroke-width:0.272701"
         d="M 6529.649,844.79288 A 1502.3953,1320.0112 2.6920135 0 0 5505.1601,1246.0304 l 333.1182,16.0393 a 428.98157,222.1032 0 0 1 415.5384,-167.6745 428.98157,222.1032 0 0 1 96.0278,5.6674 550.18947,490.2987 3.5752401 0 1 383.0846,-247.35754 1502.3953,1320.0112 2.6920135 0 0 -79.853,-6.61924 1502.3953,1320.0112 2.6920135 0 0 -123.4271,-1.29294 z" />
      <path
         style="fill:#ff0000;stroke:none;stroke-width:0.25838"
         d="m 6168.5699,895.09276 a 1348.8224,1319.9319 0 0 0 -1057.6031,1285.36694 1348.8224,1319.9319 0 0 0 216.1593,709.5411 h 841.1818 V 1592.119 h 0.262 z"
         id="path649" />
      <path
         id="path659-40-8-6-4"
         style="fill:#ff0000;stroke:none;stroke-width:0.468329"
         d="m 6753.2353,853.05087 a 644.43629,1006.9816 0 0 0 -2.3291,0.25215 v 0.01 10e-4 h 2.1834 z m -2.3291,0.262 -37.9712,-0.18729 -149.5453,31.76586 -403.2078,80.44318 6.3223,618.39128 0.9574,0.9458 0.105,-0.03 a 644.43629,1006.9816 0 0 1 583.3396,-731.32873 z m 675.1685,1321.35733 -0.056,0.2714 h 46.5566 v -0.2714 z" />
    </g>
  </g>
</svg>
