<svg width="190" height="82" viewBox="0 0 190 82" fill="none" xmlns="http://www.w3.org/2000/svg">
<g clip-path="url(#clip0_37_379)">
<path d="M18.2596 68.0505C27.4386 68.0505 34.8797 60.605 34.8797 51.4205C34.8797 42.236 27.4386 34.7905 18.2596 34.7905C9.08068 34.7905 1.63965 42.236 1.63965 51.4205C1.63965 60.605 9.08068 68.0505 18.2596 68.0505Z" fill="black" style="fill:black;fill-opacity:1;"/>
<path d="M15.3305 48.8202H8.48047V54.6802H15.3305V61.5202H21.1605V54.6802H28.0505V48.8202H21.1605V41.9702H15.3305V48.8202Z" fill="white" style="fill:white;fill-opacity:1;"/>
<path fill-rule="evenodd" clip-rule="evenodd" d="M18.26 32.6605C15.37 27.0305 13.04 25.5905 8.20999 22.3805C3.07999 18.9605 -1.08001 13.3905 0.799991 7.38051C3.34999 -0.719495 13.63 -2.31949 18.26 4.58051C22.89 -2.31949 33.18 -0.739495 35.72 7.38051C37.6 13.3905 33.44 18.9605 28.31 22.3805C23.49 25.5905 21.15 27.0305 18.26 32.6605Z" fill="black" style="fill:black;fill-opacity:1;"/>
<path d="M126.9 1.85016C124.71 1.85016 118.54 1.76016 114.17 1.66016V9.36016C117.4 9.45016 120.06 9.74016 121.29 10.2102C122.43 10.5902 122.81 11.7302 122.81 12.5902C122.81 14.3002 122.24 16.4902 121.57 18.5702C114.82 38.6202 112.92 44.7002 110.93 50.8702C108.84 44.6002 106.75 38.5202 99.7205 18.3802C98.9605 16.1902 98.3005 13.8202 98.3005 13.0602C98.3005 11.7302 98.7705 10.7802 100.39 10.2102C101.63 9.73016 103.91 9.45016 106.38 9.36016V1.66016C101.54 1.76016 92.9805 1.85016 90.4205 1.85016C86.7205 1.85016 64.4905 1.95016 59.3405 1.95016C54.1905 1.95016 46.4205 1.76016 43.7605 1.66016V9.36016C49.0805 9.64016 50.7905 10.0302 51.4505 10.9702C52.0205 11.6402 52.1205 13.0602 52.1205 16.4802V50.0202C52.1205 57.3302 51.4505 62.2702 50.1205 65.6002C48.8905 68.6402 45.3705 71.7701 41.4805 74.0602L45.6605 81.3802C52.2205 78.9102 59.2405 74.2502 62.4805 69.0302C65.8105 63.7102 66.6605 57.8202 66.6605 49.8402V16.5902C66.6605 12.7902 66.9505 11.7402 67.4205 11.0802C69.5405 8.12016 77.3505 9.21016 79.0205 10.6002C80.6405 11.9302 81.6805 13.5502 83.1005 17.5402L99.0605 61.1502C100.68 65.5202 103.34 67.2302 108.18 67.2302C113.02 67.2302 115.88 65.3302 117.59 60.5802L133.36 17.7302C134.59 14.4102 135.54 12.1302 136.69 11.0802C137.92 9.85016 140.02 9.46016 143.24 9.37016V1.67016C139.16 1.77016 128.99 1.86016 126.9 1.86016V1.85016Z" fill="black" style="fill:black;fill-opacity:1;"/>
<path d="M148.69 44.2206C149.64 49.7306 151.07 52.0106 152.49 53.5306C154.68 55.7206 159.24 56.9506 164.46 56.9506C171.39 56.9506 174.72 54.0106 174.72 50.0206C174.72 46.0306 172.82 44.2206 169.02 42.8906L156.77 38.4306C144.14 33.8706 142.04 26.8406 142.04 20.1906C142.04 8.98057 149.93 0.330566 167.69 0.330566C172.92 0.330566 179.47 1.00057 183.46 3.18057C186.03 4.70057 186.97 6.70057 186.97 10.7806C186.97 13.2506 186.59 18.2906 186.21 21.7106H178.8C178.04 16.3906 177.09 13.9206 175.57 12.4906C173.95 11.0706 170.25 10.5906 166.16 10.5906C159.13 10.5906 156.66 13.6306 156.66 17.2406C156.66 20.2806 157.99 22.6606 162.64 24.3706L174.71 28.7406C184.69 32.3506 189.63 37.6706 189.63 46.7906C189.63 60.6606 178.8 67.3106 163.6 67.3106C157.9 67.3106 151.44 66.3606 147.93 64.7406C142.04 62.1806 140.9 58.9506 140.9 53.8206C140.9 49.9206 141.19 46.6006 141.47 44.2206H148.69Z" fill="black" style="fill:black;fill-opacity:1;"/>
</g>
<defs>
<clipPath id="clip0_37_379">
<rect width="190" height="82" fill="white" style="fill:white;fill-opacity:1;"/>
</clipPath>
</defs>
</svg>
