<svg width="284" height="69" viewBox="0 0 284 69" fill="none" xmlns="http://www.w3.org/2000/svg">
<g clip-path="url(#clip0_37_280)">
<path d="M18.2601 68.6902C27.4391 68.6902 34.8801 61.2447 34.8801 52.0602C34.8801 42.8757 27.4391 35.4302 18.2601 35.4302C9.08116 35.4302 1.64014 42.8757 1.64014 52.0602C1.64014 61.2447 9.08116 68.6902 18.2601 68.6902Z" fill="#FF0000" style="fill:#FF0000;fill:color(display-p3 1.0000 0.0000 0.0000);fill-opacity:1;"/>
<path d="M15.33 49.4599H8.47998V55.3199H15.33V62.1599H21.16V55.3199H28.05V49.4599H21.16V42.6099H15.33V49.4599Z" fill="white" style="fill:white;fill-opacity:1;"/>
<path fill-rule="evenodd" clip-rule="evenodd" d="M18.26 33.3002C15.37 27.6702 13.04 26.2302 8.20999 23.0202C3.07999 19.6002 -1.08001 14.0302 0.799991 8.02015C3.34999 -0.0798469 13.63 -1.67985 18.26 5.22015C22.89 -1.67985 33.18 -0.0998464 35.72 8.02015C37.6 14.0302 33.44 19.6002 28.31 23.0202C23.49 26.2302 21.15 27.6702 18.26 33.3002Z" fill="#FF0000" style="fill:#FF0000;fill:color(display-p3 1.0000 0.0000 0.0000);fill-opacity:1;"/>
<path d="M40.9102 35.2102C42.6702 34.1802 44.2602 32.7602 44.8202 31.3802C45.4202 29.8802 45.7202 27.6402 45.7202 24.3302V9.1502C45.7202 7.6002 45.6802 6.96019 45.4202 6.66019C45.1202 6.23019 44.3502 6.06019 41.9402 5.93019V2.4502C43.1402 2.4902 46.5802 2.58019 48.9902 2.58019C51.4002 2.58019 54.1902 2.4902 55.9102 2.4502V5.93019C53.2402 6.06019 52.9402 6.3202 52.6402 6.7002C52.4202 7.0002 52.3002 7.47019 52.3002 9.19019V24.2402C52.3002 27.8502 51.9102 30.5202 50.4102 32.9302C48.9502 35.3002 45.7702 37.4002 42.8002 38.5202L40.9102 35.2102Z" fill="white" style="fill:white;fill-opacity:1;"/>
<path d="M73.33 31.9399C71.83 31.9399 70.1 31.6799 69.5 29.5299C68 31.0299 65.89 32.0199 63.52 32.0199C60.25 32.0199 56.77 30.2099 56.77 25.9099C56.77 21.9499 59.39 19.7599 67.05 19.7599C67.44 19.7599 68.38 19.7599 68.86 19.8499V18.6899C68.86 17.5699 68.77 16.9699 68.47 16.4499C68.04 15.7199 67.05 15.4199 65.72 15.4199C64.64 15.4199 63.7 15.5899 63.14 16.0199C62.62 16.4099 62.37 17.1399 62.28 18.6899H58.75C58.58 17.7899 58.36 16.1999 58.36 15.0299C58.36 13.4799 59.13 12.5799 60.47 12.0199C61.85 11.4599 64.25 10.9399 66.19 10.9399C70.88 10.9399 72.51 11.9699 73.46 12.9999C74.32 13.9899 74.79 15.5799 74.79 17.8199C74.79 19.2399 74.75 24.6999 74.75 25.1699C74.75 27.1499 75.31 27.6599 76.34 27.6599C76.86 27.6599 77.29 27.6199 77.89 27.5299V31.1399C76.6 31.6099 74.58 31.9099 73.33 31.9099V31.9399ZM68.86 23.5499C68.47 23.4599 67.57 23.4199 67.1 23.4199C63.88 23.4199 62.89 24.2399 62.89 25.5699C62.89 27.2499 64.22 27.7599 65.43 27.7599C66.81 27.7599 68.05 27.3699 68.87 26.8999V23.5499H68.86Z" fill="white" style="fill:white;fill-opacity:1;"/>
<path d="M83.5499 23.9402C83.8099 25.7502 84.3699 26.3902 84.8799 26.8202C85.6999 27.5502 86.8599 27.8502 88.5399 27.8502C90.5599 27.8502 91.3299 27.2902 91.3299 26.4302C91.3299 25.5702 90.8999 25.2702 89.8199 24.8802L85.8599 23.4202C81.2599 21.7002 80.4799 19.9402 80.4799 17.3102C80.4799 13.8302 83.5299 10.9502 89.6799 10.9502C91.4899 10.9502 93.7199 11.2502 95.0599 11.9002C96.0099 12.3702 96.5199 13.1502 96.5199 14.5202C96.5199 15.2902 96.3499 17.3602 96.1799 18.3502H92.9999C92.7399 16.6702 92.3999 16.2402 91.8399 15.8602C91.2799 15.4702 90.0299 15.2602 88.8299 15.2602C86.8899 15.2602 86.4199 15.9502 86.4199 16.7202C86.4199 17.4502 86.8499 17.8002 88.0099 18.2202L92.0099 19.6802C96.4399 21.2702 97.3899 22.9102 97.3899 25.7002C97.3899 30.0402 93.3099 32.1502 88.1899 32.1502C86.2999 32.1502 84.1499 31.8902 82.9399 31.4602C80.6199 30.6902 80.1499 29.0502 80.1499 27.4202C80.1499 26.0002 80.1899 24.7102 80.3199 23.9402H83.5399H83.5499Z" fill="white" style="fill:white;fill-opacity:1;"/>
<path d="M103.71 23.9402C103.97 25.7502 104.53 26.3902 105.04 26.8202C105.86 27.5502 107.02 27.8502 108.7 27.8502C110.72 27.8502 111.49 27.2902 111.49 26.4302C111.49 25.5702 111.06 25.2702 109.99 24.8802L106.03 23.4202C101.43 21.7002 100.65 19.9402 100.65 17.3102C100.65 13.8302 103.7 10.9502 109.85 10.9502C111.66 10.9502 113.89 11.2502 115.23 11.9002C116.18 12.3702 116.69 13.1502 116.69 14.5202C116.69 15.2902 116.52 17.3602 116.35 18.3502H113.17C112.91 16.6702 112.57 16.2402 112.01 15.8602C111.45 15.4702 110.2 15.2602 109 15.2602C107.07 15.2602 106.59 15.9502 106.59 16.7202C106.59 17.4502 107.02 17.8002 108.18 18.2202L112.18 19.6802C116.61 21.2702 117.55 22.9102 117.55 25.7002C117.55 30.0402 113.47 32.1502 108.35 32.1502C106.46 32.1502 104.31 31.8902 103.1 31.4602C100.78 30.6902 100.31 29.0502 100.31 27.4202C100.31 26.0002 100.35 24.7102 100.48 23.9402H103.7H103.71Z" fill="white" style="fill:white;fill-opacity:1;"/>
<path d="M141.39 15.6401C140.92 16.1101 140.53 16.7601 139.97 18.0101L134.38 30.6101C133.86 31.7301 132.75 32.3301 131.33 32.3301C129.7 32.3301 128.62 31.7701 128.11 30.5701L122.65 18.1001C122.09 16.8101 121.66 15.9901 121.15 15.6101C120.81 15.3101 119.9 15.1401 119.17 15.0901V11.5601C120.63 11.6001 125.36 11.6501 126.44 11.6501C127.52 11.6501 129.84 11.6101 131.38 11.5601V15.0901C130.95 15.1301 130.26 15.2201 129.83 15.3001C129.14 15.4301 128.84 15.9001 128.84 16.4601C128.84 16.8901 129.01 17.4901 129.27 18.1801C130.43 20.8901 131.55 23.5601 132.49 26.0901C133.39 23.6801 134.55 20.7101 135.59 18.0901C135.85 17.4901 136.06 16.6701 136.06 16.1601C136.06 15.6901 135.76 15.3901 135.29 15.3001C134.6 15.1701 134.17 15.1301 133.48 15.0901V11.5601C134.9 11.6001 137.44 11.6501 138.38 11.6501C139.2 11.6501 141.99 11.6101 143.32 11.5601V15.0901C142.59 15.1801 141.82 15.2601 141.39 15.6501V15.6401Z" fill="white" style="fill:white;fill-opacity:1;"/>
<path d="M154.77 32.1502C148.75 32.1502 144.62 28.1902 144.62 22.0002C144.62 14.8202 149.18 10.9502 155.28 10.9502C161.38 10.9502 164.01 14.7802 164.01 19.5502C164.01 20.4502 163.84 21.6102 163.41 22.0902C162.94 22.6102 162.12 22.7402 161.26 22.7402H150.77V23.0802C150.77 25.2302 152.53 27.2502 155.89 27.2502C157.91 27.2502 160.1 26.7302 162.73 25.4002L164.54 28.9302C162.17 30.8602 158.65 32.1502 154.78 32.1502H154.77ZM158.25 18.7802V18.3502C158.25 16.6702 157.17 15.4302 154.94 15.4302C152.88 15.4302 151.03 16.3802 150.81 18.9602L158.25 18.7902V18.7802Z" fill="white" style="fill:white;fill-opacity:1;"/>
<path d="M172.87 31.5098C171.84 31.5098 168.57 31.5098 166.64 31.5998V28.1598C168.62 27.9398 169.09 27.8198 169.43 27.4698C169.64 27.2098 169.77 26.6498 169.77 25.1498V19.0898C169.77 17.3298 169.51 16.6398 169.12 16.3798C168.78 16.1698 168.17 16.0798 167.7 16.0798C167.4 16.0798 166.97 16.0798 166.63 16.1198V12.7698C168.78 11.6898 171.02 11.1798 172.95 11.1798C174.24 11.1798 175.44 11.6498 175.7 13.8898C176.86 12.2998 178.93 11.0498 180.82 11.0498C182.37 11.0498 183.66 11.6498 183.66 13.7198C183.66 14.7098 183.49 16.2598 183.23 18.0598H179.62C179.36 16.3798 178.93 15.9498 178.03 15.9498C177.34 15.9498 176.4 16.3398 175.79 16.8498V25.0198C175.79 26.4798 175.96 27.2098 176.26 27.5598C176.6 27.9498 177.81 28.0798 179.36 28.1598V31.5998C177.47 31.5598 173.94 31.5098 172.87 31.5098Z" fill="white" style="fill:white;fill-opacity:1;"/>
<path d="M186.78 24.8801V9.49012C186.78 6.70012 186.69 5.71012 186.26 5.32012C185.87 5.02012 185.31 4.93012 184.76 4.93012C184.5 4.93012 184.07 4.97012 183.73 5.02012V1.71012C186.1 0.590115 188.12 0.120117 190.35 0.120117C192.2 0.120117 192.89 1.28012 192.89 3.52012C192.89 6.79012 192.89 9.67012 192.85 13.6301C194.53 12.1701 196.81 10.9601 199.69 10.9601C205.32 10.9601 207.47 15.2601 207.47 20.9401C207.47 27.3001 203.64 31.9501 196.03 31.9501C193.36 31.9501 188.89 31.4301 186.74 30.4901C186.78 28.4701 186.78 26.1501 186.78 24.9001V24.8801ZM196.2 27.0801C199.47 27.0801 200.97 24.6301 200.97 21.5301C200.97 17.9201 199.64 15.7301 196.76 15.7301C195.34 15.7301 194.05 16.0701 192.8 16.8001V26.6501C193.83 26.9501 194.99 27.0801 196.2 27.0801Z" fill="white" style="fill:white;fill-opacity:1;"/>
<path d="M226.37 31.9399C224.87 31.9399 223.15 31.6799 222.54 29.5299C221.04 31.0299 218.93 32.0199 216.56 32.0199C213.29 32.0199 209.81 30.2099 209.81 25.9099C209.81 21.9499 212.43 19.7599 220.09 19.7599C220.48 19.7599 221.42 19.7599 221.9 19.8499V18.6899C221.9 17.5699 221.81 16.9699 221.51 16.4499C221.08 15.7199 220.09 15.4199 218.76 15.4199C217.69 15.4199 216.74 15.5899 216.18 16.0199C215.66 16.4099 215.41 17.1399 215.32 18.6899H211.79C211.62 17.7899 211.4 16.1999 211.4 15.0299C211.4 13.4799 212.17 12.5799 213.51 12.0199C214.89 11.4599 217.29 10.9399 219.23 10.9399C223.92 10.9399 225.55 11.9699 226.5 12.9999C227.36 13.9899 227.83 15.5799 227.83 17.8199C227.83 19.2399 227.79 24.6999 227.79 25.1699C227.79 27.1499 228.35 27.6599 229.38 27.6599C229.9 27.6599 230.33 27.6199 230.93 27.5299V31.1399C229.64 31.6099 227.62 31.9099 226.37 31.9099V31.9399ZM221.89 23.5499C221.5 23.4599 220.6 23.4199 220.13 23.4199C216.91 23.4199 215.92 24.2399 215.92 25.5699C215.92 27.2499 217.25 27.7599 218.46 27.7599C219.84 27.7599 221.08 27.3699 221.9 26.8999V23.5499H221.89Z" fill="white" style="fill:white;fill-opacity:1;"/>
<path d="M239.08 31.5101C238.05 31.5101 234.78 31.5101 232.85 31.6001V28.1601C234.83 27.9401 235.3 27.8201 235.64 27.4701C235.85 27.2101 235.98 26.6501 235.98 25.1501V19.0901C235.98 17.3301 235.72 16.6401 235.33 16.3801C234.99 16.1701 234.38 16.0801 233.91 16.0801C233.61 16.0801 233.18 16.0801 232.84 16.1201V12.7701C234.99 11.6901 237.23 11.1801 239.16 11.1801C240.54 11.1801 241.74 11.7401 241.95 14.1501C243.71 12.2201 246.68 11.1001 249.09 11.1001C250.81 11.1001 252.32 11.5701 253.22 12.4801C254.25 13.5101 254.68 15.2301 254.68 18.2401V25.1601C254.68 26.4101 254.72 26.9701 254.89 27.3101C255.15 27.7401 255.66 27.9101 257.81 28.1701V31.6101C256 31.5701 253.17 31.5201 252.22 31.5201C251.19 31.5201 247.96 31.5601 246.11 31.6101V28.1701C247.57 28.0001 247.96 27.8301 248.26 27.5201C248.56 27.2101 248.65 26.7001 248.65 25.0701V19.8201C248.65 18.3601 248.52 17.3701 248.01 16.8101C247.58 16.3401 246.76 16.1701 245.73 16.1701C244.7 16.1701 243.28 16.4701 241.99 17.0301V25.1101C241.99 26.5701 242.08 27.2201 242.38 27.5601C242.72 27.9001 243.15 28.0301 244.49 28.1601V31.6001C242.6 31.5601 240.15 31.5101 239.07 31.5101H239.08Z" fill="white" style="fill:white;fill-opacity:1;"/>
<path d="M268.81 32.0699C262.96 32.0699 259.48 27.9399 259.48 22.3099C259.48 15.9499 262.66 11.0899 270.27 11.0899C271.47 11.0899 273.28 11.3499 274.4 11.8599V8.50988C274.4 7.55988 274.31 6.52988 274.14 5.96988C274.01 5.23988 273.32 4.93988 272.46 4.93988C272.16 4.93988 271.73 4.97988 271.3 5.02988V1.71988C273.66 0.519883 276.24 0.129883 277.92 0.129883C279.94 0.129883 280.5 1.67989 280.5 3.30989C280.5 5.15989 280.41 10.2799 280.41 12.3799V25.5799C280.41 26.8299 280.8 27.6899 282 27.6899C282.34 27.6899 282.99 27.6499 283.55 27.5599V31.1699C281.7 31.7699 279.89 31.9399 278.86 31.9399C276.58 31.9399 275.59 31.1199 275.21 29.4499C273.53 31.2099 271.47 32.0699 268.8 32.0699H268.81ZM274.4 16.4599C273.54 15.9399 272.16 15.7299 271 15.7299C267.82 15.7299 265.75 17.6599 265.75 21.5799C265.75 25.4999 267.77 27.3399 270.78 27.3399C272.16 27.3399 273.49 26.9099 274.39 26.1399V16.4699L274.4 16.4599Z" fill="white" style="fill:white;fill-opacity:1;"/>
<path d="M46.7099 56.9498C47.1399 59.4398 47.7899 60.4798 48.4299 61.1598C49.4199 62.1498 51.4799 62.7098 53.8499 62.7098C56.9899 62.7098 58.4899 61.3798 58.4899 59.5698C58.4899 57.7598 57.6299 56.9498 55.9099 56.3398L50.3599 54.3198C44.6399 52.2598 43.6899 49.0698 43.6899 46.0598C43.6899 40.9898 47.2599 37.0698 55.2999 37.0698C57.6599 37.0698 60.6299 37.3698 62.4399 38.3598C63.5999 39.0498 64.0299 39.9498 64.0299 41.7998C64.0299 42.9198 63.8599 45.1998 63.6899 46.7398H60.3399C59.9999 44.3298 59.5699 43.2098 58.8799 42.5698C58.1499 41.9298 56.4699 41.7098 54.6199 41.7098C51.4399 41.7098 50.3199 43.0898 50.3199 44.7198C50.3199 46.0998 50.9199 47.1698 53.0299 47.9398L58.4899 49.9198C62.9999 51.5498 65.2399 53.9598 65.2399 58.0898C65.2399 64.3698 60.3399 67.3798 53.4599 67.3798C50.8799 67.3798 47.9599 66.9498 46.3699 66.2198C43.6999 65.0598 43.1899 63.5998 43.1899 61.2698C43.1899 59.5098 43.3199 57.9998 43.4499 56.9298H46.7199L46.7099 56.9498Z" fill="white" style="fill:white;fill-opacity:1;"/>
<path d="M78.0801 67.4C72.3601 67.4 68.1001 63.66 68.1001 57.3C68.1001 50.25 72.6601 46.21 78.9401 46.21C80.4001 46.21 82.2501 46.42 83.4101 46.77C85.0901 47.29 86.0301 47.97 86.0301 49.65C86.0301 50.68 85.9401 52.49 85.6901 53.95H82.0301C81.9001 52.4 81.5101 51.67 81.0801 51.33C80.6501 50.99 79.7901 50.86 78.8901 50.86C76.5201 50.86 74.3801 52.49 74.3801 56.84C74.3801 61.19 76.7501 62.56 79.4501 62.56C81.3401 62.56 83.2301 61.91 84.9501 60.97L86.7101 64.45C84.4301 66.34 81.0801 67.42 78.0701 67.42L78.0801 67.4Z" fill="white" style="fill:white;fill-opacity:1;"/>
<path d="M94.9698 66.7601C93.9798 66.7601 90.7098 66.7601 88.7798 66.8501V63.4101C90.7598 63.1901 91.2298 63.0701 91.5298 62.7201C91.7398 62.4601 91.8698 61.9501 91.8698 60.4401V44.5301C91.8698 41.8601 91.7398 40.9601 91.2698 40.5701C90.9298 40.2701 90.3198 40.1801 89.8098 40.1801C89.5498 40.1801 89.1198 40.2201 88.7798 40.2701V36.9601C91.1498 35.8401 93.1698 35.3701 95.3598 35.3701C97.2098 35.3701 97.9798 36.5301 97.9798 38.7701C97.9798 42.0801 97.8898 45.4301 97.8898 49.3901C99.6498 47.4601 102.62 46.3401 105.03 46.3401C106.75 46.3401 108.21 46.8601 109.11 47.7201C110.19 48.7501 110.61 50.4701 110.61 53.4801V60.4001C110.61 61.6501 110.65 62.2101 110.82 62.5501C111.03 62.9801 111.59 63.1501 113.74 63.4101V66.8501C111.93 66.8101 109.1 66.7601 108.15 66.7601C107.12 66.7601 103.89 66.8001 102 66.8501V63.4101C103.5 63.2401 103.93 63.0701 104.19 62.7201C104.41 62.5101 104.53 61.9501 104.53 60.3101V55.0601C104.53 53.6001 104.4 52.6101 103.93 52.0501C103.5 51.5801 102.68 51.4101 101.65 51.4101C100.62 51.4101 99.1998 51.7101 97.9098 52.2701V60.3501C97.9098 61.8101 97.9498 62.5001 98.2498 62.8001C98.5898 63.1401 99.0198 63.2701 100.36 63.4001V66.8401C98.4698 66.8001 96.0598 66.7501 94.9398 66.7501L94.9698 66.7601Z" fill="white" style="fill:white;fill-opacity:1;"/>
<path d="M146.43 50.7202C145.87 50.9302 145.61 51.5802 145.18 52.8702L141.05 65.7702C140.66 66.9702 139.59 67.5802 138.08 67.5802C136.49 67.5802 135.46 67.0202 135.03 65.7702C133.48 61.2102 132.24 57.5102 131.29 54.5002C130.26 57.6402 129.01 61.3402 127.21 65.8502C126.74 66.9702 125.62 67.5702 124.24 67.5702C122.56 67.5702 121.53 67.0502 121.1 65.8102L116.8 52.7002C116.63 52.2302 116.37 51.3702 115.94 50.9402C115.55 50.5102 114.99 50.4202 113.83 50.3402V46.8102C115.77 46.9002 118.73 46.9002 119.63 46.9002C120.71 46.9002 123.93 46.9002 126.08 46.8102V50.3402C125.35 50.3802 124.83 50.4702 124.23 50.5502C123.54 50.6402 123.15 50.9802 123.15 51.5802C123.15 52.0102 123.28 52.7002 123.41 53.1702C124.1 55.7502 124.91 58.4602 125.47 60.6502C126.5 57.4702 128.05 52.8702 129.47 48.8702C129.9 47.7102 130.5 46.7202 132.44 46.7202C134.2 46.7202 134.68 47.5802 135.15 48.8302C136.65 52.9102 137.99 56.9602 139.11 60.3502C139.67 58.1602 140.4 55.3602 141 53.1702C141.17 52.5702 141.3 51.8802 141.3 51.5402C141.3 50.9402 140.91 50.6802 140.57 50.5902C140.01 50.4602 139.32 50.4202 138.33 50.3302V46.8002C140.14 46.8902 143.02 46.8902 144.01 46.8902C144.83 46.8902 146.55 46.8902 148.18 46.8002V50.3302C147.32 50.4202 146.85 50.5002 146.42 50.7202H146.43Z" fill="white" style="fill:white;fill-opacity:1;"/>
<path d="M159.76 67.4002C153.74 67.4002 149.61 63.4402 149.61 57.2502C149.61 50.0702 154.17 46.2002 160.27 46.2002C166.37 46.2002 169 50.0302 169 54.8002C169 55.7002 168.83 56.8602 168.4 57.3402C167.93 57.8602 167.11 57.9902 166.25 57.9902H155.76V58.3302C155.76 60.4802 157.52 62.5002 160.88 62.5002C162.9 62.5002 165.09 61.9802 167.72 60.6502L169.53 64.1802C167.16 66.1102 163.64 67.4002 159.77 67.4002H159.76ZM163.24 54.0302V53.6002C163.24 51.9202 162.16 50.6802 159.93 50.6802C157.87 50.6802 156.02 51.6302 155.8 54.2102L163.24 54.0402V54.0302Z" fill="white" style="fill:white;fill-opacity:1;"/>
<path d="M177.86 66.7599C176.83 66.7599 173.56 66.7599 171.63 66.8499V63.4099C173.61 63.1899 174.08 63.0699 174.42 62.7199C174.63 62.4599 174.76 61.8999 174.76 60.3999V54.3399C174.76 52.5799 174.5 51.8899 174.11 51.6299C173.77 51.4199 173.16 51.3299 172.69 51.3299C172.39 51.3299 171.96 51.3299 171.62 51.3699V48.0199C173.77 46.9499 176.05 46.4299 178.03 46.4299C179.58 46.4299 180.95 47.0299 180.95 49.8299C180.95 52.8399 180.78 56.8399 180.78 60.3599C180.78 61.8599 180.87 62.4199 181.17 62.7699C181.47 63.1599 182.24 63.2899 183.88 63.4199V66.8599C182.03 66.8199 178.93 66.7699 177.86 66.7699V66.7599ZM177.09 42.9399C174.98 42.9399 173.69 41.3099 173.69 39.4099C173.69 37.3899 175.11 35.8799 177.22 35.8799C179.71 35.8799 180.7 37.3799 180.7 39.3199C180.7 41.2599 179.41 42.9299 177.09 42.9299V42.9399Z" fill="white" style="fill:white;fill-opacity:1;"/>
<path d="M185.81 64.6501L196.82 50.4601C194.41 50.4601 193.34 50.4601 192.26 50.5501C191.49 50.6401 190.93 50.8901 190.63 51.5001C190.29 52.1401 190.16 52.9201 189.94 54.2101H186.54C186.41 53.0901 186.24 51.1101 186.24 49.6501C186.24 48.0201 187.01 46.8501 188.99 46.8501H205.16V49.2201L194.15 63.2801C195.48 63.3201 196.47 63.3201 197.33 63.3201C199.14 63.3201 200.25 63.1101 200.9 62.8501C201.37 62.6801 201.93 61.9501 202.19 61.3501C202.49 60.7501 202.84 59.8901 203.05 58.9001H206.19C206.19 59.8001 206.06 62.9001 205.85 64.8801C205.72 65.9501 204.99 66.8101 203.01 66.8101H185.81V64.6601V64.6501Z" fill="white" style="fill:white;fill-opacity:1;"/>
</g>
<defs>
<clipPath id="clip0_37_280">
<rect width="284" height="69" fill="white" style="fill:white;fill-opacity:1;"/>
</clipPath>
</defs>
</svg>
