<svg width="313" height="75" viewBox="0 0 313 75" fill="none" xmlns="http://www.w3.org/2000/svg">
<g clip-path="url(#clip0_153_107)">
<path d="M18.4198 69.6902C27.5988 69.6902 35.0398 62.2447 35.0398 53.0602C35.0398 43.8757 27.5988 36.4302 18.4198 36.4302C9.24083 36.4302 1.7998 43.8757 1.7998 53.0602C1.7998 62.2447 9.24083 69.6902 18.4198 69.6902Z" fill="#FF0000" style="fill:#FF0000;fill:color(display-p3 1.0000 0.0000 0.0000);fill-opacity:1;"/>
<path d="M15.4897 50.4599H8.63965V56.3199H15.4897V63.1599H21.3196V56.3199H28.1996V50.4599H21.3196V43.6099H15.4897V50.4599Z" fill="white" style="fill:white;fill-opacity:1;"/>
<path fill-rule="evenodd" clip-rule="evenodd" d="M18.4201 34.3002C15.5301 28.6702 13.2001 27.2302 8.37015 24.0202C3.24015 20.6002 -0.919853 15.0302 0.960147 9.02015C3.51015 0.920153 13.7901 -0.679846 18.4201 6.22015C23.0501 -0.679846 33.3401 0.900154 35.8801 9.02015C37.7601 15.0302 33.6002 20.6002 28.4701 24.0202C23.6501 27.2302 21.3101 28.6702 18.4201 34.3002Z" fill="#FF0000" style="fill:#FF0000;fill:color(display-p3 1.0000 0.0000 0.0000);fill-opacity:1;"/>
<path d="M49.3205 32.51C48.3305 32.51 44.1205 32.55 42.2305 32.6V29.07C44.8105 28.98 45.2805 28.77 45.6305 28.38C45.8905 28.08 45.9705 27.52 45.9705 25.67V10.19C45.9705 8.93998 45.9705 8.03998 45.7105 7.77998C45.3205 7.30998 44.6405 7.12998 42.2305 6.91998V3.47998H62.9605C65.2005 3.47998 65.8805 4.42998 65.8805 5.79998C65.8805 7.25998 65.5805 10.49 65.4505 11.52H61.7505C61.3605 9.66998 61.0605 8.97998 60.6305 8.67998C60.2005 8.33998 59.4705 7.98998 57.5305 7.98998H52.5405V16.37H54.9505C56.4505 16.37 57.4405 16.28 57.9205 15.73C58.3105 15.3 58.6105 14.14 58.7805 13.15H61.8305C61.7905 14.23 61.7905 17.23 61.7905 18.44C61.7905 19.17 61.7905 22.01 61.8805 23.82H58.9105C58.7005 22.57 58.5205 21.63 58.0905 21.15C57.5705 20.55 56.5405 20.55 54.9505 20.55H52.5405V25.15C52.5405 27.08 52.7605 27.86 53.0605 28.16C53.4505 28.63 54.5205 28.98 57.1905 29.06V32.59C55.3405 32.55 50.4005 32.5 49.3205 32.5V32.51Z" fill="black" style="fill:black;fill-opacity:1;"/>
<path d="M76.4195 33.1498C70.3995 33.1498 66.2695 29.1898 66.2695 22.9998C66.2695 15.8198 70.8295 11.9498 76.9295 11.9498C83.0295 11.9498 85.6595 15.7798 85.6595 20.5498C85.6595 21.4498 85.4895 22.6098 85.0595 23.0898C84.5895 23.6098 83.7695 23.7398 82.9095 23.7398H72.4195V24.0798C72.4195 26.2298 74.1795 28.2498 77.5395 28.2498C79.5595 28.2498 81.7495 27.7298 84.3795 26.3998L86.1895 29.9298C83.8295 31.8598 80.2995 33.1498 76.4295 33.1498H76.4195ZM79.9095 19.7798V19.3498C79.9095 17.6698 78.8295 16.4298 76.5995 16.4298C74.5395 16.4298 72.6895 17.3798 72.4695 19.9598L79.9095 19.7898V19.7798ZM73.7095 8.98979L77.4095 2.92978C78.5695 1.16978 79.1295 0.779785 80.0295 0.779785C81.1495 0.779785 82.3095 1.63978 82.3095 2.92978C82.3095 3.74978 81.8395 4.42978 80.7995 5.50978L75.4295 10.4098L73.7095 8.98979Z" fill="black" style="fill:black;fill-opacity:1;"/>
<path d="M97.7197 33.0699C91.8697 33.0699 88.3896 28.9399 88.3896 23.3099C88.3896 16.9499 91.5696 12.0899 99.1796 12.0899C100.38 12.0899 102.19 12.3499 103.31 12.8599V9.50988C103.31 8.55988 103.22 7.52988 103.05 6.96988C102.92 6.23988 102.23 5.93988 101.37 5.93988C101.07 5.93988 100.64 5.97988 100.21 6.02988V2.71988C102.58 1.51988 105.16 1.12988 106.83 1.12988C108.85 1.12988 109.41 2.67989 109.41 4.30989C109.41 6.15989 109.32 11.2799 109.32 13.3799V26.5799C109.32 27.8299 109.71 28.6899 110.91 28.6899C111.25 28.6899 111.9 28.6499 112.46 28.5599V32.1699C110.61 32.7699 108.8 32.9399 107.77 32.9399C105.49 32.9399 104.5 32.1199 104.12 30.4499C102.44 32.2099 100.38 33.0699 97.7097 33.0699H97.7197ZM103.31 17.4599C102.45 16.9399 101.07 16.7299 99.9097 16.7299C96.7297 16.7299 94.6597 18.6599 94.6597 22.5799C94.6597 26.4999 96.6797 28.3399 99.6897 28.3399C101.07 28.3399 102.4 27.9099 103.3 27.1399V17.4699L103.31 17.4599Z" fill="black" style="fill:black;fill-opacity:1;"/>
<path d="M124.44 33.1498C118.42 33.1498 114.29 29.1898 114.29 22.9998C114.29 15.8198 118.85 11.9498 124.95 11.9498C131.05 11.9498 133.68 15.7798 133.68 20.5498C133.68 21.4498 133.51 22.6098 133.08 23.0898C132.61 23.6098 131.79 23.7398 130.93 23.7398H120.44V24.0798C120.44 26.2298 122.2 28.2498 125.56 28.2498C127.58 28.2498 129.77 27.7298 132.4 26.3998L134.21 29.9298C131.85 31.8598 128.32 33.1498 124.45 33.1498H124.44ZM127.93 19.7798V19.3498C127.93 17.6698 126.85 16.4298 124.62 16.4298C122.56 16.4298 120.71 17.3798 120.49 19.9598L127.93 19.7898V19.7798ZM121.74 8.98979L125.44 2.92978C126.6 1.16978 127.16 0.779785 128.06 0.779785C129.18 0.779785 130.34 1.63978 130.34 2.92978C130.34 3.74978 129.87 4.42978 128.83 5.50978L123.46 10.4098L121.74 8.98979Z" fill="black" style="fill:black;fill-opacity:1;"/>
<path d="M142.54 32.5098C141.51 32.5098 138.24 32.5098 136.3 32.5998V29.1598C138.28 28.9398 138.75 28.8198 139.09 28.4698C139.3 28.2098 139.43 27.6498 139.43 26.1498V20.0898C139.43 18.3298 139.17 17.6398 138.79 17.3798C138.45 17.1698 137.84 17.0798 137.37 17.0798C137.07 17.0798 136.64 17.0798 136.29 17.1198V13.7698C138.44 12.6898 140.68 12.1798 142.61 12.1798C143.9 12.1798 145.1 12.6498 145.36 14.8898C146.52 13.2998 148.58 12.0498 150.48 12.0498C152.03 12.0498 153.32 12.6498 153.32 14.7198C153.32 15.7098 153.15 17.2598 152.89 19.0598H149.28C149.02 17.3798 148.59 16.9498 147.69 16.9498C147 16.9498 146.06 17.3398 145.45 17.8498V26.0198C145.45 27.4798 145.62 28.2098 145.92 28.5598C146.26 28.9498 147.47 29.0798 149.02 29.1598V32.5998C147.13 32.5598 143.6 32.5098 142.53 32.5098H142.54Z" fill="black" style="fill:black;fill-opacity:1;"/>
<path d="M171.23 32.9399C169.73 32.9399 168.01 32.6799 167.4 30.5299C165.9 32.0299 163.79 33.0199 161.42 33.0199C158.15 33.0199 154.67 31.2099 154.67 26.9099C154.67 22.9499 157.29 20.7599 164.95 20.7599C165.34 20.7599 166.28 20.7599 166.76 20.8499V19.6899C166.76 18.5699 166.67 17.9699 166.37 17.4499C165.94 16.7199 164.95 16.4199 163.62 16.4199C162.55 16.4199 161.6 16.5899 161.04 17.0199C160.52 17.4099 160.27 18.1399 160.18 19.6899H156.65C156.48 18.7899 156.26 17.1999 156.26 16.0299C156.26 14.4799 157.03 13.5799 158.37 13.0199C159.75 12.4599 162.15 11.9399 164.09 11.9399C168.78 11.9399 170.41 12.9699 171.36 13.9999C172.22 14.9899 172.69 16.5799 172.69 18.8199C172.69 20.2399 172.65 25.6999 172.65 26.1699C172.65 28.1499 173.21 28.6599 174.24 28.6599C174.76 28.6599 175.19 28.6199 175.79 28.5299V32.1399C174.5 32.6099 172.48 32.9099 171.23 32.9099V32.9399ZM166.76 24.5499C166.37 24.4599 165.47 24.4199 165 24.4199C161.78 24.4199 160.79 25.2399 160.79 26.5699C160.79 28.2499 162.12 28.7599 163.33 28.7599C164.71 28.7599 165.95 28.3699 166.77 27.8999V24.5499H166.76Z" fill="black" style="fill:black;fill-opacity:1;"/>
<path d="M184.69 33.0699C181.47 33.0699 179.14 31.6499 179.14 27.1399C179.14 24.1699 179.23 20.8199 179.27 17.2499H175.92V13.9399C176.65 13.8099 177.42 13.5499 178.2 13.2099C178.72 12.9499 179.15 12.5199 179.36 12.0099C179.83 10.9299 179.92 10.2499 180.26 8.95994C180.56 7.70994 181.42 6.93994 182.97 6.93994C184.43 6.93994 185.29 7.49994 185.29 9.17994V13.2199C186.45 13.2199 188.17 13.2199 190.24 13.3499V17.1299C188.56 17.2199 186.76 17.2599 185.29 17.2599V22.5099C185.29 23.9699 185.29 25.2999 185.38 26.1599C185.55 27.6599 186.33 28.3499 187.7 28.3499C188.47 28.3499 189.55 28.3099 190.58 28.0499L191.35 31.6999C189.54 32.6899 186.66 33.0799 184.68 33.0799L184.69 33.0699Z" fill="black" style="fill:black;fill-opacity:1;"/>
<path d="M199.3 32.5101C198.27 32.5101 195 32.5101 193.07 32.6001V29.1601C195.05 28.9401 195.52 28.8201 195.86 28.4701C196.07 28.2101 196.2 27.6501 196.2 26.1501V20.0901C196.2 18.3301 195.94 17.6401 195.55 17.3801C195.21 17.1701 194.6 17.0801 194.13 17.0801C193.83 17.0801 193.4 17.0801 193.06 17.1201V13.7701C195.21 12.6901 197.49 12.1801 199.47 12.1801C201.02 12.1801 202.39 12.7801 202.39 15.5801C202.39 18.5901 202.22 22.5901 202.22 26.1101C202.22 27.6101 202.31 28.1701 202.61 28.5201C202.91 28.9101 203.68 29.0401 205.32 29.1701V32.6101C203.47 32.5701 200.37 32.5201 199.3 32.5201V32.5101ZM198.52 8.68012C196.41 8.68012 195.12 7.05012 195.12 5.15012C195.12 3.13012 196.54 1.62012 198.65 1.62012C201.14 1.62012 202.13 3.12012 202.13 5.06012C202.13 7.00012 200.84 8.67011 198.52 8.67011V8.68012Z" fill="black" style="fill:black;fill-opacity:1;"/>
<path d="M217.56 33.1502C210.29 33.1502 206.81 28.8102 206.81 22.6602C206.81 16.0402 211.37 11.9502 217.9 11.9502C225.04 11.9502 228.39 16.0302 228.39 22.2302C228.39 29.4502 223.62 33.1502 217.55 33.1502H217.56ZM217.6 16.6002C214.68 16.6002 213.09 18.5802 213.09 22.2302C213.09 26.8702 214.81 28.5102 217.6 28.5102C220.57 28.5102 222.16 26.7002 222.16 22.6202C222.16 18.3202 220.66 16.6002 217.6 16.6002Z" fill="black" style="fill:black;fill-opacity:1;"/>
<path d="M236.59 32.5101C235.56 32.5101 232.29 32.5101 230.36 32.6001V29.1601C232.34 28.9401 232.81 28.8201 233.15 28.4701C233.36 28.2101 233.49 27.6501 233.49 26.1501V20.0901C233.49 18.3301 233.23 17.6401 232.84 17.3801C232.5 17.1701 231.89 17.0801 231.42 17.0801C231.12 17.0801 230.69 17.0801 230.35 17.1201V13.7701C232.5 12.6901 234.74 12.1801 236.67 12.1801C238.05 12.1801 239.25 12.7401 239.46 15.1501C241.22 13.2201 244.19 12.1001 246.6 12.1001C248.32 12.1001 249.83 12.5701 250.73 13.4801C251.76 14.5101 252.19 16.2301 252.19 19.2401V26.1601C252.19 27.4101 252.23 27.9701 252.41 28.3101C252.67 28.7401 253.18 28.9101 255.33 29.1701V32.6101C253.52 32.5701 250.69 32.5201 249.74 32.5201C248.71 32.5201 245.48 32.5601 243.63 32.6101V29.1701C245.09 29.0001 245.48 28.8301 245.78 28.5201C246.08 28.2101 246.17 27.7001 246.17 26.0701V20.8201C246.17 19.3601 246.04 18.3701 245.53 17.8101C245.1 17.3401 244.28 17.1701 243.25 17.1701C242.22 17.1701 240.8 17.4701 239.51 18.0301V26.1101C239.51 27.5701 239.6 28.2201 239.9 28.5601C240.24 28.9001 240.67 29.0301 242.01 29.1601V32.6001C240.12 32.5601 237.67 32.5101 236.59 32.5101Z" fill="black" style="fill:black;fill-opacity:1;"/>
<path d="M46.8598 57.9498C47.2898 60.4398 47.9398 61.4798 48.5798 62.1598C49.5698 63.1498 51.6298 63.7098 53.9998 63.7098C57.1398 63.7098 58.6398 62.3798 58.6398 60.5698C58.6398 58.7598 57.7798 57.9498 56.0598 57.3398L50.5098 55.3198C44.7898 53.2598 43.8398 50.0698 43.8398 47.0598C43.8398 41.9898 47.4098 38.0698 55.4498 38.0698C57.8098 38.0698 60.7798 38.3698 62.5898 39.3598C63.7498 40.0498 64.1798 40.9498 64.1798 42.7998C64.1798 43.9198 64.0098 46.1998 63.8398 47.7398H60.4898C60.1498 45.3298 59.7198 44.2098 59.0298 43.5698C58.2998 42.9298 56.6198 42.7098 54.7698 42.7098C51.5898 42.7098 50.4698 44.0898 50.4698 45.7198C50.4698 47.0998 51.0698 48.1698 53.1798 48.9398L58.6398 50.9198C63.1498 52.5498 65.3898 54.9598 65.3898 59.0898C65.3898 65.3698 60.4898 68.3798 53.6098 68.3798C51.0298 68.3798 48.1098 67.9498 46.5198 67.2198C43.8498 66.0598 43.3398 64.5998 43.3398 62.2698C43.3398 60.5098 43.4698 58.9998 43.5998 57.9298H46.8699L46.8598 57.9498Z" fill="black" style="fill:black;fill-opacity:1;"/>
<path d="M76.2198 68.3199C73.6798 68.3199 71.7098 67.4599 70.7998 65.6999C70.1098 64.4499 69.8098 63.0299 69.8098 60.7099V55.3299C69.8098 53.5699 69.6398 52.8399 69.2498 52.6199C68.8198 52.3599 68.4798 52.3199 67.9198 52.3199C67.6598 52.3199 67.0598 52.3599 66.7998 52.3599V49.0099C68.9098 47.9399 71.1398 47.4199 73.1198 47.4199C74.7098 47.4199 75.9598 48.0699 75.9598 50.8599C75.9598 52.7499 75.8298 57.0499 75.8298 59.8899C75.8298 62.7299 77.2098 63.3299 78.8798 63.3299C80.3398 63.3299 81.6298 62.9399 82.6598 62.2999V55.3299C82.6598 53.5699 82.4498 52.8799 82.0098 52.6199C81.6698 52.4099 81.0598 52.3199 80.5898 52.3199C80.2898 52.3199 79.8998 52.3199 79.5198 52.3599V49.0099C81.5798 47.9399 84.0298 47.4199 85.9698 47.4199C87.5198 47.4199 88.8098 48.0699 88.8098 50.8999C88.8098 52.7499 88.6398 59.1099 88.6398 61.0499C88.6398 63.2899 88.8998 63.9299 90.3998 63.9299C90.7398 63.9299 91.2198 63.8899 91.7798 63.7999V67.3299C90.0598 68.0199 88.0398 68.2799 86.3998 68.2799C84.9398 68.2799 83.2598 67.5899 82.9198 65.4899C81.4198 67.1699 79.0098 68.3299 76.2098 68.3299L76.2198 68.3199Z" fill="black" style="fill:black;fill-opacity:1;"/>
<path d="M99.9602 67.7599C98.9302 67.7599 95.6602 67.7599 93.7202 67.8499V64.4099C95.7002 64.1899 96.1702 64.0699 96.5102 63.7199C96.7302 63.4599 96.8502 62.8999 96.8502 61.3999V55.3399C96.8502 53.5799 96.5902 52.8899 96.2002 52.6299C95.8602 52.4199 95.2502 52.3299 94.7802 52.3299C94.4802 52.3299 94.0502 52.3299 93.7002 52.3699V49.0199C95.8502 47.9499 98.1302 47.4299 100.11 47.4299C101.66 47.4299 103.03 48.0299 103.03 50.8299C103.03 53.8399 102.86 57.8399 102.86 61.3599C102.86 62.8599 102.95 63.4199 103.25 63.7699C103.55 64.1599 104.33 64.2899 105.96 64.4199V67.8599C104.11 67.8199 101.02 67.7699 99.9402 67.7699L99.9602 67.7599ZM99.1802 43.9399C97.0702 43.9399 95.7802 42.3099 95.7802 40.4099C95.7802 38.3899 97.2002 36.8799 99.3102 36.8799C101.8 36.8799 102.79 38.3799 102.79 40.3199C102.79 42.2599 101.5 43.9299 99.1802 43.9299V43.9399Z" fill="black" style="fill:black;fill-opacity:1;"/>
<path d="M111.69 60.1902C111.95 62.0002 112.51 62.6402 113.02 63.0702C113.84 63.8002 115 64.1002 116.68 64.1002C118.7 64.1002 119.47 63.5402 119.47 62.6802C119.47 61.8202 119.04 61.5202 117.97 61.1302L114.01 59.6702C109.41 57.9502 108.63 56.1902 108.63 53.5602C108.63 50.0802 111.68 47.2002 117.83 47.2002C119.64 47.2002 121.87 47.5002 123.21 48.1502C124.16 48.6202 124.67 49.4002 124.67 50.7702C124.67 51.5402 124.5 53.6102 124.33 54.6002H121.15C120.89 52.9202 120.55 52.4902 119.99 52.1102C119.43 51.7202 118.18 51.5102 116.98 51.5102C115.05 51.5102 114.57 52.2002 114.57 52.9702C114.57 53.7002 115 54.0502 116.16 54.4702L120.16 55.9302C124.59 57.5202 125.53 59.1602 125.53 61.9502C125.53 66.2902 121.45 68.4002 116.33 68.4002C114.44 68.4002 112.29 68.1402 111.08 67.7102C108.76 66.9402 108.29 65.3002 108.29 63.6702C108.29 62.2502 108.33 60.9602 108.46 60.1902H111.68H111.69Z" fill="black" style="fill:black;fill-opacity:1;"/>
<path d="M131.85 60.1902C132.11 62.0002 132.67 62.6402 133.18 63.0702C134 63.8002 135.16 64.1002 136.84 64.1002C138.86 64.1002 139.63 63.5402 139.63 62.6802C139.63 61.8202 139.2 61.5202 138.13 61.1302L134.17 59.6702C129.57 57.9502 128.79 56.1902 128.79 53.5602C128.79 50.0802 131.84 47.2002 137.99 47.2002C139.8 47.2002 142.03 47.5002 143.37 48.1502C144.32 48.6202 144.83 49.4002 144.83 50.7702C144.83 51.5402 144.66 53.6102 144.49 54.6002H141.31C141.05 52.9202 140.71 52.4902 140.15 52.1102C139.59 51.7202 138.34 51.5102 137.14 51.5102C135.21 51.5102 134.73 52.2002 134.73 52.9702C134.73 53.7002 135.16 54.0502 136.32 54.4702L140.32 55.9302C144.75 57.5202 145.7 59.1602 145.7 61.9502C145.7 66.2902 141.62 68.4002 136.5 68.4002C134.61 68.4002 132.46 68.1402 131.25 67.7102C128.93 66.9402 128.46 65.3002 128.46 63.6702C128.46 62.2502 128.5 60.9602 128.63 60.1902H131.85Z" fill="black" style="fill:black;fill-opacity:1;"/>
<path d="M158.44 68.4002C152.42 68.4002 148.29 64.4402 148.29 58.2502C148.29 51.0702 152.85 47.2002 158.95 47.2002C165.05 47.2002 167.68 51.0302 167.68 55.8002C167.68 56.7002 167.51 57.8602 167.08 58.3402C166.61 58.8602 165.79 58.9902 164.93 58.9902H154.44V59.3302C154.44 61.4802 156.2 63.5002 159.56 63.5002C161.58 63.5002 163.77 62.9802 166.4 61.6502L168.21 65.1802C165.84 67.1102 162.32 68.4002 158.45 68.4002H158.44ZM161.92 55.0302V54.6002C161.92 52.9202 160.84 51.6802 158.61 51.6802C156.55 51.6802 154.7 52.6302 154.48 55.2102L161.92 55.0402V55.0302Z" fill="black" style="fill:black;fill-opacity:1;"/>
<path d="M189.44 68.3199C183.59 68.3199 180.11 64.1899 180.11 58.5599C180.11 52.1999 183.29 47.3399 190.9 47.3399C192.1 47.3399 193.91 47.5999 195.03 48.1099V44.7599C195.03 43.8099 194.94 42.7799 194.77 42.2199C194.64 41.4899 193.95 41.1899 193.09 41.1899C192.79 41.1899 192.36 41.2299 191.93 41.2799V37.9699C194.29 36.7699 196.87 36.3799 198.55 36.3799C200.57 36.3799 201.13 37.9299 201.13 39.5599C201.13 41.4099 201.04 46.5299 201.04 48.6299V61.8299C201.04 63.0799 201.43 63.9399 202.63 63.9399C202.97 63.9399 203.62 63.8999 204.18 63.8099V67.4199C202.33 68.0199 200.52 68.1899 199.49 68.1899C197.21 68.1899 196.22 67.3699 195.84 65.6999C194.16 67.4599 192.1 68.3199 189.43 68.3199H189.44ZM195.03 52.7099C194.17 52.1899 192.79 51.9799 191.63 51.9799C188.45 51.9799 186.38 53.9099 186.38 57.8299C186.38 61.7499 188.4 63.5899 191.41 63.5899C192.79 63.5899 194.12 63.1599 195.02 62.3899V52.7199L195.03 52.7099Z" fill="black" style="fill:black;fill-opacity:1;"/>
<path d="M216.17 68.4002C210.15 68.4002 206.02 64.4402 206.02 58.2502C206.02 51.0702 210.58 47.2002 216.68 47.2002C222.78 47.2002 225.41 51.0302 225.41 55.8002C225.41 56.7002 225.24 57.8602 224.81 58.3402C224.34 58.8602 223.52 58.9902 222.66 58.9902H212.17V59.3302C212.17 61.4802 213.93 63.5002 217.29 63.5002C219.31 63.5002 221.5 62.9802 224.13 61.6502L225.94 65.1802C223.57 67.1102 220.05 68.4002 216.18 68.4002H216.17ZM219.65 55.0302V54.6002C219.65 52.9202 218.57 51.6802 216.34 51.6802C214.28 51.6802 212.43 52.6302 212.21 55.2102L219.65 55.0402V55.0302Z" fill="black" style="fill:black;fill-opacity:1;"/>
<path d="M236.12 71.4499C237.88 70.4199 239.47 68.9999 240.03 67.6199C240.63 66.1199 240.93 63.8799 240.93 60.5699V45.3899C240.93 43.8399 240.89 43.1999 240.63 42.8999C240.33 42.4699 239.55 42.2999 237.15 42.1699V38.6899C238.35 38.7299 241.79 38.8199 244.2 38.8199C246.61 38.8199 249.4 38.7299 251.12 38.6899V42.1699C248.45 42.2999 248.15 42.5599 247.85 42.9399C247.64 43.2399 247.51 43.7099 247.51 45.4299V60.4799C247.51 64.0899 247.12 66.7599 245.62 69.1699C244.16 71.5399 240.98 73.6399 238.01 74.7599L236.12 71.4499Z" fill="black" style="fill:black;fill-opacity:1;"/>
<path d="M268.54 68.1899C267.04 68.1899 265.32 67.9299 264.71 65.7799C263.21 67.2799 261.1 68.2699 258.73 68.2699C255.46 68.2699 251.98 66.4599 251.98 62.1599C251.98 58.1999 254.6 56.0099 262.26 56.0099C262.65 56.0099 263.59 56.0099 264.07 56.0999V54.9399C264.07 53.8199 263.98 53.2199 263.68 52.6999C263.25 51.9699 262.26 51.6699 260.93 51.6699C259.86 51.6699 258.91 51.8399 258.35 52.2699C257.83 52.6599 257.58 53.3899 257.49 54.9399H253.96C253.79 54.0399 253.57 52.4499 253.57 51.2799C253.57 49.7299 254.34 48.8299 255.68 48.2699C257.06 47.7099 259.46 47.1899 261.4 47.1899C266.09 47.1899 267.72 48.2199 268.67 49.2499C269.53 50.2399 270 51.8299 270 54.0699C270 55.4899 269.96 60.9499 269.96 61.4199C269.96 63.3999 270.52 63.9099 271.55 63.9099C272.07 63.9099 272.5 63.8699 273.1 63.7799V67.3899C271.81 67.8599 269.79 68.1599 268.54 68.1599V68.1899ZM264.07 59.7999C263.68 59.7099 262.78 59.6699 262.31 59.6699C259.09 59.6699 258.1 60.4899 258.1 61.8199C258.1 63.4999 259.43 64.0099 260.64 64.0099C262.02 64.0099 263.26 63.6199 264.08 63.1499V59.7999H264.07Z" fill="black" style="fill:black;fill-opacity:1;"/>
<path d="M278.76 60.1902C279.02 62.0002 279.58 62.6402 280.09 63.0702C280.91 63.8002 282.07 64.1002 283.74 64.1002C285.76 64.1002 286.53 63.5402 286.53 62.6802C286.53 61.8202 286.1 61.5202 285.03 61.1302L281.07 59.6702C276.47 57.9502 275.69 56.1902 275.69 53.5602C275.69 50.0802 278.74 47.2002 284.89 47.2002C286.7 47.2002 288.93 47.5002 290.27 48.1502C291.22 48.6202 291.73 49.4002 291.73 50.7702C291.73 51.5402 291.56 53.6102 291.39 54.6002H288.21C287.95 52.9202 287.61 52.4902 287.05 52.1102C286.49 51.7202 285.24 51.5102 284.04 51.5102C282.11 51.5102 281.63 52.2002 281.63 52.9702C281.63 53.7002 282.06 54.0502 283.22 54.4702L287.22 55.9302C291.65 57.5202 292.6 59.1602 292.6 61.9502C292.6 66.2902 288.52 68.4002 283.4 68.4002C281.51 68.4002 279.36 68.1402 278.15 67.7102C275.83 66.9402 275.36 65.3002 275.36 63.6702C275.36 62.2502 275.4 60.9602 275.53 60.1902H278.76Z" fill="black" style="fill:black;fill-opacity:1;"/>
<path d="M298.92 60.1902C299.18 62.0002 299.74 62.6402 300.25 63.0702C301.07 63.8002 302.23 64.1002 303.9 64.1002C305.92 64.1002 306.69 63.5402 306.69 62.6802C306.69 61.8202 306.26 61.5202 305.19 61.1302L301.23 59.6702C296.63 57.9502 295.85 56.1902 295.85 53.5602C295.85 50.0802 298.9 47.2002 305.05 47.2002C306.86 47.2002 309.09 47.5002 310.43 48.1502C311.38 48.6202 311.89 49.4002 311.89 50.7702C311.89 51.5402 311.72 53.6102 311.55 54.6002H308.37C308.11 52.9202 307.77 52.4902 307.21 52.1102C306.65 51.7202 305.4 51.5102 304.2 51.5102C302.27 51.5102 301.79 52.2002 301.79 52.9702C301.79 53.7002 302.22 54.0502 303.38 54.4702L307.38 55.9302C311.81 57.5202 312.76 59.1602 312.76 61.9502C312.76 66.2902 308.68 68.4002 303.56 68.4002C301.67 68.4002 299.52 68.1402 298.31 67.7102C295.99 66.9402 295.52 65.3002 295.52 63.6702C295.52 62.2502 295.56 60.9602 295.69 60.1902H298.92Z" fill="black" style="fill:black;fill-opacity:1;"/>
</g>
<defs>
<clipPath id="clip0_153_107">
<rect width="313" height="75" fill="white" style="fill:white;fill-opacity:1;"/>
</clipPath>
</defs>
</svg>
