<svg width="284" height="69" viewBox="0 0 284 69" fill="none" xmlns="http://www.w3.org/2000/svg">
<g clip-path="url(#clip0_37_323)">
<path d="M18.2601 68.9304C27.4391 68.9304 34.8801 61.4849 34.8801 52.3004C34.8801 43.1159 27.4391 35.6704 18.2601 35.6704C9.08116 35.6704 1.64014 43.1159 1.64014 52.3004C1.64014 61.4849 9.08116 68.9304 18.2601 68.9304Z" fill="#FF0000" style="fill:#FF0000;fill:color(display-p3 1.0000 0.0000 0.0000);fill-opacity:1;"/>
<path d="M15.33 49.7001H8.47998V55.5601H15.33V62.4001H21.16V55.5601H28.05V49.7001H21.16V42.8501H15.33V49.7001Z" fill="white" style="fill:white;fill-opacity:1;"/>
<path fill-rule="evenodd" clip-rule="evenodd" d="M18.26 33.5404C15.37 27.9104 13.04 26.4704 8.20999 23.2604C3.07999 19.8404 -1.08001 14.2704 0.799991 8.26039C3.34999 0.160388 13.63 -1.43961 18.26 5.46039C22.89 -1.43961 33.18 0.140388 35.72 8.26039C37.6 14.2704 33.44 19.8404 28.31 23.2604C23.49 26.4704 21.15 27.9104 18.26 33.5404Z" fill="#FF0000" style="fill:#FF0000;fill:color(display-p3 1.0000 0.0000 0.0000);fill-opacity:1;"/>
<path d="M40.9102 35.4402C42.6702 34.4102 44.2602 32.9902 44.8202 31.6102C45.4202 30.1102 45.7202 27.8702 45.7202 24.5602V9.38017C45.7202 7.83017 45.6802 7.19018 45.4202 6.89018C45.1202 6.46018 44.3502 6.29017 41.9402 6.16017V2.68018C43.1402 2.72018 46.5802 2.81017 48.9902 2.81017C51.4002 2.81017 54.1902 2.72018 55.9102 2.68018V6.16017C53.2402 6.29017 52.9402 6.55017 52.6402 6.93017C52.4202 7.23017 52.3002 7.70018 52.3002 9.42018V24.4702C52.3002 28.0802 51.9102 30.7502 50.4102 33.1602C48.9502 35.5302 45.7702 37.6302 42.8002 38.7502L40.9102 35.4402Z" fill="black" style="fill:black;fill-opacity:1;"/>
<path d="M73.33 32.1802C71.83 32.1802 70.1 31.9202 69.5 29.7702C68 31.2702 65.89 32.2602 63.52 32.2602C60.25 32.2602 56.77 30.4502 56.77 26.1502C56.77 22.1902 59.39 20.0002 67.05 20.0002C67.44 20.0002 68.38 20.0002 68.86 20.0902V18.9302C68.86 17.8102 68.77 17.2102 68.47 16.6902C68.04 15.9602 67.05 15.6602 65.72 15.6602C64.64 15.6602 63.7 15.8302 63.14 16.2602C62.62 16.6502 62.37 17.3802 62.28 18.9302H58.75C58.58 18.0302 58.36 16.4402 58.36 15.2702C58.36 13.7202 59.13 12.8202 60.47 12.2602C61.85 11.7002 64.25 11.1802 66.19 11.1802C70.88 11.1802 72.51 12.2102 73.46 13.2402C74.32 14.2302 74.79 15.8202 74.79 18.0602C74.79 19.4802 74.75 24.9402 74.75 25.4102C74.75 27.3902 75.31 27.9002 76.34 27.9002C76.86 27.9002 77.29 27.8602 77.89 27.7702V31.3802C76.6 31.8502 74.58 32.1502 73.33 32.1502V32.1802ZM68.86 23.7902C68.47 23.7002 67.57 23.6602 67.1 23.6602C63.87 23.6602 62.89 24.4802 62.89 25.8102C62.89 27.4902 64.22 28.0002 65.43 28.0002C66.81 28.0002 68.05 27.6102 68.87 27.1402V23.7902H68.86Z" fill="black" style="fill:black;fill-opacity:1;"/>
<path d="M83.5501 24.1804C83.8101 25.9904 84.3701 26.6304 84.8801 27.0604C85.7001 27.7904 86.8601 28.0904 88.5401 28.0904C90.5601 28.0904 91.3301 27.5304 91.3301 26.6704C91.3301 25.8104 90.9001 25.5104 89.8201 25.1204L85.8601 23.6604C81.2601 21.9404 80.4801 20.1804 80.4801 17.5504C80.4801 14.0704 83.5301 11.1904 89.6801 11.1904C91.4901 11.1904 93.7201 11.4904 95.0601 12.1404C96.0101 12.6104 96.5201 13.3904 96.5201 14.7604C96.5201 15.5304 96.3501 17.6004 96.1801 18.5904H93.0001C92.7401 16.9104 92.4001 16.4804 91.8401 16.1004C91.2801 15.7104 90.0301 15.5004 88.8301 15.5004C86.8901 15.5004 86.4201 16.1904 86.4201 16.9604C86.4201 17.6904 86.8501 18.0404 88.0101 18.4604L92.0101 19.9204C96.4401 21.5104 97.3801 23.1504 97.3801 25.9404C97.3801 30.2804 93.3001 32.3904 88.1801 32.3904C86.2901 32.3904 84.1401 32.1304 82.9301 31.7004C80.6101 30.9304 80.1401 29.2904 80.1401 27.6604C80.1401 26.2404 80.1801 24.9504 80.3101 24.1804H83.5301H83.5501Z" fill="black" style="fill:black;fill-opacity:1;"/>
<path d="M103.71 24.1804C103.97 25.9904 104.53 26.6304 105.04 27.0604C105.86 27.7904 107.02 28.0904 108.69 28.0904C110.71 28.0904 111.49 27.5304 111.49 26.6704C111.49 25.8104 111.06 25.5104 109.98 25.1204L106.02 23.6604C101.42 21.9404 100.64 20.1804 100.64 17.5504C100.64 14.0704 103.69 11.1904 109.84 11.1904C111.65 11.1904 113.88 11.4904 115.22 12.1404C116.17 12.6104 116.68 13.3904 116.68 14.7604C116.68 15.5304 116.51 17.6004 116.34 18.5904H113.16C112.9 16.9104 112.56 16.4804 112 16.1004C111.44 15.7104 110.19 15.5004 108.99 15.5004C107.05 15.5004 106.58 16.1904 106.58 16.9604C106.58 17.6904 107.01 18.0404 108.17 18.4604L112.17 19.9204C116.6 21.5104 117.54 23.1504 117.54 25.9404C117.54 30.2804 113.46 32.3904 108.34 32.3904C106.45 32.3904 104.3 32.1304 103.09 31.7004C100.77 30.9304 100.3 29.2904 100.3 27.6604C100.3 26.2404 100.34 24.9504 100.47 24.1804H103.69H103.71Z" fill="black" style="fill:black;fill-opacity:1;"/>
<path d="M141.39 15.8803C140.92 16.3503 140.53 17.0003 139.97 18.2503L134.38 30.8503C133.86 31.9703 132.75 32.5703 131.33 32.5703C129.7 32.5703 128.62 32.0103 128.1 30.8103L122.64 18.3403C122.08 17.0503 121.65 16.2303 121.14 15.8503C120.8 15.5503 119.89 15.3803 119.16 15.3303V11.8003C120.62 11.8403 125.35 11.8903 126.43 11.8903C127.51 11.8903 129.83 11.8503 131.37 11.8003V15.3303C130.94 15.3703 130.25 15.4603 129.82 15.5403C129.13 15.6703 128.83 16.1403 128.83 16.7003C128.83 17.1303 129 17.7303 129.26 18.4203C130.42 21.1303 131.54 23.8003 132.49 26.3303C133.39 23.9203 134.55 20.9503 135.59 18.3303C135.85 17.7303 136.06 16.9103 136.06 16.4003C136.06 15.9303 135.76 15.6303 135.29 15.5403C134.6 15.4103 134.17 15.3703 133.48 15.3303V11.8003C134.9 11.8403 137.44 11.8903 138.38 11.8903C139.2 11.8903 141.99 11.8503 143.32 11.8003V15.3303C142.59 15.4203 141.82 15.5003 141.39 15.8903V15.8803Z" fill="black" style="fill:black;fill-opacity:1;"/>
<path d="M154.77 32.3904C148.75 32.3904 144.62 28.4304 144.62 22.2404C144.62 15.0604 149.18 11.1904 155.28 11.1904C161.38 11.1904 164.01 15.0204 164.01 19.7904C164.01 20.6904 163.84 21.8504 163.41 22.3304C162.94 22.8504 162.12 22.9804 161.26 22.9804H150.77V23.3204C150.77 25.4704 152.53 27.4904 155.89 27.4904C157.91 27.4904 160.1 26.9704 162.73 25.6404L164.54 29.1704C162.17 31.1004 158.65 32.3904 154.78 32.3904H154.77ZM158.25 19.0204V18.5904C158.25 16.9104 157.17 15.6704 154.94 15.6704C152.88 15.6704 151.03 16.6204 150.81 19.2004L158.25 19.0304V19.0204Z" fill="black" style="fill:black;fill-opacity:1;"/>
<path d="M172.87 31.75C171.84 31.75 168.57 31.75 166.64 31.84V28.4C168.62 28.18 169.09 28.06 169.43 27.71C169.64 27.45 169.77 26.89 169.77 25.39V19.33C169.77 17.57 169.51 16.88 169.12 16.62C168.78 16.41 168.17 16.32 167.7 16.32C167.4 16.32 166.97 16.32 166.63 16.36V13.01C168.78 11.94 171.02 11.42 172.95 11.42C174.24 11.42 175.44 11.89 175.7 14.13C176.86 12.54 178.93 11.29 180.82 11.29C182.37 11.29 183.66 11.89 183.66 13.96C183.66 14.95 183.49 16.5 183.23 18.3H179.62C179.36 16.62 178.93 16.19 178.03 16.19C177.34 16.19 176.4 16.58 175.79 17.09V25.26C175.79 26.72 175.96 27.45 176.26 27.8C176.6 28.19 177.81 28.32 179.36 28.4V31.84C177.47 31.8 173.94 31.75 172.87 31.75Z" fill="black" style="fill:black;fill-opacity:1;"/>
<path d="M186.78 25.1204V9.73035C186.78 6.94035 186.69 5.95035 186.26 5.56035C185.87 5.26035 185.31 5.17035 184.76 5.17035C184.5 5.17035 184.07 5.21035 183.73 5.26035V1.95035C186.1 0.83035 188.12 0.360352 190.35 0.360352C192.2 0.360352 192.89 1.52035 192.89 3.76035C192.89 7.03035 192.89 9.91035 192.85 13.8603C194.53 12.4003 196.81 11.1904 199.69 11.1904C205.32 11.1904 207.47 15.4904 207.47 21.1704C207.47 27.5304 203.64 32.1803 196.03 32.1803C193.36 32.1803 188.89 31.6604 186.74 30.7204C186.78 28.7004 186.78 26.3804 186.78 25.1304V25.1204ZM196.2 27.3204C199.47 27.3204 200.97 24.8703 200.97 21.7703C200.97 18.1603 199.64 15.9704 196.76 15.9704C195.34 15.9704 194.05 16.3103 192.8 17.0403V26.8904C193.83 27.1904 194.99 27.3204 196.2 27.3204Z" fill="black" style="fill:black;fill-opacity:1;"/>
<path d="M226.37 32.1802C224.87 32.1802 223.15 31.9202 222.54 29.7702C221.04 31.2702 218.93 32.2602 216.56 32.2602C213.29 32.2602 209.81 30.4502 209.81 26.1502C209.81 22.1902 212.43 20.0002 220.09 20.0002C220.48 20.0002 221.42 20.0002 221.9 20.0902V18.9302C221.9 17.8102 221.81 17.2102 221.51 16.6902C221.08 15.9602 220.09 15.6602 218.76 15.6602C217.69 15.6602 216.74 15.8302 216.18 16.2602C215.66 16.6502 215.41 17.3802 215.32 18.9302H211.79C211.62 18.0302 211.4 16.4402 211.4 15.2702C211.4 13.7202 212.17 12.8202 213.51 12.2602C214.89 11.7002 217.29 11.1802 219.23 11.1802C223.92 11.1802 225.55 12.2102 226.5 13.2402C227.36 14.2302 227.83 15.8202 227.83 18.0602C227.83 19.4802 227.79 24.9402 227.79 25.4102C227.79 27.3902 228.35 27.9002 229.38 27.9002C229.9 27.9002 230.33 27.8602 230.93 27.7702V31.3802C229.64 31.8502 227.62 32.1502 226.37 32.1502V32.1802ZM221.89 23.7902C221.5 23.7002 220.6 23.6602 220.13 23.6602C216.91 23.6602 215.92 24.4802 215.92 25.8102C215.92 27.4902 217.25 28.0002 218.46 28.0002C219.84 28.0002 221.08 27.6102 221.9 27.1402V23.7902H221.89Z" fill="black" style="fill:black;fill-opacity:1;"/>
<path d="M239.08 31.7503C238.05 31.7503 234.78 31.7503 232.85 31.8403V28.4003C234.83 28.1803 235.3 28.0603 235.64 27.7103C235.85 27.4503 235.98 26.8903 235.98 25.3903V19.3303C235.98 17.5703 235.72 16.8803 235.33 16.6203C234.99 16.4103 234.38 16.3203 233.91 16.3203C233.61 16.3203 233.18 16.3203 232.84 16.3603V13.0103C234.99 11.9403 237.23 11.4203 239.16 11.4203C240.54 11.4203 241.74 11.9803 241.95 14.3903C243.71 12.4603 246.68 11.3403 249.09 11.3403C250.81 11.3403 252.32 11.8103 253.22 12.7203C254.25 13.7503 254.68 15.4703 254.68 18.4803V25.4003C254.68 26.6503 254.72 27.2103 254.89 27.5503C255.15 27.9803 255.66 28.1503 257.81 28.4103V31.8503C256 31.8103 253.17 31.7603 252.22 31.7603C251.19 31.7603 247.96 31.8003 246.11 31.8503V28.4103C247.57 28.2403 247.96 28.0703 248.26 27.7603C248.56 27.4503 248.65 26.9403 248.65 25.3103V20.0603C248.65 18.6003 248.52 17.6103 248.01 17.0503C247.58 16.5803 246.76 16.4103 245.73 16.4103C244.7 16.4103 243.28 16.7103 241.99 17.2703V25.3503C241.99 26.8103 242.08 27.4603 242.38 27.8003C242.72 28.1403 243.15 28.2703 244.49 28.4003V31.8403C242.6 31.8003 240.15 31.7503 239.07 31.7503H239.08Z" fill="black" style="fill:black;fill-opacity:1;"/>
<path d="M268.81 32.3004C262.96 32.3004 259.48 28.1704 259.48 22.5403C259.48 16.1803 262.66 11.3204 270.27 11.3204C271.47 11.3204 273.28 11.5803 274.4 12.0903V8.74035C274.4 7.79035 274.31 6.76035 274.14 6.20035C274.01 5.47035 273.32 5.17035 272.46 5.17035C272.16 5.17035 271.73 5.21035 271.3 5.26035V1.95035C273.66 0.75035 276.24 0.360352 277.92 0.360352C279.94 0.360352 280.5 1.91035 280.5 3.54035C280.5 5.39035 280.41 10.5103 280.41 12.6103V25.8104C280.41 27.0604 280.8 27.9204 282 27.9204C282.34 27.9204 282.99 27.8803 283.55 27.7903V31.4004C281.7 32.0004 279.89 32.1704 278.86 32.1704C276.58 32.1704 275.59 31.3503 275.21 29.6803C273.53 31.4403 271.47 32.3004 268.8 32.3004H268.81ZM274.4 16.7003C273.54 16.1803 272.16 15.9704 271 15.9704C267.82 15.9704 265.75 17.9004 265.75 21.8204C265.75 25.7404 267.77 27.5804 270.78 27.5804C272.16 27.5804 273.49 27.1504 274.39 26.3804V16.7104L274.4 16.7003Z" fill="black" style="fill:black;fill-opacity:1;"/>
<path d="M46.7102 57.1901C47.1402 59.6801 47.7902 60.7201 48.4302 61.4001C49.4202 62.3901 51.4802 62.9501 53.8502 62.9501C56.9902 62.9501 58.4902 61.6201 58.4902 59.8101C58.4902 58.0001 57.6302 57.1901 55.9102 56.5801L50.3602 54.5601C44.6402 52.5001 43.7002 49.3101 43.7002 46.3001C43.7002 41.2301 47.2702 37.3101 55.3102 37.3101C57.6702 37.3101 60.6402 37.6101 62.4502 38.6001C63.6102 39.2901 64.0402 40.1901 64.0402 42.0401C64.0402 43.1601 63.8702 45.4401 63.7002 46.9801H60.3502C60.0102 44.5701 59.5802 43.4501 58.8902 42.8101C58.1602 42.1701 56.4802 41.9501 54.6302 41.9501C51.4502 41.9501 50.3302 43.3301 50.3302 44.9601C50.3302 46.3401 50.9302 47.4101 53.0402 48.1801L58.5002 50.1601C63.0202 51.7901 65.2502 54.2001 65.2502 58.3301C65.2502 64.6101 60.3502 67.6201 53.4702 67.6201C50.8902 67.6201 47.9702 67.1901 46.3802 66.4601C43.7102 65.3001 43.2002 63.8401 43.2002 61.5101C43.2002 59.7501 43.3302 58.2401 43.4602 57.1701H46.7302L46.7102 57.1901Z" fill="black" style="fill:black;fill-opacity:1;"/>
<path d="M78.0801 67.6402C72.3601 67.6402 68.1001 63.9002 68.1001 57.5402C68.1001 50.4902 72.6601 46.4502 78.9401 46.4502C80.4001 46.4502 82.2501 46.6602 83.4101 47.0102C85.0901 47.5302 86.0301 48.2102 86.0301 49.8902C86.0301 50.9202 85.9401 52.7302 85.6901 54.1902H82.0301C81.9001 52.6402 81.5101 51.9102 81.0801 51.5702C80.6501 51.2302 79.7901 51.1002 78.8901 51.1002C76.5201 51.1002 74.3701 52.7302 74.3701 57.0802C74.3701 61.4302 76.7401 62.8002 79.4401 62.8002C81.3301 62.8002 83.2201 62.1502 84.9401 61.2102L86.7001 64.6902C84.4201 66.5802 81.0701 67.6602 78.0601 67.6602L78.0801 67.6402Z" fill="black" style="fill:black;fill-opacity:1;"/>
<path d="M94.9698 67.0004C93.9798 67.0004 90.7098 67.0003 88.7798 67.0903V63.6504C90.7598 63.4304 91.2298 63.3104 91.5298 62.9604C91.7398 62.7004 91.8698 62.1904 91.8698 60.6804V44.7703C91.8698 42.1003 91.7398 41.2003 91.2698 40.8103C90.9298 40.5103 90.3198 40.4203 89.8098 40.4203C89.5498 40.4203 89.1198 40.4603 88.7798 40.5103V37.2003C91.1398 36.0803 93.1698 35.6104 95.3598 35.6104C97.2098 35.6104 97.9798 36.7703 97.9798 39.0103C97.9798 42.3203 97.8898 45.6703 97.8898 49.6303C99.6498 47.7003 102.62 46.5803 105.03 46.5803C106.75 46.5803 108.21 47.1004 109.11 47.9604C110.18 48.9904 110.61 50.7104 110.61 53.7204V60.6404C110.61 61.8904 110.65 62.4504 110.82 62.7904C111.03 63.2204 111.59 63.3904 113.74 63.6504V67.0903C111.93 67.0503 109.1 67.0004 108.15 67.0004C107.12 67.0004 103.89 67.0403 102 67.0903V63.6504C103.5 63.4804 103.94 63.3104 104.19 62.9604C104.41 62.7504 104.53 62.1903 104.53 60.5503V55.3003C104.53 53.8403 104.4 52.8504 103.93 52.2904C103.5 51.8204 102.68 51.6504 101.65 51.6504C100.62 51.6504 99.1998 51.9503 97.9098 52.5103V60.5903C97.9098 62.0503 97.9498 62.7404 98.2498 63.0404C98.5898 63.3804 99.0198 63.5104 100.36 63.6404V67.0803C98.4698 67.0403 96.0598 66.9903 94.9398 66.9903L94.9698 67.0004Z" fill="black" style="fill:black;fill-opacity:1;"/>
<path d="M146.43 50.9604C145.87 51.1704 145.61 51.8205 145.18 53.1105L141.05 66.0104C140.66 67.2104 139.59 67.8204 138.08 67.8204C136.49 67.8204 135.46 67.2604 135.03 66.0104C133.48 61.4504 132.24 57.7504 131.29 54.7404C130.26 57.8804 129.01 61.5804 127.21 66.0904C126.74 67.2104 125.62 67.8104 124.24 67.8104C122.56 67.8104 121.53 67.2904 121.1 66.0504L116.8 52.9404C116.63 52.4704 116.37 51.6105 115.94 51.1805C115.55 50.7505 114.99 50.6604 113.83 50.5804V47.0504C115.77 47.1404 118.73 47.1404 119.63 47.1404C120.71 47.1404 123.93 47.1404 126.08 47.0504V50.5804C125.35 50.6204 124.83 50.7105 124.23 50.7905C123.54 50.8805 123.15 51.2204 123.15 51.8204C123.15 52.2504 123.28 52.9404 123.41 53.4104C124.1 55.9904 124.91 58.7004 125.47 60.8904C126.5 57.7104 128.05 53.1105 129.47 49.1105C129.9 47.9505 130.5 46.9604 132.44 46.9604C134.2 46.9604 134.68 47.8204 135.15 49.0704C136.65 53.1504 137.99 57.2004 139.11 60.5904C139.67 58.4004 140.4 55.6004 141 53.4104C141.17 52.8104 141.3 52.1204 141.3 51.7804C141.3 51.1804 140.91 50.9204 140.57 50.8304C140.01 50.7004 139.32 50.6604 138.33 50.5704V47.0405C140.14 47.1305 143.02 47.1304 144.01 47.1304C144.83 47.1304 146.55 47.1305 148.18 47.0405V50.5704C147.32 50.6604 146.85 50.7404 146.42 50.9604H146.43Z" fill="black" style="fill:black;fill-opacity:1;"/>
<path d="M159.76 67.6404C153.74 67.6404 149.61 63.6804 149.61 57.4904C149.61 50.3104 154.17 46.4404 160.27 46.4404C166.37 46.4404 169 50.2704 169 55.0404C169 55.9404 168.83 57.1004 168.4 57.5804C167.93 58.1004 167.11 58.2304 166.25 58.2304H155.76V58.5704C155.76 60.7204 157.52 62.7404 160.88 62.7404C162.9 62.7404 165.09 62.2204 167.72 60.8904L169.53 64.4204C167.16 66.3504 163.64 67.6404 159.77 67.6404H159.76ZM163.24 54.2704V53.8404C163.24 52.1604 162.16 50.9204 159.93 50.9204C157.87 50.9204 156.02 51.8704 155.8 54.4504L163.24 54.2804V54.2704Z" fill="black" style="fill:black;fill-opacity:1;"/>
<path d="M177.86 67.0001C176.83 67.0001 173.56 67.0001 171.63 67.0901V63.6501C173.61 63.4301 174.08 63.3101 174.42 62.9601C174.63 62.7001 174.76 62.1401 174.76 60.6401V54.5801C174.76 52.8201 174.5 52.1301 174.11 51.8701C173.77 51.6601 173.16 51.5701 172.69 51.5701C172.39 51.5701 171.96 51.5701 171.62 51.6101V48.2601C173.77 47.1901 176.05 46.6701 178.03 46.6701C179.58 46.6701 180.95 47.2701 180.95 50.0701C180.95 53.0801 180.78 57.0801 180.78 60.6001C180.78 62.1001 180.87 62.6601 181.17 63.0101C181.47 63.4001 182.24 63.5301 183.88 63.6601V67.1001C182.03 67.0601 178.93 67.0101 177.86 67.0101V67.0001ZM177.08 43.1801C174.97 43.1801 173.68 41.5501 173.68 39.6501C173.68 37.6301 175.1 36.1201 177.21 36.1201C179.7 36.1201 180.69 37.6201 180.69 39.5601C180.69 41.5001 179.4 43.1701 177.08 43.1701V43.1801Z" fill="black" style="fill:black;fill-opacity:1;"/>
<path d="M185.81 64.8903L196.82 50.7003C194.41 50.7003 193.34 50.7003 192.26 50.7903C191.49 50.8803 190.93 51.1303 190.63 51.7403C190.29 52.3803 190.16 53.1603 189.94 54.4503H186.54C186.41 53.3303 186.24 51.3503 186.24 49.8903C186.24 48.2603 187.01 47.0903 188.99 47.0903H205.16V49.4603L194.15 63.5203C195.48 63.5603 196.47 63.5603 197.33 63.5603C199.14 63.5603 200.25 63.3503 200.9 63.0903C201.37 62.9203 201.93 62.1903 202.19 61.5903C202.49 60.9903 202.84 60.1303 203.05 59.1403H206.19C206.19 60.0403 206.06 63.1403 205.85 65.1203C205.72 66.1903 204.99 67.0503 203.01 67.0503H185.81V64.9003V64.8903Z" fill="black" style="fill:black;fill-opacity:1;"/>
</g>
<defs>
<clipPath id="clip0_37_323">
<rect width="284" height="69" fill="white" style="fill:white;fill-opacity:1;"/>
</clipPath>
</defs>
</svg>
