<svg width="284" height="69" viewBox="0 0 284 69" fill="none" xmlns="http://www.w3.org/2000/svg">
<g clip-path="url(#clip0_37_345)">
<path d="M18.2601 68.6106C27.4391 68.6106 34.8801 61.1651 34.8801 51.9806C34.8801 42.7961 27.4391 35.3506 18.2601 35.3506C9.08116 35.3506 1.64014 42.7961 1.64014 51.9806C1.64014 61.1651 9.08116 68.6106 18.2601 68.6106Z" fill="black" style="fill:black;fill-opacity:1;"/>
<path d="M15.33 49.3803H8.47998V55.2403H15.33V62.0803H21.16V55.2403H28.05V49.3803H21.16V42.5303H15.33V49.3803Z" fill="white" style="fill:white;fill-opacity:1;"/>
<path fill-rule="evenodd" clip-rule="evenodd" d="M18.26 33.2206C15.37 27.5906 13.04 26.1506 8.20999 22.9406C3.07999 19.5206 -1.08001 13.9506 0.799991 7.94056C3.34999 -0.159437 13.63 -1.75944 18.26 5.14056C22.89 -1.75944 33.18 -0.179436 35.72 7.94056C37.6 13.9506 33.44 19.5206 28.31 22.9406C23.49 26.1506 21.15 27.5906 18.26 33.2206Z" fill="black" style="fill:black;fill-opacity:1;"/>
<path d="M40.9102 35.1203C42.6702 34.0903 44.2602 32.6703 44.8202 31.2903C45.4202 29.7903 45.7202 27.5504 45.7202 24.2404V9.06035C45.7202 7.51035 45.6802 6.87035 45.4202 6.57035C45.1202 6.14035 44.3502 5.97035 41.9402 5.84035V2.36035C43.1402 2.40035 46.5802 2.49035 48.9902 2.49035C51.4002 2.49035 54.1902 2.40035 55.9102 2.36035V5.84035C53.2402 5.97035 52.9402 6.23035 52.6402 6.61035C52.4202 6.91035 52.3002 7.38035 52.3002 9.10035V24.1504C52.3002 27.7604 51.9102 30.4303 50.4102 32.8403C48.9502 35.2104 45.7702 37.3104 42.8002 38.4304L40.9102 35.1203Z" fill="black" style="fill:black;fill-opacity:1;"/>
<path d="M73.33 31.8604C71.83 31.8604 70.1 31.6004 69.5 29.4504C68 30.9504 65.89 31.9404 63.52 31.9404C60.25 31.9404 56.77 30.1304 56.77 25.8304C56.77 21.8704 59.39 19.6804 67.05 19.6804C67.44 19.6804 68.38 19.6804 68.86 19.7704V18.6104C68.86 17.4904 68.77 16.8904 68.47 16.3704C68.04 15.6404 67.05 15.3404 65.72 15.3404C64.64 15.3404 63.7 15.5104 63.14 15.9404C62.62 16.3304 62.37 17.0604 62.28 18.6104H58.75C58.58 17.7104 58.36 16.1204 58.36 14.9504C58.36 13.4004 59.13 12.5004 60.47 11.9404C61.85 11.3804 64.25 10.8604 66.19 10.8604C70.88 10.8604 72.51 11.8904 73.46 12.9204C74.32 13.9104 74.79 15.5004 74.79 17.7404C74.79 19.1604 74.75 24.6204 74.75 25.0904C74.75 27.0704 75.31 27.5804 76.34 27.5804C76.86 27.5804 77.29 27.5404 77.89 27.4504V31.0604C76.6 31.5304 74.58 31.8304 73.33 31.8304V31.8604ZM68.86 23.4704C68.47 23.3804 67.57 23.3404 67.1 23.3404C63.87 23.3404 62.89 24.1604 62.89 25.4904C62.89 27.1704 64.22 27.6804 65.43 27.6804C66.81 27.6804 68.05 27.2904 68.87 26.8204V23.4704H68.86Z" fill="black" style="fill:black;fill-opacity:1;"/>
<path d="M83.5501 23.8606C83.8101 25.6706 84.3701 26.3106 84.8801 26.7406C85.7001 27.4706 86.8601 27.7706 88.5401 27.7706C90.5601 27.7706 91.3301 27.2106 91.3301 26.3506C91.3301 25.4906 90.9001 25.1906 89.8201 24.8006L85.8601 23.3406C81.2601 21.6206 80.4801 19.8606 80.4801 17.2306C80.4801 13.7506 83.5301 10.8706 89.6801 10.8706C91.4901 10.8706 93.7201 11.1706 95.0601 11.8206C96.0101 12.2906 96.5201 13.0706 96.5201 14.4406C96.5201 15.2106 96.3501 17.2806 96.1801 18.2706H93.0001C92.7401 16.5906 92.4001 16.1606 91.8401 15.7806C91.2801 15.3906 90.0301 15.1806 88.8301 15.1806C86.8901 15.1806 86.4201 15.8706 86.4201 16.6406C86.4201 17.3706 86.8501 17.7206 88.0101 18.1406L92.0101 19.6006C96.4401 21.1906 97.3801 22.8306 97.3801 25.6206C97.3801 29.9606 93.3001 32.0706 88.1801 32.0706C86.2901 32.0706 84.1401 31.8106 82.9301 31.3806C80.6101 30.6106 80.1401 28.9706 80.1401 27.3406C80.1401 25.9206 80.1801 24.6306 80.3101 23.8606H83.5301H83.5501Z" fill="black" style="fill:black;fill-opacity:1;"/>
<path d="M103.71 23.8606C103.97 25.6706 104.53 26.3106 105.04 26.7406C105.86 27.4706 107.02 27.7706 108.69 27.7706C110.71 27.7706 111.49 27.2106 111.49 26.3506C111.49 25.4906 111.06 25.1906 109.98 24.8006L106.02 23.3406C101.42 21.6206 100.64 19.8606 100.64 17.2306C100.64 13.7506 103.69 10.8706 109.84 10.8706C111.65 10.8706 113.88 11.1706 115.22 11.8206C116.17 12.2906 116.68 13.0706 116.68 14.4406C116.68 15.2106 116.51 17.2806 116.34 18.2706H113.16C112.9 16.5906 112.56 16.1606 112 15.7806C111.44 15.3906 110.19 15.1806 108.99 15.1806C107.05 15.1806 106.58 15.8706 106.58 16.6406C106.58 17.3706 107.01 17.7206 108.17 18.1406L112.17 19.6006C116.6 21.1906 117.54 22.8306 117.54 25.6206C117.54 29.9606 113.46 32.0706 108.34 32.0706C106.45 32.0706 104.3 31.8106 103.09 31.3806C100.77 30.6106 100.3 28.9706 100.3 27.3406C100.3 25.9206 100.34 24.6306 100.47 23.8606H103.69H103.71Z" fill="black" style="fill:black;fill-opacity:1;"/>
<path d="M141.39 15.5605C140.92 16.0305 140.53 16.6805 139.97 17.9305L134.38 30.5305C133.86 31.6505 132.75 32.2505 131.33 32.2505C129.7 32.2505 128.62 31.6905 128.1 30.4905L122.64 18.0205C122.08 16.7305 121.65 15.9105 121.14 15.5305C120.8 15.2305 119.89 15.0605 119.16 15.0105V11.4805C120.62 11.5205 125.35 11.5705 126.43 11.5705C127.51 11.5705 129.83 11.5305 131.37 11.4805V15.0105C130.94 15.0505 130.25 15.1405 129.82 15.2205C129.13 15.3505 128.83 15.8205 128.83 16.3805C128.83 16.8105 129 17.4105 129.26 18.1005C130.42 20.8105 131.54 23.4805 132.49 26.0105C133.39 23.6005 134.55 20.6305 135.59 18.0105C135.85 17.4105 136.06 16.5905 136.06 16.0805C136.06 15.6105 135.76 15.3105 135.29 15.2205C134.6 15.0905 134.17 15.0505 133.48 15.0105V11.4805C134.9 11.5205 137.44 11.5705 138.38 11.5705C139.2 11.5705 141.99 11.5305 143.32 11.4805V15.0105C142.59 15.1005 141.82 15.1805 141.39 15.5705V15.5605Z" fill="black" style="fill:black;fill-opacity:1;"/>
<path d="M154.77 32.0706C148.75 32.0706 144.62 28.1106 144.62 21.9206C144.62 14.7406 149.18 10.8706 155.28 10.8706C161.38 10.8706 164.01 14.7006 164.01 19.4706C164.01 20.3706 163.84 21.5306 163.41 22.0106C162.94 22.5306 162.12 22.6606 161.26 22.6606H150.77V23.0006C150.77 25.1506 152.53 27.1706 155.89 27.1706C157.91 27.1706 160.1 26.6506 162.73 25.3206L164.54 28.8506C162.17 30.7806 158.65 32.0706 154.78 32.0706H154.77ZM158.25 18.7006V18.2706C158.25 16.5906 157.17 15.3506 154.94 15.3506C152.88 15.3506 151.03 16.3006 150.81 18.8806L158.25 18.7106V18.7006Z" fill="black" style="fill:black;fill-opacity:1;"/>
<path d="M172.87 31.4302C171.84 31.4302 168.57 31.4302 166.64 31.5202V28.0802C168.62 27.8602 169.09 27.7402 169.43 27.3902C169.64 27.1302 169.77 26.5702 169.77 25.0702V19.0102C169.77 17.2502 169.51 16.5602 169.12 16.3002C168.78 16.0902 168.17 16.0002 167.7 16.0002C167.4 16.0002 166.97 16.0002 166.63 16.0402V12.6902C168.78 11.6202 171.02 11.1002 172.95 11.1002C174.24 11.1002 175.44 11.5702 175.7 13.8102C176.86 12.2202 178.93 10.9702 180.82 10.9702C182.37 10.9702 183.66 11.5702 183.66 13.6402C183.66 14.6302 183.49 16.1802 183.23 17.9802H179.62C179.36 16.3002 178.93 15.8702 178.03 15.8702C177.34 15.8702 176.4 16.2602 175.79 16.7702V24.9402C175.79 26.4002 175.96 27.1302 176.26 27.4802C176.6 27.8702 177.81 28.0002 179.36 28.0802V31.5202C177.47 31.4802 173.94 31.4302 172.87 31.4302Z" fill="black" style="fill:black;fill-opacity:1;"/>
<path d="M186.78 24.8005V9.41053C186.78 6.62053 186.69 5.63053 186.26 5.24053C185.87 4.94053 185.31 4.85053 184.76 4.85053C184.5 4.85053 184.07 4.89053 183.73 4.94053V1.63053C186.1 0.510526 188.12 0.0405273 190.35 0.0405273C192.2 0.0405273 192.89 1.20053 192.89 3.44053C192.89 6.71053 192.89 9.59053 192.85 13.5405C194.53 12.0805 196.81 10.8705 199.69 10.8705C205.32 10.8705 207.47 15.1705 207.47 20.8505C207.47 27.2105 203.64 31.8605 196.03 31.8605C193.36 31.8605 188.89 31.3405 186.74 30.4005C186.78 28.3805 186.78 26.0605 186.78 24.8105V24.8005ZM196.2 27.0005C199.47 27.0005 200.97 24.5505 200.97 21.4505C200.97 17.8405 199.64 15.6505 196.76 15.6505C195.34 15.6505 194.05 15.9905 192.8 16.7205V26.5705C193.83 26.8705 194.99 27.0005 196.2 27.0005Z" fill="black" style="fill:black;fill-opacity:1;"/>
<path d="M226.37 31.8604C224.87 31.8604 223.15 31.6004 222.54 29.4504C221.04 30.9504 218.93 31.9404 216.56 31.9404C213.29 31.9404 209.81 30.1304 209.81 25.8304C209.81 21.8704 212.43 19.6804 220.09 19.6804C220.48 19.6804 221.42 19.6804 221.9 19.7704V18.6104C221.9 17.4904 221.81 16.8904 221.51 16.3704C221.08 15.6404 220.09 15.3404 218.76 15.3404C217.69 15.3404 216.74 15.5104 216.18 15.9404C215.66 16.3304 215.41 17.0604 215.32 18.6104H211.79C211.62 17.7104 211.4 16.1204 211.4 14.9504C211.4 13.4004 212.17 12.5004 213.51 11.9404C214.89 11.3804 217.29 10.8604 219.23 10.8604C223.92 10.8604 225.55 11.8904 226.5 12.9204C227.36 13.9104 227.83 15.5004 227.83 17.7404C227.83 19.1604 227.79 24.6204 227.79 25.0904C227.79 27.0704 228.35 27.5804 229.38 27.5804C229.9 27.5804 230.33 27.5404 230.93 27.4504V31.0604C229.64 31.5304 227.62 31.8304 226.37 31.8304V31.8604ZM221.89 23.4704C221.5 23.3804 220.6 23.3404 220.13 23.3404C216.91 23.3404 215.92 24.1604 215.92 25.4904C215.92 27.1704 217.25 27.6804 218.46 27.6804C219.84 27.6804 221.08 27.2904 221.9 26.8204V23.4704H221.89Z" fill="black" style="fill:black;fill-opacity:1;"/>
<path d="M239.08 31.4305C238.05 31.4305 234.78 31.4305 232.85 31.5205V28.0805C234.83 27.8605 235.3 27.7405 235.64 27.3905C235.85 27.1305 235.98 26.5705 235.98 25.0705V19.0105C235.98 17.2505 235.72 16.5605 235.33 16.3005C234.99 16.0905 234.38 16.0005 233.91 16.0005C233.61 16.0005 233.18 16.0005 232.84 16.0405V12.6905C234.99 11.6205 237.23 11.1005 239.16 11.1005C240.54 11.1005 241.74 11.6605 241.95 14.0705C243.71 12.1405 246.68 11.0205 249.09 11.0205C250.81 11.0205 252.32 11.4905 253.22 12.4005C254.25 13.4305 254.68 15.1505 254.68 18.1605V25.0805C254.68 26.3305 254.72 26.8905 254.89 27.2305C255.15 27.6605 255.66 27.8305 257.81 28.0905V31.5305C256 31.4905 253.17 31.4405 252.22 31.4405C251.19 31.4405 247.96 31.4805 246.11 31.5305V28.0905C247.57 27.9205 247.96 27.7505 248.26 27.4405C248.56 27.1305 248.65 26.6205 248.65 24.9905V19.7405C248.65 18.2805 248.52 17.2905 248.01 16.7305C247.58 16.2605 246.76 16.0905 245.73 16.0905C244.7 16.0905 243.28 16.3905 241.99 16.9505V25.0305C241.99 26.4905 242.08 27.1405 242.38 27.4805C242.72 27.8205 243.15 27.9505 244.49 28.0805V31.5205C242.6 31.4805 240.15 31.4305 239.07 31.4305H239.08Z" fill="black" style="fill:black;fill-opacity:1;"/>
<path d="M268.81 31.9805C262.96 31.9805 259.48 27.8505 259.48 22.2205C259.48 15.8605 262.66 11.0005 270.27 11.0005C271.47 11.0005 273.28 11.2605 274.4 11.7705V8.42053C274.4 7.47053 274.31 6.44053 274.14 5.88053C274.01 5.15053 273.32 4.85053 272.46 4.85053C272.16 4.85053 271.73 4.89053 271.3 4.94053V1.63053C273.66 0.430526 276.24 0.0405273 277.92 0.0405273C279.94 0.0405273 280.5 1.59053 280.5 3.22053C280.5 5.07053 280.41 10.1905 280.41 12.2905V25.4905C280.41 26.7405 280.8 27.6005 282 27.6005C282.34 27.6005 282.99 27.5605 283.55 27.4705V31.0805C281.7 31.6805 279.89 31.8505 278.86 31.8505C276.58 31.8505 275.59 31.0305 275.21 29.3605C273.53 31.1205 271.47 31.9805 268.8 31.9805H268.81ZM274.4 16.3805C273.54 15.8605 272.16 15.6505 271 15.6505C267.82 15.6505 265.75 17.5805 265.75 21.5005C265.75 25.4205 267.77 27.2605 270.78 27.2605C272.16 27.2605 273.49 26.8305 274.39 26.0605V16.3905L274.4 16.3805Z" fill="black" style="fill:black;fill-opacity:1;"/>
<path d="M46.7102 56.8702C47.1402 59.3602 47.7902 60.4002 48.4302 61.0802C49.4202 62.0702 51.4802 62.6302 53.8502 62.6302C56.9902 62.6302 58.4902 61.3002 58.4902 59.4902C58.4902 57.6802 57.6302 56.8702 55.9102 56.2602L50.3602 54.2402C44.6402 52.1802 43.7002 48.9902 43.7002 45.9802C43.7002 40.9102 47.2702 36.9902 55.3102 36.9902C57.6702 36.9902 60.6402 37.2902 62.4502 38.2802C63.6102 38.9702 64.0402 39.8702 64.0402 41.7202C64.0402 42.8402 63.8702 45.1202 63.7002 46.6602H60.3502C60.0102 44.2502 59.5802 43.1302 58.8902 42.4902C58.1602 41.8502 56.4802 41.6302 54.6302 41.6302C51.4502 41.6302 50.3302 43.0102 50.3302 44.6402C50.3302 46.0202 50.9302 47.0902 53.0402 47.8602L58.5002 49.8402C63.0202 51.4702 65.2502 53.8802 65.2502 58.0102C65.2502 64.2902 60.3502 67.3002 53.4702 67.3002C50.8902 67.3002 47.9702 66.8702 46.3802 66.1402C43.7102 64.9802 43.2002 63.5202 43.2002 61.1902C43.2002 59.4302 43.3302 57.9202 43.4602 56.8502H46.7302L46.7102 56.8702Z" fill="black" style="fill:black;fill-opacity:1;"/>
<path d="M78.0801 67.3204C72.3601 67.3204 68.1001 63.5804 68.1001 57.2204C68.1001 50.1704 72.6601 46.1304 78.9401 46.1304C80.4001 46.1304 82.2501 46.3404 83.4101 46.6904C85.0901 47.2104 86.0301 47.8904 86.0301 49.5704C86.0301 50.6004 85.9401 52.4104 85.6901 53.8704H82.0301C81.9001 52.3204 81.5101 51.5904 81.0801 51.2504C80.6501 50.9104 79.7901 50.7804 78.8901 50.7804C76.5201 50.7804 74.3701 52.4104 74.3701 56.7604C74.3701 61.1104 76.7401 62.4804 79.4401 62.4804C81.3301 62.4804 83.2201 61.8304 84.9401 60.8904L86.7001 64.3704C84.4201 66.2604 81.0701 67.3404 78.0601 67.3404L78.0801 67.3204Z" fill="black" style="fill:black;fill-opacity:1;"/>
<path d="M94.9698 66.6805C93.9798 66.6805 90.7098 66.6805 88.7798 66.7705V63.3305C90.7598 63.1105 91.2298 62.9905 91.5298 62.6405C91.7398 62.3805 91.8698 61.8705 91.8698 60.3605V44.4505C91.8698 41.7805 91.7398 40.8805 91.2698 40.4905C90.9298 40.1905 90.3198 40.1005 89.8098 40.1005C89.5498 40.1005 89.1198 40.1405 88.7798 40.1905V36.8805C91.1398 35.7605 93.1698 35.2905 95.3598 35.2905C97.2098 35.2905 97.9798 36.4505 97.9798 38.6905C97.9798 42.0005 97.8898 45.3505 97.8898 49.3105C99.6498 47.3805 102.62 46.2605 105.03 46.2605C106.75 46.2605 108.21 46.7805 109.11 47.6405C110.18 48.6705 110.61 50.3905 110.61 53.4005V60.3205C110.61 61.5705 110.65 62.1305 110.82 62.4705C111.03 62.9005 111.59 63.0705 113.74 63.3305V66.7705C111.93 66.7305 109.1 66.6805 108.15 66.6805C107.12 66.6805 103.89 66.7205 102 66.7705V63.3305C103.5 63.1605 103.94 62.9905 104.19 62.6405C104.41 62.4305 104.53 61.8705 104.53 60.2305V54.9805C104.53 53.5205 104.4 52.5305 103.93 51.9705C103.5 51.5005 102.68 51.3305 101.65 51.3305C100.62 51.3305 99.1998 51.6305 97.9098 52.1905V60.2705C97.9098 61.7305 97.9498 62.4205 98.2498 62.7205C98.5898 63.0605 99.0198 63.1905 100.36 63.3205V66.7605C98.4698 66.7205 96.0598 66.6705 94.9398 66.6705L94.9698 66.6805Z" fill="black" style="fill:black;fill-opacity:1;"/>
<path d="M146.43 50.6406C145.87 50.8506 145.61 51.5006 145.18 52.7906L141.05 65.6906C140.66 66.8906 139.59 67.5006 138.08 67.5006C136.49 67.5006 135.46 66.9406 135.03 65.6906C133.48 61.1306 132.24 57.4306 131.29 54.4206C130.26 57.5606 129.01 61.2606 127.21 65.7706C126.74 66.8906 125.62 67.4906 124.24 67.4906C122.56 67.4906 121.53 66.9706 121.1 65.7306L116.8 52.6206C116.63 52.1506 116.37 51.2906 115.94 50.8606C115.55 50.4306 114.99 50.3406 113.83 50.2606V46.7306C115.77 46.8206 118.73 46.8206 119.63 46.8206C120.71 46.8206 123.93 46.8206 126.08 46.7306V50.2606C125.35 50.3006 124.83 50.3906 124.23 50.4706C123.54 50.5606 123.15 50.9006 123.15 51.5006C123.15 51.9306 123.28 52.6206 123.41 53.0906C124.1 55.6706 124.91 58.3806 125.47 60.5706C126.5 57.3906 128.05 52.7906 129.47 48.7906C129.9 47.6306 130.5 46.6406 132.44 46.6406C134.2 46.6406 134.68 47.5006 135.15 48.7506C136.65 52.8306 137.99 56.8806 139.11 60.2706C139.67 58.0806 140.4 55.2806 141 53.0906C141.17 52.4906 141.3 51.8006 141.3 51.4606C141.3 50.8606 140.91 50.6006 140.57 50.5106C140.01 50.3806 139.32 50.3406 138.33 50.2506V46.7206C140.14 46.8106 143.02 46.8106 144.01 46.8106C144.83 46.8106 146.55 46.8106 148.18 46.7206V50.2506C147.32 50.3406 146.85 50.4206 146.42 50.6406H146.43Z" fill="black" style="fill:black;fill-opacity:1;"/>
<path d="M159.76 67.3206C153.74 67.3206 149.61 63.3606 149.61 57.1706C149.61 49.9906 154.17 46.1206 160.27 46.1206C166.37 46.1206 169 49.9506 169 54.7206C169 55.6206 168.83 56.7806 168.4 57.2606C167.93 57.7806 167.11 57.9106 166.25 57.9106H155.76V58.2506C155.76 60.4006 157.52 62.4206 160.88 62.4206C162.9 62.4206 165.09 61.9006 167.72 60.5706L169.53 64.1006C167.16 66.0306 163.64 67.3206 159.77 67.3206H159.76ZM163.24 53.9506V53.5206C163.24 51.8406 162.16 50.6006 159.93 50.6006C157.87 50.6006 156.02 51.5506 155.8 54.1306L163.24 53.9606V53.9506Z" fill="black" style="fill:black;fill-opacity:1;"/>
<path d="M177.86 66.6803C176.83 66.6803 173.56 66.6803 171.63 66.7703V63.3303C173.61 63.1103 174.08 62.9903 174.42 62.6403C174.63 62.3803 174.76 61.8203 174.76 60.3203V54.2603C174.76 52.5003 174.5 51.8103 174.11 51.5503C173.77 51.3403 173.16 51.2503 172.69 51.2503C172.39 51.2503 171.96 51.2503 171.62 51.2903V47.9403C173.77 46.8703 176.05 46.3503 178.03 46.3503C179.58 46.3503 180.95 46.9503 180.95 49.7503C180.95 52.7603 180.78 56.7603 180.78 60.2803C180.78 61.7803 180.87 62.3403 181.17 62.6903C181.47 63.0803 182.24 63.2103 183.88 63.3403V66.7803C182.03 66.7403 178.93 66.6903 177.86 66.6903V66.6803ZM177.08 42.8603C174.97 42.8603 173.68 41.2303 173.68 39.3303C173.68 37.3103 175.1 35.8003 177.21 35.8003C179.7 35.8003 180.69 37.3003 180.69 39.2403C180.69 41.1803 179.4 42.8503 177.08 42.8503V42.8603Z" fill="black" style="fill:black;fill-opacity:1;"/>
<path d="M185.81 64.5705L196.82 50.3805C194.41 50.3805 193.34 50.3805 192.26 50.4705C191.49 50.5605 190.93 50.8105 190.63 51.4205C190.29 52.0605 190.16 52.8405 189.94 54.1305H186.54C186.41 53.0105 186.24 51.0305 186.24 49.5705C186.24 47.9405 187.01 46.7705 188.99 46.7705H205.16V49.1405L194.15 63.2005C195.48 63.2405 196.47 63.2405 197.33 63.2405C199.14 63.2405 200.25 63.0305 200.9 62.7705C201.37 62.6005 201.93 61.8705 202.19 61.2705C202.49 60.6705 202.84 59.8105 203.05 58.8205H206.19C206.19 59.7205 206.06 62.8205 205.85 64.8005C205.72 65.8705 204.99 66.7305 203.01 66.7305H185.81V64.5805V64.5705Z" fill="black" style="fill:black;fill-opacity:1;"/>
</g>
<defs>
<clipPath id="clip0_37_345">
<rect width="284" height="69" fill="white" style="fill:white;fill-opacity:1;"/>
</clipPath>
</defs>
</svg>
