<svg width="284" height="70" viewBox="0 0 284 70" fill="none" xmlns="http://www.w3.org/2000/svg">
<g clip-path="url(#clip0_37_302)">
<path d="M18.2601 35.9902C9.08014 35.9902 1.64014 43.4402 1.64014 52.6202C1.64014 61.8002 9.08014 69.2502 18.2601 69.2502C27.4401 69.2502 34.8801 61.8002 34.8801 52.6202C34.8801 43.4402 27.4401 35.9902 18.2601 35.9902ZM28.0501 55.8802H21.1701V62.7202H15.3401V55.8802H8.49014V50.0102H15.3401V43.1702H21.1701V50.0102H28.0501V55.8802Z" fill="white" style="fill:white;fill-opacity:1;"/>
<path fill-rule="evenodd" clip-rule="evenodd" d="M18.26 33.8602C15.37 28.2302 13.04 26.7902 8.20999 23.5802C3.07999 20.1602 -1.08001 14.5902 0.799991 8.58021C3.34999 0.480212 13.63 -1.11979 18.26 5.78021C22.89 -1.11979 33.18 0.460212 35.72 8.58021C37.6 14.5902 33.44 20.1602 28.31 23.5802C23.49 26.7902 21.15 28.2302 18.26 33.8602Z" fill="white" style="fill:white;fill-opacity:1;"/>
<path d="M40.9102 35.76C42.6702 34.73 44.2602 33.31 44.8202 31.93C45.4202 30.43 45.7202 28.19 45.7202 24.88V9.7C45.7202 8.15 45.6802 7.51 45.4202 7.21C45.1202 6.78 44.3502 6.61 41.9402 6.48V3C43.1402 3.04 46.5802 3.13 48.9902 3.13C51.4002 3.13 54.1902 3.04 55.9102 3V6.48C53.2402 6.61 52.9402 6.87 52.6402 7.25C52.4202 7.55 52.3002 8.02 52.3002 9.74V24.79C52.3002 28.4 51.9102 31.07 50.4102 33.48C48.9502 35.85 45.7702 37.95 42.8002 39.07L40.9102 35.76Z" fill="white" style="fill:white;fill-opacity:1;"/>
<path d="M73.33 32.5C71.83 32.5 70.1 32.24 69.5 30.09C68 31.59 65.89 32.58 63.52 32.58C60.25 32.58 56.77 30.77 56.77 26.47C56.77 22.51 59.39 20.32 67.05 20.32C67.44 20.32 68.38 20.32 68.86 20.41V19.25C68.86 18.13 68.77 17.53 68.47 17.01C68.04 16.28 67.05 15.98 65.72 15.98C64.64 15.98 63.7 16.15 63.14 16.58C62.62 16.97 62.37 17.7 62.28 19.25H58.75C58.58 18.35 58.36 16.76 58.36 15.59C58.36 14.04 59.13 13.14 60.47 12.58C61.85 12.02 64.25 11.5 66.19 11.5C70.88 11.5 72.51 12.53 73.46 13.56C74.32 14.55 74.79 16.14 74.79 18.38C74.79 19.8 74.75 25.26 74.75 25.73C74.75 27.71 75.31 28.22 76.34 28.22C76.86 28.22 77.29 28.18 77.89 28.09V31.7C76.6 32.17 74.58 32.47 73.33 32.47V32.5ZM68.86 24.11C68.47 24.02 67.57 23.98 67.1 23.98C63.88 23.98 62.89 24.8 62.89 26.13C62.89 27.81 64.22 28.32 65.43 28.32C66.81 28.32 68.05 27.93 68.87 27.46V24.11H68.86Z" fill="white" style="fill:white;fill-opacity:1;"/>
<path d="M83.5499 24.5003C83.8099 26.3103 84.3699 26.9503 84.8799 27.3803C85.6999 28.1103 86.8599 28.4103 88.5399 28.4103C90.5599 28.4103 91.3299 27.8503 91.3299 26.9903C91.3299 26.1303 90.8999 25.8303 89.8199 25.4403L85.8599 23.9803C81.2599 22.2603 80.4799 20.5003 80.4799 17.8703C80.4799 14.3903 83.5299 11.5103 89.6799 11.5103C91.4899 11.5103 93.7199 11.8103 95.0599 12.4603C96.0099 12.9303 96.5199 13.7103 96.5199 15.0803C96.5199 15.8503 96.3499 17.9203 96.1799 18.9103H92.9999C92.7399 17.2303 92.3999 16.8003 91.8399 16.4203C91.2799 16.0303 90.0299 15.8203 88.8299 15.8203C86.8899 15.8203 86.4199 16.5103 86.4199 17.2803C86.4199 18.0103 86.8499 18.3603 88.0099 18.7803L92.0099 20.2403C96.4399 21.8303 97.3899 23.4703 97.3899 26.2603C97.3899 30.6003 93.3099 32.7103 88.1899 32.7103C86.2999 32.7103 84.1499 32.4503 82.9399 32.0203C80.6199 31.2503 80.1499 29.6103 80.1499 27.9803C80.1499 26.5603 80.1899 25.2703 80.3199 24.5003H83.5399H83.5499Z" fill="white" style="fill:white;fill-opacity:1;"/>
<path d="M103.71 24.5003C103.97 26.3103 104.53 26.9503 105.04 27.3803C105.86 28.1103 107.02 28.4103 108.7 28.4103C110.72 28.4103 111.49 27.8503 111.49 26.9903C111.49 26.1303 111.06 25.8303 109.99 25.4403L106.03 23.9803C101.43 22.2603 100.65 20.5003 100.65 17.8703C100.65 14.3903 103.7 11.5103 109.85 11.5103C111.66 11.5103 113.89 11.8103 115.23 12.4603C116.18 12.9303 116.69 13.7103 116.69 15.0803C116.69 15.8503 116.52 17.9203 116.35 18.9103H113.17C112.91 17.2303 112.57 16.8003 112.01 16.4203C111.45 16.0303 110.2 15.8203 109 15.8203C107.07 15.8203 106.59 16.5103 106.59 17.2803C106.59 18.0103 107.02 18.3603 108.18 18.7803L112.18 20.2403C116.61 21.8303 117.55 23.4703 117.55 26.2603C117.55 30.6003 113.47 32.7103 108.35 32.7103C106.46 32.7103 104.31 32.4503 103.1 32.0203C100.78 31.2503 100.31 29.6103 100.31 27.9803C100.31 26.5603 100.35 25.2703 100.48 24.5003H103.7H103.71Z" fill="white" style="fill:white;fill-opacity:1;"/>
<path d="M141.39 16.2001C140.92 16.6701 140.53 17.3201 139.97 18.5701L134.38 31.1701C133.86 32.2901 132.75 32.8901 131.33 32.8901C129.7 32.8901 128.62 32.3301 128.11 31.1301L122.65 18.6601C122.09 17.3701 121.66 16.5501 121.15 16.1701C120.81 15.8701 119.9 15.7001 119.17 15.6501V12.1201C120.63 12.1601 125.36 12.2101 126.44 12.2101C127.52 12.2101 129.84 12.1701 131.38 12.1201V15.6501C130.95 15.6901 130.26 15.7801 129.83 15.8601C129.14 15.9901 128.84 16.4601 128.84 17.0201C128.84 17.4501 129.01 18.0501 129.27 18.7401C130.43 21.4501 131.55 24.1201 132.49 26.6501C133.39 24.2401 134.55 21.2701 135.59 18.6501C135.85 18.0501 136.06 17.2301 136.06 16.7201C136.06 16.2501 135.76 15.9501 135.29 15.8601C134.6 15.7301 134.17 15.6901 133.48 15.6501V12.1201C134.9 12.1601 137.44 12.2101 138.38 12.2101C139.2 12.2101 141.99 12.1701 143.32 12.1201V15.6501C142.59 15.7401 141.82 15.8201 141.39 16.2101V16.2001Z" fill="white" style="fill:white;fill-opacity:1;"/>
<path d="M154.77 32.7103C148.75 32.7103 144.62 28.7503 144.62 22.5603C144.62 15.3803 149.18 11.5103 155.28 11.5103C161.38 11.5103 164.01 15.3403 164.01 20.1103C164.01 21.0103 163.84 22.1703 163.41 22.6503C162.94 23.1703 162.12 23.3003 161.26 23.3003H150.77V23.6403C150.77 25.7903 152.53 27.8103 155.89 27.8103C157.91 27.8103 160.1 27.2903 162.73 25.9603L164.54 29.4903C162.17 31.4203 158.65 32.7103 154.78 32.7103H154.77ZM158.25 19.3403V18.9103C158.25 17.2303 157.17 15.9903 154.94 15.9903C152.88 15.9903 151.03 16.9403 150.81 19.5203L158.25 19.3503V19.3403Z" fill="white" style="fill:white;fill-opacity:1;"/>
<path d="M172.87 32.0699C171.84 32.0699 168.57 32.0699 166.64 32.1599V28.7199C168.62 28.4999 169.09 28.3799 169.43 28.0299C169.64 27.7699 169.77 27.2099 169.77 25.7099V19.6499C169.77 17.8899 169.51 17.1999 169.12 16.9399C168.78 16.7299 168.17 16.6399 167.7 16.6399C167.4 16.6399 166.97 16.6399 166.63 16.6799V13.3299C168.78 12.2599 171.02 11.7399 172.95 11.7399C174.24 11.7399 175.44 12.2099 175.7 14.4499C176.86 12.8599 178.93 11.6099 180.82 11.6099C182.37 11.6099 183.66 12.2099 183.66 14.2799C183.66 15.2699 183.49 16.8199 183.23 18.6199H179.62C179.36 16.9399 178.93 16.5099 178.03 16.5099C177.34 16.5099 176.4 16.8999 175.79 17.4099V25.5799C175.79 27.0399 175.96 27.7699 176.26 28.1199C176.6 28.5099 177.81 28.6399 179.36 28.7199V32.1599C177.47 32.1199 173.94 32.0699 172.87 32.0699Z" fill="white" style="fill:white;fill-opacity:1;"/>
<path d="M186.78 25.4402V10.0502C186.78 7.26018 186.69 6.27017 186.26 5.88017C185.87 5.58017 185.31 5.49018 184.76 5.49018C184.5 5.49018 184.07 5.53018 183.73 5.58018V2.27017C186.1 1.15017 188.12 0.680176 190.35 0.680176C192.2 0.680176 192.89 1.84018 192.89 4.08018C192.89 7.35018 192.89 10.2302 192.85 14.1802C194.53 12.7202 196.81 11.5102 199.69 11.5102C205.32 11.5102 207.47 15.8102 207.47 21.4902C207.47 27.8502 203.64 32.5002 196.03 32.5002C193.36 32.5002 188.89 31.9802 186.74 31.0402C186.78 29.0202 186.78 26.7002 186.78 25.4502V25.4402ZM196.2 27.6402C199.47 27.6402 200.97 25.1902 200.97 22.0902C200.97 18.4802 199.64 16.2902 196.76 16.2902C195.34 16.2902 194.05 16.6302 192.8 17.3602V27.2102C193.83 27.5102 194.99 27.6402 196.2 27.6402Z" fill="white" style="fill:white;fill-opacity:1;"/>
<path d="M226.37 32.5C224.87 32.5 223.15 32.24 222.54 30.09C221.04 31.59 218.93 32.58 216.56 32.58C213.29 32.58 209.81 30.77 209.81 26.47C209.81 22.51 212.43 20.32 220.09 20.32C220.48 20.32 221.42 20.32 221.9 20.41V19.25C221.9 18.13 221.81 17.53 221.51 17.01C221.08 16.28 220.09 15.98 218.76 15.98C217.69 15.98 216.74 16.15 216.18 16.58C215.66 16.97 215.41 17.7 215.32 19.25H211.79C211.62 18.35 211.4 16.76 211.4 15.59C211.4 14.04 212.17 13.14 213.51 12.58C214.89 12.02 217.29 11.5 219.23 11.5C223.92 11.5 225.55 12.53 226.5 13.56C227.36 14.55 227.83 16.14 227.83 18.38C227.83 19.8 227.79 25.26 227.79 25.73C227.79 27.71 228.35 28.22 229.38 28.22C229.9 28.22 230.33 28.18 230.93 28.09V31.7C229.64 32.17 227.62 32.47 226.37 32.47V32.5ZM221.89 24.11C221.5 24.02 220.6 23.98 220.13 23.98C216.91 23.98 215.92 24.8 215.92 26.13C215.92 27.81 217.25 28.32 218.46 28.32C219.84 28.32 221.08 27.93 221.9 27.46V24.11H221.89Z" fill="white" style="fill:white;fill-opacity:1;"/>
<path d="M239.08 32.0702C238.05 32.0702 234.78 32.0702 232.85 32.1602V28.7202C234.83 28.5002 235.3 28.3802 235.64 28.0302C235.85 27.7702 235.98 27.2102 235.98 25.7102V19.6502C235.98 17.8902 235.72 17.2002 235.33 16.9402C234.99 16.7302 234.38 16.6402 233.91 16.6402C233.61 16.6402 233.18 16.6402 232.84 16.6802V13.3302C234.99 12.2602 237.23 11.7402 239.16 11.7402C240.54 11.7402 241.74 12.3002 241.95 14.7102C243.71 12.7802 246.68 11.6602 249.09 11.6602C250.81 11.6602 252.32 12.1302 253.22 13.0402C254.25 14.0702 254.68 15.7902 254.68 18.8002V25.7202C254.68 26.9702 254.72 27.5302 254.89 27.8702C255.15 28.3002 255.66 28.4702 257.81 28.7302V32.1702C256 32.1302 253.17 32.0802 252.22 32.0802C251.19 32.0802 247.96 32.1202 246.11 32.1702V28.7302C247.57 28.5602 247.96 28.3902 248.26 28.0802C248.56 27.7702 248.65 27.2602 248.65 25.6302V20.3802C248.65 18.9202 248.52 17.9302 248.01 17.3702C247.58 16.9002 246.76 16.7302 245.73 16.7302C244.7 16.7302 243.28 17.0302 241.99 17.5902V25.6702C241.99 27.1302 242.08 27.7802 242.38 28.1202C242.72 28.4602 243.15 28.5902 244.49 28.7202V32.1602C242.6 32.1202 240.15 32.0702 239.07 32.0702H239.08Z" fill="white" style="fill:white;fill-opacity:1;"/>
<path d="M268.81 32.6202C262.96 32.6202 259.48 28.4902 259.48 22.8602C259.48 16.5002 262.66 11.6402 270.27 11.6402C271.47 11.6402 273.28 11.9002 274.4 12.4102V9.06017C274.4 8.11017 274.31 7.08017 274.14 6.52017C274.01 5.79017 273.32 5.49018 272.46 5.49018C272.16 5.49018 271.73 5.53018 271.3 5.58018V2.27017C273.66 1.07017 276.24 0.680176 277.92 0.680176C279.94 0.680176 280.5 2.23017 280.5 3.86017C280.5 5.71017 280.41 10.8302 280.41 12.9302V26.1302C280.41 27.3802 280.8 28.2402 282 28.2402C282.34 28.2402 282.99 28.2002 283.55 28.1102V31.7202C281.7 32.3202 279.89 32.4902 278.86 32.4902C276.58 32.4902 275.59 31.6702 275.21 30.0002C273.53 31.7602 271.47 32.6202 268.8 32.6202H268.81ZM274.4 17.0202C273.54 16.5002 272.16 16.2902 271 16.2902C267.82 16.2902 265.75 18.2202 265.75 22.1402C265.75 26.0602 267.77 27.9002 270.78 27.9002C272.16 27.9002 273.49 27.4702 274.39 26.7002V17.0302L274.4 17.0202Z" fill="white" style="fill:white;fill-opacity:1;"/>
<path d="M46.7099 57.5099C47.1399 59.9999 47.7899 61.0399 48.4299 61.7199C49.4199 62.7099 51.4799 63.2699 53.8499 63.2699C56.9899 63.2699 58.4899 61.9399 58.4899 60.1299C58.4899 58.3199 57.6299 57.5099 55.9099 56.8999L50.3599 54.8799C44.6399 52.8199 43.6899 49.6299 43.6899 46.6199C43.6899 41.5499 47.2599 37.6299 55.2999 37.6299C57.6599 37.6299 60.6299 37.9299 62.4399 38.9199C63.5999 39.6099 64.0299 40.5099 64.0299 42.3599C64.0299 43.4799 63.8599 45.7599 63.6899 47.2999H60.3399C59.9999 44.8899 59.5699 43.7699 58.8799 43.1299C58.1499 42.4899 56.4699 42.2699 54.6199 42.2699C51.4399 42.2699 50.3199 43.6499 50.3199 45.2799C50.3199 46.6599 50.9199 47.7299 53.0299 48.4999L58.4899 50.4799C62.9999 52.1099 65.2399 54.5199 65.2399 58.6499C65.2399 64.9299 60.3399 67.9399 53.4599 67.9399C50.8799 67.9399 47.9599 67.5099 46.3699 66.7799C43.6999 65.6199 43.1899 64.1599 43.1899 61.8299C43.1899 60.0699 43.3199 58.5599 43.4499 57.4899H46.7199L46.7099 57.5099Z" fill="white" style="fill:white;fill-opacity:1;"/>
<path d="M78.0801 67.96C72.3601 67.96 68.1001 64.22 68.1001 57.86C68.1001 50.81 72.6601 46.77 78.9401 46.77C80.4001 46.77 82.2501 46.98 83.4101 47.33C85.0901 47.85 86.0301 48.53 86.0301 50.21C86.0301 51.24 85.9401 53.05 85.6901 54.51H82.0301C81.9001 52.96 81.5101 52.23 81.0801 51.89C80.6501 51.55 79.7901 51.42 78.8901 51.42C76.5201 51.42 74.3801 53.05 74.3801 57.4C74.3801 61.75 76.7501 63.12 79.4501 63.12C81.3401 63.12 83.2301 62.47 84.9501 61.53L86.7101 65.01C84.4301 66.9 81.0801 67.98 78.0701 67.98L78.0801 67.96Z" fill="white" style="fill:white;fill-opacity:1;"/>
<path d="M94.9698 67.3202C93.9798 67.3202 90.7098 67.3202 88.7798 67.4102V63.9702C90.7598 63.7502 91.2298 63.6302 91.5298 63.2802C91.7398 63.0202 91.8698 62.5102 91.8698 61.0002V45.0902C91.8698 42.4202 91.7398 41.5202 91.2698 41.1302C90.9298 40.8302 90.3198 40.7402 89.8098 40.7402C89.5498 40.7402 89.1198 40.7802 88.7798 40.8302V37.5202C91.1498 36.4002 93.1698 35.9302 95.3598 35.9302C97.2098 35.9302 97.9798 37.0902 97.9798 39.3302C97.9798 42.6402 97.8898 45.9902 97.8898 49.9502C99.6498 48.0202 102.62 46.9002 105.03 46.9002C106.75 46.9002 108.21 47.4202 109.11 48.2802C110.19 49.3102 110.61 51.0302 110.61 54.0402V60.9602C110.61 62.2102 110.65 62.7702 110.82 63.1102C111.03 63.5402 111.59 63.7102 113.74 63.9702V67.4102C111.93 67.3702 109.1 67.3202 108.15 67.3202C107.12 67.3202 103.89 67.3602 102 67.4102V63.9702C103.5 63.8002 103.93 63.6302 104.19 63.2802C104.41 63.0702 104.53 62.5102 104.53 60.8702V55.6202C104.53 54.1602 104.4 53.1702 103.93 52.6102C103.5 52.1402 102.68 51.9702 101.65 51.9702C100.62 51.9702 99.1998 52.2702 97.9098 52.8302V60.9102C97.9098 62.3702 97.9498 63.0602 98.2498 63.3602C98.5898 63.7002 99.0198 63.8302 100.36 63.9602V67.4002C98.4698 67.3602 96.0598 67.3102 94.9398 67.3102L94.9698 67.3202Z" fill="white" style="fill:white;fill-opacity:1;"/>
<path d="M146.43 51.2803C145.87 51.4903 145.61 52.1403 145.18 53.4303L141.05 66.3303C140.66 67.5303 139.59 68.1403 138.08 68.1403C136.49 68.1403 135.46 67.5803 135.03 66.3303C133.48 61.7703 132.24 58.0703 131.29 55.0603C130.26 58.2003 129.01 61.9003 127.21 66.4103C126.74 67.5303 125.62 68.1303 124.24 68.1303C122.56 68.1303 121.53 67.6103 121.1 66.3703L116.8 53.2603C116.63 52.7903 116.37 51.9303 115.94 51.5003C115.55 51.0703 114.99 50.9803 113.83 50.9003V47.3703C115.77 47.4603 118.73 47.4603 119.63 47.4603C120.71 47.4603 123.93 47.4603 126.08 47.3703V50.9003C125.35 50.9403 124.83 51.0303 124.23 51.1103C123.54 51.2003 123.15 51.5403 123.15 52.1403C123.15 52.5703 123.28 53.2603 123.41 53.7303C124.1 56.3103 124.91 59.0203 125.47 61.2103C126.5 58.0303 128.05 53.4303 129.47 49.4303C129.9 48.2703 130.5 47.2803 132.44 47.2803C134.2 47.2803 134.68 48.1403 135.15 49.3903C136.65 53.4703 137.99 57.5203 139.11 60.9103C139.67 58.7203 140.4 55.9203 141 53.7303C141.17 53.1303 141.3 52.4403 141.3 52.1003C141.3 51.5003 140.91 51.2403 140.57 51.1503C140.01 51.0203 139.32 50.9803 138.33 50.8903V47.3603C140.14 47.4503 143.02 47.4503 144.01 47.4503C144.83 47.4503 146.55 47.4503 148.18 47.3603V50.8903C147.32 50.9803 146.85 51.0603 146.42 51.2803H146.43Z" fill="white" style="fill:white;fill-opacity:1;"/>
<path d="M159.76 67.9603C153.74 67.9603 149.61 64.0003 149.61 57.8103C149.61 50.6303 154.17 46.7603 160.27 46.7603C166.37 46.7603 169 50.5903 169 55.3603C169 56.2603 168.83 57.4203 168.4 57.9003C167.93 58.4203 167.11 58.5503 166.25 58.5503H155.76V58.8903C155.76 61.0403 157.52 63.0603 160.88 63.0603C162.9 63.0603 165.09 62.5403 167.72 61.2103L169.53 64.7403C167.16 66.6703 163.64 67.9603 159.77 67.9603H159.76ZM163.24 54.5903V54.1603C163.24 52.4803 162.16 51.2403 159.93 51.2403C157.87 51.2403 156.02 52.1903 155.8 54.7703L163.24 54.6003V54.5903Z" fill="white" style="fill:white;fill-opacity:1;"/>
<path d="M177.86 67.3199C176.83 67.3199 173.56 67.3199 171.63 67.4099V63.9699C173.61 63.7499 174.08 63.6299 174.42 63.2799C174.63 63.0199 174.76 62.4599 174.76 60.9599V54.8999C174.76 53.1399 174.5 52.4499 174.11 52.1899C173.77 51.9799 173.16 51.8899 172.69 51.8899C172.39 51.8899 171.96 51.8899 171.62 51.9299V48.5799C173.77 47.5099 176.05 46.9899 178.03 46.9899C179.58 46.9899 180.95 47.5899 180.95 50.3899C180.95 53.3999 180.78 57.3999 180.78 60.9199C180.78 62.4199 180.87 62.9799 181.17 63.3299C181.47 63.7199 182.24 63.8499 183.88 63.9799V67.4199C182.03 67.3799 178.93 67.3299 177.86 67.3299V67.3199ZM177.09 43.4999C174.98 43.4999 173.69 41.8699 173.69 39.9699C173.69 37.9499 175.11 36.4399 177.22 36.4399C179.71 36.4399 180.7 37.9399 180.7 39.8799C180.7 41.8199 179.41 43.4899 177.09 43.4899V43.4999Z" fill="white" style="fill:white;fill-opacity:1;"/>
<path d="M185.81 65.2102L196.82 51.0202C194.41 51.0202 193.34 51.0202 192.26 51.1102C191.49 51.2002 190.93 51.4502 190.63 52.0602C190.29 52.7002 190.16 53.4802 189.94 54.7702H186.54C186.41 53.6502 186.24 51.6702 186.24 50.2102C186.24 48.5802 187.01 47.4102 188.99 47.4102H205.16V49.7802L194.15 63.8402C195.48 63.8802 196.47 63.8802 197.33 63.8802C199.14 63.8802 200.25 63.6702 200.9 63.4102C201.37 63.2402 201.93 62.5102 202.19 61.9102C202.49 61.3102 202.84 60.4502 203.05 59.4602H206.19C206.19 60.3602 206.06 63.4602 205.85 65.4402C205.72 66.5102 204.99 67.3702 203.01 67.3702H185.81V65.2202V65.2102Z" fill="white" style="fill:white;fill-opacity:1;"/>
</g>
<defs>
<clipPath id="clip0_37_302">
<rect width="284" height="70" fill="white" style="fill:white;fill-opacity:1;"/>
</clipPath>
</defs>
</svg>
