<svg width="190" height="82" viewBox="0 0 190 82" fill="none" xmlns="http://www.w3.org/2000/svg">
<g clip-path="url(#clip0_37_385)">
<path d="M18.2596 35.1104C9.07965 35.1104 1.63965 42.5603 1.63965 51.7403C1.63965 60.9203 9.07965 68.3704 18.2596 68.3704C27.4396 68.3704 34.8797 60.9203 34.8797 51.7403C34.8797 42.5603 27.4396 35.1104 18.2596 35.1104ZM28.0496 55.0004H21.1696V61.8404H15.3396V55.0004H8.48965V49.1303H15.3396V42.2904H21.1696V49.1303H28.0496V55.0004Z" fill="white" style="fill:white;fill-opacity:1;"/>
<path fill-rule="evenodd" clip-rule="evenodd" d="M18.26 32.9803C15.37 27.3503 13.04 25.9103 8.20999 22.7003C3.07999 19.2803 -1.08001 13.7103 0.799991 7.70033C3.34999 -0.399671 13.63 -1.99967 18.26 4.90033C22.89 -1.99967 33.18 -0.419671 35.72 7.70033C37.6 13.7103 33.44 19.2803 28.31 22.7003C23.49 25.9103 21.15 27.3503 18.26 32.9803Z" fill="white" style="fill:white;fill-opacity:1;"/>
<path d="M126.9 2.16998C124.71 2.16998 118.54 2.07998 114.17 1.97998V9.67998C117.4 9.76998 120.06 10.06 121.29 10.53C122.43 10.91 122.81 12.05 122.81 12.91C122.81 14.62 122.24 16.81 121.57 18.89C114.82 38.94 112.92 45.02 110.93 51.19C108.84 44.92 106.75 38.84 99.7205 18.7C98.9605 16.51 98.3005 14.14 98.3005 13.38C98.3005 12.05 98.7705 11.1 100.39 10.53C101.63 10.05 103.91 9.76998 106.38 9.67998V1.97998C101.54 2.07998 92.9805 2.16998 90.4205 2.16998C86.7205 2.16998 64.4905 2.26998 59.3405 2.26998C54.1905 2.26998 46.4205 2.07998 43.7605 1.97998V9.67998C49.0805 9.95998 50.7905 10.35 51.4505 11.29C52.0205 11.96 52.1205 13.38 52.1205 16.8V50.34C52.1205 57.65 51.4505 62.59 50.1205 65.92C48.8905 68.96 45.3705 72.09 41.4805 74.38L45.6605 81.7C52.2205 79.23 59.2405 74.57 62.4805 69.35C65.8105 64.03 66.6605 58.14 66.6605 50.16V16.91C66.6605 13.11 66.9505 12.06 67.4205 11.4C69.5405 8.43998 77.3505 9.52998 79.0205 10.92C80.6405 12.25 81.6805 13.87 83.1005 17.86L99.0605 61.47C100.68 65.84 103.34 67.55 108.18 67.55C113.02 67.55 115.88 65.65 117.59 60.9L133.36 18.05C134.59 14.73 135.54 12.45 136.69 11.4C137.92 10.17 140.02 9.77998 143.24 9.68998V1.98998C139.16 2.08998 128.99 2.17998 126.9 2.17998V2.16998Z" fill="white" style="fill:white;fill-opacity:1;"/>
<path d="M148.69 44.5404C149.64 50.0504 151.07 52.3304 152.49 53.8504C154.68 56.0404 159.24 57.2704 164.46 57.2704C171.39 57.2704 174.72 54.3304 174.72 50.3404C174.72 46.3504 172.82 44.5404 169.02 43.2104L156.77 38.7504C144.14 34.1904 142.04 27.1604 142.04 20.5104C142.04 9.30039 149.93 0.650391 167.69 0.650391C172.92 0.650391 179.47 1.32039 183.46 3.50039C186.03 5.02039 186.97 7.02039 186.97 11.1004C186.97 13.5704 186.59 18.6104 186.21 22.0304H178.8C178.04 16.7104 177.09 14.2404 175.57 12.8104C173.95 11.3904 170.25 10.9104 166.16 10.9104C159.13 10.9104 156.66 13.9504 156.66 17.5604C156.66 20.6004 157.99 22.9804 162.64 24.6904L174.71 29.0604C184.69 32.6704 189.63 37.9904 189.63 47.1104C189.63 60.9804 178.8 67.6304 163.6 67.6304C157.9 67.6304 151.44 66.6804 147.93 65.0604C142.04 62.5004 140.9 59.2704 140.9 54.1404C140.9 50.2404 141.19 46.9204 141.47 44.5404H148.69Z" fill="white" style="fill:white;fill-opacity:1;"/>
</g>
<defs>
<clipPath id="clip0_37_385">
<rect width="190" height="82" fill="white" style="fill:white;fill-opacity:1;"/>
</clipPath>
</defs>
</svg>
