<svg width="190" height="83" viewBox="0 0 190 83" fill="none" xmlns="http://www.w3.org/2000/svg">
<g clip-path="url(#clip0_37_373)">
<path d="M18.2596 68.8103C27.4386 68.8103 34.8797 61.3648 34.8797 52.1803C34.8797 42.9958 27.4386 35.5503 18.2596 35.5503C9.08068 35.5503 1.63965 42.9958 1.63965 52.1803C1.63965 61.3648 9.08068 68.8103 18.2596 68.8103Z" fill="#FF0000" style="fill:#FF0000;fill:color(display-p3 1.0000 0.0000 0.0000);fill-opacity:1;"/>
<path d="M15.3305 49.58H8.48047V55.44H15.3305V62.28H21.1605V55.44H28.0505V49.58H21.1605V42.73H15.3305V49.58Z" fill="white" style="fill:white;fill-opacity:1;"/>
<path fill-rule="evenodd" clip-rule="evenodd" d="M18.26 33.4203C15.37 27.7903 13.04 26.3503 8.20999 23.1403C3.07999 19.7203 -1.08001 14.1503 0.799991 8.14027C3.34999 0.0402703 13.63 -1.55973 18.26 5.34027C22.89 -1.55973 33.18 0.0202708 35.72 8.14027C37.6 14.1503 33.44 19.7203 28.31 23.1403C23.49 26.3503 21.15 27.7903 18.26 33.4203Z" fill="#FF0000" style="fill:#FF0000;fill:color(display-p3 1.0000 0.0000 0.0000);fill-opacity:1;"/>
<path d="M126.9 2.60992C124.71 2.60992 118.54 2.51992 114.17 2.41992V10.1199C117.4 10.2099 120.06 10.4999 121.29 10.9699C122.43 11.3499 122.81 12.4899 122.81 13.3499C122.81 15.0599 122.24 17.2499 121.57 19.3299C114.82 39.3799 112.92 45.4599 110.93 51.6299C108.84 45.3599 106.75 39.2799 99.7205 19.1399C98.9605 16.9499 98.3005 14.5799 98.3005 13.8199C98.3005 12.4899 98.7705 11.5399 100.39 10.9699C101.63 10.4899 103.91 10.2099 106.38 10.1199V2.41992C101.54 2.51992 92.9805 2.60992 90.4205 2.60992C86.7205 2.60992 64.4905 2.70992 59.3405 2.70992C54.1905 2.70992 46.4205 2.51992 43.7605 2.41992V10.1199C49.0805 10.3999 50.7905 10.7899 51.4505 11.7299C52.0205 12.3999 52.1205 13.8199 52.1205 17.2399V50.7799C52.1205 58.0899 51.4505 63.0299 50.1205 66.3599C48.8905 69.3999 45.3705 72.5299 41.4805 74.8199L45.6605 82.1399C52.2205 79.6699 59.2405 75.0099 62.4805 69.7899C65.8105 64.4699 66.6605 58.5799 66.6605 50.5999V17.3499C66.6605 13.5499 66.9505 12.4999 67.4205 11.8399C69.5405 8.87992 77.3505 9.96992 79.0205 11.3599C80.6405 12.6899 81.6805 14.3099 83.1005 18.2999L99.0605 61.9099C100.68 66.2799 103.34 67.9899 108.18 67.9899C113.02 67.9899 115.88 66.0899 117.59 61.3399L133.36 18.4899C134.59 15.1699 135.54 12.8899 136.69 11.8399C137.92 10.6099 140.02 10.2199 143.24 10.1299V2.42992C139.16 2.52992 128.99 2.61992 126.9 2.61992V2.60992Z" fill="black" style="fill:black;fill-opacity:1;"/>
<path d="M148.69 44.9803C149.64 50.4903 151.07 52.7703 152.49 54.2903C154.68 56.4803 159.24 57.7103 164.46 57.7103C171.39 57.7103 174.72 54.7703 174.72 50.7803C174.72 46.7903 172.82 44.9803 169.02 43.6503L156.77 39.1903C144.14 34.6303 142.04 27.6003 142.04 20.9503C142.04 9.74033 149.93 1.09033 167.69 1.09033C172.92 1.09033 179.47 1.76033 183.46 3.94033C186.03 5.46033 186.97 7.46033 186.97 11.5403C186.97 14.0103 186.59 19.0503 186.21 22.4703H178.8C178.04 17.1503 177.09 14.6803 175.57 13.2503C173.95 11.8303 170.25 11.3503 166.16 11.3503C159.13 11.3503 156.66 14.3903 156.66 18.0003C156.66 21.0403 157.99 23.4203 162.64 25.1303L174.71 29.5003C184.69 33.1103 189.63 38.4303 189.63 47.5503C189.63 61.4203 178.8 68.0703 163.6 68.0703C157.9 68.0703 151.44 67.1203 147.93 65.5003C142.04 62.9403 140.9 59.7103 140.9 54.5803C140.9 50.6803 141.19 47.3603 141.47 44.9803H148.69Z" fill="black" style="fill:black;fill-opacity:1;"/>
</g>
<defs>
<clipPath id="clip0_37_373">
<rect width="190" height="83" fill="white" style="fill:white;fill-opacity:1;"/>
</clipPath>
</defs>
</svg>
