<svg width="351" height="74" viewBox="0 0 351 74" fill="none" xmlns="http://www.w3.org/2000/svg">
<g clip-path="url(#clip0_153_78)">
<path d="M18.8602 68.6902C28.0392 68.6902 35.4802 61.2447 35.4802 52.0602C35.4802 42.8757 28.0392 35.4302 18.8602 35.4302C9.68126 35.4302 2.24023 42.8757 2.24023 52.0602C2.24023 61.2447 9.68126 68.6902 18.8602 68.6902Z" fill="#FF0000" style="fill:#FF0000;fill:color(display-p3 1.0000 0.0000 0.0000);fill-opacity:1;"/>
<path d="M15.9301 49.4599H9.08008V55.3199H15.9301V62.1599H21.7601V55.3199H28.6401V49.4599H21.7601V42.6099H15.9301V49.4599Z" fill="white" style="fill:white;fill-opacity:1;"/>
<path fill-rule="evenodd" clip-rule="evenodd" d="M18.8596 33.3002C15.9696 27.6702 13.6396 26.2302 8.8096 23.0202C3.6796 19.6002 -0.4804 14.0302 1.3996 8.02015C3.9496 -0.0798469 14.2296 -1.67985 18.8596 5.22015C23.4896 -1.67985 33.7796 -0.0998464 36.3196 8.02015C38.1996 14.0302 34.0396 19.6002 28.9096 23.0202C24.0896 26.2302 21.7496 27.6702 18.8596 33.3002Z" fill="#FF0000" style="fill:#FF0000;fill:color(display-p3 1.0000 0.0000 0.0000);fill-opacity:1;"/>
<path d="M49.7602 31.51C48.7702 31.51 44.5602 31.55 42.6602 31.6V28.07C45.2402 27.98 45.7102 27.77 46.0602 27.38C46.3202 27.08 46.4002 26.52 46.4002 24.67V9.18998C46.4002 7.93998 46.4002 7.03998 46.1402 6.77998C45.7502 6.30998 45.0702 6.12998 42.6602 5.91998V2.47998H63.3902C65.6302 2.47998 66.3102 3.42998 66.3102 4.79998C66.3102 6.25998 66.0101 9.48998 65.8801 10.52H62.1802C61.7902 8.66998 61.4902 7.97998 61.0602 7.67998C60.6302 7.33998 59.9002 6.98998 57.9602 6.98998H52.9702V15.37H55.3801C56.8801 15.37 57.8702 15.28 58.3502 14.73C58.7402 14.3 59.0402 13.14 59.2102 12.15H62.2602C62.2202 13.23 62.2202 16.23 62.2202 17.44C62.2202 18.17 62.2202 21.01 62.3102 22.82H59.3401C59.1201 21.57 58.9501 20.63 58.5201 20.15C58.0001 19.55 56.9701 19.55 55.3801 19.55H52.9702V24.15C52.9702 26.08 53.1902 26.86 53.4902 27.16C53.8802 27.63 54.9502 27.98 57.6202 28.06V31.59C55.7702 31.55 50.8302 31.5 49.7502 31.5L49.7602 31.51Z" fill="white" style="fill:white;fill-opacity:1;"/>
<path d="M76.86 32.1502C70.84 32.1502 66.71 28.1902 66.71 22.0002C66.71 14.8202 71.27 10.9502 77.37 10.9502C83.47 10.9502 86.1 14.7802 86.1 19.5502C86.1 20.4502 85.93 21.6102 85.5 22.0902C85.03 22.6102 84.21 22.7402 83.35 22.7402H72.86V23.0802C72.86 25.2302 74.62 27.2502 77.98 27.2502C80 27.2502 82.19 26.7302 84.82 25.4002L86.63 28.9302C84.27 30.8602 80.74 32.1502 76.87 32.1502H76.86ZM80.35 18.7802V18.3502C80.35 16.6702 79.27 15.4302 77.04 15.4302C74.98 15.4302 73.13 16.3802 72.91 18.9602L80.35 18.7902V18.7802Z" fill="white" style="fill:white;fill-opacity:1;"/>
<path d="M98.1601 32.0699C92.3101 32.0699 88.8301 27.9399 88.8301 22.3099C88.8301 15.9499 92.0101 11.0899 99.6201 11.0899C100.82 11.0899 102.63 11.3499 103.75 11.8599V8.50988C103.75 7.55988 103.66 6.52988 103.49 5.96988C103.36 5.23988 102.67 4.93988 101.81 4.93988C101.51 4.93988 101.08 4.97988 100.65 5.02988V1.71988C103.02 0.519883 105.6 0.129883 107.27 0.129883C109.29 0.129883 109.85 1.67989 109.85 3.30989C109.85 5.15989 109.76 10.2799 109.76 12.3799V25.5799C109.76 26.8299 110.15 27.6899 111.35 27.6899C111.69 27.6899 112.34 27.6499 112.9 27.5599V31.1699C111.05 31.7699 109.25 31.9399 108.21 31.9399C105.93 31.9399 104.94 31.1199 104.56 29.4499C102.88 31.2099 100.82 32.0699 98.1501 32.0699H98.1601ZM103.75 16.4599C102.89 15.9399 101.51 15.7299 100.35 15.7299C97.1701 15.7299 95.1001 17.6599 95.1001 21.5799C95.1001 25.4999 97.1201 27.3399 100.13 27.3399C101.51 27.3399 102.84 26.9099 103.74 26.1399V16.4699L103.75 16.4599Z" fill="white" style="fill:white;fill-opacity:1;"/>
<path d="M124.89 32.1502C118.87 32.1502 114.74 28.1902 114.74 22.0002C114.74 14.8202 119.3 10.9502 125.4 10.9502C131.5 10.9502 134.13 14.7802 134.13 19.5502C134.13 20.4502 133.96 21.6102 133.53 22.0902C133.06 22.6102 132.24 22.7402 131.38 22.7402H120.89V23.0802C120.89 25.2302 122.65 27.2502 126.01 27.2502C128.03 27.2502 130.22 26.7302 132.85 25.4002L134.66 28.9302C132.3 30.8602 128.77 32.1502 124.9 32.1502H124.89ZM128.37 18.7802V18.3502C128.37 16.6702 127.29 15.4302 125.06 15.4302C123 15.4302 121.15 16.3802 120.93 18.9602L128.37 18.7902V18.7802Z" fill="white" style="fill:white;fill-opacity:1;"/>
<path d="M142.98 31.5098C141.95 31.5098 138.68 31.5098 136.74 31.5998V28.1598C138.72 27.9398 139.19 27.8198 139.53 27.4698C139.74 27.2098 139.87 26.6498 139.87 25.1498V19.0898C139.87 17.3298 139.61 16.6398 139.23 16.3798C138.89 16.1698 138.28 16.0798 137.81 16.0798C137.51 16.0798 137.08 16.0798 136.73 16.1198V12.7698C138.88 11.6898 141.12 11.1798 143.05 11.1798C144.34 11.1798 145.54 11.6498 145.8 13.8898C146.96 12.2998 149.02 11.0498 150.92 11.0498C152.47 11.0498 153.76 11.6498 153.76 13.7198C153.76 14.7098 153.59 16.2598 153.33 18.0598H149.72C149.46 16.3798 149.03 15.9498 148.13 15.9498C147.44 15.9498 146.5 16.3398 145.89 16.8498V25.0198C145.89 26.4798 146.06 27.2098 146.36 27.5598C146.7 27.9498 147.91 28.0798 149.46 28.1598V31.5998C147.57 31.5598 144.04 31.5098 142.97 31.5098H142.98Z" fill="white" style="fill:white;fill-opacity:1;"/>
<path d="M171.67 31.9399C170.17 31.9399 168.45 31.6799 167.84 29.5299C166.34 31.0299 164.23 32.0199 161.86 32.0199C158.59 32.0199 155.11 30.2099 155.11 25.9099C155.11 21.9499 157.73 19.7599 165.39 19.7599C165.78 19.7599 166.72 19.7599 167.2 19.8499V18.6899C167.2 17.5699 167.11 16.9699 166.81 16.4499C166.38 15.7199 165.39 15.4199 164.06 15.4199C162.99 15.4199 162.04 15.5899 161.48 16.0199C160.96 16.4099 160.71 17.1399 160.62 18.6899H157.09C156.92 17.7899 156.7 16.1999 156.7 15.0299C156.7 13.4799 157.47 12.5799 158.81 12.0199C160.19 11.4599 162.59 10.9399 164.53 10.9399C169.22 10.9399 170.85 11.9699 171.8 12.9999C172.66 13.9899 173.13 15.5799 173.13 17.8199C173.13 19.2399 173.09 24.6999 173.09 25.1699C173.09 27.1499 173.65 27.6599 174.68 27.6599C175.2 27.6599 175.63 27.6199 176.23 27.5299V31.1399C174.94 31.6099 172.92 31.9099 171.67 31.9099V31.9399ZM167.2 23.5499C166.81 23.4599 165.91 23.4199 165.44 23.4199C162.22 23.4199 161.23 24.2399 161.23 25.5699C161.23 27.2499 162.56 27.7599 163.77 27.7599C165.15 27.7599 166.39 27.3699 167.21 26.8999V23.5499H167.2Z" fill="white" style="fill:white;fill-opacity:1;"/>
<path d="M178.11 29.4001L189.12 15.2101C186.71 15.2101 185.64 15.2101 184.56 15.3001C183.79 15.3901 183.23 15.6401 182.93 16.2501C182.59 16.8901 182.46 17.6701 182.24 18.9601H178.84C178.71 17.8401 178.54 15.8601 178.54 14.4001C178.54 12.7701 179.31 11.6001 181.29 11.6001H197.46V13.9701L186.45 28.0301C187.78 28.0701 188.77 28.0701 189.63 28.0701C191.44 28.0701 192.55 27.8601 193.2 27.6001C193.67 27.4301 194.23 26.7001 194.49 26.1001C194.79 25.5001 195.14 24.6401 195.35 23.6501H198.49C198.49 24.5501 198.36 27.6501 198.15 29.6301C198.02 30.7001 197.29 31.5601 195.31 31.5601H178.11V29.4101V29.4001Z" fill="white" style="fill:white;fill-opacity:1;"/>
<path d="M206.68 31.5101C205.65 31.5101 202.38 31.5101 200.45 31.6001V28.1601C202.43 27.9401 202.9 27.8201 203.24 27.4701C203.45 27.2101 203.58 26.6501 203.58 25.1501V19.0901C203.58 17.3301 203.32 16.6401 202.93 16.3801C202.59 16.1701 201.98 16.0801 201.51 16.0801C201.21 16.0801 200.78 16.0801 200.44 16.1201V12.7701C202.59 11.6901 204.87 11.1801 206.85 11.1801C208.4 11.1801 209.77 11.7801 209.77 14.5801C209.77 17.5901 209.6 21.5901 209.6 25.1101C209.6 26.6101 209.69 27.1701 209.99 27.5201C210.29 27.9101 211.06 28.0401 212.7 28.1701V31.6101C210.85 31.5701 207.75 31.5201 206.68 31.5201V31.5101ZM205.9 7.68012C203.79 7.68012 202.5 6.05012 202.5 4.15012C202.5 2.13012 203.92 0.620117 206.03 0.620117C208.52 0.620117 209.51 2.12012 209.51 4.06012C209.51 6.00012 208.22 7.67011 205.9 7.67011V7.68012Z" fill="white" style="fill:white;fill-opacity:1;"/>
<path d="M224.94 32.1502C217.67 32.1502 214.19 27.8102 214.19 21.6602C214.19 15.0402 218.75 10.9502 225.28 10.9502C232.42 10.9502 235.77 15.0302 235.77 21.2302C235.77 28.4502 231 32.1502 224.93 32.1502H224.94ZM224.98 15.6002C222.06 15.6002 220.47 17.5802 220.47 21.2302C220.47 25.8702 222.19 27.5102 224.98 27.5102C227.95 27.5102 229.54 25.7002 229.54 21.6202C229.54 17.3202 228.04 15.6002 224.98 15.6002Z" fill="white" style="fill:white;fill-opacity:1;"/>
<path d="M243.96 31.5101C242.93 31.5101 239.66 31.5101 237.73 31.6001V28.1601C239.71 27.9401 240.18 27.8201 240.52 27.4701C240.73 27.2101 240.86 26.6501 240.86 25.1501V19.0901C240.86 17.3301 240.6 16.6401 240.21 16.3801C239.87 16.1701 239.26 16.0801 238.79 16.0801C238.49 16.0801 238.06 16.0801 237.72 16.1201V12.7701C239.87 11.6901 242.11 11.1801 244.04 11.1801C245.42 11.1801 246.62 11.7401 246.83 14.1501C248.59 12.2201 251.56 11.1001 253.97 11.1001C255.69 11.1001 257.2 11.5701 258.1 12.4801C259.13 13.5101 259.56 15.2301 259.56 18.2401V25.1601C259.56 26.4101 259.6 26.9701 259.78 27.3101C260.04 27.7401 260.55 27.9101 262.7 28.1701V31.6101C260.89 31.5701 258.06 31.5201 257.11 31.5201C256.08 31.5201 252.85 31.5601 251 31.6101V28.1701C252.46 28.0001 252.85 27.8301 253.15 27.5201C253.45 27.2101 253.54 26.7001 253.54 25.0701V19.8201C253.54 18.3601 253.41 17.3701 252.9 16.8101C252.47 16.3401 251.65 16.1701 250.62 16.1701C249.59 16.1701 248.17 16.4701 246.88 17.0301V25.1101C246.88 26.5701 246.97 27.2201 247.27 27.5601C247.61 27.9001 248.04 28.0301 249.38 28.1601V31.6001C247.49 31.5601 245.04 31.5101 243.96 31.5101Z" fill="white" style="fill:white;fill-opacity:1;"/>
<path d="M274.42 32.1502C268.4 32.1502 264.27 28.1902 264.27 22.0002C264.27 14.8202 268.83 10.9502 274.93 10.9502C281.03 10.9502 283.66 14.7802 283.66 19.5502C283.66 20.4502 283.49 21.6102 283.06 22.0902C282.59 22.6102 281.77 22.7402 280.91 22.7402H270.42V23.0802C270.42 25.2302 272.18 27.2502 275.54 27.2502C277.56 27.2502 279.75 26.7302 282.38 25.4002L284.19 28.9302C281.82 30.8602 278.3 32.1502 274.43 32.1502H274.42ZM277.9 18.7802V18.3502C277.9 16.6702 276.82 15.4302 274.59 15.4302C272.53 15.4302 270.68 16.3802 270.46 18.9602L277.9 18.7902V18.7802Z" fill="white" style="fill:white;fill-opacity:1;"/>
<path d="M47.3098 56.9498C47.7398 59.4398 48.3898 60.4798 49.0298 61.1598C50.0198 62.1498 52.0798 62.7098 54.4498 62.7098C57.5898 62.7098 59.0898 61.3798 59.0898 59.5698C59.0898 57.7598 58.2298 56.9498 56.5098 56.3398L50.9598 54.3198C45.2398 52.2598 44.2998 49.0698 44.2998 46.0598C44.2998 40.9898 47.8698 37.0698 55.9098 37.0698C58.2698 37.0698 61.2398 37.3698 63.0498 38.3598C64.2098 39.0498 64.6398 39.9498 64.6398 41.7998C64.6398 42.9198 64.4698 45.1998 64.2998 46.7398H60.9498C60.6098 44.3298 60.1798 43.2098 59.4898 42.5698C58.7598 41.9298 57.0798 41.7098 55.2298 41.7098C52.0498 41.7098 50.9298 43.0898 50.9298 44.7198C50.9298 46.0998 51.5298 47.1698 53.6398 47.9398L59.0998 49.9198C63.6198 51.5498 65.8498 53.9598 65.8498 58.0898C65.8498 64.3698 60.9498 67.3798 54.0698 67.3798C51.4898 67.3798 48.5698 66.9498 46.9798 66.2198C44.3098 65.0598 43.7998 63.5998 43.7998 61.2698C43.7998 59.5098 43.9298 57.9998 44.0598 56.9298H47.3298L47.3098 56.9498Z" fill="white" style="fill:white;fill-opacity:1;"/>
<path d="M89.4302 50.8901C88.9602 51.3601 88.5702 52.0101 88.0102 53.2601L82.4202 65.8601C81.9002 66.9801 80.7902 67.5801 79.3702 67.5801C77.7402 67.5801 76.6602 67.0201 76.1402 65.8201L70.6802 53.3501C70.1202 52.0601 69.6902 51.2401 69.1802 50.8601C68.8402 50.5601 67.9302 50.3901 67.2002 50.3401V46.8101C68.6602 46.8501 73.3902 46.9001 74.4702 46.9001C75.5502 46.9001 77.8702 46.8601 79.4102 46.8101V50.3401C78.9802 50.3801 78.2902 50.4701 77.8602 50.5501C77.1702 50.6801 76.8702 51.1501 76.8702 51.7101C76.8702 52.1401 77.0402 52.7401 77.3002 53.4301C78.4602 56.1401 79.5802 58.8101 80.5302 61.3401C81.4302 58.9301 82.5902 55.9601 83.6302 53.3401C83.8902 52.7401 84.1002 51.9201 84.1002 51.4101C84.1002 50.9401 83.8002 50.6401 83.3302 50.5501C82.6402 50.4201 82.2102 50.3801 81.5202 50.3401V46.8101C82.9402 46.8501 85.4802 46.9001 86.4202 46.9001C87.2402 46.9001 90.0302 46.8601 91.3602 46.8101V50.3401C90.6302 50.4301 89.8602 50.5101 89.4302 50.9001V50.8901Z" fill="white" style="fill:white;fill-opacity:1;"/>
<path d="M99.3799 66.7599C98.3499 66.7599 95.0799 66.7599 93.1499 66.8499V63.4099C95.1299 63.1899 95.5999 63.0699 95.9399 62.7199C96.1599 62.4599 96.2799 61.8999 96.2799 60.3999V54.3399C96.2799 52.5799 96.0199 51.8899 95.6299 51.6299C95.2899 51.4199 94.6799 51.3299 94.2099 51.3299C93.9099 51.3299 93.4799 51.3299 93.1299 51.3699V48.0199C95.2799 46.9499 97.5599 46.4299 99.5399 46.4299C101.09 46.4299 102.46 47.0299 102.46 49.8299C102.46 52.8399 102.29 56.8399 102.29 60.3599C102.29 61.8599 102.38 62.4199 102.68 62.7699C102.98 63.1599 103.76 63.2899 105.39 63.4199V66.8599C103.54 66.8199 100.45 66.7699 99.3699 66.7699L99.3799 66.7599ZM98.5999 42.9399C96.4899 42.9399 95.1999 41.3099 95.1999 39.4099C95.1999 37.3899 96.6199 35.8799 98.7299 35.8799C101.22 35.8799 102.21 37.3799 102.21 39.3199C102.21 41.2599 100.92 42.9299 98.5999 42.9299V42.9399Z" fill="white" style="fill:white;fill-opacity:1;"/>
<path d="M107.33 64.6501L118.34 50.4601C115.93 50.4601 114.86 50.4601 113.78 50.5501C113.01 50.6401 112.45 50.8901 112.15 51.5001C111.81 52.1401 111.68 52.9201 111.46 54.2101H108.06C107.93 53.0901 107.76 51.1101 107.76 49.6501C107.76 48.0201 108.53 46.8501 110.51 46.8501H126.68V49.2201L115.67 63.2801C117 63.3201 117.99 63.3201 118.85 63.3201C120.66 63.3201 121.77 63.1101 122.42 62.8501C122.89 62.6801 123.45 61.9501 123.71 61.3501C124.01 60.7501 124.36 59.8901 124.57 58.9001H127.71C127.71 59.8001 127.58 62.9001 127.37 64.8801C127.24 65.9501 126.51 66.8101 124.53 66.8101H107.33V64.6601V64.6501Z" fill="white" style="fill:white;fill-opacity:1;"/>
<path d="M129.58 64.6501L140.59 50.4601C138.18 50.4601 137.11 50.4601 136.03 50.5501C135.26 50.6401 134.7 50.8901 134.4 51.5001C134.06 52.1401 133.93 52.9201 133.71 54.2101H130.31C130.18 53.0901 130.01 51.1101 130.01 49.6501C130.01 48.0201 130.78 46.8501 132.76 46.8501H148.93V49.2201L137.92 63.2801C139.25 63.3201 140.24 63.3201 141.1 63.3201C142.91 63.3201 144.02 63.1101 144.67 62.8501C145.14 62.6801 145.7 61.9501 145.96 61.3501C146.26 60.7501 146.6 59.8901 146.82 58.9001H149.96C149.96 59.8001 149.83 62.9001 149.62 64.8801C149.49 65.9501 148.76 66.8101 146.78 66.8101H129.58V64.6601V64.6501Z" fill="white" style="fill:white;fill-opacity:1;"/>
<path d="M162.43 67.4002C156.41 67.4002 152.28 63.4402 152.28 57.2502C152.28 50.0702 156.84 46.2002 162.94 46.2002C169.04 46.2002 171.67 50.0302 171.67 54.8002C171.67 55.7002 171.5 56.8602 171.07 57.3402C170.6 57.8602 169.78 57.9902 168.92 57.9902H158.43V58.3302C158.43 60.4802 160.19 62.5002 163.55 62.5002C165.57 62.5002 167.76 61.9802 170.39 60.6502L172.2 64.1802C169.83 66.1102 166.31 67.4002 162.44 67.4002H162.43ZM165.92 54.0302V53.6002C165.92 51.9202 164.84 50.6802 162.61 50.6802C160.55 50.6802 158.7 51.6302 158.48 54.2102L165.92 54.0402V54.0302Z" fill="white" style="fill:white;fill-opacity:1;"/>
<path d="M180.53 66.7598C179.5 66.7598 176.23 66.7598 174.3 66.8498V63.4098C176.28 63.1898 176.75 63.0698 177.09 62.7198C177.3 62.4598 177.43 61.8998 177.43 60.3998V54.3398C177.43 52.5798 177.17 51.8898 176.78 51.6298C176.44 51.4198 175.83 51.3298 175.36 51.3298C175.06 51.3298 174.63 51.3298 174.29 51.3698V48.0198C176.44 46.9498 178.68 46.4298 180.61 46.4298C181.9 46.4298 183.1 46.8998 183.36 49.1398C184.52 47.5498 186.59 46.2998 188.48 46.2998C190.03 46.2998 191.32 46.8998 191.32 48.9698C191.32 49.9598 191.15 51.5098 190.89 53.3098H187.28C187.02 51.6298 186.59 51.1998 185.69 51.1998C185 51.1998 184.06 51.5898 183.45 52.0998V60.2698C183.45 61.7298 183.62 62.4598 183.92 62.8098C184.26 63.1998 185.47 63.3298 187.02 63.4098V66.8498C185.13 66.8098 181.6 66.7598 180.53 66.7598Z" fill="white" style="fill:white;fill-opacity:1;"/>
<path d="M209.22 67.1899C207.72 67.1899 206 66.9299 205.39 64.7799C203.89 66.2799 201.78 67.2699 199.41 67.2699C196.14 67.2699 192.66 65.4599 192.66 61.1599C192.66 57.1999 195.28 55.0099 202.94 55.0099C203.33 55.0099 204.27 55.0099 204.75 55.0999V53.9399C204.75 52.8199 204.66 52.2199 204.36 51.6999C203.93 50.9699 202.94 50.6699 201.61 50.6699C200.54 50.6699 199.59 50.8399 199.03 51.2699C198.51 51.6599 198.26 52.3899 198.17 53.9399H194.64C194.47 53.0399 194.25 51.4499 194.25 50.2799C194.25 48.7299 195.02 47.8299 196.36 47.2699C197.74 46.7099 200.14 46.1899 202.08 46.1899C206.77 46.1899 208.4 47.2199 209.35 48.2499C210.21 49.2399 210.68 50.8299 210.68 53.0699C210.68 54.4899 210.64 59.9499 210.64 60.4199C210.64 62.3999 211.2 62.9099 212.23 62.9099C212.75 62.9099 213.18 62.8699 213.78 62.7799V66.3899C212.49 66.8599 210.47 67.1599 209.22 67.1599V67.1899ZM204.75 58.7999C204.36 58.7099 203.46 58.6699 202.99 58.6699C199.77 58.6699 198.78 59.4899 198.78 60.8199C198.78 62.4999 200.11 63.0099 201.32 63.0099C202.7 63.0099 203.94 62.6199 204.76 62.1499V58.7999H204.75Z" fill="white" style="fill:white;fill-opacity:1;"/>
<path d="M234.63 67.3199C228.78 67.3199 225.3 63.1899 225.3 57.5599C225.3 51.1999 228.48 46.3399 236.09 46.3399C237.29 46.3399 239.1 46.5999 240.22 47.1099V43.7599C240.22 42.8099 240.13 41.7799 239.96 41.2199C239.83 40.4899 239.14 40.1899 238.28 40.1899C237.98 40.1899 237.55 40.2299 237.12 40.2799V36.9699C239.48 35.7699 242.06 35.3799 243.74 35.3799C245.76 35.3799 246.32 36.9299 246.32 38.5599C246.32 40.4099 246.23 45.5299 246.23 47.6299V60.8299C246.23 62.0799 246.62 62.9399 247.82 62.9399C248.16 62.9399 248.81 62.8999 249.37 62.8099V66.4199C247.52 67.0199 245.71 67.1899 244.68 67.1899C242.4 67.1899 241.41 66.3699 241.03 64.6999C239.35 66.4599 237.29 67.3199 234.62 67.3199H234.63ZM240.22 51.7099C239.36 51.1899 237.98 50.9799 236.82 50.9799C233.64 50.9799 231.57 52.9099 231.57 56.8299C231.57 60.7499 233.59 62.5899 236.6 62.5899C237.98 62.5899 239.31 62.1599 240.21 61.3899V51.7199L240.22 51.7099Z" fill="white" style="fill:white;fill-opacity:1;"/>
<path d="M257.68 66.7599C256.65 66.7599 253.38 66.7599 251.45 66.8499V63.4099C253.43 63.1899 253.9 63.0699 254.24 62.7199C254.45 62.4599 254.58 61.8999 254.58 60.3999V54.3399C254.58 52.5799 254.32 51.8899 253.93 51.6299C253.59 51.4199 252.98 51.3299 252.51 51.3299C252.21 51.3299 251.78 51.3299 251.44 51.3699V48.0199C253.59 46.9499 255.87 46.4299 257.85 46.4299C259.4 46.4299 260.77 47.0299 260.77 49.8299C260.77 52.8399 260.6 56.8399 260.6 60.3599C260.6 61.8599 260.69 62.4199 260.99 62.7699C261.29 63.1599 262.06 63.2899 263.7 63.4199V66.8599C261.85 66.8199 258.75 66.7699 257.68 66.7699V66.7599ZM256.91 42.9399C254.8 42.9399 253.51 41.3099 253.51 39.4099C253.51 37.3899 254.93 35.8799 257.04 35.8799C259.53 35.8799 260.52 37.3799 260.52 39.3199C260.52 41.2599 259.23 42.9299 256.91 42.9299V42.9399Z" fill="white" style="fill:white;fill-opacity:1;"/>
<path d="M273.68 70.4499C275.44 69.4199 277.03 67.9999 277.59 66.6199C278.19 65.1199 278.49 62.8799 278.49 59.5699V44.3899C278.49 42.8399 278.45 42.1999 278.19 41.8999C277.89 41.4699 277.11 41.2999 274.71 41.1699V37.6899C275.91 37.7299 279.35 37.8199 281.76 37.8199C284.17 37.8199 286.96 37.7299 288.68 37.6899V41.1699C286.01 41.2999 285.71 41.5599 285.41 41.9399C285.2 42.2399 285.07 42.7099 285.07 44.4299V59.4799C285.07 63.0899 284.68 65.7599 283.18 68.1699C281.72 70.5399 278.54 72.6399 275.57 73.7599L273.68 70.4499Z" fill="white" style="fill:white;fill-opacity:1;"/>
<path d="M306.1 67.1899C304.6 67.1899 302.88 66.9299 302.27 64.7799C300.77 66.2799 298.66 67.2699 296.29 67.2699C293.02 67.2699 289.54 65.4599 289.54 61.1599C289.54 57.1999 292.16 55.0099 299.82 55.0099C300.21 55.0099 301.15 55.0099 301.63 55.0999V53.9399C301.63 52.8199 301.54 52.2199 301.24 51.6999C300.81 50.9699 299.82 50.6699 298.49 50.6699C297.42 50.6699 296.47 50.8399 295.91 51.2699C295.39 51.6599 295.14 52.3899 295.05 53.9399H291.52C291.35 53.0399 291.13 51.4499 291.13 50.2799C291.13 48.7299 291.9 47.8299 293.24 47.2699C294.62 46.7099 297.02 46.1899 298.96 46.1899C303.65 46.1899 305.28 47.2199 306.23 48.2499C307.09 49.2399 307.56 50.8299 307.56 53.0699C307.56 54.4899 307.52 59.9499 307.52 60.4199C307.52 62.3999 308.08 62.9099 309.11 62.9099C309.63 62.9099 310.06 62.8699 310.66 62.7799V66.3899C309.37 66.8599 307.35 67.1599 306.1 67.1599V67.1899ZM301.63 58.7999C301.24 58.7099 300.34 58.6699 299.87 58.6699C296.65 58.6699 295.66 59.4899 295.66 60.8199C295.66 62.4999 296.99 63.0099 298.2 63.0099C299.58 63.0099 300.82 62.6199 301.64 62.1499V58.7999H301.63Z" fill="white" style="fill:white;fill-opacity:1;"/>
<path d="M316.32 59.1902C316.58 61.0002 317.14 61.6402 317.65 62.0702C318.47 62.8002 319.63 63.1002 321.3 63.1002C323.32 63.1002 324.09 62.5402 324.09 61.6802C324.09 60.8202 323.66 60.5202 322.59 60.1302L318.63 58.6702C314.03 56.9502 313.25 55.1902 313.25 52.5602C313.25 49.0802 316.3 46.2002 322.45 46.2002C324.26 46.2002 326.49 46.5002 327.83 47.1502C328.78 47.6202 329.29 48.4002 329.29 49.7702C329.29 50.5402 329.12 52.6102 328.95 53.6002H325.77C325.51 51.9202 325.17 51.4902 324.61 51.1102C324.05 50.7202 322.8 50.5102 321.6 50.5102C319.67 50.5102 319.19 51.2002 319.19 51.9702C319.19 52.7002 319.62 53.0502 320.78 53.4702L324.78 54.9302C329.21 56.5202 330.16 58.1602 330.16 60.9502C330.16 65.2902 326.08 67.4002 320.96 67.4002C319.07 67.4002 316.92 67.1402 315.71 66.7102C313.39 65.9402 312.92 64.3002 312.92 62.6702C312.92 61.2502 312.96 59.9602 313.09 59.1902H316.32Z" fill="white" style="fill:white;fill-opacity:1;"/>
<path d="M336.48 59.1902C336.74 61.0002 337.3 61.6402 337.81 62.0702C338.63 62.8002 339.79 63.1002 341.46 63.1002C343.48 63.1002 344.25 62.5402 344.25 61.6802C344.25 60.8202 343.82 60.5202 342.75 60.1302L338.79 58.6702C334.19 56.9502 333.41 55.1902 333.41 52.5602C333.41 49.0802 336.46 46.2002 342.61 46.2002C344.42 46.2002 346.65 46.5002 347.99 47.1502C348.94 47.6202 349.45 48.4002 349.45 49.7702C349.45 50.5402 349.28 52.6102 349.11 53.6002H345.93C345.67 51.9202 345.33 51.4902 344.77 51.1102C344.21 50.7202 342.96 50.5102 341.76 50.5102C339.83 50.5102 339.35 51.2002 339.35 51.9702C339.35 52.7002 339.78 53.0502 340.94 53.4702L344.94 54.9302C349.37 56.5202 350.32 58.1602 350.32 60.9502C350.32 65.2902 346.24 67.4002 341.12 67.4002C339.23 67.4002 337.08 67.1402 335.87 66.7102C333.55 65.9402 333.08 64.3002 333.08 62.6702C333.08 61.2502 333.12 59.9602 333.25 59.1902H336.48Z" fill="white" style="fill:white;fill-opacity:1;"/>
</g>
<defs>
<clipPath id="clip0_153_78">
<rect width="351" height="74" fill="white" style="fill:white;fill-opacity:1;"/>
</clipPath>
</defs>
</svg>
