<?xml version="1.0" encoding="UTF-8"?>
<svg xmlns="http://www.w3.org/2000/svg" xmlns:xlink="http://www.w3.org/1999/xlink" version="1.2" >
<font id="Capita-Regular" horiz-adv-x="532">
<font-face  font-family="Capita" units-per-em="1000" ascent="725" descent="-275" font-style="normal" font-weight="400" font-stretch="normal" cap-height="676" x-height="460" underline-position="-75" underline-thickness="50" />
<missing-glyph horiz-adv-x="306" />
<glyph glyph-name="NULL" horiz-adv-x="0" >
</glyph>
<glyph glyph-name="CR" unicode="&#xd;" horiz-adv-x="250" >
</glyph>
<glyph glyph-name="space" unicode="&#x20;" horiz-adv-x="219" />
<glyph glyph-name="exclam" unicode="&#x21;" horiz-adv-x="289" d="M187 216 C211 476 222 608 222 640 C222 673 207 701 168 701 C127 701 112 672 112 639 C112 608 122 482 144 216 L187 216 Z M228 59 C228 96 201 122 163 122 C127 122 99 94 99 56 C99 18 127 -9 164 -9 C202 -9 228 16 228 59 L228 59 Z " />
<glyph glyph-name="quotedbl" unicode="&#x22;" horiz-adv-x="312" d="M100 428 C120 589 126 633 126 662 C126 691 117 711 81 711 C49 711 36 694 36 662 C36 635 41 588 60 428 L100 428 Z M251 428 C271 589 278 633 278 662 C278 691 267 711 232 711 C200 711 187 694 187 662 C187 635 193 588 211 428 L251 428 Z " />
<glyph glyph-name="numbersign" unicode="&#x23;" horiz-adv-x="559" d="M146 -13 L191 208 L316 208 L272 -13 L319 -13 L362 208 L470 208 L470 284 L377 284 L400 397 L514 397 L514 473 L414 473 L453 670 L409 670 L368 473 L243 473 L284 670 L237 670 L198 473 L86 473 L86 397 L184 397 L161 284 L44 284 L44 208 L145 208 L102 -13 L146 -13 Z M205 284 L228 397 L353 397 L332 284 L205 284 Z " />
<glyph glyph-name="dollar" unicode="&#x24;" horiz-adv-x="552" d="M308 -115 L308 0 C422 11 498 75 498 184 C498 255 463 310 372 347 L308 373 L308 594 C345 592 370 585 387 572 C403 560 413 539 419 483 L468 483 C472 514 477 553 477 578 C477 609 466 627 442 638 C405 654 356 661 311 661 L308 661 L308 764 L259 764 L259 658 C137 642 80 568 80 479 C80 416 110 355 206 315 L259 293 L259 65 C212 68 178 81 160 99 C145 114 128 134 121 194 L70 194 C68 169 67 151 67 122 C67 76 78 47 123 25 C155 9 207 -1 259 -2 L259 -115 L308 -115 Z M324 266 C385 241 408 213 408 164 C408 118 376 76 308 67 L308 272 L324 266 Z M169 495 C169 539 194 582 259 592 L259 393 C186 424 169 453 169 495 L169 495 Z " />
<glyph glyph-name="percent" unicode="&#x25;" horiz-adv-x="843" d="M349 463 C349 590 310 668 195 668 C92 668 31 592 31 454 C31 316 79 244 189 244 C279 244 349 305 349 463 L349 463 Z M277 459 C277 356 248 300 190 300 C135 300 103 343 103 462 C103 559 131 613 191 613 C249 613 277 571 277 459 L277 459 Z M547 676 L257 9 L303 -11 L592 657 L547 676 Z M812 210 C812 338 773 416 657 416 C554 416 493 340 493 202 C493 63 542 -8 653 -8 C742 -8 812 53 812 210 L812 210 Z M740 206 C740 103 711 47 654 47 C598 47 566 90 566 209 C566 306 594 361 655 361 C712 361 740 319 740 206 L740 206 Z " />
<glyph glyph-name="ampersand" unicode="&#x26;" horiz-adv-x="762" d="M722 63 C714 62 706 62 699 62 C644 62 583 93 548 124 C574 154 603 202 625 248 C641 282 652 303 660 310 C671 321 689 324 724 325 L724 380 C690 379 632 378 601 378 C578 378 513 379 484 380 L484 325 C505 324 522 324 538 321 C553 318 562 310 562 297 C562 283 558 267 553 255 C543 231 523 190 500 165 C437 222 362 301 321 365 C439 417 508 465 508 555 C508 635 452 691 349 691 C211 691 159 609 159 527 C159 476 176 430 206 381 C103 336 48 278 48 181 C48 72 138 -13 283 -13 C364 -13 433 13 488 55 C530 21 590 -9 677 -9 C692 -9 708 -8 722 -6 L722 63 Z M291 419 C264 458 247 497 247 532 C247 580 274 624 347 624 C401 624 431 594 431 548 C431 501 391 457 291 419 L291 419 Z M240 322 C281 261 358 169 430 101 C401 79 356 59 299 59 C197 59 144 124 144 196 C144 248 167 290 240 322 L240 322 Z " />
<glyph glyph-name="quotesingle" unicode="&#x27;" horiz-adv-x="162" d="M100 428 C120 589 126 633 126 662 C126 691 117 711 81 711 C49 711 36 694 36 662 C36 635 41 588 60 428 L100 428 Z " />
<glyph glyph-name="parenleft" unicode="&#x28;" horiz-adv-x="312" d="M305 -159 C201 -52 120 84 120 290 C120 515 191 633 304 744 L276 776 C122 663 40 510 40 290 C40 72 131 -90 277 -191 L305 -159 Z " />
<glyph glyph-name="parenright" unicode="&#x29;" horiz-adv-x="312" d="M7 745 C112 636 191 501 191 296 C191 69 120 -48 8 -158 L37 -191 C189 -78 271 75 271 296 C271 513 180 675 35 776 L7 745 Z " />
<glyph glyph-name="asterisk" unicode="&#x2a;" horiz-adv-x="405" d="M240 661 C240 692 223 699 202 699 C184 699 164 692 164 661 C164 635 172 601 190 543 C113 593 93 604 76 604 C52 604 38 582 38 561 C38 537 52 529 76 525 C112 519 143 515 179 511 C95 446 82 422 82 402 C82 381 104 366 118 366 C146 366 160 379 201 490 C241 386 250 366 282 366 C298 366 321 380 321 401 C321 427 305 445 226 509 C283 516 304 518 331 523 C361 529 367 542 367 563 C367 586 353 602 332 602 C311 602 287 587 220 542 C231 593 240 634 240 661 L240 661 Z " />
<glyph glyph-name="plus" unicode="&#x2b;" horiz-adv-x="591" d="M328 66 L328 276 L519 276 L519 344 L328 344 L328 555 L263 555 L263 344 L72 344 L72 276 L263 276 L263 66 L328 66 Z " />
<glyph glyph-name="comma" unicode="&#x2c;" horiz-adv-x="220" d="M36 -185 C150 -116 187 -42 187 32 C187 87 158 122 108 122 C70 122 43 96 43 63 C43 26 62 14 86 6 C103 1 108 -13 108 -26 C108 -62 82 -102 13 -147 L36 -185 Z " />
<glyph glyph-name="hyphen" unicode="&#x2d;" horiz-adv-x="267" d="M237 282 L28 282 L28 210 L237 210 L237 282 Z " />
<glyph glyph-name="period" unicode="&#x2e;" horiz-adv-x="215" d="M173 59 C173 96 144 122 106 122 C70 122 43 94 43 56 C43 18 70 -9 107 -9 C145 -9 173 16 173 59 L173 59 Z " />
<glyph glyph-name="slash" unicode="&#x2f;" horiz-adv-x="337" d="M312 716 L257 731 L20 -65 L75 -81 L312 716 Z " />
<glyph glyph-name="zero" unicode="0" horiz-adv-x="549" d="M510 339 C510 549 451 670 281 670 C128 670 39 552 39 325 C39 98 110 -14 275 -14 C406 -14 510 78 510 339 L510 339 Z M419 332 C419 155 368 58 276 58 C184 58 130 128 130 339 C130 505 179 599 278 599 C371 599 419 530 419 332 L419 332 Z " />
<glyph glyph-name="one" unicode="1" horiz-adv-x="549" d="M436 -1 L436 53 C370 56 343 61 337 70 C331 78 328 88 328 122 L328 402 C328 498 329 575 329 622 C329 659 315 671 294 671 C280 671 261 666 247 661 C204 644 154 621 115 596 L129 548 C154 555 193 566 211 566 C225 566 234 560 236 541 C239 515 240 439 240 402 L240 122 C240 95 239 78 230 69 C223 62 195 56 131 53 L131 -1 C174 0 258 1 280 1 C304 1 394 0 436 -1 L436 -1 Z " />
<glyph glyph-name="two" unicode="2" horiz-adv-x="549" d="M499 163 L452 163 C443 130 436 113 424 100 C410 84 381 80 318 80 C286 80 201 79 159 79 C347 215 462 352 462 486 C462 604 393 670 259 670 C194 670 143 657 117 644 C82 627 68 608 68 573 C68 553 73 520 77 491 L126 491 C130 534 139 558 147 568 C162 584 189 599 245 599 C340 599 367 543 367 472 C367 355 249 230 33 56 L33 0 L424 0 C464 0 484 15 488 38 C494 74 497 119 499 163 L499 163 Z " />
<glyph glyph-name="three" unicode="3" horiz-adv-x="549" d="M67 165 C63 137 60 102 60 75 C60 40 75 20 109 7 C139 -5 188 -14 243 -14 C396 -14 487 56 487 182 C487 278 428 335 312 346 C419 372 460 438 460 511 C460 601 406 670 268 670 C204 670 151 654 125 641 C93 625 82 606 82 573 C82 554 85 521 88 497 L139 497 C143 538 151 563 162 573 C178 589 205 600 262 600 C345 600 369 550 369 498 C369 440 328 389 243 375 C218 371 195 370 173 369 L173 305 C196 305 221 305 244 303 C351 295 396 248 396 181 C396 108 350 58 248 58 C191 58 159 75 142 92 C132 103 122 125 119 165 L67 165 Z " />
<glyph glyph-name="four" unicode="4" horiz-adv-x="549" d="M517 -1 L517 49 C457 53 436 60 429 69 C424 77 421 94 421 126 L421 178 L521 178 L521 251 L421 251 L421 472 C421 508 422 571 422 614 C422 660 401 671 379 671 C347 671 331 659 311 629 L38 227 L38 177 L335 177 L335 128 C335 98 333 79 326 69 C320 60 296 54 238 49 L238 -1 C280 0 345 1 367 1 C391 1 476 0 517 -1 L517 -1 Z M335 248 L125 248 L339 565 C337 490 336 352 335 248 L335 248 Z " />
<glyph glyph-name="five" unicode="5" horiz-adv-x="549" d="M65 163 C61 135 59 96 59 74 C59 41 71 22 107 7 C134 -4 182 -14 239 -14 C388 -14 488 69 488 216 C488 356 398 419 279 419 C239 419 198 411 171 403 L187 573 L461 573 L461 654 L127 654 L104 406 C103 392 102 373 102 365 C102 333 119 325 139 325 C151 325 169 329 183 333 C203 339 226 342 243 342 C353 342 397 282 397 202 C397 122 350 56 241 56 C187 56 155 70 139 88 C129 99 120 123 117 163 L65 163 Z " />
<glyph glyph-name="six" unicode="6" horiz-adv-x="549" d="M147 346 C157 548 245 599 330 599 C357 599 388 593 404 579 C416 568 423 546 426 507 L478 507 C482 531 485 575 485 594 C485 627 470 644 439 655 C414 665 371 670 335 670 C169 670 55 559 55 288 C55 81 147 -14 281 -14 C407 -14 503 70 503 219 C503 332 433 420 308 420 C244 420 175 388 147 346 L147 346 Z M147 271 C179 321 234 345 285 345 C363 345 414 302 414 206 C414 108 360 57 283 57 C203 57 161 115 150 203 C148 220 147 252 147 271 L147 271 Z " />
<glyph glyph-name="seven" unicode="7" horiz-adv-x="549" d="M53 484 L98 484 C104 535 110 562 134 568 C150 573 195 573 255 573 L410 573 L169 29 C166 22 163 13 163 4 C163 -16 183 -27 207 -27 C225 -27 236 -16 243 0 L499 602 L499 654 L105 654 C56 654 45 630 45 601 C45 572 47 535 53 484 L53 484 Z " />
<glyph glyph-name="eight" unicode="8" horiz-adv-x="549" d="M188 335 C86 291 50 226 50 160 C50 54 134 -15 268 -15 C410 -15 495 67 495 169 C495 242 471 296 353 349 C438 394 476 443 476 512 C476 605 411 670 283 670 C147 670 76 593 76 499 C76 447 96 388 188 335 L188 335 Z M241 303 C353 257 401 226 401 161 C401 97 352 55 270 55 C194 55 137 98 137 166 C137 223 164 258 241 303 L241 303 Z M297 380 C201 422 166 459 166 511 C166 566 211 602 282 602 C350 602 389 563 389 506 C389 457 351 413 297 380 L297 380 Z " />
<glyph glyph-name="nine" unicode="9" horiz-adv-x="549" d="M402 313 C391 108 308 58 224 58 C184 58 159 67 144 82 C133 94 123 115 120 154 L68 154 C65 129 63 90 63 68 C63 36 80 13 112 2 C137 -6 177 -14 218 -14 C386 -14 493 95 493 369 C493 574 408 670 271 670 C145 670 47 587 47 439 C47 324 116 241 240 241 C306 241 373 274 402 313 L402 313 Z M401 387 C369 338 315 316 264 316 C185 316 136 356 136 451 C136 549 188 599 264 599 C348 599 388 542 399 456 C401 439 401 407 401 387 L401 387 Z " />
<glyph glyph-name="colon" unicode="&#x3a;" horiz-adv-x="236" d="M194 59 C194 96 165 122 127 122 C92 122 64 94 64 56 C64 18 92 -9 128 -9 C166 -9 194 16 194 59 L194 59 Z M194 381 C194 419 165 445 127 445 C92 445 64 417 64 378 C64 340 92 312 128 312 C166 312 194 338 194 381 L194 381 Z " />
<glyph glyph-name="semicolon" unicode="&#x3b;" horiz-adv-x="238" d="M194 381 C194 419 165 445 127 445 C92 445 64 417 64 378 C64 340 92 312 128 312 C166 312 194 338 194 381 L194 381 Z M57 -185 C169 -117 208 -42 208 32 C208 87 179 122 129 122 C92 122 64 96 64 63 C64 26 83 14 107 6 C124 1 129 -13 129 -26 C129 -62 103 -101 34 -147 L57 -185 Z " />
<glyph glyph-name="less" unicode="&#x3c;" horiz-adv-x="591" d="M474 69 L474 151 L162 312 L474 476 L474 554 L93 349 L93 275 L474 69 Z " />
<glyph glyph-name="equal" unicode="&#x3d;" horiz-adv-x="591" d="M522 193 L522 262 L68 262 L68 193 L522 193 Z M522 371 L522 440 L68 440 L68 371 L522 371 Z " />
<glyph glyph-name="greater" unicode="&#x3e;" horiz-adv-x="591" d="M117 554 L117 472 L429 312 L117 150 L117 69 L497 278 L497 350 L117 554 Z " />
<glyph glyph-name="question" unicode="&#x3f;" horiz-adv-x="426" d="M211 213 C213 241 215 263 217 278 C220 300 228 321 251 333 C373 393 410 453 410 533 C410 633 352 695 225 696 C184 696 141 690 109 679 C78 668 60 650 60 619 C60 594 65 564 69 543 L121 543 C123 582 129 604 141 614 C157 627 188 630 221 630 C302 629 316 567 316 525 C316 470 283 424 218 390 C184 373 158 353 158 317 C158 295 160 260 166 213 L211 213 Z M258 59 C258 96 230 122 193 122 C157 122 128 94 128 56 C128 18 157 -9 194 -9 C231 -9 258 16 258 59 L258 59 Z " />
<glyph glyph-name="at" unicode="&#x40;" horiz-adv-x="794" d="M735 -23 L706 19 C627 -44 527 -83 409 -83 C234 -83 103 29 103 202 C103 420 247 580 449 580 C593 580 696 497 696 357 C696 265 663 191 616 147 C594 126 568 112 552 112 C538 112 529 119 529 137 C529 166 534 205 551 267 L605 472 L551 472 L535 441 C507 457 471 464 445 464 C382 464 345 447 299 406 C237 349 197 254 197 184 C197 97 236 47 316 47 C369 47 419 74 462 120 C462 115 462 104 463 98 C467 64 483 47 524 47 C557 47 608 69 640 97 C715 163 757 242 757 362 C757 482 676 630 450 630 C202 630 38 433 38 205 C38 -5 189 -141 404 -141 C526 -141 643 -100 735 -23 L735 -23 Z M463 167 C430 137 377 107 338 107 C294 107 268 130 268 188 C268 250 303 328 345 370 C373 398 400 407 434 407 C470 407 494 400 517 387 L480 249 C472 219 467 193 463 167 L463 167 Z " />
<glyph glyph-name="A" unicode="A" horiz-adv-x="713" d="M267 -1 L267 54 C238 56 201 59 188 64 C178 68 175 77 175 86 C175 102 181 124 190 150 L223 238 L468 238 L503 145 C513 117 517 96 517 85 C517 73 511 65 494 61 C483 58 448 55 426 54 L426 -1 C465 0 554 1 576 1 C601 1 670 0 707 -1 L707 54 C675 55 652 60 644 67 C630 78 621 93 606 135 L414 649 C402 681 387 693 361 693 C332 693 315 678 303 647 L116 151 C95 95 89 80 76 70 C66 62 44 56 6 54 L6 -1 C39 0 106 1 125 1 C146 1 232 0 267 -1 L267 -1 Z M243 305 C312 493 330 544 344 584 C354 552 374 496 445 305 L243 305 Z " />
<glyph glyph-name="B" unicode="B" horiz-adv-x="625" d="M34 -1 C70 0 128 1 160 1 C211 1 278 -1 319 -1 C388 -1 446 13 480 32 C551 70 575 127 575 196 C575 286 519 348 405 361 C494 383 539 441 539 519 C539 598 493 654 391 669 C359 673 280 677 223 677 L34 677 L34 623 C94 620 109 618 118 607 C123 601 125 588 125 550 L125 125 C125 75 122 70 109 64 C102 60 81 56 34 54 L34 -1 Z M216 387 L216 608 L262 608 C299 608 344 605 367 599 C412 586 442 553 442 503 C442 446 413 411 358 394 C344 390 295 387 261 387 L216 387 Z M216 320 L262 320 C340 320 382 315 414 298 C448 281 474 242 474 194 C474 107 416 63 308 63 C292 63 258 63 242 66 C222 70 216 76 216 100 L216 320 Z " />
<glyph glyph-name="C" unicode="C" horiz-adv-x="672" d="M620 175 L567 175 C552 128 540 105 527 93 C507 76 463 59 397 59 C263 59 144 137 144 336 C144 525 259 619 397 619 C464 619 509 607 527 587 C538 576 546 550 550 499 L603 499 C607 525 612 580 612 608 C612 638 598 656 564 669 C532 681 482 692 404 692 C188 692 48 554 48 326 C48 105 186 -14 383 -14 C460 -14 514 -1 545 9 C578 20 599 38 607 64 C613 84 619 128 620 175 L620 175 Z " />
<glyph glyph-name="D" unicode="D" horiz-adv-x="720" d="M34 0 L271 0 C405 0 482 19 541 59 C627 116 671 213 671 351 C671 479 634 568 549 622 C486 661 410 676 204 676 L34 676 L34 623 C97 620 114 618 121 603 C124 595 125 573 125 547 L125 128 C125 87 124 77 118 69 C110 60 92 57 34 54 L34 0 Z M216 109 L216 606 L277 606 C359 606 421 594 460 575 C532 541 575 464 575 345 C575 161 488 69 323 69 C301 69 263 70 241 76 C222 81 216 87 216 109 L216 109 Z " />
<glyph glyph-name="E" unicode="E" horiz-adv-x="600" d="M565 179 L515 179 C504 141 492 110 478 95 C461 78 430 68 335 68 C311 68 269 69 243 72 C223 75 216 85 216 114 L216 318 L284 318 C332 318 359 318 370 303 C378 292 384 279 389 241 L436 241 C434 282 434 336 434 352 C434 381 434 433 436 459 L386 459 C384 431 377 410 368 399 C357 385 339 382 286 382 L216 382 L216 607 L326 607 C403 607 426 604 441 593 C452 585 460 566 466 511 L519 511 C522 540 527 600 527 627 C527 656 514 676 464 676 L34 676 L34 623 C94 619 112 616 119 606 C124 599 125 575 125 547 L125 134 C125 95 125 78 116 69 C107 60 84 57 34 54 L34 0 L468 0 C510 0 541 11 547 29 C558 59 564 122 565 179 L565 179 Z " />
<glyph glyph-name="F" unicode="F" horiz-adv-x="579" d="M327 -1 L327 54 C269 58 235 62 226 73 C221 80 216 92 216 137 L216 306 L298 306 C345 306 372 306 383 291 C390 281 397 266 402 228 L448 228 C447 269 447 324 447 341 C447 369 447 424 448 449 L399 449 C397 420 389 398 381 387 C369 373 351 369 299 369 L216 369 L216 607 L338 607 C414 607 435 604 449 593 C461 585 468 566 476 511 L529 511 C532 539 537 600 537 628 C537 657 522 676 471 676 L34 676 L34 623 C94 619 112 616 119 606 C124 599 125 575 125 547 L125 134 C125 88 124 77 118 70 C110 62 96 58 34 54 L34 -1 C77 0 148 1 171 1 C197 1 284 0 327 -1 L327 -1 Z " />
<glyph glyph-name="G" unicode="G" horiz-adv-x="712" d="M684 261 L684 316 C650 315 601 313 570 313 C549 313 465 315 437 316 L437 261 C478 259 509 256 519 249 C527 242 529 231 529 200 L529 126 C529 105 527 90 520 83 C515 79 504 72 487 68 C469 63 430 59 398 59 C266 59 144 135 144 336 C144 533 267 619 404 619 C480 619 521 607 539 586 C549 574 558 550 562 498 L615 498 C621 529 626 584 626 607 C626 636 610 655 580 666 C545 680 490 692 406 692 C194 692 48 552 48 326 C48 105 187 -15 381 -15 C452 -15 528 -2 583 18 C607 27 618 42 618 73 L618 199 C618 225 620 241 625 247 C632 257 650 259 684 261 L684 261 Z " />
<glyph glyph-name="H" unicode="H" horiz-adv-x="754" d="M307 -1 L307 54 C244 58 229 63 222 72 C217 78 216 89 216 135 L216 319 L539 319 L539 134 C539 88 538 78 531 70 C523 61 503 58 447 54 L447 -1 C489 0 561 1 584 1 C609 1 677 0 721 -1 L721 54 C656 58 643 63 635 72 C630 78 629 89 629 135 L629 547 C629 585 630 598 635 605 C642 613 656 619 721 623 L721 677 C677 676 605 674 580 674 C557 674 489 676 447 677 L447 623 C506 619 524 614 531 606 C537 599 539 583 539 546 L539 388 L216 388 L216 547 C216 585 217 598 222 605 C228 613 243 619 307 623 L307 677 C264 676 190 674 165 674 C142 674 76 676 34 677 L34 623 C94 619 112 614 118 606 C123 599 125 584 125 547 L125 134 C125 88 124 78 118 70 C110 61 90 58 34 54 L34 -1 C77 0 145 1 168 1 C194 1 264 0 307 -1 L307 -1 Z " />
<glyph glyph-name="I" unicode="I" horiz-adv-x="341" d="M307 -1 L307 54 C247 58 230 63 222 73 C217 79 216 89 216 135 L216 547 C216 585 217 598 222 605 C228 613 243 619 307 623 L307 677 C265 676 202 674 166 674 C131 674 69 676 34 677 L34 623 C94 619 112 614 118 606 C123 599 125 584 125 547 L125 134 C125 88 124 77 118 70 C110 62 90 58 34 54 L34 -1 C77 0 146 1 169 1 C195 1 264 0 307 -1 L307 -1 Z " />
<glyph glyph-name="J" unicode="J" horiz-adv-x="324" d="M21 -158 C92 -128 157 -78 182 -25 C205 24 211 86 211 168 L211 547 C211 585 213 598 218 605 C224 613 236 619 300 623 L300 677 C258 676 198 674 162 674 C127 674 64 676 27 677 L27 623 C86 619 108 614 114 606 C120 599 121 584 121 547 L121 166 C121 98 116 53 104 9 C90 -40 44 -78 -6 -105 L21 -158 Z " />
<glyph glyph-name="K" unicode="K" horiz-adv-x="674" d="M310 -1 L310 54 C251 57 229 61 222 70 C216 77 216 87 216 133 L216 547 C216 585 217 599 222 606 C228 614 246 619 310 623 L310 677 C267 676 190 674 165 674 C142 674 76 676 34 677 L34 623 C94 619 113 614 118 607 C124 599 125 585 125 547 L125 133 C125 87 124 77 118 69 C109 57 92 58 34 54 L34 -1 C77 0 145 1 168 1 C194 1 267 0 310 -1 L310 -1 Z M664 0 L664 53 C648 53 624 57 609 63 C589 70 578 77 552 98 C503 140 396 267 330 355 C363 387 494 521 525 552 C560 589 586 606 600 613 C614 620 636 622 650 623 L650 677 C606 675 555 675 530 675 C506 675 439 675 394 677 L394 623 C448 620 462 615 462 602 C462 589 452 573 430 548 C368 481 299 407 231 344 C299 243 424 87 482 37 C514 9 563 -4 606 -4 C625 -4 648 -3 664 0 L664 0 Z " />
<glyph glyph-name="L" unicode="L" horiz-adv-x="598" d="M561 182 L513 182 C503 144 490 110 476 95 C460 78 430 68 335 68 C311 68 269 69 243 72 C223 75 216 85 216 114 L216 547 C216 585 217 598 222 605 C228 613 247 619 311 623 L311 677 C269 676 202 674 166 674 C131 674 69 676 34 677 L34 623 C96 620 112 614 118 607 C124 599 125 585 125 548 L125 134 C125 95 125 79 116 70 C107 61 84 57 34 54 L34 0 L466 0 C508 0 535 11 542 29 C552 59 560 126 561 182 L561 182 Z " />
<glyph glyph-name="M" unicode="M" horiz-adv-x="882" d="M288 -1 L288 53 C223 57 214 59 206 67 C198 74 195 91 195 113 C195 140 196 440 197 572 C226 501 241 465 385 127 C392 109 403 99 424 99 C446 99 456 107 464 126 C609 441 638 511 660 570 C659 489 659 137 659 122 C659 91 657 78 652 72 C646 63 629 56 567 53 L567 -1 C625 0 683 1 710 1 C740 1 800 0 847 -1 L847 53 C776 58 766 62 758 72 C754 79 750 90 750 146 C748 502 748 529 748 551 C748 582 749 598 756 606 C763 616 777 620 842 623 L842 677 C810 675 752 675 735 675 C711 675 665 676 635 677 C490 357 467 300 438 227 C410 301 387 360 249 677 C228 675 184 675 160 675 C138 675 84 675 39 677 L39 623 C107 620 117 616 125 609 C131 603 132 585 132 572 C132 551 130 500 124 151 C123 100 120 78 110 68 C102 60 74 55 32 53 L32 -1 C82 0 151 1 172 1 C194 1 246 0 288 -1 L288 -1 Z " />
<glyph glyph-name="N" unicode="N" horiz-adv-x="741" d="M293 -1 L293 53 C233 57 217 61 208 71 C201 80 198 95 198 156 C198 187 194 430 193 567 C231 506 272 446 552 20 C563 3 574 -9 596 -9 C627 -9 640 7 640 36 C640 75 639 157 639 201 C639 320 639 433 640 519 C640 582 642 597 650 606 C661 615 673 619 731 623 L731 677 C678 676 635 675 607 675 C585 675 529 676 476 677 L476 623 C537 620 555 613 561 604 C567 593 568 574 570 519 C571 481 572 269 576 148 C537 213 489 288 226 677 C191 675 163 675 146 675 C130 675 51 676 29 677 L29 623 C49 623 76 620 91 617 C109 614 115 607 121 597 C125 590 129 567 129 519 C129 455 127 190 126 157 C124 105 125 83 119 73 C113 63 93 56 30 53 L30 -1 C81 0 140 1 161 1 C190 1 239 0 293 -1 L293 -1 Z " />
<glyph glyph-name="O" unicode="O" horiz-adv-x="732" d="M684 349 C684 558 592 691 373 691 C179 691 48 558 48 335 C48 129 151 -14 366 -14 C544 -14 684 102 684 349 L684 349 Z M588 342 C588 159 508 59 368 59 C232 59 144 139 144 349 C144 513 222 619 369 619 C512 619 588 537 588 342 L588 342 Z " />
<glyph glyph-name="P" unicode="P" horiz-adv-x="586" d="M311 -1 L311 54 C252 57 231 61 223 70 C217 78 216 89 216 133 L216 270 C238 268 262 268 282 268 C437 268 554 325 554 488 C554 578 509 649 398 668 C360 674 288 676 224 676 L34 676 L34 623 C94 619 109 614 117 607 C124 600 125 588 125 548 L125 130 C125 83 123 74 115 67 C106 60 88 57 34 54 L34 -1 C80 0 138 1 163 1 C188 1 267 0 311 -1 L311 -1 Z M216 336 L216 608 L265 608 C310 608 345 605 369 600 C422 587 459 549 459 482 C459 350 359 335 264 335 C249 335 231 336 216 336 L216 336 Z " />
<glyph glyph-name="Q" unicode="Q" horiz-adv-x="732" d="M684 349 C684 558 592 691 373 691 C179 691 48 558 48 335 C48 140 139 2 330 -12 C411 -81 459 -115 528 -145 C565 -161 629 -171 690 -171 C716 -171 741 -169 764 -165 L764 -110 C756 -111 746 -112 736 -112 C690 -112 627 -102 581 -81 C528 -56 491 -31 458 -2 C589 32 684 147 684 349 L684 349 Z M588 342 C588 159 508 59 368 59 C232 59 144 139 144 349 C144 513 222 619 369 619 C512 619 588 537 588 342 L588 342 Z " />
<glyph glyph-name="R" unicode="R" horiz-adv-x="655" d="M644 0 L644 54 C626 55 611 57 596 64 C580 71 567 81 542 102 C497 140 462 194 393 301 C484 327 544 388 544 495 C544 585 497 650 396 666 C362 672 288 676 224 676 L34 676 L34 623 C93 619 110 614 117 607 C124 600 125 588 125 551 L125 130 C125 82 123 75 115 68 C106 61 83 57 34 54 L34 -1 C80 0 138 1 163 1 C188 1 262 0 307 -1 L307 54 C252 57 231 62 223 72 C217 79 216 88 216 133 L216 289 C234 288 261 287 277 287 L301 287 C374 163 422 87 477 42 C509 16 549 -2 605 -2 C625 -2 638 -1 644 0 L644 0 Z M216 355 L216 608 L263 608 C296 608 348 603 371 596 C417 582 448 547 448 490 C448 377 361 353 269 353 C256 353 231 355 216 355 L216 355 Z " />
<glyph glyph-name="S" unicode="S" horiz-adv-x="563" d="M62 193 C60 167 59 143 59 119 C59 69 68 40 119 15 C154 -2 216 -14 275 -14 C420 -14 518 56 518 184 C518 258 483 317 385 356 L270 402 C186 436 166 468 166 515 C166 569 203 620 300 620 C349 620 386 614 404 599 C419 587 428 566 438 501 L487 501 C491 537 494 576 494 602 C494 635 484 654 459 666 C420 684 366 691 320 691 C149 691 76 605 76 498 C76 430 104 368 207 324 L332 271 C398 243 424 214 424 162 C424 107 380 57 284 57 C223 57 177 72 154 93 C138 108 122 128 112 193 L62 193 Z " />
<glyph glyph-name="T" unicode="T" horiz-adv-x="652" d="M468 -1 L468 54 C399 59 385 64 379 74 C374 83 372 98 372 138 L372 609 C503 609 519 606 535 594 C548 584 557 561 563 498 L611 498 C614 540 616 600 616 625 C616 655 605 676 554 676 L97 676 C46 676 37 653 37 622 C37 596 39 540 42 498 L89 498 C96 564 106 586 119 594 C136 606 150 609 282 609 L282 136 C282 97 282 80 276 73 C268 63 256 58 188 54 L188 -1 C229 0 308 1 333 1 C357 1 428 0 468 -1 L468 -1 Z " />
<glyph glyph-name="U" unicode="U" horiz-adv-x="760" d="M735 623 L735 677 C701 677 634 676 611 676 C587 676 519 676 482 677 L482 623 C529 619 552 616 563 608 C572 602 573 589 575 545 C578 465 579 347 579 319 C579 230 573 165 546 121 C523 82 460 59 391 59 C303 59 246 85 224 142 C210 179 207 240 207 310 C207 402 207 487 208 552 C209 582 211 598 217 605 C224 614 238 620 304 623 L304 677 C265 676 187 675 161 675 C131 675 65 676 25 677 L25 623 C84 620 105 614 112 602 C116 594 118 581 118 547 C118 493 116 394 116 306 C116 168 127 121 153 78 C187 22 266 -15 373 -15 C466 -15 546 9 590 63 C629 110 644 175 644 300 L644 537 C644 570 645 591 649 601 C654 611 671 619 735 623 L735 623 Z " />
<glyph glyph-name="V" unicode="V" horiz-adv-x="711" d="M705 623 L705 677 C671 676 588 675 569 675 C547 675 477 676 441 677 L441 623 C467 621 508 620 521 614 C529 611 533 602 533 592 C533 578 528 554 519 528 C424 261 398 185 367 96 C334 191 307 260 211 532 C201 561 196 584 196 593 C196 606 202 615 219 619 C230 621 265 622 286 623 L286 677 C248 676 173 675 149 675 C126 675 42 676 6 677 L6 623 C31 622 59 619 68 612 C82 601 91 586 106 544 L298 24 C309 -6 326 -16 354 -16 C380 -16 398 -5 409 25 L598 535 C615 582 623 599 634 608 C645 618 669 622 705 623 L705 623 Z " />
<glyph glyph-name="W" unicode="W" horiz-adv-x="991" d="M975 623 L975 677 C938 676 879 675 857 675 C828 675 769 676 720 677 L720 623 C811 620 815 608 815 583 C815 573 812 551 807 529 C748 283 728 195 711 112 C690 196 666 278 561 636 C551 669 540 679 510 679 C481 679 466 660 458 634 C350 285 327 201 303 113 C286 195 267 277 205 537 C202 551 198 572 198 584 C198 608 206 622 290 623 L290 677 C270 676 186 675 155 675 C127 675 82 676 19 677 L19 623 C48 622 64 618 76 612 C92 604 100 579 108 546 L236 26 C244 -6 262 -16 289 -16 C317 -16 335 -2 344 29 C451 371 476 464 498 550 C520 465 546 368 646 26 C655 -6 672 -16 700 -16 C728 -16 746 -2 754 29 L885 539 C892 568 898 594 912 606 C925 618 945 621 975 623 L975 623 Z " />
<glyph glyph-name="X" unicode="X" horiz-adv-x="710" d="M288 -1 L288 54 C220 55 202 61 202 81 C202 95 216 116 224 127 L340 298 L468 115 C477 102 485 92 485 81 C485 63 471 57 406 54 L406 -1 C467 0 520 1 552 1 C584 1 629 0 695 -1 L695 54 C652 54 635 58 623 67 C608 79 599 89 585 109 L412 352 L564 559 C580 581 595 601 608 610 C621 620 635 622 672 623 L672 677 C632 675 579 675 554 675 C525 675 453 675 420 677 L420 623 C486 620 497 612 497 596 C497 585 486 562 474 544 L375 404 L268 555 C254 574 250 587 250 595 C250 612 260 621 330 623 L330 677 C298 675 217 675 185 675 C150 675 103 675 41 677 L41 623 C66 622 89 621 103 613 C118 604 128 591 145 568 L301 351 L129 114 C116 95 106 81 88 67 C74 55 42 54 14 54 L14 -1 C75 1 116 1 142 1 C170 1 231 0 288 -1 L288 -1 Z " />
<glyph glyph-name="Y" unicode="Y" horiz-adv-x="625" d="M450 -1 L450 54 C380 57 366 61 360 73 C357 79 356 96 356 121 L356 276 L525 544 C542 572 561 599 572 608 C583 616 599 622 620 623 L620 677 C578 675 546 675 525 675 C492 675 440 675 392 677 L392 623 C457 622 470 615 470 600 C470 586 462 571 450 551 C407 479 366 408 326 338 C287 406 246 478 206 546 C195 566 185 584 185 596 C185 611 191 621 264 623 L264 677 C213 676 159 675 130 675 C104 675 62 676 5 677 L5 623 C31 621 43 618 57 609 C70 601 79 584 104 543 L265 275 L265 121 C265 93 264 78 259 70 C252 60 244 57 175 54 L175 -1 C224 0 290 1 316 1 C339 1 397 0 450 -1 L450 -1 Z " />
<glyph glyph-name="Z" unicode="Z" horiz-adv-x="620" d="M582 183 L527 183 C515 138 501 106 482 90 C463 75 442 68 307 68 C267 68 199 68 163 70 L565 645 L565 676 L126 676 C78 676 60 657 60 627 C60 599 62 565 67 508 L122 508 C129 573 139 589 159 598 C177 606 197 607 430 607 L32 32 L32 0 L504 0 C543 0 565 16 569 40 C575 74 580 129 582 183 L582 183 Z " />
<glyph glyph-name="bracketleft" unicode="&#x5b;" horiz-adv-x="302" d="M285 -170 L285 -122 L167 -122 L167 707 L285 707 L285 755 L94 755 L94 -170 L285 -170 Z " />
<glyph glyph-name="backslash" unicode="&#x5c;" horiz-adv-x="337" d="M267 -81 L322 -65 L84 732 L29 716 L267 -81 Z " />
<glyph glyph-name="bracketright" unicode="&#x5d;" horiz-adv-x="302" d="M17 755 L17 707 L135 707 L135 -122 L17 -122 L17 -170 L207 -170 L207 755 L17 755 Z " />
<glyph glyph-name="asciicircum" unicode="&#x5e;" horiz-adv-x="591" d="M486 366 L332 706 L263 706 L104 365 L176 365 L295 627 L416 366 L486 366 Z " />
<glyph glyph-name="underscore" unicode="&#x5f;" horiz-adv-x="491" d="M493 -137 L493 -80 L-2 -80 L-2 -137 L493 -137 Z " />
<glyph glyph-name="grave" unicode="&#x60;" horiz-adv-x="295" d="M237 548 L149 688 C126 724 116 732 98 732 C79 732 58 716 58 695 C58 677 67 663 89 640 L206 523 L237 548 Z " />
<glyph glyph-name="a" unicode="a" horiz-adv-x="515" d="M493 8 L493 62 C480 59 466 58 454 58 C424 58 411 70 411 124 C411 136 412 302 412 324 C412 378 405 409 384 433 C363 458 322 474 247 474 C208 474 158 465 129 454 C98 442 80 426 80 394 C80 370 85 338 89 317 L140 317 C142 356 147 377 160 387 C177 400 201 406 234 406 C268 406 304 399 318 377 C326 365 331 347 331 300 L331 259 C316 261 285 261 271 261 C93 261 45 205 45 126 C45 31 123 -11 200 -11 C254 -11 303 9 340 49 C350 3 382 -8 414 -8 C439 -8 471 -2 493 8 L493 8 Z M331 95 C306 76 265 57 219 57 C176 57 130 75 130 133 C130 171 158 201 269 201 C284 201 315 200 331 199 L331 95 Z " />
<glyph glyph-name="b" unicode="b" horiz-adv-x="568" d="M94 22 C147 -3 217 -12 277 -12 C440 -12 522 93 522 238 C522 375 467 474 340 474 C274 474 215 443 177 408 C178 519 178 592 178 660 C178 717 160 731 127 731 C100 731 60 724 16 701 L16 651 C26 652 37 653 44 653 C60 653 73 651 82 642 C92 631 95 599 95 521 L95 151 C95 123 95 69 94 22 L94 22 Z M177 76 L177 360 C213 385 257 400 301 400 C404 400 434 319 434 230 C434 131 385 59 283 59 C248 59 205 63 177 76 L177 76 Z " />
<glyph glyph-name="c" unicode="c" horiz-adv-x="481" d="M454 61 L424 110 C382 80 339 60 281 60 C183 60 131 125 131 227 C131 340 186 406 279 406 C306 406 333 403 348 389 C359 379 367 360 370 321 L423 321 C428 349 430 384 430 403 C430 438 413 454 379 464 C352 471 320 474 289 474 C140 474 46 376 46 222 C46 73 136 -14 262 -14 C337 -14 406 16 454 61 L454 61 Z " />
<glyph glyph-name="d" unicode="d" horiz-adv-x="589" d="M412 49 C420 11 444 -8 483 -8 C507 -8 537 -3 565 8 L565 62 C552 59 537 58 526 58 C495 58 485 74 485 116 L485 431 C485 498 486 630 486 664 C486 715 468 731 434 731 C410 731 367 724 323 701 L323 651 C331 652 343 653 350 653 C368 653 383 649 390 638 C398 625 401 602 402 570 C403 534 403 487 403 451 C371 468 319 473 295 473 C126 473 46 363 46 216 C46 86 126 -12 259 -12 C321 -12 376 8 412 49 L412 49 Z M403 98 C377 76 325 59 281 59 C194 59 131 121 131 227 C131 341 195 405 294 405 C332 405 380 394 403 381 L403 98 Z " />
<glyph glyph-name="e" unicode="e" horiz-adv-x="503" d="M472 62 L440 114 C392 81 345 60 285 60 C180 60 131 128 131 214 L131 226 L405 226 C424 226 439 227 448 236 C459 246 461 272 461 292 C461 384 416 474 278 474 C147 474 46 389 46 222 C46 89 122 -14 271 -14 C347 -14 418 14 472 62 L472 62 Z M135 287 C144 369 203 407 268 407 C352 407 379 361 379 301 L379 290 L135 287 Z " />
<glyph glyph-name="f" unicode="f" horiz-adv-x="330" d="M294 -1 L294 53 C218 56 206 60 200 69 C193 79 191 96 191 134 L191 386 C228 386 270 387 315 389 L315 448 C265 450 223 450 191 450 L191 497 C191 567 203 599 214 620 C229 648 261 664 291 664 C308 664 325 661 333 655 C345 646 353 630 357 586 L407 586 C411 611 415 648 415 670 C415 695 406 712 384 720 C360 729 333 731 305 731 C257 731 211 716 178 688 C135 653 113 598 108 517 C105 476 100 464 82 453 C64 441 41 436 27 433 L27 386 L110 386 L110 119 C110 98 109 78 103 69 C96 60 80 56 32 53 L32 -1 C78 0 140 1 162 1 C187 1 247 0 294 -1 L294 -1 Z " />
<glyph glyph-name="g" unicode="g" horiz-adv-x="520" d="M358 295 C358 225 308 190 245 190 C180 190 130 220 130 303 C130 362 169 407 243 407 C309 407 358 378 358 295 L358 295 Z M189 127 C199 125 222 124 240 124 C356 124 439 186 439 303 C439 328 431 368 414 386 C438 386 464 387 502 389 L502 447 C477 449 428 450 360 450 C328 468 292 474 244 474 C124 474 46 400 46 295 C46 224 76 175 142 144 C100 115 82 87 82 59 C82 34 93 11 128 -4 C99 -17 77 -33 59 -47 C32 -68 15 -96 15 -136 C15 -214 93 -277 248 -277 C397 -277 497 -207 497 -103 C497 -34 464 9 376 25 C309 38 239 47 196 57 C168 64 157 75 157 84 C157 100 165 110 189 127 L189 127 Z M175 -23 C188 -27 213 -33 299 -46 C393 -61 409 -86 409 -115 C409 -156 375 -207 256 -207 C140 -207 96 -162 96 -121 C96 -87 115 -58 175 -23 L175 -23 Z " />
<glyph glyph-name="h" unicode="h" horiz-adv-x="589" d="M259 -1 L259 53 C213 57 201 60 195 68 C188 76 187 89 187 123 L187 357 C222 381 277 394 318 394 C352 394 377 385 390 368 C402 351 406 324 406 289 L406 124 C406 87 403 75 398 69 C391 61 377 57 335 53 L335 -1 C378 0 429 1 451 1 C473 1 526 0 568 -1 L568 53 C512 58 499 63 493 73 C489 81 487 94 487 122 L487 308 C487 378 479 416 456 440 C438 460 402 473 364 473 C299 473 230 445 186 401 C186 512 188 589 188 660 C188 717 169 731 137 731 C108 731 69 724 24 701 L24 651 C36 652 46 653 54 653 C69 653 82 652 92 642 C102 633 105 606 105 538 L105 122 C105 87 102 75 97 68 C90 60 76 58 26 53 L26 -1 C70 1 115 1 137 1 C162 1 215 0 259 -1 L259 -1 Z " />
<glyph glyph-name="i" unicode="i" horiz-adv-x="302" d="M195 650 C195 684 177 710 136 710 C100 710 76 684 76 648 C76 615 98 589 133 589 C171 589 195 615 195 650 L195 650 Z M268 -1 L268 53 C220 57 206 60 200 68 C194 77 191 88 191 123 C191 211 195 316 195 400 C195 459 171 469 142 469 C116 469 74 462 32 438 L32 388 C39 389 52 390 59 390 C74 390 87 388 96 380 C106 372 110 350 110 312 L110 122 C110 87 107 74 102 68 C95 60 79 57 32 53 L32 -1 C76 1 120 1 143 1 C166 1 225 0 268 -1 L268 -1 Z " />
<glyph glyph-name="j" unicode="j" horiz-adv-x="276" d="M184 650 C184 684 167 710 125 710 C89 710 66 684 66 648 C66 615 87 589 123 589 C162 589 184 615 184 650 L184 650 Z M-11 -227 L8 -275 C62 -259 126 -222 155 -174 C182 -128 185 -77 185 11 C185 94 183 316 183 400 C183 459 162 469 131 469 C106 469 64 462 21 438 L21 389 C27 390 40 392 49 392 C64 392 78 388 87 381 C97 372 101 351 101 313 L101 -3 C101 -65 97 -122 83 -150 C66 -184 34 -206 -11 -227 L-11 -227 Z " />
<glyph glyph-name="k" unicode="k" horiz-adv-x="553" d="M271 -1 L271 53 C227 57 210 59 204 67 C198 76 195 89 195 123 L195 502 C195 569 196 628 196 665 C196 721 177 731 145 731 C117 731 78 724 34 701 L34 652 C41 653 53 654 60 654 C75 654 89 653 98 645 C111 634 113 606 113 564 L113 121 C113 86 110 74 105 68 C98 60 81 57 35 53 L35 -1 C79 1 123 1 146 1 C169 1 228 0 271 -1 L271 -1 Z M544 0 L544 54 C523 55 491 60 478 67 C461 76 436 96 424 106 C381 145 350 180 299 246 C321 267 373 314 403 341 C441 375 465 393 478 400 C491 407 510 409 525 410 L525 461 C479 459 436 459 409 459 C384 459 341 459 292 461 L292 410 C347 408 357 402 357 390 C357 378 349 363 315 330 C273 288 227 251 206 235 C261 163 316 85 373 37 C407 8 453 -2 493 -2 C513 -2 532 -1 544 0 L544 0 Z " />
<glyph glyph-name="l" unicode="l" horiz-adv-x="304" d="M271 -1 L271 53 C225 57 210 60 204 68 C198 76 195 89 195 123 L195 441 C195 511 196 627 196 665 C196 721 177 731 145 731 C118 731 77 724 34 701 L34 652 C41 653 53 654 60 654 C74 654 89 654 98 645 C111 633 113 591 113 518 L113 122 C113 87 110 75 105 68 C98 60 82 57 35 53 L35 -1 C79 1 123 1 146 1 C169 1 228 0 271 -1 L271 -1 Z " />
<glyph glyph-name="m" unicode="m" horiz-adv-x="885" d="M263 -1 L263 53 C218 57 206 60 200 68 C193 76 191 89 191 123 L191 357 C227 381 275 394 317 394 C350 394 375 385 387 368 C399 351 402 324 402 289 L402 124 C402 88 399 75 393 69 C387 61 371 57 330 53 L330 -1 C373 0 425 1 447 1 C469 1 519 0 559 -1 L559 53 C507 58 495 63 490 73 C486 80 484 94 484 122 L484 307 C484 324 483 344 482 356 C518 379 568 394 609 394 C644 394 668 386 681 368 C693 352 696 324 696 289 L696 124 C696 88 693 75 687 69 C681 61 665 57 625 53 L625 -1 C668 0 719 1 741 1 C764 1 815 0 858 -1 L858 53 C803 58 790 63 784 73 C779 82 777 94 777 122 L777 308 C777 378 768 416 746 440 C727 461 693 473 654 473 C589 473 522 443 476 399 C459 454 412 473 362 473 C297 473 235 445 190 401 C188 459 164 469 138 469 C113 469 74 462 32 438 L32 388 C39 389 52 390 59 390 C74 390 87 388 96 380 C106 372 110 350 110 312 L110 122 C110 87 107 75 102 68 C95 60 79 58 32 53 L32 -1 C76 1 126 1 149 1 C174 1 219 0 263 -1 L263 -1 Z " />
<glyph glyph-name="n" unicode="n" horiz-adv-x="600" d="M263 -1 L263 53 C218 57 206 59 200 67 C193 76 191 89 191 123 L191 357 C227 381 282 394 323 394 C358 394 383 386 396 368 C408 352 410 324 410 289 L410 124 C410 87 408 75 402 68 C396 60 381 57 340 53 L340 -1 C382 0 433 1 456 1 C478 1 531 0 573 -1 L573 53 C517 58 505 63 499 73 C495 80 492 94 492 122 L492 308 C492 378 483 415 461 440 C442 460 407 473 368 473 C303 473 235 445 190 401 C188 459 164 469 138 469 C113 469 74 462 32 438 L32 388 C39 389 52 390 59 390 C74 390 87 388 96 380 C106 372 110 350 110 312 L110 122 C110 87 107 75 102 68 C95 60 79 57 32 53 L32 -1 C76 1 120 1 143 1 C166 1 220 0 263 -1 L263 -1 Z " />
<glyph glyph-name="o" unicode="o" horiz-adv-x="547" d="M501 238 C501 382 436 474 281 474 C142 474 46 382 46 228 C46 85 120 -14 274 -14 C401 -14 501 68 501 238 L501 238 Z M417 231 C417 114 365 56 275 56 C188 56 131 105 131 238 C131 345 182 406 277 406 C368 406 417 353 417 231 L417 231 Z " />
<glyph glyph-name="p" unicode="p" horiz-adv-x="571" d="M283 -262 L283 -208 C207 -204 200 -199 193 -191 C183 -181 181 -161 181 -122 L181 0 C213 -7 248 -13 280 -13 C443 -13 526 93 526 238 C526 375 470 474 344 474 C278 474 217 439 180 403 C177 460 154 469 127 469 C101 469 63 462 20 438 L20 388 C28 389 41 390 48 390 C63 390 77 387 85 380 C95 371 99 350 99 312 L99 -138 C99 -159 99 -182 93 -190 C85 -200 70 -204 21 -208 L21 -262 C67 -261 129 -260 151 -260 C177 -260 237 -261 283 -262 L283 -262 Z M181 76 L181 355 C215 380 263 399 304 399 C407 399 438 319 438 230 C438 130 389 59 286 59 C252 59 208 63 181 76 L181 76 Z " />
<glyph glyph-name="q" unicode="q" horiz-adv-x="586" d="M562 -262 L562 -208 C512 -204 499 -200 491 -190 C485 -182 485 -159 485 -138 L485 309 C485 347 485 400 487 446 C445 460 382 474 301 474 C129 474 46 371 46 216 C46 86 126 -12 259 -12 C316 -12 368 5 403 40 C402 16 402 -43 402 -122 C402 -161 400 -181 390 -191 C383 -199 376 -204 301 -208 L301 -262 C347 -261 406 -260 431 -260 C453 -260 515 -261 562 -262 L562 -262 Z M403 98 C377 76 325 60 281 60 C194 60 131 121 131 227 C131 341 195 406 294 406 C332 406 375 400 403 387 L403 98 Z " />
<glyph glyph-name="r" unicode="r" horiz-adv-x="400" d="M282 -1 L282 53 C236 56 206 59 200 67 C193 76 191 89 191 123 L191 351 C213 375 246 389 271 389 C295 389 307 383 313 343 L360 343 C365 370 370 401 370 424 C370 463 347 472 316 472 C267 472 216 437 190 398 C188 460 164 469 138 469 C113 469 74 462 32 438 L32 388 C39 389 52 390 59 390 C74 390 87 388 96 380 C106 372 110 350 110 312 L110 122 C110 87 107 74 102 68 C95 60 79 57 32 53 L32 -1 C76 1 120 1 143 1 C166 1 239 0 282 -1 L282 -1 Z " />
<glyph glyph-name="s" unicode="s" horiz-adv-x="453" d="M53 154 C52 136 50 112 50 80 C50 48 59 19 99 4 C127 -7 173 -14 215 -14 C325 -14 402 37 402 125 C402 176 384 220 299 251 L209 285 C156 305 142 320 142 346 C142 380 163 407 231 407 C260 407 289 402 303 391 C315 383 325 372 330 326 L378 326 C381 349 385 389 385 407 C385 432 374 450 355 458 C324 471 285 474 250 474 C118 474 62 414 62 338 C62 285 84 242 167 210 L258 176 C303 159 319 140 319 112 C319 80 288 54 224 54 C183 54 151 63 134 78 C122 89 107 104 102 154 L53 154 Z " />
<glyph glyph-name="t" unicode="t" horiz-adv-x="346" d="M342 20 L326 74 C297 63 271 59 250 59 C216 59 197 75 191 110 C187 131 187 178 187 210 L187 386 C222 386 270 387 311 389 L311 448 C263 450 216 450 188 450 L188 554 C188 575 177 584 159 584 C136 584 125 574 121 558 C115 527 112 507 102 480 C97 466 89 455 77 450 C59 442 41 437 24 433 L24 386 L106 386 C106 290 104 186 104 117 C104 15 154 -12 219 -12 C251 -12 303 -2 342 20 L342 20 Z " />
<glyph glyph-name="u" unicode="u" horiz-adv-x="586" d="M403 56 C409 7 441 -8 473 -8 C503 -8 534 -3 561 8 L561 62 C549 59 534 58 524 58 C491 58 481 70 481 122 C481 209 483 370 483 396 C483 456 463 469 432 469 C405 469 358 462 317 438 L317 388 C325 389 340 390 346 390 C362 390 378 387 386 380 C396 371 400 350 400 312 L400 105 C366 81 317 63 271 63 C203 63 179 93 179 165 C179 234 181 368 181 399 C181 457 161 469 128 469 C103 469 62 462 20 438 L20 388 C26 388 40 390 48 390 C63 390 75 388 84 380 C94 372 98 350 98 312 L98 156 C98 93 107 61 127 33 C149 4 191 -13 237 -13 C305 -13 362 14 403 56 L403 56 Z " />
<glyph glyph-name="v" unicode="v" horiz-adv-x="533" d="M528 407 L528 461 C498 460 448 459 430 459 C408 459 358 460 327 461 L327 407 C342 406 364 405 380 401 C387 400 394 393 394 382 C394 368 388 351 383 337 C346 243 307 149 280 82 C251 154 215 246 175 337 C169 351 164 368 164 379 C164 391 170 400 186 403 C199 405 213 406 228 407 L228 461 C196 460 154 459 131 459 C107 459 38 460 4 461 L4 407 C24 405 42 403 50 396 C62 386 70 368 83 339 L221 18 C231 -6 247 -13 268 -13 C286 -13 302 -4 311 18 L450 338 C462 365 471 383 483 394 C492 402 506 406 528 407 L528 407 Z " />
<glyph glyph-name="w" unicode="w" horiz-adv-x="775" d="M765 407 L765 461 C727 459 690 459 671 459 C648 459 599 459 559 461 L559 407 C587 406 603 405 616 401 C624 399 632 391 632 380 C632 371 630 355 625 338 C605 264 577 176 556 98 C529 183 495 281 444 430 C437 451 428 463 404 463 C376 463 365 447 359 430 C304 281 270 184 242 98 C222 175 197 257 174 338 C171 350 166 371 166 380 C166 394 176 401 191 403 C206 405 224 407 240 407 L240 461 C190 459 149 459 125 459 C104 459 56 459 12 461 L12 407 C42 406 55 403 64 391 C72 382 80 357 84 344 L183 19 C191 -6 207 -13 229 -13 C247 -13 262 -5 271 18 C338 197 364 275 390 348 C412 277 439 200 501 18 C509 -5 525 -13 546 -13 C565 -13 582 -5 589 18 L690 341 C701 376 707 389 719 397 C729 403 742 406 765 407 L765 407 Z " />
<glyph glyph-name="x" unicode="x" horiz-adv-x="565" d="M247 0 L247 53 C197 55 186 64 186 75 C186 86 194 98 216 126 L266 191 L327 120 C348 96 357 85 357 75 C357 63 347 56 298 53 L298 0 C352 1 390 1 416 1 C446 1 493 0 545 0 L545 53 C513 55 497 57 484 67 C467 79 457 92 440 112 L331 237 L423 347 C449 378 462 389 472 396 C486 404 497 406 522 407 L522 461 C493 460 450 459 429 459 C404 459 359 460 320 461 L320 407 C363 406 368 400 368 388 C368 377 363 366 352 352 L295 279 L231 356 C221 368 215 381 215 388 C215 399 223 407 264 407 L264 461 C213 459 178 459 150 459 C126 459 89 459 38 461 L38 407 C59 406 72 405 84 399 C96 393 106 382 120 366 L229 235 L124 109 C106 87 95 77 83 68 C72 60 61 55 19 53 L19 0 C58 1 104 2 126 2 C148 2 199 1 247 0 L247 0 Z " />
<glyph glyph-name="y" unicode="y" d="M41 -148 C37 -167 35 -185 35 -208 C35 -236 47 -256 68 -265 C83 -271 100 -274 121 -274 C175 -274 218 -253 251 -188 C275 -141 295 -89 329 3 L447 322 C464 366 471 384 484 395 C493 402 507 406 528 407 L528 461 C498 460 448 459 430 459 C408 459 358 460 326 461 L326 407 C343 406 364 404 379 401 C387 399 394 392 394 382 C394 367 390 345 379 313 C349 229 321 146 292 65 C257 154 217 244 179 331 C170 351 165 365 165 377 C165 389 170 399 188 402 C202 404 216 406 231 407 L231 461 C198 460 154 459 131 459 C107 459 38 460 5 461 L5 407 C24 405 41 403 50 396 C63 386 73 366 85 339 L220 32 C229 12 241 -1 261 -1 C230 -83 208 -134 191 -163 C176 -191 157 -205 135 -205 C123 -205 113 -202 107 -198 C97 -189 94 -176 89 -148 L41 -148 Z " />
<glyph glyph-name="z" unicode="z" horiz-adv-x="487" d="M26 0 L394 0 C438 0 450 17 452 41 C456 77 458 130 459 157 L411 157 C403 127 398 113 391 98 C383 83 371 70 358 66 C341 60 297 56 235 56 C208 56 180 56 145 58 L440 425 L440 460 L96 460 C55 460 47 438 47 408 C47 378 50 344 53 318 L105 318 C109 348 112 366 120 380 C127 393 138 397 157 399 C185 402 252 403 322 403 L26 31 L26 0 Z " />
<glyph glyph-name="braceleft" unicode="&#x7b;" horiz-adv-x="305" d="M299 -182 L299 -136 C211 -136 182 -99 182 -1 L182 153 C182 251 158 279 89 294 C163 312 182 340 182 434 L182 584 C182 696 210 725 299 725 L299 772 C144 772 109 696 109 590 L109 468 C109 358 98 322 19 315 L19 272 C95 265 112 220 112 130 L112 -15 C112 -133 161 -182 299 -182 L299 -182 Z " />
<glyph glyph-name="bar" unicode="&#x7c;" horiz-adv-x="261" d="M163 -183 L163 769 L98 769 L98 -183 L163 -183 Z " />
<glyph glyph-name="braceright" unicode="&#x7d;" horiz-adv-x="305" d="M15 772 L15 724 C103 724 131 687 131 589 L131 436 C131 337 156 309 225 295 C153 276 133 248 133 154 L133 5 C133 -107 104 -137 15 -137 L15 -182 C169 -182 204 -108 204 -2 L204 121 C204 230 216 266 295 274 L295 317 C219 323 202 368 202 458 L202 603 C202 721 153 772 15 772 L15 772 Z " />
<glyph glyph-name="asciitilde" unicode="&#x7e;" horiz-adv-x="591" d="M106 222 C137 274 165 291 200 291 C224 291 241 284 296 250 C335 225 364 216 391 216 C444 216 490 248 533 312 L488 357 C450 301 422 286 390 286 C368 286 346 297 312 318 C247 360 226 363 200 363 C146 363 103 335 58 268 L106 222 Z " />
<glyph glyph-name="exclamdown" unicode="&#xa1;" horiz-adv-x="289" d="M101 285 C78 24 67 -106 67 -138 C67 -170 80 -200 122 -200 C160 -200 178 -176 178 -139 C178 -108 167 21 144 285 L101 285 Z M57 443 C57 405 84 379 121 379 C158 379 185 406 185 444 C185 484 158 510 120 510 C83 510 57 484 57 443 L57 443 Z " />
<glyph glyph-name="cent" unicode="&#xa2;" horiz-adv-x="501" d="M295 -115 L295 -2 C356 3 412 29 452 67 L426 113 C386 85 347 66 295 65 L295 392 C317 391 340 386 352 376 C362 366 370 348 373 312 L424 312 C429 339 432 372 432 391 C432 424 413 439 382 448 C357 455 324 459 296 459 L295 459 L295 560 L246 560 L246 454 C134 434 65 346 65 219 C65 87 140 7 246 -3 L246 -115 L295 -115 Z M150 224 C150 313 185 370 246 387 L246 69 C182 85 150 140 150 224 L150 224 Z " />
<glyph glyph-name="sterling" unicode="&#xa3;" horiz-adv-x="589" d="M544 160 L499 160 C490 127 482 109 469 96 C456 82 419 79 351 79 C319 79 216 78 170 77 C244 127 260 200 260 257 L260 269 L408 269 L408 329 L254 329 C250 367 236 438 236 469 C236 549 269 600 356 600 C392 600 425 593 441 576 C451 566 459 542 462 502 L510 502 C514 528 518 575 518 593 C518 629 504 644 472 655 C448 664 401 670 365 670 C226 670 145 596 145 472 C145 436 160 368 166 329 L75 329 L75 269 L173 269 C173 258 174 249 174 240 C174 142 127 78 35 61 L35 0 L472 0 C507 0 527 12 532 35 C539 69 543 122 544 160 L544 160 Z " />
<glyph glyph-name="currency" unicode="&#xa4;" horiz-adv-x="574" d="M483 70 L531 120 L465 189 C494 229 507 275 507 322 C507 371 494 418 465 456 L530 523 L483 572 L418 505 C379 533 332 547 287 547 C241 547 193 532 156 505 L89 572 L43 523 L108 456 C79 417 65 372 65 322 C65 275 78 225 109 187 L43 120 L89 70 L156 138 C190 110 239 98 286 98 C332 98 379 110 418 139 L483 70 Z M440 322 C440 229 376 160 287 160 C196 160 131 229 131 324 C131 416 197 483 287 483 C375 483 440 412 440 322 L440 322 Z " />
<glyph glyph-name="yen" unicode="&#xa5;" horiz-adv-x="639" d="M541 194 L541 241 L361 241 L361 265 L390 313 L541 313 L541 361 L419 361 L504 497 C542 558 557 580 568 588 C579 596 594 600 616 601 L616 655 C575 654 542 654 521 654 C497 654 440 654 397 655 L397 601 C450 600 469 596 469 580 C469 565 462 547 439 508 C404 451 368 389 336 328 C304 384 268 442 237 498 C216 534 201 562 201 578 C201 591 207 599 277 601 L277 655 C225 654 169 654 141 654 C115 654 78 654 21 655 L21 601 C48 600 64 598 76 588 C89 576 97 562 118 526 L215 361 L105 361 L105 313 L243 313 L272 264 L272 241 L105 241 L105 194 L272 194 L272 117 C272 101 270 81 266 75 C260 64 254 59 183 54 L183 -1 C228 0 297 1 322 1 C345 1 403 0 454 -1 L454 54 C383 57 370 64 365 77 C363 83 361 99 361 117 L361 194 L541 194 Z " />
<glyph glyph-name="brokenbar" unicode="&#xa6;" horiz-adv-x="261" d="M163 367 L163 705 L98 705 L98 367 L163 367 Z M163 -119 L163 218 L98 218 L98 -119 L163 -119 Z " />
<glyph glyph-name="section" unicode="&#xa7;" horiz-adv-x="476" d="M69 -43 C66 -68 63 -100 63 -122 C63 -147 73 -162 96 -175 C116 -186 154 -195 202 -195 C321 -195 388 -127 388 -43 C388 0 378 33 319 93 C405 133 438 188 438 239 C438 297 414 335 326 413 L260 470 C194 527 177 550 177 589 C177 627 200 657 267 657 C287 657 307 652 318 644 C332 634 338 619 343 574 L391 574 C394 600 399 635 399 656 C399 680 390 695 368 704 C344 714 302 720 270 720 C156 720 97 652 97 579 C97 537 110 501 153 458 C80 427 40 378 40 317 C40 269 53 230 128 157 L214 75 C287 5 305 -26 305 -60 C305 -102 274 -132 206 -132 C184 -132 159 -124 148 -115 C135 -105 124 -87 120 -43 L69 -43 Z M285 127 C263 148 246 163 226 183 L178 231 C133 276 117 302 117 339 C117 376 146 404 183 422 C197 408 214 396 231 381 L282 335 C348 274 358 241 358 213 C358 184 335 155 285 127 L285 127 Z " />
<glyph glyph-name="dieresis" unicode="&#xa8;" horiz-adv-x="291" d="M64 568 C96 568 116 591 116 621 C116 649 97 671 66 671 C36 671 16 649 16 621 C16 590 37 568 64 568 L64 568 Z M226 568 C257 568 278 591 278 621 C278 649 257 671 228 671 C197 671 177 649 177 621 C177 590 199 568 226 568 L226 568 Z " />
<glyph glyph-name="copyright" unicode="&#xa9;" horiz-adv-x="786" d="M745 342 C745 535 589 690 394 690 C197 690 41 534 41 339 C41 138 193 -16 397 -16 C591 -16 745 140 745 342 L745 342 Z M696 336 C696 161 567 24 398 24 C223 24 88 164 88 339 C88 514 220 651 396 651 C570 651 696 514 696 336 L696 336 Z M545 245 L501 245 C492 217 485 203 477 196 C465 185 443 176 404 176 C330 176 262 218 262 336 C262 446 325 499 404 499 C443 499 465 492 477 480 C483 473 487 457 490 427 L533 427 C537 444 541 478 541 499 C541 517 530 530 509 538 C489 545 456 551 407 551 C270 551 185 466 185 329 C185 199 268 122 394 122 C442 122 478 130 497 137 C517 144 531 155 537 170 C541 182 544 209 545 245 L545 245 Z " />
<glyph glyph-name="ordfeminine" unicode="&#xaa;" horiz-adv-x="347" d="M330 283 L330 323 C322 322 313 321 306 321 C288 321 280 330 280 363 C280 371 281 469 281 486 C281 521 277 544 263 559 C249 574 225 586 169 586 C142 586 110 579 89 571 C68 563 57 551 57 531 C57 513 61 492 64 479 L102 479 C103 504 106 519 114 525 C124 534 140 535 158 535 C183 535 201 532 211 517 C216 509 220 498 220 471 L220 446 C210 447 191 447 185 447 C68 447 35 411 35 360 C35 297 85 270 135 270 C169 270 204 285 227 307 C235 277 252 271 272 271 C290 271 315 276 330 283 L330 283 Z M221 339 C206 329 181 319 153 319 C128 319 99 332 99 365 C99 387 117 406 184 406 C193 406 210 406 221 405 L221 339 Z " />
<glyph glyph-name="guillemotleft" unicode="&#xab;" horiz-adv-x="451" d="M249 60 L117 226 L250 386 L215 418 L49 261 C39 252 31 239 31 224 C31 208 38 195 46 188 L214 26 L249 60 Z M425 60 L291 226 L426 386 L390 418 L225 261 C215 251 206 239 206 224 C206 208 214 195 222 188 L389 26 L425 60 Z " />
<glyph glyph-name="logicalnot" unicode="&#xac;" horiz-adv-x="591" d="M501 74 L501 345 L67 345 L67 276 L437 276 L437 74 L501 74 Z " />
<glyph glyph-name="uni00AD" unicode="&#xad;" horiz-adv-x="267" d="M237 282 L28 282 L28 210 L237 210 L237 282 Z " />
<glyph glyph-name="registered" unicode="&#xae;" horiz-adv-x="786" d="M745 342 C745 535 589 690 394 690 C197 690 41 534 41 339 C41 138 193 -16 397 -16 C591 -16 745 140 745 342 L745 342 Z M696 336 C696 161 567 24 398 24 C223 24 89 164 89 339 C89 514 220 651 396 651 C570 651 696 514 696 336 L696 336 Z M601 148 L601 190 C589 190 581 192 572 196 C563 201 552 208 538 221 C512 244 491 271 456 323 C511 340 545 377 545 438 C545 494 514 533 451 543 C429 546 386 549 344 549 L217 549 L217 509 C253 507 262 504 268 500 C272 496 272 490 272 467 L272 233 C272 204 271 201 265 197 C258 192 245 190 217 189 L217 148 C246 148 283 149 300 149 C315 149 367 148 396 148 L396 189 C362 190 351 193 345 199 C340 203 340 211 340 236 L340 314 C349 313 368 313 385 313 C425 248 454 204 487 177 C507 161 532 147 575 147 C586 147 597 148 601 148 L601 148 Z M340 363 L340 496 L366 496 C384 496 416 494 429 490 C455 482 472 464 472 435 C472 377 427 362 375 362 C367 362 352 362 340 363 L340 363 Z " />
<glyph glyph-name="macron" unicode="&#xaf;" horiz-adv-x="291" d="M275 558 L275 621 L18 621 L18 558 L275 558 Z " />
<glyph glyph-name="degree" unicode="&#xb0;" horiz-adv-x="347" d="M175 701 C102 701 42 651 42 568 C42 484 100 438 173 438 C245 438 304 486 304 569 C304 657 246 701 175 701 L175 701 Z M173 657 C227 657 258 621 258 568 C258 520 228 481 173 481 C120 481 90 520 90 569 C90 621 123 657 173 657 L173 657 Z " />
<glyph glyph-name="plusminus" unicode="&#xb1;" horiz-adv-x="591" d="M328 138 L328 339 L519 339 L519 405 L328 405 L328 608 L263 608 L263 405 L72 405 L72 339 L263 339 L263 138 L328 138 Z M519 0 L519 67 L72 67 L72 0 L519 0 Z " />
<glyph glyph-name="twosuperior" unicode="&#xb2;" horiz-adv-x="381" d="M338 532 L301 532 C296 513 291 500 285 493 C277 482 258 480 218 480 C198 480 145 479 118 479 C241 560 312 640 312 720 C312 793 266 836 177 836 C131 836 99 827 81 819 C57 807 47 795 47 773 C47 759 49 735 53 716 L92 716 C94 745 99 758 105 765 C115 773 133 781 164 781 C221 781 239 750 239 710 C239 643 169 575 25 463 L25 420 L286 420 C313 420 327 431 330 445 C335 468 336 502 338 532 L338 532 Z " />
<glyph glyph-name="threesuperior" unicode="&#xb3;" horiz-adv-x="381" d="M46 530 C44 513 42 489 42 469 C42 447 53 433 75 424 C94 418 128 412 165 412 C267 412 329 455 329 534 C329 590 294 626 219 634 C287 652 311 691 311 736 C311 791 278 836 182 836 C138 836 101 824 84 816 C62 806 55 792 55 772 C55 760 57 736 59 721 L99 721 C101 745 106 760 114 766 C125 775 141 781 175 781 C223 781 240 756 240 725 C240 691 216 664 166 656 C149 654 135 654 120 652 L120 603 C135 603 151 603 166 602 C230 599 257 573 257 535 C257 494 230 467 167 467 C133 467 113 476 102 486 C95 493 88 505 87 530 L46 530 Z " />
<glyph glyph-name="acute" unicode="&#xb4;" horiz-adv-x="295" d="M87 523 L205 640 C227 663 237 677 237 695 C237 716 215 732 197 732 C179 732 168 724 145 688 L58 548 L87 523 Z " />
<glyph glyph-name="mu" unicode="&#xb5;" horiz-adv-x="594" d="M575 8 L575 62 C564 59 549 58 539 58 C506 58 495 70 495 122 C495 209 499 370 499 396 C499 456 478 469 447 469 C420 469 372 462 331 438 L331 388 C340 389 355 390 362 390 C377 390 392 388 401 380 C411 372 416 350 416 312 L416 105 C381 81 331 63 286 63 C218 63 194 93 194 165 C194 234 196 368 196 399 C196 457 176 469 143 469 C118 469 77 462 35 438 L35 388 C41 388 55 390 63 390 C78 390 90 388 99 380 C109 372 113 350 113 312 L113 -197 C113 -223 121 -243 157 -243 C187 -243 202 -226 202 -197 C202 -171 195 -65 190 23 C205 2 245 -11 268 -11 C333 -11 378 14 418 56 C425 7 456 -8 488 -8 C518 -8 549 -3 575 8 L575 8 Z " />
<glyph glyph-name="paragraph" unicode="&#xb6;" horiz-adv-x="547" d="M218 -254 C341 -219 405 -153 422 -65 C431 -18 433 44 433 142 C433 262 430 379 430 539 C430 582 431 599 440 608 C447 616 459 620 518 622 L518 676 L353 676 C159 676 52 567 52 420 C52 246 179 174 324 174 C336 174 347 174 359 175 L359 154 C359 93 358 34 353 -21 C346 -104 309 -161 204 -201 L218 -254 Z " />
<glyph glyph-name="periodcentered" unicode="&#xb7;" horiz-adv-x="215" d="M173 247 C173 285 144 311 106 311 C70 311 43 283 43 245 C43 206 70 179 107 179 C145 179 173 205 173 247 L173 247 Z " />
<glyph glyph-name="cedilla" unicode="&#xb8;" horiz-adv-x="291" d="M68 -274 C163 -259 235 -222 235 -150 C235 -114 217 -93 167 -67 C159 -63 150 -58 150 -44 C150 -34 157 -18 166 5 L124 5 C107 -36 99 -60 99 -77 C99 -90 106 -99 119 -106 C148 -122 163 -137 163 -159 C163 -197 126 -216 58 -230 L68 -274 Z " />
<glyph glyph-name="onesuperior" unicode="&#xb9;" horiz-adv-x="381" d="M299 419 L299 460 C256 462 238 465 235 470 C230 476 229 483 229 504 L229 669 C229 726 230 769 230 802 C230 827 217 837 201 837 C190 837 176 832 166 829 C139 819 101 803 76 790 L88 750 C103 755 129 761 141 761 C150 761 156 757 157 745 C159 729 160 689 160 666 L160 505 C160 487 159 477 154 472 C148 466 131 462 88 460 L88 419 C116 420 179 421 193 421 C208 421 271 420 299 419 L299 419 Z " />
<glyph glyph-name="ordmasculine" unicode="&#xba;" horiz-adv-x="397" d="M342 433 C342 526 297 586 195 586 C102 586 40 526 40 427 C40 336 88 270 190 270 C276 270 342 325 342 433 L342 433 Z M277 427 C277 358 246 324 190 324 C139 324 105 352 105 433 C105 498 135 533 193 533 C248 533 277 503 277 427 L277 427 Z " />
<glyph glyph-name="guillemotright" unicode="&#xbb;" horiz-adv-x="451" d="M202 384 L336 218 L201 59 L237 26 L402 182 C413 193 421 206 421 219 C421 237 413 249 405 256 L238 418 L202 384 Z M26 384 L160 218 L26 59 L61 26 L226 182 C238 193 245 206 245 219 C245 237 238 248 229 256 L63 418 L26 384 Z " />
<glyph glyph-name="onequarter" unicode="&#xbc;" horiz-adv-x="841" d="M536 676 L247 9 L293 -11 L583 657 L536 676 Z M291 251 L291 292 C248 295 231 298 227 303 C222 309 221 316 221 337 L221 502 C221 559 222 602 222 634 C222 660 209 669 193 669 C182 669 168 665 158 662 C131 652 93 635 68 623 L80 583 C95 587 121 593 133 593 C142 593 148 589 149 578 C151 562 152 522 152 499 L152 338 C152 320 151 310 146 305 C140 299 123 295 80 292 L80 251 C108 252 171 254 185 254 C200 254 263 252 291 251 L291 251 Z M755 -1 L755 38 C716 40 702 44 697 50 C694 56 693 63 693 83 L693 109 L758 109 L758 164 L693 164 L693 284 C693 306 694 348 694 375 C694 407 676 417 659 417 C633 417 624 406 607 383 L434 146 L434 109 L625 109 L625 84 C625 66 624 56 618 50 C615 45 601 41 562 38 L562 -1 C589 0 637 1 652 1 C667 1 729 0 755 -1 L755 -1 Z M625 162 L498 162 L627 341 C626 299 625 223 625 162 L625 162 Z " />
<glyph glyph-name="onehalf" unicode="&#xbd;" horiz-adv-x="841" d="M525 676 L236 9 L282 -11 L572 657 L525 676 Z M281 251 L281 292 C238 295 221 298 217 303 C212 309 211 316 211 337 L211 502 C211 559 212 602 212 634 C212 660 199 669 183 669 C172 669 158 665 148 662 C121 652 83 635 58 623 L70 583 C85 587 111 593 123 593 C132 593 138 589 139 578 C141 562 142 522 142 499 L142 338 C142 320 141 310 136 305 C130 299 113 295 70 292 L70 251 C98 252 161 254 175 254 C190 254 253 252 281 251 L281 251 Z M786 112 L749 112 C744 93 739 80 733 73 C725 62 706 60 666 60 C646 60 593 59 566 59 C689 140 760 220 760 300 C760 373 714 416 625 416 C579 416 547 407 529 399 C505 387 495 375 495 353 C495 339 497 315 501 296 L540 296 C542 325 547 338 553 345 C563 353 581 361 612 361 C669 361 687 330 687 290 C687 223 617 155 473 43 L473 0 L734 0 C761 0 775 11 778 25 C783 48 784 82 786 112 L786 112 Z " />
<glyph glyph-name="threequarters" unicode="&#xbe;" horiz-adv-x="841" d="M562 676 L273 9 L319 -11 L609 657 L562 676 Z M65 363 C63 345 61 322 61 302 C61 280 72 265 94 257 C113 250 147 244 184 244 C286 244 348 287 348 366 C348 423 313 459 238 466 C306 485 330 524 330 568 C330 624 297 668 201 668 C157 668 120 656 103 648 C81 639 74 625 74 605 C74 592 76 568 78 553 L118 553 C120 578 125 592 133 599 C144 607 160 613 194 613 C242 613 259 588 259 558 C259 524 235 495 185 488 C168 485 154 486 139 485 L139 436 C154 436 175 435 190 434 C254 428 276 405 276 367 C276 326 249 300 186 300 C152 300 132 308 121 319 C114 325 107 338 106 363 L65 363 Z M771 -1 L771 38 C732 40 718 44 713 50 C710 56 709 63 709 83 L709 109 L774 109 L774 164 L709 164 L709 284 C709 306 710 348 710 375 C710 407 692 417 675 417 C649 417 640 406 623 383 L450 146 L450 109 L641 109 L641 84 C641 66 640 56 634 50 C631 45 617 41 578 38 L578 -1 C605 0 653 1 668 1 C683 1 745 0 771 -1 L771 -1 Z M641 162 L514 162 L643 341 C642 299 641 223 641 162 L641 162 Z " />
<glyph glyph-name="questiondown" unicode="&#xbf;" horiz-adv-x="426" d="M215 288 C214 261 211 239 209 224 C206 202 198 180 175 168 C53 107 15 48 15 -32 C15 -133 73 -195 201 -196 C242 -196 284 -190 316 -178 C347 -167 366 -148 366 -117 C366 -93 361 -62 357 -41 L304 -41 C303 -80 297 -102 284 -113 C269 -125 237 -128 205 -128 C123 -128 110 -66 110 -23 C110 32 143 77 207 110 C242 128 268 147 268 185 C268 207 265 241 260 288 L215 288 Z M168 443 C168 405 196 379 232 379 C269 379 297 407 297 445 C297 484 269 511 231 511 C195 511 168 486 168 443 L168 443 Z " />
<glyph glyph-name="Agrave" unicode="&#xc0;" horiz-adv-x="713" d="M267 -1 L267 54 C238 56 201 59 188 64 C178 68 175 77 175 86 C175 102 181 124 190 150 L223 238 L468 238 L503 145 C513 117 517 96 517 85 C517 73 511 65 494 61 C483 58 448 55 426 54 L426 -1 C465 0 554 1 576 1 C601 1 670 0 707 -1 L707 54 C675 55 652 60 644 67 C630 78 621 93 606 135 L414 649 C402 681 387 693 361 693 C332 693 315 678 303 647 L116 151 C95 95 89 80 76 70 C66 62 44 56 6 54 L6 -1 C39 0 106 1 125 1 C146 1 232 0 267 -1 L267 -1 Z M243 305 C312 493 330 544 344 584 C354 552 374 496 445 305 L243 305 Z M433 748 L317 870 C291 898 278 904 262 904 C242 904 224 886 224 864 C224 847 240 828 266 811 L408 718 L433 748 Z " />
<glyph glyph-name="Aacute" unicode="&#xc1;" horiz-adv-x="713" d="M267 -1 L267 54 C238 56 201 59 188 64 C178 68 175 77 175 86 C175 102 181 124 190 150 L223 238 L468 238 L503 145 C513 117 517 96 517 85 C517 73 511 65 494 61 C483 58 448 55 426 54 L426 -1 C465 0 554 1 576 1 C601 1 670 0 707 -1 L707 54 C675 55 652 60 644 67 C630 78 621 93 606 135 L414 649 C402 681 387 693 361 693 C332 693 315 678 303 647 L116 151 C95 95 89 80 76 70 C66 62 44 56 6 54 L6 -1 C39 0 106 1 125 1 C146 1 232 0 267 -1 L267 -1 Z M243 305 C312 493 330 544 344 584 C354 552 374 496 445 305 L243 305 Z M298 717 L440 810 C467 827 482 846 482 863 C482 885 465 903 445 903 C429 903 416 896 390 869 L273 747 L298 717 Z " />
<glyph glyph-name="Acircumflex" unicode="&#xc2;" horiz-adv-x="713" d="M267 -1 L267 54 C238 56 201 59 188 64 C178 68 175 77 175 86 C175 102 181 124 190 150 L223 238 L468 238 L503 145 C513 117 517 96 517 85 C517 73 511 65 494 61 C483 58 448 55 426 54 L426 -1 C465 0 554 1 576 1 C601 1 670 0 707 -1 L707 54 C675 55 652 60 644 67 C630 78 621 93 606 135 L414 649 C402 681 387 693 361 693 C332 693 315 678 303 647 L116 151 C95 95 89 80 76 70 C66 62 44 56 6 54 L6 -1 C39 0 106 1 125 1 C146 1 232 0 267 -1 L267 -1 Z M243 305 C312 493 330 544 344 584 C354 552 374 496 445 305 L243 305 Z M507 742 L397 875 C385 890 374 897 358 897 C346 897 333 890 321 876 L207 741 L233 715 L355 813 L478 715 L507 742 Z " />
<glyph glyph-name="Atilde" unicode="&#xc3;" horiz-adv-x="713" d="M267 -1 L267 54 C238 56 201 59 188 64 C178 68 175 77 175 86 C175 102 181 124 190 150 L223 238 L468 238 L503 145 C513 117 517 96 517 85 C517 73 511 65 494 61 C483 58 448 55 426 54 L426 -1 C465 0 554 1 576 1 C601 1 670 0 707 -1 L707 54 C675 55 652 60 644 67 C630 78 621 93 606 135 L414 649 C402 681 387 693 361 693 C332 693 315 678 303 647 L116 151 C95 95 89 80 76 70 C66 62 44 56 6 54 L6 -1 C39 0 106 1 125 1 C146 1 232 0 267 -1 L267 -1 Z M243 305 C312 493 330 544 344 584 C354 552 374 496 445 305 L243 305 Z M238 733 C257 768 267 783 290 783 C298 783 313 779 333 772 L362 761 C392 748 410 743 429 743 C465 743 493 782 511 853 L474 866 C458 831 443 812 426 812 C414 812 397 818 380 826 L349 839 C330 847 312 854 292 854 C246 854 217 801 203 745 L238 733 Z " />
<glyph glyph-name="Adieresis" unicode="&#xc4;" horiz-adv-x="713" d="M267 -1 L267 54 C238 56 201 59 188 64 C178 68 175 77 175 86 C175 102 181 124 190 150 L223 238 L468 238 L503 145 C513 117 517 96 517 85 C517 73 511 65 494 61 C483 58 448 55 426 54 L426 -1 C465 0 554 1 576 1 C601 1 670 0 707 -1 L707 54 C675 55 652 60 644 67 C630 78 621 93 606 135 L414 649 C402 681 387 693 361 693 C332 693 315 678 303 647 L116 151 C95 95 89 80 76 70 C66 62 44 56 6 54 L6 -1 C39 0 106 1 125 1 C146 1 232 0 267 -1 L267 -1 Z M243 305 C312 493 330 544 344 584 C354 552 374 496 445 305 L243 305 Z M264 742 C295 742 315 766 315 794 C315 823 296 845 265 845 C235 845 215 823 215 794 C215 764 236 742 264 742 L264 742 Z M439 742 C470 742 490 766 490 794 C490 823 470 845 441 845 C410 845 389 823 389 794 C389 764 411 742 439 742 L439 742 Z " />
<glyph glyph-name="Aring" unicode="&#xc5;" horiz-adv-x="713" d="M267 -1 L267 54 C238 56 201 59 188 64 C178 68 175 77 175 86 C175 102 181 124 190 150 L223 238 L468 238 L503 145 C513 117 517 96 517 85 C517 73 511 65 494 61 C483 58 448 55 426 54 L426 -1 C465 0 554 1 576 1 C601 1 670 0 707 -1 L707 54 C675 55 652 60 644 67 C630 78 621 93 606 135 L414 649 C402 681 387 693 361 693 C332 693 315 678 303 647 L116 151 C95 95 89 80 76 70 C66 62 44 56 6 54 L6 -1 C39 0 106 1 125 1 C146 1 232 0 267 -1 L267 -1 Z M243 305 C312 493 330 544 344 584 C354 552 374 496 445 305 L243 305 Z M450 802 C450 855 412 892 357 892 C307 892 264 853 264 800 C264 744 306 708 356 708 C408 708 450 747 450 802 L450 802 Z M408 802 C408 765 386 746 356 746 C326 746 305 767 305 802 C305 837 329 855 356 855 C384 855 408 838 408 802 L408 802 Z " />
<glyph glyph-name="AE" unicode="&#xc6;" horiz-adv-x="997" d="M291 -1 L291 54 C260 55 239 56 225 59 C207 63 199 75 199 84 C199 104 209 122 224 144 L290 244 L523 244 L523 142 C523 114 523 96 521 84 C519 74 512 67 502 63 C488 58 463 56 434 54 L434 0 L866 0 C910 0 938 9 945 29 C956 59 960 122 962 179 L913 179 C902 141 890 110 874 95 C857 79 828 68 732 68 C709 68 666 69 640 72 C620 75 612 85 612 114 L612 318 L682 318 C730 318 755 318 767 303 C775 292 781 279 786 241 L833 241 C832 282 832 336 832 352 C832 381 832 433 833 459 L784 459 C781 431 774 410 765 399 C753 385 736 382 684 382 L612 382 L612 607 L724 607 C801 607 824 604 838 593 C849 585 857 566 864 511 L915 511 C918 540 925 600 925 627 C925 656 912 676 862 676 L326 676 L326 623 C357 622 381 621 399 618 C416 615 423 608 423 598 C423 588 417 569 402 546 L139 143 C120 113 103 89 81 70 C68 60 43 56 6 54 L6 -1 C53 0 120 1 144 1 C167 1 242 0 291 -1 L291 -1 Z M328 310 C417 449 472 535 503 588 C508 598 511 603 517 603 C520 603 523 601 523 591 L523 310 L328 310 Z " />
<glyph glyph-name="Ccedilla" unicode="&#xc7;" horiz-adv-x="672" d="M278 -287 C378 -272 453 -234 453 -157 C453 -118 434 -97 382 -72 C373 -67 364 -60 364 -47 C364 -39 367 -28 373 -14 L383 -14 C460 -14 514 -1 545 9 C578 20 599 38 607 64 C613 84 619 128 620 175 L567 175 C552 128 540 105 527 93 C507 76 463 59 397 59 C263 59 144 137 144 336 C144 525 259 619 397 619 C464 619 509 607 527 587 C538 576 546 550 550 499 L603 499 C607 525 612 580 612 608 C612 638 598 656 564 669 C532 681 482 692 404 692 C188 692 48 554 48 326 C48 125 161 8 330 -11 C316 -43 311 -64 311 -80 C311 -95 318 -104 332 -112 C362 -128 378 -144 378 -167 C378 -207 339 -227 268 -242 L278 -287 Z " />
<glyph glyph-name="Egrave" unicode="&#xc8;" horiz-adv-x="600" d="M565 179 L515 179 C504 141 492 110 478 95 C461 78 430 68 335 68 C311 68 269 69 243 72 C223 75 216 85 216 114 L216 318 L284 318 C332 318 359 318 370 303 C378 292 384 279 389 241 L436 241 C434 282 434 336 434 352 C434 381 434 433 436 459 L386 459 C384 431 377 410 368 399 C357 385 339 382 286 382 L216 382 L216 607 L326 607 C403 607 426 604 441 593 C452 585 460 566 466 511 L519 511 C522 540 527 600 527 627 C527 656 514 676 464 676 L34 676 L34 623 C94 619 112 616 119 606 C124 599 125 575 125 547 L125 134 C125 95 125 78 116 69 C107 60 84 57 34 54 L34 0 L468 0 C510 0 541 11 547 29 C558 59 564 122 565 179 L565 179 Z M370 747 L254 869 C228 897 215 903 199 903 C179 903 161 885 161 863 C161 846 177 827 203 810 L345 717 L370 747 Z " />
<glyph glyph-name="Eacute" unicode="&#xc9;" horiz-adv-x="600" d="M565 179 L515 179 C504 141 492 110 478 95 C461 78 430 68 335 68 C311 68 269 69 243 72 C223 75 216 85 216 114 L216 318 L284 318 C332 318 359 318 370 303 C378 292 384 279 389 241 L436 241 C434 282 434 336 434 352 C434 381 434 433 436 459 L386 459 C384 431 377 410 368 399 C357 385 339 382 286 382 L216 382 L216 607 L326 607 C403 607 426 604 441 593 C452 585 460 566 466 511 L519 511 C522 540 527 600 527 627 C527 656 514 676 464 676 L34 676 L34 623 C94 619 112 616 119 606 C124 599 125 575 125 547 L125 134 C125 95 125 78 116 69 C107 60 84 57 34 54 L34 0 L468 0 C510 0 541 11 547 29 C558 59 564 122 565 179 L565 179 Z M245 717 L387 810 C414 827 429 846 429 863 C429 885 412 903 392 903 C376 903 363 896 337 869 L220 747 L245 717 Z " />
<glyph glyph-name="Ecircumflex" unicode="&#xca;" horiz-adv-x="600" d="M565 179 L515 179 C504 141 492 110 478 95 C461 78 430 68 335 68 C311 68 269 69 243 72 C223 75 216 85 216 114 L216 318 L284 318 C332 318 359 318 370 303 C378 292 384 279 389 241 L436 241 C434 282 434 336 434 352 C434 381 434 433 436 459 L386 459 C384 431 377 410 368 399 C357 385 339 382 286 382 L216 382 L216 607 L326 607 C403 607 426 604 441 593 C452 585 460 566 466 511 L519 511 C522 540 527 600 527 627 C527 656 514 676 464 676 L34 676 L34 623 C94 619 112 616 119 606 C124 599 125 575 125 547 L125 134 C125 95 125 78 116 69 C107 60 84 57 34 54 L34 0 L468 0 C510 0 541 11 547 29 C558 59 564 122 565 179 L565 179 Z M449 742 L339 875 C327 890 316 897 300 897 C288 897 275 890 263 876 L149 741 L175 715 L297 813 L420 715 L449 742 Z " />
<glyph glyph-name="Edieresis" unicode="&#xcb;" horiz-adv-x="600" d="M565 179 L515 179 C504 141 492 110 478 95 C461 78 430 68 335 68 C311 68 269 69 243 72 C223 75 216 85 216 114 L216 318 L284 318 C332 318 359 318 370 303 C378 292 384 279 389 241 L436 241 C434 282 434 336 434 352 C434 381 434 433 436 459 L386 459 C384 431 377 410 368 399 C357 385 339 382 286 382 L216 382 L216 607 L326 607 C403 607 426 604 441 593 C452 585 460 566 466 511 L519 511 C522 540 527 600 527 627 C527 656 514 676 464 676 L34 676 L34 623 C94 619 112 616 119 606 C124 599 125 575 125 547 L125 134 C125 95 125 78 116 69 C107 60 84 57 34 54 L34 0 L468 0 C510 0 541 11 547 29 C558 59 564 122 565 179 L565 179 Z M215 743 C246 743 266 767 266 795 C266 824 247 846 216 846 C186 846 166 824 166 795 C166 765 187 743 215 743 L215 743 Z M390 743 C421 743 441 767 441 795 C441 824 421 846 392 846 C361 846 340 824 340 795 C340 765 362 743 390 743 L390 743 Z " />
<glyph glyph-name="Igrave" unicode="&#xcc;" horiz-adv-x="341" d="M307 -1 L307 54 C247 58 230 63 222 73 C217 79 216 89 216 135 L216 547 C216 585 217 598 222 605 C228 613 243 619 307 623 L307 677 C265 676 202 674 166 674 C131 674 69 676 34 677 L34 623 C94 619 112 614 118 606 C123 599 125 584 125 547 L125 134 C125 88 124 77 118 70 C110 62 90 58 34 54 L34 -1 C77 0 146 1 169 1 C195 1 264 0 307 -1 L307 -1 Z M250 747 L134 869 C108 897 95 903 79 903 C59 903 41 885 41 863 C41 846 57 827 83 810 L225 717 L250 747 Z " />
<glyph glyph-name="Iacute" unicode="&#xcd;" horiz-adv-x="341" d="M307 -1 L307 54 C247 58 230 63 222 73 C217 79 216 89 216 135 L216 547 C216 585 217 598 222 605 C228 613 243 619 307 623 L307 677 C265 676 202 674 166 674 C131 674 69 676 34 677 L34 623 C94 619 112 614 118 606 C123 599 125 584 125 547 L125 134 C125 88 124 77 118 70 C110 62 90 58 34 54 L34 -1 C77 0 146 1 169 1 C195 1 264 0 307 -1 L307 -1 Z M108 717 L250 810 C277 827 292 846 292 863 C292 885 275 903 255 903 C239 903 226 896 200 869 L83 747 L108 717 Z " />
<glyph glyph-name="Icircumflex" unicode="&#xce;" horiz-adv-x="341" d="M307 -1 L307 54 C247 58 230 63 222 73 C217 79 216 89 216 135 L216 547 C216 585 217 598 222 605 C228 613 243 619 307 623 L307 677 C265 676 202 674 166 674 C131 674 69 676 34 677 L34 623 C94 619 112 614 118 606 C123 599 125 584 125 547 L125 134 C125 88 124 77 118 70 C110 62 90 58 34 54 L34 -1 C77 0 146 1 169 1 C195 1 264 0 307 -1 L307 -1 Z M321 742 L211 875 C199 890 188 897 172 897 C160 897 147 890 135 876 L21 741 L47 715 L169 813 L292 715 L321 742 Z " />
<glyph glyph-name="Idieresis" unicode="&#xcf;" horiz-adv-x="341" d="M307 -1 L307 54 C247 58 230 63 222 73 C217 79 216 89 216 135 L216 547 C216 585 217 598 222 605 C228 613 243 619 307 623 L307 677 C265 676 202 674 166 674 C131 674 69 676 34 677 L34 623 C94 619 112 614 118 606 C123 599 125 584 125 547 L125 134 C125 88 124 77 118 70 C110 62 90 58 34 54 L34 -1 C77 0 146 1 169 1 C195 1 264 0 307 -1 L307 -1 Z M82 743 C113 743 133 767 133 795 C133 824 114 846 83 846 C53 846 33 824 33 795 C33 765 54 743 82 743 L82 743 Z M257 743 C288 743 308 767 308 795 C308 824 288 846 259 846 C228 846 207 824 207 795 C207 765 229 743 257 743 L257 743 Z " />
<glyph glyph-name="Eth" unicode="&#xd0;" horiz-adv-x="720" d="M34 0 L271 0 C405 0 482 19 541 59 C627 116 671 213 671 351 C671 479 634 568 549 622 C486 661 410 676 204 676 L34 676 L34 623 C97 620 114 618 121 603 C124 595 125 573 125 547 L125 382 L29 382 L29 326 L125 326 L125 128 C125 87 124 77 118 69 C110 60 92 57 34 54 L34 0 Z M216 112 L216 326 L402 326 L402 382 L216 382 L216 606 L277 606 C359 606 421 594 460 575 C532 541 575 464 575 345 C575 161 486 68 320 68 C297 68 263 70 241 76 C222 81 216 88 216 112 L216 112 Z " />
<glyph glyph-name="Ntilde" unicode="&#xd1;" horiz-adv-x="741" d="M293 -1 L293 53 C233 57 217 61 208 71 C201 80 198 95 198 156 C198 187 194 430 193 567 C231 506 272 446 552 20 C563 3 574 -9 596 -9 C627 -9 640 7 640 36 C640 75 639 157 639 201 C639 320 639 433 640 519 C640 582 642 597 650 606 C661 615 673 619 731 623 L731 677 C678 676 635 675 607 675 C585 675 529 676 476 677 L476 623 C537 620 555 613 561 604 C567 593 568 574 570 519 C571 481 572 269 576 148 C537 213 489 288 226 677 C191 675 163 675 146 675 C130 675 51 676 29 677 L29 623 C49 623 76 620 91 617 C109 614 115 607 121 597 C125 590 129 567 129 519 C129 455 127 190 126 157 C124 105 125 83 119 73 C113 63 93 56 30 53 L30 -1 C81 0 140 1 161 1 C190 1 239 0 293 -1 L293 -1 Z M268 733 C287 768 297 783 320 783 C328 783 343 779 363 772 L392 761 C423 749 440 743 459 743 C495 743 523 782 541 853 L504 866 C488 831 473 812 456 812 C444 812 427 818 410 826 L379 839 C360 847 342 854 322 854 C276 854 247 801 233 745 L268 733 Z " />
<glyph glyph-name="Ograve" unicode="&#xd2;" horiz-adv-x="732" d="M684 349 C684 558 592 691 373 691 C179 691 48 558 48 335 C48 129 151 -14 366 -14 C544 -14 684 102 684 349 L684 349 Z M588 342 C588 159 508 59 368 59 C232 59 144 139 144 349 C144 513 222 619 369 619 C512 619 588 537 588 342 L588 342 Z M442 747 L326 869 C300 897 287 903 271 903 C251 903 233 885 233 863 C233 846 249 827 275 810 L417 717 L442 747 Z " />
<glyph glyph-name="Oacute" unicode="&#xd3;" horiz-adv-x="732" d="M684 349 C684 558 592 691 373 691 C179 691 48 558 48 335 C48 129 151 -14 366 -14 C544 -14 684 102 684 349 L684 349 Z M588 342 C588 159 508 59 368 59 C232 59 144 139 144 349 C144 513 222 619 369 619 C512 619 588 537 588 342 L588 342 Z M313 717 L455 810 C482 827 497 846 497 863 C497 885 480 903 460 903 C444 903 431 896 405 869 L288 747 L313 717 Z " />
<glyph glyph-name="Ocircumflex" unicode="&#xd4;" horiz-adv-x="732" d="M684 349 C684 558 592 691 373 691 C179 691 48 558 48 335 C48 129 151 -14 366 -14 C544 -14 684 102 684 349 L684 349 Z M588 342 C588 159 508 59 368 59 C232 59 144 139 144 349 C144 513 222 619 369 619 C512 619 588 537 588 342 L588 342 Z M522 742 L412 875 C400 890 389 897 373 897 C361 897 348 890 336 876 L222 741 L248 715 L370 813 L493 715 L522 742 Z " />
<glyph glyph-name="Otilde" unicode="&#xd5;" horiz-adv-x="732" d="M684 349 C684 558 592 691 373 691 C179 691 48 558 48 335 C48 129 151 -14 366 -14 C544 -14 684 102 684 349 L684 349 Z M588 342 C588 159 508 59 368 59 C232 59 144 139 144 349 C144 513 222 619 369 619 C512 619 588 537 588 342 L588 342 Z M250 733 C269 768 279 783 302 783 C310 783 325 779 345 772 L374 761 C404 748 422 743 441 743 C477 743 505 782 523 853 L486 866 C470 831 455 812 438 812 C426 812 409 818 392 826 L361 839 C342 847 324 854 304 854 C258 854 229 801 215 745 L250 733 Z " />
<glyph glyph-name="Odieresis" unicode="&#xd6;" horiz-adv-x="732" d="M684 349 C684 558 592 691 373 691 C179 691 48 558 48 335 C48 129 151 -14 366 -14 C544 -14 684 102 684 349 L684 349 Z M588 342 C588 159 508 59 368 59 C232 59 144 139 144 349 C144 513 222 619 369 619 C512 619 588 537 588 342 L588 342 Z M282 743 C313 743 333 767 333 795 C333 824 314 846 283 846 C253 846 233 824 233 795 C233 765 254 743 282 743 L282 743 Z M457 743 C488 743 508 767 508 795 C508 824 488 846 459 846 C428 846 407 824 407 795 C407 765 429 743 457 743 L457 743 Z " />
<glyph glyph-name="multiply" unicode="&#xd7;" horiz-adv-x="582" d="M483 157 L336 316 L482 476 L437 521 L292 364 L144 520 L98 471 L247 313 L99 155 L144 108 L291 265 L438 109 L483 157 Z " />
<glyph glyph-name="Oslash" unicode="&#xd8;" horiz-adv-x="732" d="M125 -42 L180 35 C228 3 290 -14 366 -14 C544 -14 684 102 684 349 C684 465 655 558 592 617 L647 695 L603 726 L549 650 C503 677 445 691 373 691 C179 691 48 558 48 335 C48 224 78 131 139 69 L81 -12 L125 -42 Z M588 342 C588 159 508 58 368 58 C312 58 264 72 227 102 L540 543 C571 498 588 432 588 342 L588 342 Z M144 349 C144 513 222 620 369 620 C423 620 467 608 502 583 L191 143 C161 190 144 257 144 349 L144 349 Z " />
<glyph glyph-name="Ugrave" unicode="&#xd9;" horiz-adv-x="760" d="M735 623 L735 677 C701 677 634 676 611 676 C587 676 519 676 482 677 L482 623 C529 619 552 616 563 608 C572 602 573 589 575 545 C578 465 579 347 579 319 C579 230 573 165 546 121 C523 82 460 59 391 59 C303 59 246 85 224 142 C210 179 207 240 207 310 C207 402 207 487 208 552 C209 582 211 598 217 605 C224 614 238 620 304 623 L304 677 C265 676 187 675 161 675 C131 675 65 676 25 677 L25 623 C84 620 105 614 112 602 C116 594 118 581 118 547 C118 493 116 394 116 306 C116 168 127 121 153 78 C187 22 266 -15 373 -15 C466 -15 546 9 590 63 C629 110 644 175 644 300 L644 537 C644 570 645 591 649 601 C654 611 671 619 735 623 L735 623 Z M452 747 L336 869 C310 897 297 903 281 903 C261 903 243 885 243 863 C243 846 259 827 285 810 L427 717 L452 747 Z " />
<glyph glyph-name="Uacute" unicode="&#xda;" horiz-adv-x="760" d="M735 623 L735 677 C701 677 634 676 611 676 C587 676 519 676 482 677 L482 623 C529 619 552 616 563 608 C572 602 573 589 575 545 C578 465 579 347 579 319 C579 230 573 165 546 121 C523 82 460 59 391 59 C303 59 246 85 224 142 C210 179 207 240 207 310 C207 402 207 487 208 552 C209 582 211 598 217 605 C224 614 238 620 304 623 L304 677 C265 676 187 675 161 675 C131 675 65 676 25 677 L25 623 C84 620 105 614 112 602 C116 594 118 581 118 547 C118 493 116 394 116 306 C116 168 127 121 153 78 C187 22 266 -15 373 -15 C466 -15 546 9 590 63 C629 110 644 175 644 300 L644 537 C644 570 645 591 649 601 C654 611 671 619 735 623 L735 623 Z M335 717 L477 810 C504 827 519 846 519 863 C519 885 502 903 482 903 C466 903 453 896 427 869 L310 747 L335 717 Z " />
<glyph glyph-name="Ucircumflex" unicode="&#xdb;" horiz-adv-x="760" d="M735 623 L735 677 C701 677 634 676 611 676 C587 676 519 676 482 677 L482 623 C529 619 552 616 563 608 C572 602 573 589 575 545 C578 465 579 347 579 319 C579 230 573 165 546 121 C523 82 460 59 391 59 C303 59 246 85 224 142 C210 179 207 240 207 310 C207 402 207 487 208 552 C209 582 211 598 217 605 C224 614 238 620 304 623 L304 677 C265 676 187 675 161 675 C131 675 65 676 25 677 L25 623 C84 620 105 614 112 602 C116 594 118 581 118 547 C118 493 116 394 116 306 C116 168 127 121 153 78 C187 22 266 -15 373 -15 C466 -15 546 9 590 63 C629 110 644 175 644 300 L644 537 C644 570 645 591 649 601 C654 611 671 619 735 623 L735 623 Z M523 742 L413 875 C401 890 390 897 374 897 C362 897 349 890 337 876 L223 741 L249 715 L371 813 L494 715 L523 742 Z " />
<glyph glyph-name="Udieresis" unicode="&#xdc;" horiz-adv-x="760" d="M735 623 L735 677 C701 677 634 676 611 676 C587 676 519 676 482 677 L482 623 C529 619 552 616 563 608 C572 602 573 589 575 545 C578 465 579 347 579 319 C579 230 573 165 546 121 C523 82 460 59 391 59 C303 59 246 85 224 142 C210 179 207 240 207 310 C207 402 207 487 208 552 C209 582 211 598 217 605 C224 614 238 620 304 623 L304 677 C265 676 187 675 161 675 C131 675 65 676 25 677 L25 623 C84 620 105 614 112 602 C116 594 118 581 118 547 C118 493 116 394 116 306 C116 168 127 121 153 78 C187 22 266 -15 373 -15 C466 -15 546 9 590 63 C629 110 644 175 644 300 L644 537 C644 570 645 591 649 601 C654 611 671 619 735 623 L735 623 Z M288 743 C319 743 339 767 339 795 C339 824 320 846 289 846 C259 846 239 824 239 795 C239 765 260 743 288 743 L288 743 Z M463 743 C494 743 514 767 514 795 C514 824 494 846 465 846 C434 846 413 824 413 795 C413 765 435 743 463 743 L463 743 Z " />
<glyph glyph-name="Yacute" unicode="&#xdd;" horiz-adv-x="625" d="M450 -1 L450 54 C380 57 366 61 360 73 C357 79 356 96 356 121 L356 276 L525 544 C542 572 561 599 572 608 C583 616 599 622 620 623 L620 677 C578 675 546 675 525 675 C492 675 440 675 392 677 L392 623 C457 622 470 615 470 600 C470 586 462 571 450 551 C407 479 366 408 326 338 C287 406 246 478 206 546 C195 566 185 584 185 596 C185 611 191 621 264 623 L264 677 C213 676 159 675 130 675 C104 675 62 676 5 677 L5 623 C31 621 43 618 57 609 C70 601 79 584 104 543 L265 275 L265 121 C265 93 264 78 259 70 C252 60 244 57 175 54 L175 -1 C224 0 290 1 316 1 C339 1 397 0 450 -1 L450 -1 Z M287 717 L429 810 C456 827 471 846 471 863 C471 885 454 903 434 903 C418 903 405 896 379 869 L262 747 L287 717 Z " />
<glyph glyph-name="Thorn" unicode="&#xde;" horiz-adv-x="586" d="M311 -1 L311 54 C250 58 230 63 222 72 C218 77 216 88 216 124 L216 149 C238 148 262 148 282 148 C436 148 553 201 553 360 C553 447 509 513 398 533 C367 539 306 543 252 543 L216 543 L216 559 C216 586 217 600 222 606 C228 615 243 619 307 623 L307 677 C265 676 202 674 166 674 C131 674 69 676 34 677 L34 623 C94 619 112 614 118 606 C123 599 125 585 125 547 L125 134 C125 87 124 77 118 70 C110 61 95 58 34 54 L34 -1 C77 0 145 1 168 1 C194 1 268 0 311 -1 L311 -1 Z M216 211 L216 479 L258 479 C303 479 342 473 368 468 C421 456 458 421 458 355 C458 225 359 210 264 210 C249 210 231 210 216 211 L216 211 Z " />
<glyph glyph-name="germandbls" unicode="&#xdf;" horiz-adv-x="592" d="M195 -1 C194 21 191 74 191 130 L191 425 C191 490 194 532 198 572 C205 634 241 676 305 676 C361 676 399 647 399 592 C399 542 361 503 317 460 C285 429 268 400 268 369 C268 336 286 309 309 290 C345 261 383 233 419 203 C448 180 461 154 461 126 C461 78 425 54 376 54 C343 54 327 61 317 70 C305 79 295 93 288 131 L243 131 C241 113 240 86 240 67 C240 41 246 18 275 4 C296 -5 322 -14 368 -14 C477 -14 545 43 545 142 C545 183 530 224 488 261 C447 298 409 322 375 351 C358 365 350 378 350 389 C350 405 360 420 408 466 C449 504 480 549 480 608 C480 684 423 744 315 744 C271 744 211 731 171 691 C135 655 114 610 108 508 C107 490 101 471 95 465 C82 450 55 440 27 433 L27 386 L110 386 L110 120 C110 93 109 78 101 68 C94 60 74 55 32 53 L32 -1 C63 0 114 1 135 1 C153 1 176 0 195 -1 L195 -1 Z " />
<glyph glyph-name="agrave" unicode="&#xe0;" horiz-adv-x="515" d="M493 8 L493 62 C480 59 466 58 454 58 C424 58 411 70 411 124 C411 136 412 302 412 324 C412 378 405 409 384 433 C363 458 322 474 247 474 C208 474 158 465 129 454 C98 442 80 426 80 394 C80 370 85 338 89 317 L140 317 C142 356 147 377 160 387 C177 400 201 406 234 406 C268 406 304 399 318 377 C326 365 331 347 331 300 L331 259 C316 261 285 261 271 261 C93 261 45 205 45 126 C45 31 123 -11 200 -11 C254 -11 303 9 340 49 C350 3 382 -8 414 -8 C439 -8 471 -2 493 8 L493 8 Z M331 95 C306 76 265 57 219 57 C176 57 130 75 130 133 C130 171 158 201 269 201 C284 201 315 200 331 199 L331 95 Z M301 548 L213 688 C190 724 180 732 162 732 C143 732 122 716 122 695 C122 677 131 663 153 640 L270 523 L301 548 Z " />
<glyph glyph-name="aacute" unicode="&#xe1;" horiz-adv-x="515" d="M493 8 L493 62 C480 59 466 58 454 58 C424 58 411 70 411 124 C411 136 412 302 412 324 C412 378 405 409 384 433 C363 458 322 474 247 474 C208 474 158 465 129 454 C98 442 80 426 80 394 C80 370 85 338 89 317 L140 317 C142 356 147 377 160 387 C177 400 201 406 234 406 C268 406 304 399 318 377 C326 365 331 347 331 300 L331 259 C316 261 285 261 271 261 C93 261 45 205 45 126 C45 31 123 -11 200 -11 C254 -11 303 9 340 49 C350 3 382 -8 414 -8 C439 -8 471 -2 493 8 L493 8 Z M331 95 C306 76 265 57 219 57 C176 57 130 75 130 133 C130 171 158 201 269 201 C284 201 315 200 331 199 L331 95 Z M214 523 L332 640 C354 663 364 677 364 695 C364 716 342 732 324 732 C306 732 295 724 272 688 L185 548 L214 523 Z " />
<glyph glyph-name="acircumflex" unicode="&#xe2;" horiz-adv-x="515" d="M493 8 L493 62 C480 59 466 58 454 58 C424 58 411 70 411 124 C411 136 412 302 412 324 C412 378 405 409 384 433 C363 458 322 474 247 474 C208 474 158 465 129 454 C98 442 80 426 80 394 C80 370 85 338 89 317 L140 317 C142 356 147 377 160 387 C177 400 201 406 234 406 C268 406 304 399 318 377 C326 365 331 347 331 300 L331 259 C316 261 285 261 271 261 C93 261 45 205 45 126 C45 31 123 -11 200 -11 C254 -11 303 9 340 49 C350 3 382 -8 414 -8 C439 -8 471 -2 493 8 L493 8 Z M331 95 C306 76 265 57 219 57 C176 57 130 75 130 133 C130 171 158 201 269 201 C284 201 315 200 331 199 L331 95 Z M387 534 L288 686 C277 703 264 707 249 707 C237 707 223 701 212 685 L108 533 L138 509 L246 622 L356 509 L387 534 Z " />
<glyph glyph-name="atilde" unicode="&#xe3;" horiz-adv-x="515" d="M493 8 L493 62 C480 59 466 58 454 58 C424 58 411 70 411 124 C411 136 412 302 412 324 C412 378 405 409 384 433 C363 458 322 474 247 474 C208 474 158 465 129 454 C98 442 80 426 80 394 C80 370 85 338 89 317 L140 317 C142 356 147 377 160 387 C177 400 201 406 234 406 C268 406 304 399 318 377 C326 365 331 347 331 300 L331 259 C316 261 285 261 271 261 C93 261 45 205 45 126 C45 31 123 -11 200 -11 C254 -11 303 9 340 49 C350 3 382 -8 414 -8 C439 -8 471 -2 493 8 L493 8 Z M331 95 C306 76 265 57 219 57 C176 57 130 75 130 133 C130 171 158 201 269 201 C284 201 315 200 331 199 L331 95 Z M132 542 C149 578 160 593 182 593 C190 593 207 591 225 582 L250 570 C280 558 297 552 314 552 C347 552 378 591 395 664 L359 675 C343 641 329 623 311 623 C301 623 284 628 267 636 L240 649 C223 657 205 664 184 664 C140 664 112 610 97 554 L132 542 Z " />
<glyph glyph-name="adieresis" unicode="&#xe4;" horiz-adv-x="515" d="M493 8 L493 62 C480 59 466 58 454 58 C424 58 411 70 411 124 C411 136 412 302 412 324 C412 378 405 409 384 433 C363 458 322 474 247 474 C208 474 158 465 129 454 C98 442 80 426 80 394 C80 370 85 338 89 317 L140 317 C142 356 147 377 160 387 C177 400 201 406 234 406 C268 406 304 399 318 377 C326 365 331 347 331 300 L331 259 C316 261 285 261 271 261 C93 261 45 205 45 126 C45 31 123 -11 200 -11 C254 -11 303 9 340 49 C350 3 382 -8 414 -8 C439 -8 471 -2 493 8 L493 8 Z M331 95 C306 76 265 57 219 57 C176 57 130 75 130 133 C130 171 158 201 269 201 C284 201 315 200 331 199 L331 95 Z M162 568 C194 568 214 591 214 621 C214 649 195 671 164 671 C134 671 114 649 114 621 C114 590 135 568 162 568 L162 568 Z M324 568 C355 568 376 591 376 621 C376 649 355 671 326 671 C295 671 275 649 275 621 C275 590 297 568 324 568 L324 568 Z " />
<glyph glyph-name="aring" unicode="&#xe5;" horiz-adv-x="515" d="M493 8 L493 62 C480 59 466 58 454 58 C424 58 411 70 411 124 C411 136 412 302 412 324 C412 378 405 409 384 433 C363 458 322 474 247 474 C208 474 158 465 129 454 C98 442 80 426 80 394 C80 370 85 338 89 317 L140 317 C142 356 147 377 160 387 C177 400 201 406 234 406 C268 406 304 399 318 377 C326 365 331 347 331 300 L331 259 C316 261 285 261 271 261 C93 261 45 205 45 126 C45 31 123 -11 200 -11 C254 -11 303 9 340 49 C350 3 382 -8 414 -8 C439 -8 471 -2 493 8 L493 8 Z M331 95 C306 76 265 57 219 57 C176 57 130 75 130 133 C130 171 158 201 269 201 C284 201 315 200 331 199 L331 95 Z M341 615 C341 671 303 707 248 707 C198 707 155 669 155 613 C155 558 197 523 247 523 C299 523 341 561 341 615 L341 615 Z M299 615 C299 581 277 561 247 561 C217 561 196 583 196 615 C196 651 220 670 247 670 C275 670 299 652 299 615 L299 615 Z " />
<glyph glyph-name="ae" unicode="&#xe6;" horiz-adv-x="771" d="M740 64 L709 114 C660 82 619 59 558 59 C452 59 406 127 406 204 L406 214 L674 214 C693 214 708 215 716 223 C728 234 730 259 730 278 C730 371 685 474 549 474 C482 474 423 448 388 398 C369 456 317 474 243 474 C200 474 160 465 129 454 C98 443 79 426 79 394 C79 370 84 341 88 320 L140 320 C142 357 148 378 160 388 C176 401 201 407 234 407 C267 407 299 398 313 377 C321 365 327 349 327 302 L327 272 L285 272 C100 272 45 214 45 133 C45 31 126 -12 204 -12 C283 -12 339 22 379 59 C414 15 465 -14 546 -14 C623 -14 684 17 740 64 L740 64 Z M329 213 C329 170 338 128 352 103 C318 77 279 55 223 55 C179 55 130 75 130 137 C130 183 162 213 279 213 L329 213 Z M410 275 C416 369 472 406 535 406 C623 406 648 349 648 285 L648 278 L410 275 Z " />
<glyph glyph-name="ccedilla" unicode="&#xe7;" horiz-adv-x="481" d="M182 -274 C277 -259 349 -222 349 -150 C349 -114 331 -93 281 -67 C273 -63 264 -58 264 -44 C264 -37 267 -27 272 -14 C343 -11 408 18 454 61 L424 110 C382 80 339 60 281 60 C183 60 131 125 131 227 C131 340 186 406 279 406 C306 406 333 403 348 389 C359 379 367 360 370 321 L423 321 C428 349 430 384 430 403 C430 438 413 454 379 464 C352 471 320 474 289 474 C140 474 46 376 46 222 C46 85 121 1 231 -12 C219 -42 213 -62 213 -77 C213 -90 220 -99 233 -106 C262 -122 277 -137 277 -159 C277 -197 240 -216 172 -230 L182 -274 Z " />
<glyph glyph-name="egrave" unicode="&#xe8;" horiz-adv-x="503" d="M472 62 L440 114 C392 81 345 60 285 60 C180 60 131 128 131 214 L131 226 L405 226 C424 226 439 227 448 236 C459 246 461 272 461 292 C461 384 416 474 278 474 C147 474 46 389 46 222 C46 89 122 -14 271 -14 C347 -14 418 14 472 62 L472 62 Z M135 287 C144 369 203 407 268 407 C352 407 379 361 379 301 L379 290 L135 287 Z M336 548 L248 688 C225 724 215 732 197 732 C178 732 157 716 157 695 C157 677 166 663 188 640 L305 523 L336 548 Z " />
<glyph glyph-name="eacute" unicode="&#xe9;" horiz-adv-x="503" d="M472 62 L440 114 C392 81 345 60 285 60 C180 60 131 128 131 214 L131 226 L405 226 C424 226 439 227 448 236 C459 246 461 272 461 292 C461 384 416 474 278 474 C147 474 46 389 46 222 C46 89 122 -14 271 -14 C347 -14 418 14 472 62 L472 62 Z M135 287 C144 369 203 407 268 407 C352 407 379 361 379 301 L379 290 L135 287 Z M241 523 L359 640 C381 663 391 677 391 695 C391 716 369 732 351 732 C333 732 322 724 299 688 L212 548 L241 523 Z " />
<glyph glyph-name="ecircumflex" unicode="&#xea;" horiz-adv-x="503" d="M472 62 L440 114 C392 81 345 60 285 60 C180 60 131 128 131 214 L131 226 L405 226 C424 226 439 227 448 236 C459 246 461 272 461 292 C461 384 416 474 278 474 C147 474 46 389 46 222 C46 89 122 -14 271 -14 C347 -14 418 14 472 62 L472 62 Z M135 287 C144 369 203 407 268 407 C352 407 379 361 379 301 L379 290 L135 287 Z M409 534 L310 686 C299 703 286 707 271 707 C259 707 245 701 234 685 L130 533 L160 509 L268 622 L378 509 L409 534 Z " />
<glyph glyph-name="edieresis" unicode="&#xeb;" horiz-adv-x="503" d="M472 62 L440 114 C392 81 345 60 285 60 C180 60 131 128 131 214 L131 226 L405 226 C424 226 439 227 448 236 C459 246 461 272 461 292 C461 384 416 474 278 474 C147 474 46 389 46 222 C46 89 122 -14 271 -14 C347 -14 418 14 472 62 L472 62 Z M135 287 C144 369 203 407 268 407 C352 407 379 361 379 301 L379 290 L135 287 Z M186 568 C218 568 238 591 238 621 C238 649 219 671 188 671 C158 671 138 649 138 621 C138 590 159 568 186 568 L186 568 Z M348 568 C379 568 400 591 400 621 C400 649 379 671 350 671 C319 671 299 649 299 621 C299 590 321 568 348 568 L348 568 Z " />
<glyph glyph-name="igrave" unicode="&#xec;" horiz-adv-x="302" d="M196 548 L108 688 C85 724 75 732 57 732 C38 732 17 716 17 695 C17 677 26 663 48 640 L165 523 L196 548 Z M268 -1 L268 53 C220 57 206 60 200 68 C194 77 191 88 191 123 C191 211 195 316 195 400 C195 459 171 469 142 469 C116 469 74 462 32 438 L32 388 C39 389 52 390 59 390 C74 390 87 388 96 380 C106 372 110 350 110 312 L110 122 C110 87 107 74 102 68 C95 60 79 57 32 53 L32 -1 C76 1 120 1 143 1 C166 1 225 0 268 -1 L268 -1 Z " />
<glyph glyph-name="iacute" unicode="&#xed;" horiz-adv-x="302" d="M88 523 L206 640 C228 663 238 677 238 695 C238 716 216 732 198 732 C180 732 169 724 146 688 L59 548 L88 523 Z M268 -1 L268 53 C220 57 206 60 200 68 C194 77 191 88 191 123 C191 211 195 316 195 400 C195 459 171 469 142 469 C116 469 74 462 32 438 L32 388 C39 389 52 390 59 390 C74 390 87 388 96 380 C106 372 110 350 110 312 L110 122 C110 87 107 74 102 68 C95 60 79 57 32 53 L32 -1 C76 1 120 1 143 1 C166 1 225 0 268 -1 L268 -1 Z " />
<glyph glyph-name="icircumflex" unicode="&#xee;" horiz-adv-x="302" d="M268 -1 L268 53 C220 57 206 60 200 68 C194 77 191 88 191 123 C191 211 195 316 195 400 C195 459 171 469 142 469 C116 469 74 462 32 438 L32 388 C39 389 52 390 59 390 C74 390 87 388 96 380 C106 372 110 350 110 312 L110 122 C110 87 107 74 102 68 C95 60 79 57 32 53 L32 -1 C76 1 120 1 143 1 C166 1 225 0 268 -1 L268 -1 Z M272 534 L173 686 C162 703 149 707 134 707 C122 707 108 701 97 685 L-7 533 L23 509 L131 622 L241 509 L272 534 Z " />
<glyph glyph-name="idieresis" unicode="&#xef;" horiz-adv-x="302" d="M51 568 C83 568 103 591 103 621 C103 649 84 671 53 671 C23 671 3 649 3 621 C3 590 24 568 51 568 L51 568 Z M213 568 C244 568 265 591 265 621 C265 649 244 671 215 671 C184 671 164 649 164 621 C164 590 186 568 213 568 L213 568 Z M268 -1 L268 53 C220 57 206 60 200 68 C194 77 191 88 191 123 C191 211 195 316 195 400 C195 459 171 469 142 469 C116 469 74 462 32 438 L32 388 C39 389 52 390 59 390 C74 390 87 388 96 380 C106 372 110 350 110 312 L110 122 C110 87 107 74 102 68 C95 60 79 57 32 53 L32 -1 C76 1 120 1 143 1 C166 1 225 0 268 -1 L268 -1 Z " />
<glyph glyph-name="eth" unicode="&#xf0;" horiz-adv-x="534" d="M442 635 L418 676 L332 627 C281 675 223 712 156 737 L126 687 C171 667 230 631 269 585 L160 521 L184 481 L300 547 C337 504 367 446 383 392 C358 431 305 448 264 448 C129 448 46 348 46 215 C46 84 126 -14 263 -14 C398 -14 489 79 489 241 C489 387 448 497 365 590 L442 635 Z M403 210 C403 113 348 57 267 57 C189 57 131 114 131 232 C131 325 189 383 264 383 C360 383 403 313 403 210 L403 210 Z " />
<glyph glyph-name="ntilde" unicode="&#xf1;" horiz-adv-x="600" d="M263 -1 L263 53 C218 57 206 59 200 67 C193 76 191 89 191 123 L191 357 C227 381 282 394 323 394 C358 394 383 386 396 368 C408 352 410 324 410 289 L410 124 C410 87 408 75 402 68 C396 60 381 57 340 53 L340 -1 C382 0 433 1 456 1 C478 1 531 0 573 -1 L573 53 C517 58 505 63 499 73 C495 80 492 94 492 122 L492 308 C492 378 483 415 461 440 C442 460 407 473 368 473 C303 473 235 445 190 401 C188 459 164 469 138 469 C113 469 74 462 32 438 L32 388 C39 389 52 390 59 390 C74 390 87 388 96 380 C106 372 110 350 110 312 L110 122 C110 87 107 75 102 68 C95 60 79 57 32 53 L32 -1 C76 1 120 1 143 1 C166 1 220 0 263 -1 L263 -1 Z M183 542 C200 578 211 593 233 593 C241 593 258 591 276 582 L301 570 C331 558 348 552 365 552 C398 552 429 591 446 664 L410 675 C394 641 380 623 362 623 C352 623 335 628 318 636 L291 649 C274 657 256 664 235 664 C191 664 163 610 148 554 L183 542 Z " />
<glyph glyph-name="ograve" unicode="&#xf2;" horiz-adv-x="547" d="M501 238 C501 382 436 474 281 474 C142 474 46 382 46 228 C46 85 120 -14 274 -14 C401 -14 501 68 501 238 L501 238 Z M417 231 C417 114 365 56 275 56 C188 56 131 105 131 238 C131 345 182 406 277 406 C368 406 417 353 417 231 L417 231 Z M343 548 L255 688 C232 724 222 732 204 732 C185 732 164 716 164 695 C164 677 173 663 195 640 L312 523 L343 548 Z " />
<glyph glyph-name="oacute" unicode="&#xf3;" horiz-adv-x="547" d="M501 238 C501 382 436 474 281 474 C142 474 46 382 46 228 C46 85 120 -14 274 -14 C401 -14 501 68 501 238 L501 238 Z M417 231 C417 114 365 56 275 56 C188 56 131 105 131 238 C131 345 182 406 277 406 C368 406 417 353 417 231 L417 231 Z M246 523 L364 640 C386 663 396 677 396 695 C396 716 374 732 356 732 C338 732 327 724 304 688 L217 548 L246 523 Z " />
<glyph glyph-name="ocircumflex" unicode="&#xf4;" horiz-adv-x="547" d="M501 238 C501 382 436 474 281 474 C142 474 46 382 46 228 C46 85 120 -14 274 -14 C401 -14 501 68 501 238 L501 238 Z M417 231 C417 114 365 56 275 56 C188 56 131 105 131 238 C131 345 182 406 277 406 C368 406 417 353 417 231 L417 231 Z M418 534 L319 686 C308 703 295 707 280 707 C268 707 254 701 243 685 L139 533 L169 509 L277 622 L387 509 L418 534 Z " />
<glyph glyph-name="otilde" unicode="&#xf5;" horiz-adv-x="547" d="M501 238 C501 382 436 474 281 474 C142 474 46 382 46 228 C46 85 120 -14 274 -14 C401 -14 501 68 501 238 L501 238 Z M417 231 C417 114 365 56 275 56 C188 56 131 105 131 238 C131 345 182 406 277 406 C368 406 417 353 417 231 L417 231 Z M161 542 C178 578 189 593 211 593 C219 593 236 591 254 582 L279 570 C309 558 326 552 343 552 C376 552 407 591 424 664 L388 675 C372 641 358 623 340 623 C330 623 313 628 296 636 L269 649 C252 657 234 664 213 664 C169 664 141 610 126 554 L161 542 Z " />
<glyph glyph-name="odieresis" unicode="&#xf6;" horiz-adv-x="547" d="M501 238 C501 382 436 474 281 474 C142 474 46 382 46 228 C46 85 120 -14 274 -14 C401 -14 501 68 501 238 L501 238 Z M417 231 C417 114 365 56 275 56 C188 56 131 105 131 238 C131 345 182 406 277 406 C368 406 417 353 417 231 L417 231 Z M194 568 C226 568 246 591 246 621 C246 649 227 671 196 671 C166 671 146 649 146 621 C146 590 167 568 194 568 L194 568 Z M356 568 C387 568 408 591 408 621 C408 649 387 671 358 671 C327 671 307 649 307 621 C307 590 329 568 356 568 L356 568 Z " />
<glyph glyph-name="divide" unicode="&#xf7;" horiz-adv-x="591" d="M345 474 C345 505 324 529 295 529 C265 529 244 504 244 476 C244 444 264 421 295 421 C324 421 345 444 345 474 L345 474 Z M522 280 L522 350 L68 350 L68 280 L522 280 Z M345 155 C345 186 324 208 295 208 C265 208 244 185 244 156 C244 125 264 101 295 101 C324 101 345 125 345 155 L345 155 Z " />
<glyph glyph-name="oslash" unicode="&#xf8;" horiz-adv-x="547" d="M107 -45 L149 15 C183 -4 224 -14 274 -14 C401 -14 501 68 501 238 C501 317 481 381 438 422 L483 485 L443 513 L398 449 C367 465 328 474 281 474 C142 474 46 382 46 228 C46 151 67 86 111 43 L68 -18 L107 -45 Z M417 231 C417 114 365 57 275 57 C244 57 216 63 194 77 L389 352 C407 324 417 284 417 231 L417 231 Z M131 238 C131 345 183 404 277 404 C307 404 333 398 353 386 L160 112 C141 140 131 181 131 238 L131 238 Z " />
<glyph glyph-name="ugrave" unicode="&#xf9;" horiz-adv-x="586" d="M403 56 C409 7 441 -8 473 -8 C503 -8 534 -3 561 8 L561 62 C549 59 534 58 524 58 C491 58 481 70 481 122 C481 209 483 370 483 396 C483 456 463 469 432 469 C405 469 358 462 317 438 L317 388 C325 389 340 390 346 390 C362 390 378 387 386 380 C396 371 400 350 400 312 L400 105 C366 81 317 63 271 63 C203 63 179 93 179 165 C179 234 181 368 181 399 C181 457 161 469 128 469 C103 469 62 462 20 438 L20 388 C26 388 40 390 48 390 C63 390 75 388 84 380 C94 372 98 350 98 312 L98 156 C98 93 107 61 127 33 C149 4 191 -13 237 -13 C305 -13 362 14 403 56 L403 56 Z M338 548 L250 688 C227 724 217 732 199 732 C180 732 159 716 159 695 C159 677 168 663 190 640 L307 523 L338 548 Z " />
<glyph glyph-name="uacute" unicode="&#xfa;" horiz-adv-x="586" d="M403 56 C409 7 441 -8 473 -8 C503 -8 534 -3 561 8 L561 62 C549 59 534 58 524 58 C491 58 481 70 481 122 C481 209 483 370 483 396 C483 456 463 469 432 469 C405 469 358 462 317 438 L317 388 C325 389 340 390 346 390 C362 390 378 387 386 380 C396 371 400 350 400 312 L400 105 C366 81 317 63 271 63 C203 63 179 93 179 165 C179 234 181 368 181 399 C181 457 161 469 128 469 C103 469 62 462 20 438 L20 388 C26 388 40 390 48 390 C63 390 75 388 84 380 C94 372 98 350 98 312 L98 156 C98 93 107 61 127 33 C149 4 191 -13 237 -13 C305 -13 362 14 403 56 L403 56 Z M247 523 L365 640 C387 663 397 677 397 695 C397 716 375 732 357 732 C339 732 328 724 305 688 L218 548 L247 523 Z " />
<glyph glyph-name="ucircumflex" unicode="&#xfb;" horiz-adv-x="586" d="M403 56 C409 7 441 -8 473 -8 C503 -8 534 -3 561 8 L561 62 C549 59 534 58 524 58 C491 58 481 70 481 122 C481 209 483 370 483 396 C483 456 463 469 432 469 C405 469 358 462 317 438 L317 388 C325 389 340 390 346 390 C362 390 378 387 386 380 C396 371 400 350 400 312 L400 105 C366 81 317 63 271 63 C203 63 179 93 179 165 C179 234 181 368 181 399 C181 457 161 469 128 469 C103 469 62 462 20 438 L20 388 C26 388 40 390 48 390 C63 390 75 388 84 380 C94 372 98 350 98 312 L98 156 C98 93 107 61 127 33 C149 4 191 -13 237 -13 C305 -13 362 14 403 56 L403 56 Z M416 534 L317 686 C306 703 293 707 278 707 C266 707 252 701 241 685 L137 533 L167 509 L275 622 L385 509 L416 534 Z " />
<glyph glyph-name="udieresis" unicode="&#xfc;" horiz-adv-x="586" d="M403 56 C409 7 441 -8 473 -8 C503 -8 534 -3 561 8 L561 62 C549 59 534 58 524 58 C491 58 481 70 481 122 C481 209 483 370 483 396 C483 456 463 469 432 469 C405 469 358 462 317 438 L317 388 C325 389 340 390 346 390 C362 390 378 387 386 380 C396 371 400 350 400 312 L400 105 C366 81 317 63 271 63 C203 63 179 93 179 165 C179 234 181 368 181 399 C181 457 161 469 128 469 C103 469 62 462 20 438 L20 388 C26 388 40 390 48 390 C63 390 75 388 84 380 C94 372 98 350 98 312 L98 156 C98 93 107 61 127 33 C149 4 191 -13 237 -13 C305 -13 362 14 403 56 L403 56 Z M190 568 C222 568 242 591 242 621 C242 649 223 671 192 671 C162 671 142 649 142 621 C142 590 163 568 190 568 L190 568 Z M352 568 C383 568 404 591 404 621 C404 649 383 671 354 671 C323 671 303 649 303 621 C303 590 325 568 352 568 L352 568 Z " />
<glyph glyph-name="yacute" unicode="&#xfd;" d="M41 -148 C37 -167 35 -185 35 -208 C35 -236 47 -256 68 -265 C83 -271 100 -274 121 -274 C175 -274 218 -253 251 -188 C275 -141 295 -89 329 3 L447 322 C464 366 471 384 484 395 C493 402 507 406 528 407 L528 461 C498 460 448 459 430 459 C408 459 358 460 326 461 L326 407 C343 406 364 404 379 401 C387 399 394 392 394 382 C394 367 390 345 379 313 C349 229 321 146 292 65 C257 154 217 244 179 331 C170 351 165 365 165 377 C165 389 170 399 188 402 C202 404 216 406 231 407 L231 461 C198 460 154 459 131 459 C107 459 38 460 5 461 L5 407 C24 405 41 403 50 396 C63 386 73 366 85 339 L220 32 C229 12 241 -1 261 -1 C230 -83 208 -134 191 -163 C176 -191 157 -205 135 -205 C123 -205 113 -202 107 -198 C97 -189 94 -176 89 -148 L41 -148 Z M255 523 L373 640 C395 663 405 677 405 695 C405 716 383 732 365 732 C347 732 336 724 313 688 L226 548 L255 523 Z " />
<glyph glyph-name="thorn" unicode="&#xfe;" horiz-adv-x="571" d="M274 -262 L274 -208 C198 -204 190 -199 183 -191 C174 -181 171 -161 171 -122 L171 1 C203 -6 236 -11 270 -11 C433 -11 517 93 517 238 C517 375 462 474 336 474 C265 474 209 440 170 405 C170 517 173 589 173 660 C173 717 155 731 121 731 C94 731 54 724 9 701 L9 651 C21 652 32 653 39 653 C54 653 66 651 76 642 C86 632 89 606 89 552 L89 -138 C89 -159 89 -182 83 -190 C76 -200 61 -204 12 -208 L12 -262 C58 -261 120 -260 142 -260 C167 -260 227 -261 274 -262 L274 -262 Z M171 75 L171 357 C205 381 254 399 295 399 C398 399 428 319 428 230 C428 130 380 59 277 59 C243 59 200 62 171 75 L171 75 Z " />
<glyph glyph-name="ydieresis" unicode="&#xff;" d="M41 -148 C37 -167 35 -185 35 -208 C35 -236 47 -256 68 -265 C83 -271 100 -274 121 -274 C175 -274 218 -253 251 -188 C275 -141 295 -89 329 3 L447 322 C464 366 471 384 484 395 C493 402 507 406 528 407 L528 461 C498 460 448 459 430 459 C408 459 358 460 326 461 L326 407 C343 406 364 404 379 401 C387 399 394 392 394 382 C394 367 390 345 379 313 C349 229 321 146 292 65 C257 154 217 244 179 331 C170 351 165 365 165 377 C165 389 170 399 188 402 C202 404 216 406 231 407 L231 461 C198 460 154 459 131 459 C107 459 38 460 5 461 L5 407 C24 405 41 403 50 396 C63 386 73 366 85 339 L220 32 C229 12 241 -1 261 -1 C230 -83 208 -134 191 -163 C176 -191 157 -205 135 -205 C123 -205 113 -202 107 -198 C97 -189 94 -176 89 -148 L41 -148 Z M198 568 C230 568 250 591 250 621 C250 649 231 671 200 671 C170 671 150 649 150 621 C150 590 171 568 198 568 L198 568 Z M360 568 C391 568 412 591 412 621 C412 649 391 671 362 671 C331 671 311 649 311 621 C311 590 333 568 360 568 L360 568 Z " />
<glyph glyph-name="Amacron" unicode="&#x100;" horiz-adv-x="713" d="M267 -1 L267 54 C238 56 201 59 188 64 C178 68 175 77 175 86 C175 102 181 124 190 150 L223 238 L468 238 L503 145 C513 117 517 96 517 85 C517 73 511 65 494 61 C483 58 448 55 426 54 L426 -1 C465 0 554 1 576 1 C601 1 670 0 707 -1 L707 54 C675 55 652 60 644 67 C630 78 621 93 606 135 L414 649 C402 681 387 693 361 693 C332 693 315 678 303 647 L116 151 C95 95 89 80 76 70 C66 62 44 56 6 54 L6 -1 C39 0 106 1 125 1 C146 1 232 0 267 -1 L267 -1 Z M243 305 C312 493 330 544 344 584 C354 552 374 496 445 305 L243 305 Z M492 755 L492 821 L217 821 L217 755 L492 755 Z " />
<glyph glyph-name="amacron" unicode="&#x101;" horiz-adv-x="515" d="M493 8 L493 62 C480 59 466 58 454 58 C424 58 411 70 411 124 C411 136 412 302 412 324 C412 378 405 409 384 433 C363 458 322 474 247 474 C208 474 158 465 129 454 C98 442 80 426 80 394 C80 370 85 338 89 317 L140 317 C142 356 147 377 160 387 C177 400 201 406 234 406 C268 406 304 399 318 377 C326 365 331 347 331 300 L331 259 C316 261 285 261 271 261 C93 261 45 205 45 126 C45 31 123 -11 200 -11 C254 -11 303 9 340 49 C350 3 382 -8 414 -8 C439 -8 471 -2 493 8 L493 8 Z M331 95 C306 76 265 57 219 57 C176 57 130 75 130 133 C130 171 158 201 269 201 C284 201 315 200 331 199 L331 95 Z M381 558 L381 621 L124 621 L124 558 L381 558 Z " />
<glyph glyph-name="Abreve" unicode="&#x102;" horiz-adv-x="713" d="M267 -1 L267 54 C238 56 201 59 188 64 C178 68 175 77 175 86 C175 102 181 124 190 150 L223 238 L468 238 L503 145 C513 117 517 96 517 85 C517 73 511 65 494 61 C483 58 448 55 426 54 L426 -1 C465 0 554 1 576 1 C601 1 670 0 707 -1 L707 54 C675 55 652 60 644 67 C630 78 621 93 606 135 L414 649 C402 681 387 693 361 693 C332 693 315 678 303 647 L116 151 C95 95 89 80 76 70 C66 62 44 56 6 54 L6 -1 C39 0 106 1 125 1 C146 1 232 0 267 -1 L267 -1 Z M243 305 C312 493 330 544 344 584 C354 552 374 496 445 305 L243 305 Z M464 883 C453 824 418 795 358 795 C296 795 261 829 255 883 L217 879 C217 771 277 730 358 730 C437 730 501 782 502 881 L464 883 Z " />
<glyph glyph-name="abreve" unicode="&#x103;" horiz-adv-x="515" d="M493 8 L493 62 C480 59 466 58 454 58 C424 58 411 70 411 124 C411 136 412 302 412 324 C412 378 405 409 384 433 C363 458 322 474 247 474 C208 474 158 465 129 454 C98 442 80 426 80 394 C80 370 85 338 89 317 L140 317 C142 356 147 377 160 387 C177 400 201 406 234 406 C268 406 304 399 318 377 C326 365 331 347 331 300 L331 259 C316 261 285 261 271 261 C93 261 45 205 45 126 C45 31 123 -11 200 -11 C254 -11 303 9 340 49 C350 3 382 -8 414 -8 C439 -8 471 -2 493 8 L493 8 Z M331 95 C306 76 265 57 219 57 C176 57 130 75 130 133 C130 171 158 201 269 201 C284 201 315 200 331 199 L331 95 Z M348 682 C336 622 305 595 252 595 C198 595 167 627 160 682 L121 680 C122 568 172 530 252 530 C330 530 386 581 386 681 L348 682 Z " />
<glyph glyph-name="Aogonek" unicode="&#x104;" horiz-adv-x="713" d="M267 -1 L267 54 C238 56 201 59 188 64 C178 68 175 77 175 86 C175 102 181 124 190 150 L223 238 L468 238 L503 145 C513 117 517 96 517 85 C517 73 511 65 494 61 C483 58 448 55 426 54 L426 -1 C453 0 506 0 542 1 C469 -65 433 -117 433 -178 C433 -230 462 -278 533 -278 C573 -278 616 -258 641 -240 L626 -204 C608 -213 576 -219 556 -219 C519 -219 500 -196 500 -160 C500 -116 528 -67 592 1 C623 1 675 0 707 -1 L707 54 C675 55 652 60 644 67 C630 78 621 93 606 135 L414 649 C402 681 387 693 361 693 C332 693 315 678 303 647 L116 151 C95 95 89 80 76 70 C66 62 44 56 6 54 L6 -1 C39 0 106 1 125 1 C146 1 232 0 267 -1 L267 -1 Z M243 305 C312 493 330 544 344 584 C354 552 374 496 445 305 L243 305 Z " />
<glyph glyph-name="aogonek" unicode="&#x105;" horiz-adv-x="515" d="M493 8 L493 62 C480 59 466 58 454 58 C424 58 411 70 411 124 C411 136 412 302 412 324 C412 378 405 409 384 433 C363 458 322 474 247 474 C208 474 158 465 129 454 C98 442 80 426 80 394 C80 370 85 338 89 317 L140 317 C142 356 147 377 160 387 C177 400 201 406 234 406 C268 406 304 399 318 377 C326 365 331 347 331 300 L331 259 C316 261 285 261 271 261 C93 261 45 205 45 126 C45 31 123 -11 200 -11 C254 -11 303 9 340 49 C347 14 367 0 390 -5 C323 -66 290 -115 290 -171 C290 -222 320 -268 388 -268 C427 -268 469 -248 493 -231 L478 -197 C461 -204 430 -211 410 -211 C374 -211 356 -188 356 -155 C356 -112 381 -68 438 -6 C457 -4 477 1 493 8 L493 8 Z M331 95 C306 76 265 57 219 57 C176 57 130 75 130 133 C130 171 158 201 269 201 C284 201 315 200 331 199 L331 95 Z " />
<glyph glyph-name="Cacute" unicode="&#x106;" horiz-adv-x="672" d="M620 175 L567 175 C552 128 540 105 527 93 C507 76 463 59 397 59 C263 59 144 137 144 336 C144 525 259 619 397 619 C464 619 509 607 527 587 C538 576 546 550 550 499 L603 499 C607 525 612 580 612 608 C612 638 598 656 564 669 C532 681 482 692 404 692 C188 692 48 554 48 326 C48 105 186 -14 383 -14 C460 -14 514 -1 545 9 C578 20 599 38 607 64 C613 84 619 128 620 175 L620 175 Z M343 717 L485 810 C512 827 527 846 527 863 C527 885 510 903 490 903 C474 903 461 896 435 869 L318 747 L343 717 Z " />
<glyph glyph-name="cacute" unicode="&#x107;" horiz-adv-x="481" d="M454 61 L424 110 C382 80 339 60 281 60 C183 60 131 125 131 227 C131 340 186 406 279 406 C306 406 333 403 348 389 C359 379 367 360 370 321 L423 321 C428 349 430 384 430 403 C430 438 413 454 379 464 C352 471 320 474 289 474 C140 474 46 376 46 222 C46 73 136 -14 262 -14 C337 -14 406 16 454 61 L454 61 Z M249 523 L367 640 C389 663 399 677 399 695 C399 716 377 732 359 732 C341 732 330 724 307 688 L220 548 L249 523 Z " />
<glyph glyph-name="Ccircumflex" unicode="&#x108;" horiz-adv-x="672" d="M620 175 L567 175 C552 128 540 105 527 93 C507 76 463 59 397 59 C263 59 144 137 144 336 C144 525 259 619 397 619 C464 619 509 607 527 587 C538 576 546 550 550 499 L603 499 C607 525 612 580 612 608 C612 638 598 656 564 669 C532 681 482 692 404 692 C188 692 48 554 48 326 C48 105 186 -14 383 -14 C460 -14 514 -1 545 9 C578 20 599 38 607 64 C613 84 619 128 620 175 L620 175 Z M531 742 L421 875 C409 890 398 897 382 897 C370 897 357 890 345 876 L231 741 L257 715 L379 813 L502 715 L531 742 Z " />
<glyph glyph-name="ccircumflex" unicode="&#x109;" horiz-adv-x="481" d="M454 61 L424 110 C382 80 339 60 281 60 C183 60 131 125 131 227 C131 340 186 406 279 406 C306 406 333 403 348 389 C359 379 367 360 370 321 L423 321 C428 349 430 384 430 403 C430 438 413 454 379 464 C352 471 320 474 289 474 C140 474 46 376 46 222 C46 73 136 -14 262 -14 C337 -14 406 16 454 61 L454 61 Z M413 534 L314 686 C303 703 290 707 275 707 C263 707 249 701 238 685 L134 533 L164 509 L272 622 L382 509 L413 534 Z " />
<glyph glyph-name="Cdotaccent" unicode="&#x10a;" horiz-adv-x="672" d="M620 175 L567 175 C552 128 540 105 527 93 C507 76 463 59 397 59 C263 59 144 137 144 336 C144 525 259 619 397 619 C464 619 509 607 527 587 C538 576 546 550 550 499 L603 499 C607 525 612 580 612 608 C612 638 598 656 564 669 C532 681 482 692 404 692 C188 692 48 554 48 326 C48 105 186 -14 383 -14 C460 -14 514 -1 545 9 C578 20 599 38 607 64 C613 84 619 128 620 175 L620 175 Z M376 743 C408 743 428 767 428 795 C428 824 409 846 378 846 C348 846 328 824 328 795 C328 765 349 743 376 743 L376 743 Z " />
<glyph glyph-name="cdotaccent" unicode="&#x10b;" horiz-adv-x="481" d="M454 61 L424 110 C382 80 339 60 281 60 C183 60 131 125 131 227 C131 340 186 406 279 406 C306 406 333 403 348 389 C359 379 367 360 370 321 L423 321 C428 349 430 384 430 403 C430 438 413 454 379 464 C352 471 320 474 289 474 C140 474 46 376 46 222 C46 73 136 -14 262 -14 C337 -14 406 16 454 61 L454 61 Z M278 568 C310 568 330 591 330 621 C330 649 311 671 280 671 C250 671 230 649 230 621 C230 590 251 568 278 568 L278 568 Z " />
<glyph glyph-name="Ccaron" unicode="&#x10c;" horiz-adv-x="672" d="M620 175 L567 175 C552 128 540 105 527 93 C507 76 463 59 397 59 C263 59 144 137 144 336 C144 525 259 619 397 619 C464 619 509 607 527 587 C538 576 546 550 550 499 L603 499 C607 525 612 580 612 608 C612 638 598 656 564 669 C532 681 482 692 404 692 C188 692 48 554 48 326 C48 105 186 -14 383 -14 C460 -14 514 -1 545 9 C578 20 599 38 607 64 C613 84 619 128 620 175 L620 175 Z M233 872 L341 739 C353 723 365 716 381 716 C394 716 406 724 418 737 L533 873 L506 898 L383 801 L261 898 L233 872 Z " />
<glyph glyph-name="ccaron" unicode="&#x10d;" horiz-adv-x="481" d="M454 61 L424 110 C382 80 339 60 281 60 C183 60 131 125 131 227 C131 340 186 406 279 406 C306 406 333 403 348 389 C359 379 367 360 370 321 L423 321 C428 349 430 384 430 403 C430 438 413 454 379 464 C352 471 320 474 289 474 C140 474 46 376 46 222 C46 73 136 -14 262 -14 C337 -14 406 16 454 61 L454 61 Z M134 683 L233 531 C244 514 257 510 272 510 C285 510 299 516 309 531 L413 684 L384 707 L274 595 L165 707 L134 683 Z " />
<glyph glyph-name="Dcaron" unicode="&#x10e;" horiz-adv-x="720" d="M34 0 L271 0 C405 0 482 19 541 59 C627 116 671 213 671 351 C671 479 634 568 549 622 C486 661 410 676 204 676 L34 676 L34 623 C97 620 114 618 121 603 C124 595 125 573 125 547 L125 128 C125 87 124 77 118 69 C110 60 92 57 34 54 L34 0 Z M216 109 L216 606 L277 606 C359 606 421 594 460 575 C532 541 575 464 575 345 C575 161 488 69 323 69 C301 69 263 70 241 76 C222 81 216 87 216 109 L216 109 Z M173 872 L281 739 C293 723 305 716 321 716 C334 716 346 724 358 737 L473 873 L446 898 L323 801 L201 898 L173 872 Z " />
<glyph glyph-name="dcaron" unicode="&#x10f;" horiz-adv-x="589" d="M412 49 C420 11 444 -8 483 -8 C507 -8 537 -3 565 8 L565 62 C552 59 537 58 526 58 C495 58 485 74 485 116 L485 431 C485 498 486 630 486 664 C486 715 468 731 434 731 C410 731 367 724 323 701 L323 651 C331 652 343 653 350 653 C368 653 383 649 390 638 C398 625 401 602 402 570 C403 534 403 487 403 451 C371 468 319 473 295 473 C126 473 46 363 46 216 C46 86 126 -12 259 -12 C321 -12 376 8 412 49 L412 49 Z M403 98 C377 76 325 59 281 59 C194 59 131 121 131 227 C131 341 195 405 294 405 C332 405 380 394 403 381 L403 98 Z M543 493 C636 547 666 603 666 659 C666 705 644 735 601 735 C569 735 546 711 546 685 C546 657 559 646 578 636 C589 631 593 617 593 607 C593 587 578 562 521 525 L543 493 Z " />
<glyph glyph-name="Dcroat" unicode="&#x110;" horiz-adv-x="720" d="M34 0 L271 0 C405 0 482 19 541 59 C627 116 671 213 671 351 C671 479 634 568 549 622 C486 661 410 676 204 676 L34 676 L34 623 C97 620 114 618 121 603 C124 595 125 573 125 547 L125 382 L29 382 L29 326 L125 326 L125 128 C125 87 124 77 118 69 C110 60 92 57 34 54 L34 0 Z M216 112 L216 326 L402 326 L402 382 L216 382 L216 606 L277 606 C359 606 421 594 460 575 C532 541 575 464 575 345 C575 161 486 68 320 68 C297 68 263 70 241 76 C222 81 216 88 216 112 L216 112 Z " />
<glyph glyph-name="dcroat" unicode="&#x111;" horiz-adv-x="589" d="M560 522 L560 570 L485 570 C485 611 486 648 486 664 C486 715 468 731 434 731 C410 731 367 724 323 701 L323 651 C331 653 343 654 350 654 C368 654 383 650 390 639 C398 626 401 602 402 570 L255 570 L255 522 L403 522 L403 451 C371 468 319 473 295 473 C126 473 46 363 46 216 C46 86 126 -12 259 -12 C321 -12 376 8 412 49 C420 11 444 -8 483 -8 C507 -8 537 -3 565 8 L565 62 C552 59 537 58 526 58 C495 58 485 74 485 116 L485 431 L485 522 L560 522 Z M403 98 C377 76 325 59 281 59 C194 59 131 121 131 227 C131 341 195 405 294 405 C332 405 380 394 403 381 L403 98 Z " />
<glyph glyph-name="Emacron" unicode="&#x112;" horiz-adv-x="600" d="M565 179 L515 179 C504 141 492 110 478 95 C461 78 430 68 335 68 C311 68 269 69 243 72 C223 75 216 85 216 114 L216 318 L284 318 C332 318 359 318 370 303 C378 292 384 279 389 241 L436 241 C434 282 434 336 434 352 C434 381 434 433 436 459 L386 459 C384 431 377 410 368 399 C357 385 339 382 286 382 L216 382 L216 607 L326 607 C403 607 426 604 441 593 C452 585 460 566 466 511 L519 511 C522 540 527 600 527 627 C527 656 514 676 464 676 L34 676 L34 623 C94 619 112 616 119 606 C124 599 125 575 125 547 L125 134 C125 95 125 78 116 69 C107 60 84 57 34 54 L34 0 L468 0 C510 0 541 11 547 29 C558 59 564 122 565 179 L565 179 Z M443 755 L443 821 L168 821 L168 755 L443 755 Z " />
<glyph glyph-name="emacron" unicode="&#x113;" horiz-adv-x="503" d="M472 62 L440 114 C392 81 345 60 285 60 C180 60 131 128 131 214 L131 226 L405 226 C424 226 439 227 448 236 C459 246 461 272 461 292 C461 384 416 474 278 474 C147 474 46 389 46 222 C46 89 122 -14 271 -14 C347 -14 418 14 472 62 L472 62 Z M135 287 C144 369 203 407 268 407 C352 407 379 361 379 301 L379 290 L135 287 Z M400 558 L400 621 L143 621 L143 558 L400 558 Z " />
<glyph glyph-name="Ebreve" unicode="&#x114;" horiz-adv-x="600" d="M565 179 L515 179 C504 141 492 110 478 95 C461 78 430 68 335 68 C311 68 269 69 243 72 C223 75 216 85 216 114 L216 318 L284 318 C332 318 359 318 370 303 C378 292 384 279 389 241 L436 241 C434 282 434 336 434 352 C434 381 434 433 436 459 L386 459 C384 431 377 410 368 399 C357 385 339 382 286 382 L216 382 L216 607 L326 607 C403 607 426 604 441 593 C452 585 460 566 466 511 L519 511 C522 540 527 600 527 627 C527 656 514 676 464 676 L34 676 L34 623 C94 619 112 616 119 606 C124 599 125 575 125 547 L125 134 C125 95 125 78 116 69 C107 60 84 57 34 54 L34 0 L468 0 C510 0 541 11 547 29 C558 59 564 122 565 179 L565 179 Z M411 883 C400 824 365 795 305 795 C243 795 208 829 202 883 L164 879 C164 771 224 730 305 730 C384 730 448 782 449 881 L411 883 Z " />
<glyph glyph-name="ebreve" unicode="&#x115;" horiz-adv-x="503" d="M472 62 L440 114 C392 81 345 60 285 60 C180 60 131 128 131 214 L131 226 L405 226 C424 226 439 227 448 236 C459 246 461 272 461 292 C461 384 416 474 278 474 C147 474 46 389 46 222 C46 89 122 -14 271 -14 C347 -14 418 14 472 62 L472 62 Z M135 287 C144 369 203 407 268 407 C352 407 379 361 379 301 L379 290 L135 287 Z M366 682 C354 622 323 595 270 595 C216 595 185 627 178 682 L139 680 C140 568 190 530 270 530 C348 530 404 581 404 681 L366 682 Z " />
<glyph glyph-name="Edotaccent" unicode="&#x116;" horiz-adv-x="600" d="M565 179 L515 179 C504 141 492 110 478 95 C461 78 430 68 335 68 C311 68 269 69 243 72 C223 75 216 85 216 114 L216 318 L284 318 C332 318 359 318 370 303 C378 292 384 279 389 241 L436 241 C434 282 434 336 434 352 C434 381 434 433 436 459 L386 459 C384 431 377 410 368 399 C357 385 339 382 286 382 L216 382 L216 607 L326 607 C403 607 426 604 441 593 C452 585 460 566 466 511 L519 511 C522 540 527 600 527 627 C527 656 514 676 464 676 L34 676 L34 623 C94 619 112 616 119 606 C124 599 125 575 125 547 L125 134 C125 95 125 78 116 69 C107 60 84 57 34 54 L34 0 L468 0 C510 0 541 11 547 29 C558 59 564 122 565 179 L565 179 Z M305 743 C337 743 357 767 357 795 C357 824 338 846 307 846 C277 846 257 824 257 795 C257 765 278 743 305 743 L305 743 Z " />
<glyph glyph-name="edotaccent" unicode="&#x117;" horiz-adv-x="503" d="M472 62 L440 114 C392 81 345 60 285 60 C180 60 131 128 131 214 L131 226 L405 226 C424 226 439 227 448 236 C459 246 461 272 461 292 C461 384 416 474 278 474 C147 474 46 389 46 222 C46 89 122 -14 271 -14 C347 -14 418 14 472 62 L472 62 Z M135 287 C144 369 203 407 268 407 C352 407 379 361 379 301 L379 290 L135 287 Z M265 568 C297 568 317 591 317 621 C317 649 298 671 267 671 C237 671 217 649 217 621 C217 590 238 568 265 568 L265 568 Z " />
<glyph glyph-name="Eogonek" unicode="&#x118;" horiz-adv-x="600" d="M565 179 L515 179 C504 141 492 110 478 95 C461 78 430 68 335 68 C311 68 269 69 243 72 C223 75 216 85 216 114 L216 318 L284 318 C332 318 359 318 370 303 C378 292 384 279 389 241 L436 241 C434 282 434 336 434 352 C434 381 434 433 436 459 L386 459 C384 431 377 410 368 399 C357 385 339 382 286 382 L216 382 L216 607 L326 607 C403 607 426 604 441 593 C452 585 460 566 466 511 L519 511 C522 540 527 600 527 627 C527 656 514 676 464 676 L34 676 L34 623 C94 619 112 616 119 606 C124 599 125 575 125 547 L125 134 C125 95 125 78 116 69 C107 60 84 57 34 54 L34 0 L438 0 C366 -65 330 -117 330 -178 C330 -230 359 -278 430 -278 C470 -278 513 -258 538 -240 L523 -204 C505 -213 473 -219 453 -219 C416 -219 397 -196 397 -160 C397 -116 425 -67 489 1 C520 4 542 14 547 29 C558 59 564 122 565 179 L565 179 Z " />
<glyph glyph-name="eogonek" unicode="&#x119;" horiz-adv-x="503" d="M472 62 L440 114 C392 81 345 60 285 60 C180 60 131 128 131 214 L131 226 L405 226 C424 226 439 227 448 236 C459 246 461 272 461 292 C461 384 416 474 278 474 C147 474 46 389 46 222 C46 89 122 -14 271 -14 C276 -14 281 -14 286 -13 C225 -70 195 -117 195 -171 C195 -222 225 -268 293 -268 C332 -268 374 -248 398 -231 L383 -197 C366 -204 335 -211 315 -211 C279 -211 261 -188 261 -155 C261 -112 286 -67 344 -5 C392 7 436 30 472 62 L472 62 Z M135 287 C144 369 203 407 268 407 C352 407 379 361 379 301 L379 290 L135 287 Z " />
<glyph glyph-name="Ecaron" unicode="&#x11a;" horiz-adv-x="600" d="M565 179 L515 179 C504 141 492 110 478 95 C461 78 430 68 335 68 C311 68 269 69 243 72 C223 75 216 85 216 114 L216 318 L284 318 C332 318 359 318 370 303 C378 292 384 279 389 241 L436 241 C434 282 434 336 434 352 C434 381 434 433 436 459 L386 459 C384 431 377 410 368 399 C357 385 339 382 286 382 L216 382 L216 607 L326 607 C403 607 426 604 441 593 C452 585 460 566 466 511 L519 511 C522 540 527 600 527 627 C527 656 514 676 464 676 L34 676 L34 623 C94 619 112 616 119 606 C124 599 125 575 125 547 L125 134 C125 95 125 78 116 69 C107 60 84 57 34 54 L34 0 L468 0 C510 0 541 11 547 29 C558 59 564 122 565 179 L565 179 Z M155 872 L263 739 C275 723 287 716 303 716 C316 716 328 724 340 737 L455 873 L428 898 L305 801 L183 898 L155 872 Z " />
<glyph glyph-name="ecaron" unicode="&#x11b;" horiz-adv-x="503" d="M472 62 L440 114 C392 81 345 60 285 60 C180 60 131 128 131 214 L131 226 L405 226 C424 226 439 227 448 236 C459 246 461 272 461 292 C461 384 416 474 278 474 C147 474 46 389 46 222 C46 89 122 -14 271 -14 C347 -14 418 14 472 62 L472 62 Z M135 287 C144 369 203 407 268 407 C352 407 379 361 379 301 L379 290 L135 287 Z M136 683 L235 531 C246 514 259 510 274 510 C287 510 301 516 311 531 L415 684 L386 707 L276 595 L167 707 L136 683 Z " />
<glyph glyph-name="Gcircumflex" unicode="&#x11c;" horiz-adv-x="712" d="M684 261 L684 316 C650 315 601 313 570 313 C549 313 465 315 437 316 L437 261 C478 259 509 256 519 249 C527 242 529 231 529 200 L529 126 C529 105 527 90 520 83 C515 79 504 72 487 68 C469 63 430 59 398 59 C266 59 144 135 144 336 C144 533 267 619 404 619 C480 619 521 607 539 586 C549 574 558 550 562 498 L615 498 C621 529 626 584 626 607 C626 636 610 655 580 666 C545 680 490 692 406 692 C194 692 48 552 48 326 C48 105 187 -15 381 -15 C452 -15 528 -2 583 18 C607 27 618 42 618 73 L618 199 C618 225 620 241 625 247 C632 257 650 259 684 261 L684 261 Z M534 742 L424 875 C412 890 401 897 385 897 C373 897 360 890 348 876 L234 741 L260 715 L382 813 L505 715 L534 742 Z " />
<glyph glyph-name="gcircumflex" unicode="&#x11d;" horiz-adv-x="520" d="M358 295 C358 225 308 190 245 190 C180 190 130 220 130 303 C130 362 169 407 243 407 C309 407 358 378 358 295 L358 295 Z M189 127 C199 125 222 124 240 124 C356 124 439 186 439 303 C439 328 431 368 414 386 C438 386 464 387 502 389 L502 447 C477 449 428 450 360 450 C328 468 292 474 244 474 C124 474 46 400 46 295 C46 224 76 175 142 144 C100 115 82 87 82 59 C82 34 93 11 128 -4 C99 -17 77 -33 59 -47 C32 -68 15 -96 15 -136 C15 -214 93 -277 248 -277 C397 -277 497 -207 497 -103 C497 -34 464 9 376 25 C309 38 239 47 196 57 C168 64 157 75 157 84 C157 100 165 110 189 127 L189 127 Z M175 -23 C188 -27 213 -33 299 -46 C393 -61 409 -86 409 -115 C409 -156 375 -207 256 -207 C140 -207 96 -162 96 -121 C96 -87 115 -58 175 -23 L175 -23 Z M390 534 L291 686 C280 703 267 707 252 707 C240 707 226 701 215 685 L111 533 L141 509 L249 622 L359 509 L390 534 Z " />
<glyph glyph-name="Gbreve" unicode="&#x11e;" horiz-adv-x="712" d="M684 261 L684 316 C650 315 601 313 570 313 C549 313 465 315 437 316 L437 261 C478 259 509 256 519 249 C527 242 529 231 529 200 L529 126 C529 105 527 90 520 83 C515 79 504 72 487 68 C469 63 430 59 398 59 C266 59 144 135 144 336 C144 533 267 619 404 619 C480 619 521 607 539 586 C549 574 558 550 562 498 L615 498 C621 529 626 584 626 607 C626 636 610 655 580 666 C545 680 490 692 406 692 C194 692 48 552 48 326 C48 105 187 -15 381 -15 C452 -15 528 -2 583 18 C607 27 618 42 618 73 L618 199 C618 225 620 241 625 247 C632 257 650 259 684 261 L684 261 Z M486 883 C475 824 440 795 380 795 C318 795 283 829 277 883 L239 879 C239 771 299 730 380 730 C459 730 523 782 524 881 L486 883 Z " />
<glyph glyph-name="gbreve" unicode="&#x11f;" horiz-adv-x="520" d="M358 295 C358 225 308 190 245 190 C180 190 130 220 130 303 C130 362 169 407 243 407 C309 407 358 378 358 295 L358 295 Z M189 127 C199 125 222 124 240 124 C356 124 439 186 439 303 C439 328 431 368 414 386 C438 386 464 387 502 389 L502 447 C477 449 428 450 360 450 C328 468 292 474 244 474 C124 474 46 400 46 295 C46 224 76 175 142 144 C100 115 82 87 82 59 C82 34 93 11 128 -4 C99 -17 77 -33 59 -47 C32 -68 15 -96 15 -136 C15 -214 93 -277 248 -277 C397 -277 497 -207 497 -103 C497 -34 464 9 376 25 C309 38 239 47 196 57 C168 64 157 75 157 84 C157 100 165 110 189 127 L189 127 Z M175 -23 C188 -27 213 -33 299 -46 C393 -61 409 -86 409 -115 C409 -156 375 -207 256 -207 C140 -207 96 -162 96 -121 C96 -87 115 -58 175 -23 L175 -23 Z M344 682 C332 622 301 595 248 595 C194 595 163 627 156 682 L117 680 C118 568 168 530 248 530 C326 530 382 581 382 681 L344 682 Z " />
<glyph glyph-name="Gdotaccent" unicode="&#x120;" horiz-adv-x="712" d="M684 261 L684 316 C650 315 601 313 570 313 C549 313 465 315 437 316 L437 261 C478 259 509 256 519 249 C527 242 529 231 529 200 L529 126 C529 105 527 90 520 83 C515 79 504 72 487 68 C469 63 430 59 398 59 C266 59 144 135 144 336 C144 533 267 619 404 619 C480 619 521 607 539 586 C549 574 558 550 562 498 L615 498 C621 529 626 584 626 607 C626 636 610 655 580 666 C545 680 490 692 406 692 C194 692 48 552 48 326 C48 105 187 -15 381 -15 C452 -15 528 -2 583 18 C607 27 618 42 618 73 L618 199 C618 225 620 241 625 247 C632 257 650 259 684 261 L684 261 Z M391 743 C423 743 443 767 443 795 C443 824 424 846 393 846 C363 846 343 824 343 795 C343 765 364 743 391 743 L391 743 Z " />
<glyph glyph-name="gdotaccent" unicode="&#x121;" horiz-adv-x="520" d="M358 295 C358 225 308 190 245 190 C180 190 130 220 130 303 C130 362 169 407 243 407 C309 407 358 378 358 295 L358 295 Z M189 127 C199 125 222 124 240 124 C356 124 439 186 439 303 C439 328 431 368 414 386 C438 386 464 387 502 389 L502 447 C477 449 428 450 360 450 C328 468 292 474 244 474 C124 474 46 400 46 295 C46 224 76 175 142 144 C100 115 82 87 82 59 C82 34 93 11 128 -4 C99 -17 77 -33 59 -47 C32 -68 15 -96 15 -136 C15 -214 93 -277 248 -277 C397 -277 497 -207 497 -103 C497 -34 464 9 376 25 C309 38 239 47 196 57 C168 64 157 75 157 84 C157 100 165 110 189 127 L189 127 Z M175 -23 C188 -27 213 -33 299 -46 C393 -61 409 -86 409 -115 C409 -156 375 -207 256 -207 C140 -207 96 -162 96 -121 C96 -87 115 -58 175 -23 L175 -23 Z M250 568 C282 568 302 591 302 621 C302 649 283 671 252 671 C222 671 202 649 202 621 C202 590 223 568 250 568 L250 568 Z " />
<glyph glyph-name="Gcommaaccent" unicode="&#x122;" horiz-adv-x="712" d="M684 261 L684 316 C650 315 601 313 570 313 C549 313 465 315 437 316 L437 261 C478 259 509 256 519 249 C527 242 529 231 529 200 L529 126 C529 105 527 90 520 83 C515 79 504 72 487 68 C469 63 430 59 398 59 C266 59 144 135 144 336 C144 533 267 619 404 619 C480 619 521 607 539 586 C549 574 558 550 562 498 L615 498 C621 529 626 584 626 607 C626 636 610 655 580 666 C545 680 490 692 406 692 C194 692 48 552 48 326 C48 105 187 -15 381 -15 C452 -15 528 -2 583 18 C607 27 618 42 618 73 L618 199 C618 225 620 241 625 247 C632 257 650 259 684 261 L684 261 Z M316 -287 C409 -234 439 -178 439 -121 C439 -76 417 -45 374 -45 C342 -45 319 -68 319 -96 C319 -122 332 -135 351 -144 C362 -149 366 -162 366 -173 C366 -194 351 -218 294 -255 L316 -287 Z " />
<glyph glyph-name="gcommaaccent" unicode="&#x123;" horiz-adv-x="520" d="M358 295 C358 223 308 189 245 189 C180 189 130 218 130 303 C130 362 168 409 243 409 C311 409 358 378 358 295 L358 295 Z M189 127 C199 125 222 124 240 124 C356 124 439 186 439 303 C439 328 431 368 414 386 C438 386 464 387 502 389 L502 447 C477 449 428 450 360 450 C328 468 292 474 244 474 C124 474 46 400 46 295 C46 224 76 175 142 144 C100 115 83 86 83 59 C83 34 96 11 130 -4 C102 -16 75 -33 57 -47 C31 -70 15 -95 15 -136 C15 -214 93 -277 248 -277 C397 -277 497 -209 497 -103 C497 -35 464 7 376 24 C310 37 239 43 196 55 C168 62 157 74 157 83 C157 98 165 110 189 127 L189 127 Z M175 -23 C189 -29 211 -31 299 -44 C394 -58 409 -84 409 -120 C409 -158 372 -207 256 -207 C141 -207 96 -163 96 -122 C96 -80 128 -45 175 -23 L175 -23 Z M311 778 C219 725 188 669 188 612 C188 567 210 537 254 537 C285 537 308 560 308 586 C308 613 296 624 277 634 C265 640 260 653 260 664 C260 685 277 709 333 746 L311 778 Z " />
<glyph glyph-name="Hcircumflex" unicode="&#x124;" horiz-adv-x="754" d="M307 -1 L307 54 C244 58 229 63 222 72 C217 78 216 89 216 135 L216 319 L539 319 L539 134 C539 88 538 78 531 70 C523 61 503 58 447 54 L447 -1 C489 0 561 1 584 1 C609 1 677 0 721 -1 L721 54 C656 58 643 63 635 72 C630 78 629 89 629 135 L629 547 C629 585 630 598 635 605 C642 613 656 619 721 623 L721 677 C677 676 605 674 580 674 C557 674 489 676 447 677 L447 623 C506 619 524 614 531 606 C537 599 539 583 539 546 L539 388 L216 388 L216 547 C216 585 217 598 222 605 C228 613 243 619 307 623 L307 677 C264 676 190 674 165 674 C142 674 76 676 34 677 L34 623 C94 619 112 614 118 606 C123 599 125 584 125 547 L125 134 C125 88 124 78 118 70 C110 61 90 58 34 54 L34 -1 C77 0 145 1 168 1 C194 1 264 0 307 -1 L307 -1 Z M525 742 L415 875 C403 890 392 897 376 897 C364 897 351 890 339 876 L225 741 L251 715 L373 813 L496 715 L525 742 Z " />
<glyph glyph-name="hcircumflex" unicode="&#x125;" horiz-adv-x="589" d="M259 -1 L259 53 C213 57 201 60 195 68 C188 76 187 89 187 123 L187 357 C222 381 277 394 318 394 C352 394 377 385 390 368 C402 351 406 324 406 289 L406 124 C406 87 403 75 398 69 C391 61 377 57 335 53 L335 -1 C378 0 429 1 451 1 C473 1 526 0 568 -1 L568 53 C512 58 499 63 493 73 C489 81 487 94 487 122 L487 308 C487 378 479 416 456 440 C438 460 402 473 364 473 C299 473 230 445 186 401 C186 512 188 589 188 660 C188 717 169 731 137 731 C108 731 69 724 24 701 L24 651 C36 652 46 653 54 653 C69 653 82 652 92 642 C102 633 105 606 105 538 L105 122 C105 87 102 75 97 68 C90 60 76 58 26 53 L26 -1 C70 1 115 1 137 1 C162 1 215 0 259 -1 L259 -1 Z M296 763 L186 896 C174 911 163 918 147 918 C135 918 122 911 110 897 L-4 762 L22 736 L144 834 L267 736 L296 763 Z " />
<glyph glyph-name="Hbar" unicode="&#x126;" horiz-adv-x="754" d="M723 462 L723 519 L629 519 L629 547 C629 585 630 598 635 605 C642 613 656 619 721 623 L721 677 C677 676 605 674 580 674 C557 674 489 676 447 677 L447 623 C506 619 524 614 531 606 C537 599 539 583 539 546 L539 519 L216 519 L216 547 C216 585 217 598 222 605 C228 613 243 619 307 623 L307 677 C264 676 190 674 165 674 C142 674 76 676 34 677 L34 623 C94 619 112 614 118 606 C123 599 125 584 125 547 L125 519 L31 519 L31 462 L125 462 L125 134 C125 88 124 78 118 70 C110 61 90 58 34 54 L34 -1 C77 0 145 1 168 1 C194 1 264 0 307 -1 L307 54 C244 58 229 63 222 72 C217 78 216 89 216 135 L216 319 L539 319 L539 134 C539 88 538 78 531 70 C523 61 503 58 447 54 L447 -1 C489 0 561 1 584 1 C609 1 677 0 721 -1 L721 54 C656 58 643 63 635 72 C630 78 629 89 629 135 L629 462 L723 462 Z M216 386 L216 462 L539 462 L539 386 L216 386 Z " />
<glyph glyph-name="hbar" unicode="&#x127;" horiz-adv-x="589" d="M329 522 L329 570 L187 570 C188 602 188 631 188 660 C188 717 169 731 137 731 C108 731 69 724 24 701 L24 651 C36 652 46 653 54 653 C69 653 82 652 92 642 C101 634 104 612 105 570 L24 570 L24 522 L105 522 L105 122 C105 87 102 75 97 68 C90 60 76 58 26 53 L26 -1 C70 1 115 1 137 1 C162 1 215 0 259 -1 L259 53 C213 57 201 60 195 68 C188 76 187 89 187 123 L187 357 C222 381 277 394 318 394 C352 394 377 385 390 368 C402 351 406 324 406 289 L406 124 C406 87 403 75 398 69 C391 61 377 57 335 53 L335 -1 C378 0 429 1 451 1 C473 1 526 0 568 -1 L568 53 C512 58 499 63 493 73 C489 81 487 94 487 122 L487 308 C487 378 479 416 456 440 C438 460 402 473 364 473 C299 473 230 445 186 401 L186 522 L329 522 Z " />
<glyph glyph-name="Itilde" unicode="&#x128;" horiz-adv-x="341" d="M307 -1 L307 54 C247 58 230 63 222 73 C217 79 216 89 216 135 L216 547 C216 585 217 598 222 605 C228 613 243 619 307 623 L307 677 C265 676 202 674 166 674 C131 674 69 676 34 677 L34 623 C94 619 112 614 118 606 C123 599 125 584 125 547 L125 134 C125 88 124 77 118 70 C110 62 90 58 34 54 L34 -1 C77 0 146 1 169 1 C195 1 264 0 307 -1 L307 -1 Z M51 733 C70 768 80 783 103 783 C111 783 126 779 146 772 L175 761 C205 748 223 743 242 743 C278 743 306 782 324 853 L287 866 C271 831 256 812 239 812 C227 812 210 818 193 826 L162 839 C143 847 125 854 105 854 C59 854 30 801 16 745 L51 733 Z " />
<glyph glyph-name="itilde" unicode="&#x129;" horiz-adv-x="302" d="M26 542 C43 578 54 593 76 593 C84 593 101 591 119 582 L144 570 C174 558 191 552 208 552 C241 552 272 591 289 664 L253 675 C237 641 223 623 205 623 C195 623 178 628 161 636 L134 649 C117 657 99 664 78 664 C34 664 6 610 -9 554 L26 542 Z M268 -1 L268 53 C220 57 206 60 200 68 C194 77 191 88 191 123 C191 211 195 316 195 400 C195 459 171 469 142 469 C116 469 74 462 32 438 L32 388 C39 389 52 390 59 390 C74 390 87 388 96 380 C106 372 110 350 110 312 L110 122 C110 87 107 74 102 68 C95 60 79 57 32 53 L32 -1 C76 1 120 1 143 1 C166 1 225 0 268 -1 L268 -1 Z " />
<glyph glyph-name="Imacron" unicode="&#x12a;" horiz-adv-x="341" d="M307 -1 L307 54 C247 58 230 63 222 73 C217 79 216 89 216 135 L216 547 C216 585 217 598 222 605 C228 613 243 619 307 623 L307 677 C265 676 202 674 166 674 C131 674 69 676 34 677 L34 623 C94 619 112 614 118 606 C123 599 125 584 125 547 L125 134 C125 88 124 77 118 70 C110 62 90 58 34 54 L34 -1 C77 0 146 1 169 1 C195 1 264 0 307 -1 L307 -1 Z M299 783 L299 846 L42 846 L42 783 L299 783 Z " />
<glyph glyph-name="imacron" unicode="&#x12b;" horiz-adv-x="302" d="M269 558 L269 621 L12 621 L12 558 L269 558 Z M268 -1 L268 53 C220 57 206 60 200 68 C194 77 191 88 191 123 C191 211 195 316 195 400 C195 459 171 469 142 469 C116 469 74 462 32 438 L32 388 C39 389 52 390 59 390 C74 390 87 388 96 380 C106 372 110 350 110 312 L110 122 C110 87 107 74 102 68 C95 60 79 57 32 53 L32 -1 C76 1 120 1 143 1 C166 1 225 0 268 -1 L268 -1 Z " />
<glyph glyph-name="Ibreve" unicode="&#x12c;" horiz-adv-x="341" d="M307 -1 L307 54 C247 58 230 63 222 73 C217 79 216 89 216 135 L216 547 C216 585 217 598 222 605 C228 613 243 619 307 623 L307 677 C265 676 202 674 166 674 C131 674 69 676 34 677 L34 623 C94 619 112 614 118 606 C123 599 125 584 125 547 L125 134 C125 88 124 77 118 70 C110 62 90 58 34 54 L34 -1 C77 0 146 1 169 1 C195 1 264 0 307 -1 L307 -1 Z M275 883 C264 824 229 795 169 795 C107 795 72 829 66 883 L28 879 C28 771 88 730 169 730 C248 730 312 782 313 881 L275 883 Z " />
<glyph glyph-name="ibreve" unicode="&#x12d;" horiz-adv-x="302" d="M240 682 C228 622 197 595 144 595 C90 595 59 627 52 682 L13 680 C14 568 64 530 144 530 C222 530 278 581 278 681 L240 682 Z M268 -1 L268 53 C220 57 206 60 200 68 C194 77 191 88 191 123 C191 211 195 316 195 400 C195 459 171 469 142 469 C116 469 74 462 32 438 L32 388 C39 389 52 390 59 390 C74 390 87 388 96 380 C106 372 110 350 110 312 L110 122 C110 87 107 74 102 68 C95 60 79 57 32 53 L32 -1 C76 1 120 1 143 1 C166 1 225 0 268 -1 L268 -1 Z " />
<glyph glyph-name="Iogonek" unicode="&#x12e;" horiz-adv-x="341" d="M307 -1 L307 54 C247 58 230 63 222 73 C217 79 216 89 216 135 L216 547 C216 585 217 598 222 605 C228 613 243 619 307 623 L307 677 C265 676 202 674 166 674 C131 674 69 676 34 677 L34 623 C94 619 112 614 118 606 C123 599 125 584 125 547 L125 134 C125 88 124 77 118 70 C110 62 90 58 34 54 L34 -1 C71 0 126 1 155 1 C82 -65 46 -117 46 -178 C46 -230 75 -278 146 -278 C186 -278 229 -258 254 -240 L239 -204 C221 -213 189 -219 169 -219 C132 -219 113 -196 113 -160 C113 -116 141 -67 205 1 L307 -1 Z " />
<glyph glyph-name="iogonek" unicode="&#x12f;" horiz-adv-x="302" d="M268 -1 L268 53 C220 57 206 60 200 68 C194 77 191 88 191 123 C191 211 195 316 195 400 C195 459 171 469 142 469 C116 469 74 462 32 438 L32 388 C39 389 52 390 59 390 C74 390 87 388 96 380 C106 372 110 350 110 312 L110 122 C110 87 107 74 102 68 C95 60 79 57 32 53 L32 -1 C76 1 120 1 143 1 L144 1 C72 -63 37 -113 37 -171 C37 -222 67 -268 135 -268 C174 -268 216 -248 240 -231 L225 -197 C208 -204 177 -211 157 -211 C121 -211 103 -188 103 -155 C103 -111 129 -65 191 0 C216 0 244 0 268 -1 L268 -1 Z M195 650 C195 684 177 710 136 710 C100 710 76 684 76 648 C76 615 98 589 133 589 C171 589 195 615 195 650 L195 650 Z " />
<glyph glyph-name="Idotaccent" unicode="&#x130;" horiz-adv-x="341" d="M307 -1 L307 54 C247 58 230 63 222 73 C217 79 216 89 216 135 L216 547 C216 585 217 598 222 605 C228 613 243 619 307 623 L307 677 C265 676 202 674 166 674 C131 674 69 676 34 677 L34 623 C94 619 112 614 118 606 C123 599 125 584 125 547 L125 134 C125 88 124 77 118 70 C110 62 90 58 34 54 L34 -1 C77 0 146 1 169 1 C195 1 264 0 307 -1 L307 -1 Z M170 743 C202 743 222 767 222 795 C222 824 203 846 172 846 C142 846 122 824 122 795 C122 765 143 743 170 743 L170 743 Z " />
<glyph glyph-name="dotlessi" unicode="&#x131;" horiz-adv-x="302" d="M268 -1 L268 53 C220 57 206 60 200 68 C194 77 191 88 191 123 C191 211 195 316 195 400 C195 459 171 469 142 469 C116 469 74 462 32 438 L32 388 C39 389 52 390 59 390 C74 390 87 388 96 380 C106 372 110 350 110 312 L110 122 C110 87 107 74 102 68 C95 60 79 57 32 53 L32 -1 C76 1 120 1 143 1 C166 1 225 0 268 -1 L268 -1 Z " />
<glyph glyph-name="IJ" unicode="&#x132;" horiz-adv-x="664" d="M307 -1 L307 54 C247 58 230 63 222 73 C217 79 216 89 216 135 L216 547 C216 585 217 598 222 605 C228 613 243 619 307 623 L307 677 C265 676 202 674 166 674 C131 674 69 676 34 677 L34 623 C94 619 112 614 118 606 C123 599 125 584 125 547 L125 134 C125 88 124 77 118 70 C110 62 90 58 34 54 L34 -1 C77 0 146 1 169 1 C195 1 264 0 307 -1 L307 -1 Z M361 -158 C432 -128 497 -78 522 -25 C545 24 551 86 551 168 L551 547 C551 585 553 598 558 605 C564 613 576 619 640 623 L640 677 C598 676 538 674 502 674 C467 674 404 676 367 677 L367 623 C426 619 448 614 454 606 C460 599 461 584 461 547 L461 166 C461 98 456 53 444 9 C430 -40 384 -78 334 -105 L361 -158 Z " />
<glyph glyph-name="ij" unicode="&#x133;" horiz-adv-x="576" d="M195 650 C195 684 177 710 136 710 C100 710 76 684 76 648 C76 615 98 589 133 589 C171 589 195 615 195 650 L195 650 Z M268 -1 L268 53 C220 57 206 60 200 68 C194 77 191 88 191 123 C191 211 195 316 195 400 C195 459 171 469 142 469 C116 469 74 462 32 438 L32 388 C39 389 52 390 59 390 C74 390 87 388 96 380 C106 372 110 350 110 312 L110 122 C110 87 107 74 102 68 C95 60 79 57 32 53 L32 -1 C76 1 120 1 143 1 C166 1 225 0 268 -1 L268 -1 Z M485 650 C485 684 468 710 426 710 C390 710 367 684 367 648 C367 615 388 589 424 589 C463 589 485 615 485 650 L485 650 Z M290 -227 L309 -275 C363 -259 427 -222 456 -174 C483 -128 486 -77 486 11 C486 94 484 316 484 400 C484 459 463 469 432 469 C407 469 365 462 322 438 L322 389 C328 390 341 392 350 392 C365 392 379 388 388 381 C398 372 402 351 402 313 L402 -3 C402 -65 398 -122 384 -150 C367 -184 335 -206 290 -227 L290 -227 Z " />
<glyph glyph-name="Jcircumflex" unicode="&#x134;" horiz-adv-x="324" d="M21 -158 C92 -128 157 -78 182 -25 C205 24 211 86 211 168 L211 547 C211 585 213 598 218 605 C224 613 236 619 300 623 L300 677 C258 676 198 674 162 674 C127 674 64 676 27 677 L27 623 C86 619 108 614 114 606 C120 599 121 584 121 547 L121 166 C121 98 116 53 104 9 C90 -40 44 -78 -6 -105 L21 -158 Z M306 759 L207 911 C196 928 183 932 168 932 C156 932 142 926 131 910 L27 758 L57 734 L165 847 L275 734 L306 759 Z " />
<glyph glyph-name="jcircumflex" unicode="&#x135;" horiz-adv-x="276" d="M-11 -227 L8 -275 C62 -259 126 -222 155 -174 C182 -128 185 -77 185 11 C185 94 183 316 183 400 C183 459 162 469 131 469 C106 469 64 462 21 438 L21 389 C27 390 40 392 49 392 C64 392 78 388 87 381 C97 372 101 351 101 313 L101 -3 C101 -65 97 -122 83 -150 C66 -184 34 -206 -11 -227 L-11 -227 Z M266 534 L166 686 C155 703 142 707 128 707 C116 707 101 701 92 685 L-14 533 L17 509 L125 622 L235 509 L266 534 Z " />
<glyph glyph-name="Kcommaaccent" unicode="&#x136;" horiz-adv-x="674" d="M310 -1 L310 54 C251 57 229 61 222 70 C216 77 216 87 216 133 L216 547 C216 585 217 599 222 606 C228 614 246 619 310 623 L310 677 C267 676 190 674 165 674 C142 674 76 676 34 677 L34 623 C94 619 113 614 118 607 C124 599 125 585 125 547 L125 133 C125 87 124 77 118 69 C109 57 92 58 34 54 L34 -1 C77 0 145 1 168 1 C194 1 267 0 310 -1 L310 -1 Z M664 0 L664 53 C648 53 624 57 609 63 C589 70 578 77 552 98 C503 140 396 267 330 355 C363 387 494 521 525 552 C560 589 586 606 600 613 C614 620 636 622 650 623 L650 677 C606 675 555 675 530 675 C506 675 439 675 394 677 L394 623 C448 620 462 615 462 602 C462 589 452 573 430 548 C368 481 299 407 231 344 C299 243 424 87 482 37 C514 9 563 -4 606 -4 C625 -4 648 -3 664 0 L664 0 Z M297 -287 C390 -234 420 -178 420 -121 C420 -76 398 -45 355 -45 C323 -45 300 -68 300 -96 C300 -122 313 -135 332 -144 C343 -149 347 -162 347 -173 C347 -194 332 -218 275 -255 L297 -287 Z " />
<glyph glyph-name="kcommaaccent" unicode="&#x137;" horiz-adv-x="553" d="M271 -1 L271 53 C227 57 210 59 204 67 C198 76 195 89 195 123 L195 502 C195 569 196 628 196 665 C196 721 177 731 145 731 C117 731 78 724 34 701 L34 652 C41 653 53 654 60 654 C75 654 89 653 98 645 C111 634 113 606 113 564 L113 121 C113 86 110 74 105 68 C98 60 81 57 35 53 L35 -1 C79 1 123 1 146 1 C169 1 228 0 271 -1 L271 -1 Z M544 0 L544 54 C523 55 491 60 478 67 C461 76 436 96 424 106 C381 145 350 180 299 246 C321 267 373 314 403 341 C441 375 465 393 478 400 C491 407 510 409 525 410 L525 461 C479 459 436 459 409 459 C384 459 341 459 292 461 L292 410 C347 408 357 402 357 390 C357 378 349 363 315 330 C273 288 227 251 206 235 C261 163 316 85 373 37 C407 8 453 -2 493 -2 C513 -2 532 -1 544 0 L544 0 Z M232 -287 C325 -234 355 -178 355 -121 C355 -76 333 -45 290 -45 C258 -45 235 -68 235 -96 C235 -122 248 -135 267 -144 C278 -149 282 -162 282 -173 C282 -194 267 -218 210 -255 L232 -287 Z " />
<glyph glyph-name="kgreenlandic" unicode="&#x138;" horiz-adv-x="553" d="M271 -1 L271 53 C227 57 210 59 204 67 C198 76 195 89 195 123 L195 248 C195 312 196 367 196 398 C196 453 177 469 145 469 C117 469 79 462 35 438 L35 388 C43 390 53 390 60 390 C75 390 89 389 98 381 C110 369 113 344 113 302 L113 121 C113 86 110 74 105 68 C98 60 81 57 35 53 L35 -1 C79 1 123 1 146 1 C169 1 228 0 271 -1 L271 -1 Z M551 0 L551 54 C529 55 499 63 485 69 C467 77 443 96 431 106 C388 145 349 181 298 246 C321 266 371 315 401 342 C438 376 466 394 479 401 C492 407 509 409 524 410 L524 461 C478 459 437 459 410 459 C385 459 340 459 291 461 L291 410 C347 408 356 402 356 390 C356 379 347 365 313 330 C271 288 227 250 206 235 C264 163 322 86 381 37 C414 9 461 -2 500 -2 C521 -2 540 -1 551 0 L551 0 Z " />
<glyph glyph-name="Lacute" unicode="&#x139;" horiz-adv-x="598" d="M561 182 L513 182 C503 144 490 110 476 95 C460 78 430 68 335 68 C311 68 269 69 243 72 C223 75 216 85 216 114 L216 547 C216 585 217 598 222 605 C228 613 247 619 311 623 L311 677 C269 676 202 674 166 674 C131 674 69 676 34 677 L34 623 C96 620 112 614 118 607 C124 599 125 585 125 548 L125 134 C125 95 125 79 116 70 C107 61 84 57 34 54 L34 0 L466 0 C508 0 535 11 542 29 C552 59 560 126 561 182 L561 182 Z M142 717 L284 810 C311 827 326 846 326 863 C326 885 309 903 289 903 C273 903 260 896 234 869 L117 747 L142 717 Z " />
<glyph glyph-name="lacute" unicode="&#x13a;" horiz-adv-x="304" d="M271 -1 L271 53 C225 57 210 60 204 68 C198 76 195 89 195 123 L195 441 C195 511 196 627 196 665 C196 721 177 731 145 731 C118 731 77 724 34 701 L34 652 C41 653 53 654 60 654 C74 654 89 654 98 645 C111 633 113 591 113 518 L113 122 C113 87 110 75 105 68 C98 60 82 57 35 53 L35 -1 C79 1 123 1 146 1 C169 1 228 0 271 -1 L271 -1 Z M80 783 L222 876 C249 893 264 912 264 929 C264 951 247 969 227 969 C211 969 198 962 172 935 L55 813 L80 783 Z " />
<glyph glyph-name="Lcommaaccent" unicode="&#x13b;" horiz-adv-x="598" d="M561 182 L513 182 C503 144 490 110 476 95 C460 78 430 68 335 68 C311 68 269 69 243 72 C223 75 216 85 216 114 L216 547 C216 585 217 598 222 605 C228 613 247 619 311 623 L311 677 C269 676 202 674 166 674 C131 674 69 676 34 677 L34 623 C96 620 112 614 118 607 C124 599 125 585 125 548 L125 134 C125 95 125 79 116 70 C107 61 84 57 34 54 L34 0 L466 0 C508 0 535 11 542 29 C552 59 560 126 561 182 L561 182 Z M248 -287 C341 -234 371 -178 371 -121 C371 -76 349 -45 306 -45 C274 -45 251 -68 251 -96 C251 -122 264 -135 283 -144 C294 -149 298 -162 298 -173 C298 -194 283 -218 226 -255 L248 -287 Z " />
<glyph glyph-name="lcommaaccent" unicode="&#x13c;" horiz-adv-x="304" d="M271 -1 L271 53 C225 57 210 60 204 68 C198 76 195 89 195 123 L195 441 C195 511 196 627 196 665 C196 721 177 731 145 731 C118 731 77 724 34 701 L34 652 C41 653 53 654 60 654 C74 654 89 654 98 645 C111 633 113 591 113 518 L113 122 C113 87 110 75 105 68 C98 60 82 57 35 53 L35 -1 C79 1 123 1 146 1 C169 1 228 0 271 -1 L271 -1 Z M101 -287 C194 -234 224 -178 224 -121 C224 -76 202 -45 159 -45 C127 -45 104 -68 104 -96 C104 -122 117 -135 136 -144 C147 -149 151 -162 151 -173 C151 -194 136 -218 79 -255 L101 -287 Z " />
<glyph glyph-name="Lcaron" unicode="&#x13d;" horiz-adv-x="598" d="M561 182 L513 182 C503 144 490 110 476 95 C460 78 430 68 335 68 C311 68 269 69 243 72 C223 75 216 85 216 114 L216 547 C216 585 217 598 222 605 C228 613 247 619 311 623 L311 677 C269 676 202 674 166 674 C131 674 69 676 34 677 L34 623 C96 620 112 614 118 607 C124 599 125 585 125 548 L125 134 C125 95 125 79 116 70 C107 61 84 57 34 54 L34 0 L466 0 C508 0 535 11 542 29 C552 59 560 126 561 182 L561 182 Z M364 463 C457 516 487 572 487 629 C487 674 465 705 422 705 C390 705 367 682 367 654 C367 628 380 615 399 606 C410 601 414 588 414 577 C414 556 399 532 342 495 L364 463 Z " />
<glyph glyph-name="lcaron" unicode="&#x13e;" horiz-adv-x="304" d="M271 -1 L271 53 C225 57 210 60 204 68 C198 76 195 89 195 123 L195 441 C195 511 196 627 196 665 C196 721 177 731 145 731 C118 731 77 724 34 701 L34 652 C41 653 53 654 60 654 C74 654 89 654 98 645 C111 633 113 591 113 518 L113 122 C113 87 110 75 105 68 C98 60 82 57 35 53 L35 -1 C79 1 123 1 146 1 C169 1 228 0 271 -1 L271 -1 Z M255 493 C348 547 378 603 378 659 C378 705 356 735 313 735 C281 735 258 711 258 685 C258 657 271 646 290 636 C301 631 305 617 305 607 C305 587 290 562 233 525 L255 493 Z " />
<glyph glyph-name="Ldot" unicode="&#x13f;" horiz-adv-x="598" d="M561 182 L513 182 C503 144 490 110 476 95 C460 78 430 68 335 68 C311 68 269 69 243 72 C223 75 216 85 216 114 L216 547 C216 585 217 598 222 605 C228 613 247 619 311 623 L311 677 C269 676 202 674 166 674 C131 674 69 676 34 677 L34 623 C96 620 112 614 118 607 C124 599 125 585 125 548 L125 134 C125 95 126 78 117 69 C108 60 84 57 34 54 L34 0 L466 0 C508 0 535 11 542 29 C552 59 560 126 561 182 L561 182 Z M519 346 C519 384 491 410 453 410 C418 410 389 382 389 343 C389 305 418 277 454 277 C492 277 519 303 519 346 L519 346 Z " />
<glyph glyph-name="ldot" unicode="&#x140;" horiz-adv-x="368" d="M271 -1 L271 53 C225 57 210 60 204 68 C198 76 195 89 195 123 L195 441 C195 511 196 627 196 665 C196 721 177 731 145 731 C118 731 77 724 34 701 L34 652 C41 653 53 654 60 654 C75 654 89 653 97 645 C107 635 110 611 111 578 C113 528 113 469 113 424 L113 122 C113 87 110 75 105 68 C98 60 82 57 35 53 L35 -1 C79 1 123 1 146 1 C169 1 228 0 271 -1 L271 -1 Z M403 358 C403 393 377 419 340 419 C306 419 279 391 279 355 C279 318 306 291 341 291 C378 291 403 316 403 358 L403 358 Z " />
<glyph glyph-name="Lslash" unicode="&#x141;" horiz-adv-x="598" d="M407 453 L379 500 L216 392 L216 547 C216 585 217 598 222 605 C228 613 247 619 311 623 L311 677 C269 676 202 674 166 674 C131 674 69 676 34 677 L34 623 C96 620 112 614 118 607 C124 599 125 585 125 548 L125 332 L7 255 L36 207 L125 266 L125 134 C125 95 125 78 116 69 C107 60 84 57 34 54 L34 0 L466 0 C508 0 535 11 542 29 C552 59 560 126 561 182 L513 182 C503 144 490 110 476 95 C460 78 430 68 335 68 C311 68 269 69 243 72 C223 75 216 85 216 114 L216 326 L407 453 Z " />
<glyph glyph-name="lslash" unicode="&#x142;" horiz-adv-x="304" d="M298 444 L270 482 L195 423 L195 441 C195 511 196 627 196 665 C196 721 177 731 145 731 C118 731 78 724 34 701 L34 652 C41 653 53 654 60 654 C75 654 90 653 98 645 C108 635 111 611 112 578 C113 528 113 469 113 424 L113 358 L14 281 L41 242 L113 298 L113 122 C113 87 110 75 105 68 C98 60 82 57 35 53 L35 -1 C79 1 123 1 146 1 C169 1 228 0 271 -1 L271 53 C225 57 210 60 204 68 C198 76 195 89 195 123 L195 363 L298 444 Z " />
<glyph glyph-name="Nacute" unicode="&#x143;" horiz-adv-x="741" d="M293 -1 L293 53 C233 57 217 61 208 71 C201 80 198 95 198 156 C198 187 194 430 193 567 C231 506 272 446 552 20 C563 3 574 -9 596 -9 C627 -9 640 7 640 36 C640 75 639 157 639 201 C639 320 639 433 640 519 C640 582 642 597 650 606 C661 615 673 619 731 623 L731 677 C678 676 635 675 607 675 C585 675 529 676 476 677 L476 623 C537 620 555 613 561 604 C567 593 568 574 570 519 C571 481 572 269 576 148 C537 213 489 288 226 677 C191 675 163 675 146 675 C130 675 51 676 29 677 L29 623 C49 623 76 620 91 617 C109 614 115 607 121 597 C125 590 129 567 129 519 C129 455 127 190 126 157 C124 105 125 83 119 73 C113 63 93 56 30 53 L30 -1 C81 0 140 1 161 1 C190 1 239 0 293 -1 L293 -1 Z M341 717 L483 810 C510 827 525 846 525 863 C525 885 508 903 488 903 C472 903 459 896 433 869 L316 747 L341 717 Z " />
<glyph glyph-name="nacute" unicode="&#x144;" horiz-adv-x="600" d="M263 -1 L263 53 C218 57 206 59 200 67 C193 76 191 89 191 123 L191 357 C227 381 282 394 323 394 C358 394 383 386 396 368 C408 352 410 324 410 289 L410 124 C410 87 408 75 402 68 C396 60 381 57 340 53 L340 -1 C382 0 433 1 456 1 C478 1 531 0 573 -1 L573 53 C517 58 505 63 499 73 C495 80 492 94 492 122 L492 308 C492 378 483 415 461 440 C442 460 407 473 368 473 C303 473 235 445 190 401 C188 459 164 469 138 469 C113 469 74 462 32 438 L32 388 C39 389 52 390 59 390 C74 390 87 388 96 380 C106 372 110 350 110 312 L110 122 C110 87 107 75 102 68 C95 60 79 57 32 53 L32 -1 C76 1 120 1 143 1 C166 1 220 0 263 -1 L263 -1 Z M264 523 L382 640 C404 663 414 677 414 695 C414 716 392 732 374 732 C356 732 345 724 322 688 L235 548 L264 523 Z " />
<glyph glyph-name="Ncommaaccent" unicode="&#x145;" horiz-adv-x="741" d="M293 -1 L293 53 C233 57 217 61 208 71 C201 80 198 95 198 156 C198 187 194 430 193 567 C231 506 272 446 552 20 C563 3 574 -9 596 -9 C627 -9 640 7 640 36 C640 75 639 157 639 201 C639 320 639 433 640 519 C640 582 642 597 650 606 C661 615 673 619 731 623 L731 677 C678 676 635 675 607 675 C585 675 529 676 476 677 L476 623 C537 620 555 613 561 604 C567 593 568 574 570 519 C571 481 572 269 576 148 C537 213 489 288 226 677 C191 675 163 675 146 675 C130 675 51 676 29 677 L29 623 C49 623 76 620 91 617 C109 614 115 607 121 597 C125 590 129 567 129 519 C129 455 127 190 126 157 C124 105 125 83 119 73 C113 63 93 56 30 53 L30 -1 C81 0 140 1 161 1 C190 1 239 0 293 -1 L293 -1 Z M318 -287 C411 -234 441 -178 441 -121 C441 -76 419 -45 376 -45 C344 -45 321 -68 321 -96 C321 -122 334 -135 353 -144 C364 -149 368 -162 368 -173 C368 -194 353 -218 296 -255 L318 -287 Z " />
<glyph glyph-name="ncommaaccent" unicode="&#x146;" horiz-adv-x="600" d="M263 -1 L263 53 C218 57 206 59 200 67 C193 76 191 89 191 123 L191 357 C227 381 282 394 323 394 C358 394 383 386 396 368 C408 352 410 324 410 289 L410 124 C410 87 408 75 402 68 C396 60 381 57 340 53 L340 -1 C382 0 433 1 456 1 C478 1 531 0 573 -1 L573 53 C517 58 505 63 499 73 C495 80 492 94 492 122 L492 308 C492 378 483 415 461 440 C442 460 407 473 368 473 C303 473 235 445 190 401 C188 459 164 469 138 469 C113 469 74 462 32 438 L32 388 C39 389 52 390 59 390 C74 390 87 388 96 380 C106 372 110 350 110 312 L110 122 C110 87 107 75 102 68 C95 60 79 57 32 53 L32 -1 C76 1 120 1 143 1 C166 1 220 0 263 -1 L263 -1 Z M237 -287 C330 -234 360 -178 360 -121 C360 -76 338 -45 295 -45 C263 -45 240 -68 240 -96 C240 -122 253 -135 272 -144 C283 -149 287 -162 287 -173 C287 -194 272 -218 215 -255 L237 -287 Z " />
<glyph glyph-name="Ncaron" unicode="&#x147;" horiz-adv-x="741" d="M293 -1 L293 53 C233 57 217 61 208 71 C201 80 198 95 198 156 C198 187 194 430 193 567 C231 506 272 446 552 20 C563 3 574 -9 596 -9 C627 -9 640 7 640 36 C640 75 639 157 639 201 C639 320 639 433 640 519 C640 582 642 597 650 606 C661 615 673 619 731 623 L731 677 C678 676 635 675 607 675 C585 675 529 676 476 677 L476 623 C537 620 555 613 561 604 C567 593 568 574 570 519 C571 481 572 269 576 148 C537 213 489 288 226 677 C191 675 163 675 146 675 C130 675 51 676 29 677 L29 623 C49 623 76 620 91 617 C109 614 115 607 121 597 C125 590 129 567 129 519 C129 455 127 190 126 157 C124 105 125 83 119 73 C113 63 93 56 30 53 L30 -1 C81 0 140 1 161 1 C190 1 239 0 293 -1 L293 -1 Z M232 872 L340 739 C352 723 364 716 380 716 C393 716 405 724 417 737 L532 873 L505 898 L382 801 L260 898 L232 872 Z " />
<glyph glyph-name="ncaron" unicode="&#x148;" horiz-adv-x="600" d="M263 -1 L263 53 C218 57 206 59 200 67 C193 76 191 89 191 123 L191 357 C227 381 282 394 323 394 C358 394 383 386 396 368 C408 352 410 324 410 289 L410 124 C410 87 408 75 402 68 C396 60 381 57 340 53 L340 -1 C382 0 433 1 456 1 C478 1 531 0 573 -1 L573 53 C517 58 505 63 499 73 C495 80 492 94 492 122 L492 308 C492 378 483 415 461 440 C442 460 407 473 368 473 C303 473 235 445 190 401 C188 459 164 469 138 469 C113 469 74 462 32 438 L32 388 C39 389 52 390 59 390 C74 390 87 388 96 380 C106 372 110 350 110 312 L110 122 C110 87 107 75 102 68 C95 60 79 57 32 53 L32 -1 C76 1 120 1 143 1 C166 1 220 0 263 -1 L263 -1 Z M147 683 L246 531 C257 514 270 510 285 510 C298 510 312 516 322 531 L426 684 L397 707 L287 595 L178 707 L147 683 Z " />
<glyph glyph-name="napostrophe" unicode="&#x149;" horiz-adv-x="600" d="M263 -1 L263 53 C218 57 206 59 200 67 C193 76 191 89 191 123 L191 357 C227 381 282 394 323 394 C358 394 383 386 396 368 C408 352 410 324 410 289 L410 124 C410 87 408 75 402 68 C396 60 381 57 340 53 L340 -1 C382 0 433 1 456 1 C478 1 531 0 573 -1 L573 53 C517 58 505 63 499 73 C495 80 492 94 492 122 L492 308 C492 378 483 415 461 440 C442 460 407 473 368 473 C303 473 235 445 190 401 C188 459 164 469 138 469 C113 469 74 462 32 438 L32 388 C39 389 52 390 59 390 C74 390 87 388 96 380 C106 372 110 350 110 312 L110 122 C110 87 107 75 102 68 C95 60 79 57 32 53 L32 -1 C76 1 120 1 143 1 C166 1 220 0 263 -1 L263 -1 Z M44 506 C137 559 167 615 167 672 C167 717 145 748 102 748 C70 748 47 725 47 697 C47 671 60 658 79 649 C90 644 94 631 94 620 C94 599 79 575 22 538 L44 506 Z " />
<glyph glyph-name="Eng" unicode="&#x14a;" horiz-adv-x="741" d="M290 -1 L290 54 C230 57 215 60 206 70 C199 79 198 95 198 156 C198 185 195 421 194 558 C364 306 470 156 554 22 L554 -6 C554 -40 548 -79 541 -100 C524 -150 471 -188 416 -213 L441 -266 C517 -238 582 -192 611 -133 C633 -88 640 -29 640 63 C640 93 639 214 639 241 C639 360 640 433 640 520 C640 582 642 598 650 606 C660 615 671 620 732 623 L732 677 C679 676 635 675 607 675 C585 675 532 676 479 677 L479 623 C540 621 555 613 561 604 C567 593 568 573 570 520 C571 481 572 298 575 165 C483 305 359 484 227 677 C193 675 163 675 146 675 C130 675 50 676 28 677 L28 623 C48 622 76 621 90 618 C108 613 117 608 122 598 C126 590 128 566 128 519 C128 454 126 190 126 157 C126 105 125 83 120 74 C114 63 94 57 29 54 L29 -1 C81 0 140 1 161 1 C190 1 237 0 290 -1 L290 -1 Z " />
<glyph glyph-name="eng" unicode="&#x14b;" horiz-adv-x="600" d="M263 -1 L263 53 C218 57 206 59 200 67 C193 76 191 89 191 123 L191 357 C227 381 282 394 323 394 C358 394 383 386 396 368 C408 352 410 324 410 289 L410 8 C410 -52 404 -102 392 -130 C376 -167 341 -194 300 -216 L328 -266 C384 -240 438 -204 465 -155 C490 -108 494 -53 494 24 C494 121 494 211 492 308 C491 378 483 416 461 440 C443 461 407 473 368 473 C303 473 235 445 190 401 C188 459 164 469 138 469 C113 469 74 462 32 438 L32 388 C39 389 52 390 59 390 C74 390 87 388 96 380 C106 372 110 350 110 312 L110 122 C110 87 107 75 102 68 C95 60 79 57 32 53 L32 -1 C76 1 120 1 143 1 C166 1 220 0 263 -1 L263 -1 Z " />
<glyph glyph-name="Omacron" unicode="&#x14c;" horiz-adv-x="732" d="M684 349 C684 558 592 691 373 691 C179 691 48 558 48 335 C48 129 151 -14 366 -14 C544 -14 684 102 684 349 L684 349 Z M588 342 C588 159 508 59 368 59 C232 59 144 139 144 349 C144 513 222 619 369 619 C512 619 588 537 588 342 L588 342 Z M508 755 L508 821 L233 821 L233 755 L508 755 Z " />
<glyph glyph-name="omacron" unicode="&#x14d;" horiz-adv-x="547" d="M501 238 C501 382 436 474 281 474 C142 474 46 382 46 228 C46 85 120 -14 274 -14 C401 -14 501 68 501 238 L501 238 Z M417 231 C417 114 365 56 275 56 C188 56 131 105 131 238 C131 345 182 406 277 406 C368 406 417 353 417 231 L417 231 Z M406 558 L406 621 L149 621 L149 558 L406 558 Z " />
<glyph glyph-name="Obreve" unicode="&#x14e;" horiz-adv-x="732" d="M684 349 C684 558 592 691 373 691 C179 691 48 558 48 335 C48 129 151 -14 366 -14 C544 -14 684 102 684 349 L684 349 Z M588 342 C588 159 508 59 368 59 C232 59 144 139 144 349 C144 513 222 619 369 619 C512 619 588 537 588 342 L588 342 Z M478 883 C467 824 432 795 372 795 C310 795 275 829 269 883 L231 879 C231 771 291 730 372 730 C451 730 515 782 516 881 L478 883 Z " />
<glyph glyph-name="obreve" unicode="&#x14f;" horiz-adv-x="547" d="M501 238 C501 382 436 474 281 474 C142 474 46 382 46 228 C46 85 120 -14 274 -14 C401 -14 501 68 501 238 L501 238 Z M417 231 C417 114 365 56 275 56 C188 56 131 105 131 238 C131 345 182 406 277 406 C368 406 417 353 417 231 L417 231 Z M373 682 C361 622 330 595 277 595 C223 595 192 627 185 682 L146 680 C147 568 197 530 277 530 C355 530 411 581 411 681 L373 682 Z " />
<glyph glyph-name="Ohungarumlaut" unicode="&#x150;" horiz-adv-x="732" d="M684 349 C684 558 592 691 373 691 C179 691 48 558 48 335 C48 129 151 -14 366 -14 C544 -14 684 102 684 349 L684 349 Z M588 342 C588 159 508 59 368 59 C232 59 144 139 144 349 C144 513 222 619 369 619 C512 619 588 537 588 342 L588 342 Z M284 717 L401 830 C422 851 436 866 436 883 C436 906 418 919 401 919 C385 919 371 913 349 881 L255 744 L284 717 Z M431 717 L549 830 C571 850 582 866 582 883 C582 906 566 919 549 919 C531 919 518 913 496 881 L402 744 L431 717 Z " />
<glyph glyph-name="ohungarumlaut" unicode="&#x151;" horiz-adv-x="547" d="M501 238 C501 382 436 474 281 474 C142 474 46 382 46 228 C46 85 120 -14 274 -14 C401 -14 501 68 501 238 L501 238 Z M417 231 C417 114 365 56 275 56 C188 56 131 105 131 238 C131 345 182 406 277 406 C368 406 417 353 417 231 L417 231 Z M197 523 L301 646 C320 668 330 683 330 700 C330 723 311 733 294 733 C277 733 265 727 245 689 L166 545 L197 523 Z M338 523 L442 646 C461 668 471 683 471 700 C471 723 452 733 435 733 C418 733 406 727 386 689 L307 545 L338 523 Z " />
<glyph glyph-name="OE" unicode="&#x152;" horiz-adv-x="982" d="M946 179 L896 179 C886 141 873 110 858 95 C842 78 811 68 716 68 C693 68 650 69 624 72 C604 75 596 85 596 114 L596 318 L666 318 C713 318 740 318 751 303 C758 292 765 279 770 241 L816 241 C815 282 815 336 815 352 C815 381 815 433 816 459 L767 459 C765 431 757 410 749 399 C737 385 720 382 667 382 L596 382 L596 607 L708 607 C785 607 808 604 822 593 C833 585 841 566 847 511 L899 511 C903 540 908 600 908 627 C908 656 897 676 845 676 L568 676 C526 676 433 684 380 684 C161 684 48 525 48 329 C48 136 146 -6 366 -6 C433 -6 517 0 564 0 L851 0 C897 0 922 11 928 29 C938 59 945 122 946 179 L946 179 Z M506 155 C506 135 505 106 500 96 C489 74 444 64 376 64 C221 64 145 176 145 340 C145 495 228 613 378 613 C445 613 479 608 493 592 C504 580 506 557 506 517 L506 155 Z " />
<glyph glyph-name="oe" unicode="&#x153;" horiz-adv-x="852" d="M822 64 L791 114 C744 82 702 59 641 59 C538 59 493 128 493 214 L493 226 L755 226 C774 226 789 227 798 236 C809 246 811 272 811 292 C811 386 767 474 632 474 C555 474 492 443 458 379 C427 442 369 474 277 474 C139 474 46 382 46 228 C46 85 116 -14 269 -14 C346 -14 410 17 449 85 C478 26 537 -14 627 -14 C703 -14 767 17 822 64 L822 64 Z M409 231 C409 114 359 56 271 56 C185 56 131 106 131 238 C131 345 181 406 274 406 C365 406 409 352 409 231 L409 231 Z M497 287 C506 368 554 407 618 407 C705 407 729 359 729 298 L729 290 L497 287 Z " />
<glyph glyph-name="Racute" unicode="&#x154;" horiz-adv-x="655" d="M644 0 L644 54 C626 55 611 57 596 64 C580 71 567 81 542 102 C497 140 462 194 393 301 C484 327 544 388 544 495 C544 585 497 650 396 666 C362 672 288 676 224 676 L34 676 L34 623 C93 619 110 614 117 607 C124 600 125 588 125 551 L125 130 C125 82 123 75 115 68 C106 61 83 57 34 54 L34 -1 C80 0 138 1 163 1 C188 1 262 0 307 -1 L307 54 C252 57 231 62 223 72 C217 79 216 88 216 133 L216 289 C234 288 261 287 277 287 L301 287 C374 163 422 87 477 42 C509 16 549 -2 605 -2 C625 -2 638 -1 644 0 L644 0 Z M216 355 L216 608 L263 608 C296 608 348 603 371 596 C417 582 448 547 448 490 C448 377 361 353 269 353 C256 353 231 355 216 355 L216 355 Z M242 717 L384 810 C411 827 426 846 426 863 C426 885 409 903 389 903 C373 903 360 896 334 869 L217 747 L242 717 Z " />
<glyph glyph-name="racute" unicode="&#x155;" horiz-adv-x="400" d="M282 -1 L282 53 C236 56 206 59 200 67 C193 76 191 89 191 123 L191 351 C213 375 246 389 271 389 C295 389 307 383 313 343 L360 343 C365 370 370 401 370 424 C370 463 347 472 316 472 C267 472 216 437 190 398 C188 460 164 469 138 469 C113 469 74 462 32 438 L32 388 C39 389 52 390 59 390 C74 390 87 388 96 380 C106 372 110 350 110 312 L110 122 C110 87 107 74 102 68 C95 60 79 57 32 53 L32 -1 C76 1 120 1 143 1 C166 1 239 0 282 -1 L282 -1 Z M181 523 L299 640 C321 663 331 677 331 695 C331 716 309 732 291 732 C273 732 262 724 239 688 L152 548 L181 523 Z " />
<glyph glyph-name="Rcommaaccent" unicode="&#x156;" horiz-adv-x="655" d="M644 0 L644 54 C626 55 611 57 596 64 C580 71 567 81 542 102 C497 140 462 194 393 301 C484 327 544 388 544 495 C544 585 497 650 396 666 C362 672 288 676 224 676 L34 676 L34 623 C93 619 110 614 117 607 C124 600 125 588 125 551 L125 130 C125 82 123 75 115 68 C106 61 83 57 34 54 L34 -1 C80 0 138 1 163 1 C188 1 262 0 307 -1 L307 54 C252 57 231 62 223 72 C217 79 216 88 216 133 L216 289 C234 288 261 287 277 287 L301 287 C374 163 422 87 477 42 C509 16 549 -2 605 -2 C625 -2 638 -1 644 0 L644 0 Z M216 355 L216 608 L263 608 C296 608 348 603 371 596 C417 582 448 547 448 490 C448 377 361 353 269 353 C256 353 231 355 216 355 L216 355 Z M272 -287 C365 -234 395 -178 395 -121 C395 -76 373 -45 330 -45 C298 -45 275 -68 275 -96 C275 -122 288 -135 307 -144 C318 -149 322 -162 322 -173 C322 -194 307 -218 250 -255 L272 -287 Z " />
<glyph glyph-name="rcommaaccent" unicode="&#x157;" horiz-adv-x="400" d="M282 -1 L282 53 C236 56 206 59 200 67 C193 76 191 89 191 123 L191 351 C213 375 246 389 271 389 C295 389 307 383 313 343 L360 343 C365 370 370 401 370 424 C370 463 347 472 316 472 C267 472 216 437 190 398 C188 460 164 469 138 469 C113 469 74 462 32 438 L32 388 C39 389 52 390 59 390 C74 390 87 388 96 380 C106 372 110 350 110 312 L110 122 C110 87 107 74 102 68 C95 60 79 57 32 53 L32 -1 C76 1 120 1 143 1 C166 1 239 0 282 -1 L282 -1 Z M101 -287 C194 -234 224 -178 224 -121 C224 -76 202 -45 159 -45 C127 -45 104 -68 104 -96 C104 -122 117 -135 136 -144 C147 -149 151 -162 151 -173 C151 -194 136 -218 79 -255 L101 -287 Z " />
<glyph glyph-name="Rcaron" unicode="&#x158;" horiz-adv-x="655" d="M644 0 L644 54 C626 55 611 57 596 64 C580 71 567 81 542 102 C497 140 462 194 393 301 C484 327 544 388 544 495 C544 585 497 650 396 666 C362 672 288 676 224 676 L34 676 L34 623 C93 619 110 614 117 607 C124 600 125 588 125 551 L125 130 C125 82 123 75 115 68 C106 61 83 57 34 54 L34 -1 C80 0 138 1 163 1 C188 1 262 0 307 -1 L307 54 C252 57 231 62 223 72 C217 79 216 88 216 133 L216 289 C234 288 261 287 277 287 L301 287 C374 163 422 87 477 42 C509 16 549 -2 605 -2 C625 -2 638 -1 644 0 L644 0 Z M216 355 L216 608 L263 608 C296 608 348 603 371 596 C417 582 448 547 448 490 C448 377 361 353 269 353 C256 353 231 355 216 355 L216 355 Z M143 872 L251 739 C263 723 275 716 291 716 C304 716 316 724 328 737 L443 873 L416 898 L293 801 L171 898 L143 872 Z " />
<glyph glyph-name="rcaron" unicode="&#x159;" horiz-adv-x="400" d="M282 -1 L282 53 C236 56 206 59 200 67 C193 76 191 89 191 123 L191 351 C213 375 246 389 271 389 C295 389 307 383 313 343 L360 343 C365 370 370 401 370 424 C370 463 347 472 316 472 C267 472 216 437 190 398 C188 460 164 469 138 469 C113 469 74 462 32 438 L32 388 C39 389 52 390 59 390 C74 390 87 388 96 380 C106 372 110 350 110 312 L110 122 C110 87 107 74 102 68 C95 60 79 57 32 53 L32 -1 C76 1 120 1 143 1 C166 1 239 0 282 -1 L282 -1 Z M62 683 L161 531 C172 514 185 510 200 510 C213 510 227 516 237 531 L341 684 L312 707 L202 595 L93 707 L62 683 Z " />
<glyph glyph-name="Sacute" unicode="&#x15a;" horiz-adv-x="563" d="M62 193 C60 167 59 143 59 119 C59 69 68 40 119 15 C154 -2 216 -14 275 -14 C420 -14 518 56 518 184 C518 258 483 317 385 356 L270 402 C186 436 166 468 166 515 C166 569 203 620 300 620 C349 620 386 614 404 599 C419 587 428 566 438 501 L487 501 C491 537 494 576 494 602 C494 635 484 654 459 666 C420 684 366 691 320 691 C149 691 76 605 76 498 C76 430 104 368 207 324 L332 271 C398 243 424 214 424 162 C424 107 380 57 284 57 C223 57 177 72 154 93 C138 108 122 128 112 193 L62 193 Z M262 717 L404 810 C431 827 446 846 446 863 C446 885 429 903 409 903 C393 903 380 896 354 869 L237 747 L262 717 Z " />
<glyph glyph-name="sacute" unicode="&#x15b;" horiz-adv-x="453" d="M53 154 C52 136 50 112 50 80 C50 48 59 19 99 4 C127 -7 173 -14 215 -14 C325 -14 402 37 402 125 C402 176 384 220 299 251 L209 285 C156 305 142 320 142 346 C142 380 163 407 231 407 C260 407 289 402 303 391 C315 383 325 372 330 326 L378 326 C381 349 385 389 385 407 C385 432 374 450 355 458 C324 471 285 474 250 474 C118 474 62 414 62 338 C62 285 84 242 167 210 L258 176 C303 159 319 140 319 112 C319 80 288 54 224 54 C183 54 151 63 134 78 C122 89 107 104 102 154 L53 154 Z M211 523 L329 640 C351 663 361 677 361 695 C361 716 339 732 321 732 C303 732 292 724 269 688 L182 548 L211 523 Z " />
<glyph glyph-name="Scircumflex" unicode="&#x15c;" horiz-adv-x="563" d="M62 193 C60 167 59 143 59 119 C59 69 68 40 119 15 C154 -2 216 -14 275 -14 C420 -14 518 56 518 184 C518 258 483 317 385 356 L270 402 C186 436 166 468 166 515 C166 569 203 620 300 620 C349 620 386 614 404 599 C419 587 428 566 438 501 L487 501 C491 537 494 576 494 602 C494 635 484 654 459 666 C420 684 366 691 320 691 C149 691 76 605 76 498 C76 430 104 368 207 324 L332 271 C398 243 424 214 424 162 C424 107 380 57 284 57 C223 57 177 72 154 93 C138 108 122 128 112 193 L62 193 Z M452 742 L342 875 C330 890 319 897 303 897 C291 897 278 890 266 876 L152 741 L178 715 L300 813 L423 715 L452 742 Z " />
<glyph glyph-name="scircumflex" unicode="&#x15d;" horiz-adv-x="453" d="M53 154 C52 136 50 112 50 80 C50 48 59 19 99 4 C127 -7 173 -14 215 -14 C325 -14 402 37 402 125 C402 176 384 220 299 251 L209 285 C156 305 142 320 142 346 C142 380 163 407 231 407 C260 407 289 402 303 391 C315 383 325 372 330 326 L378 326 C381 349 385 389 385 407 C385 432 374 450 355 458 C324 471 285 474 250 474 C118 474 62 414 62 338 C62 285 84 242 167 210 L258 176 C303 159 319 140 319 112 C319 80 288 54 224 54 C183 54 151 63 134 78 C122 89 107 104 102 154 L53 154 Z M371 534 L272 686 C261 703 248 707 233 707 C221 707 207 701 196 685 L92 533 L122 509 L230 622 L340 509 L371 534 Z " />
<glyph glyph-name="Scedilla" unicode="&#x15e;" horiz-adv-x="563" d="M200 -287 C300 -272 375 -234 375 -157 C375 -118 356 -97 304 -72 C295 -67 286 -60 286 -47 C286 -39 289 -28 295 -13 C429 -7 518 62 518 184 C518 258 483 317 385 356 L270 402 C186 436 166 468 166 515 C166 569 203 620 300 620 C349 620 386 614 404 599 C419 587 428 566 438 501 L487 501 C491 537 494 576 494 602 C494 635 484 654 459 666 C420 684 366 691 320 691 C149 691 76 605 76 498 C76 430 104 368 207 324 L332 271 C398 243 424 214 424 162 C424 107 380 57 284 57 C223 57 177 72 154 93 C138 108 122 128 112 193 L62 193 C60 167 59 143 59 119 C59 69 68 40 119 15 C149 0 200 -11 251 -13 C238 -44 233 -65 233 -80 C233 -95 240 -104 254 -112 C284 -128 300 -144 300 -167 C300 -207 261 -227 190 -242 L200 -287 Z " />
<glyph glyph-name="scedilla" unicode="&#x15f;" horiz-adv-x="453" d="M144 -274 C239 -259 311 -222 311 -150 C311 -114 293 -93 243 -67 C235 -63 226 -58 226 -44 C226 -37 229 -27 234 -13 C334 -7 402 42 402 125 C402 176 384 220 299 251 L209 285 C156 305 142 320 142 346 C142 380 163 407 231 407 C260 407 289 402 303 391 C315 383 325 372 330 326 L378 326 C381 349 385 389 385 407 C385 432 374 450 355 458 C324 471 285 474 250 474 C118 474 62 414 62 338 C62 285 84 242 167 210 L258 176 C303 159 319 140 319 112 C319 80 288 54 224 54 C183 54 151 63 134 78 C122 89 107 104 102 154 L53 154 C52 136 50 112 50 80 C50 48 59 19 99 4 C122 -5 157 -11 192 -13 C180 -43 175 -63 175 -77 C175 -90 182 -99 195 -106 C224 -122 239 -137 239 -159 C239 -197 202 -216 134 -230 L144 -274 Z " />
<glyph glyph-name="Scaron" unicode="&#x160;" horiz-adv-x="563" d="M62 193 C60 167 59 143 59 119 C59 69 68 40 119 15 C154 -2 216 -14 275 -14 C420 -14 518 56 518 184 C518 258 483 317 385 356 L270 402 C186 436 166 468 166 515 C166 569 203 620 300 620 C349 620 386 614 404 599 C419 587 428 566 438 501 L487 501 C491 537 494 576 494 602 C494 635 484 654 459 666 C420 684 366 691 320 691 C149 691 76 605 76 498 C76 430 104 368 207 324 L332 271 C398 243 424 214 424 162 C424 107 380 57 284 57 C223 57 177 72 154 93 C138 108 122 128 112 193 L62 193 Z M151 872 L259 739 C271 723 283 716 299 716 C312 716 324 724 336 737 L451 873 L424 898 L301 801 L179 898 L151 872 Z " />
<glyph glyph-name="scaron" unicode="&#x161;" horiz-adv-x="453" d="M53 154 C52 136 50 112 50 80 C50 48 59 19 99 4 C127 -7 173 -14 215 -14 C325 -14 402 37 402 125 C402 176 384 220 299 251 L209 285 C156 305 142 320 142 346 C142 380 163 407 231 407 C260 407 289 402 303 391 C315 383 325 372 330 326 L378 326 C381 349 385 389 385 407 C385 432 374 450 355 458 C324 471 285 474 250 474 C118 474 62 414 62 338 C62 285 84 242 167 210 L258 176 C303 159 319 140 319 112 C319 80 288 54 224 54 C183 54 151 63 134 78 C122 89 107 104 102 154 L53 154 Z M91 683 L190 531 C201 514 214 510 229 510 C242 510 256 516 266 531 L370 684 L341 707 L231 595 L122 707 L91 683 Z " />
<glyph glyph-name="uni0162" unicode="&#x162;" horiz-adv-x="652" d="M248 -287 C348 -272 423 -234 423 -157 C423 -118 404 -97 352 -72 C343 -67 334 -60 334 -47 C334 -36 340 -21 349 1 C380 1 434 0 468 -1 L468 54 C399 59 385 64 379 74 C374 83 372 98 372 138 L372 609 C503 609 519 606 535 594 C548 584 557 561 563 498 L611 498 C614 540 616 600 616 625 C616 655 605 676 554 676 L97 676 C46 676 37 653 37 622 C37 596 39 540 42 498 L89 498 C96 564 106 586 119 594 C136 606 150 609 282 609 L282 136 C282 97 282 80 276 73 C268 63 256 58 188 54 L188 -1 L305 1 C288 -38 281 -62 281 -80 C281 -95 288 -104 302 -112 C332 -128 348 -144 348 -167 C348 -207 309 -227 238 -242 L248 -287 Z " />
<glyph glyph-name="uni0163" unicode="&#x163;" horiz-adv-x="346" d="M121 -274 C216 -259 288 -222 288 -150 C288 -114 270 -93 220 -67 C212 -63 203 -58 203 -44 C203 -36 206 -26 212 -12 L219 -12 C251 -12 303 -2 342 20 L326 74 C297 63 271 59 250 59 C216 59 197 75 191 110 C187 131 187 178 187 210 L187 386 C222 386 270 387 311 389 L311 448 C263 450 216 450 188 450 L188 554 C188 575 177 584 159 584 C136 584 125 574 121 558 C115 527 112 507 102 480 C97 466 89 455 77 450 C59 442 41 437 24 433 L24 386 L106 386 C106 290 104 186 104 117 C104 41 131 6 172 -6 C158 -40 152 -61 152 -77 C152 -90 159 -99 172 -106 C201 -122 216 -137 216 -159 C216 -197 179 -216 111 -230 L121 -274 Z " />
<glyph glyph-name="Tcaron" unicode="&#x164;" horiz-adv-x="652" d="M468 -1 L468 54 C399 59 385 64 379 74 C374 83 372 98 372 138 L372 609 C503 609 519 606 535 594 C548 584 557 561 563 498 L611 498 C614 540 616 600 616 625 C616 655 605 676 554 676 L97 676 C46 676 37 653 37 622 C37 596 39 540 42 498 L89 498 C96 564 106 586 119 594 C136 606 150 609 282 609 L282 136 C282 97 282 80 276 73 C268 63 256 58 188 54 L188 -1 C229 0 308 1 333 1 C357 1 428 0 468 -1 L468 -1 Z M178 872 L286 739 C298 723 310 716 326 716 C339 716 351 724 363 737 L478 873 L451 898 L328 801 L206 898 L178 872 Z " />
<glyph glyph-name="tcaron" unicode="&#x165;" horiz-adv-x="346" d="M342 20 L326 74 C297 63 271 59 250 59 C216 59 197 75 191 110 C187 131 187 178 187 210 L187 386 C222 386 270 387 311 389 L311 448 C263 450 216 450 188 450 L188 554 C188 575 177 584 159 584 C136 584 125 574 121 558 C115 527 112 507 102 480 C97 466 89 455 77 450 C59 442 41 437 24 433 L24 386 L106 386 C106 290 104 186 104 117 C104 15 154 -12 219 -12 C251 -12 303 -2 342 20 L342 20 Z M245 489 C338 543 368 599 368 655 C368 701 346 731 303 731 C271 731 248 707 248 681 C248 653 261 642 280 632 C291 627 295 613 295 603 C295 583 280 558 223 521 L245 489 Z " />
<glyph glyph-name="Tbar" unicode="&#x166;" horiz-adv-x="652" d="M531 344 L531 401 L372 401 L372 609 C503 609 519 606 535 594 C548 584 557 561 563 498 L611 498 C614 540 616 600 616 625 C616 655 605 676 554 676 L97 676 C46 676 37 653 37 622 C37 596 39 540 42 498 L89 498 C96 564 106 586 119 594 C136 606 150 609 282 609 L282 401 L127 401 L127 344 L282 344 L282 136 C282 97 282 80 276 73 C268 63 256 58 188 54 L188 -1 C229 0 308 1 333 1 C357 1 428 0 468 -1 L468 54 C399 59 385 64 379 74 C374 83 372 98 372 138 L372 344 L531 344 Z " />
<glyph glyph-name="tbar" unicode="&#x167;" horiz-adv-x="346" d="M302 250 L302 299 L187 299 L187 386 C222 386 270 387 311 389 L311 448 C263 450 216 450 188 450 L188 554 C188 575 177 584 159 584 C136 584 125 574 121 558 C115 527 112 507 102 480 C97 466 89 457 77 451 C59 442 41 437 24 433 L24 386 L106 386 L106 299 L31 299 L31 250 L105 250 C105 200 104 153 104 117 C104 15 154 -12 219 -12 C251 -12 303 -2 342 20 L326 75 C298 63 271 59 250 59 C216 59 197 75 191 110 C187 131 187 178 187 210 L187 250 L302 250 Z " />
<glyph glyph-name="Utilde" unicode="&#x168;" horiz-adv-x="760" d="M735 623 L735 677 C701 677 634 676 611 676 C587 676 519 676 482 677 L482 623 C529 619 552 616 563 608 C572 602 573 589 575 545 C578 465 579 347 579 319 C579 230 573 165 546 121 C523 82 460 59 391 59 C303 59 246 85 224 142 C210 179 207 240 207 310 C207 402 207 487 208 552 C209 582 211 598 217 605 C224 614 238 620 304 623 L304 677 C265 676 187 675 161 675 C131 675 65 676 25 677 L25 623 C84 620 105 614 112 602 C116 594 118 581 118 547 C118 493 116 394 116 306 C116 168 127 121 153 78 C187 22 266 -15 373 -15 C466 -15 546 9 590 63 C629 110 644 175 644 300 L644 537 C644 570 645 591 649 601 C654 611 671 619 735 623 L735 623 Z M272 733 C291 768 301 783 324 783 C332 783 347 779 367 772 L396 761 C426 748 444 743 463 743 C499 743 527 782 545 853 L508 866 C492 831 477 812 460 812 C448 812 431 818 414 826 L383 839 C364 847 346 854 326 854 C280 854 251 801 237 745 L272 733 Z " />
<glyph glyph-name="utilde" unicode="&#x169;" horiz-adv-x="586" d="M403 56 C409 7 441 -8 473 -8 C503 -8 534 -3 561 8 L561 62 C549 59 534 58 524 58 C491 58 481 70 481 122 C481 209 483 370 483 396 C483 456 463 469 432 469 C405 469 358 462 317 438 L317 388 C325 389 340 390 346 390 C362 390 378 387 386 380 C396 371 400 350 400 312 L400 105 C366 81 317 63 271 63 C203 63 179 93 179 165 C179 234 181 368 181 399 C181 457 161 469 128 469 C103 469 62 462 20 438 L20 388 C26 388 40 390 48 390 C63 390 75 388 84 380 C94 372 98 350 98 312 L98 156 C98 93 107 61 127 33 C149 4 191 -13 237 -13 C305 -13 362 14 403 56 L403 56 Z M172 531 C189 567 200 582 222 582 C230 582 247 580 265 571 L290 559 C320 547 337 541 354 541 C387 541 418 580 435 653 L399 664 C383 630 369 612 351 612 C341 612 324 617 307 625 L280 638 C263 646 245 653 224 653 C180 653 152 599 137 543 L172 531 Z " />
<glyph glyph-name="Umacron" unicode="&#x16a;" horiz-adv-x="760" d="M735 623 L735 677 C701 677 634 676 611 676 C587 676 519 676 482 677 L482 623 C529 619 552 616 563 608 C572 602 573 589 575 545 C578 465 579 347 579 319 C579 230 573 165 546 121 C523 82 460 59 391 59 C303 59 246 85 224 142 C210 179 207 240 207 310 C207 402 207 487 208 552 C209 582 211 598 217 605 C224 614 238 620 304 623 L304 677 C265 676 187 675 161 675 C131 675 65 676 25 677 L25 623 C84 620 105 614 112 602 C116 594 118 581 118 547 C118 493 116 394 116 306 C116 168 127 121 153 78 C187 22 266 -15 373 -15 C466 -15 546 9 590 63 C629 110 644 175 644 300 L644 537 C644 570 645 591 649 601 C654 611 671 619 735 623 L735 623 Z M521 755 L521 821 L246 821 L246 755 L521 755 Z " />
<glyph glyph-name="umacron" unicode="&#x16b;" horiz-adv-x="586" d="M403 56 C409 7 441 -8 473 -8 C503 -8 534 -3 561 8 L561 62 C549 59 534 58 524 58 C491 58 481 70 481 122 C481 209 483 370 483 396 C483 456 463 469 432 469 C405 469 358 462 317 438 L317 388 C325 389 340 390 346 390 C362 390 378 387 386 380 C396 371 400 350 400 312 L400 105 C366 81 317 63 271 63 C203 63 179 93 179 165 C179 234 181 368 181 399 C181 457 161 469 128 469 C103 469 62 462 20 438 L20 388 C26 388 40 390 48 390 C63 390 75 388 84 380 C94 372 98 350 98 312 L98 156 C98 93 107 61 127 33 C149 4 191 -13 237 -13 C305 -13 362 14 403 56 L403 56 Z M411 558 L411 621 L154 621 L154 558 L411 558 Z " />
<glyph glyph-name="Ubreve" unicode="&#x16c;" horiz-adv-x="760" d="M735 623 L735 677 C701 677 634 676 611 676 C587 676 519 676 482 677 L482 623 C529 619 552 616 563 608 C572 602 573 589 575 545 C578 465 579 347 579 319 C579 230 573 165 546 121 C523 82 460 59 391 59 C303 59 246 85 224 142 C210 179 207 240 207 310 C207 402 207 487 208 552 C209 582 211 598 217 605 C224 614 238 620 304 623 L304 677 C265 676 187 675 161 675 C131 675 65 676 25 677 L25 623 C84 620 105 614 112 602 C116 594 118 581 118 547 C118 493 116 394 116 306 C116 168 127 121 153 78 C187 22 266 -15 373 -15 C466 -15 546 9 590 63 C629 110 644 175 644 300 L644 537 C644 570 645 591 649 601 C654 611 671 619 735 623 L735 623 Z M488 883 C477 824 442 795 382 795 C320 795 285 829 279 883 L241 879 C241 771 301 730 382 730 C461 730 525 782 526 881 L488 883 Z " />
<glyph glyph-name="ubreve" unicode="&#x16d;" horiz-adv-x="586" d="M403 56 C409 7 441 -8 473 -8 C503 -8 534 -3 561 8 L561 62 C549 59 534 58 524 58 C491 58 481 70 481 122 C481 209 483 370 483 396 C483 456 463 469 432 469 C405 469 358 462 317 438 L317 388 C325 389 340 390 346 390 C362 390 378 387 386 380 C396 371 400 350 400 312 L400 105 C366 81 317 63 271 63 C203 63 179 93 179 165 C179 234 181 368 181 399 C181 457 161 469 128 469 C103 469 62 462 20 438 L20 388 C26 388 40 390 48 390 C63 390 75 388 84 380 C94 372 98 350 98 312 L98 156 C98 93 107 61 127 33 C149 4 191 -13 237 -13 C305 -13 362 14 403 56 L403 56 Z M373 682 C361 622 330 595 277 595 C223 595 192 627 185 682 L146 680 C147 568 197 530 277 530 C355 530 411 581 411 681 L373 682 Z " />
<glyph glyph-name="Uring" unicode="&#x16e;" horiz-adv-x="760" d="M735 623 L735 677 C701 677 634 676 611 676 C587 676 519 676 482 677 L482 623 C529 619 552 616 563 608 C572 602 573 589 575 545 C578 465 579 347 579 319 C579 230 573 165 546 121 C523 82 460 59 391 59 C303 59 246 85 224 142 C210 179 207 240 207 310 C207 402 207 487 208 552 C209 582 211 598 217 605 C224 614 238 620 304 623 L304 677 C265 676 187 675 161 675 C131 675 65 676 25 677 L25 623 C84 620 105 614 112 602 C116 594 118 581 118 547 C118 493 116 394 116 306 C116 168 127 121 153 78 C187 22 266 -15 373 -15 C466 -15 546 9 590 63 C629 110 644 175 644 300 L644 537 C644 570 645 591 649 601 C654 611 671 619 735 623 L735 623 Z M482 802 C482 855 444 892 389 892 C339 892 296 853 296 800 C296 744 338 708 388 708 C440 708 482 747 482 802 L482 802 Z M440 802 C440 765 418 746 388 746 C358 746 337 767 337 802 C337 837 361 855 388 855 C416 855 440 838 440 802 L440 802 Z " />
<glyph glyph-name="uring" unicode="&#x16f;" horiz-adv-x="586" d="M403 56 C409 7 441 -8 473 -8 C503 -8 534 -3 561 8 L561 62 C549 59 534 58 524 58 C491 58 481 70 481 122 C481 209 483 370 483 396 C483 456 463 469 432 469 C405 469 358 462 317 438 L317 388 C325 389 340 390 346 390 C362 390 378 387 386 380 C396 371 400 350 400 312 L400 105 C366 81 317 63 271 63 C203 63 179 93 179 165 C179 234 181 368 181 399 C181 457 161 469 128 469 C103 469 62 462 20 438 L20 388 C26 388 40 390 48 390 C63 390 75 388 84 380 C94 372 98 350 98 312 L98 156 C98 93 107 61 127 33 C149 4 191 -13 237 -13 C305 -13 362 14 403 56 L403 56 Z M373 615 C373 671 335 707 280 707 C230 707 187 669 187 613 C187 558 229 523 279 523 C331 523 373 561 373 615 L373 615 Z M331 615 C331 581 309 561 279 561 C249 561 228 583 228 615 C228 651 252 670 279 670 C307 670 331 652 331 615 L331 615 Z " />
<glyph glyph-name="Uhungarumlaut" unicode="&#x170;" horiz-adv-x="760" d="M735 623 L735 677 C701 677 634 676 611 676 C587 676 519 676 482 677 L482 623 C529 619 552 616 563 608 C572 602 573 589 575 545 C578 465 579 347 579 319 C579 230 573 165 546 121 C523 82 460 59 391 59 C303 59 246 85 224 142 C210 179 207 240 207 310 C207 402 207 487 208 552 C209 582 211 598 217 605 C224 614 238 620 304 623 L304 677 C265 676 187 675 161 675 C131 675 65 676 25 677 L25 623 C84 620 105 614 112 602 C116 594 118 581 118 547 C118 493 116 394 116 306 C116 168 127 121 153 78 C187 22 266 -15 373 -15 C466 -15 546 9 590 63 C629 110 644 175 644 300 L644 537 C644 570 645 591 649 601 C654 611 671 619 735 623 L735 623 Z M288 717 L405 830 C426 851 440 866 440 883 C440 906 422 919 405 919 C389 919 375 913 353 881 L259 744 L288 717 Z M435 717 L553 830 C575 850 586 866 586 883 C586 906 570 919 553 919 C535 919 522 913 500 881 L406 744 L435 717 Z " />
<glyph glyph-name="uhungarumlaut" unicode="&#x171;" horiz-adv-x="586" d="M403 56 C409 7 441 -8 473 -8 C503 -8 534 -3 561 8 L561 62 C549 59 534 58 524 58 C491 58 481 70 481 122 C481 209 483 370 483 396 C483 456 463 469 432 469 C405 469 358 462 317 438 L317 388 C325 389 340 390 346 390 C362 390 378 387 386 380 C396 371 400 350 400 312 L400 105 C366 81 317 63 271 63 C203 63 179 93 179 165 C179 234 181 368 181 399 C181 457 161 469 128 469 C103 469 62 462 20 438 L20 388 C26 388 40 390 48 390 C63 390 75 388 84 380 C94 372 98 350 98 312 L98 156 C98 93 107 61 127 33 C149 4 191 -13 237 -13 C305 -13 362 14 403 56 L403 56 Z M191 523 L295 646 C314 668 324 683 324 700 C324 723 305 733 288 733 C271 733 259 727 239 689 L160 545 L191 523 Z M332 523 L436 646 C455 668 465 683 465 700 C465 723 446 733 429 733 C412 733 400 727 380 689 L301 545 L332 523 Z " />
<glyph glyph-name="Uogonek" unicode="&#x172;" horiz-adv-x="760" d="M735 623 L735 677 C701 677 634 676 611 676 C587 676 519 676 482 677 L482 623 C529 619 552 616 563 608 C572 602 573 589 575 545 C578 465 579 347 579 319 C579 230 573 165 546 121 C523 82 460 59 391 59 C303 59 246 85 224 142 C210 179 207 240 207 310 C207 402 207 487 208 552 C209 582 211 598 217 605 C224 614 238 620 304 623 L304 677 C265 676 187 675 161 675 C131 675 65 676 25 677 L25 623 C84 620 105 614 112 602 C116 594 118 581 118 547 C118 493 116 394 116 306 C116 168 127 121 153 78 C186 24 261 -12 362 -15 C301 -73 270 -122 270 -178 C270 -230 299 -278 370 -278 C410 -278 453 -258 478 -240 L463 -204 C445 -213 413 -219 393 -219 C356 -219 337 -196 337 -160 C337 -119 361 -74 416 -13 C490 -7 553 17 590 63 C629 110 644 175 644 300 L644 537 C644 570 645 591 649 601 C654 611 671 619 735 623 L735 623 Z " />
<glyph glyph-name="uogonek" unicode="&#x173;" horiz-adv-x="586" d="M403 56 C407 18 427 0 450 -5 C383 -66 350 -115 350 -171 C350 -222 380 -268 448 -268 C487 -268 529 -248 553 -231 L538 -197 C521 -204 490 -211 470 -211 C434 -211 416 -188 416 -155 C416 -113 441 -68 497 -7 C519 -5 541 0 561 8 L561 62 C549 59 534 58 524 58 C491 58 481 70 481 122 C481 209 483 370 483 396 C483 456 463 469 432 469 C405 469 358 462 317 438 L317 388 C325 389 340 390 346 390 C362 390 378 387 386 380 C396 371 400 350 400 312 L400 105 C366 81 317 63 271 63 C203 63 179 93 179 165 C179 234 181 368 181 399 C181 457 161 469 128 469 C103 469 62 462 20 438 L20 388 C26 388 40 390 48 390 C63 390 75 388 84 380 C94 372 98 350 98 312 L98 156 C98 93 107 61 127 33 C149 4 191 -13 237 -13 C305 -13 362 14 403 56 L403 56 Z " />
<glyph glyph-name="Wcircumflex" unicode="&#x174;" horiz-adv-x="991" d="M975 623 L975 677 C938 676 879 675 857 675 C828 675 769 676 720 677 L720 623 C811 620 815 608 815 583 C815 573 812 551 807 529 C748 283 728 195 711 112 C690 196 666 278 561 636 C551 669 540 679 510 679 C481 679 466 660 458 634 C350 285 327 201 303 113 C286 195 267 277 205 537 C202 551 198 572 198 584 C198 608 206 622 290 623 L290 677 C270 676 186 675 155 675 C127 675 82 676 19 677 L19 623 C48 622 64 618 76 612 C92 604 100 579 108 546 L236 26 C244 -6 262 -16 289 -16 C317 -16 335 -2 344 29 C451 371 476 464 498 550 C520 465 546 368 646 26 C655 -6 672 -16 700 -16 C728 -16 746 -2 754 29 L885 539 C892 568 898 594 912 606 C925 618 945 621 975 623 L975 623 Z M658 742 L548 875 C536 890 525 897 509 897 C497 897 484 890 472 876 L358 741 L384 715 L506 813 L629 715 L658 742 Z " />
<glyph glyph-name="wcircumflex" unicode="&#x175;" horiz-adv-x="775" d="M765 407 L765 461 C727 459 690 459 671 459 C648 459 599 459 559 461 L559 407 C587 406 603 405 616 401 C624 399 632 391 632 380 C632 371 630 355 625 338 C604 264 577 176 556 98 C529 183 495 281 444 430 C437 451 428 463 404 463 C376 463 365 447 359 430 C304 281 270 184 242 98 C222 177 197 257 174 338 C171 350 166 371 166 380 C166 394 176 401 191 403 C206 405 224 407 240 407 L240 461 C190 459 149 459 125 459 C104 459 56 459 12 461 L12 407 C42 406 55 403 64 391 C72 382 80 357 84 344 L183 19 C191 -6 207 -13 229 -13 C247 -13 263 -5 271 18 C338 198 365 271 391 345 C413 274 439 200 501 18 C509 -5 525 -13 546 -13 C565 -13 582 -5 589 18 L690 341 C701 376 707 389 719 397 C729 403 742 406 765 407 L765 407 Z M539 534 L440 686 C429 703 416 707 401 707 C389 707 375 701 364 685 L260 533 L290 509 L398 622 L508 509 L539 534 Z " />
<glyph glyph-name="Ycircumflex" unicode="&#x176;" horiz-adv-x="625" d="M450 -1 L450 54 C380 57 366 61 360 73 C357 79 356 96 356 121 L356 276 L525 544 C542 572 561 599 572 608 C583 616 599 622 620 623 L620 677 C578 675 546 675 525 675 C492 675 440 675 392 677 L392 623 C457 622 470 615 470 600 C470 586 462 571 450 551 C407 479 366 408 326 338 C287 406 246 478 206 546 C195 566 185 584 185 596 C185 611 191 621 264 623 L264 677 C213 676 159 675 130 675 C104 675 62 676 5 677 L5 623 C31 621 43 618 57 609 C70 601 79 584 104 543 L265 275 L265 121 C265 93 264 78 259 70 C252 60 244 57 175 54 L175 -1 C224 0 290 1 316 1 C339 1 397 0 450 -1 L450 -1 Z M477 742 L367 875 C355 890 344 897 328 897 C316 897 303 890 291 876 L177 741 L203 715 L325 813 L448 715 L477 742 Z " />
<glyph glyph-name="ycircumflex" unicode="&#x177;" d="M41 -148 C37 -167 35 -185 35 -208 C35 -236 47 -256 68 -265 C83 -271 100 -274 121 -274 C175 -274 218 -253 251 -188 C275 -141 295 -89 329 3 L447 322 C464 366 471 384 484 395 C493 402 507 406 528 407 L528 461 C498 460 448 459 430 459 C408 459 358 460 326 461 L326 407 C343 406 364 404 379 401 C387 399 394 392 394 382 C394 367 390 345 379 313 C349 229 321 146 292 65 C257 154 217 244 179 331 C170 351 165 365 165 377 C165 389 170 399 188 402 C202 404 216 406 231 407 L231 461 C198 460 154 459 131 459 C107 459 38 460 5 461 L5 407 C24 405 41 403 50 396 C63 386 73 366 85 339 L220 32 C229 12 241 -1 261 -1 C230 -83 208 -134 191 -163 C176 -191 157 -205 135 -205 C123 -205 113 -202 107 -198 C97 -189 94 -176 89 -148 L41 -148 Z M412 534 L313 686 C302 703 289 707 274 707 C262 707 248 701 237 685 L133 533 L163 509 L271 622 L381 509 L412 534 Z " />
<glyph glyph-name="Ydieresis" unicode="&#x178;" horiz-adv-x="625" d="M450 -1 L450 54 C380 57 366 61 360 73 C357 79 356 96 356 121 L356 276 L525 544 C542 572 561 599 572 608 C583 616 599 622 620 623 L620 677 C578 675 546 675 525 675 C492 675 440 675 392 677 L392 623 C457 622 470 615 470 600 C470 586 462 571 450 551 C407 479 366 408 326 338 C287 406 246 478 206 546 C195 566 185 584 185 596 C185 611 191 621 264 623 L264 677 C213 676 159 675 130 675 C104 675 62 676 5 677 L5 623 C31 621 43 618 57 609 C70 601 79 584 104 543 L265 275 L265 121 C265 93 264 78 259 70 C252 60 244 57 175 54 L175 -1 C224 0 290 1 316 1 C339 1 397 0 450 -1 L450 -1 Z M230 743 C261 743 281 767 281 795 C281 824 262 846 231 846 C201 846 181 824 181 795 C181 765 202 743 230 743 L230 743 Z M405 743 C436 743 456 767 456 795 C456 824 436 846 407 846 C376 846 355 824 355 795 C355 765 377 743 405 743 L405 743 Z " />
<glyph glyph-name="Zacute" unicode="&#x179;" horiz-adv-x="620" d="M290 717 L432 810 C459 827 474 846 474 863 C474 885 457 903 437 903 C421 903 408 896 382 869 L265 747 L290 717 Z M582 183 L527 183 C515 138 501 106 482 90 C463 75 442 68 307 68 C267 68 199 68 163 70 L565 645 L565 676 L126 676 C78 676 60 657 60 627 C60 599 62 565 67 508 L122 508 C129 573 139 589 159 598 C177 606 197 607 430 607 L32 32 L32 0 L504 0 C543 0 565 16 569 40 C575 74 580 129 582 183 L582 183 Z " />
<glyph glyph-name="zacute" unicode="&#x17a;" horiz-adv-x="487" d="M26 0 L394 0 C438 0 450 17 452 41 C456 77 458 130 459 157 L411 157 C403 127 398 113 391 98 C383 83 371 70 358 66 C341 60 297 56 235 56 C208 56 180 56 145 58 L440 425 L440 460 L96 460 C55 460 47 438 47 408 C47 378 50 344 53 318 L105 318 C109 348 112 366 120 380 C127 393 138 397 157 399 C185 402 252 403 322 403 L26 31 L26 0 Z M224 524 L342 640 C365 662 374 677 374 695 C374 716 352 732 334 732 C316 732 305 724 282 688 L195 548 L224 524 Z " />
<glyph glyph-name="Zdotaccent" unicode="&#x17b;" horiz-adv-x="620" d="M316 743 C348 743 368 767 368 795 C368 824 349 846 318 846 C288 846 268 824 268 795 C268 765 289 743 316 743 L316 743 Z M582 183 L527 183 C515 138 501 106 482 90 C463 75 442 68 307 68 C267 68 199 68 163 70 L565 645 L565 676 L126 676 C78 676 60 657 60 627 C60 599 62 565 67 508 L122 508 C129 573 139 589 159 598 C177 606 197 607 430 607 L32 32 L32 0 L504 0 C543 0 565 16 569 40 C575 74 580 129 582 183 L582 183 Z " />
<glyph glyph-name="zdotaccent" unicode="&#x17c;" horiz-adv-x="487" d="M26 0 L394 0 C438 0 450 17 452 41 C456 77 458 130 459 157 L411 157 C403 127 398 113 391 98 C383 83 371 70 358 66 C341 60 297 56 235 56 C208 56 180 56 145 58 L440 425 L440 460 L96 460 C55 460 47 438 47 408 C47 378 50 344 53 318 L105 318 C109 348 112 366 120 380 C127 393 138 397 157 399 C185 402 252 403 322 403 L26 31 L26 0 Z M247 568 C279 568 299 591 299 621 C299 649 280 671 249 671 C219 671 199 649 199 621 C199 590 220 568 247 568 L247 568 Z " />
<glyph glyph-name="Zcaron" unicode="&#x17d;" horiz-adv-x="620" d="M161 872 L269 739 C281 723 293 716 309 716 C322 716 334 724 346 737 L461 873 L434 898 L311 801 L189 898 L161 872 Z M582 183 L527 183 C515 138 501 106 482 90 C463 75 442 68 307 68 C267 68 199 68 163 70 L565 645 L565 676 L126 676 C78 676 60 657 60 627 C60 599 62 565 67 508 L122 508 C129 573 139 589 159 598 C177 606 197 607 430 607 L32 32 L32 0 L504 0 C543 0 565 16 569 40 C575 74 580 129 582 183 L582 183 Z " />
<glyph glyph-name="zcaron" unicode="&#x17e;" horiz-adv-x="467" d="M15 0 L383 0 C427 0 439 17 441 41 C445 77 447 130 448 157 L400 157 C392 127 387 113 380 98 C372 83 360 70 347 66 C330 60 286 56 224 56 C197 56 169 56 134 58 L429 425 L429 460 L85 460 C44 460 36 438 36 408 C36 378 39 344 42 318 L94 318 C98 348 101 366 109 380 C116 393 127 397 146 399 C174 402 241 403 311 403 L15 31 L15 0 Z M98 683 L197 531 C208 514 221 510 236 510 C249 510 263 516 273 531 L377 684 L348 707 L238 595 L129 707 L98 683 Z " />
<glyph glyph-name="longs" unicode="&#x17f;" horiz-adv-x="309" d="M289 0 L289 53 C220 56 207 60 200 69 C194 79 191 96 191 134 L191 495 C191 566 202 599 214 620 C229 649 256 664 289 664 C306 664 321 661 331 655 C344 647 351 630 356 586 L406 586 C409 611 413 648 413 670 C413 695 405 711 383 720 C359 728 333 731 306 731 C258 731 213 716 178 688 C136 653 114 599 108 518 C106 477 99 465 82 453 C63 442 41 436 27 433 L27 386 L110 386 L110 119 C110 98 109 78 103 69 C96 60 80 56 32 53 L32 0 C78 1 140 2 162 2 C187 2 243 1 289 0 L289 0 Z " />
<glyph glyph-name="florin" unicode="&#x192;" horiz-adv-x="541" d="M-44 -41 C-48 -66 -52 -96 -52 -116 C-52 -145 -39 -161 -17 -171 C9 -183 34 -186 64 -186 C137 -186 191 -151 223 -81 C239 -44 251 17 258 95 L278 323 L409 323 L409 383 L283 383 L285 404 C292 472 302 518 315 546 C334 586 366 599 396 599 C419 599 443 595 456 584 C466 576 470 554 473 518 L525 518 C529 543 532 578 532 598 C532 628 521 644 498 653 C469 664 436 670 404 670 C325 670 262 633 229 562 C213 526 201 473 194 383 L90 383 L90 323 L187 323 L173 136 C167 58 157 -18 144 -52 C130 -89 107 -116 64 -116 C50 -116 35 -114 23 -104 C14 -96 7 -78 4 -41 L-44 -41 Z " />
<glyph glyph-name="Aringacute" unicode="&#x1fa;" horiz-adv-x="713" d="M447 747 C447 798 411 832 360 832 C313 832 271 796 271 745 C271 710 289 684 315 671 C310 664 306 656 303 647 L116 151 C95 95 89 80 76 70 C66 62 44 56 6 54 L6 -1 C39 0 106 1 125 1 C146 1 232 0 267 -1 L267 54 C242 56 201 60 188 65 C178 69 175 78 175 87 C175 103 181 125 190 151 L223 238 L468 238 L503 145 C513 117 517 96 517 85 C517 73 511 65 494 61 C483 58 448 55 426 54 L426 -1 C465 0 554 1 576 1 C601 1 670 0 707 -1 L707 54 C675 55 652 60 644 67 C630 78 621 93 606 135 L414 649 C410 659 407 665 403 671 C429 685 447 712 447 747 L447 747 Z M243 305 C252 333 340 570 344 584 C347 570 437 332 445 305 L243 305 Z M331 849 L443 918 C466 933 481 945 481 964 C481 983 464 999 447 999 C433 999 422 992 400 970 L309 875 L331 849 Z M406 747 C406 715 386 697 359 697 C331 697 312 718 312 747 C312 780 334 796 359 796 C385 796 406 780 406 747 L406 747 Z " />
<glyph glyph-name="aringacute" unicode="&#x1fb;" horiz-adv-x="515" d="M493 8 L493 62 C480 59 466 58 454 58 C424 58 411 70 411 124 C411 136 412 302 412 324 C412 378 405 409 384 433 C363 458 322 474 247 474 C206 474 161 465 129 454 C98 443 80 426 80 394 C80 370 85 340 89 319 L140 319 C142 359 148 380 160 390 C176 402 201 409 234 409 C268 409 304 401 318 379 C326 367 331 349 331 302 L331 257 C316 259 285 259 271 259 C93 259 45 202 45 126 C45 31 123 -11 200 -11 C254 -11 305 9 342 49 C351 3 382 -8 414 -8 C439 -8 471 -2 493 8 L493 8 Z M332 93 C308 74 265 55 219 55 C176 55 130 75 130 133 C130 171 158 202 269 202 C284 202 316 202 332 200 L332 93 Z M341 615 C341 671 303 707 248 707 C199 707 156 669 156 613 C156 558 197 523 247 523 C299 523 341 561 341 615 L341 615 Z M300 615 C300 581 278 561 247 561 C217 561 196 583 196 615 C196 651 220 670 247 670 C276 670 300 652 300 615 L300 615 Z M232 734 L343 844 C365 866 375 881 375 898 C375 919 353 935 336 935 C318 935 306 927 283 891 L202 760 L232 734 Z " />
<glyph glyph-name="AEacute" unicode="&#x1fc;" horiz-adv-x="997" d="M291 -1 L291 54 C260 55 239 56 225 59 C207 63 199 75 199 84 C199 104 209 122 224 144 L290 244 L523 244 L523 142 C523 114 523 96 521 84 C519 74 512 67 502 63 C488 58 463 56 434 54 L434 0 L866 0 C910 0 938 9 945 29 C956 59 960 122 962 179 L913 179 C902 141 890 110 874 95 C857 79 828 68 732 68 C709 68 666 69 640 72 C620 75 612 85 612 114 L612 318 L682 318 C730 318 755 318 767 303 C775 292 781 279 786 241 L833 241 C832 282 832 336 832 352 C832 381 832 433 833 459 L784 459 C781 431 774 410 765 399 C753 385 736 382 684 382 L612 382 L612 607 L724 607 C801 607 824 604 838 593 C849 585 857 566 864 511 L915 511 C918 540 925 600 925 627 C925 656 912 676 862 676 L326 676 L326 623 C357 622 381 621 399 618 C416 615 423 608 423 598 C423 588 417 569 402 546 L139 143 C120 113 103 89 81 70 C68 60 43 56 6 54 L6 -1 C53 0 120 1 144 1 C167 1 242 0 291 -1 L291 -1 Z M328 310 C417 449 472 535 503 588 C508 598 511 603 517 603 C520 603 523 601 523 591 L523 310 L328 310 Z M599 717 L741 810 C768 827 783 846 783 863 C783 885 766 903 746 903 C730 903 717 896 691 869 L574 747 L599 717 Z " />
<glyph glyph-name="aeacute" unicode="&#x1fd;" horiz-adv-x="771" d="M740 64 L709 114 C660 82 619 59 558 59 C452 59 406 127 406 204 L406 214 L674 214 C693 214 708 215 716 223 C728 234 730 259 730 278 C730 371 685 474 549 474 C482 474 423 448 388 398 C369 456 317 474 243 474 C200 474 160 465 129 454 C98 443 79 426 79 394 C79 370 84 341 88 320 L140 320 C142 357 148 378 160 388 C176 401 201 407 234 407 C267 407 299 398 313 377 C321 365 327 349 327 302 L327 272 L285 272 C100 272 45 214 45 133 C45 31 126 -12 204 -12 C283 -12 339 22 379 59 C414 15 465 -14 546 -14 C623 -14 684 17 740 64 L740 64 Z M329 213 C329 170 338 128 352 103 C318 77 279 55 223 55 C179 55 130 75 130 137 C130 183 162 213 279 213 L329 213 Z M410 275 C416 369 472 406 535 406 C623 406 648 349 648 285 L648 278 L410 275 Z M388 523 L506 640 C528 663 538 677 538 695 C538 716 516 732 498 732 C480 732 469 724 446 688 L359 548 L388 523 Z " />
<glyph glyph-name="Oslashacute" unicode="&#x1fe;" horiz-adv-x="732" d="M125 -42 L180 35 C228 3 290 -14 366 -14 C544 -14 684 102 684 349 C684 465 655 558 592 617 L647 695 L603 726 L549 650 C503 677 445 691 373 691 C179 691 48 558 48 335 C48 224 78 131 139 69 L81 -12 L125 -42 Z M588 342 C588 159 508 58 368 58 C312 58 264 72 227 102 L540 543 C571 498 588 432 588 342 L588 342 Z M144 349 C144 513 222 620 369 620 C423 620 467 608 502 583 L191 143 C161 190 144 257 144 349 L144 349 Z M330 717 L472 810 C499 827 514 846 514 863 C514 885 497 903 477 903 C461 903 448 896 422 869 L305 747 L330 717 Z " />
<glyph glyph-name="oslashacute" unicode="&#x1ff;" horiz-adv-x="547" d="M107 -45 L149 15 C183 -4 224 -14 274 -14 C401 -14 501 68 501 238 C501 317 481 381 438 422 L483 485 L443 513 L398 449 C367 465 328 474 281 474 C142 474 46 382 46 228 C46 151 67 86 111 43 L68 -18 L107 -45 Z M417 231 C417 114 365 57 275 57 C244 57 216 63 194 77 L389 352 C407 324 417 284 417 231 L417 231 Z M131 238 C131 345 183 404 277 404 C307 404 333 398 353 386 L160 112 C141 140 131 181 131 238 L131 238 Z M260 523 L378 640 C400 663 410 677 410 695 C410 716 388 732 370 732 C352 732 341 724 318 688 L231 548 L260 523 Z " />
<glyph glyph-name="uni0218" unicode="&#x218;" horiz-adv-x="563" d="M62 193 C60 167 59 143 59 119 C59 69 68 40 119 15 C154 -2 216 -14 275 -14 C420 -14 518 56 518 184 C518 258 483 317 385 356 L270 402 C186 436 166 468 166 515 C166 569 203 620 300 620 C349 620 386 614 404 599 C419 587 428 566 438 501 L487 501 C491 537 494 576 494 602 C494 635 484 654 459 666 C420 684 366 691 320 691 C149 691 76 605 76 498 C76 430 104 368 207 324 L332 271 C398 243 424 214 424 162 C424 107 380 57 284 57 C223 57 177 72 154 93 C138 108 122 128 112 193 L62 193 Z M223 -287 C316 -234 346 -178 346 -121 C346 -76 324 -45 281 -45 C249 -45 226 -68 226 -96 C226 -122 239 -135 258 -144 C269 -149 273 -162 273 -173 C273 -194 258 -218 201 -255 L223 -287 Z " />
<glyph glyph-name="uni0219" unicode="&#x219;" horiz-adv-x="453" d="M53 154 C52 136 50 112 50 80 C50 48 59 19 99 4 C127 -7 173 -14 215 -14 C325 -14 402 37 402 125 C402 176 384 220 299 251 L209 285 C156 305 142 320 142 346 C142 380 163 407 231 407 C260 407 289 402 303 391 C315 383 325 372 330 326 L378 326 C381 349 385 389 385 407 C385 432 374 450 355 458 C324 471 285 474 250 474 C118 474 62 414 62 338 C62 285 84 242 167 210 L258 176 C303 159 319 140 319 112 C319 80 288 54 224 54 C183 54 151 63 134 78 C122 89 107 104 102 154 L53 154 Z M162 -287 C255 -234 285 -178 285 -121 C285 -76 263 -45 220 -45 C188 -45 165 -68 165 -96 C165 -122 178 -135 197 -144 C208 -149 212 -162 212 -173 C212 -194 197 -218 140 -255 L162 -287 Z " />
<glyph glyph-name="uni021A" unicode="&#x21a;" horiz-adv-x="652" d="M468 -1 L468 54 C399 59 385 64 379 74 C374 83 372 98 372 138 L372 609 C503 609 519 606 535 594 C548 584 557 561 563 498 L611 498 C614 540 616 600 616 625 C616 655 605 676 554 676 L97 676 C46 676 37 653 37 622 C37 596 39 540 42 498 L89 498 C96 564 106 586 119 594 C136 606 150 609 282 609 L282 136 C282 97 282 80 276 73 C268 63 256 58 188 54 L188 -1 C229 0 308 1 333 1 C357 1 428 0 468 -1 L468 -1 Z M270 -287 C363 -234 393 -178 393 -121 C393 -76 371 -45 328 -45 C296 -45 273 -68 273 -96 C273 -122 286 -135 305 -144 C316 -149 320 -162 320 -173 C320 -194 305 -218 248 -255 L270 -287 Z " />
<glyph glyph-name="uni021B" unicode="&#x21b;" horiz-adv-x="346" d="M342 20 L326 74 C297 63 271 59 250 59 C216 59 197 75 191 110 C187 131 187 178 187 210 L187 386 C222 386 270 387 311 389 L311 448 C263 450 216 450 188 450 L188 554 C188 575 177 584 159 584 C136 584 125 574 121 558 C115 527 112 507 102 480 C97 466 89 455 77 450 C59 442 41 437 24 433 L24 386 L106 386 C106 290 104 186 104 117 C104 15 154 -12 219 -12 C251 -12 303 -2 342 20 L342 20 Z M136 -287 C229 -234 259 -178 259 -121 C259 -76 237 -45 194 -45 C162 -45 139 -68 139 -96 C139 -122 152 -135 171 -144 C182 -149 186 -162 186 -173 C186 -194 171 -218 114 -255 L136 -287 Z " />
<glyph glyph-name="circumflex" unicode="&#x2c6;" horiz-adv-x="291" d="M285 534 L186 686 C175 703 162 707 147 707 C135 707 121 701 110 685 L6 533 L36 509 L144 622 L254 509 L285 534 Z " />
<glyph glyph-name="caron" unicode="&#x2c7;" horiz-adv-x="291" d="M6 683 L105 531 C116 514 129 510 144 510 C157 510 171 516 181 531 L285 684 L256 707 L146 595 L37 707 L6 683 Z " />
<glyph glyph-name="breve" unicode="&#x2d8;" horiz-adv-x="291" d="M240 682 C228 622 197 595 144 595 C90 595 59 627 52 682 L13 680 C14 568 64 530 144 530 C222 530 278 581 278 681 L240 682 Z " />
<glyph glyph-name="dotaccent" unicode="&#x2d9;" horiz-adv-x="291" d="M144 568 C176 568 196 591 196 621 C196 649 177 671 146 671 C116 671 96 649 96 621 C96 590 117 568 144 568 L144 568 Z " />
<glyph glyph-name="ring" unicode="&#x2da;" horiz-adv-x="291" d="M239 615 C239 671 201 707 146 707 C96 707 53 669 53 613 C53 558 95 523 145 523 C197 523 239 561 239 615 L239 615 Z M197 615 C197 581 175 561 145 561 C115 561 94 583 94 615 C94 651 118 670 145 670 C173 670 197 652 197 615 L197 615 Z " />
<glyph glyph-name="ogonek" unicode="&#x2db;" horiz-adv-x="291" d="M156 5 C81 -61 44 -112 44 -171 C44 -222 74 -268 142 -268 C181 -268 223 -248 247 -231 L232 -197 C215 -204 184 -211 164 -211 C128 -211 110 -188 110 -155 C110 -110 138 -63 203 5 L156 5 Z " />
<glyph glyph-name="tilde" unicode="&#x2dc;" horiz-adv-x="291" d="M32 542 C49 578 60 593 82 593 C90 593 107 591 125 582 L150 570 C180 558 197 552 214 552 C247 552 278 591 295 664 L259 675 C243 641 229 623 211 623 C201 623 184 628 167 636 L140 649 C123 657 105 664 84 664 C40 664 12 610 -3 554 L32 542 Z " />
<glyph glyph-name="hungarumlaut" unicode="&#x2dd;" horiz-adv-x="295" d="M26 523 L130 646 C149 668 159 683 159 700 C159 723 140 733 123 733 C106 733 94 727 74 689 L-5 545 L26 523 Z M167 523 L271 646 C290 668 300 683 300 700 C300 723 281 733 264 733 C247 733 235 727 215 689 L136 545 L167 523 Z " />
<glyph glyph-name="uni0394" unicode="&#x394;" horiz-adv-x="681" d="M667 0 L667 29 L394 654 C380 690 367 694 344 694 C317 694 301 682 289 653 L12 29 L12 0 L667 0 Z M544 82 L114 82 L329 578 L544 82 Z " />
</font>
</svg>
