<?xml version="1.0" encoding="UTF-8"?>
<svg xmlns="http://www.w3.org/2000/svg" xmlns:xlink="http://www.w3.org/1999/xlink" version="1.2" >
<font id="Capita-BoldItalic" horiz-adv-x="559">
<font-face  font-family="Capita" units-per-em="1000" ascent="725" descent="-275" font-style="italic" font-weight="700" font-stretch="normal" cap-height="676" x-height="460" underline-position="-75" underline-thickness="50" />
<missing-glyph horiz-adv-x="310" />
<glyph glyph-name="NULL" horiz-adv-x="0" >
</glyph>
<glyph glyph-name="CR" unicode="&#xd;" horiz-adv-x="250" >
</glyph>
<glyph glyph-name="space" unicode="&#x20;" horiz-adv-x="219" />
<glyph glyph-name="exclam" unicode="&#x21;" horiz-adv-x="304" d="M199 225 C274 450 310 555 324 604 C327 616 330 636 330 648 C330 681 305 706 255 706 C190 706 168 668 162 628 C156 592 149 491 136 225 L199 225 Z M228 80 C228 124 196 154 150 154 C100 154 66 113 66 69 C66 22 96 -9 141 -9 C195 -9 228 26 228 80 L228 80 Z " />
<glyph glyph-name="quotedbl" unicode="&#x22;" horiz-adv-x="349" d="M151 416 C200 548 217 599 226 631 C229 643 232 656 232 667 C232 690 220 711 181 711 C143 711 123 693 116 657 C110 631 108 582 102 416 L151 416 Z M318 416 C367 548 384 600 392 630 C396 643 400 656 400 667 C400 690 387 711 348 711 C310 711 290 693 282 657 C277 631 275 582 269 416 L318 416 Z " />
<glyph glyph-name="numbersign" unicode="&#x23;" horiz-adv-x="570" d="M155 -13 L218 199 L328 199 L266 -13 L324 -13 L386 199 L505 199 L521 294 L414 294 L443 387 L555 387 L572 484 L472 484 L526 671 L468 671 L412 484 L302 484 L358 671 L298 671 L243 484 L121 484 L104 387 L216 387 L187 294 L72 294 L56 199 L159 199 L98 -13 L155 -13 Z M246 294 L274 387 L384 387 L357 294 L246 294 Z " />
<glyph glyph-name="dollar" unicode="&#x24;" horiz-adv-x="576" d="M258 -115 L280 -2 C417 9 533 71 533 219 C533 287 497 332 421 370 L358 401 L389 561 C419 558 438 551 450 537 C465 519 472 490 474 456 L548 456 C561 509 566 559 566 586 C566 612 547 634 517 645 C486 656 446 662 409 663 L429 764 L373 764 L353 661 C192 650 105 570 105 447 C105 390 128 336 219 291 L275 263 L242 97 C204 99 177 108 160 125 C142 141 127 170 124 219 L52 219 C46 188 38 134 38 93 C38 64 51 41 81 24 C113 7 158 -3 222 -4 L201 -115 L258 -115 Z M334 233 C360 220 376 197 376 171 C376 130 347 107 300 100 L326 237 L334 233 Z M258 491 C258 525 282 552 333 560 L307 426 L301 429 C268 445 258 467 258 491 L258 491 Z " />
<glyph glyph-name="percent" unicode="&#x25;" horiz-adv-x="914" d="M433 527 C433 613 391 667 285 667 C219 667 167 646 129 601 C80 544 62 458 62 393 C62 288 126 244 218 244 C274 244 326 263 365 309 C415 367 433 464 433 527 L433 527 Z M320 524 C320 480 307 411 284 367 C269 339 250 326 226 326 C189 326 176 350 176 396 C176 443 189 506 211 547 C225 574 246 588 271 588 C304 588 320 569 320 524 L320 524 Z M630 669 L271 29 L329 -3 L689 640 L630 669 Z M894 275 C894 362 851 416 745 416 C679 416 628 394 590 349 C541 292 523 206 523 141 C523 37 586 -7 678 -7 C735 -7 785 12 824 58 C875 117 894 212 894 275 L894 275 Z M780 272 C780 229 768 160 745 116 C730 88 711 74 686 74 C649 74 636 99 636 144 C636 192 650 254 671 295 C685 322 706 336 731 336 C765 336 780 317 780 272 L780 272 Z " />
<glyph glyph-name="ampersand" unicode="&#x26;" horiz-adv-x="819" d="M734 -3 L756 111 C745 109 735 109 725 109 C681 109 643 120 602 151 C626 177 656 212 682 250 C705 283 719 299 728 305 C744 313 761 315 785 316 L801 394 C766 392 701 392 669 392 C643 392 563 393 535 394 L519 316 C535 315 547 314 561 312 C576 309 583 304 583 289 C583 280 578 268 571 258 C563 244 546 223 534 212 C483 260 440 312 410 367 C509 407 611 451 611 564 C611 636 548 691 437 691 C294 691 196 636 196 496 C196 461 208 420 225 385 C116 345 41 293 41 175 C41 69 128 -13 272 -13 C354 -13 425 9 490 45 C525 15 594 -8 672 -8 C696 -8 715 -6 734 -3 L734 -3 Z M375 442 C359 470 353 498 353 517 C353 564 383 591 425 591 C463 591 483 567 483 540 C483 489 411 456 375 442 L375 442 Z M264 295 C295 242 333 188 399 119 C373 105 341 94 305 94 C246 94 201 134 201 198 C201 245 231 274 264 295 L264 295 Z " />
<glyph glyph-name="quotesingle" unicode="&#x27;" horiz-adv-x="182" d="M151 416 C199 546 216 597 225 628 C229 643 232 656 232 667 C232 690 220 711 181 711 C143 711 123 693 116 657 C110 631 108 582 102 416 L151 416 Z " />
<glyph glyph-name="parenleft" unicode="&#x28;" horiz-adv-x="331" d="M250 -153 C190 -78 147 43 147 189 C147 429 264 631 419 731 L387 781 C162 658 36 454 36 191 C36 20 101 -117 210 -195 L250 -153 Z " />
<glyph glyph-name="parenright" unicode="&#x29;" horiz-adv-x="331" d="M107 739 C166 664 208 543 208 396 C208 157 92 -46 -63 -146 L-31 -195 C194 -73 321 132 321 395 C321 566 255 703 147 781 L107 739 Z " />
<glyph glyph-name="asterisk" unicode="&#x2a;" horiz-adv-x="411" d="M291 538 C320 595 339 633 339 658 C339 684 319 699 291 699 C264 699 244 687 244 647 C244 622 249 579 256 544 C194 616 174 633 155 633 C123 633 107 601 107 576 C107 557 121 542 151 534 C188 524 235 514 237 513 C128 467 118 442 118 422 C118 393 146 375 166 375 C192 375 216 397 260 485 C273 371 278 347 320 347 C342 347 369 363 369 389 C369 413 352 441 293 501 C329 495 369 490 398 490 C426 490 441 508 441 542 C441 564 429 585 400 585 C380 585 352 571 291 538 L291 538 Z " />
<glyph glyph-name="plus" unicode="&#x2b;" horiz-adv-x="596" d="M300 72 L345 269 L526 269 L545 358 L364 358 L410 555 L324 555 L279 358 L97 358 L76 269 L261 269 L215 72 L300 72 Z " />
<glyph glyph-name="comma" unicode="&#x2c;" horiz-adv-x="238" d="M-34 -176 C68 -131 177 -56 177 58 C177 116 140 154 85 154 C33 154 0 120 0 78 C0 47 13 28 38 16 C50 10 58 -3 58 -16 C58 -52 13 -87 -59 -123 L-34 -176 Z " />
<glyph glyph-name="hyphen" unicode="&#x2d;" horiz-adv-x="280" d="M267 296 L44 296 L26 201 L249 201 L267 296 Z " />
<glyph glyph-name="period" unicode="&#x2e;" horiz-adv-x="225" d="M166 80 C166 124 135 154 89 154 C39 154 5 113 5 69 C5 22 35 -9 80 -9 C133 -9 166 26 166 80 L166 80 Z " />
<glyph glyph-name="slash" unicode="&#x2f;" horiz-adv-x="338" d="M392 711 L325 736 L-22 -61 L44 -86 L392 711 Z " />
<glyph glyph-name="zero" unicode="0" horiz-adv-x="605" d="M603 450 C603 603 517 670 380 670 C301 670 236 645 182 592 C85 497 48 330 48 215 C48 59 131 -14 272 -14 C349 -14 422 13 479 75 C569 174 603 339 603 450 L603 450 Z M446 452 C446 379 424 239 377 158 C353 117 324 96 286 96 C212 96 204 160 204 218 C204 299 231 436 277 508 C301 545 330 563 367 563 C426 563 446 523 446 452 L446 452 Z " />
<glyph glyph-name="one" unicode="1" horiz-adv-x="605" d="M463 -1 L479 79 C439 82 407 84 392 88 C377 91 369 100 369 114 C369 124 371 137 375 159 L423 402 C436 466 452 542 461 590 C462 597 464 617 464 623 C464 659 443 671 419 671 C393 671 358 664 341 658 C296 644 212 619 169 600 L187 514 C212 519 250 525 267 525 C282 525 289 520 289 502 C289 482 280 431 272 392 L226 159 C220 127 216 108 205 100 C194 91 177 83 104 79 L88 -1 C131 0 252 1 274 1 C299 1 423 0 463 -1 L463 -1 Z " />
<glyph glyph-name="two" unicode="2" horiz-adv-x="605" d="M557 203 L484 203 C469 174 458 153 449 143 C433 123 411 117 354 117 C325 117 248 116 208 116 C359 203 564 328 564 509 C564 601 499 670 363 670 C295 670 234 656 203 644 C157 625 137 599 130 560 C126 537 123 492 122 459 L205 459 C218 510 229 529 240 539 C254 553 285 562 317 562 C381 562 403 520 403 479 C403 361 295 284 19 87 L3 0 L437 0 C486 0 507 19 517 43 C533 80 546 151 557 203 L557 203 Z " />
<glyph glyph-name="three" unicode="3" horiz-adv-x="605" d="M68 201 C57 166 45 113 45 81 C45 42 56 23 87 9 C116 -4 175 -14 236 -14 C389 -14 540 47 540 208 C540 275 499 328 405 343 C502 377 561 427 561 527 C561 600 515 670 365 670 C290 670 225 652 198 636 C163 617 145 595 140 559 C137 539 134 492 131 468 L215 468 C226 507 238 530 253 542 C267 553 289 561 325 561 C376 561 404 534 404 497 C404 434 360 396 301 386 C274 382 252 383 229 382 L211 280 C235 280 259 279 282 278 C351 274 384 242 384 197 C384 126 324 100 261 100 C214 100 181 109 167 127 C158 140 151 161 151 201 L68 201 Z " />
<glyph glyph-name="four" unicode="4" horiz-adv-x="605" d="M528 -1 L544 79 C515 82 488 84 475 87 C460 91 451 98 451 114 C451 123 454 137 456 151 L461 176 L561 176 L582 285 L482 285 C525 498 532 535 537 563 C540 577 543 603 543 612 C543 656 510 671 479 671 C430 671 406 651 359 599 L46 252 L33 175 L318 175 L313 153 C307 126 303 109 294 99 C285 89 266 83 203 79 L187 -1 C230 0 322 1 344 1 C368 1 488 0 528 -1 L528 -1 Z M338 282 L185 282 L390 512 C376 460 363 397 338 282 L338 282 Z " />
<glyph glyph-name="five" unicode="5" horiz-adv-x="605" d="M76 190 C66 144 59 110 59 74 C59 45 75 21 105 7 C132 -5 184 -14 244 -14 C425 -14 557 67 557 244 C557 366 470 425 361 425 C323 425 283 420 256 413 L285 537 L557 537 L575 654 L202 654 L144 405 C138 380 134 362 134 342 C134 307 157 298 183 298 C196 298 221 303 234 306 C255 310 273 311 287 311 C367 311 397 268 397 211 C397 132 339 92 263 92 C222 92 193 101 179 117 C169 128 162 154 160 190 L76 190 Z " />
<glyph glyph-name="six" unicode="6" horiz-adv-x="605" d="M243 371 C256 436 279 489 309 522 C337 552 377 562 412 562 C442 562 461 556 471 546 C482 535 492 518 495 478 L575 478 C587 522 593 568 593 586 C593 620 584 636 556 649 C532 659 486 670 431 670 C344 670 255 649 183 566 C103 472 72 332 72 216 C72 66 158 -14 295 -14 C465 -14 569 98 569 256 C569 345 524 430 389 430 C334 430 274 409 243 371 L243 371 Z M225 263 C253 299 293 317 334 317 C389 317 423 286 423 222 C423 151 383 95 307 95 C252 95 219 133 219 200 C219 219 221 237 225 263 L225 263 Z " />
<glyph glyph-name="seven" unicode="7" horiz-adv-x="605" d="M102 449 L166 449 C179 490 191 517 212 525 C234 534 262 537 342 537 L472 537 L171 56 C163 43 154 27 154 9 C154 -22 179 -36 214 -36 C250 -36 262 -16 276 8 L605 570 L620 654 L188 654 C142 654 123 629 117 593 C112 562 105 502 102 449 L102 449 Z " />
<glyph glyph-name="eight" unicode="8" horiz-adv-x="605" d="M210 334 C101 299 48 236 48 159 C48 57 129 -13 281 -13 C476 -13 561 87 561 199 C561 251 535 312 454 361 C528 386 598 427 598 522 C598 604 531 670 384 670 C204 670 129 576 129 476 C129 428 149 374 210 334 L210 334 Z M286 282 C371 245 396 212 396 174 C396 124 355 92 288 92 C227 92 193 130 193 169 C193 217 222 251 286 282 L286 282 Z M374 406 C308 436 286 463 286 497 C286 538 316 568 377 568 C427 568 455 535 455 502 C455 464 415 430 374 406 L374 406 Z " />
<glyph glyph-name="nine" unicode="9" horiz-adv-x="605" d="M411 287 C397 218 381 170 351 135 C324 104 280 93 247 93 C215 93 191 100 180 110 C168 122 154 140 151 178 L71 178 C59 134 57 89 57 72 C57 37 67 21 94 9 C117 -2 170 -14 230 -14 C320 -14 410 4 479 90 C557 186 581 325 581 441 C581 590 496 670 358 670 C188 670 85 560 85 402 C85 312 130 230 265 230 C321 230 380 249 411 287 L411 287 Z M428 395 C401 358 360 344 320 344 C264 344 231 368 231 433 C231 503 269 563 346 563 C402 563 435 526 435 459 C435 440 433 421 428 395 L428 395 Z " />
<glyph glyph-name="colon" unicode="&#x3a;" horiz-adv-x="246" d="M187 80 C187 124 156 154 110 154 C60 154 26 113 26 69 C26 22 56 -9 101 -9 C154 -9 187 26 187 80 L187 80 Z M246 381 C246 424 214 455 167 455 C117 455 84 414 84 369 C84 323 114 291 159 291 C212 291 246 327 246 381 L246 381 Z " />
<glyph glyph-name="semicolon" unicode="&#x3b;" horiz-adv-x="252" d="M246 381 C246 424 214 455 167 455 C117 455 84 414 84 369 C84 323 114 291 159 291 C212 291 246 327 246 381 L246 381 Z M-16 -176 C84 -131 195 -56 195 58 C195 116 158 154 103 154 C51 154 18 120 18 78 C18 47 31 28 56 16 C68 10 76 -3 76 -16 C76 -52 31 -87 -41 -123 L-16 -176 Z " />
<glyph glyph-name="less" unicode="&#x3c;" horiz-adv-x="596" d="M455 64 L476 160 L211 306 L542 451 L565 555 L132 355 L110 265 L455 64 Z " />
<glyph glyph-name="equal" unicode="&#x3d;" horiz-adv-x="596" d="M502 174 L521 262 L76 262 L56 174 L502 174 Z M543 365 L564 452 L118 452 L99 365 L543 365 Z " />
<glyph glyph-name="greater" unicode="&#x3e;" horiz-adv-x="596" d="M179 555 L158 456 L420 313 L89 167 L67 64 L501 264 L520 355 L179 555 Z " />
<glyph glyph-name="question" unicode="&#x3f;" horiz-adv-x="470" d="M222 216 C229 236 231 248 236 262 C244 285 256 308 281 318 C402 367 510 418 510 551 C510 628 458 698 320 699 C265 699 215 689 180 676 C146 663 124 642 118 606 C113 578 110 541 110 520 L194 520 C203 556 213 576 226 585 C242 596 264 598 287 598 C340 598 355 557 355 527 C355 464 302 433 251 414 C195 394 174 372 166 331 C161 309 155 263 152 216 L222 216 Z M258 80 C258 124 228 154 181 154 C130 154 97 113 97 69 C97 22 126 -9 173 -9 C226 -9 258 26 258 80 L258 80 Z " />
<glyph glyph-name="at" unicode="&#x40;" horiz-adv-x="833" d="M732 -49 L704 6 C626 -41 539 -74 423 -74 C248 -74 138 40 138 198 C138 404 277 573 485 573 C623 573 724 506 724 359 C724 285 701 212 657 163 C637 141 613 128 596 128 C578 128 574 139 574 155 C574 180 585 223 595 258 L656 467 L583 467 L562 439 C536 453 503 460 474 460 C418 460 364 444 315 393 C257 334 219 250 219 173 C219 88 269 48 334 48 C394 48 440 78 475 114 C475 106 477 95 479 87 C488 57 510 46 550 46 C593 46 641 66 678 95 C760 161 802 263 802 365 C802 521 693 637 490 637 C231 637 55 429 55 197 C55 -9 195 -146 410 -146 C533 -146 643 -106 732 -49 L732 -49 Z M476 167 C447 144 406 129 382 129 C346 129 322 143 322 190 C322 248 352 307 386 346 C410 374 438 382 468 382 C491 382 511 375 530 366 L494 240 C486 213 482 193 476 167 L476 167 Z " />
<glyph glyph-name="A" unicode="A" horiz-adv-x="759" d="M282 -1 L298 81 C258 82 233 86 222 91 C209 98 208 107 208 115 C208 127 219 152 235 178 L257 213 L465 213 L471 173 C474 152 474 134 474 126 C474 104 468 93 446 88 C433 85 413 82 386 81 L371 -1 C423 0 537 1 564 1 C589 1 659 0 704 -1 L720 81 C689 82 667 88 661 93 C645 107 638 123 631 164 L555 622 C547 669 520 693 471 693 C420 693 388 668 358 616 L111 190 C73 126 63 113 47 100 C34 88 19 82 -20 81 L-35 -1 C8 0 62 1 83 1 C106 1 237 0 282 -1 L282 -1 Z M307 321 C371 434 394 475 421 528 C427 471 431 432 449 321 L307 321 Z " />
<glyph glyph-name="B" unicode="B" horiz-adv-x="653" d="M-16 -1 C22 0 81 1 112 1 C164 1 270 -1 311 -1 C386 -1 460 12 498 31 C578 69 617 128 617 216 C617 290 566 350 470 361 C568 378 633 431 633 533 C633 596 599 641 518 662 C485 671 417 676 343 676 L107 676 L92 597 C122 596 141 594 153 591 C169 588 175 581 175 566 C175 558 173 546 169 523 L98 154 C89 108 83 102 72 93 C64 87 50 81 0 79 L-16 -1 Z M301 404 L331 568 L361 568 C390 568 417 566 434 560 C460 550 473 525 473 498 C473 451 446 420 400 410 C385 406 351 404 328 404 L301 404 Z M279 300 L301 300 C364 300 396 295 418 279 C437 266 450 240 450 206 C450 140 392 98 312 98 C301 98 276 98 263 101 C252 103 246 109 246 120 C246 126 247 134 248 139 L279 300 Z " />
<glyph glyph-name="C" unicode="C" horiz-adv-x="682" d="M637 210 L552 210 C532 165 515 141 501 128 C481 111 445 99 386 99 C301 99 221 147 221 283 C221 355 244 439 288 498 C329 554 394 580 460 580 C510 580 543 572 559 551 C570 537 576 508 576 469 L663 469 C670 504 681 560 681 604 C681 627 670 650 641 664 C610 679 554 692 482 692 C369 692 274 664 202 602 C101 517 59 393 59 269 C59 96 167 -14 356 -14 C433 -14 495 0 525 11 C561 24 584 42 598 65 C612 87 623 130 637 210 L637 210 Z " />
<glyph glyph-name="D" unicode="D" horiz-adv-x="736" d="M-16 0 L247 0 C367 0 472 14 538 49 C690 129 724 281 724 423 C724 495 691 570 637 610 C583 651 509 676 301 676 L107 676 L92 597 C123 596 143 594 157 591 C169 588 174 579 174 566 C174 556 172 538 168 517 L97 155 C89 114 85 105 79 96 C69 86 58 83 0 79 L-16 0 Z M252 160 L330 566 L364 566 C420 566 472 558 502 536 C539 510 561 457 561 404 C561 234 493 106 321 106 C307 106 286 107 274 109 C257 113 248 121 248 135 C248 140 250 150 252 160 L252 160 Z " />
<glyph glyph-name="E" unicode="E" horiz-adv-x="636" d="M616 203 L537 203 C523 177 507 147 490 134 C470 118 435 106 357 106 C333 106 295 106 270 110 C255 112 248 121 248 135 C248 141 251 153 252 160 L279 297 L317 297 C342 297 359 295 371 291 C387 285 392 268 393 254 C394 246 394 236 394 225 L465 225 C477 309 491 387 510 463 L437 463 C428 440 420 419 408 409 C393 397 369 394 335 394 L297 394 L331 566 L443 566 C487 566 504 562 513 555 C519 550 528 540 530 523 C531 513 533 500 533 489 L610 489 C618 522 632 588 632 627 C632 661 610 676 561 676 L107 676 L92 597 C118 596 141 594 155 591 C168 587 175 579 175 568 C175 557 171 534 168 517 L98 159 C90 120 89 104 78 95 C67 85 48 80 0 79 L-16 0 L466 0 C518 0 551 13 565 35 C588 70 609 154 616 203 L616 203 Z " />
<glyph glyph-name="F" unicode="F" horiz-adv-x="596" d="M330 -1 L346 79 C310 82 284 82 269 87 C253 93 247 103 247 117 C247 129 249 148 254 172 L276 279 L331 279 C355 279 372 276 384 272 C398 266 402 255 405 242 C407 231 408 217 408 203 L476 203 C491 294 506 375 523 451 L453 451 C444 424 432 402 421 391 C407 379 384 376 350 376 L294 376 L331 566 L451 566 C496 566 513 563 521 556 C532 546 536 524 538 489 L612 489 C624 532 637 595 637 631 C637 660 619 676 572 676 L107 676 L92 597 C120 596 144 594 154 591 C169 588 175 578 175 564 C175 556 172 540 169 522 L98 160 C89 117 86 104 79 97 C69 86 52 82 0 79 L-16 -1 C28 0 122 1 146 1 C171 1 288 0 330 -1 L330 -1 Z " />
<glyph glyph-name="G" unicode="G" horiz-adv-x="724" d="M714 252 L726 333 C689 331 619 331 588 331 C567 331 458 332 430 333 L417 252 C444 250 472 248 487 242 C496 239 500 234 500 222 C500 218 500 205 497 192 L488 150 C485 134 480 122 473 115 C469 111 459 106 449 103 C437 100 408 98 389 98 C311 98 222 137 222 288 C222 368 249 450 293 503 C341 562 409 580 464 580 C523 580 556 566 570 548 C579 536 584 515 585 468 L672 468 C682 508 691 570 691 596 C691 628 682 647 654 661 C614 681 562 692 471 692 C369 692 280 664 212 611 C107 530 59 396 59 271 C59 87 173 -15 358 -15 C441 -15 523 -1 580 24 C606 36 618 56 623 84 L644 198 C648 219 651 232 657 239 C666 249 683 250 714 252 L714 252 Z " />
<glyph glyph-name="H" unicode="H" horiz-adv-x="770" d="M312 -1 L328 79 C301 81 278 84 268 86 C253 90 245 97 245 112 C245 121 248 136 253 163 L279 298 L522 298 L495 159 C487 116 481 102 474 95 C465 87 454 82 396 79 L380 -1 C426 0 522 1 545 1 C570 1 667 0 709 -1 L725 79 C697 81 675 83 665 85 C650 88 642 96 642 111 C642 121 644 136 649 163 L719 521 C727 561 731 573 738 580 C747 589 754 594 817 597 L833 677 C789 676 700 674 675 674 C651 674 547 676 504 677 L489 597 C518 596 542 595 554 590 C567 585 572 577 572 568 C572 561 570 545 565 521 L543 410 L301 410 L323 520 C330 556 334 573 341 580 C349 589 357 595 421 597 L436 677 C389 676 299 674 274 674 C251 674 150 675 107 677 L92 597 C122 596 145 594 156 591 C170 587 175 578 175 566 C175 557 173 545 169 522 L98 159 C89 116 86 103 79 96 C68 87 59 82 0 79 L-16 -1 C28 0 121 1 145 1 C170 1 270 0 312 -1 L312 -1 Z " />
<glyph glyph-name="I" unicode="I" horiz-adv-x="376" d="M314 -1 L330 79 C299 81 277 84 267 87 C254 91 247 98 247 111 C247 120 250 136 255 163 L324 521 C332 561 337 573 343 580 C351 589 360 594 423 597 L438 677 C393 676 301 674 276 674 C253 674 150 676 107 677 L92 597 C122 596 146 594 157 591 C171 587 175 580 175 569 C175 559 173 545 169 522 L98 159 C89 116 86 103 79 96 C68 87 55 82 0 79 L-16 -1 C28 0 121 1 145 1 C170 1 272 0 314 -1 L314 -1 Z " />
<glyph glyph-name="J" unicode="J" horiz-adv-x="362" d="M-56 -167 C51 -140 145 -84 183 -24 C219 31 239 83 261 199 L322 521 C330 562 335 574 341 581 C350 590 361 594 416 597 L432 677 C391 676 332 674 274 674 C219 674 133 676 107 677 L91 597 C120 596 141 594 152 592 C166 589 175 582 175 570 C175 560 172 542 168 522 L104 189 C94 139 77 73 65 38 C43 -28 -7 -66 -80 -92 L-56 -167 Z " />
<glyph glyph-name="K" unicode="K" horiz-adv-x="741" d="M312 -1 L328 79 C298 82 278 84 266 87 C253 91 245 98 245 112 C245 122 248 138 253 164 L323 521 C331 561 334 573 341 580 C349 589 360 595 418 597 L433 677 C389 676 299 674 274 674 C251 674 150 676 107 677 L92 597 C124 596 145 594 155 591 C169 587 175 579 175 568 C175 558 173 544 169 523 L98 160 C89 116 85 103 78 96 C68 87 59 82 0 79 L-16 -1 C28 0 121 1 145 1 C170 1 270 0 312 -1 L312 -1 Z M692 1 L708 80 C694 81 675 83 661 88 C644 94 628 104 610 124 C571 169 507 254 460 357 C510 406 601 488 638 526 C679 568 703 583 722 590 C738 595 749 596 763 597 L780 677 C736 675 676 675 652 675 C629 675 531 675 489 677 L473 597 C518 594 529 590 529 574 C529 563 522 546 487 510 C448 468 375 398 303 338 C362 202 429 99 472 46 C498 14 537 -5 601 -5 C624 -5 657 -4 692 1 L692 1 Z " />
<glyph glyph-name="L" unicode="L" horiz-adv-x="623" d="M593 206 L522 206 C504 169 492 147 476 133 C456 116 424 107 348 107 C325 107 295 107 270 110 C255 112 248 120 248 135 C248 141 252 161 253 167 L323 520 C331 559 336 573 343 580 C351 590 367 596 421 597 L436 677 C394 675 332 674 274 674 C219 674 133 676 107 677 L92 597 C124 596 144 594 157 590 C169 586 175 578 175 568 C175 558 173 543 169 522 L98 159 C91 120 87 105 77 95 C66 85 49 81 0 79 L-16 0 L451 0 C497 0 529 14 541 35 C561 70 572 114 593 206 L593 206 Z " />
<glyph glyph-name="M" unicode="M" horiz-adv-x="909" d="M265 -1 L282 79 C258 81 236 83 225 85 C207 88 199 96 199 111 C199 118 201 132 203 144 C208 174 257 427 276 524 C290 446 306 377 352 147 C358 118 372 97 410 97 C447 97 465 115 481 142 C607 351 661 451 699 523 C676 395 636 169 632 151 C625 121 621 105 613 97 C605 89 591 81 534 79 L517 -1 C577 0 659 1 686 1 C716 1 801 0 849 -1 L866 79 C838 80 817 83 806 86 C792 90 784 96 784 111 C784 122 786 137 791 172 C838 474 844 502 848 525 C854 555 859 572 867 581 C876 590 883 595 941 597 L957 677 C919 675 835 675 819 675 C794 675 717 676 678 677 C530 435 496 366 465 308 C456 369 443 443 396 677 C361 675 297 675 272 675 C250 675 159 675 115 677 L99 597 C126 596 148 595 158 593 C175 590 183 585 183 566 C183 560 181 553 179 541 C176 523 168 488 101 177 C91 133 83 106 74 95 C65 85 40 82 -1 79 L-17 -1 C35 0 126 1 147 1 C169 1 224 0 265 -1 L265 -1 Z " />
<glyph glyph-name="N" unicode="N" horiz-adv-x="768" d="M262 -1 L278 79 C252 81 234 83 222 85 C206 87 195 95 195 111 C195 124 198 144 205 182 C210 214 238 370 264 507 C299 425 331 359 475 39 C489 7 507 -11 550 -11 C605 -11 621 14 630 62 C662 232 683 337 713 493 C725 555 731 573 738 580 C748 591 759 594 816 597 L832 677 C777 676 727 675 699 675 C677 675 603 676 550 677 L534 597 C564 596 583 593 596 590 C613 586 618 574 618 559 C618 547 616 529 611 492 C606 454 586 350 564 218 C534 290 485 397 353 677 C318 675 270 675 253 675 C237 675 127 676 106 677 L91 597 C107 596 132 595 149 592 C169 589 174 577 174 562 C174 549 171 525 164 489 C153 432 124 285 102 182 C92 132 87 108 80 98 C70 89 60 83 0 79 L-17 -1 C36 0 98 1 119 1 C148 1 210 0 262 -1 L262 -1 Z " />
<glyph glyph-name="O" unicode="O" horiz-adv-x="743" d="M731 433 C731 586 648 691 455 691 C355 691 273 664 203 606 C102 521 60 383 60 260 C60 69 185 -13 350 -13 C452 -13 547 24 616 98 C699 187 731 323 731 433 L731 433 Z M564 428 C564 354 544 242 496 172 C460 119 417 100 359 100 C267 100 222 156 222 267 C222 345 249 453 299 516 C333 559 379 580 433 580 C521 580 564 531 564 428 L564 428 Z " />
<glyph glyph-name="P" unicode="P" horiz-adv-x="640" d="M325 -1 L341 79 C307 81 282 83 268 86 C253 89 245 99 245 113 C245 123 248 141 253 164 L270 253 C292 251 335 251 360 251 C544 251 658 331 658 499 C658 573 625 640 533 662 C487 673 441 676 360 676 L107 676 L92 597 C121 596 139 594 151 591 C167 588 174 580 174 564 C174 554 172 536 168 518 L98 155 C88 105 82 96 69 90 C58 85 41 82 0 79 L-16 -1 C38 0 98 1 130 1 C152 1 278 0 325 -1 L325 -1 Z M291 359 L330 565 L365 565 C402 565 432 562 450 555 C483 541 498 518 498 479 C498 382 430 358 349 358 C338 358 306 358 291 359 L291 359 Z " />
<glyph glyph-name="Q" unicode="Q" horiz-adv-x="743" d="M731 433 C731 586 648 691 455 691 C355 691 273 664 203 606 C102 521 60 383 60 260 C60 97 150 14 278 -7 C340 -76 382 -114 453 -145 C489 -161 563 -175 632 -175 C660 -175 686 -173 709 -169 L725 -87 C720 -88 713 -88 705 -88 C659 -88 591 -73 552 -52 C516 -33 493 -16 472 6 C526 24 575 54 616 98 C699 187 731 323 731 433 L731 433 Z M564 428 C564 354 544 242 496 172 C460 119 417 100 359 100 C267 100 222 156 222 267 C222 345 249 453 299 516 C333 559 379 580 433 580 C521 580 564 531 564 428 L564 428 Z " />
<glyph glyph-name="R" unicode="R" horiz-adv-x="681" d="M309 -1 L326 79 C302 81 282 83 272 85 C255 88 245 97 245 112 C245 123 248 138 253 162 L272 267 C289 265 305 264 323 264 C355 175 388 100 430 54 C454 27 493 -3 582 -3 C602 -3 629 -2 636 -1 L654 81 C639 83 619 88 606 94 C589 103 568 120 551 141 C525 175 501 216 473 277 C577 306 643 376 643 501 C643 575 601 637 520 660 C484 670 425 676 351 676 L107 676 L92 597 C119 596 139 594 150 592 C167 589 175 581 175 568 C175 559 173 546 169 525 L98 155 C88 104 82 97 70 91 C58 85 40 82 0 79 L-16 -1 C38 0 97 1 129 1 C152 1 262 0 309 -1 L309 -1 Z M294 374 L331 563 L361 563 C385 563 421 560 442 551 C468 541 484 511 484 481 C484 403 430 373 352 373 C340 373 309 373 294 374 L294 374 Z " />
<glyph glyph-name="S" unicode="S" horiz-adv-x="599" d="M57 234 C47 186 40 140 39 101 C39 67 52 38 98 15 C131 -1 194 -14 256 -14 C426 -14 558 54 558 218 C558 293 520 347 436 385 L322 437 C283 455 268 479 268 510 C268 552 301 586 374 586 C404 586 441 580 458 566 C477 550 492 524 492 467 L569 467 C581 513 588 572 588 607 C588 628 579 649 558 662 C521 684 456 691 403 691 C231 691 109 617 109 467 C109 404 133 342 229 297 L343 243 C380 226 396 206 396 172 C396 130 368 93 282 93 C225 93 182 110 161 135 C146 153 136 186 133 234 L57 234 Z " />
<glyph glyph-name="T" unicode="T" horiz-adv-x="683" d="M480 -1 L495 79 C461 82 438 84 425 87 C411 91 404 99 404 112 C404 117 405 136 411 164 L490 570 C572 570 594 569 608 556 C620 544 625 524 625 452 L694 452 C709 513 726 603 726 629 C726 663 703 676 660 676 L182 676 C133 676 113 649 106 606 C102 581 90 496 86 452 L157 452 C175 525 193 547 209 556 C227 567 253 570 337 570 L257 160 C249 118 245 104 237 97 C227 88 220 83 152 79 L137 -1 C182 0 281 1 305 1 C330 1 438 0 480 -1 L480 -1 Z " />
<glyph glyph-name="U" unicode="U" horiz-adv-x="784" d="M838 597 L854 677 C819 677 763 676 739 676 C715 676 607 676 571 677 L555 597 C588 596 611 595 626 590 C640 586 647 577 647 561 C647 554 646 539 643 519 C631 447 613 348 607 317 C593 252 579 190 545 149 C515 113 461 97 397 97 C321 97 268 127 268 206 C268 237 273 273 281 312 C299 406 314 484 324 529 C330 558 336 573 343 580 C353 590 360 595 426 597 L441 677 C401 676 284 675 258 675 C228 675 140 676 101 677 L85 597 C112 596 142 593 154 590 C170 585 175 574 175 562 C175 554 173 542 169 521 C163 484 143 397 126 308 C113 243 108 200 108 165 C108 24 239 -16 359 -16 C460 -16 549 11 604 65 C654 113 675 171 699 296 L741 511 C747 543 754 563 761 574 C768 584 781 593 838 597 L838 597 Z " />
<glyph glyph-name="V" unicode="V" horiz-adv-x="760" d="M819 597 L835 677 C792 676 687 675 666 675 C643 675 573 676 528 677 L512 597 C545 597 568 593 582 588 C593 584 597 575 597 567 C597 550 586 522 575 501 C460 288 429 220 395 155 C386 222 375 290 345 502 C343 518 340 544 340 556 C340 576 350 585 367 590 C382 595 400 596 431 597 L447 677 C394 676 307 675 282 675 C256 675 146 676 101 677 L86 597 C116 596 136 591 144 586 C160 578 166 556 173 513 L250 59 C258 13 286 -13 338 -13 C390 -13 420 7 448 57 L700 509 C720 545 735 567 750 580 C764 593 783 596 819 597 L819 597 Z " />
<glyph glyph-name="W" unicode="W" horiz-adv-x="1065" d="M1112 597 L1127 677 C1089 676 1004 675 981 675 C951 675 875 676 827 677 L811 597 C842 596 864 594 878 591 C896 586 899 577 899 567 C899 550 888 517 880 498 C822 361 784 274 750 189 C745 276 741 344 714 611 C710 656 694 679 639 679 C580 679 558 645 541 609 C422 365 380 279 341 191 C339 282 334 410 331 505 C331 520 331 545 333 555 C335 570 341 582 361 589 C375 594 400 596 433 597 L449 677 C428 676 305 675 273 675 C246 675 168 676 105 677 L91 597 C120 595 136 590 147 584 C162 576 168 557 170 529 L201 52 C204 5 229 -13 279 -13 C328 -13 358 8 382 59 C499 300 546 398 578 472 C581 399 595 295 613 52 C617 4 638 -13 690 -13 C741 -13 769 8 793 59 L1001 505 C1019 545 1031 571 1048 582 C1060 590 1074 595 1112 597 L1112 597 Z " />
<glyph glyph-name="X" unicode="X" horiz-adv-x="769" d="M300 -1 L315 79 C284 81 265 84 252 87 C237 90 233 96 233 106 C233 119 244 132 260 151 L365 273 L439 144 C447 131 451 121 451 112 C451 101 445 92 428 87 C416 84 399 81 374 79 L361 -1 C422 0 509 1 539 1 C573 1 649 0 714 -1 L728 79 C687 82 664 85 652 94 C640 103 632 115 624 130 L505 343 L686 537 C703 556 721 573 736 582 C750 590 766 596 794 597 L808 677 C761 675 711 675 686 675 C659 675 565 675 526 677 L510 597 C531 596 546 594 556 591 C569 586 573 581 573 572 C573 559 561 540 545 522 L458 421 L404 524 C396 539 388 557 388 569 C388 581 396 587 408 592 C420 596 437 597 455 597 L470 677 C435 675 326 675 296 675 C262 675 189 675 126 677 L112 597 C139 596 163 593 178 583 C190 576 199 560 209 544 L316 357 L114 136 C98 119 86 108 68 96 C51 85 25 81 -5 79 L-19 -1 C40 1 102 1 128 1 C155 1 245 0 300 -1 L300 -1 Z " />
<glyph glyph-name="Y" unicode="Y" horiz-adv-x="673" d="M462 -1 L477 79 C445 81 424 84 412 88 C392 94 390 105 390 115 C390 123 392 140 395 158 L417 266 L610 493 C652 542 675 573 689 582 C701 591 716 596 738 597 L754 677 C711 675 679 675 658 675 C625 675 533 675 487 677 L471 597 C489 597 506 595 514 592 C530 587 532 580 532 572 C532 559 520 539 509 525 C467 471 424 419 384 363 C364 418 341 475 323 522 C317 537 314 551 314 563 C314 577 320 584 332 589 C344 593 361 596 387 597 L403 677 C350 676 268 675 239 675 C213 675 144 676 89 677 L73 597 C93 596 108 594 119 586 C134 576 144 556 159 520 L263 265 L240 150 C236 127 230 106 223 99 C215 89 204 83 139 79 L123 -1 C173 0 268 1 293 1 C316 1 409 0 462 -1 L462 -1 Z " />
<glyph glyph-name="Z" unicode="Z" horiz-adv-x="672" d="M645 225 L555 225 C530 164 514 143 501 131 C481 113 455 104 340 104 C305 104 260 104 234 107 L671 629 L679 676 L192 676 C147 676 125 653 118 616 C113 584 104 519 101 463 L183 463 C203 525 220 549 240 559 C264 572 284 573 433 573 L-2 46 L-9 0 L513 0 C570 0 594 21 603 46 C616 84 634 169 645 225 L645 225 Z " />
<glyph glyph-name="bracketleft" unicode="&#x5b;" horiz-adv-x="325" d="M226 -170 L237 -110 L124 -110 L280 696 L393 696 L405 754 L186 754 L6 -170 L226 -170 Z " />
<glyph glyph-name="backslash" unicode="&#x5c;" horiz-adv-x="365" d="M230 -79 L299 -68 L181 729 L114 717 L230 -79 Z " />
<glyph glyph-name="bracketright" unicode="&#x5d;" horiz-adv-x="325" d="M122 754 L111 695 L223 695 L67 -111 L-45 -111 L-57 -170 L161 -170 L341 754 L122 754 Z " />
<glyph glyph-name="asciicircum" unicode="&#x5e;" horiz-adv-x="603" d="M527 362 L451 730 L357 730 L112 361 L215 361 L384 625 L436 362 L527 362 Z " />
<glyph glyph-name="underscore" unicode="&#x5f;" horiz-adv-x="491" d="M434 -139 L446 -80 L-48 -80 L-60 -139 L434 -139 Z " />
<glyph glyph-name="grave" unicode="&#x60;" horiz-adv-x="295" d="M245 545 L163 690 C138 735 123 743 102 743 C75 743 48 722 48 692 C48 673 59 658 83 634 L203 515 L245 545 Z " />
<glyph glyph-name="a" unicode="a" horiz-adv-x="601" d="M344 68 C344 59 344 48 347 39 C357 8 378 -9 424 -9 C448 -9 499 -3 550 17 L569 100 C549 93 522 91 512 91 C489 91 482 102 482 122 C482 140 488 173 498 214 L563 481 L457 481 L435 448 C411 461 366 468 337 468 C244 468 176 439 125 387 C65 324 28 229 28 151 C28 53 78 -12 187 -12 C248 -12 303 16 344 68 L344 68 Z M341 145 C314 117 280 98 245 98 C201 98 178 125 178 172 C178 223 203 292 238 326 C263 350 298 361 328 361 C351 361 371 356 390 345 L358 224 C351 197 344 167 341 145 L341 145 Z " />
<glyph glyph-name="b" unicode="b" horiz-adv-x="574" d="M23 26 C69 4 174 -8 236 -8 C326 -8 401 17 452 71 C519 140 545 237 545 328 C545 415 511 475 412 475 C348 475 289 440 246 390 C268 473 281 540 296 605 C301 625 306 656 306 676 C306 717 278 731 245 731 C192 731 141 717 84 692 L68 616 C81 619 98 621 110 621 C130 621 145 615 145 592 C145 566 135 525 130 502 L54 155 C48 126 35 71 23 26 L23 26 Z M186 113 L231 313 C260 337 297 354 327 354 C370 354 390 335 390 285 C390 251 380 195 354 156 C333 124 298 104 255 104 C227 104 207 107 186 113 L186 113 Z " />
<glyph glyph-name="c" unicode="c" horiz-adv-x="480" d="M438 57 L400 135 C357 113 306 97 262 97 C209 97 175 121 175 196 C175 246 192 302 222 335 C243 358 268 368 295 368 C313 368 329 362 338 355 C349 346 354 328 356 292 L436 292 C445 324 454 375 454 399 C454 436 441 449 404 462 C380 470 341 474 308 474 C241 474 184 456 132 416 C60 359 29 262 29 174 C29 57 105 -14 227 -14 C304 -14 378 12 438 57 L438 57 Z " />
<glyph glyph-name="d" unicode="d" horiz-adv-x="602" d="M346 69 C346 58 347 48 348 41 C355 8 384 -9 426 -9 C450 -9 501 -4 552 17 L570 100 C551 93 523 91 514 91 C491 91 484 102 484 122 C484 133 488 161 496 198 L554 446 C574 534 599 632 599 672 C599 706 586 731 538 731 C489 731 436 718 377 692 L361 616 C371 618 394 621 403 621 C426 621 438 612 438 591 C438 576 432 542 427 520 L412 456 C389 466 353 471 326 471 C232 471 170 441 118 389 C57 327 28 235 28 153 C28 56 78 -12 190 -12 C252 -12 307 16 346 69 L346 69 Z M346 146 C320 117 280 98 246 98 C201 98 178 127 178 180 C178 227 201 294 234 329 C257 354 284 363 318 363 C346 363 371 358 390 347 L361 223 C357 204 350 175 346 146 L346 146 Z " />
<glyph glyph-name="e" unicode="e" horiz-adv-x="491" d="M462 62 L423 142 C356 109 312 97 268 97 C198 97 174 134 174 175 C174 180 174 185 176 191 C418 193 472 269 472 350 C472 420 425 474 308 474 C134 474 29 344 29 174 C29 51 108 -14 222 -14 C318 -14 398 18 462 62 L462 62 Z M186 278 C202 337 244 377 301 377 C333 377 349 366 349 342 C349 308 313 279 186 278 L186 278 Z " />
<glyph glyph-name="f" unicode="f" horiz-adv-x="357" d="M255 355 C291 355 328 356 367 358 L383 446 C336 449 302 449 271 449 L279 498 C288 551 300 583 315 600 C331 618 350 625 368 625 C379 625 393 624 401 617 C408 611 412 597 413 581 C414 572 414 563 414 554 L492 554 C498 585 507 639 507 661 C506 687 497 704 476 714 C451 725 416 731 383 731 C339 731 292 723 248 698 C194 667 159 611 138 513 C131 479 123 464 108 455 C91 444 64 438 45 435 L31 358 L113 358 L42 -55 C34 -101 24 -133 11 -150 C0 -165 -20 -174 -36 -174 C-47 -174 -59 -172 -65 -166 C-74 -158 -77 -141 -77 -112 L-150 -112 C-160 -149 -166 -181 -166 -206 C-166 -228 -155 -248 -136 -258 C-114 -268 -88 -275 -54 -275 C-4 -275 42 -263 83 -232 C131 -196 160 -144 179 -42 L255 355 Z " />
<glyph glyph-name="g" unicode="g" horiz-adv-x="533" d="M196 126 C208 124 229 123 239 123 C297 123 351 136 396 165 C447 198 476 248 476 315 C476 327 473 346 470 352 C489 352 516 353 541 355 L560 445 C526 446 488 446 413 446 C386 464 342 474 281 474 C224 474 173 462 131 434 C78 398 45 343 45 270 C45 214 72 168 125 146 C77 116 52 83 52 39 C52 19 64 -6 91 -19 C61 -31 38 -42 19 -56 C-13 -80 -31 -106 -31 -145 C-31 -214 35 -275 213 -275 C360 -275 491 -225 491 -82 C491 -24 460 25 381 38 C300 51 259 59 224 66 C185 73 176 82 176 95 C176 106 183 116 196 126 L196 126 Z M343 313 C343 285 334 266 320 248 C305 230 281 220 254 220 C217 220 184 237 184 280 C184 311 196 337 215 355 C231 369 251 377 275 377 C317 377 343 358 343 313 L343 313 Z M148 -48 C160 -54 185 -59 280 -75 C326 -82 340 -95 340 -119 C340 -145 315 -170 233 -170 C130 -170 101 -140 101 -110 C101 -80 126 -61 148 -48 L148 -48 Z " />
<glyph glyph-name="h" unicode="h" horiz-adv-x="585" d="M160 0 L229 304 C258 331 294 349 327 349 C349 349 364 340 364 315 C364 304 360 280 354 255 L328 145 C319 107 314 78 314 58 C314 14 342 -9 402 -9 C430 -9 490 -3 536 17 L554 100 C537 95 515 91 500 91 C478 91 468 98 468 122 C468 138 475 176 483 207 L503 286 C512 322 517 361 517 375 C517 438 488 472 417 472 C354 472 290 440 244 387 C265 468 283 544 296 606 C300 626 306 656 306 676 C306 717 278 731 245 731 C192 731 141 717 84 692 L68 616 C81 619 98 621 110 621 C130 621 145 615 145 592 C145 564 135 525 130 502 L21 0 L160 0 Z " />
<glyph glyph-name="i" unicode="i" horiz-adv-x="326" d="M293 100 C275 95 253 91 239 91 C216 91 206 98 206 122 C206 138 214 176 222 206 L241 282 C250 320 262 377 262 394 C262 447 239 470 182 470 C137 470 87 451 47 431 L31 356 C43 358 61 359 73 359 C94 359 106 351 106 328 C106 315 99 289 92 258 L66 145 C57 108 52 79 52 59 C52 14 81 -9 140 -9 C168 -9 228 -3 274 17 L293 100 Z M292 646 C292 687 268 720 216 720 C164 720 128 679 128 630 C128 589 157 554 204 554 C258 554 292 595 292 646 L292 646 Z " />
<glyph glyph-name="j" unicode="j" horiz-adv-x="316" d="M-83 -275 C-19 -268 62 -231 98 -194 C143 -147 168 -89 193 31 C207 94 230 198 247 288 C254 324 264 380 264 394 C264 447 242 470 188 470 C145 470 89 451 50 431 L34 356 C47 358 64 359 76 359 C97 359 108 351 108 328 C108 316 104 285 98 257 C84 186 69 110 51 31 C34 -44 19 -102 -2 -134 C-24 -166 -61 -184 -103 -196 L-83 -275 Z M296 646 C296 687 273 720 220 720 C169 720 132 679 132 630 C132 589 161 554 209 554 C263 554 296 595 296 646 L296 646 Z " />
<glyph glyph-name="k" unicode="k" horiz-adv-x="573" d="M160 0 C169 35 282 544 296 599 C301 619 306 656 306 676 C306 717 278 731 245 731 C192 731 141 717 84 692 L68 616 C81 619 98 621 110 621 C130 621 145 615 145 592 C145 564 135 525 130 502 L21 0 L160 0 Z M532 15 L550 98 C533 94 519 91 499 91 C470 91 447 108 434 127 C413 155 381 202 351 274 C366 291 383 308 403 325 C426 344 445 351 458 351 C471 351 478 344 480 328 L547 328 C553 355 560 399 560 413 C560 448 534 472 492 472 C442 472 400 452 349 402 C315 369 274 320 229 252 C251 181 290 87 329 38 C354 7 385 -9 443 -9 C478 -9 519 6 532 15 L532 15 Z " />
<glyph glyph-name="l" unicode="l" horiz-adv-x="310" d="M262 17 L281 100 C263 95 242 91 226 91 C204 91 194 98 194 122 C194 138 202 176 209 206 L283 536 C293 581 306 649 306 671 C306 714 291 731 236 731 C192 731 126 711 86 692 L69 616 C83 618 100 621 114 621 C135 621 146 612 146 589 C146 574 138 529 127 481 L53 145 C45 108 40 79 40 59 C40 14 68 -9 127 -9 C156 -9 216 -3 262 17 L262 17 Z " />
<glyph glyph-name="m" unicode="m" horiz-adv-x="863" d="M177 0 L229 223 C236 254 242 284 245 304 C274 329 308 349 340 349 C362 349 373 338 373 313 C373 302 370 281 365 261 L306 0 L447 0 L504 248 C509 271 513 292 516 310 C546 335 577 349 608 349 C630 349 642 338 642 313 C642 302 639 281 634 261 L606 146 C597 108 592 78 592 58 C592 14 620 -9 680 -9 C706 -9 771 -3 814 17 L833 100 C815 95 792 91 776 91 C754 91 746 100 746 123 C746 140 754 176 762 207 L783 293 C791 329 795 361 795 376 C795 436 765 472 693 472 C633 472 567 438 519 382 C517 450 484 472 427 472 C369 472 300 433 253 381 C254 388 256 402 256 412 C256 455 232 471 194 471 C150 471 89 452 48 431 L32 356 C42 358 56 360 68 360 C92 360 106 352 106 328 C106 309 99 274 90 233 L39 0 L177 0 Z " />
<glyph glyph-name="n" unicode="n" horiz-adv-x="602" d="M177 0 L229 223 C236 255 243 283 246 304 C275 331 311 349 344 349 C366 349 380 340 380 315 C380 304 377 280 371 255 L345 145 C336 107 331 78 331 58 C331 14 359 -9 418 -9 C447 -9 507 -3 553 17 L572 100 C554 95 533 91 517 91 C495 91 485 98 485 122 C485 138 492 176 500 207 L520 286 C529 322 534 361 534 375 C534 438 505 472 434 472 C371 472 299 433 253 381 C256 390 256 402 256 414 C256 458 228 471 194 471 C150 471 88 451 48 431 L32 356 C42 358 55 360 69 360 C92 360 106 352 106 327 C106 307 95 259 87 224 L39 0 L177 0 Z " />
<glyph glyph-name="o" unicode="o" horiz-adv-x="548" d="M521 293 C521 423 420 474 305 474 C222 474 154 447 107 397 C49 336 29 249 29 176 C29 40 125 -14 241 -14 C319 -14 393 12 440 63 C498 124 521 220 521 293 L521 293 Z M373 284 C373 241 362 177 340 140 C322 111 295 93 256 93 C193 93 175 136 175 185 C175 233 186 294 213 331 C232 355 258 368 293 368 C345 368 373 342 373 284 L373 284 Z " />
<glyph glyph-name="p" unicode="p" horiz-adv-x="592" d="M118 -261 L175 -2 C199 -6 230 -8 254 -8 C344 -8 418 18 469 72 C535 142 563 239 563 329 C563 415 529 474 431 474 C361 474 292 429 252 382 C253 390 254 401 254 413 C254 456 228 471 193 471 C149 471 88 451 47 431 L31 356 C41 358 55 360 68 360 C92 360 105 352 105 327 C105 308 97 267 89 231 L-20 -261 L118 -261 Z M203 114 L232 243 C237 264 242 287 244 304 C273 329 312 354 345 354 C387 354 408 335 408 285 C408 251 398 195 372 156 C351 124 315 104 273 104 C244 104 225 108 203 114 L203 114 Z " />
<glyph glyph-name="q" unicode="q" horiz-adv-x="590" d="M393 -261 L512 268 C523 318 534 367 553 437 C479 466 392 475 357 475 C237 475 169 442 118 389 C57 327 27 235 27 153 C27 56 74 -12 186 -12 C235 -12 291 6 325 48 L254 -261 L393 -261 Z M343 146 C318 117 280 99 246 99 C200 99 178 127 178 180 C178 228 201 293 233 329 C255 354 284 364 317 364 C345 364 371 361 390 352 L343 146 Z " />
<glyph glyph-name="r" unicode="r" horiz-adv-x="446" d="M177 0 L220 186 C230 231 238 273 242 293 C258 323 290 354 320 354 C345 354 352 339 353 311 L431 311 C446 354 453 395 453 422 C453 456 429 472 392 472 C326 472 271 418 247 381 C249 391 249 402 249 414 C249 458 223 471 189 471 C144 471 82 451 42 431 L26 356 C35 358 50 360 63 360 C86 360 99 351 99 326 C99 297 93 250 85 214 L39 0 L177 0 Z " />
<glyph glyph-name="s" unicode="s" horiz-adv-x="473" d="M36 174 C28 140 22 108 22 75 C22 44 32 20 75 4 C99 -6 145 -14 191 -14 C308 -14 421 22 421 149 C421 194 397 234 319 269 L239 304 C216 314 209 325 209 340 C210 365 231 377 271 377 C300 377 319 374 332 365 C344 356 353 339 355 303 L426 303 C432 332 439 376 439 394 C439 425 432 440 411 452 C386 466 334 474 292 474 C178 474 67 436 67 318 C67 273 87 229 168 192 L248 155 C270 144 277 133 277 117 C277 97 260 81 208 81 C178 81 146 90 130 105 C119 116 107 134 107 174 L36 174 Z " />
<glyph glyph-name="t" unicode="t" horiz-adv-x="360" d="M330 21 L316 107 C292 101 274 98 254 98 C225 98 209 116 209 143 C209 171 215 201 222 237 L246 355 C281 355 319 356 359 358 L375 446 C327 449 291 449 264 449 C280 527 284 549 284 559 C284 587 268 597 239 597 C205 597 184 579 170 551 C155 521 146 504 131 479 C124 466 113 456 99 450 C77 441 55 437 38 434 L24 358 L107 358 C90 282 81 234 68 168 C63 144 58 115 58 93 C58 23 101 -12 168 -12 C225 -12 285 0 330 21 L330 21 Z " />
<glyph glyph-name="u" unicode="u" horiz-adv-x="600" d="M551 15 L570 97 C558 94 528 88 514 88 C492 88 483 96 483 119 C483 140 497 202 505 237 L554 460 L415 460 L363 237 C356 206 350 177 347 156 C317 130 281 111 249 111 C226 111 211 121 211 146 C211 156 215 180 221 205 L248 315 C257 350 263 391 263 405 C263 449 245 469 188 469 C155 469 91 452 46 429 L30 354 C42 356 54 358 68 358 C90 358 103 352 103 327 C103 311 99 286 92 255 L72 175 C63 138 58 100 58 85 C58 23 94 -12 165 -12 C228 -12 298 16 345 68 C345 60 346 48 348 39 C355 3 388 -12 422 -12 C465 -12 506 -3 551 15 L551 15 Z " />
<glyph glyph-name="v" unicode="v" horiz-adv-x="564" d="M23 356 C35 358 48 360 61 360 C82 360 97 354 97 330 C97 313 94 287 88 255 L73 174 C67 142 63 108 63 85 C63 23 105 -14 176 -14 C247 -14 331 10 411 89 C480 158 531 283 531 384 C531 437 514 471 450 471 C418 471 366 460 327 435 L312 358 C323 360 338 362 354 362 C387 362 403 354 403 318 C403 287 385 206 340 154 C316 126 277 106 245 106 C224 106 209 115 209 139 C209 151 213 175 218 202 L239 317 C246 353 252 393 252 407 C252 450 236 471 182 471 C151 471 83 455 40 431 L23 356 Z " />
<glyph glyph-name="w" unicode="w" horiz-adv-x="818" d="M23 356 C35 358 48 360 61 360 C82 360 97 354 97 330 C97 313 94 287 88 255 L73 174 C67 142 63 108 63 85 C63 23 106 -14 171 -14 C221 -14 288 7 341 90 C342 70 346 44 351 32 C364 -1 393 -14 435 -14 C504 -14 587 11 667 89 C737 158 786 279 786 382 C786 435 771 471 702 471 C672 471 625 460 586 435 L571 358 C582 360 597 362 609 362 C641 362 657 354 657 318 C657 287 641 206 595 154 C570 126 541 106 511 106 C490 106 476 115 476 139 C476 151 478 178 483 210 L521 443 L386 443 L341 180 C334 168 323 153 309 140 C289 120 263 106 243 106 C221 106 211 115 211 139 C211 151 215 175 220 202 L241 317 C248 353 254 393 254 407 C254 450 238 471 180 471 C148 471 84 453 40 431 L23 356 Z " />
<glyph glyph-name="x" unicode="x" horiz-adv-x="557" d="M499 16 L514 96 C495 87 472 80 455 80 C429 80 411 93 399 117 C384 146 363 205 352 238 C372 270 391 296 409 317 C428 340 442 342 453 342 C463 342 472 337 474 315 L550 315 C557 341 561 383 561 403 C561 454 528 468 484 468 C459 468 417 460 382 420 C364 401 335 361 320 336 C312 355 306 378 295 403 C277 445 261 469 211 469 C166 469 119 447 86 426 L73 348 C88 356 113 364 127 364 C148 364 161 358 180 319 C188 302 203 261 209 241 C180 195 161 166 135 135 C116 113 103 111 92 111 C80 111 75 123 74 143 L0 143 C-4 123 -9 87 -9 55 C-9 24 13 -13 71 -13 C114 -13 149 -1 181 37 C208 70 227 101 247 135 C254 116 262 89 272 66 C291 22 319 -12 389 -12 C422 -12 470 -2 499 16 L499 16 Z " />
<glyph glyph-name="y" unicode="y" horiz-adv-x="591" d="M33 -89 C25 -121 18 -173 18 -195 C18 -222 29 -235 49 -248 C76 -265 127 -272 172 -272 C253 -272 325 -254 375 -203 C414 -164 445 -101 468 20 C496 168 523 313 554 460 L414 460 L346 158 C316 131 280 111 248 111 C225 111 212 121 212 146 C212 156 216 180 222 205 L248 315 C256 350 263 391 263 405 C263 449 245 469 188 469 C155 469 91 452 46 429 L30 354 C42 356 54 358 68 358 C90 358 103 352 103 327 C103 311 99 286 92 255 L73 175 C65 138 59 100 59 85 C59 23 93 -12 165 -12 C239 -12 290 20 334 63 C329 42 319 -3 311 -34 C299 -80 285 -115 263 -140 C246 -159 214 -167 186 -167 C158 -167 134 -159 124 -148 C118 -140 114 -131 112 -116 C111 -107 111 -98 111 -89 L33 -89 Z " />
<glyph glyph-name="z" unicode="z" horiz-adv-x="526" d="M-1 0 L401 0 C448 0 466 21 472 47 C484 92 496 163 499 185 L426 185 C417 162 408 141 400 127 C391 112 376 97 363 92 C348 86 325 81 283 81 C262 81 240 81 210 82 L491 406 L501 460 L131 460 C86 460 66 432 60 394 C55 361 54 314 53 288 L129 288 C138 318 145 338 155 353 C164 367 178 374 196 375 C221 377 256 377 292 377 L7 50 L-1 0 Z " />
<glyph glyph-name="braceleft" unicode="&#x7b;" horiz-adv-x="318" d="M223 -184 L235 -124 C170 -124 147 -103 147 -54 C147 -37 149 -15 154 11 L184 159 C188 177 189 191 189 205 C189 267 152 289 97 302 C173 320 221 348 239 443 L265 573 C287 684 309 714 399 714 L410 773 C237 773 184 705 164 597 L143 484 C122 374 102 343 22 336 L11 275 C64 271 85 247 85 200 C85 183 82 162 77 138 L48 -14 C45 -32 43 -47 43 -62 C43 -146 100 -184 223 -184 L223 -184 Z " />
<glyph glyph-name="bar" unicode="&#x7c;" horiz-adv-x="271" d="M98 -183 L283 769 L191 769 L6 -183 L98 -183 Z " />
<glyph glyph-name="braceright" unicode="&#x7d;" horiz-adv-x="318" d="M105 713 C170 713 193 691 193 643 C193 625 190 604 185 578 L155 429 C152 411 150 397 150 384 C150 322 188 299 243 287 C167 269 120 241 101 146 L76 15 C54 -95 32 -126 -59 -126 L-69 -184 C103 -184 156 -116 176 -9 L197 105 C217 214 238 245 318 252 L330 313 C276 318 255 341 255 388 C255 406 257 426 262 451 L291 602 C294 620 297 636 297 651 C297 734 239 773 117 773 L105 713 Z " />
<glyph glyph-name="asciitilde" unicode="&#x7e;" horiz-adv-x="588" d="M111 194 C146 243 176 262 213 262 C235 262 256 253 307 221 C346 196 371 189 403 189 C453 189 504 223 556 289 L506 349 C462 294 436 281 405 281 C384 281 365 289 332 309 C264 350 246 354 217 354 C165 354 115 325 60 257 L111 194 Z " />
<glyph glyph-name="exclamdown" unicode="&#xa1;" horiz-adv-x="304" d="M122 275 C46 50 11 -55 -2 -104 C-5 -116 -9 -135 -9 -148 C-9 -181 17 -206 67 -206 C131 -206 153 -168 159 -128 C165 -92 173 8 186 275 L122 275 Z M93 420 C93 376 125 346 172 346 C222 346 255 388 255 431 C255 477 226 509 179 509 C127 509 93 474 93 420 L93 420 Z " />
<glyph glyph-name="cent" unicode="&#xa2;" horiz-adv-x="495" d="M256 -115 L278 -1 C335 5 399 27 445 61 L414 136 C374 117 336 105 298 104 L347 358 C356 356 364 353 369 349 C377 341 385 320 385 290 L462 290 C471 320 481 368 481 390 C481 422 467 440 434 450 C415 456 391 460 368 462 L388 566 L331 566 L311 462 C247 457 196 436 153 398 C89 342 56 255 56 176 C56 73 121 3 220 -3 L199 -115 L256 -115 Z M198 192 C198 239 210 289 236 322 C251 341 270 351 290 356 L243 112 C216 124 198 148 198 192 L198 192 Z " />
<glyph glyph-name="sterling" unicode="&#xa3;" horiz-adv-x="626" d="M599 197 L528 197 C515 168 504 146 490 131 C476 117 428 114 360 114 C328 114 265 113 220 112 C289 154 315 201 323 263 L464 263 L480 345 L329 345 C329 368 332 417 334 442 C342 527 378 562 445 562 C480 562 502 556 514 541 C522 530 530 501 530 465 L604 465 C611 493 624 560 624 587 C624 623 612 639 585 651 C562 661 518 670 467 670 C287 670 183 583 183 415 C183 396 183 361 185 345 L98 345 L82 263 L182 263 C172 157 130 104 24 83 L9 0 L496 0 C531 0 553 12 561 35 C574 69 592 161 599 197 L599 197 Z " />
<glyph glyph-name="currency" unicode="&#xa4;" horiz-adv-x="614" d="M524 61 L591 130 L524 199 C551 236 563 280 563 329 C563 381 550 428 524 461 L590 529 L524 599 L458 531 C419 558 376 570 330 570 C283 570 238 557 202 531 L135 599 L68 529 L136 461 C111 424 96 381 96 329 C96 280 110 235 136 198 L68 130 L135 60 L201 128 C238 101 283 90 329 90 C376 90 419 101 458 129 L524 61 Z M467 329 C467 247 409 182 330 182 C249 182 191 246 191 332 C191 413 250 476 330 476 C409 476 467 412 467 329 L467 329 Z " />
<glyph glyph-name="yen" unicode="&#xa5;" horiz-adv-x="685" d="M570 184 L581 244 L417 244 L419 257 L459 304 L593 304 L605 364 L508 364 L595 466 C644 524 665 548 679 558 C692 567 708 572 729 573 L746 655 C704 654 645 654 625 654 C595 654 526 654 481 655 L465 573 C511 572 525 565 525 549 C525 538 518 521 500 499 C462 451 424 402 388 353 C369 400 350 447 331 492 C324 508 318 528 318 541 C318 561 332 572 386 573 L402 655 C351 654 271 654 244 654 C218 654 155 654 101 655 L84 573 C109 571 122 568 132 560 C146 549 154 533 167 500 L224 364 L132 364 L120 304 L250 304 L270 257 L268 244 L109 244 L97 184 L257 184 L249 149 C245 128 240 108 234 102 C224 91 219 85 148 81 L133 -1 C182 0 274 1 299 1 C323 1 415 0 466 -1 L482 81 C405 84 395 94 395 114 C395 123 396 134 399 150 L406 184 L570 184 Z " />
<glyph glyph-name="brokenbar" unicode="&#xa6;" horiz-adv-x="271" d="M205 367 L271 705 L179 705 L112 367 L205 367 Z M111 -119 L176 218 L84 218 L19 -119 L111 -119 Z " />
<glyph glyph-name="section" unicode="&#xa7;" horiz-adv-x="514" d="M17 -14 C9 -52 4 -96 4 -118 C4 -139 16 -157 36 -169 C62 -185 112 -195 153 -195 C326 -195 398 -97 398 -10 C398 29 390 67 347 112 C477 164 495 237 495 280 C495 330 473 367 404 431 L350 481 C305 522 294 542 294 565 C294 605 326 622 363 622 C384 622 403 617 412 608 C423 598 429 578 432 550 L505 550 C515 583 521 637 521 655 C521 673 512 688 495 697 C468 712 422 720 382 720 C214 720 163 625 163 552 C163 524 173 477 198 446 C89 406 48 349 48 279 C48 240 64 196 112 145 L189 65 C237 16 255 -9 255 -37 C255 -76 219 -98 173 -98 C148 -98 126 -89 116 -78 C103 -63 96 -47 94 -14 L17 -14 Z M303 162 C294 172 283 184 269 198 L225 244 C190 280 177 301 177 324 C177 364 203 380 235 395 C242 386 253 374 263 364 L307 322 C349 282 365 260 365 236 C365 204 347 183 303 162 L303 162 Z " />
<glyph glyph-name="dieresis" unicode="&#xa8;" horiz-adv-x="291" d="M122 623 C122 655 99 681 64 681 C26 681 0 648 0 614 C0 577 22 552 57 552 C96 552 122 580 122 623 L122 623 Z M292 623 C292 655 269 681 233 681 C196 681 169 648 169 614 C169 577 191 552 226 552 C265 552 292 580 292 623 L292 623 Z " />
<glyph glyph-name="copyright" unicode="&#xa9;" horiz-adv-x="787" d="M767 342 C767 535 611 690 417 690 C219 690 63 534 63 339 C63 138 215 -16 419 -16 C614 -16 767 140 767 342 L767 342 Z M712 336 C712 163 586 30 420 30 C250 30 118 166 118 339 C118 512 247 647 418 647 C589 647 712 512 712 336 L712 336 Z M576 258 L517 258 C507 232 498 218 488 209 C476 199 455 191 419 191 C367 191 316 224 316 312 C316 359 328 398 351 429 C376 461 412 475 448 475 C481 475 497 470 508 456 C512 450 519 433 519 408 L576 408 C581 425 588 467 588 487 C588 505 581 520 561 528 C543 536 504 543 458 543 C377 543 316 519 274 471 C231 423 211 362 211 301 C211 192 279 123 399 123 C447 123 491 132 511 139 C532 146 548 158 555 170 C562 184 567 208 576 258 L576 258 Z " />
<glyph glyph-name="ordfeminine" unicode="&#xaa;" horiz-adv-x="373" d="M248 321 C248 315 249 308 250 304 C255 284 270 271 299 271 C315 271 347 276 380 288 L391 343 C379 339 362 337 356 337 C342 337 335 344 335 357 C335 369 341 389 347 416 L388 586 L320 586 L307 566 C292 573 262 578 245 578 C186 578 143 560 111 526 C73 486 50 426 50 375 C50 311 80 270 150 270 C188 270 221 287 248 321 L248 321 Z M246 372 C230 354 208 342 186 342 C160 342 145 361 145 389 C145 422 162 465 184 487 C200 502 220 508 239 508 C252 508 265 505 278 497 L258 422 C253 405 248 385 246 372 L246 372 Z " />
<glyph glyph-name="guillemotleft" unicode="&#xab;" horiz-adv-x="487" d="M225 60 L133 220 L294 379 L254 429 L46 274 C24 257 12 241 12 219 C12 202 20 188 28 179 L172 18 L225 60 Z M429 60 L338 220 L499 379 L457 429 L251 274 C229 257 217 241 217 219 C217 202 224 189 233 179 L377 18 L429 60 Z " />
<glyph glyph-name="logicalnot" unicode="&#xac;" horiz-adv-x="596" d="M475 75 L539 360 L95 360 L75 269 L435 269 L390 75 L475 75 Z " />
<glyph glyph-name="uni00AD" unicode="&#xad;" horiz-adv-x="280" d="M267 296 L44 296 L26 201 L249 201 L267 296 Z " />
<glyph glyph-name="registered" unicode="&#xae;" horiz-adv-x="787" d="M767 342 C767 535 611 690 417 690 C219 690 63 534 63 339 C63 138 215 -16 419 -16 C614 -16 767 140 767 342 L767 342 Z M712 336 C712 163 586 30 420 30 C250 30 118 166 118 339 C118 512 247 647 418 647 C589 647 712 512 712 336 L712 336 Z M600 147 L609 198 C598 199 586 201 579 205 C567 211 557 222 547 235 C531 257 517 279 500 311 C559 329 601 369 601 439 C601 482 578 516 526 531 C505 537 462 543 418 543 L274 543 L264 494 C274 494 293 493 300 491 C310 489 313 484 313 476 C313 471 312 464 310 452 L270 240 C265 211 260 207 253 203 C245 199 231 198 213 198 L203 147 C235 147 270 148 290 148 C303 148 371 147 400 147 L411 198 C395 198 382 200 376 201 C365 202 361 208 361 216 C361 222 364 231 366 245 L377 302 C383 301 395 300 407 300 C425 249 444 206 468 181 C483 165 506 146 564 146 C576 146 595 147 600 147 L600 147 Z M389 367 L410 474 L427 474 C447 474 466 472 479 467 C494 460 502 445 502 425 C502 381 462 366 424 366 C416 366 397 366 389 367 L389 367 Z " />
<glyph glyph-name="macron" unicode="&#xaf;" horiz-adv-x="291" d="M270 548 L286 630 L20 630 L4 548 L270 548 Z " />
<glyph glyph-name="degree" unicode="&#xb0;" horiz-adv-x="347" d="M240 703 C166 703 104 651 104 567 C104 484 164 437 237 437 C310 437 371 487 371 570 C371 657 312 703 240 703 L240 703 Z M238 652 C288 652 317 617 317 568 C317 523 287 487 237 487 C188 487 161 523 161 569 C161 617 193 652 238 652 L238 652 Z " />
<glyph glyph-name="plusminus" unicode="&#xb1;" horiz-adv-x="596" d="M329 191 L371 381 L551 381 L569 467 L390 467 L434 657 L350 657 L305 467 L124 467 L105 381 L286 381 L243 191 L329 191 Z M479 39 L500 127 L55 127 L33 39 L479 39 Z " />
<glyph glyph-name="twosuperior" unicode="&#xb2;" horiz-adv-x="416" d="M446 559 L393 559 C388 544 378 529 374 524 C364 510 345 508 309 507 C290 506 250 506 224 506 C359 576 445 644 445 733 C445 790 411 837 310 837 C268 837 229 829 207 820 C176 806 160 791 156 766 C154 752 151 717 150 695 L212 695 C219 729 225 739 234 746 C243 753 258 757 278 757 C316 757 329 737 329 710 C329 650 251 598 87 486 L75 421 L367 421 C401 421 413 435 420 450 C431 474 440 527 446 559 L446 559 Z " />
<glyph glyph-name="threesuperior" unicode="&#xb3;" horiz-adv-x="416" d="M118 554 C111 527 105 501 105 469 C105 450 115 435 133 428 C150 421 186 413 234 413 C334 413 437 445 437 550 C437 589 410 623 352 633 C412 650 449 682 449 745 C449 790 415 837 313 837 C264 837 222 825 202 815 C179 804 166 787 162 765 C160 752 156 717 156 702 L217 702 C224 726 232 739 242 746 C254 755 269 757 292 757 C320 757 335 742 335 720 C335 685 305 668 275 664 C258 662 245 662 229 662 L214 589 C230 589 247 589 262 588 C304 585 321 569 321 545 C321 507 280 495 245 495 C217 495 198 498 189 509 C182 516 177 530 176 554 L118 554 Z " />
<glyph glyph-name="acute" unicode="&#xb4;" horiz-adv-x="295" d="M72 515 L211 614 C242 636 258 652 258 674 C258 704 233 726 206 726 C188 726 171 717 144 684 L36 553 L72 515 Z " />
<glyph glyph-name="mu" unicode="&#xb5;" horiz-adv-x="625" d="M183 16 C191 4 210 -3 236 -3 C283 -3 326 23 361 68 C361 60 362 47 364 38 C373 3 403 -12 438 -12 C481 -12 522 -3 566 15 L585 97 C574 94 543 88 530 88 C508 88 499 96 499 119 C499 141 513 200 521 237 L570 460 L431 460 L378 237 C372 209 365 176 361 153 C332 127 296 109 263 109 C241 109 226 118 226 144 C226 154 230 178 236 203 L264 315 C272 350 279 391 279 405 C279 449 261 469 204 469 C171 469 107 452 62 429 L46 354 C57 356 70 358 84 358 C106 358 119 352 119 327 C119 311 115 285 108 255 L16 -164 C13 -176 11 -190 11 -198 C11 -222 25 -246 75 -246 C121 -246 146 -229 153 -192 C158 -170 171 -80 183 16 L183 16 Z " />
<glyph glyph-name="paragraph" unicode="&#xb6;" horiz-adv-x="556" d="M117 -258 C274 -221 350 -147 385 -41 C395 -13 416 93 423 130 C447 250 463 350 495 510 C503 553 508 571 519 580 C528 589 541 592 598 593 L613 676 L429 676 C219 676 67 569 67 371 C67 235 161 154 286 154 C297 154 309 154 320 155 L316 134 C303 67 290 9 281 -26 C256 -117 193 -162 102 -192 L117 -258 Z " />
<glyph glyph-name="periodcentered" unicode="&#xb7;" horiz-adv-x="225" d="M197 255 C197 298 166 329 119 329 C69 329 36 287 36 244 C36 198 65 165 111 165 C164 165 197 201 197 255 L197 255 Z " />
<glyph glyph-name="cedilla" unicode="&#xb8;" horiz-adv-x="291" d="M42 -282 C131 -272 252 -235 252 -141 C252 -112 237 -90 199 -67 C192 -62 185 -57 185 -46 C185 -34 199 -9 209 5 L147 5 C129 -25 107 -62 107 -81 C107 -90 111 -99 122 -106 C144 -120 154 -138 154 -156 C154 -199 105 -212 40 -226 L42 -282 Z " />
<glyph glyph-name="onesuperior" unicode="&#xb9;" horiz-adv-x="416" d="M391 420 L402 479 C383 480 363 482 354 484 C339 487 333 493 333 504 C333 510 334 516 337 531 L358 632 C365 666 380 737 384 761 C388 782 389 796 389 804 C389 829 374 838 354 838 C336 838 315 833 296 828 C267 820 213 804 185 793 L195 728 C210 731 234 735 246 735 C256 735 263 731 263 719 C263 706 259 687 254 660 L228 531 C224 510 220 498 214 493 C206 487 195 482 145 479 L135 420 C162 421 251 422 265 422 C280 422 363 421 391 420 L391 420 Z " />
<glyph glyph-name="ordmasculine" unicode="&#xba;" horiz-adv-x="388" d="M394 466 C394 538 347 585 259 585 C205 585 157 568 123 536 C83 499 66 444 66 396 C66 309 137 270 210 270 C262 270 312 290 345 327 C381 366 394 418 394 466 L394 466 Z M298 459 C298 431 290 397 274 373 C261 355 242 344 216 344 C181 344 161 366 161 404 C161 432 170 464 187 485 C201 503 221 513 245 513 C281 513 298 496 298 459 L298 459 Z " />
<glyph glyph-name="guillemotright" unicode="&#xbb;" horiz-adv-x="487" d="M268 387 L359 226 L198 68 L240 18 L446 173 C468 190 481 205 481 228 C481 244 473 258 465 267 L321 429 L268 387 Z M63 387 L155 226 L-6 68 L35 18 L242 173 C264 190 276 205 276 228 C276 244 268 258 260 267 L116 429 L63 387 Z " />
<glyph glyph-name="onequarter" unicode="&#xbc;" horiz-adv-x="903" d="M617 669 L257 29 L315 -3 L674 640 L617 669 Z M333 251 L345 311 C325 312 309 314 296 316 C283 318 276 325 276 336 C276 342 278 352 281 366 L308 502 C314 534 323 572 326 593 C329 613 331 628 331 635 C331 661 316 669 297 669 C278 669 250 662 240 659 C210 651 155 635 128 625 L137 559 C154 563 177 566 190 566 C198 566 205 562 205 550 C205 537 202 517 197 491 L171 362 C167 341 163 330 157 324 C149 318 137 313 88 311 L77 251 C104 252 194 254 208 254 C223 254 306 252 333 251 L333 251 Z M783 0 L794 58 C773 59 761 59 749 62 C739 64 735 70 735 80 C735 85 735 91 737 99 L739 110 L804 110 L819 186 L754 186 C779 313 788 364 788 379 C788 408 766 418 745 418 C705 418 687 403 653 367 L460 163 L451 110 L634 110 L632 99 C629 86 627 77 620 70 C614 64 602 60 561 58 L551 0 C578 1 643 2 657 2 C673 2 756 1 783 0 L783 0 Z M648 183 L557 183 L677 311 C669 284 660 243 648 183 L648 183 Z " />
<glyph glyph-name="onehalf" unicode="&#xbd;" horiz-adv-x="903" d="M599 669 L239 29 L297 -3 L656 640 L599 669 Z M320 251 L332 311 C312 312 296 314 283 316 C270 318 263 325 263 336 C263 342 265 352 268 366 L295 502 C301 534 310 572 313 593 C316 613 318 628 318 635 C318 661 303 669 284 669 C265 669 237 662 227 659 C197 651 142 635 115 625 L124 559 C141 563 164 566 177 566 C185 566 192 562 192 550 C192 537 189 517 184 491 L158 362 C154 341 150 330 144 324 C136 318 124 313 75 311 L64 251 C91 252 181 254 195 254 C210 254 293 252 320 251 L320 251 Z M837 139 L784 139 C779 124 769 109 765 104 C755 90 736 88 700 87 C681 86 641 86 615 86 C750 156 836 224 836 313 C836 370 802 417 701 417 C659 417 620 409 598 400 C567 386 551 371 547 346 C545 332 542 297 541 275 L603 275 C610 309 616 319 625 326 C634 333 649 337 669 337 C707 337 720 317 720 290 C720 230 642 178 478 66 L466 1 L758 1 C792 1 804 15 811 30 C822 54 831 107 837 139 L837 139 Z " />
<glyph glyph-name="threequarters" unicode="&#xbe;" horiz-adv-x="903" d="M645 669 L285 29 L343 -3 L702 640 L645 669 Z M97 385 C90 358 84 332 84 300 C84 281 95 267 113 260 C130 254 165 244 214 244 C314 244 416 276 416 382 C416 420 390 454 331 464 C392 482 429 513 429 576 C429 622 395 668 293 668 C243 668 202 655 183 646 C159 635 145 618 141 595 C139 583 136 549 136 533 L197 533 C203 557 212 570 222 577 C235 586 249 589 271 589 C299 589 314 573 314 551 C314 517 285 500 255 496 C238 494 225 494 210 494 L194 420 C210 420 227 420 241 419 C284 417 301 400 301 377 C301 338 260 326 226 326 C196 326 177 329 168 340 C161 348 157 361 156 385 L97 385 Z M803 0 L814 58 C793 59 781 59 769 62 C759 64 755 70 755 80 C755 85 755 91 757 99 L759 110 L824 110 L839 186 L774 186 C799 313 808 364 808 379 C808 408 786 418 765 418 C725 418 707 403 673 367 L480 163 L471 110 L654 110 L652 99 C649 86 647 77 640 70 C634 64 622 60 581 58 L571 0 C598 1 663 2 677 2 C693 2 776 1 803 0 L803 0 Z M668 183 L577 183 L697 311 C689 284 680 243 668 183 L668 183 Z " />
<glyph glyph-name="questiondown" unicode="&#xbf;" horiz-adv-x="465" d="M287 285 C281 265 279 253 274 239 C265 209 247 190 213 176 C102 132 0 77 0 -50 C0 -127 53 -197 190 -198 C245 -198 295 -189 330 -176 C363 -163 385 -141 392 -105 C397 -79 400 -41 400 -20 L316 -20 C307 -55 298 -75 284 -85 C268 -95 246 -97 222 -97 C170 -97 154 -56 154 -26 C154 37 208 68 259 87 C315 107 336 129 344 170 C349 192 355 238 358 285 L287 285 Z M251 420 C251 377 283 347 329 347 C380 347 413 388 413 432 C413 479 383 510 338 510 C285 510 251 474 251 420 L251 420 Z " />
<glyph glyph-name="Agrave" unicode="&#xc0;" horiz-adv-x="759" d="M282 -1 L298 81 C258 82 233 86 222 91 C209 98 208 107 208 115 C208 127 219 152 235 178 L257 213 L465 213 L471 173 C474 152 474 134 474 126 C474 104 468 93 446 88 C433 85 413 82 386 81 L371 -1 C423 0 537 1 564 1 C589 1 659 0 704 -1 L720 81 C689 82 667 88 661 93 C645 107 638 123 631 164 L555 622 C547 669 520 693 471 693 C420 693 388 668 358 616 L111 190 C73 126 63 113 47 100 C34 88 19 82 -20 81 L-35 -1 C8 0 62 1 83 1 C106 1 237 0 282 -1 L282 -1 Z M307 321 C371 434 394 475 421 528 C427 471 431 432 449 321 L307 321 Z M553 755 L446 881 C415 918 402 925 381 925 C355 925 329 902 329 872 C329 854 344 833 373 814 L517 718 L553 755 Z " />
<glyph glyph-name="Aacute" unicode="&#xc1;" horiz-adv-x="759" d="M282 -1 L298 81 C258 82 233 86 222 91 C209 98 208 107 208 115 C208 127 219 152 235 178 L257 213 L465 213 L471 173 C474 152 474 134 474 126 C474 104 468 93 446 88 C433 85 413 82 386 81 L371 -1 C423 0 537 1 564 1 C589 1 659 0 704 -1 L720 81 C689 82 667 88 661 93 C645 107 638 123 631 164 L555 622 C547 669 520 693 471 693 C420 693 388 668 358 616 L111 190 C73 126 63 113 47 100 C34 88 19 82 -20 81 L-35 -1 C8 0 62 1 83 1 C106 1 237 0 282 -1 L282 -1 Z M307 321 C371 434 394 475 421 528 C427 471 431 432 449 321 L307 321 Z M402 716 L565 794 C601 812 617 833 617 853 C617 884 595 905 568 905 C550 905 536 899 505 872 L372 760 L402 716 Z " />
<glyph glyph-name="Acircumflex" unicode="&#xc2;" horiz-adv-x="759" d="M282 -1 L298 81 C258 82 233 86 222 91 C209 98 208 107 208 115 C208 127 219 152 235 178 L257 213 L465 213 L471 173 C474 152 474 134 474 126 C474 104 468 93 446 88 C433 85 413 82 386 81 L371 -1 C423 0 537 1 564 1 C589 1 659 0 704 -1 L720 81 C689 82 667 88 661 93 C645 107 638 123 631 164 L555 622 C547 669 520 693 471 693 C420 693 388 668 358 616 L111 190 C73 126 63 113 47 100 C34 88 19 82 -20 81 L-35 -1 C8 0 62 1 83 1 C106 1 237 0 282 -1 L282 -1 Z M307 321 C371 434 394 475 421 528 C427 471 431 432 449 321 L307 321 Z M630 750 L535 884 C523 900 513 909 492 909 C474 909 459 900 442 884 L304 752 L337 715 L480 804 L593 715 L630 750 Z " />
<glyph glyph-name="Atilde" unicode="&#xc3;" horiz-adv-x="759" d="M282 -1 L298 81 C258 82 233 86 222 91 C209 98 208 107 208 115 C208 127 219 152 235 178 L257 213 L465 213 L471 173 C474 152 474 134 474 126 C474 104 468 93 446 88 C433 85 413 82 386 81 L371 -1 C423 0 537 1 564 1 C589 1 659 0 704 -1 L720 81 C689 82 667 88 661 93 C645 107 638 123 631 164 L555 622 C547 669 520 693 471 693 C420 693 388 668 358 616 L111 190 C73 126 63 113 47 100 C34 88 19 82 -20 81 L-35 -1 C8 0 62 1 83 1 C106 1 237 0 282 -1 L282 -1 Z M307 321 C371 434 394 475 421 528 C427 471 431 432 449 321 L307 321 Z M345 731 C367 769 383 783 406 783 C414 783 426 780 445 771 L474 757 C500 744 523 738 543 738 C587 738 622 787 646 863 L601 878 C583 845 570 823 547 823 C534 823 515 832 501 838 L465 853 C449 860 429 869 410 869 C359 869 324 806 302 747 L345 731 Z " />
<glyph glyph-name="Adieresis" unicode="&#xc4;" horiz-adv-x="759" d="M282 -1 L298 81 C258 82 233 86 222 91 C209 98 208 107 208 115 C208 127 219 152 235 178 L257 213 L465 213 L471 173 C474 152 474 134 474 126 C474 104 468 93 446 88 C433 85 413 82 386 81 L371 -1 C423 0 537 1 564 1 C589 1 659 0 704 -1 L720 81 C689 82 667 88 661 93 C645 107 638 123 631 164 L555 622 C547 669 520 693 471 693 C420 693 388 668 358 616 L111 190 C73 126 63 113 47 100 C34 88 19 82 -20 81 L-35 -1 C8 0 62 1 83 1 C106 1 237 0 282 -1 L282 -1 Z M307 321 C371 434 394 475 421 528 C427 471 431 432 449 321 L307 321 Z M444 811 C444 844 420 869 385 869 C347 869 321 837 321 803 C321 767 343 741 378 741 C417 741 444 770 444 811 L444 811 Z M629 811 C629 844 606 869 570 869 C532 869 507 837 507 803 C507 767 529 741 564 741 C603 741 629 770 629 811 L629 811 Z " />
<glyph glyph-name="Aring" unicode="&#xc5;" horiz-adv-x="759" d="M282 -1 L298 81 C258 82 233 86 222 91 C209 98 208 107 208 115 C208 127 219 152 235 178 L257 213 L465 213 L471 173 C474 152 474 134 474 126 C474 104 468 93 446 88 C433 85 413 82 386 81 L371 -1 C423 0 537 1 564 1 C589 1 659 0 704 -1 L720 81 C689 82 667 88 661 93 C645 107 638 123 631 164 L555 622 C547 669 520 693 471 693 C420 693 388 668 358 616 L111 190 C73 126 63 113 47 100 C34 88 19 82 -20 81 L-35 -1 C8 0 62 1 83 1 C106 1 237 0 282 -1 L282 -1 Z M307 321 C371 434 394 475 421 528 C427 471 431 432 449 321 L307 321 Z M574 811 C574 864 538 898 485 898 C428 898 381 854 381 795 C381 742 420 708 472 708 C530 708 574 753 574 811 L574 811 Z M524 810 C524 774 502 752 475 752 C447 752 430 771 430 801 C430 835 454 855 481 855 C504 855 524 839 524 810 L524 810 Z " />
<glyph glyph-name="AE" unicode="&#xc6;" horiz-adv-x="1065" d="M310 -1 L325 79 C291 81 271 84 260 87 C250 90 246 97 246 104 C246 124 256 138 277 163 L321 216 L539 216 L528 162 C523 138 520 124 516 112 C513 102 505 92 493 88 C479 83 458 80 428 79 L412 0 L897 0 C950 0 980 13 995 35 C1018 71 1034 154 1045 203 L966 203 C954 179 934 144 916 132 C895 117 862 106 777 106 C754 106 723 106 698 110 C683 112 677 120 677 136 C677 141 681 165 682 171 L707 297 L747 297 C789 297 803 293 814 275 C820 266 823 247 823 225 L893 225 C906 308 921 388 938 463 L865 463 C857 441 848 419 837 409 C822 397 799 394 764 394 L726 394 L760 566 L868 566 C921 566 933 562 942 555 C954 546 961 535 961 489 L1038 489 C1052 547 1060 597 1060 629 C1060 659 1042 676 994 676 L380 676 L365 597 C377 597 427 595 438 593 C453 590 459 585 459 572 C459 560 447 538 433 521 L148 169 C121 136 102 115 79 100 C61 89 35 82 -4 81 L-20 -1 C28 0 110 1 132 1 C156 1 262 0 310 -1 L310 -1 Z M403 322 C491 435 535 493 576 546 C589 563 592 567 598 567 C601 567 604 566 604 560 C604 558 603 550 602 544 L558 322 L403 322 Z " />
<glyph glyph-name="Ccedilla" unicode="&#xc7;" horiz-adv-x="682" d="M215 -295 C306 -284 428 -245 428 -147 C428 -117 413 -95 374 -70 C367 -65 360 -59 360 -48 C360 -40 365 -26 372 -14 C442 -12 497 1 525 11 C561 24 584 42 598 65 C612 87 623 130 637 210 L552 210 C532 165 515 141 501 128 C481 111 445 99 386 99 C301 99 221 147 221 283 C221 355 244 439 288 498 C329 554 394 580 460 580 C510 580 543 572 559 551 C570 537 576 508 576 469 L663 469 C670 504 681 560 681 604 C681 627 670 650 641 664 C610 679 554 692 482 692 C369 692 274 664 202 602 C101 517 59 393 59 269 C59 110 150 4 312 -11 C295 -38 281 -67 281 -84 C281 -95 286 -103 297 -110 C319 -126 330 -144 330 -163 C330 -207 279 -221 214 -236 L215 -295 Z " />
<glyph glyph-name="Egrave" unicode="&#xc8;" horiz-adv-x="636" d="M616 203 L537 203 C523 177 507 147 490 134 C470 118 435 106 357 106 C333 106 295 106 270 110 C255 112 248 121 248 135 C248 141 251 153 252 160 L279 297 L317 297 C342 297 359 295 371 291 C387 285 392 268 393 254 C394 246 394 236 394 225 L465 225 C477 309 491 387 510 463 L437 463 C428 440 420 419 408 409 C393 397 369 394 335 394 L297 394 L331 566 L443 566 C487 566 504 562 513 555 C519 550 528 540 530 523 C531 513 533 500 533 489 L610 489 C618 522 632 588 632 627 C632 661 610 676 561 676 L107 676 L92 597 C118 596 141 594 155 591 C168 587 175 579 175 568 C175 557 171 534 168 517 L98 159 C90 120 89 104 78 95 C67 85 48 80 0 79 L-16 0 L466 0 C518 0 551 13 565 35 C588 70 609 154 616 203 L616 203 Z M459 754 L352 880 C321 917 308 924 287 924 C261 924 235 901 235 871 C235 853 250 832 279 813 L423 717 L459 754 Z " />
<glyph glyph-name="Eacute" unicode="&#xc9;" horiz-adv-x="636" d="M616 203 L537 203 C523 177 507 147 490 134 C470 118 435 106 357 106 C333 106 295 106 270 110 C255 112 248 121 248 135 C248 141 251 153 252 160 L279 297 L317 297 C342 297 359 295 371 291 C387 285 392 268 393 254 C394 246 394 236 394 225 L465 225 C477 309 491 387 510 463 L437 463 C428 440 420 419 408 409 C393 397 369 394 335 394 L297 394 L331 566 L443 566 C487 566 504 562 513 555 C519 550 528 540 530 523 C531 513 533 500 533 489 L610 489 C618 522 632 588 632 627 C632 661 610 676 561 676 L107 676 L92 597 C118 596 141 594 155 591 C168 587 175 579 175 568 C175 557 171 534 168 517 L98 159 C90 120 89 104 78 95 C67 85 48 80 0 79 L-16 0 L466 0 C518 0 551 13 565 35 C588 70 609 154 616 203 L616 203 Z M339 716 L502 794 C538 812 554 833 554 853 C554 884 532 905 505 905 C487 905 473 899 442 872 L309 760 L339 716 Z " />
<glyph glyph-name="Ecircumflex" unicode="&#xca;" horiz-adv-x="636" d="M616 203 L537 203 C523 177 507 147 490 134 C470 118 435 106 357 106 C333 106 295 106 270 110 C255 112 248 121 248 135 C248 141 251 153 252 160 L279 297 L317 297 C342 297 359 295 371 291 C387 285 392 268 393 254 C394 246 394 236 394 225 L465 225 C477 309 491 387 510 463 L437 463 C428 440 420 419 408 409 C393 397 369 394 335 394 L297 394 L331 566 L443 566 C487 566 504 562 513 555 C519 550 528 540 530 523 C531 513 533 500 533 489 L610 489 C618 522 632 588 632 627 C632 661 610 676 561 676 L107 676 L92 597 C118 596 141 594 155 591 C168 587 175 579 175 568 C175 557 171 534 168 517 L98 159 C90 120 89 104 78 95 C67 85 48 80 0 79 L-16 0 L466 0 C518 0 551 13 565 35 C588 70 609 154 616 203 L616 203 Z M543 750 L448 884 C436 900 426 909 405 909 C387 909 372 900 355 884 L217 752 L250 715 L393 804 L506 715 L543 750 Z " />
<glyph glyph-name="Edieresis" unicode="&#xcb;" horiz-adv-x="636" d="M616 203 L537 203 C523 177 507 147 490 134 C470 118 435 106 357 106 C333 106 295 106 270 110 C255 112 248 121 248 135 C248 141 251 153 252 160 L279 297 L317 297 C342 297 359 295 371 291 C387 285 392 268 393 254 C394 246 394 236 394 225 L465 225 C477 309 491 387 510 463 L437 463 C428 440 420 419 408 409 C393 397 369 394 335 394 L297 394 L331 566 L443 566 C487 566 504 562 513 555 C519 550 528 540 530 523 C531 513 533 500 533 489 L610 489 C618 522 632 588 632 627 C632 661 610 676 561 676 L107 676 L92 597 C118 596 141 594 155 591 C168 587 175 579 175 568 C175 557 171 534 168 517 L98 159 C90 120 89 104 78 95 C67 85 48 80 0 79 L-16 0 L466 0 C518 0 551 13 565 35 C588 70 609 154 616 203 L616 203 Z M357 812 C357 845 333 870 298 870 C260 870 234 838 234 804 C234 768 256 742 291 742 C330 742 357 771 357 812 L357 812 Z M542 812 C542 845 519 870 483 870 C445 870 420 838 420 804 C420 768 442 742 477 742 C516 742 542 771 542 812 L542 812 Z " />
<glyph glyph-name="Igrave" unicode="&#xcc;" horiz-adv-x="376" d="M314 -1 L330 79 C299 81 277 84 267 87 C254 91 247 98 247 111 C247 120 250 136 255 163 L324 521 C332 561 337 573 343 580 C351 589 360 594 423 597 L438 677 C393 676 301 674 276 674 C253 674 150 676 107 677 L92 597 C122 596 146 594 157 591 C171 587 175 580 175 569 C175 559 173 545 169 522 L98 159 C89 116 86 103 79 96 C68 87 55 82 0 79 L-16 -1 C28 0 121 1 145 1 C170 1 272 0 314 -1 L314 -1 Z M360 754 L253 880 C222 917 209 924 188 924 C162 924 136 901 136 871 C136 853 151 832 180 813 L324 717 L360 754 Z " />
<glyph glyph-name="Iacute" unicode="&#xcd;" horiz-adv-x="376" d="M314 -1 L330 79 C299 81 277 84 267 87 C254 91 247 98 247 111 C247 120 250 136 255 163 L324 521 C332 561 337 573 343 580 C351 589 360 594 423 597 L438 677 C393 676 301 674 276 674 C253 674 150 676 107 677 L92 597 C122 596 146 594 157 591 C171 587 175 580 175 569 C175 559 173 545 169 522 L98 159 C89 116 86 103 79 96 C68 87 55 82 0 79 L-16 -1 C28 0 121 1 145 1 C170 1 272 0 314 -1 L314 -1 Z M214 716 L377 794 C413 812 429 833 429 853 C429 884 407 905 380 905 C362 905 348 899 317 872 L184 760 L214 716 Z " />
<glyph glyph-name="Icircumflex" unicode="&#xce;" horiz-adv-x="376" d="M314 -1 L330 79 C299 81 277 84 267 87 C254 91 247 98 247 111 C247 120 250 136 255 163 L324 521 C332 561 337 573 343 580 C351 589 360 594 423 597 L438 677 C393 676 301 674 276 674 C253 674 150 676 107 677 L92 597 C122 596 146 594 157 591 C171 587 175 580 175 569 C175 559 173 545 169 522 L98 159 C89 116 86 103 79 96 C68 87 55 82 0 79 L-16 -1 C28 0 121 1 145 1 C170 1 272 0 314 -1 L314 -1 Z M440 750 L345 884 C333 900 323 909 302 909 C284 909 269 900 252 884 L114 752 L147 715 L290 804 L403 715 L440 750 Z " />
<glyph glyph-name="Idieresis" unicode="&#xcf;" horiz-adv-x="376" d="M314 -1 L330 79 C299 81 277 84 267 87 C254 91 247 98 247 111 C247 120 250 136 255 163 L324 521 C332 561 337 573 343 580 C351 589 360 594 423 597 L438 677 C393 676 301 674 276 674 C253 674 150 676 107 677 L92 597 C122 596 146 594 157 591 C171 587 175 580 175 569 C175 559 173 545 169 522 L98 159 C89 116 86 103 79 96 C68 87 55 82 0 79 L-16 -1 C28 0 121 1 145 1 C170 1 272 0 314 -1 L314 -1 Z M258 812 C258 845 234 870 199 870 C161 870 135 838 135 804 C135 768 157 742 192 742 C231 742 258 771 258 812 L258 812 Z M443 812 C443 845 420 870 384 870 C346 870 321 838 321 804 C321 768 343 742 378 742 C417 742 443 771 443 812 L443 812 Z " />
<glyph glyph-name="Eth" unicode="&#xd0;" horiz-adv-x="736" d="M-16 0 L247 0 C367 0 472 14 538 49 C690 129 724 281 724 423 C724 495 691 570 637 610 C583 651 509 676 301 676 L107 676 L92 597 C123 596 143 594 157 591 C169 588 174 579 174 566 C174 556 172 538 168 517 L143 391 L45 391 L30 316 L128 316 L97 155 C89 114 86 104 79 96 C70 85 58 83 0 79 L-16 0 Z M252 160 L282 316 L427 316 L443 391 L296 391 L330 566 L364 566 C420 566 472 558 502 536 C539 510 561 457 561 404 C561 234 493 106 321 106 C307 106 286 107 274 109 C257 113 248 121 248 135 C248 140 250 150 252 160 L252 160 Z " />
<glyph glyph-name="Ntilde" unicode="&#xd1;" horiz-adv-x="768" d="M262 -1 L278 79 C252 81 234 83 222 85 C206 87 195 95 195 111 C195 124 198 144 205 182 C210 214 238 370 264 507 C299 425 331 359 475 39 C489 7 507 -11 550 -11 C605 -11 621 14 630 62 C662 232 683 337 713 493 C725 555 731 573 738 580 C748 591 759 594 816 597 L832 677 C777 676 727 675 699 675 C677 675 603 676 550 677 L534 597 C564 596 583 593 596 590 C613 586 618 574 618 559 C618 547 616 529 611 492 C606 454 586 350 564 218 C534 290 485 397 353 677 C318 675 270 675 253 675 C237 675 127 676 106 677 L91 597 C107 596 132 595 149 592 C169 589 174 577 174 562 C174 549 171 525 164 489 C153 432 124 285 102 182 C92 132 87 108 80 98 C70 89 60 83 0 79 L-17 -1 C36 0 98 1 119 1 C148 1 210 0 262 -1 L262 -1 Z M359 731 C381 769 397 783 420 783 C428 783 440 780 459 771 L488 757 C514 744 537 738 557 738 C601 738 636 787 660 863 L615 878 C597 845 584 823 561 823 C548 823 529 832 515 838 L479 853 C463 860 443 869 424 869 C373 869 338 806 316 747 L359 731 Z " />
<glyph glyph-name="Ograve" unicode="&#xd2;" horiz-adv-x="743" d="M731 433 C731 586 648 691 455 691 C355 691 273 664 203 606 C102 521 60 383 60 260 C60 69 185 -13 350 -13 C452 -13 547 24 616 98 C699 187 731 323 731 433 L731 433 Z M564 428 C564 354 544 242 496 172 C460 119 417 100 359 100 C267 100 222 156 222 267 C222 345 249 453 299 516 C333 559 379 580 433 580 C521 580 564 531 564 428 L564 428 Z M560 754 L453 880 C422 917 409 924 388 924 C362 924 336 901 336 871 C336 853 351 832 380 813 L524 717 L560 754 Z " />
<glyph glyph-name="Oacute" unicode="&#xd3;" horiz-adv-x="743" d="M731 433 C731 586 648 691 455 691 C355 691 273 664 203 606 C102 521 60 383 60 260 C60 69 185 -13 350 -13 C452 -13 547 24 616 98 C699 187 731 323 731 433 L731 433 Z M564 428 C564 354 544 242 496 172 C460 119 417 100 359 100 C267 100 222 156 222 267 C222 345 249 453 299 516 C333 559 379 580 433 580 C521 580 564 531 564 428 L564 428 Z M392 716 L555 794 C591 812 607 833 607 853 C607 884 585 905 558 905 C540 905 526 899 495 872 L362 760 L392 716 Z " />
<glyph glyph-name="Ocircumflex" unicode="&#xd4;" horiz-adv-x="743" d="M731 433 C731 586 648 691 455 691 C355 691 273 664 203 606 C102 521 60 383 60 260 C60 69 185 -13 350 -13 C452 -13 547 24 616 98 C699 187 731 323 731 433 L731 433 Z M564 428 C564 354 544 242 496 172 C460 119 417 100 359 100 C267 100 222 156 222 267 C222 345 249 453 299 516 C333 559 379 580 433 580 C521 580 564 531 564 428 L564 428 Z M627 750 L532 884 C520 900 510 909 489 909 C471 909 456 900 439 884 L301 752 L334 715 L477 804 L590 715 L627 750 Z " />
<glyph glyph-name="Otilde" unicode="&#xd5;" horiz-adv-x="743" d="M731 433 C731 586 648 691 455 691 C355 691 273 664 203 606 C102 521 60 383 60 260 C60 69 185 -13 350 -13 C452 -13 547 24 616 98 C699 187 731 323 731 433 L731 433 Z M564 428 C564 354 544 242 496 172 C460 119 417 100 359 100 C267 100 222 156 222 267 C222 345 249 453 299 516 C333 559 379 580 433 580 C521 580 564 531 564 428 L564 428 Z M337 731 C359 769 375 783 398 783 C406 783 418 780 437 771 L466 757 C492 744 515 738 535 738 C579 738 614 787 638 863 L593 878 C575 845 562 823 539 823 C526 823 507 832 493 838 L457 853 C441 860 421 869 402 869 C351 869 316 806 294 747 L337 731 Z " />
<glyph glyph-name="Odieresis" unicode="&#xd6;" horiz-adv-x="743" d="M731 433 C731 586 648 691 455 691 C355 691 273 664 203 606 C102 521 60 383 60 260 C60 69 185 -13 350 -13 C452 -13 547 24 616 98 C699 187 731 323 731 433 L731 433 Z M564 428 C564 354 544 242 496 172 C460 119 417 100 359 100 C267 100 222 156 222 267 C222 345 249 453 299 516 C333 559 379 580 433 580 C521 580 564 531 564 428 L564 428 Z M439 812 C439 845 415 870 380 870 C342 870 316 838 316 804 C316 768 338 742 373 742 C412 742 439 771 439 812 L439 812 Z M624 812 C624 845 601 870 565 870 C527 870 502 838 502 804 C502 768 524 742 559 742 C598 742 624 771 624 812 L624 812 Z " />
<glyph glyph-name="multiply" unicode="&#xd7;" horiz-adv-x="601" d="M476 177 L370 316 L525 455 L475 519 L322 381 L218 518 L149 454 L255 317 L100 176 L146 113 L302 252 L407 116 L476 177 Z " />
<glyph glyph-name="Oslash" unicode="&#xd8;" horiz-adv-x="743" d="M111 -36 L169 32 C218 1 280 -13 350 -13 C452 -13 547 24 616 98 C699 187 731 323 731 433 C731 509 710 573 666 619 L722 685 L671 727 L612 658 C571 679 519 691 455 691 C355 691 273 664 203 606 C102 521 60 383 60 260 C60 180 81 120 118 76 L59 6 L111 -36 Z M564 428 C564 354 544 242 496 172 C460 119 417 100 359 100 C315 100 281 113 259 138 L557 490 C561 472 564 451 564 428 L564 428 Z M222 267 C222 345 249 453 299 516 C333 559 379 580 433 580 C471 580 501 571 522 552 L228 205 C224 223 222 244 222 267 L222 267 Z " />
<glyph glyph-name="Ugrave" unicode="&#xd9;" horiz-adv-x="784" d="M838 597 L854 677 C819 677 763 676 739 676 C715 676 607 676 571 677 L555 597 C588 596 611 595 626 590 C640 586 647 577 647 561 C647 554 646 539 643 519 C631 447 613 348 607 317 C593 252 579 190 545 149 C515 113 461 97 397 97 C321 97 268 127 268 206 C268 237 273 273 281 312 C299 406 314 484 324 529 C330 558 336 573 343 580 C353 590 360 595 426 597 L441 677 C401 676 284 675 258 675 C228 675 140 676 101 677 L85 597 C112 596 142 593 154 590 C170 585 175 574 175 562 C175 554 173 542 169 521 C163 484 143 397 126 308 C113 243 108 200 108 165 C108 24 239 -16 359 -16 C460 -16 549 11 604 65 C654 113 675 171 699 296 L741 511 C747 543 754 563 761 574 C768 584 781 593 838 597 L838 597 Z M567 754 L460 880 C429 917 416 924 395 924 C369 924 343 901 343 871 C343 853 358 832 387 813 L531 717 L567 754 Z " />
<glyph glyph-name="Uacute" unicode="&#xda;" horiz-adv-x="784" d="M838 597 L854 677 C819 677 763 676 739 676 C715 676 607 676 571 677 L555 597 C588 596 611 595 626 590 C640 586 647 577 647 561 C647 554 646 539 643 519 C631 447 613 348 607 317 C593 252 579 190 545 149 C515 113 461 97 397 97 C321 97 268 127 268 206 C268 237 273 273 281 312 C299 406 314 484 324 529 C330 558 336 573 343 580 C353 590 360 595 426 597 L441 677 C401 676 284 675 258 675 C228 675 140 676 101 677 L85 597 C112 596 142 593 154 590 C170 585 175 574 175 562 C175 554 173 542 169 521 C163 484 143 397 126 308 C113 243 108 200 108 165 C108 24 239 -16 359 -16 C460 -16 549 11 604 65 C654 113 675 171 699 296 L741 511 C747 543 754 563 761 574 C768 584 781 593 838 597 L838 597 Z M438 716 L601 794 C637 812 653 833 653 853 C653 884 631 905 604 905 C586 905 572 899 541 872 L408 760 L438 716 Z " />
<glyph glyph-name="Ucircumflex" unicode="&#xdb;" horiz-adv-x="784" d="M838 597 L854 677 C819 677 763 676 739 676 C715 676 607 676 571 677 L555 597 C588 596 611 595 626 590 C640 586 647 577 647 561 C647 554 646 539 643 519 C631 447 613 348 607 317 C593 252 579 190 545 149 C515 113 461 97 397 97 C321 97 268 127 268 206 C268 237 273 273 281 312 C299 406 314 484 324 529 C330 558 336 573 343 580 C353 590 360 595 426 597 L441 677 C401 676 284 675 258 675 C228 675 140 676 101 677 L85 597 C112 596 142 593 154 590 C170 585 175 574 175 562 C175 554 173 542 169 521 C163 484 143 397 126 308 C113 243 108 200 108 165 C108 24 239 -16 359 -16 C460 -16 549 11 604 65 C654 113 675 171 699 296 L741 511 C747 543 754 563 761 574 C768 584 781 593 838 597 L838 597 Z M647 750 L552 884 C540 900 530 909 509 909 C491 909 476 900 459 884 L321 752 L354 715 L497 804 L610 715 L647 750 Z " />
<glyph glyph-name="Udieresis" unicode="&#xdc;" horiz-adv-x="784" d="M838 597 L854 677 C819 677 763 676 739 676 C715 676 607 676 571 677 L555 597 C588 596 611 595 626 590 C640 586 647 577 647 561 C647 554 646 539 643 519 C631 447 613 348 607 317 C593 252 579 190 545 149 C515 113 461 97 397 97 C321 97 268 127 268 206 C268 237 273 273 281 312 C299 406 314 484 324 529 C330 558 336 573 343 580 C353 590 360 595 426 597 L441 677 C401 676 284 675 258 675 C228 675 140 676 101 677 L85 597 C112 596 142 593 154 590 C170 585 175 574 175 562 C175 554 173 542 169 521 C163 484 143 397 126 308 C113 243 108 200 108 165 C108 24 239 -16 359 -16 C460 -16 549 11 604 65 C654 113 675 171 699 296 L741 511 C747 543 754 563 761 574 C768 584 781 593 838 597 L838 597 Z M454 812 C454 845 430 870 395 870 C357 870 331 838 331 804 C331 768 353 742 388 742 C427 742 454 771 454 812 L454 812 Z M639 812 C639 845 616 870 580 870 C542 870 517 838 517 804 C517 768 539 742 574 742 C613 742 639 771 639 812 L639 812 Z " />
<glyph glyph-name="Yacute" unicode="&#xdd;" horiz-adv-x="673" d="M462 -1 L477 79 C445 81 424 84 412 88 C392 94 390 105 390 115 C390 123 392 140 395 158 L417 266 L610 493 C652 542 675 573 689 582 C701 591 716 596 738 597 L754 677 C711 675 679 675 658 675 C625 675 533 675 487 677 L471 597 C489 597 506 595 514 592 C530 587 532 580 532 572 C532 559 520 539 509 525 C467 471 424 419 384 363 C364 418 341 475 323 522 C317 537 314 551 314 563 C314 577 320 584 332 589 C344 593 361 596 387 597 L403 677 C350 676 268 675 239 675 C213 675 144 676 89 677 L73 597 C93 596 108 594 119 586 C134 576 144 556 159 520 L263 265 L240 150 C236 127 230 106 223 99 C215 89 204 83 139 79 L123 -1 C173 0 268 1 293 1 C316 1 409 0 462 -1 L462 -1 Z M381 716 L544 794 C580 812 596 833 596 853 C596 884 574 905 547 905 C529 905 515 899 484 872 L351 760 L381 716 Z " />
<glyph glyph-name="Thorn" unicode="&#xde;" horiz-adv-x="640" d="M326 -1 L342 81 C311 81 283 83 269 86 C249 91 245 99 245 116 C245 122 246 130 247 139 L249 151 C273 149 308 149 332 149 C504 149 632 218 632 384 C632 455 593 515 509 531 C473 538 404 541 325 541 L328 554 C330 567 333 577 340 583 C348 591 357 594 421 596 L436 677 C395 676 332 674 274 674 C218 674 133 676 107 677 L92 596 C117 595 136 594 148 592 C165 589 175 582 175 566 C175 557 173 544 169 522 L98 160 C89 117 86 104 78 97 C68 88 61 83 0 81 L-16 -1 C28 0 121 1 145 1 C170 1 284 0 326 -1 L326 -1 Z M268 248 L306 438 L339 438 C377 438 407 434 427 426 C458 415 472 391 472 358 C472 264 397 247 322 247 C309 247 284 247 268 248 L268 248 Z " />
<glyph glyph-name="germandbls" unicode="&#xdf;" horiz-adv-x="643" d="M-144 -112 C-154 -146 -160 -178 -160 -206 C-160 -228 -150 -248 -130 -258 C-107 -268 -83 -275 -50 -275 C1 -275 52 -263 92 -232 C140 -195 167 -142 186 -40 L286 498 C295 548 311 578 328 598 C345 617 372 625 397 625 C450 625 463 597 463 570 C463 536 431 502 393 468 C344 422 321 392 321 347 C321 316 336 294 354 274 C369 258 389 234 417 206 C449 174 459 154 459 133 C459 110 441 89 400 89 C376 89 355 96 345 110 C337 120 331 139 330 159 L267 159 C257 125 248 89 248 59 C248 40 256 20 269 11 C288 -4 325 -14 378 -14 C501 -14 601 48 601 164 C601 206 577 253 531 300 C495 338 481 351 468 367 C459 378 456 388 456 397 C456 410 469 425 492 443 C544 485 594 527 594 596 C594 673 539 731 411 731 C363 731 304 721 260 695 C211 666 170 611 144 514 C135 479 128 464 113 455 C96 444 70 438 51 435 L36 358 L119 358 L47 -55 C39 -101 31 -132 16 -151 C5 -166 -14 -174 -30 -174 C-43 -174 -51 -172 -59 -167 C-69 -159 -71 -140 -71 -112 L-144 -112 Z " />
<glyph glyph-name="agrave" unicode="&#xe0;" horiz-adv-x="601" d="M344 68 C344 59 344 48 347 39 C357 8 378 -9 424 -9 C448 -9 499 -3 550 17 L569 100 C549 93 522 91 512 91 C489 91 482 102 482 122 C482 140 488 173 498 214 L563 481 L457 481 L435 448 C411 461 366 468 337 468 C244 468 176 439 125 387 C65 324 28 229 28 151 C28 53 78 -12 187 -12 C248 -12 303 16 344 68 L344 68 Z M341 145 C314 117 280 98 245 98 C201 98 178 125 178 172 C178 223 203 292 238 326 C263 350 298 361 328 361 C351 361 371 356 390 345 L358 224 C351 197 344 167 341 145 L341 145 Z M430 545 L348 690 C323 735 308 743 287 743 C260 743 233 722 233 692 C233 673 244 658 268 634 L388 515 L430 545 Z " />
<glyph glyph-name="aacute" unicode="&#xe1;" horiz-adv-x="601" d="M344 68 C344 59 344 48 347 39 C357 8 378 -9 424 -9 C448 -9 499 -3 550 17 L569 100 C549 93 522 91 512 91 C489 91 482 102 482 122 C482 140 488 173 498 214 L563 481 L457 481 L435 448 C411 461 366 468 337 468 C244 468 176 439 125 387 C65 324 28 229 28 151 C28 53 78 -12 187 -12 C248 -12 303 16 344 68 L344 68 Z M341 145 C314 117 280 98 245 98 C201 98 178 125 178 172 C178 223 203 292 238 326 C263 350 298 361 328 361 C351 361 371 356 390 345 L358 224 C351 197 344 167 341 145 L341 145 Z M322 515 L461 614 C492 636 508 652 508 674 C508 704 483 726 456 726 C438 726 421 717 394 684 L286 553 L322 515 Z " />
<glyph glyph-name="acircumflex" unicode="&#xe2;" horiz-adv-x="601" d="M344 68 C344 59 344 48 347 39 C357 8 378 -9 424 -9 C448 -9 499 -3 550 17 L569 100 C549 93 522 91 512 91 C489 91 482 102 482 122 C482 140 488 173 498 214 L563 481 L457 481 L435 448 C411 461 366 468 337 468 C244 468 176 439 125 387 C65 324 28 229 28 151 C28 53 78 -12 187 -12 C248 -12 303 16 344 68 L344 68 Z M341 145 C314 117 280 98 245 98 C201 98 178 125 178 172 C178 223 203 292 238 326 C263 350 298 361 328 361 C351 361 371 356 390 345 L358 224 C351 197 344 167 341 145 L341 145 Z M518 534 L441 696 C433 713 418 721 398 721 C380 721 364 711 349 694 L216 542 L255 506 L384 611 L473 506 L518 534 Z " />
<glyph glyph-name="atilde" unicode="&#xe3;" horiz-adv-x="601" d="M344 68 C344 59 344 48 347 39 C357 8 378 -9 424 -9 C448 -9 499 -3 550 17 L569 100 C549 93 522 91 512 91 C489 91 482 102 482 122 C482 140 488 173 498 214 L563 481 L457 481 L435 448 C411 461 366 468 337 468 C244 468 176 439 125 387 C65 324 28 229 28 151 C28 53 78 -12 187 -12 C248 -12 303 16 344 68 L344 68 Z M341 145 C314 117 280 98 245 98 C201 98 178 125 178 172 C178 223 203 292 238 326 C263 350 298 361 328 361 C351 361 371 356 390 345 L358 224 C351 197 344 167 341 145 L341 145 Z M269 535 C287 572 299 584 321 584 C329 584 344 581 364 573 L390 562 C418 549 436 543 458 543 C501 543 532 595 548 670 L502 684 C485 649 472 632 454 632 C441 632 425 638 408 646 L381 659 C364 667 343 675 321 675 C271 675 240 608 224 549 L269 535 Z " />
<glyph glyph-name="adieresis" unicode="&#xe4;" horiz-adv-x="601" d="M344 68 C344 59 344 48 347 39 C357 8 378 -9 424 -9 C448 -9 499 -3 550 17 L569 100 C549 93 522 91 512 91 C489 91 482 102 482 122 C482 140 488 173 498 214 L563 481 L457 481 L435 448 C411 461 366 468 337 468 C244 468 176 439 125 387 C65 324 28 229 28 151 C28 53 78 -12 187 -12 C248 -12 303 16 344 68 L344 68 Z M341 145 C314 117 280 98 245 98 C201 98 178 125 178 172 C178 223 203 292 238 326 C263 350 298 361 328 361 C351 361 371 356 390 345 L358 224 C351 197 344 167 341 145 L341 145 Z M368 623 C368 655 345 681 310 681 C272 681 246 648 246 614 C246 577 268 552 303 552 C342 552 368 580 368 623 L368 623 Z M538 623 C538 655 515 681 479 681 C442 681 415 648 415 614 C415 577 437 552 472 552 C511 552 538 580 538 623 L538 623 Z " />
<glyph glyph-name="aring" unicode="&#xe5;" horiz-adv-x="601" d="M344 68 C344 59 344 48 347 39 C357 8 378 -9 424 -9 C448 -9 499 -3 550 17 L569 100 C549 93 522 91 512 91 C489 91 482 102 482 122 C482 140 488 173 498 214 L563 481 L457 481 L435 448 C411 461 366 468 337 468 C244 468 176 439 125 387 C65 324 28 229 28 151 C28 53 78 -12 187 -12 C248 -12 303 16 344 68 L344 68 Z M341 145 C314 117 280 98 245 98 C201 98 178 125 178 172 C178 223 203 292 238 326 C263 350 298 361 328 361 C351 361 371 356 390 345 L358 224 C351 197 344 167 341 145 L341 145 Z M478 622 C478 675 442 709 389 709 C332 709 285 666 285 607 C285 552 324 519 376 519 C434 519 478 565 478 622 L478 622 Z M428 621 C428 586 406 564 379 564 C351 564 334 583 334 612 C334 646 358 667 385 667 C408 667 428 650 428 621 L428 621 Z " />
<glyph glyph-name="ae" unicode="&#xe6;" horiz-adv-x="813" d="M783 62 L745 142 C678 109 631 97 590 97 C523 97 496 133 496 174 C496 179 496 185 497 191 C740 193 794 269 794 352 C794 423 749 473 647 474 C619 474 562 463 536 436 L547 489 L456 489 L434 448 C411 462 366 468 337 468 C244 468 176 439 125 387 C65 324 28 229 28 151 C28 53 77 -12 187 -12 C276 -12 333 35 375 83 C400 15 463 -14 544 -14 C642 -14 721 18 783 62 L783 62 Z M363 169 C331 127 288 98 245 98 C202 98 178 123 178 169 C178 221 203 292 238 326 C263 350 293 361 326 361 C348 361 376 354 396 344 C370 236 366 196 363 169 L363 169 Z M509 278 C516 311 534 336 554 353 C572 369 599 377 622 377 C658 377 671 364 671 342 C671 308 635 279 509 278 L509 278 Z " />
<glyph glyph-name="ccedilla" unicode="&#xe7;" horiz-adv-x="480" d="M103 -282 C192 -272 313 -235 313 -141 C313 -112 298 -90 260 -67 C253 -62 246 -57 246 -46 C246 -38 251 -24 258 -12 C324 -6 386 18 438 57 L400 135 C357 113 306 97 262 97 C209 97 175 121 175 196 C175 246 192 302 222 335 C243 358 268 368 295 368 C313 368 329 362 338 355 C349 346 354 328 356 292 L436 292 C445 324 454 375 454 399 C454 436 441 449 404 462 C380 470 341 474 308 474 C241 474 184 456 132 416 C60 359 29 262 29 174 C29 67 93 -1 197 -12 C182 -38 168 -65 168 -81 C168 -90 172 -99 183 -106 C205 -120 215 -138 215 -156 C215 -199 166 -212 101 -226 L103 -282 Z " />
<glyph glyph-name="egrave" unicode="&#xe8;" horiz-adv-x="491" d="M462 62 L423 142 C356 109 312 97 268 97 C198 97 174 134 174 175 C174 180 174 185 176 191 C418 193 472 269 472 350 C472 420 425 474 308 474 C134 474 29 344 29 174 C29 51 108 -14 222 -14 C318 -14 398 18 462 62 L462 62 Z M186 278 C202 337 244 377 301 377 C333 377 349 366 349 342 C349 308 313 279 186 278 L186 278 Z M361 545 L279 690 C254 735 239 743 218 743 C191 743 164 722 164 692 C164 673 175 658 199 634 L319 515 L361 545 Z " />
<glyph glyph-name="eacute" unicode="&#xe9;" horiz-adv-x="491" d="M462 62 L423 142 C356 109 312 97 268 97 C198 97 174 134 174 175 C174 180 174 185 176 191 C418 193 472 269 472 350 C472 420 425 474 308 474 C134 474 29 344 29 174 C29 51 108 -14 222 -14 C318 -14 398 18 462 62 L462 62 Z M186 278 C202 337 244 377 301 377 C333 377 349 366 349 342 C349 308 313 279 186 278 L186 278 Z M259 515 L398 614 C429 636 445 652 445 674 C445 704 420 726 393 726 C375 726 358 717 331 684 L223 553 L259 515 Z " />
<glyph glyph-name="ecircumflex" unicode="&#xea;" horiz-adv-x="491" d="M462 62 L423 142 C356 109 312 97 268 97 C198 97 174 134 174 175 C174 180 174 185 176 191 C418 193 472 269 472 350 C472 420 425 474 308 474 C134 474 29 344 29 174 C29 51 108 -14 222 -14 C318 -14 398 18 462 62 L462 62 Z M186 278 C202 337 244 377 301 377 C333 377 349 366 349 342 C349 308 313 279 186 278 L186 278 Z M463 534 L386 696 C378 713 363 721 343 721 C325 721 309 711 294 694 L161 542 L200 506 L329 611 L418 506 L463 534 Z " />
<glyph glyph-name="edieresis" unicode="&#xeb;" horiz-adv-x="491" d="M462 62 L423 142 C356 109 312 97 268 97 C198 97 174 134 174 175 C174 180 174 185 176 191 C418 193 472 269 472 350 C472 420 425 474 308 474 C134 474 29 344 29 174 C29 51 108 -14 222 -14 C318 -14 398 18 462 62 L462 62 Z M186 278 C202 337 244 377 301 377 C333 377 349 366 349 342 C349 308 313 279 186 278 L186 278 Z M310 623 C310 655 287 681 252 681 C214 681 188 648 188 614 C188 577 210 552 245 552 C284 552 310 580 310 623 L310 623 Z M480 623 C480 655 457 681 421 681 C384 681 357 648 357 614 C357 577 379 552 414 552 C453 552 480 580 480 623 L480 623 Z " />
<glyph glyph-name="igrave" unicode="&#xec;" horiz-adv-x="326" d="M246 545 L164 690 C139 735 124 743 103 743 C76 743 49 722 49 692 C49 673 60 658 84 634 L204 515 L246 545 Z M293 100 C275 95 253 91 239 91 C216 91 206 98 206 122 C206 138 214 176 222 206 L241 282 C250 320 262 377 262 394 C262 447 239 470 182 470 C137 470 87 451 47 431 L31 356 C43 358 61 359 73 359 C94 359 106 351 106 328 C106 315 99 287 92 256 L66 145 C57 108 52 79 52 59 C52 14 81 -9 140 -9 C168 -9 228 -3 274 17 L293 100 Z " />
<glyph glyph-name="iacute" unicode="&#xed;" horiz-adv-x="326" d="M145 515 L284 614 C315 636 331 652 331 674 C331 704 306 726 279 726 C261 726 244 717 217 684 L109 553 L145 515 Z M293 100 C275 95 253 91 239 91 C216 91 206 98 206 122 C206 138 214 176 222 206 L241 282 C250 320 262 377 262 394 C262 447 239 470 182 470 C137 470 87 451 47 431 L31 356 C43 358 61 359 73 359 C94 359 106 351 106 328 C106 315 99 287 92 256 L66 145 C57 108 52 79 52 59 C52 14 81 -9 140 -9 C168 -9 228 -3 274 17 L293 100 Z " />
<glyph glyph-name="icircumflex" unicode="&#xee;" horiz-adv-x="326" d="M293 100 C275 95 253 91 239 91 C216 91 206 98 206 122 C206 138 214 176 222 206 L241 282 C250 320 262 377 262 394 C262 447 239 470 182 470 C137 470 87 451 47 431 L31 356 C43 358 61 359 73 359 C94 359 106 351 106 328 C106 315 99 287 92 256 L66 145 C57 108 52 79 52 59 C52 14 81 -9 140 -9 C168 -9 228 -3 274 17 L293 100 Z M343 534 L266 696 C258 713 243 721 223 721 C205 721 189 711 174 694 L41 542 L80 506 L209 611 L298 506 L343 534 Z " />
<glyph glyph-name="idieresis" unicode="&#xef;" horiz-adv-x="326" d="M171 623 C171 655 148 681 113 681 C75 681 49 648 49 614 C49 577 71 552 106 552 C145 552 171 580 171 623 L171 623 Z M341 623 C341 655 318 681 282 681 C245 681 218 648 218 614 C218 577 240 552 275 552 C314 552 341 580 341 623 L341 623 Z M293 100 C275 95 253 91 239 91 C216 91 206 98 206 122 C206 138 214 176 222 206 L241 282 C250 320 262 377 262 394 C262 447 239 470 182 470 C137 470 87 451 47 431 L31 356 C43 358 61 359 73 359 C94 359 106 351 106 328 C106 315 99 287 92 256 L66 145 C57 108 52 79 52 59 C52 14 81 -9 140 -9 C168 -9 228 -3 274 17 L293 100 Z " />
<glyph glyph-name="eth" unicode="&#xf0;" horiz-adv-x="549" d="M418 595 L491 636 L461 689 L377 642 C331 685 274 716 213 740 L165 668 C196 651 241 623 277 578 L174 520 L204 469 L310 528 C332 498 346 459 353 428 C330 445 301 451 271 451 C197 451 135 420 99 380 C46 320 29 245 29 176 C29 40 125 -14 241 -14 C319 -14 393 12 440 63 C500 126 519 231 519 307 C519 429 490 509 418 595 L418 595 Z M372 272 C372 228 362 177 340 140 C322 111 295 94 256 94 C193 94 175 136 175 185 C175 233 186 281 212 317 C230 342 258 355 293 355 C344 355 372 330 372 272 L372 272 Z " />
<glyph glyph-name="ntilde" unicode="&#xf1;" horiz-adv-x="602" d="M177 0 L229 223 C236 255 243 283 246 304 C275 331 311 349 344 349 C366 349 380 340 380 315 C380 304 377 280 371 255 L345 145 C336 107 331 78 331 58 C331 14 359 -9 418 -9 C447 -9 507 -3 553 17 L572 100 C554 95 533 91 517 91 C495 91 485 98 485 122 C485 138 492 176 500 207 L520 286 C529 322 534 361 534 375 C534 438 505 472 434 472 C371 472 299 433 253 381 C256 390 256 402 256 414 C256 458 228 471 194 471 C150 471 88 451 48 431 L32 356 C42 358 55 360 69 360 C92 360 106 352 106 327 C106 307 95 259 87 224 L39 0 L177 0 Z M230 535 C248 572 260 584 282 584 C290 584 305 581 325 573 L351 562 C379 549 397 543 419 543 C462 543 493 595 509 670 L463 684 C446 649 433 632 415 632 C402 632 386 638 369 646 L342 659 C325 667 304 675 282 675 C232 675 201 608 185 549 L230 535 Z " />
<glyph glyph-name="ograve" unicode="&#xf2;" horiz-adv-x="548" d="M518 293 C518 423 417 474 302 474 C219 474 151 447 104 397 C46 336 26 249 26 176 C26 40 122 -14 238 -14 C316 -14 390 12 437 63 C495 124 518 220 518 293 L518 293 Z M370 284 C370 241 359 177 337 140 C319 111 292 93 253 93 C190 93 172 136 172 185 C172 233 183 294 210 331 C229 355 255 368 290 368 C342 368 370 342 370 284 L370 284 Z M380 545 L298 690 C273 735 258 743 237 743 C210 743 183 722 183 692 C183 673 194 658 218 634 L338 515 L380 545 Z " />
<glyph glyph-name="oacute" unicode="&#xf3;" horiz-adv-x="548" d="M518 293 C518 423 417 474 302 474 C219 474 151 447 104 397 C46 336 26 249 26 176 C26 40 122 -14 238 -14 C316 -14 390 12 437 63 C495 124 518 220 518 293 L518 293 Z M370 284 C370 241 359 177 337 140 C319 111 292 93 253 93 C190 93 172 136 172 185 C172 233 183 294 210 331 C229 355 255 368 290 368 C342 368 370 342 370 284 L370 284 Z M273 515 L412 614 C443 636 459 652 459 674 C459 704 434 726 407 726 C389 726 372 717 345 684 L237 553 L273 515 Z " />
<glyph glyph-name="ocircumflex" unicode="&#xf4;" horiz-adv-x="548" d="M518 293 C518 423 417 474 302 474 C219 474 151 447 104 397 C46 336 26 249 26 176 C26 40 122 -14 238 -14 C316 -14 390 12 437 63 C495 124 518 220 518 293 L518 293 Z M370 284 C370 241 359 177 337 140 C319 111 292 93 253 93 C190 93 172 136 172 185 C172 233 183 294 210 331 C229 355 255 368 290 368 C342 368 370 342 370 284 L370 284 Z M473 534 L396 696 C388 713 373 721 353 721 C335 721 319 711 304 694 L171 542 L210 506 L339 611 L428 506 L473 534 Z " />
<glyph glyph-name="otilde" unicode="&#xf5;" horiz-adv-x="548" d="M518 293 C518 423 417 474 302 474 C219 474 151 447 104 397 C46 336 26 249 26 176 C26 40 122 -14 238 -14 C316 -14 390 12 437 63 C495 124 518 220 518 293 L518 293 Z M370 284 C370 241 359 177 337 140 C319 111 292 93 253 93 C190 93 172 136 172 185 C172 233 183 294 210 331 C229 355 255 368 290 368 C342 368 370 342 370 284 L370 284 Z M207 535 C225 572 237 584 259 584 C267 584 282 581 302 573 L328 562 C356 549 374 543 396 543 C439 543 470 595 486 670 L440 684 C423 649 410 632 392 632 C379 632 363 638 346 646 L319 659 C302 667 281 675 259 675 C209 675 178 608 162 549 L207 535 Z " />
<glyph glyph-name="odieresis" unicode="&#xf6;" horiz-adv-x="548" d="M518 293 C518 423 417 474 302 474 C219 474 151 447 104 397 C46 336 26 249 26 176 C26 40 122 -14 238 -14 C316 -14 390 12 437 63 C495 124 518 220 518 293 L518 293 Z M370 284 C370 241 359 177 337 140 C319 111 292 93 253 93 C190 93 172 136 172 185 C172 233 183 294 210 331 C229 355 255 368 290 368 C342 368 370 342 370 284 L370 284 Z M314 623 C314 655 291 681 256 681 C218 681 192 648 192 614 C192 577 214 552 249 552 C288 552 314 580 314 623 L314 623 Z M484 623 C484 655 461 681 425 681 C388 681 361 648 361 614 C361 577 383 552 418 552 C457 552 484 580 484 623 L484 623 Z " />
<glyph glyph-name="divide" unicode="&#xf7;" horiz-adv-x="596" d="M410 478 C410 515 393 539 358 539 C321 539 291 508 291 467 C290 434 311 411 342 411 C378 411 409 439 410 478 L410 478 Z M526 268 L544 359 L101 359 L82 268 L526 268 Z M335 154 C335 193 317 217 283 217 C245 217 218 186 217 144 C217 111 238 87 269 87 C306 87 334 117 335 154 L335 154 Z " />
<glyph glyph-name="oslash" unicode="&#xf8;" horiz-adv-x="548" d="M70 -43 L118 13 C153 -4 195 -13 241 -13 C314 -13 393 13 440 63 C498 124 521 220 521 293 C521 349 502 391 471 420 L515 471 L469 513 L418 453 C384 467 345 474 305 474 C222 474 154 447 107 397 C49 336 29 250 29 177 C29 121 44 79 71 49 L25 -4 L70 -43 Z M373 284 C373 241 362 178 340 141 C322 112 295 94 256 94 C232 94 215 100 202 110 L371 305 C372 298 373 291 373 284 L373 284 Z M175 186 C175 233 185 295 213 331 C232 355 258 368 293 368 C310 368 325 365 337 359 L175 171 L175 186 Z " />
<glyph glyph-name="ugrave" unicode="&#xf9;" horiz-adv-x="600" d="M551 15 L570 97 C558 94 528 88 514 88 C492 88 483 96 483 119 C483 140 497 202 505 237 L554 460 L415 460 L363 237 C356 206 350 177 347 156 C317 130 281 111 249 111 C226 111 211 121 211 146 C211 156 215 180 221 205 L248 315 C257 350 263 391 263 405 C263 449 245 469 188 469 C155 469 91 452 46 429 L30 354 C42 356 54 358 68 358 C90 358 103 352 103 327 C103 311 99 286 92 255 L72 175 C63 138 58 100 58 85 C58 23 94 -12 165 -12 C228 -12 298 16 345 68 C345 60 346 48 348 39 C355 3 388 -12 422 -12 C465 -12 506 -3 551 15 L551 15 Z M391 545 L309 690 C284 735 269 743 248 743 C221 743 194 722 194 692 C194 673 205 658 229 634 L349 515 L391 545 Z " />
<glyph glyph-name="uacute" unicode="&#xfa;" horiz-adv-x="600" d="M551 15 L570 97 C558 94 528 88 514 88 C492 88 483 96 483 119 C483 140 497 202 505 237 L554 460 L415 460 L363 237 C356 206 350 177 347 156 C317 130 281 111 249 111 C226 111 211 121 211 146 C211 156 215 180 221 205 L248 315 C257 350 263 391 263 405 C263 449 245 469 188 469 C155 469 91 452 46 429 L30 354 C42 356 54 358 68 358 C90 358 103 352 103 327 C103 311 99 286 92 255 L72 175 C63 138 58 100 58 85 C58 23 94 -12 165 -12 C228 -12 298 16 345 68 C345 60 346 48 348 39 C355 3 388 -12 422 -12 C465 -12 506 -3 551 15 L551 15 Z M296 515 L435 614 C466 636 482 652 482 674 C482 704 457 726 430 726 C412 726 395 717 368 684 L260 553 L296 515 Z " />
<glyph glyph-name="ucircumflex" unicode="&#xfb;" horiz-adv-x="600" d="M551 15 L570 97 C558 94 528 88 514 88 C492 88 483 96 483 119 C483 140 497 202 505 237 L554 460 L415 460 L363 237 C356 206 350 177 347 156 C317 130 281 111 249 111 C226 111 211 121 211 146 C211 156 215 180 221 205 L248 315 C257 350 263 391 263 405 C263 449 245 469 188 469 C155 469 91 452 46 429 L30 354 C42 356 54 358 68 358 C90 358 103 352 103 327 C103 311 99 286 92 255 L72 175 C63 138 58 100 58 85 C58 23 94 -12 165 -12 C228 -12 298 16 345 68 C345 60 346 48 348 39 C355 3 388 -12 422 -12 C465 -12 506 -3 551 15 L551 15 Z M491 534 L414 696 C406 713 391 721 371 721 C353 721 337 711 322 694 L189 542 L228 506 L357 611 L446 506 L491 534 Z " />
<glyph glyph-name="udieresis" unicode="&#xfc;" horiz-adv-x="600" d="M551 15 L570 97 C558 94 528 88 514 88 C492 88 483 96 483 119 C483 140 497 202 505 237 L554 460 L415 460 L363 237 C356 206 350 177 347 156 C317 130 281 111 249 111 C226 111 211 121 211 146 C211 156 215 180 221 205 L248 315 C257 350 263 391 263 405 C263 449 245 469 188 469 C155 469 91 452 46 429 L30 354 C42 356 54 358 68 358 C90 358 103 352 103 327 C103 311 99 286 92 255 L72 175 C63 138 58 100 58 85 C58 23 94 -12 165 -12 C228 -12 298 16 345 68 C345 60 346 48 348 39 C355 3 388 -12 422 -12 C465 -12 506 -3 551 15 L551 15 Z M324 623 C324 655 301 681 266 681 C228 681 202 648 202 614 C202 577 224 552 259 552 C298 552 324 580 324 623 L324 623 Z M494 623 C494 655 471 681 435 681 C398 681 371 648 371 614 C371 577 393 552 428 552 C467 552 494 580 494 623 L494 623 Z " />
<glyph glyph-name="yacute" unicode="&#xfd;" horiz-adv-x="591" d="M33 -89 C25 -121 18 -173 18 -195 C18 -222 29 -235 49 -248 C76 -265 127 -272 172 -272 C253 -272 325 -254 375 -203 C414 -164 445 -101 468 20 C496 168 523 313 554 460 L414 460 L346 158 C316 131 280 111 248 111 C225 111 212 121 212 146 C212 156 216 180 222 205 L248 315 C256 350 263 391 263 405 C263 449 245 469 188 469 C155 469 91 452 46 429 L30 354 C42 356 54 358 68 358 C90 358 103 352 103 327 C103 311 99 286 92 255 L73 175 C65 138 59 100 59 85 C59 23 93 -12 165 -12 C239 -12 290 20 334 63 C329 42 319 -3 311 -34 C299 -80 285 -115 263 -140 C246 -159 214 -167 186 -167 C158 -167 134 -159 124 -148 C118 -140 114 -131 112 -116 C111 -107 111 -98 111 -89 L33 -89 Z M296 515 L435 614 C466 636 482 652 482 674 C482 704 457 726 430 726 C412 726 395 717 368 684 L260 553 L296 515 Z " />
<glyph glyph-name="thorn" unicode="&#xfe;" horiz-adv-x="592" d="M118 -261 L174 -2 C197 -6 229 -8 253 -8 C342 -8 416 18 468 72 C534 142 562 239 562 329 C562 415 528 474 430 474 C365 474 302 438 262 396 C276 451 297 539 311 603 C318 634 322 656 322 672 C322 706 308 731 261 731 C212 731 159 718 100 692 L84 616 C94 618 117 621 126 621 C149 621 160 613 160 591 C160 576 155 543 150 522 L-21 -261 L118 -261 Z M202 114 L244 304 C273 330 311 354 346 354 C387 354 407 335 407 285 C407 251 396 195 371 156 C350 124 314 104 271 104 C243 104 224 108 202 114 L202 114 Z " />
<glyph glyph-name="ydieresis" unicode="&#xff;" horiz-adv-x="591" d="M33 -89 C25 -121 18 -173 18 -195 C18 -222 29 -235 49 -248 C76 -265 127 -272 172 -272 C253 -272 325 -254 375 -203 C414 -164 445 -101 468 20 C496 168 523 313 554 460 L414 460 L346 158 C316 131 280 111 248 111 C225 111 212 121 212 146 C212 156 216 180 222 205 L248 315 C256 350 263 391 263 405 C263 449 245 469 188 469 C155 469 91 452 46 429 L30 354 C42 356 54 358 68 358 C90 358 103 352 103 327 C103 311 99 286 92 255 L73 175 C65 138 59 100 59 85 C59 23 93 -12 165 -12 C239 -12 290 20 334 63 C329 42 319 -3 311 -34 C299 -80 285 -115 263 -140 C246 -159 214 -167 186 -167 C158 -167 134 -159 124 -148 C118 -140 114 -131 112 -116 C111 -107 111 -98 111 -89 L33 -89 Z M328 623 C328 655 305 681 270 681 C232 681 206 648 206 614 C206 577 228 552 263 552 C302 552 328 580 328 623 L328 623 Z M498 623 C498 655 475 681 439 681 C402 681 375 648 375 614 C375 577 397 552 432 552 C471 552 498 580 498 623 L498 623 Z " />
<glyph glyph-name="Amacron" unicode="&#x100;" horiz-adv-x="759" d="M282 -1 L298 81 C258 82 233 86 222 91 C209 98 208 107 208 115 C208 127 219 152 235 178 L257 213 L465 213 L471 173 C474 152 474 134 474 126 C474 104 468 93 446 88 C433 85 413 82 386 81 L371 -1 C423 0 537 1 564 1 C589 1 659 0 704 -1 L720 81 C689 82 667 88 661 93 C645 107 638 123 631 164 L555 622 C547 669 520 693 471 693 C420 693 388 668 358 616 L111 190 C73 126 63 113 47 100 C34 88 19 82 -20 81 L-35 -1 C8 0 62 1 83 1 C106 1 237 0 282 -1 L282 -1 Z M307 321 C371 434 394 475 421 528 C427 471 431 432 449 321 L307 321 Z M607 749 L623 830 L340 830 L323 749 L607 749 Z " />
<glyph glyph-name="amacron" unicode="&#x101;" horiz-adv-x="601" d="M344 68 C344 59 344 48 347 39 C357 8 378 -9 424 -9 C448 -9 499 -3 550 17 L569 100 C549 93 522 91 512 91 C489 91 482 102 482 122 C482 140 488 173 498 214 L563 481 L457 481 L435 448 C411 461 366 468 337 468 C244 468 176 439 125 387 C65 324 28 229 28 151 C28 53 78 -12 187 -12 C248 -12 303 16 344 68 L344 68 Z M341 145 C314 117 280 98 245 98 C201 98 178 125 178 172 C178 223 203 292 238 326 C263 350 298 361 328 361 C351 361 371 356 390 345 L358 224 C351 197 344 167 341 145 L341 145 Z M514 548 L530 630 L264 630 L248 548 L514 548 Z " />
<glyph glyph-name="Abreve" unicode="&#x102;" horiz-adv-x="759" d="M282 -1 L298 81 C258 82 233 86 222 91 C209 98 208 107 208 115 C208 127 219 152 235 178 L257 213 L465 213 L471 173 C474 152 474 134 474 126 C474 104 468 93 446 88 C433 85 413 82 386 81 L371 -1 C423 0 537 1 564 1 C589 1 659 0 704 -1 L720 81 C689 82 667 88 661 93 C645 107 638 123 631 164 L555 622 C547 669 520 693 471 693 C420 693 388 668 358 616 L111 190 C73 126 63 113 47 100 C34 88 19 82 -20 81 L-35 -1 C8 0 62 1 83 1 C106 1 237 0 282 -1 L282 -1 Z M307 321 C371 434 394 475 421 528 C427 471 431 432 449 321 L307 321 Z M593 889 C574 834 537 808 478 808 C419 808 388 840 387 889 L341 885 C340 872 339 859 339 848 C339 762 388 726 467 726 C561 726 626 783 640 886 L593 889 Z " />
<glyph glyph-name="abreve" unicode="&#x103;" horiz-adv-x="601" d="M344 68 C344 59 344 48 347 39 C357 8 378 -9 424 -9 C448 -9 499 -3 550 17 L569 100 C549 93 522 91 512 91 C489 91 482 102 482 122 C482 140 488 173 498 214 L563 481 L457 481 L435 448 C411 461 366 468 337 468 C244 468 176 439 125 387 C65 324 28 229 28 151 C28 53 78 -12 187 -12 C248 -12 303 16 344 68 L344 68 Z M341 145 C314 117 280 98 245 98 C201 98 178 125 178 172 C178 223 203 292 238 326 C263 350 298 361 328 361 C351 361 371 356 390 345 L358 224 C351 197 344 167 341 145 L341 145 Z M469 686 C450 631 415 605 363 605 C309 605 282 637 280 686 L234 682 C233 669 231 657 231 646 C231 557 279 522 356 522 C446 522 504 578 516 683 L469 686 Z " />
<glyph glyph-name="Aogonek" unicode="&#x104;" horiz-adv-x="759" d="M282 -1 L298 81 C258 82 233 86 222 91 C209 98 208 107 208 115 C208 127 219 152 235 178 L257 213 L465 213 L471 173 C474 152 474 134 474 126 C474 104 468 93 446 88 C433 85 413 82 386 81 L371 -1 C409 0 479 0 525 1 C438 -64 391 -131 391 -193 C391 -242 424 -286 496 -286 C543 -286 591 -264 618 -245 L601 -201 C580 -210 556 -216 532 -216 C498 -216 484 -192 484 -165 C484 -119 516 -66 589 1 L704 -1 L720 81 C689 82 667 88 661 93 C645 107 638 123 631 164 L555 622 C547 669 520 693 471 693 C420 693 388 668 358 616 L111 190 C73 126 63 113 47 100 C34 88 19 82 -20 81 L-35 -1 C8 0 62 1 83 1 C106 1 237 0 282 -1 L282 -1 Z M307 321 C371 434 394 475 421 528 C427 471 431 432 449 321 L307 321 Z " />
<glyph glyph-name="aogonek" unicode="&#x105;" horiz-adv-x="601" d="M344 68 C344 59 344 48 347 39 C353 20 363 5 381 -2 C299 -62 252 -124 252 -186 C252 -233 283 -275 353 -275 C399 -275 446 -254 473 -236 L457 -193 C435 -202 412 -208 389 -208 C357 -208 342 -185 342 -160 C342 -114 376 -65 438 -8 C465 -6 507 0 550 17 L569 100 C549 93 522 91 512 91 C489 91 482 102 482 122 C482 140 488 173 498 214 L563 481 L457 481 L435 448 C411 461 366 468 337 468 C244 468 176 439 125 387 C65 324 28 229 28 151 C28 53 78 -12 187 -12 C248 -12 303 16 344 68 L344 68 Z M341 145 C314 117 280 98 245 98 C201 98 178 125 178 172 C178 223 203 292 238 326 C263 350 298 361 328 361 C351 361 371 356 390 345 L358 224 C351 197 344 167 341 145 L341 145 Z " />
<glyph glyph-name="Cacute" unicode="&#x106;" horiz-adv-x="682" d="M637 210 L552 210 C532 165 515 141 501 128 C481 111 445 99 386 99 C301 99 221 147 221 283 C221 355 244 439 288 498 C329 554 394 580 460 580 C510 580 543 572 559 551 C570 537 576 508 576 469 L663 469 C670 504 681 560 681 604 C681 627 670 650 641 664 C610 679 554 692 482 692 C369 692 274 664 202 602 C101 517 59 393 59 269 C59 96 167 -14 356 -14 C433 -14 495 0 525 11 C561 24 584 42 598 65 C612 87 623 130 637 210 L637 210 Z M392 716 L555 794 C591 812 607 833 607 853 C607 884 585 905 558 905 C540 905 526 899 495 872 L362 760 L392 716 Z " />
<glyph glyph-name="cacute" unicode="&#x107;" horiz-adv-x="480" d="M438 57 L400 135 C357 113 306 97 262 97 C209 97 175 121 175 196 C175 246 192 302 222 335 C243 358 268 368 295 368 C313 368 329 362 338 355 C349 346 354 328 356 292 L436 292 C445 324 454 375 454 399 C454 436 441 449 404 462 C380 470 341 474 308 474 C241 474 184 456 132 416 C60 359 29 262 29 174 C29 57 105 -14 227 -14 C304 -14 378 12 438 57 L438 57 Z M263 515 L402 614 C433 636 449 652 449 674 C449 704 424 726 397 726 C379 726 362 717 335 684 L227 553 L263 515 Z " />
<glyph glyph-name="Ccircumflex" unicode="&#x108;" horiz-adv-x="682" d="M637 210 L552 210 C532 165 515 141 501 128 C481 111 445 99 386 99 C301 99 221 147 221 283 C221 355 244 439 288 498 C329 554 394 580 460 580 C510 580 543 572 559 551 C570 537 576 508 576 469 L663 469 C670 504 681 560 681 604 C681 627 670 650 641 664 C610 679 554 692 482 692 C369 692 274 664 202 602 C101 517 59 393 59 269 C59 96 167 -14 356 -14 C433 -14 495 0 525 11 C561 24 584 42 598 65 C612 87 623 130 637 210 L637 210 Z M633 750 L538 884 C526 900 516 909 495 909 C477 909 462 900 445 884 L307 752 L340 715 L483 804 L596 715 L633 750 Z " />
<glyph glyph-name="ccircumflex" unicode="&#x109;" horiz-adv-x="480" d="M438 57 L400 135 C357 113 306 97 262 97 C209 97 175 121 175 196 C175 246 192 302 222 335 C243 358 268 368 295 368 C313 368 329 362 338 355 C349 346 354 328 356 292 L436 292 C445 324 454 375 454 399 C454 436 441 449 404 462 C380 470 341 474 308 474 C241 474 184 456 132 416 C60 359 29 262 29 174 C29 57 105 -14 227 -14 C304 -14 378 12 438 57 L438 57 Z M469 534 L392 696 C384 713 369 721 349 721 C331 721 315 711 300 694 L167 542 L206 506 L335 611 L424 506 L469 534 Z " />
<glyph glyph-name="Cdotaccent" unicode="&#x10a;" horiz-adv-x="682" d="M637 210 L552 210 C532 165 515 141 501 128 C481 111 445 99 386 99 C301 99 221 147 221 283 C221 355 244 439 288 498 C329 554 394 580 460 580 C510 580 543 572 559 551 C570 537 576 508 576 469 L663 469 C670 504 681 560 681 604 C681 627 670 650 641 664 C610 679 554 692 482 692 C369 692 274 664 202 602 C101 517 59 393 59 269 C59 96 167 -14 356 -14 C433 -14 495 0 525 11 C561 24 584 42 598 65 C612 87 623 130 637 210 L637 210 Z M538 812 C538 845 514 870 479 870 C441 870 415 838 415 804 C415 768 438 742 472 742 C511 742 538 771 538 812 L538 812 Z " />
<glyph glyph-name="cdotaccent" unicode="&#x10b;" horiz-adv-x="480" d="M438 57 L400 135 C357 113 306 97 262 97 C209 97 175 121 175 196 C175 246 192 302 222 335 C243 358 268 368 295 368 C313 368 329 362 338 355 C349 346 354 328 356 292 L436 292 C445 324 454 375 454 399 C454 436 441 449 404 462 C380 470 341 474 308 474 C241 474 184 456 132 416 C60 359 29 262 29 174 C29 57 105 -14 227 -14 C304 -14 378 12 438 57 L438 57 Z M389 623 C389 655 365 681 330 681 C292 681 266 648 266 614 C266 577 289 552 323 552 C362 552 389 580 389 623 L389 623 Z " />
<glyph glyph-name="Ccaron" unicode="&#x10c;" horiz-adv-x="682" d="M637 210 L552 210 C532 165 515 141 501 128 C481 111 445 99 386 99 C301 99 221 147 221 283 C221 355 244 439 288 498 C329 554 394 580 460 580 C510 580 543 572 559 551 C570 537 576 508 576 469 L663 469 C670 504 681 560 681 604 C681 627 670 650 641 664 C610 679 554 692 482 692 C369 692 274 664 202 602 C101 517 59 393 59 269 C59 96 167 -14 356 -14 C433 -14 495 0 525 11 C561 24 584 42 598 65 C612 87 623 130 637 210 L637 210 Z M323 875 L418 742 C430 726 440 715 460 715 C478 715 495 726 511 741 L649 873 L616 910 L473 822 L360 910 L323 875 Z " />
<glyph glyph-name="ccaron" unicode="&#x10d;" horiz-adv-x="480" d="M438 57 L400 135 C357 113 306 97 262 97 C209 97 175 121 175 196 C175 246 192 302 222 335 C243 358 268 368 295 368 C313 368 329 362 338 355 C349 346 354 328 356 292 L436 292 C445 324 454 375 454 399 C454 436 441 449 404 462 C380 470 341 474 308 474 C241 474 184 456 132 416 C60 359 29 262 29 174 C29 57 105 -14 227 -14 C304 -14 378 12 438 57 L438 57 Z M174 692 L251 532 C260 514 275 506 294 506 C312 506 329 515 343 532 L476 684 L438 721 L308 616 L219 721 L174 692 Z " />
<glyph glyph-name="Dcaron" unicode="&#x10e;" horiz-adv-x="736" d="M-16 0 L247 0 C367 0 472 14 538 49 C690 129 724 281 724 423 C724 495 691 570 637 610 C583 651 509 676 301 676 L107 676 L92 597 C123 596 143 594 157 591 C169 588 174 579 174 566 C174 556 172 538 168 517 L97 155 C89 114 85 105 79 96 C69 86 58 83 0 79 L-16 0 Z M252 160 L330 566 L364 566 C420 566 472 558 502 536 C539 510 561 457 561 404 C561 234 493 106 321 106 C307 106 286 107 274 109 C257 113 248 121 248 135 C248 140 250 150 252 160 L252 160 Z M250 875 L345 742 C357 726 367 715 387 715 C405 715 422 726 438 741 L576 873 L543 910 L400 822 L287 910 L250 875 Z " />
<glyph glyph-name="dcaron" unicode="&#x10f;" horiz-adv-x="602" d="M346 69 C346 58 347 48 348 41 C355 8 384 -9 426 -9 C450 -9 501 -4 552 17 L570 100 C551 93 523 91 514 91 C491 91 484 102 484 122 C484 133 488 161 496 198 L554 446 C574 534 599 632 599 672 C599 706 586 731 538 731 C489 731 436 718 377 692 L361 616 C371 618 394 621 403 621 C426 621 438 612 438 591 C438 576 432 542 427 520 L412 456 C389 466 353 471 326 471 C232 471 170 441 118 389 C57 327 28 235 28 153 C28 56 78 -12 190 -12 C252 -12 307 16 346 69 L346 69 Z M346 146 C320 117 280 98 246 98 C201 98 178 127 178 180 C178 227 201 294 234 329 C257 354 284 363 318 363 C346 363 371 358 390 347 L361 223 C357 204 350 175 346 146 L346 146 Z M625 473 C718 517 785 576 785 657 C785 699 760 734 710 734 C667 734 645 703 645 671 C645 651 654 639 668 627 C679 619 687 608 687 597 C687 569 652 541 604 515 L625 473 Z " />
<glyph glyph-name="Dcroat" unicode="&#x110;" horiz-adv-x="736" d="M-16 0 L247 0 C367 0 472 14 538 49 C690 129 724 281 724 423 C724 495 691 570 637 610 C583 651 509 676 301 676 L107 676 L92 597 C123 596 143 594 157 591 C169 588 174 579 174 566 C174 556 172 538 168 517 L143 391 L45 391 L30 316 L128 316 L97 155 C89 114 86 104 79 96 C70 85 58 83 0 79 L-16 0 Z M252 160 L282 316 L427 316 L443 391 L296 391 L330 566 L364 566 C420 566 472 558 502 536 C539 510 561 457 561 404 C561 234 493 106 321 106 C307 106 286 107 274 109 C257 113 248 121 248 135 C248 140 250 150 252 160 L252 160 Z " />
<glyph glyph-name="dcroat" unicode="&#x111;" horiz-adv-x="602" d="M632 507 L645 567 L582 567 C592 611 599 650 599 672 C599 706 586 731 538 731 C489 731 436 718 377 692 L361 616 C371 618 394 621 403 621 C426 621 438 612 438 591 C438 585 437 576 436 567 L306 567 L292 507 L424 507 L412 456 C389 466 353 471 326 471 C232 471 170 441 118 389 C57 327 28 235 28 153 C28 56 78 -12 190 -12 C252 -12 307 16 346 69 C346 58 347 48 348 41 C355 8 384 -9 426 -9 C450 -9 501 -4 552 17 L570 100 C551 93 523 91 514 91 C491 91 484 102 484 122 C484 133 488 161 496 198 L554 446 C558 466 563 486 568 507 L632 507 Z M346 146 C320 117 280 98 246 98 C201 98 178 127 178 180 C178 227 201 294 234 329 C257 354 284 363 318 363 C346 363 371 358 390 347 L361 223 C357 204 350 175 346 146 L346 146 Z " />
<glyph glyph-name="Emacron" unicode="&#x112;" horiz-adv-x="636" d="M616 203 L537 203 C523 177 507 147 490 134 C470 118 435 106 357 106 C333 106 295 106 270 110 C255 112 248 121 248 135 C248 141 251 153 252 160 L279 297 L317 297 C342 297 359 295 371 291 C387 285 392 268 393 254 C394 246 394 236 394 225 L465 225 C477 309 491 387 510 463 L437 463 C428 440 420 419 408 409 C393 397 369 394 335 394 L297 394 L331 566 L443 566 C487 566 504 562 513 555 C519 550 528 540 530 523 C531 513 533 500 533 489 L610 489 C618 522 632 588 632 627 C632 661 610 676 561 676 L107 676 L92 597 C118 596 141 594 155 591 C168 587 175 579 175 568 C175 557 171 534 168 517 L98 159 C90 120 89 104 78 95 C67 85 48 80 0 79 L-16 0 L466 0 C518 0 551 13 565 35 C588 70 609 154 616 203 L616 203 Z M520 749 L536 830 L253 830 L236 749 L520 749 Z " />
<glyph glyph-name="emacron" unicode="&#x113;" horiz-adv-x="491" d="M462 62 L423 142 C356 109 312 97 268 97 C198 97 174 134 174 175 C174 180 174 185 176 191 C418 193 472 269 472 350 C472 420 425 474 308 474 C134 474 29 344 29 174 C29 51 108 -14 222 -14 C318 -14 398 18 462 62 L462 62 Z M186 278 C202 337 244 377 301 377 C333 377 349 366 349 342 C349 308 313 279 186 278 L186 278 Z M453 548 L469 630 L203 630 L187 548 L453 548 Z " />
<glyph glyph-name="Ebreve" unicode="&#x114;" horiz-adv-x="636" d="M616 203 L537 203 C523 177 507 147 490 134 C470 118 435 106 357 106 C333 106 295 106 270 110 C255 112 248 121 248 135 C248 141 251 153 252 160 L279 297 L317 297 C342 297 359 295 371 291 C387 285 392 268 393 254 C394 246 394 236 394 225 L465 225 C477 309 491 387 510 463 L437 463 C428 440 420 419 408 409 C393 397 369 394 335 394 L297 394 L331 566 L443 566 C487 566 504 562 513 555 C519 550 528 540 530 523 C531 513 533 500 533 489 L610 489 C618 522 632 588 632 627 C632 661 610 676 561 676 L107 676 L92 597 C118 596 141 594 155 591 C168 587 175 579 175 568 C175 557 171 534 168 517 L98 159 C90 120 89 104 78 95 C67 85 48 80 0 79 L-16 0 L466 0 C518 0 551 13 565 35 C588 70 609 154 616 203 L616 203 Z M506 889 C487 834 450 808 391 808 C332 808 301 840 300 889 L254 885 C253 872 252 859 252 848 C252 762 301 726 380 726 C474 726 539 783 553 886 L506 889 Z " />
<glyph glyph-name="ebreve" unicode="&#x115;" horiz-adv-x="491" d="M462 62 L423 142 C356 109 312 97 268 97 C198 97 174 134 174 175 C174 180 174 185 176 191 C418 193 472 269 472 350 C472 420 425 474 308 474 C134 474 29 344 29 174 C29 51 108 -14 222 -14 C318 -14 398 18 462 62 L462 62 Z M186 278 C202 337 244 377 301 377 C333 377 349 366 349 342 C349 308 313 279 186 278 L186 278 Z M424 686 C405 631 370 605 318 605 C264 605 237 637 235 686 L189 682 C188 669 186 657 186 646 C186 557 234 522 311 522 C401 522 459 578 471 683 L424 686 Z " />
<glyph glyph-name="Edotaccent" unicode="&#x116;" horiz-adv-x="636" d="M616 203 L537 203 C523 177 507 147 490 134 C470 118 435 106 357 106 C333 106 295 106 270 110 C255 112 248 121 248 135 C248 141 251 153 252 160 L279 297 L317 297 C342 297 359 295 371 291 C387 285 392 268 393 254 C394 246 394 236 394 225 L465 225 C477 309 491 387 510 463 L437 463 C428 440 420 419 408 409 C393 397 369 394 335 394 L297 394 L331 566 L443 566 C487 566 504 562 513 555 C519 550 528 540 530 523 C531 513 533 500 533 489 L610 489 C618 522 632 588 632 627 C632 661 610 676 561 676 L107 676 L92 597 C118 596 141 594 155 591 C168 587 175 579 175 568 C175 557 171 534 168 517 L98 159 C90 120 89 104 78 95 C67 85 48 80 0 79 L-16 0 L466 0 C518 0 551 13 565 35 C588 70 609 154 616 203 L616 203 Z M446 812 C446 845 422 870 387 870 C349 870 323 838 323 804 C323 768 346 742 380 742 C419 742 446 771 446 812 L446 812 Z " />
<glyph glyph-name="edotaccent" unicode="&#x117;" horiz-adv-x="491" d="M462 62 L423 142 C356 109 312 97 268 97 C198 97 174 134 174 175 C174 180 174 185 176 191 C418 193 472 269 472 350 C472 420 425 474 308 474 C134 474 29 344 29 174 C29 51 108 -14 222 -14 C318 -14 398 18 462 62 L462 62 Z M186 278 C202 337 244 377 301 377 C333 377 349 366 349 342 C349 308 313 279 186 278 L186 278 Z M391 623 C391 655 367 681 332 681 C294 681 268 648 268 614 C268 577 291 552 325 552 C364 552 391 580 391 623 L391 623 Z " />
<glyph glyph-name="Eogonek" unicode="&#x118;" horiz-adv-x="636" d="M616 203 L537 203 C523 177 507 147 490 134 C470 118 435 106 357 106 C333 106 295 106 270 110 C255 112 248 121 248 135 C248 141 251 153 252 160 L279 297 L317 297 C342 297 359 295 371 291 C387 285 392 268 393 254 C394 246 394 236 394 225 L465 225 C477 309 491 387 510 463 L437 463 C428 440 420 419 408 409 C393 397 369 394 335 394 L297 394 L331 566 L443 566 C487 566 504 562 513 555 C519 550 528 540 530 523 C531 513 533 500 533 489 L610 489 C618 522 632 588 632 627 C632 661 610 676 561 676 L107 676 L92 597 C118 596 141 594 155 591 C168 587 175 579 175 568 C175 557 171 534 168 517 L98 159 C90 120 89 104 78 95 C67 85 48 80 0 79 L-16 0 L441 0 C355 -65 308 -131 308 -193 C308 -242 341 -286 413 -286 C460 -286 508 -264 535 -245 L518 -201 C497 -210 473 -216 449 -216 C415 -216 401 -192 401 -165 C401 -119 434 -65 509 4 C537 9 555 20 565 35 C588 70 609 154 616 203 L616 203 Z " />
<glyph glyph-name="eogonek" unicode="&#x119;" horiz-adv-x="491" d="M462 62 L423 142 C356 109 312 97 268 97 C198 97 174 134 174 175 C174 180 174 185 176 191 C418 193 472 269 472 350 C472 420 425 474 308 474 C134 474 29 344 29 174 C29 51 108 -14 222 -14 C232 -14 242 -13 252 -13 C179 -69 137 -128 137 -186 C137 -233 168 -275 238 -275 C284 -275 331 -254 358 -236 L342 -193 C320 -202 297 -208 274 -208 C242 -208 227 -185 227 -160 C227 -111 265 -59 334 1 C382 15 425 36 462 62 L462 62 Z M186 278 C202 337 244 377 301 377 C333 377 349 366 349 342 C349 308 313 279 186 278 L186 278 Z " />
<glyph glyph-name="Ecaron" unicode="&#x11a;" horiz-adv-x="636" d="M616 203 L537 203 C523 177 507 147 490 134 C470 118 435 106 357 106 C333 106 295 106 270 110 C255 112 248 121 248 135 C248 141 251 153 252 160 L279 297 L317 297 C342 297 359 295 371 291 C387 285 392 268 393 254 C394 246 394 236 394 225 L465 225 C477 309 491 387 510 463 L437 463 C428 440 420 419 408 409 C393 397 369 394 335 394 L297 394 L331 566 L443 566 C487 566 504 562 513 555 C519 550 528 540 530 523 C531 513 533 500 533 489 L610 489 C618 522 632 588 632 627 C632 661 610 676 561 676 L107 676 L92 597 C118 596 141 594 155 591 C168 587 175 579 175 568 C175 557 171 534 168 517 L98 159 C90 120 89 104 78 95 C67 85 48 80 0 79 L-16 0 L466 0 C518 0 551 13 565 35 C588 70 609 154 616 203 L616 203 Z M245 875 L340 742 C352 726 362 715 382 715 C400 715 417 726 433 741 L571 873 L538 910 L395 822 L282 910 L245 875 Z " />
<glyph glyph-name="ecaron" unicode="&#x11b;" horiz-adv-x="491" d="M462 62 L423 142 C356 109 312 97 268 97 C198 97 174 134 174 175 C174 180 174 185 176 191 C418 193 472 269 472 350 C472 420 425 474 308 474 C134 474 29 344 29 174 C29 51 108 -14 222 -14 C318 -14 398 18 462 62 L462 62 Z M186 278 C202 337 244 377 301 377 C333 377 349 366 349 342 C349 308 313 279 186 278 L186 278 Z M184 692 L261 532 C270 514 285 506 304 506 C322 506 339 515 353 532 L486 684 L448 721 L318 616 L229 721 L184 692 Z " />
<glyph glyph-name="Gcircumflex" unicode="&#x11c;" horiz-adv-x="724" d="M714 252 L726 333 C689 331 619 331 588 331 C567 331 458 332 430 333 L417 252 C444 250 472 248 487 242 C496 239 500 234 500 222 C500 218 500 205 497 192 L488 150 C485 134 480 122 473 115 C469 111 459 106 449 103 C437 100 408 98 389 98 C311 98 222 137 222 288 C222 368 249 450 293 503 C341 562 409 580 464 580 C523 580 556 566 570 548 C579 536 584 515 585 468 L672 468 C682 508 691 570 691 596 C691 628 682 647 654 661 C614 681 562 692 471 692 C369 692 280 664 212 611 C107 530 59 396 59 271 C59 87 173 -15 358 -15 C441 -15 523 -1 580 24 C606 36 618 56 623 84 L644 198 C648 219 651 232 657 239 C666 249 683 250 714 252 L714 252 Z M621 750 L526 884 C514 900 504 909 483 909 C465 909 450 900 433 884 L295 752 L328 715 L471 804 L584 715 L621 750 Z " />
<glyph glyph-name="gcircumflex" unicode="&#x11d;" horiz-adv-x="533" d="M196 126 C208 124 229 123 239 123 C297 123 351 136 396 165 C447 198 476 248 476 315 C476 327 473 346 470 352 C489 352 516 353 541 355 L560 445 C526 446 488 446 413 446 C386 464 342 474 281 474 C224 474 173 462 131 434 C78 398 45 343 45 270 C45 214 72 168 125 146 C77 116 52 83 52 39 C52 19 64 -6 91 -19 C61 -31 38 -42 19 -56 C-13 -80 -31 -106 -31 -145 C-31 -214 35 -275 213 -275 C360 -275 491 -225 491 -82 C491 -24 460 25 381 38 C300 51 259 59 224 66 C185 73 176 82 176 95 C176 106 183 116 196 126 L196 126 Z M343 313 C343 285 334 266 320 248 C305 230 281 220 254 220 C217 220 184 237 184 280 C184 311 196 337 215 355 C231 369 251 377 275 377 C317 377 343 358 343 313 L343 313 Z M148 -48 C160 -54 185 -59 280 -75 C326 -82 340 -95 340 -119 C340 -145 315 -170 233 -170 C130 -170 101 -140 101 -110 C101 -80 126 -61 148 -48 L148 -48 Z M443 534 L366 696 C358 713 343 721 323 721 C305 721 289 711 274 694 L141 542 L180 506 L309 611 L398 506 L443 534 Z " />
<glyph glyph-name="Gbreve" unicode="&#x11e;" horiz-adv-x="724" d="M714 252 L726 333 C689 331 619 331 588 331 C567 331 458 332 430 333 L417 252 C444 250 472 248 487 242 C496 239 500 234 500 222 C500 218 500 205 497 192 L488 150 C485 134 480 122 473 115 C469 111 459 106 449 103 C437 100 408 98 389 98 C311 98 222 137 222 288 C222 368 249 450 293 503 C341 562 409 580 464 580 C523 580 556 566 570 548 C579 536 584 515 585 468 L672 468 C682 508 691 570 691 596 C691 628 682 647 654 661 C614 681 562 692 471 692 C369 692 280 664 212 611 C107 530 59 396 59 271 C59 87 173 -15 358 -15 C441 -15 523 -1 580 24 C606 36 618 56 623 84 L644 198 C648 219 651 232 657 239 C666 249 683 250 714 252 L714 252 Z M586 889 C567 834 530 808 471 808 C412 808 381 840 380 889 L334 885 C333 872 332 859 332 848 C332 762 381 726 460 726 C554 726 619 783 633 886 L586 889 Z " />
<glyph glyph-name="gbreve" unicode="&#x11f;" horiz-adv-x="533" d="M196 126 C208 124 229 123 239 123 C297 123 351 136 396 165 C447 198 476 248 476 315 C476 327 473 346 470 352 C489 352 516 353 541 355 L560 445 C526 446 488 446 413 446 C386 464 342 474 281 474 C224 474 173 462 131 434 C78 398 45 343 45 270 C45 214 72 168 125 146 C77 116 52 83 52 39 C52 19 64 -6 91 -19 C61 -31 38 -42 19 -56 C-13 -80 -31 -106 -31 -145 C-31 -214 35 -275 213 -275 C360 -275 491 -225 491 -82 C491 -24 460 25 381 38 C300 51 259 59 224 66 C185 73 176 82 176 95 C176 106 183 116 196 126 L196 126 Z M343 313 C343 285 334 266 320 248 C305 230 281 220 254 220 C217 220 184 237 184 280 C184 311 196 337 215 355 C231 369 251 377 275 377 C317 377 343 358 343 313 L343 313 Z M148 -48 C160 -54 185 -59 280 -75 C326 -82 340 -95 340 -119 C340 -145 315 -170 233 -170 C130 -170 101 -140 101 -110 C101 -80 126 -61 148 -48 L148 -48 Z M405 686 C386 631 351 605 299 605 C245 605 218 637 216 686 L170 682 C169 669 167 657 167 646 C167 557 215 522 292 522 C382 522 440 578 452 683 L405 686 Z " />
<glyph glyph-name="Gdotaccent" unicode="&#x120;" horiz-adv-x="724" d="M714 252 L726 333 C689 331 619 331 588 331 C567 331 458 332 430 333 L417 252 C444 250 472 248 487 242 C496 239 500 234 500 222 C500 218 500 205 497 192 L488 150 C485 134 480 122 473 115 C469 111 459 106 449 103 C437 100 408 98 389 98 C311 98 222 137 222 288 C222 368 249 450 293 503 C341 562 409 580 464 580 C523 580 556 566 570 548 C579 536 584 515 585 468 L672 468 C682 508 691 570 691 596 C691 628 682 647 654 661 C614 681 562 692 471 692 C369 692 280 664 212 611 C107 530 59 396 59 271 C59 87 173 -15 358 -15 C441 -15 523 -1 580 24 C606 36 618 56 623 84 L644 198 C648 219 651 232 657 239 C666 249 683 250 714 252 L714 252 Z M521 812 C521 845 497 870 462 870 C424 870 398 838 398 804 C398 768 421 742 455 742 C494 742 521 771 521 812 L521 812 Z " />
<glyph glyph-name="gdotaccent" unicode="&#x121;" horiz-adv-x="533" d="M196 126 C208 124 229 123 239 123 C297 123 351 136 396 165 C447 198 476 248 476 315 C476 327 473 346 470 352 C489 352 516 353 541 355 L560 445 C526 446 488 446 413 446 C386 464 342 474 281 474 C224 474 173 462 131 434 C78 398 45 343 45 270 C45 214 72 168 125 146 C77 116 52 83 52 39 C52 19 64 -6 91 -19 C61 -31 38 -42 19 -56 C-13 -80 -31 -106 -31 -145 C-31 -214 35 -275 213 -275 C360 -275 491 -225 491 -82 C491 -24 460 25 381 38 C300 51 259 59 224 66 C185 73 176 82 176 95 C176 106 183 116 196 126 L196 126 Z M343 313 C343 285 334 266 320 248 C305 230 281 220 254 220 C217 220 184 237 184 280 C184 311 196 337 215 355 C231 369 251 377 275 377 C317 377 343 358 343 313 L343 313 Z M148 -48 C160 -54 185 -59 280 -75 C326 -82 340 -95 340 -119 C340 -145 315 -170 233 -170 C130 -170 101 -140 101 -110 C101 -80 126 -61 148 -48 L148 -48 Z M360 623 C360 655 336 681 301 681 C263 681 237 648 237 614 C237 577 260 552 294 552 C333 552 360 580 360 623 L360 623 Z " />
<glyph glyph-name="Gcommaaccent" unicode="&#x122;" horiz-adv-x="724" d="M714 252 L726 333 C689 331 619 331 588 331 C567 331 458 332 430 333 L417 252 C444 250 472 248 487 242 C496 239 500 234 500 222 C500 218 500 205 497 192 L488 150 C485 134 480 122 473 115 C469 111 459 106 449 103 C437 100 408 98 389 98 C311 98 222 137 222 288 C222 368 249 450 293 503 C341 562 409 580 464 580 C523 580 556 566 570 548 C579 536 584 515 585 468 L672 468 C682 508 691 570 691 596 C691 628 682 647 654 661 C614 681 562 692 471 692 C369 692 280 664 212 611 C107 530 59 396 59 271 C59 87 173 -15 358 -15 C441 -15 523 -1 580 24 C606 36 618 56 623 84 L644 198 C648 219 651 232 657 239 C666 249 683 250 714 252 L714 252 Z M256 -305 C349 -261 416 -203 416 -122 C416 -79 391 -45 341 -45 C298 -45 276 -76 276 -107 C276 -127 285 -140 299 -151 C310 -159 318 -170 318 -182 C318 -210 283 -237 235 -262 L256 -305 Z " />
<glyph glyph-name="gcommaaccent" unicode="&#x123;" horiz-adv-x="533" d="M196 126 C208 124 229 123 239 123 C297 123 351 137 396 166 C447 199 476 248 476 315 C476 327 473 346 470 352 C489 352 516 353 541 355 L560 445 C526 446 488 446 413 446 C386 464 342 474 281 474 C224 474 173 462 131 434 C78 398 45 343 45 270 C45 214 72 168 125 146 C77 116 52 83 52 39 C52 19 64 -6 91 -19 C61 -31 38 -42 20 -56 C-12 -80 -31 -106 -31 -145 C-31 -214 35 -275 213 -275 C360 -275 491 -225 491 -82 C491 -24 460 22 381 38 C304 54 259 58 224 66 C185 75 176 82 176 95 C176 106 183 116 196 126 L196 126 Z M343 313 C343 285 334 266 320 248 C305 230 281 220 254 220 C217 220 184 237 184 280 C184 311 196 337 215 355 C231 369 251 377 275 377 C317 377 343 358 343 313 L343 313 Z M148 -48 C160 -54 185 -59 280 -75 C326 -82 340 -95 340 -119 C340 -145 315 -170 233 -170 C130 -170 101 -140 101 -110 C101 -80 126 -61 148 -48 L148 -48 Z M379 788 C286 745 218 686 218 605 C218 563 244 528 294 528 C337 528 359 559 359 590 C359 610 349 623 335 634 C324 642 317 653 317 665 C317 692 352 720 401 746 L379 788 Z " />
<glyph glyph-name="Hcircumflex" unicode="&#x124;" horiz-adv-x="770" d="M312 -1 L328 79 C301 81 278 84 268 86 C253 90 245 97 245 112 C245 121 248 136 253 163 L279 298 L522 298 L495 159 C487 116 481 102 474 95 C465 87 454 82 396 79 L380 -1 C426 0 522 1 545 1 C570 1 667 0 709 -1 L725 79 C697 81 675 83 665 85 C650 88 642 96 642 111 C642 121 644 136 649 163 L719 521 C727 561 731 573 738 580 C747 589 754 594 817 597 L833 677 C789 676 700 674 675 674 C651 674 547 676 504 677 L489 597 C518 596 542 595 554 590 C567 585 572 577 572 568 C572 561 570 545 565 521 L543 410 L301 410 L323 520 C330 556 334 573 341 580 C349 589 357 595 421 597 L436 677 C389 676 299 674 274 674 C251 674 150 675 107 677 L92 597 C122 596 145 594 156 591 C170 587 175 578 175 566 C175 557 173 545 169 522 L98 159 C89 116 86 103 79 96 C68 87 59 82 0 79 L-16 -1 C28 0 121 1 145 1 C170 1 270 0 312 -1 L312 -1 Z M647 750 L552 884 C540 900 530 909 509 909 C491 909 476 900 459 884 L321 752 L354 715 L497 804 L610 715 L647 750 Z " />
<glyph glyph-name="hcircumflex" unicode="&#x125;" horiz-adv-x="585" d="M160 0 L229 304 C258 331 294 349 327 349 C349 349 364 340 364 315 C364 304 360 280 354 255 L328 145 C319 107 314 78 314 58 C314 14 342 -9 402 -9 C430 -9 490 -3 536 17 L554 100 C537 95 515 91 500 91 C478 91 468 98 468 122 C468 138 475 176 483 207 L503 286 C512 322 517 361 517 375 C517 438 488 472 417 472 C354 472 290 440 244 387 C265 468 283 544 296 606 C300 626 306 656 306 676 C306 717 278 731 245 731 C192 731 141 717 84 692 L68 616 C81 619 98 621 110 621 C130 621 145 615 145 592 C145 564 135 525 130 502 L21 0 L160 0 Z M413 771 L318 905 C306 921 296 930 275 930 C257 930 242 921 225 905 L87 773 L120 736 L263 825 L376 736 L413 771 Z " />
<glyph glyph-name="Hbar" unicode="&#x126;" horiz-adv-x="770" d="M788 452 L802 526 L720 526 C727 562 731 573 738 580 C747 589 754 594 817 597 L833 677 C789 676 700 674 675 674 C651 674 547 676 504 677 L489 597 C518 596 542 595 554 591 C567 585 572 577 572 568 C572 561 570 547 566 526 L324 526 C330 558 334 573 341 580 C349 589 357 595 421 597 L436 677 C389 676 299 674 274 674 C251 674 150 675 107 677 L92 597 C122 596 145 594 156 591 C170 587 175 578 175 566 C175 557 173 546 170 526 L83 526 L67 452 L155 452 L98 159 C89 116 86 103 79 96 C68 87 59 82 0 79 L-16 -1 C28 0 121 1 145 1 C170 1 270 0 312 -1 L328 79 C301 81 278 84 268 86 C253 90 245 97 245 112 C245 121 248 136 253 163 L279 298 L522 298 L495 159 C487 116 481 102 474 95 C465 87 454 82 396 79 L380 -1 C426 0 522 1 545 1 C570 1 667 0 709 -1 L725 79 C697 81 675 83 665 85 C650 88 642 96 642 111 C642 121 644 136 649 163 L705 452 L788 452 Z M300 406 L309 452 L551 452 L542 406 L300 406 Z " />
<glyph glyph-name="hbar" unicode="&#x127;" horiz-adv-x="585" d="M386 507 L400 567 L287 567 L296 604 C301 624 306 656 306 676 C306 717 278 731 245 731 C192 731 141 717 84 692 L68 616 C81 619 98 621 110 621 C130 621 145 615 145 592 C145 584 144 576 143 567 L61 567 L47 507 L131 507 C130 505 130 503 130 502 L21 0 L160 0 L229 304 C258 331 294 349 327 349 C349 349 364 340 364 315 C364 304 360 280 354 255 L328 145 C319 107 314 78 314 58 C314 14 342 -9 402 -9 C430 -9 490 -3 536 17 L554 100 C537 95 515 91 500 91 C478 91 468 98 468 122 C468 138 476 176 483 207 L503 287 C512 323 517 361 517 375 C517 438 488 472 417 472 C354 472 290 440 244 387 L274 507 L386 507 Z " />
<glyph glyph-name="Itilde" unicode="&#x128;" horiz-adv-x="376" d="M314 -1 L330 79 C299 81 277 84 267 87 C254 91 247 98 247 111 C247 120 250 136 255 163 L324 521 C332 561 337 573 343 580 C351 589 360 594 423 597 L438 677 C393 676 301 674 276 674 C253 674 150 676 107 677 L92 597 C122 596 146 594 157 591 C171 587 175 580 175 569 C175 559 173 545 169 522 L98 159 C89 116 86 103 79 96 C68 87 55 82 0 79 L-16 -1 C28 0 121 1 145 1 C170 1 272 0 314 -1 L314 -1 Z M158 731 C180 769 196 783 219 783 C227 783 239 780 258 771 L287 757 C313 744 336 738 356 738 C400 738 435 787 459 863 L414 878 C396 845 383 823 360 823 C347 823 328 832 314 838 L278 853 C262 860 242 869 223 869 C172 869 137 806 115 747 L158 731 Z " />
<glyph glyph-name="itilde" unicode="&#x129;" horiz-adv-x="326" d="M62 535 C80 572 92 584 114 584 C122 584 137 581 157 573 L183 562 C211 549 229 543 251 543 C294 543 325 595 341 670 L295 684 C278 649 265 632 247 632 C234 632 218 638 201 646 L174 659 C157 667 136 675 114 675 C64 675 33 608 17 549 L62 535 Z M293 100 C275 95 253 91 239 91 C216 91 206 98 206 122 C206 138 214 176 222 206 L241 282 C250 320 262 377 262 394 C262 447 239 470 182 470 C137 470 87 451 47 431 L31 356 C43 358 61 359 73 359 C94 359 106 351 106 328 C106 315 99 287 92 256 L66 145 C57 108 52 79 52 59 C52 14 81 -9 140 -9 C168 -9 228 -3 274 17 L293 100 Z " />
<glyph glyph-name="Imacron" unicode="&#x12a;" horiz-adv-x="376" d="M314 -1 L330 79 C299 81 277 84 267 87 C254 91 247 98 247 111 C247 120 250 136 255 163 L324 521 C332 561 337 573 343 580 C351 589 360 594 423 597 L438 677 C393 676 301 674 276 674 C253 674 150 676 107 677 L92 597 C122 596 146 594 157 591 C171 587 175 580 175 569 C175 559 173 545 169 522 L98 159 C89 116 86 103 79 96 C68 87 55 82 0 79 L-16 -1 C28 0 121 1 145 1 C170 1 272 0 314 -1 L314 -1 Z M417 773 L433 855 L167 855 L151 773 L417 773 Z " />
<glyph glyph-name="imacron" unicode="&#x12b;" horiz-adv-x="326" d="M319 548 L335 630 L69 630 L53 548 L319 548 Z M293 100 C275 95 253 91 239 91 C216 91 206 98 206 122 C206 138 214 176 222 206 L241 282 C250 320 262 377 262 394 C262 447 239 470 182 470 C137 470 87 451 47 431 L31 356 C43 358 61 359 73 359 C94 359 106 351 106 328 C106 315 99 287 92 256 L66 145 C57 108 52 79 52 59 C52 14 81 -9 140 -9 C168 -9 228 -3 274 17 L293 100 Z " />
<glyph glyph-name="Ibreve" unicode="&#x12c;" horiz-adv-x="376" d="M314 -1 L330 79 C299 81 277 84 267 87 C254 91 247 98 247 111 C247 120 250 136 255 163 L324 521 C332 561 337 573 343 580 C351 589 360 594 423 597 L438 677 C393 676 301 674 276 674 C253 674 150 676 107 677 L92 597 C122 596 146 594 157 591 C171 587 175 580 175 569 C175 559 173 545 169 522 L98 159 C89 116 86 103 79 96 C68 87 55 82 0 79 L-16 -1 C28 0 121 1 145 1 C170 1 272 0 314 -1 L314 -1 Z M398 889 C379 834 342 808 283 808 C224 808 193 840 192 889 L146 885 C145 872 144 859 144 848 C144 762 193 726 272 726 C366 726 431 783 445 886 L398 889 Z " />
<glyph glyph-name="ibreve" unicode="&#x12d;" horiz-adv-x="326" d="M290 686 C271 631 236 605 184 605 C130 605 103 637 101 686 L55 682 C54 669 52 657 52 646 C52 557 100 522 177 522 C267 522 325 578 337 683 L290 686 Z M293 100 C275 95 253 91 239 91 C216 91 206 98 206 122 C206 138 214 176 222 206 L241 282 C250 320 262 377 262 394 C262 447 239 470 182 470 C137 470 87 451 47 431 L31 356 C43 358 61 359 73 359 C94 359 106 351 106 328 C106 315 99 287 92 256 L66 145 C57 108 52 79 52 59 C52 14 81 -9 140 -9 C168 -9 228 -3 274 17 L293 100 Z " />
<glyph glyph-name="Iogonek" unicode="&#x12e;" horiz-adv-x="376" d="M314 -1 L330 79 C299 81 277 84 267 87 C254 91 247 98 247 111 C247 120 250 136 255 163 L324 521 C332 561 337 573 343 580 C351 589 360 594 423 597 L438 677 C393 676 301 674 276 674 C253 674 150 676 107 677 L92 597 C122 596 146 594 157 591 C171 587 175 580 175 569 C175 559 173 545 169 522 L98 159 C89 116 86 103 79 96 C68 87 55 82 0 79 L-16 -1 C25 0 107 1 137 1 C50 -64 3 -131 3 -193 C3 -242 36 -286 108 -286 C155 -286 203 -264 230 -245 L213 -201 C192 -210 168 -216 144 -216 C110 -216 96 -192 96 -165 C96 -119 127 -66 201 1 C240 0 288 0 314 -1 L314 -1 Z " />
<glyph glyph-name="iogonek" unicode="&#x12f;" horiz-adv-x="326" d="M293 100 C275 95 253 91 239 91 C216 91 206 98 206 122 C206 138 214 176 222 206 L241 282 C250 320 262 377 262 394 C262 447 239 470 182 470 C137 470 87 451 47 431 L31 356 C43 358 61 359 73 359 C94 359 106 351 106 328 C106 315 99 289 92 258 L66 145 C57 108 52 79 52 59 C52 18 75 -4 124 -8 C47 -66 3 -126 3 -186 C3 -233 34 -275 104 -275 C150 -275 197 -254 224 -236 L208 -193 C186 -202 163 -208 140 -208 C108 -208 93 -185 93 -160 C93 -113 128 -63 193 -4 C219 0 248 6 274 17 L293 100 Z M292 646 C292 687 268 720 216 720 C164 720 128 679 128 630 C128 589 157 554 204 554 C258 554 292 595 292 646 L292 646 Z " />
<glyph glyph-name="Idotaccent" unicode="&#x130;" horiz-adv-x="376" d="M314 -1 L330 79 C299 81 277 84 267 87 C254 91 247 98 247 111 C247 120 250 136 255 163 L324 521 C332 561 337 573 343 580 C351 589 360 594 423 597 L438 677 C393 676 301 674 276 674 C253 674 150 676 107 677 L92 597 C122 596 146 594 157 591 C171 587 175 580 175 569 C175 559 173 545 169 522 L98 159 C89 116 86 103 79 96 C68 87 55 82 0 79 L-16 -1 C28 0 121 1 145 1 C170 1 272 0 314 -1 L314 -1 Z M349 812 C349 845 325 870 290 870 C252 870 226 838 226 804 C226 768 249 742 283 742 C322 742 349 771 349 812 L349 812 Z " />
<glyph glyph-name="dotlessi" unicode="&#x131;" horiz-adv-x="326" d="M293 100 C275 95 253 91 239 91 C216 91 206 98 206 122 C206 138 214 176 222 206 L241 282 C250 320 262 377 262 394 C262 447 239 470 182 470 C137 470 87 451 47 431 L31 356 C43 358 61 359 73 359 C94 359 106 351 106 328 C106 315 99 287 92 256 L66 145 C57 108 52 79 52 59 C52 14 81 -9 140 -9 C168 -9 228 -3 274 17 L293 100 Z " />
<glyph glyph-name="IJ" unicode="&#x132;" horiz-adv-x="738" d="M314 -1 L330 79 C299 81 277 84 267 87 C254 91 247 98 247 111 C247 120 250 136 255 163 L324 521 C332 561 337 573 343 580 C351 589 360 594 423 597 L438 677 C393 676 301 674 276 674 C253 674 150 676 107 677 L92 597 C122 596 146 594 157 591 C171 587 175 580 175 569 C175 559 173 545 169 522 L98 159 C89 116 86 103 79 96 C68 87 55 82 0 79 L-16 -1 C28 0 121 1 145 1 C170 1 272 0 314 -1 L314 -1 Z M319 -167 C426 -140 520 -84 558 -24 C594 31 614 83 636 199 L697 521 C705 562 710 574 716 581 C725 590 736 594 791 597 L807 677 C766 676 707 674 649 674 C594 674 508 676 482 677 L466 597 C495 596 516 594 527 592 C541 589 550 582 550 570 C550 560 547 542 543 522 L479 189 C469 139 452 73 440 38 C418 -28 368 -66 295 -92 L319 -167 Z " />
<glyph glyph-name="ij" unicode="&#x133;" horiz-adv-x="643" d="M293 100 C275 95 253 91 239 91 C216 91 206 98 206 122 C206 138 214 176 222 206 L241 282 C250 320 262 377 262 394 C262 447 239 470 182 470 C137 470 87 451 47 431 L31 356 C43 358 61 359 73 359 C94 359 106 351 106 328 C106 315 99 289 92 258 L66 145 C57 108 52 79 52 59 C52 14 81 -9 140 -9 C168 -9 228 -3 274 17 L293 100 Z M292 646 C292 687 268 720 216 720 C164 720 128 679 128 630 C128 589 157 554 204 554 C258 554 292 595 292 646 L292 646 Z M243 -275 C307 -268 388 -231 424 -194 C469 -147 494 -89 519 31 C533 94 556 198 573 288 C580 324 590 380 590 394 C590 447 568 470 514 470 C471 470 415 451 376 431 L360 356 C373 358 390 359 402 359 C423 359 434 351 434 328 C434 316 430 285 424 257 C410 186 395 110 377 31 C360 -44 345 -102 324 -134 C302 -166 265 -184 223 -196 L243 -275 Z M622 646 C622 687 599 720 546 720 C495 720 458 679 458 630 C458 589 487 554 535 554 C589 554 622 595 622 646 L622 646 Z " />
<glyph glyph-name="Jcircumflex" unicode="&#x134;" horiz-adv-x="362" d="M-56 -167 C51 -140 145 -84 183 -24 C219 31 239 83 261 199 L322 521 C330 562 335 574 341 581 C350 590 361 594 416 597 L432 677 C391 676 332 674 274 674 C219 674 133 676 107 677 L91 597 C120 596 141 594 152 592 C166 589 175 582 175 570 C175 560 172 542 168 522 L104 189 C94 139 77 73 65 38 C43 -28 -7 -66 -80 -92 L-56 -167 Z M427 759 L350 921 C342 938 327 946 307 946 C289 946 273 936 258 919 L125 767 L164 731 L293 836 L382 731 L427 759 Z " />
<glyph glyph-name="jcircumflex" unicode="&#x135;" horiz-adv-x="316" d="M-83 -275 C-19 -268 62 -231 98 -194 C143 -147 168 -89 193 31 C207 94 229 198 247 288 C253 324 264 380 264 394 C264 447 242 470 188 470 C145 470 89 451 50 431 L34 356 C47 358 64 359 76 359 C97 359 108 351 108 328 C108 316 105 285 98 257 C85 186 69 110 51 31 C34 -44 19 -102 -2 -134 C-24 -166 -61 -184 -103 -196 L-83 -275 Z M344 534 L266 696 C257 712 243 721 223 721 C206 721 189 711 174 694 L42 542 L80 506 L209 611 L298 506 L344 534 Z " />
<glyph glyph-name="Kcommaaccent" unicode="&#x136;" horiz-adv-x="741" d="M312 -1 L328 79 C298 82 278 84 266 87 C253 91 245 98 245 112 C245 122 248 138 253 164 L323 521 C331 561 334 573 341 580 C349 589 360 595 418 597 L433 677 C389 676 299 674 274 674 C251 674 150 676 107 677 L92 597 C124 596 145 594 155 591 C169 587 175 579 175 568 C175 558 173 544 169 523 L98 160 C89 116 85 103 78 96 C68 87 59 82 0 79 L-16 -1 C28 0 121 1 145 1 C170 1 270 0 312 -1 L312 -1 Z M692 1 L708 80 C694 81 675 83 661 88 C644 94 628 104 610 124 C571 169 507 254 460 357 C510 406 601 488 638 526 C679 568 703 583 722 590 C738 595 749 596 763 597 L780 677 C736 675 676 675 652 675 C629 675 531 675 489 677 L473 597 C518 594 529 590 529 574 C529 563 522 546 487 510 C448 468 375 398 303 338 C362 202 429 99 472 46 C498 14 537 -5 601 -5 C624 -5 657 -4 692 1 L692 1 Z M266 -305 C359 -261 426 -203 426 -122 C426 -79 401 -45 351 -45 C308 -45 286 -76 286 -107 C286 -127 295 -140 309 -151 C320 -159 328 -170 328 -182 C328 -210 293 -237 245 -262 L266 -305 Z " />
<glyph glyph-name="kcommaaccent" unicode="&#x137;" horiz-adv-x="573" d="M160 0 C169 35 282 544 296 599 C301 619 306 656 306 676 C306 717 278 731 245 731 C192 731 141 717 84 692 L68 616 C81 619 98 621 110 621 C130 621 145 615 145 592 C145 564 135 525 130 502 L21 0 L160 0 Z M532 15 L550 98 C533 94 519 91 499 91 C470 91 447 108 434 127 C413 155 381 202 351 274 C366 291 383 308 403 325 C426 344 445 351 458 351 C471 351 478 344 480 328 L547 328 C553 355 560 399 560 413 C560 448 534 472 492 472 C442 472 400 452 349 402 C315 369 274 320 229 252 C251 181 290 87 329 38 C354 7 385 -9 443 -9 C478 -9 519 6 532 15 L532 15 Z M182 -305 C275 -261 342 -203 342 -122 C342 -79 317 -45 267 -45 C224 -45 202 -76 202 -107 C202 -127 211 -140 225 -151 C236 -159 244 -170 244 -182 C244 -210 209 -237 161 -262 L182 -305 Z " />
<glyph glyph-name="kgreenlandic" unicode="&#x138;" horiz-adv-x="573" d="M160 0 C162 7 227 282 239 337 C244 362 250 399 250 418 C250 457 222 472 188 472 C136 472 86 459 30 433 L13 356 C27 359 43 361 53 361 C74 361 88 354 88 331 C88 304 78 265 73 241 L21 0 L160 0 Z M531 15 L549 98 C532 94 519 91 499 91 C470 91 444 110 432 127 C412 155 381 200 349 269 C365 288 383 307 402 322 C426 341 445 351 459 351 C472 351 478 344 480 328 L547 328 C553 355 560 399 560 413 C560 448 534 472 492 472 C442 472 399 452 348 402 C314 369 273 313 229 246 C251 176 289 87 328 38 C353 7 385 -9 442 -9 C477 -9 518 6 531 15 L531 15 Z " />
<glyph glyph-name="Lacute" unicode="&#x139;" horiz-adv-x="623" d="M593 206 L522 206 C504 169 492 147 476 133 C456 116 424 107 348 107 C325 107 295 107 270 110 C255 112 248 120 248 135 C248 141 252 161 253 167 L323 520 C331 559 336 573 343 580 C351 590 367 596 421 597 L436 677 C394 675 332 674 274 674 C219 674 133 676 107 677 L92 597 C124 596 144 594 157 590 C169 586 175 578 175 568 C175 558 173 543 169 522 L98 159 C91 120 87 105 77 95 C66 85 49 81 0 79 L-16 0 L451 0 C497 0 529 14 541 35 C561 70 572 114 593 206 L593 206 Z M233 716 L396 794 C432 812 448 833 448 853 C448 884 426 905 399 905 C381 905 367 899 336 872 L203 760 L233 716 Z " />
<glyph glyph-name="lacute" unicode="&#x13a;" horiz-adv-x="310" d="M262 17 L281 100 C263 95 242 91 226 91 C204 91 194 98 194 122 C194 138 202 176 209 206 L283 536 C293 581 306 649 306 671 C306 714 291 731 236 731 C192 731 126 711 86 692 L69 616 C83 618 100 621 114 621 C135 621 146 612 146 589 C146 574 138 529 127 481 L53 145 C45 108 40 79 40 59 C40 14 68 -9 127 -9 C156 -9 216 -3 262 17 L262 17 Z M172 782 L335 860 C371 878 387 899 387 919 C387 950 365 971 338 971 C320 971 306 965 275 938 L142 826 L172 782 Z " />
<glyph glyph-name="Lcommaaccent" unicode="&#x13b;" horiz-adv-x="623" d="M593 206 L522 206 C504 169 492 147 476 133 C456 116 424 107 348 107 C325 107 295 107 270 110 C255 112 248 120 248 135 C248 141 252 161 253 167 L323 520 C331 559 336 573 343 580 C351 590 367 596 421 597 L436 677 C394 675 332 674 274 674 C219 674 133 676 107 677 L92 597 C124 596 144 594 157 590 C169 586 175 578 175 568 C175 558 173 543 169 522 L98 159 C91 120 87 105 77 95 C66 85 49 81 0 79 L-16 0 L451 0 C497 0 529 14 541 35 C561 70 572 114 593 206 L593 206 Z M175 -305 C268 -261 335 -203 335 -122 C335 -79 310 -45 260 -45 C217 -45 195 -76 195 -107 C195 -127 204 -140 218 -151 C229 -159 237 -170 237 -182 C237 -210 202 -237 154 -262 L175 -305 Z " />
<glyph glyph-name="lcommaaccent" unicode="&#x13c;" horiz-adv-x="310" d="M262 17 L281 100 C263 95 242 91 226 91 C204 91 194 98 194 122 C194 138 202 176 209 206 L283 536 C293 581 306 649 306 671 C306 714 291 731 236 731 C192 731 126 711 86 692 L69 616 C83 618 100 621 114 621 C135 621 146 612 146 589 C146 574 138 529 127 481 L53 145 C45 108 40 79 40 59 C40 14 68 -9 127 -9 C156 -9 216 -3 262 17 L262 17 Z M39 -305 C132 -261 199 -203 199 -122 C199 -79 174 -45 124 -45 C81 -45 59 -76 59 -107 C59 -127 68 -140 82 -151 C93 -159 101 -170 101 -182 C101 -210 66 -237 18 -262 L39 -305 Z " />
<glyph glyph-name="Lcaron" unicode="&#x13d;" horiz-adv-x="623" d="M593 206 L522 206 C504 169 492 147 476 133 C456 116 424 107 348 107 C325 107 295 107 270 110 C255 112 248 120 248 135 C248 141 252 161 253 167 L323 520 C331 559 336 573 343 580 C351 590 367 596 421 597 L436 677 C394 675 332 674 274 674 C219 674 133 676 107 677 L92 597 C124 596 144 594 157 590 C169 586 175 578 175 568 C175 558 173 543 169 522 L98 159 C91 120 87 105 77 95 C66 85 49 81 0 79 L-16 0 L451 0 C497 0 529 14 541 35 C561 70 572 114 593 206 L593 206 Z M453 439 C546 483 613 541 613 622 C613 665 588 699 538 699 C495 699 473 668 473 637 C473 617 482 604 496 593 C507 585 515 574 515 562 C515 534 480 507 432 482 L453 439 Z " />
<glyph glyph-name="lcaron" unicode="&#x13e;" horiz-adv-x="310" d="M262 17 L281 100 C263 95 242 91 226 91 C204 91 194 98 194 122 C194 138 202 176 209 206 L283 536 C293 581 306 649 306 671 C306 714 291 731 236 731 C192 731 126 711 86 692 L69 616 C83 618 100 621 114 621 C135 621 146 612 146 589 C146 574 138 529 127 481 L53 145 C45 108 40 79 40 59 C40 14 68 -9 127 -9 C156 -9 216 -3 262 17 L262 17 Z M334 473 C427 517 494 576 494 657 C494 699 469 734 419 734 C376 734 354 703 354 671 C354 651 363 639 377 627 C388 619 396 608 396 597 C396 569 361 541 313 515 L334 473 Z " />
<glyph glyph-name="Ldot" unicode="&#x13f;" horiz-adv-x="623" d="M593 206 L522 206 C504 169 492 147 476 133 C456 116 424 107 348 107 C325 107 295 107 270 110 C255 112 248 120 248 135 C248 141 252 161 253 167 L323 520 C331 559 336 573 343 580 C351 590 367 596 421 597 L436 677 C394 675 332 674 274 674 C219 674 133 676 107 677 L92 597 C124 596 144 594 157 590 C169 586 175 578 175 568 C175 558 173 543 169 522 L98 159 C91 120 87 105 77 95 C66 85 49 81 0 79 L-16 0 L451 0 C497 0 529 14 541 35 C561 70 572 114 593 206 L593 206 Z M592 358 C592 401 561 432 515 432 C465 432 431 391 431 346 C431 300 461 268 507 268 C560 268 592 304 592 358 L592 358 Z " />
<glyph glyph-name="ldot" unicode="&#x140;" horiz-adv-x="408" d="M262 17 L281 100 C263 95 242 91 226 91 C204 91 194 98 194 122 C194 138 202 176 209 207 L283 536 C293 581 306 649 306 671 C306 714 291 731 236 731 C192 731 126 711 86 692 L69 616 C83 618 100 621 114 621 C135 621 146 612 146 589 C146 574 138 529 127 481 L53 145 C45 108 40 79 40 59 C40 14 68 -9 127 -9 C156 -9 216 -3 262 17 L262 17 Z M456 370 C456 412 425 442 381 442 C331 442 299 401 299 358 C299 313 327 282 372 282 C424 282 456 317 456 370 L456 370 Z " />
<glyph glyph-name="Lslash" unicode="&#x141;" horiz-adv-x="623" d="M453 430 L420 494 L305 431 L323 520 C331 559 336 573 343 580 C351 590 367 596 421 597 L436 677 C394 675 332 674 274 674 C219 674 133 676 107 677 L92 597 C124 596 144 594 157 590 C169 586 175 578 175 568 C175 558 173 543 169 522 L133 337 L6 268 L40 205 L115 246 L98 159 C91 120 87 105 77 95 C66 85 49 81 0 79 L-16 0 L451 0 C497 0 529 14 541 35 C561 70 572 114 593 206 L522 206 C504 169 492 147 476 133 C456 116 424 107 348 107 C325 107 295 107 270 110 C255 112 248 120 248 135 C248 141 251 156 253 167 L287 340 L453 430 Z " />
<glyph glyph-name="lslash" unicode="&#x142;" horiz-adv-x="310" d="M341 440 L309 491 L266 463 L283 536 C293 581 306 649 306 671 C306 714 291 731 236 731 C192 731 126 711 86 692 L69 616 C83 618 100 621 114 621 C135 621 146 612 146 589 C146 574 138 529 127 481 L98 351 L6 290 L39 241 L80 268 L53 145 C45 108 40 79 40 59 C40 14 68 -9 127 -9 C156 -9 216 -3 262 17 L281 100 C263 95 242 91 226 91 C204 91 194 98 194 122 C194 138 202 176 209 206 L247 378 L341 440 Z " />
<glyph glyph-name="Nacute" unicode="&#x143;" horiz-adv-x="768" d="M262 -1 L278 79 C252 81 234 83 222 85 C206 87 195 95 195 111 C195 124 198 144 205 182 C210 214 238 370 264 507 C299 425 331 359 475 39 C489 7 507 -11 550 -11 C605 -11 621 14 630 62 C662 232 683 337 713 493 C725 555 731 573 738 580 C748 591 759 594 816 597 L832 677 C777 676 727 675 699 675 C677 675 603 676 550 677 L534 597 C564 596 583 593 596 590 C613 586 618 574 618 559 C618 547 616 529 611 492 C606 454 586 350 564 218 C534 290 485 397 353 677 C318 675 270 675 253 675 C237 675 127 676 106 677 L91 597 C107 596 132 595 149 592 C169 589 174 577 174 562 C174 549 171 525 164 489 C153 432 124 285 102 182 C92 132 87 108 80 98 C70 89 60 83 0 79 L-17 -1 C36 0 98 1 119 1 C148 1 210 0 262 -1 L262 -1 Z M418 716 L581 794 C617 812 633 833 633 853 C633 884 611 905 584 905 C566 905 552 899 521 872 L388 760 L418 716 Z " />
<glyph glyph-name="nacute" unicode="&#x144;" horiz-adv-x="602" d="M177 0 L229 223 C236 255 243 283 246 304 C275 331 311 349 344 349 C366 349 380 340 380 315 C380 304 377 280 371 255 L345 145 C336 107 331 78 331 58 C331 14 359 -9 418 -9 C447 -9 507 -3 553 17 L572 100 C554 95 533 91 517 91 C495 91 485 98 485 122 C485 138 492 176 500 207 L520 286 C529 322 534 361 534 375 C534 438 505 472 434 472 C371 472 299 433 253 381 C256 390 256 402 256 414 C256 458 228 471 194 471 C150 471 88 451 48 431 L32 356 C42 358 55 360 69 360 C92 360 106 352 106 327 C106 307 95 259 87 224 L39 0 L177 0 Z M305 515 L444 614 C475 636 491 652 491 674 C491 704 466 726 439 726 C421 726 404 717 377 684 L269 553 L305 515 Z " />
<glyph glyph-name="Ncommaaccent" unicode="&#x145;" horiz-adv-x="768" d="M262 -1 L278 79 C252 81 234 83 222 85 C206 87 195 95 195 111 C195 124 198 144 205 182 C210 214 238 370 264 507 C299 425 331 359 475 39 C489 7 507 -11 550 -11 C605 -11 621 14 630 62 C662 232 683 337 713 493 C725 555 731 573 738 580 C748 591 759 594 816 597 L832 677 C777 676 727 675 699 675 C677 675 603 676 550 677 L534 597 C564 596 583 593 596 590 C613 586 618 574 618 559 C618 547 616 529 611 492 C606 454 586 350 564 218 C534 290 485 397 353 677 C318 675 270 675 253 675 C237 675 127 676 106 677 L91 597 C107 596 132 595 149 592 C169 589 174 577 174 562 C174 549 171 525 164 489 C153 432 124 285 102 182 C92 132 87 108 80 98 C70 89 60 83 0 79 L-17 -1 C36 0 98 1 119 1 C148 1 210 0 262 -1 L262 -1 Z M267 -305 C360 -261 427 -203 427 -122 C427 -79 402 -45 352 -45 C309 -45 287 -76 287 -107 C287 -127 296 -140 310 -151 C321 -159 329 -170 329 -182 C329 -210 294 -237 246 -262 L267 -305 Z " />
<glyph glyph-name="ncommaaccent" unicode="&#x146;" horiz-adv-x="602" d="M177 0 L229 223 C236 255 243 283 246 304 C275 331 311 349 344 349 C366 349 380 340 380 315 C380 304 377 280 371 255 L345 145 C336 107 331 78 331 58 C331 14 359 -9 418 -9 C447 -9 507 -3 553 17 L572 100 C554 95 533 91 517 91 C495 91 485 98 485 122 C485 138 492 176 500 207 L520 286 C529 322 534 361 534 375 C534 438 505 472 434 472 C371 472 299 433 253 381 C256 390 256 402 256 414 C256 458 228 471 194 471 C150 471 88 451 48 431 L32 356 C42 358 55 360 69 360 C92 360 106 352 106 327 C106 307 95 259 87 224 L39 0 L177 0 Z M180 -305 C273 -261 340 -203 340 -122 C340 -79 315 -45 265 -45 C222 -45 200 -76 200 -107 C200 -127 209 -140 223 -151 C234 -159 242 -170 242 -182 C242 -210 207 -237 159 -262 L180 -305 Z " />
<glyph glyph-name="Ncaron" unicode="&#x147;" horiz-adv-x="768" d="M262 -1 L278 79 C252 81 234 83 222 85 C206 87 195 95 195 111 C195 124 198 144 205 182 C210 214 238 370 264 507 C299 425 331 359 475 39 C489 7 507 -11 550 -11 C605 -11 621 14 630 62 C662 232 683 337 713 493 C725 555 731 573 738 580 C748 591 759 594 816 597 L832 677 C777 676 727 675 699 675 C677 675 603 676 550 677 L534 597 C564 596 583 593 596 590 C613 586 618 574 618 559 C618 547 616 529 611 492 C606 454 586 350 564 218 C534 290 485 397 353 677 C318 675 270 675 253 675 C237 675 127 676 106 677 L91 597 C107 596 132 595 149 592 C169 589 174 577 174 562 C174 549 171 525 164 489 C153 432 124 285 102 182 C92 132 87 108 80 98 C70 89 60 83 0 79 L-17 -1 C36 0 98 1 119 1 C148 1 210 0 262 -1 L262 -1 Z M323 875 L418 742 C430 726 440 715 460 715 C478 715 495 726 511 741 L649 873 L616 910 L473 822 L360 910 L323 875 Z " />
<glyph glyph-name="ncaron" unicode="&#x148;" horiz-adv-x="602" d="M177 0 L229 223 C236 255 243 283 246 304 C275 331 311 349 344 349 C366 349 380 340 380 315 C380 304 377 280 371 255 L345 145 C336 107 331 78 331 58 C331 14 359 -9 418 -9 C447 -9 507 -3 553 17 L572 100 C554 95 533 91 517 91 C495 91 485 98 485 122 C485 138 492 176 500 207 L520 286 C529 322 534 361 534 375 C534 438 505 472 434 472 C371 472 299 433 253 381 C256 390 256 402 256 414 C256 458 228 471 194 471 C150 471 88 451 48 431 L32 356 C42 358 55 360 69 360 C92 360 106 352 106 327 C106 307 95 259 87 224 L39 0 L177 0 Z M206 692 L283 532 C292 514 307 506 326 506 C344 506 361 515 375 532 L508 684 L470 721 L340 616 L251 721 L206 692 Z " />
<glyph glyph-name="napostrophe" unicode="&#x149;" horiz-adv-x="602" d="M177 0 L229 223 C236 255 243 283 246 304 C275 331 311 349 344 349 C366 349 380 340 380 315 C380 304 377 280 371 255 L345 145 C336 107 331 78 331 58 C331 14 359 -9 418 -9 C447 -9 507 -3 553 17 L572 100 C554 95 533 91 517 91 C495 91 485 98 485 122 C485 138 492 176 500 207 L520 286 C529 322 534 361 534 375 C534 438 505 472 434 472 C371 472 299 433 253 381 C256 390 256 402 256 414 C256 458 228 471 194 471 C150 471 88 451 48 431 L32 356 C42 358 55 360 69 360 C92 360 106 352 106 327 C106 307 95 259 87 224 L39 0 L177 0 Z M89 499 C182 543 249 601 249 682 C249 725 224 759 174 759 C131 759 109 728 109 697 C109 677 118 664 132 653 C143 645 151 634 151 622 C151 594 116 567 68 542 L89 499 Z " />
<glyph glyph-name="Eng" unicode="&#x14a;" horiz-adv-x="768" d="M262 -1 L278 79 C252 81 234 82 222 84 C206 87 195 95 195 111 C195 124 198 144 205 182 C212 217 238 369 263 507 C326 379 369 286 485 27 C480 -30 464 -72 446 -99 C425 -132 369 -169 323 -189 L355 -268 C429 -246 508 -200 555 -144 C601 -90 614 -23 632 74 C658 218 684 358 713 493 C726 555 731 573 738 580 C748 591 759 594 816 597 L832 677 C777 676 727 675 699 675 C677 675 603 676 550 677 L534 597 C564 596 583 593 596 590 C613 586 619 578 619 563 C619 551 616 529 611 492 C606 454 589 369 566 235 C526 328 471 438 359 677 C323 675 272 675 255 675 C239 675 127 676 106 677 L91 597 C107 596 132 595 149 592 C169 589 174 577 174 562 C174 549 171 524 164 489 C153 432 123 281 102 182 C91 132 88 108 80 99 C72 89 60 83 0 79 L-17 -1 C36 0 98 1 119 1 C148 1 210 0 262 -1 L262 -1 Z " />
<glyph glyph-name="eng" unicode="&#x14b;" horiz-adv-x="602" d="M177 0 L229 223 C236 255 243 283 246 304 C275 331 311 349 344 349 C366 349 380 340 380 315 C380 304 376 280 371 255 L324 33 C307 -50 294 -92 274 -122 C255 -151 214 -178 173 -198 L203 -272 C271 -252 344 -212 390 -159 C435 -106 451 -44 468 38 L520 286 C528 323 534 363 534 375 C534 438 505 472 434 472 C371 472 299 433 253 381 C256 390 256 402 256 414 C256 458 228 471 194 471 C150 471 88 451 48 431 L32 356 C42 358 55 360 69 360 C92 360 106 352 106 327 C106 307 95 259 87 224 L39 0 L177 0 Z " />
<glyph glyph-name="Omacron" unicode="&#x14c;" horiz-adv-x="743" d="M731 433 C731 586 648 691 455 691 C355 691 273 664 203 606 C102 521 60 383 60 260 C60 69 185 -13 350 -13 C452 -13 547 24 616 98 C699 187 731 323 731 433 L731 433 Z M564 428 C564 354 544 242 496 172 C460 119 417 100 359 100 C267 100 222 156 222 267 C222 345 249 453 299 516 C333 559 379 580 433 580 C521 580 564 531 564 428 L564 428 Z M603 749 L619 830 L336 830 L319 749 L603 749 Z " />
<glyph glyph-name="omacron" unicode="&#x14d;" horiz-adv-x="548" d="M521 293 C521 423 420 474 305 474 C222 474 154 447 107 397 C49 336 29 249 29 176 C29 40 125 -14 241 -14 C319 -14 393 12 440 63 C498 124 521 220 521 293 L521 293 Z M373 284 C373 241 362 177 340 140 C322 111 295 93 256 93 C193 93 175 136 175 185 C175 233 186 294 213 331 C232 355 258 368 293 368 C345 368 373 342 373 284 L373 284 Z M460 548 L476 630 L210 630 L194 548 L460 548 Z " />
<glyph glyph-name="Obreve" unicode="&#x14e;" horiz-adv-x="743" d="M731 433 C731 586 648 691 455 691 C355 691 273 664 203 606 C102 521 60 383 60 260 C60 69 185 -13 350 -13 C452 -13 547 24 616 98 C699 187 731 323 731 433 L731 433 Z M564 428 C564 354 544 242 496 172 C460 119 417 100 359 100 C267 100 222 156 222 267 C222 345 249 453 299 516 C333 559 379 580 433 580 C521 580 564 531 564 428 L564 428 Z M591 889 C572 834 535 808 476 808 C417 808 386 840 385 889 L339 885 C338 872 337 859 337 848 C337 762 386 726 465 726 C559 726 624 783 638 886 L591 889 Z " />
<glyph glyph-name="obreve" unicode="&#x14f;" horiz-adv-x="548" d="M521 293 C521 423 420 474 305 474 C222 474 154 447 107 397 C49 336 29 249 29 176 C29 40 125 -14 241 -14 C319 -14 393 12 440 63 C498 124 521 220 521 293 L521 293 Z M373 284 C373 241 362 177 340 140 C322 111 295 93 256 93 C193 93 175 136 175 185 C175 233 186 294 213 331 C232 355 258 368 293 368 C345 368 373 342 373 284 L373 284 Z M440 686 C421 631 386 605 334 605 C280 605 253 637 251 686 L205 682 C204 669 202 657 202 646 C202 557 250 522 327 522 C417 522 475 578 487 683 L440 686 Z " />
<glyph glyph-name="Ohungarumlaut" unicode="&#x150;" horiz-adv-x="743" d="M731 433 C731 586 648 691 455 691 C355 691 273 664 203 606 C102 521 60 383 60 260 C60 69 185 -13 350 -13 C452 -13 547 24 616 98 C699 187 731 323 731 433 L731 433 Z M564 428 C564 354 544 242 496 172 C460 119 417 100 359 100 C267 100 222 156 222 267 C222 345 249 453 299 516 C333 559 379 580 433 580 C521 580 564 531 564 428 L564 428 Z M339 716 L488 809 C519 828 538 849 538 868 C538 896 520 918 493 918 C471 918 456 910 429 881 L310 757 L339 716 Z M517 716 L665 809 C696 828 715 849 715 868 C715 896 697 918 670 918 C648 918 634 910 606 881 L487 757 L517 716 Z " />
<glyph glyph-name="ohungarumlaut" unicode="&#x151;" horiz-adv-x="548" d="M521 293 C521 423 420 474 305 474 C222 474 154 447 107 397 C49 336 29 249 29 176 C29 40 125 -14 241 -14 C319 -14 393 12 440 63 C498 124 521 220 521 293 L521 293 Z M373 284 C373 241 362 177 340 140 C322 111 295 93 256 93 C193 93 175 136 175 185 C175 233 186 294 213 331 C232 355 258 368 293 368 C345 368 373 342 373 284 L373 284 Z M225 516 L347 626 C374 650 387 665 387 685 C387 713 361 730 337 730 C319 730 304 722 279 686 L186 551 L225 516 Z M387 516 L511 626 C538 649 550 665 550 685 C550 713 524 730 500 730 C482 730 467 722 443 686 L349 551 L387 516 Z " />
<glyph glyph-name="OE" unicode="&#x152;" horiz-adv-x="1031" d="M1010 203 L932 203 C918 177 901 148 885 134 C864 119 829 106 751 106 C728 106 690 106 664 110 C650 112 643 121 643 135 C643 141 645 153 646 160 L673 297 L712 297 C737 297 754 295 766 291 C782 285 787 269 787 255 C787 247 789 236 789 225 L859 225 C872 309 886 387 905 463 L831 463 C823 440 815 419 803 409 C788 397 764 394 730 394 L692 394 L726 566 L838 566 C882 566 899 562 907 555 C914 550 923 540 925 523 C926 513 927 500 927 489 L1005 489 C1013 522 1027 588 1027 627 C1027 661 1005 676 956 676 L658 676 C611 676 538 684 481 684 C358 684 256 653 188 585 C99 496 59 382 59 258 C59 111 141 -6 338 -6 C405 -6 477 0 524 0 L861 0 C913 0 946 13 960 35 C982 71 1004 154 1010 203 L1010 203 Z M499 183 C495 166 488 138 480 129 C465 111 434 100 383 100 C269 100 224 175 224 279 C224 352 250 440 299 501 C338 551 400 579 474 579 C496 579 522 578 536 574 C554 568 564 558 564 539 C564 527 562 510 558 492 L499 183 Z " />
<glyph glyph-name="oe" unicode="&#x153;" horiz-adv-x="820" d="M792 62 L753 142 C687 109 640 97 598 97 C528 97 505 134 505 175 C505 180 505 185 506 191 C749 193 802 269 802 350 C802 420 755 474 639 474 C568 474 504 447 464 406 C432 453 375 474 305 474 C222 474 154 447 107 397 C49 336 29 250 29 177 C29 40 125 -13 241 -13 C306 -13 366 8 409 53 C439 5 491 -14 552 -14 C648 -14 729 18 792 62 L792 62 Z M372 284 C372 241 361 178 338 141 C321 112 295 94 256 94 C193 94 175 137 175 186 C175 233 185 295 213 331 C232 355 258 368 293 368 C345 368 372 342 372 284 L372 284 Z M517 278 C527 313 544 338 565 355 C583 369 608 377 630 377 C664 377 679 365 679 342 C679 309 645 279 517 278 L517 278 Z " />
<glyph glyph-name="Racute" unicode="&#x154;" horiz-adv-x="681" d="M309 -1 L326 79 C302 81 282 83 272 85 C255 88 245 97 245 112 C245 123 248 138 253 162 L272 267 C289 265 305 264 323 264 C355 175 388 100 430 54 C454 27 493 -3 582 -3 C602 -3 629 -2 636 -1 L654 81 C639 83 619 88 606 94 C589 103 568 120 551 141 C525 175 501 216 473 277 C577 306 643 376 643 501 C643 575 601 637 520 660 C484 670 425 676 351 676 L107 676 L92 597 C119 596 139 594 150 592 C167 589 175 581 175 568 C175 559 173 546 169 525 L98 155 C88 104 82 97 70 91 C58 85 40 82 0 79 L-16 -1 C38 0 97 1 129 1 C152 1 262 0 309 -1 L309 -1 Z M294 374 L331 563 L361 563 C385 563 421 560 442 551 C468 541 484 511 484 481 C484 403 430 373 352 373 C340 373 309 373 294 374 L294 374 Z M337 716 L500 794 C536 812 552 833 552 853 C552 884 530 905 503 905 C485 905 471 899 440 872 L307 760 L337 716 Z " />
<glyph glyph-name="racute" unicode="&#x155;" horiz-adv-x="446" d="M177 0 L220 186 C230 231 238 273 242 293 C258 323 290 354 320 354 C345 354 352 339 353 311 L431 311 C446 354 453 395 453 422 C453 456 429 472 392 472 C326 472 271 418 247 381 C249 391 249 402 249 414 C249 458 223 471 189 471 C144 471 82 451 42 431 L26 356 C35 358 50 360 63 360 C86 360 99 351 99 326 C99 297 93 250 85 214 L39 0 L177 0 Z M245 515 L384 614 C415 636 431 652 431 674 C431 704 406 726 379 726 C361 726 344 717 317 684 L209 553 L245 515 Z " />
<glyph glyph-name="Rcommaaccent" unicode="&#x156;" horiz-adv-x="681" d="M309 -1 L326 79 C302 81 282 83 272 85 C255 88 245 97 245 112 C245 123 248 138 253 162 L272 267 C289 265 305 264 323 264 C355 175 388 100 430 54 C454 27 493 -3 582 -3 C602 -3 629 -2 636 -1 L654 81 C639 83 619 88 606 94 C589 103 568 120 551 141 C525 175 501 216 473 277 C577 306 643 376 643 501 C643 575 601 637 520 660 C484 670 425 676 351 676 L107 676 L92 597 C119 596 139 594 150 592 C167 589 175 581 175 568 C175 559 173 546 169 525 L98 155 C88 104 82 97 70 91 C58 85 40 82 0 79 L-16 -1 C38 0 97 1 129 1 C152 1 262 0 309 -1 L309 -1 Z M294 374 L331 563 L361 563 C385 563 421 560 442 551 C468 541 484 511 484 481 C484 403 430 373 352 373 C340 373 309 373 294 374 L294 374 Z M244 -305 C337 -261 404 -203 404 -122 C404 -79 379 -45 329 -45 C286 -45 264 -76 264 -107 C264 -127 273 -140 287 -151 C298 -159 306 -170 306 -182 C306 -210 271 -237 223 -262 L244 -305 Z " />
<glyph glyph-name="rcommaaccent" unicode="&#x157;" horiz-adv-x="446" d="M177 0 L220 186 C230 231 238 273 242 293 C258 323 290 354 320 354 C345 354 352 339 353 311 L431 311 C446 354 453 395 453 422 C453 456 429 472 392 472 C326 472 271 418 247 381 C249 391 249 402 249 414 C249 458 223 471 189 471 C144 471 82 451 42 431 L26 356 C35 358 50 360 63 360 C86 360 99 351 99 326 C99 297 93 250 85 214 L39 0 L177 0 Z M11 -305 C104 -261 171 -203 171 -122 C171 -79 146 -45 96 -45 C53 -45 31 -76 31 -107 C31 -127 40 -140 54 -151 C65 -159 73 -170 73 -182 C73 -210 38 -237 -10 -262 L11 -305 Z " />
<glyph glyph-name="Rcaron" unicode="&#x158;" horiz-adv-x="681" d="M309 -1 L326 79 C302 81 282 83 272 85 C255 88 245 97 245 112 C245 123 248 138 253 162 L272 267 C289 265 305 264 323 264 C355 175 388 100 430 54 C454 27 493 -3 582 -3 C602 -3 629 -2 636 -1 L654 81 C639 83 619 88 606 94 C589 103 568 120 551 141 C525 175 501 216 473 277 C577 306 643 376 643 501 C643 575 601 637 520 660 C484 670 425 676 351 676 L107 676 L92 597 C119 596 139 594 150 592 C167 589 175 581 175 568 C175 559 173 546 169 525 L98 155 C88 104 82 97 70 91 C58 85 40 82 0 79 L-16 -1 C38 0 97 1 129 1 C152 1 262 0 309 -1 L309 -1 Z M294 374 L331 563 L361 563 C385 563 421 560 442 551 C468 541 484 511 484 481 C484 403 430 373 352 373 C340 373 309 373 294 374 L294 374 Z M238 875 L333 742 C345 726 355 715 375 715 C393 715 410 726 426 741 L564 873 L531 910 L388 822 L275 910 L238 875 Z " />
<glyph glyph-name="rcaron" unicode="&#x159;" horiz-adv-x="446" d="M177 0 L220 186 C230 231 238 273 242 293 C258 323 290 354 320 354 C345 354 352 339 353 311 L431 311 C446 354 453 395 453 422 C453 456 429 472 392 472 C326 472 271 418 247 381 C249 391 249 402 249 414 C249 458 223 471 189 471 C144 471 82 451 42 431 L26 356 C35 358 50 360 63 360 C86 360 99 351 99 326 C99 297 93 250 85 214 L39 0 L177 0 Z M128 692 L205 532 C214 514 229 506 248 506 C266 506 283 515 297 532 L430 684 L392 721 L262 616 L173 721 L128 692 Z " />
<glyph glyph-name="Sacute" unicode="&#x15a;" horiz-adv-x="599" d="M57 234 C47 186 40 140 39 101 C39 67 52 38 98 15 C131 -1 194 -14 256 -14 C426 -14 558 54 558 218 C558 293 520 347 436 385 L322 437 C283 455 268 479 268 510 C268 552 301 586 374 586 C404 586 441 580 458 566 C477 550 492 524 492 467 L569 467 C581 513 588 572 588 607 C588 628 579 649 558 662 C521 684 456 691 403 691 C231 691 109 617 109 467 C109 404 133 342 229 297 L343 243 C380 226 396 206 396 172 C396 130 368 93 282 93 C225 93 182 110 161 135 C146 153 136 186 133 234 L57 234 Z M336 716 L499 794 C535 812 551 833 551 853 C551 884 529 905 502 905 C484 905 470 899 439 872 L306 760 L336 716 Z " />
<glyph glyph-name="sacute" unicode="&#x15b;" horiz-adv-x="473" d="M36 174 C28 140 22 108 22 75 C22 44 32 20 75 4 C99 -6 145 -14 191 -14 C308 -14 421 22 421 149 C421 194 397 234 319 269 L239 304 C216 314 209 325 209 340 C210 365 231 377 271 377 C300 377 319 374 332 365 C344 356 353 339 355 303 L426 303 C432 332 439 376 439 394 C439 425 432 440 411 452 C386 466 334 474 292 474 C178 474 67 436 67 318 C67 273 87 229 168 192 L248 155 C270 144 277 133 277 117 C277 97 260 81 208 81 C178 81 146 90 130 105 C119 116 107 134 107 174 L36 174 Z M251 515 L390 614 C421 636 437 652 437 674 C437 704 412 726 385 726 C367 726 350 717 323 684 L215 553 L251 515 Z " />
<glyph glyph-name="Scircumflex" unicode="&#x15c;" horiz-adv-x="599" d="M57 234 C47 186 40 140 39 101 C39 67 52 38 98 15 C131 -1 194 -14 256 -14 C426 -14 558 54 558 218 C558 293 520 347 436 385 L322 437 C283 455 268 479 268 510 C268 552 301 586 374 586 C404 586 441 580 458 566 C477 550 492 524 492 467 L569 467 C581 513 588 572 588 607 C588 628 579 649 558 662 C521 684 456 691 403 691 C231 691 109 617 109 467 C109 404 133 342 229 297 L343 243 C380 226 396 206 396 172 C396 130 368 93 282 93 C225 93 182 110 161 135 C146 153 136 186 133 234 L57 234 Z M564 750 L469 884 C457 900 447 909 426 909 C408 909 393 900 376 884 L238 752 L271 715 L414 804 L527 715 L564 750 Z " />
<glyph glyph-name="scircumflex" unicode="&#x15d;" horiz-adv-x="473" d="M36 174 C28 140 22 108 22 75 C22 44 32 20 75 4 C99 -6 145 -14 191 -14 C308 -14 421 22 421 149 C421 194 397 234 319 269 L239 304 C216 314 209 325 209 340 C210 365 231 377 271 377 C300 377 319 374 332 365 C344 356 353 339 355 303 L426 303 C432 332 439 376 439 394 C439 425 432 440 411 452 C386 466 334 474 292 474 C178 474 67 436 67 318 C67 273 87 229 168 192 L248 155 C270 144 277 133 277 117 C277 97 260 81 208 81 C178 81 146 90 130 105 C119 116 107 134 107 174 L36 174 Z M439 534 L362 696 C354 713 339 721 319 721 C301 721 285 711 270 694 L137 542 L176 506 L305 611 L394 506 L439 534 Z " />
<glyph glyph-name="Scedilla" unicode="&#x15e;" horiz-adv-x="599" d="M178 -295 C269 -284 391 -245 391 -147 C391 -117 376 -95 337 -70 C330 -65 323 -59 323 -48 C323 -39 331 -22 339 -8 C467 12 558 82 558 218 C558 293 520 347 436 385 L322 437 C283 455 268 479 268 510 C268 552 301 586 374 586 C404 586 441 580 458 566 C477 550 492 524 492 467 L569 467 C581 513 588 572 588 607 C588 628 579 649 558 662 C521 684 456 691 403 691 C231 691 109 617 109 467 C109 404 133 342 229 297 L343 243 C380 226 396 206 396 172 C396 130 368 93 282 93 C225 93 182 110 161 135 C146 153 136 186 133 234 L57 234 C47 186 40 140 39 101 C39 67 52 38 98 15 C131 -1 194 -14 256 -14 L274 -14 C258 -40 244 -68 244 -84 C244 -95 249 -103 260 -110 C282 -126 293 -144 293 -163 C293 -207 242 -221 177 -236 L178 -295 Z " />
<glyph glyph-name="scedilla" unicode="&#x15f;" horiz-adv-x="473" d="M73 -282 C162 -272 283 -235 283 -141 C283 -112 268 -90 230 -67 C223 -62 216 -57 216 -46 C216 -38 221 -25 228 -13 C331 -5 421 35 421 149 C421 194 397 234 319 269 L239 304 C216 314 209 325 209 340 C210 365 231 377 271 377 C300 377 319 374 332 365 C344 356 353 339 355 303 L426 303 C432 332 439 376 439 394 C439 425 432 440 411 452 C386 466 334 474 292 474 C178 474 67 436 67 318 C67 273 87 229 168 192 L248 155 C270 144 277 133 277 117 C277 97 260 81 208 81 C178 81 146 90 130 105 C119 116 107 134 107 174 L36 174 C28 140 22 108 22 75 C22 44 32 20 75 4 C95 -4 129 -11 167 -13 C152 -39 138 -65 138 -81 C138 -90 142 -99 153 -106 C175 -120 185 -138 185 -156 C185 -199 136 -212 71 -226 L73 -282 Z " />
<glyph glyph-name="Scaron" unicode="&#x160;" horiz-adv-x="599" d="M57 234 C47 186 40 140 39 101 C39 67 52 38 98 15 C131 -1 194 -14 256 -14 C426 -14 558 54 558 218 C558 293 520 347 436 385 L322 437 C283 455 268 479 268 510 C268 552 301 586 374 586 C404 586 441 580 458 566 C477 550 492 524 492 467 L569 467 C581 513 588 572 588 607 C588 628 579 649 558 662 C521 684 456 691 403 691 C231 691 109 617 109 467 C109 404 133 342 229 297 L343 243 C380 226 396 206 396 172 C396 130 368 93 282 93 C225 93 182 110 161 135 C146 153 136 186 133 234 L57 234 Z M240 875 L335 742 C347 726 357 715 377 715 C395 715 412 726 428 741 L566 873 L533 910 L390 822 L277 910 L240 875 Z " />
<glyph glyph-name="scaron" unicode="&#x161;" horiz-adv-x="473" d="M36 174 C28 140 22 108 22 75 C22 44 32 20 75 4 C99 -6 145 -14 191 -14 C308 -14 421 22 421 149 C421 194 397 234 319 269 L239 304 C216 314 209 325 209 340 C210 365 231 377 271 377 C300 377 319 374 332 365 C344 356 353 339 355 303 L426 303 C432 332 439 376 439 394 C439 425 432 440 411 452 C386 466 334 474 292 474 C178 474 67 436 67 318 C67 273 87 229 168 192 L248 155 C270 144 277 133 277 117 C277 97 260 81 208 81 C178 81 146 90 130 105 C119 116 107 134 107 174 L36 174 Z M151 692 L228 532 C237 514 252 506 271 506 C289 506 306 515 320 532 L453 684 L415 721 L285 616 L196 721 L151 692 Z " />
<glyph glyph-name="uni0162" unicode="&#x162;" horiz-adv-x="683" d="M177 -295 C268 -284 390 -245 390 -147 C390 -117 375 -95 336 -70 C329 -65 322 -59 322 -48 C322 -37 334 -13 343 1 C386 0 450 0 480 -1 L495 79 C461 82 438 84 425 87 C411 91 404 99 404 112 C404 117 405 136 411 164 L490 570 C572 570 594 569 608 556 C620 544 625 524 625 452 L694 452 C709 513 726 603 726 629 C726 663 703 676 660 676 L182 676 C133 676 113 649 106 606 C102 581 90 496 86 452 L157 452 C175 525 193 547 209 556 C227 567 253 570 337 570 L257 160 C249 118 245 104 237 97 C227 88 220 83 152 79 L137 -1 L282 1 C263 -28 243 -65 243 -84 C243 -95 248 -103 259 -110 C281 -126 292 -144 292 -163 C292 -207 241 -221 176 -236 L177 -295 Z " />
<glyph glyph-name="uni0163" unicode="&#x163;" horiz-adv-x="360" d="M27 -282 C116 -272 237 -235 237 -141 C237 -112 222 -90 184 -67 C177 -62 170 -57 170 -46 C170 -38 176 -24 183 -12 C235 -10 289 2 330 21 L316 107 C292 101 274 98 254 98 C225 98 209 116 209 143 C209 171 215 201 222 237 L246 355 C281 355 319 356 359 358 L375 446 C327 449 291 449 264 449 C280 527 284 549 284 559 C284 587 268 597 239 597 C205 597 184 579 170 551 C155 521 146 504 131 479 C124 466 113 456 99 450 C77 441 55 437 38 434 L24 358 L107 358 C90 282 81 234 68 168 C63 144 58 115 58 93 C58 39 83 6 125 -6 C108 -34 92 -64 92 -81 C92 -90 96 -99 107 -106 C129 -120 139 -138 139 -156 C139 -199 90 -212 25 -226 L27 -282 Z " />
<glyph glyph-name="Tcaron" unicode="&#x164;" horiz-adv-x="683" d="M480 -1 L495 79 C461 82 438 84 425 87 C411 91 404 99 404 112 C404 117 405 136 411 164 L490 570 C572 570 594 569 608 556 C620 544 625 524 625 452 L694 452 C709 513 726 603 726 629 C726 663 703 676 660 676 L182 676 C133 676 113 649 106 606 C102 581 90 496 86 452 L157 452 C175 525 193 547 209 556 C227 567 253 570 337 570 L257 160 C249 118 245 104 237 97 C227 88 220 83 152 79 L137 -1 C182 0 281 1 305 1 C330 1 438 0 480 -1 L480 -1 Z M286 875 L381 742 C393 726 403 715 423 715 C441 715 458 726 474 741 L612 873 L579 910 L436 822 L323 910 L286 875 Z " />
<glyph glyph-name="tcaron" unicode="&#x165;" horiz-adv-x="360" d="M330 21 L316 107 C292 101 274 98 254 98 C225 98 209 116 209 143 C209 171 215 201 222 237 L246 355 C281 355 319 356 359 358 L375 446 C327 449 291 449 264 449 C280 527 284 549 284 559 C284 587 268 597 239 597 C205 597 184 579 170 551 C155 521 146 504 131 479 C124 466 113 456 99 450 C77 441 55 437 38 434 L24 358 L107 358 C90 282 81 234 68 168 C63 144 58 115 58 93 C58 23 101 -12 168 -12 C225 -12 285 0 330 21 L330 21 Z M319 471 C412 515 479 574 479 655 C479 697 454 732 404 732 C361 732 339 701 339 669 C339 649 348 637 362 625 C373 617 381 606 381 595 C381 567 346 539 298 513 L319 471 Z " />
<glyph glyph-name="Tbar" unicode="&#x166;" horiz-adv-x="683" d="M583 323 L599 397 L456 397 L490 570 C572 570 594 569 608 556 C620 544 625 524 625 452 L694 452 C709 513 726 603 726 629 C726 663 703 676 660 676 L182 676 C133 676 112 649 105 606 C101 581 90 496 86 452 L157 452 C175 525 193 547 209 556 C227 567 253 570 337 570 L303 397 L166 397 L151 323 L289 323 L257 160 C249 118 245 104 237 97 C227 88 220 83 152 79 L137 -1 C182 0 281 1 305 1 C330 1 438 0 480 -1 L495 79 C461 82 438 84 425 87 C411 91 404 99 404 112 C404 117 405 136 411 164 L442 323 L583 323 Z " />
<glyph glyph-name="tbar" unicode="&#x167;" horiz-adv-x="360" d="M330 230 L341 292 L236 292 L249 355 C284 355 322 356 362 358 L378 446 C331 449 294 449 267 449 C283 527 287 549 287 559 C287 587 271 597 242 597 C207 597 187 579 173 551 C159 521 148 504 134 479 C127 466 115 456 101 450 C79 441 58 437 40 434 L27 358 L109 358 L95 292 L26 292 L15 230 L82 230 L70 169 C66 145 61 115 61 93 C61 23 104 -12 171 -12 C228 -12 287 0 333 21 L319 107 C295 101 276 98 257 98 C228 98 212 116 212 143 C212 169 216 196 223 230 L330 230 Z " />
<glyph glyph-name="Utilde" unicode="&#x168;" horiz-adv-x="784" d="M838 597 L854 677 C819 677 763 676 739 676 C715 676 607 676 571 677 L555 597 C588 596 611 595 626 590 C640 586 647 577 647 561 C647 554 646 539 643 519 C631 447 613 348 607 317 C593 252 579 190 545 149 C515 113 461 97 397 97 C321 97 268 127 268 206 C268 237 273 273 281 312 C299 406 314 484 324 529 C330 558 336 573 343 580 C353 590 360 595 426 597 L441 677 C401 676 284 675 258 675 C228 675 140 676 101 677 L85 597 C112 596 142 593 154 590 C170 585 175 574 175 562 C175 554 173 542 169 521 C163 484 143 397 126 308 C113 243 108 200 108 165 C108 24 239 -16 359 -16 C460 -16 549 11 604 65 C654 113 675 171 699 296 L741 511 C747 543 754 563 761 574 C768 584 781 593 838 597 L838 597 Z M371 731 C393 769 409 783 432 783 C440 783 452 780 471 771 L500 757 C526 744 549 738 569 738 C613 738 648 787 672 863 L627 878 C609 845 596 823 573 823 C560 823 541 832 527 838 L491 853 C475 860 455 869 436 869 C385 869 350 806 328 747 L371 731 Z " />
<glyph glyph-name="utilde" unicode="&#x169;" horiz-adv-x="600" d="M551 15 L570 97 C558 94 528 88 514 88 C492 88 483 96 483 119 C483 140 497 202 505 237 L554 460 L415 460 L363 237 C356 206 350 177 347 156 C317 130 281 111 249 111 C226 111 211 121 211 146 C211 156 215 180 221 205 L248 315 C257 350 263 391 263 405 C263 449 245 469 188 469 C155 469 91 452 46 429 L30 354 C42 356 54 358 68 358 C90 358 103 352 103 327 C103 311 99 286 92 255 L72 175 C63 138 58 100 58 85 C58 23 94 -12 165 -12 C228 -12 298 16 345 68 C345 60 346 48 348 39 C355 3 388 -12 422 -12 C465 -12 506 -3 551 15 L551 15 Z M230 524 C248 561 260 573 282 573 C290 573 305 570 325 562 L351 551 C379 538 397 532 419 532 C462 532 493 584 509 659 L463 673 C446 638 433 621 415 621 C402 621 386 627 369 635 L342 648 C325 656 304 664 282 664 C232 664 201 597 185 538 L230 524 Z " />
<glyph glyph-name="Umacron" unicode="&#x16a;" horiz-adv-x="784" d="M838 597 L854 677 C819 677 763 676 739 676 C715 676 607 676 571 677 L555 597 C588 596 611 595 626 590 C640 586 647 577 647 561 C647 554 646 539 643 519 C631 447 613 348 607 317 C593 252 579 190 545 149 C515 113 461 97 397 97 C321 97 268 127 268 206 C268 237 273 273 281 312 C299 406 314 484 324 529 C330 558 336 573 343 580 C353 590 360 595 426 597 L441 677 C401 676 284 675 258 675 C228 675 140 676 101 677 L85 597 C112 596 142 593 154 590 C170 585 175 574 175 562 C175 554 173 542 169 521 C163 484 143 397 126 308 C113 243 108 200 108 165 C108 24 239 -16 359 -16 C460 -16 549 11 604 65 C654 113 675 171 699 296 L741 511 C747 543 754 563 761 574 C768 584 781 593 838 597 L838 597 Z M618 749 L634 830 L351 830 L334 749 L618 749 Z " />
<glyph glyph-name="umacron" unicode="&#x16b;" horiz-adv-x="600" d="M551 15 L570 97 C558 94 528 88 514 88 C492 88 483 96 483 119 C483 140 497 202 505 237 L554 460 L415 460 L363 237 C356 206 350 177 347 156 C317 130 281 111 249 111 C226 111 211 121 211 146 C211 156 215 180 221 205 L248 315 C257 350 263 391 263 405 C263 449 245 469 188 469 C155 469 91 452 46 429 L30 354 C42 356 54 358 68 358 C90 358 103 352 103 327 C103 311 99 286 92 255 L72 175 C63 138 58 100 58 85 C58 23 94 -12 165 -12 C228 -12 298 16 345 68 C345 60 346 48 348 39 C355 3 388 -12 422 -12 C465 -12 506 -3 551 15 L551 15 Z M472 548 L488 630 L222 630 L206 548 L472 548 Z " />
<glyph glyph-name="Ubreve" unicode="&#x16c;" horiz-adv-x="784" d="M838 597 L854 677 C819 677 763 676 739 676 C715 676 607 676 571 677 L555 597 C588 596 611 595 626 590 C640 586 647 577 647 561 C647 554 646 539 643 519 C631 447 613 348 607 317 C593 252 579 190 545 149 C515 113 461 97 397 97 C321 97 268 127 268 206 C268 237 273 273 281 312 C299 406 314 484 324 529 C330 558 336 573 343 580 C353 590 360 595 426 597 L441 677 C401 676 284 675 258 675 C228 675 140 676 101 677 L85 597 C112 596 142 593 154 590 C170 585 175 574 175 562 C175 554 173 542 169 521 C163 484 143 397 126 308 C113 243 108 200 108 165 C108 24 239 -16 359 -16 C460 -16 549 11 604 65 C654 113 675 171 699 296 L741 511 C747 543 754 563 761 574 C768 584 781 593 838 597 L838 597 Z M598 889 C579 834 542 808 483 808 C424 808 393 840 392 889 L346 885 C345 872 344 859 344 848 C344 762 393 726 472 726 C566 726 631 783 645 886 L598 889 Z " />
<glyph glyph-name="ubreve" unicode="&#x16d;" horiz-adv-x="600" d="M551 15 L570 97 C558 94 528 88 514 88 C492 88 483 96 483 119 C483 140 497 202 505 237 L554 460 L415 460 L363 237 C356 206 350 177 347 156 C317 130 281 111 249 111 C226 111 211 121 211 146 C211 156 215 180 221 205 L248 315 C257 350 263 391 263 405 C263 449 245 469 188 469 C155 469 91 452 46 429 L30 354 C42 356 54 358 68 358 C90 358 103 352 103 327 C103 311 99 286 92 255 L72 175 C63 138 58 100 58 85 C58 23 94 -12 165 -12 C228 -12 298 16 345 68 C345 60 346 48 348 39 C355 3 388 -12 422 -12 C465 -12 506 -3 551 15 L551 15 Z M442 686 C423 631 388 605 336 605 C282 605 255 637 253 686 L207 682 C206 669 204 657 204 646 C204 557 252 522 329 522 C419 522 477 578 489 683 L442 686 Z " />
<glyph glyph-name="Uring" unicode="&#x16e;" horiz-adv-x="784" d="M838 597 L854 677 C819 677 763 676 739 676 C715 676 607 676 571 677 L555 597 C588 596 611 595 626 590 C640 586 647 577 647 561 C647 554 646 539 643 519 C631 447 613 348 607 317 C593 252 579 190 545 149 C515 113 461 97 397 97 C321 97 268 127 268 206 C268 237 273 273 281 312 C299 406 314 484 324 529 C330 558 336 573 343 580 C353 590 360 595 426 597 L441 677 C401 676 284 675 258 675 C228 675 140 676 101 677 L85 597 C112 596 142 593 154 590 C170 585 175 574 175 562 C175 554 173 542 169 521 C163 484 143 397 126 308 C113 243 108 200 108 165 C108 24 239 -16 359 -16 C460 -16 549 11 604 65 C654 113 675 171 699 296 L741 511 C747 543 754 563 761 574 C768 584 781 593 838 597 L838 597 Z M589 811 C589 864 553 898 500 898 C443 898 396 854 396 795 C396 742 435 708 487 708 C545 708 589 753 589 811 L589 811 Z M539 810 C539 774 517 752 490 752 C462 752 445 771 445 801 C445 835 469 855 496 855 C519 855 539 839 539 810 L539 810 Z " />
<glyph glyph-name="uring" unicode="&#x16f;" horiz-adv-x="600" d="M551 15 L570 97 C558 94 528 88 514 88 C492 88 483 96 483 119 C483 140 497 202 505 237 L554 460 L415 460 L363 237 C356 206 350 177 347 156 C317 130 281 111 249 111 C226 111 211 121 211 146 C211 156 215 180 221 205 L248 315 C257 350 263 391 263 405 C263 449 245 469 188 469 C155 469 91 452 46 429 L30 354 C42 356 54 358 68 358 C90 358 103 352 103 327 C103 311 99 286 92 255 L72 175 C63 138 58 100 58 85 C58 23 94 -12 165 -12 C228 -12 298 16 345 68 C345 60 346 48 348 39 C355 3 388 -12 422 -12 C465 -12 506 -3 551 15 L551 15 Z M438 622 C438 675 402 709 349 709 C292 709 245 666 245 607 C245 552 284 519 336 519 C394 519 438 565 438 622 L438 622 Z M388 621 C388 586 366 564 339 564 C311 564 294 583 294 612 C294 646 318 667 345 667 C368 667 388 650 388 621 L388 621 Z " />
<glyph glyph-name="Uhungarumlaut" unicode="&#x170;" horiz-adv-x="784" d="M838 597 L854 677 C819 677 763 676 739 676 C715 676 607 676 571 677 L555 597 C588 596 611 595 626 590 C640 586 647 577 647 561 C647 554 646 539 643 519 C631 447 613 348 607 317 C593 252 579 190 545 149 C515 113 461 97 397 97 C321 97 268 127 268 206 C268 237 273 273 281 312 C299 406 314 484 324 529 C330 558 336 573 343 580 C353 590 360 595 426 597 L441 677 C401 676 284 675 258 675 C228 675 140 676 101 677 L85 597 C112 596 142 593 154 590 C170 585 175 574 175 562 C175 554 173 542 169 521 C163 484 143 397 126 308 C113 243 108 200 108 165 C108 24 239 -16 359 -16 C460 -16 549 11 604 65 C654 113 675 171 699 296 L741 511 C747 543 754 563 761 574 C768 584 781 593 838 597 L838 597 Z M346 716 L495 809 C526 828 545 849 545 868 C545 896 527 918 500 918 C478 918 463 910 436 881 L317 757 L346 716 Z M524 716 L672 809 C703 828 722 849 722 868 C722 896 704 918 677 918 C655 918 641 910 613 881 L494 757 L524 716 Z " />
<glyph glyph-name="uhungarumlaut" unicode="&#x171;" horiz-adv-x="600" d="M551 15 L570 97 C558 94 528 88 514 88 C492 88 483 96 483 119 C483 140 497 202 505 237 L554 460 L415 460 L363 237 C356 206 350 177 347 156 C317 130 281 111 249 111 C226 111 211 121 211 146 C211 156 215 180 221 205 L248 315 C257 350 263 391 263 405 C263 449 245 469 188 469 C155 469 91 452 46 429 L30 354 C42 356 54 358 68 358 C90 358 103 352 103 327 C103 311 99 286 92 255 L72 175 C63 138 58 100 58 85 C58 23 94 -12 165 -12 C228 -12 298 16 345 68 C345 60 346 48 348 39 C355 3 388 -12 422 -12 C465 -12 506 -3 551 15 L551 15 Z M239 516 L361 626 C388 650 401 665 401 685 C401 713 375 730 351 730 C333 730 318 722 293 686 L200 551 L239 516 Z M401 516 L525 626 C552 649 564 665 564 685 C564 713 538 730 514 730 C496 730 481 722 457 686 L363 551 L401 516 Z " />
<glyph glyph-name="Uogonek" unicode="&#x172;" horiz-adv-x="784" d="M838 597 L854 677 C819 677 763 676 739 676 C715 676 607 676 571 677 L555 597 C588 596 611 595 626 590 C640 586 647 577 647 561 C647 554 646 539 643 519 C631 447 613 348 607 317 C593 252 579 190 545 149 C515 113 461 97 397 97 C321 97 268 127 268 206 C268 237 273 273 281 312 C299 406 314 484 324 529 C330 558 336 573 343 580 C353 590 360 595 426 597 L441 677 C401 676 284 675 258 675 C228 675 140 676 101 677 L85 597 C112 596 142 593 154 590 C170 585 175 574 175 562 C175 554 173 542 169 521 C163 484 143 397 126 308 C113 243 108 200 108 165 C108 32 224 -11 338 -15 C265 -76 225 -136 225 -193 C225 -242 258 -286 330 -286 C377 -286 425 -264 452 -245 L435 -201 C414 -210 390 -216 366 -216 C332 -216 318 -192 318 -165 C318 -123 345 -74 408 -13 C488 -6 558 20 604 65 C654 113 675 171 699 296 L741 511 C747 543 754 563 761 574 C768 584 781 593 838 597 L838 597 Z " />
<glyph glyph-name="uogonek" unicode="&#x173;" horiz-adv-x="600" d="M551 15 L570 97 C558 94 528 88 514 88 C492 88 483 96 483 119 C483 140 497 202 505 237 L554 460 L415 460 L363 237 C356 206 350 177 347 156 C317 130 281 111 249 111 C226 111 211 121 211 146 C211 156 215 180 221 205 L248 315 C257 350 263 391 263 405 C263 449 245 469 188 469 C155 469 91 452 46 429 L30 354 C42 356 54 358 68 358 C90 358 103 352 103 327 C103 311 99 286 92 255 L72 175 C63 138 58 100 58 85 C58 23 94 -12 165 -12 C228 -12 298 16 345 68 C345 60 346 48 348 39 C352 16 367 1 387 -6 C308 -64 263 -126 263 -186 C263 -233 294 -275 364 -275 C410 -275 457 -254 484 -236 L468 -193 C446 -202 423 -208 400 -208 C368 -208 353 -185 353 -160 C353 -115 386 -66 446 -11 C481 -8 514 0 551 15 L551 15 Z " />
<glyph glyph-name="Wcircumflex" unicode="&#x174;" horiz-adv-x="1065" d="M1112 597 L1127 677 C1089 676 1004 675 981 675 C951 675 875 676 827 677 L811 597 C842 596 864 594 878 591 C896 586 899 577 899 567 C899 550 888 517 880 498 C822 361 784 274 750 189 C745 276 741 344 714 611 C710 656 694 679 639 679 C580 679 558 645 541 609 C422 365 380 279 341 191 C339 282 334 410 331 505 C331 520 331 545 333 555 C335 570 341 582 361 589 C375 594 400 596 433 597 L449 677 C428 676 305 675 273 675 C246 675 168 676 105 677 L91 597 C120 595 136 590 147 584 C162 576 168 557 170 529 L201 52 C204 5 229 -13 279 -13 C328 -13 358 8 382 59 C499 300 546 398 578 472 C581 399 595 295 613 52 C617 4 638 -13 690 -13 C741 -13 769 8 793 59 L1001 505 C1019 545 1031 571 1048 582 C1060 590 1074 595 1112 597 L1112 597 Z M804 750 L709 884 C697 900 687 909 666 909 C648 909 633 900 616 884 L478 752 L511 715 L654 804 L767 715 L804 750 Z " />
<glyph glyph-name="wcircumflex" unicode="&#x175;" horiz-adv-x="818" d="M23 356 C35 358 48 360 61 360 C82 360 97 354 97 330 C97 313 94 287 88 255 L73 174 C67 142 63 108 63 85 C63 23 106 -14 171 -14 C221 -14 288 7 341 90 C342 70 346 44 351 32 C364 -1 393 -14 435 -14 C504 -14 587 11 667 89 C737 158 786 279 786 382 C786 435 771 471 702 471 C672 471 625 460 586 435 L571 358 C582 360 597 362 609 362 C641 362 657 354 657 318 C657 287 641 206 595 154 C570 126 541 106 511 106 C490 106 476 115 476 139 C476 151 478 178 483 210 L521 443 L386 443 L341 180 C334 168 323 153 309 140 C289 120 263 106 243 106 C221 106 211 115 211 139 C211 151 215 175 220 202 L241 317 C248 353 254 393 254 407 C254 450 238 471 180 471 C148 471 84 453 40 431 L23 356 Z M600 534 L523 696 C515 713 500 721 480 721 C462 721 446 711 431 694 L298 542 L337 506 L466 611 L555 506 L600 534 Z " />
<glyph glyph-name="Ycircumflex" unicode="&#x176;" horiz-adv-x="673" d="M462 -1 L477 79 C445 81 424 84 412 88 C392 94 390 105 390 115 C390 123 392 140 395 158 L417 266 L610 493 C652 542 675 573 689 582 C701 591 716 596 738 597 L754 677 C711 675 679 675 658 675 C625 675 533 675 487 677 L471 597 C489 597 506 595 514 592 C530 587 532 580 532 572 C532 559 520 539 509 525 C467 471 424 419 384 363 C364 418 341 475 323 522 C317 537 314 551 314 563 C314 577 320 584 332 589 C344 593 361 596 387 597 L403 677 C350 676 268 675 239 675 C213 675 144 676 89 677 L73 597 C93 596 108 594 119 586 C134 576 144 556 159 520 L263 265 L240 150 C236 127 230 106 223 99 C215 89 204 83 139 79 L123 -1 C173 0 268 1 293 1 C316 1 409 0 462 -1 L462 -1 Z M594 750 L499 884 C487 900 477 909 456 909 C438 909 423 900 406 884 L268 752 L301 715 L444 804 L557 715 L594 750 Z " />
<glyph glyph-name="ycircumflex" unicode="&#x177;" horiz-adv-x="591" d="M33 -89 C25 -121 18 -173 18 -195 C18 -222 29 -235 49 -248 C76 -265 127 -272 172 -272 C253 -272 325 -254 375 -203 C414 -164 445 -101 468 20 C496 168 523 313 554 460 L414 460 L346 158 C316 131 280 111 248 111 C225 111 212 121 212 146 C212 156 216 180 222 205 L248 315 C256 350 263 391 263 405 C263 449 245 469 188 469 C155 469 91 452 46 429 L30 354 C42 356 54 358 68 358 C90 358 103 352 103 327 C103 311 99 286 92 255 L73 175 C65 138 59 100 59 85 C59 23 93 -12 165 -12 C239 -12 290 20 334 63 C329 42 319 -3 311 -34 C299 -80 285 -115 263 -140 C246 -159 214 -167 186 -167 C158 -167 134 -159 124 -148 C118 -140 114 -131 112 -116 C111 -107 111 -98 111 -89 L33 -89 Z M491 534 L414 696 C406 713 391 721 371 721 C353 721 337 711 322 694 L189 542 L228 506 L357 611 L446 506 L491 534 Z " />
<glyph glyph-name="Ydieresis" unicode="&#x178;" horiz-adv-x="673" d="M462 -1 L477 79 C445 81 424 84 412 88 C392 94 390 105 390 115 C390 123 392 140 395 158 L417 266 L610 493 C652 542 675 573 689 582 C701 591 716 596 738 597 L754 677 C711 675 679 675 658 675 C625 675 533 675 487 677 L471 597 C489 597 506 595 514 592 C530 587 532 580 532 572 C532 559 520 539 509 525 C467 471 424 419 384 363 C364 418 341 475 323 522 C317 537 314 551 314 563 C314 577 320 584 332 589 C344 593 361 596 387 597 L403 677 C350 676 268 675 239 675 C213 675 144 676 89 677 L73 597 C93 596 108 594 119 586 C134 576 144 556 159 520 L263 265 L240 150 C236 127 230 106 223 99 C215 89 204 83 139 79 L123 -1 C173 0 268 1 293 1 C316 1 409 0 462 -1 L462 -1 Z M409 812 C409 845 385 870 350 870 C312 870 286 838 286 804 C286 768 308 742 343 742 C382 742 409 771 409 812 L409 812 Z M594 812 C594 845 571 870 535 870 C497 870 472 838 472 804 C472 768 494 742 529 742 C568 742 594 771 594 812 L594 812 Z " />
<glyph glyph-name="Zacute" unicode="&#x179;" horiz-adv-x="672" d="M645 225 L555 225 C530 164 514 143 501 131 C481 113 455 104 340 104 C305 104 260 104 234 107 L671 629 L679 676 L192 676 C147 676 125 653 118 616 C113 584 104 519 101 463 L183 463 C203 525 220 549 240 559 C264 572 284 573 433 573 L-2 46 L-9 0 L513 0 C570 0 594 21 603 46 C616 84 634 169 645 225 L645 225 Z M366 716 L529 794 C565 812 581 833 581 853 C581 884 559 905 532 905 C514 905 500 899 469 872 L336 760 L366 716 Z " />
<glyph glyph-name="zacute" unicode="&#x17a;" horiz-adv-x="526" d="M-1 0 L401 0 C448 0 466 21 472 47 C484 92 496 163 499 185 L426 185 C417 162 408 141 400 127 C391 112 376 97 363 92 C348 86 325 81 283 81 C262 81 240 81 210 82 L491 406 L501 460 L131 460 C86 460 66 432 60 394 C55 361 54 314 53 288 L129 288 C138 318 145 338 155 353 C164 367 178 374 196 375 C221 377 256 377 292 377 L7 50 L-1 0 Z M269 515 L408 614 C439 636 455 652 455 674 C455 704 430 726 403 726 C385 726 368 717 341 684 L233 553 L269 515 Z " />
<glyph glyph-name="Zdotaccent" unicode="&#x17b;" horiz-adv-x="672" d="M645 225 L555 225 C530 164 514 143 501 131 C481 113 455 104 340 104 C305 104 260 104 234 107 L671 629 L679 676 L192 676 C147 676 125 653 118 616 C113 584 104 519 101 463 L183 463 C203 525 220 549 240 559 C264 572 284 573 433 573 L-2 46 L-9 0 L513 0 C570 0 594 21 603 46 C616 84 634 169 645 225 L645 225 Z M479 812 C479 845 455 870 420 870 C382 870 356 838 356 804 C356 768 379 742 413 742 C452 742 479 771 479 812 L479 812 Z " />
<glyph glyph-name="zdotaccent" unicode="&#x17c;" horiz-adv-x="526" d="M-1 0 L401 0 C448 0 466 21 472 47 C484 92 496 163 499 185 L426 185 C417 162 408 141 400 127 C391 112 376 97 363 92 C348 86 325 81 283 81 C262 81 240 81 210 82 L491 406 L501 460 L131 460 C86 460 66 432 60 394 C55 361 54 314 53 288 L129 288 C138 318 145 338 155 353 C164 367 178 374 196 375 C221 377 256 377 292 377 L7 50 L-1 0 Z M366 623 C366 655 342 681 307 681 C269 681 243 648 243 614 C243 577 266 552 300 552 C339 552 366 580 366 623 L366 623 Z " />
<glyph glyph-name="Zcaron" unicode="&#x17d;" horiz-adv-x="672" d="M645 225 L555 225 C530 164 514 143 501 131 C481 113 455 104 340 104 C305 104 260 104 234 107 L671 629 L679 676 L192 676 C147 676 125 653 118 616 C113 584 104 519 101 463 L183 463 C203 525 220 549 240 559 C264 572 284 573 433 573 L-2 46 L-9 0 L513 0 C570 0 594 21 603 46 C616 84 634 169 645 225 L645 225 Z M267 875 L362 742 C374 726 384 715 404 715 C422 715 439 726 455 741 L593 873 L560 910 L417 822 L304 910 L267 875 Z " />
<glyph glyph-name="zcaron" unicode="&#x17e;" horiz-adv-x="526" d="M-1 0 L401 0 C448 0 466 21 472 47 C484 92 496 163 499 185 L426 185 C417 162 408 141 400 127 C391 112 376 97 363 92 C348 86 325 81 283 81 C262 81 240 81 210 82 L491 406 L501 460 L131 460 C86 460 66 432 60 394 C55 361 54 314 53 288 L129 288 C138 318 145 338 155 353 C164 367 178 374 196 375 C221 377 256 377 292 377 L7 50 L-1 0 Z M163 692 L240 532 C249 514 264 506 283 506 C301 506 318 515 332 532 L465 684 L427 721 L297 616 L208 721 L163 692 Z " />
<glyph glyph-name="longs" unicode="&#x17f;" horiz-adv-x="313" d="M-160 -112 C-170 -149 -176 -182 -176 -207 C-176 -229 -165 -250 -145 -259 C-123 -269 -99 -275 -64 -275 C-14 -275 33 -263 73 -232 C121 -196 151 -143 170 -41 L270 497 C280 552 294 584 309 600 C326 617 344 625 363 625 C378 625 392 623 400 614 C406 606 411 598 412 581 C412 573 413 563 413 554 L491 554 C498 585 506 638 506 660 C505 687 496 705 475 714 C450 725 414 731 382 731 C335 731 282 719 240 694 C179 658 139 585 121 478 L31 -55 C23 -101 14 -133 1 -150 C-11 -165 -30 -174 -45 -174 C-58 -174 -68 -172 -74 -166 C-84 -158 -87 -141 -87 -112 L-160 -112 Z " />
<glyph glyph-name="florin" unicode="&#x192;" horiz-adv-x="570" d="M-50 -15 C-58 -44 -66 -91 -66 -110 C-66 -142 -54 -161 -28 -173 C-3 -184 29 -186 61 -186 C135 -186 201 -156 244 -88 C264 -56 289 19 304 103 L344 316 L478 316 L492 398 L359 398 L362 416 C372 475 382 511 401 535 C417 555 439 560 457 560 C468 560 484 558 493 550 C504 541 508 520 508 493 L589 493 C595 523 601 566 601 590 C601 625 592 640 563 653 C535 666 499 670 464 670 C372 670 305 637 258 563 C237 531 224 482 209 398 L109 398 L93 316 L194 316 L161 132 C142 22 129 -26 113 -49 C99 -68 84 -78 63 -78 C54 -78 41 -76 34 -70 C26 -62 22 -50 20 -15 L-50 -15 Z " />
<glyph glyph-name="Aringacute" unicode="&#x1fa;" horiz-adv-x="759" d="M568 747 C568 802 532 830 480 830 C422 830 382 783 382 732 C382 708 391 688 407 674 C388 661 373 642 358 616 L111 190 C73 126 63 113 47 100 C34 88 19 82 -20 81 L-35 -1 C8 0 62 1 83 1 C106 1 237 0 282 -1 L298 81 C258 82 233 86 222 91 C209 98 208 107 208 115 C208 127 219 152 235 178 L257 213 L465 213 L471 172 C474 151 474 134 474 126 C474 104 468 93 446 88 C433 85 413 82 386 81 L371 -1 C423 0 537 1 564 1 C589 1 659 0 704 -1 L720 81 C689 82 667 88 661 94 C645 107 638 124 631 164 L555 622 C551 643 543 660 531 672 C554 689 568 716 568 747 L568 747 Z M447 846 L582 910 C615 926 633 940 633 963 C633 982 617 1003 599 1003 C584 1003 570 1001 538 975 L425 881 L447 846 Z M307 321 C371 434 394 475 421 528 C427 471 431 432 449 321 L307 321 Z M472 694 C446 694 431 712 431 739 C431 768 453 788 478 788 C500 788 519 776 519 748 C519 718 499 694 472 694 L472 694 Z " />
<glyph glyph-name="aringacute" unicode="&#x1fb;" horiz-adv-x="601" d="M344 68 C344 59 345 49 347 42 C353 10 378 -9 424 -9 C448 -9 499 -3 550 17 L569 100 C549 93 522 91 512 91 C489 91 482 102 482 122 C482 140 488 174 498 214 L563 481 L457 481 L435 448 C411 461 366 468 337 468 C244 468 176 439 125 387 C65 324 28 229 28 151 C28 53 78 -12 187 -12 C248 -12 303 16 344 68 L344 68 Z M341 145 C314 117 280 98 245 98 C201 98 178 125 178 172 C178 223 203 292 238 326 C263 350 298 361 328 361 C351 361 371 356 390 345 L358 224 C351 197 344 167 341 145 L341 145 Z M473 622 C473 675 438 709 384 709 C328 709 282 666 282 607 C282 552 321 519 371 519 C430 519 473 565 473 622 L473 622 Z M424 621 C424 586 403 564 375 564 C346 564 330 583 330 612 C330 646 354 667 381 667 C404 667 424 650 424 621 L424 621 Z M375 732 L504 823 C536 846 551 861 551 884 C551 913 526 934 500 934 C482 934 465 923 438 890 L339 770 L375 732 Z " />
</font>
</svg>
