<svg width="19" height="17" viewBox="0 0 19 17" fill="none" xmlns="http://www.w3.org/2000/svg">
<path d="M8.07812 10.8125V5.70312C8.07812 5.52083 8.16146 5.39323 8.32812 5.32031C8.5 5.2474 8.66927 5.25781 8.83594 5.35156L13.1016 7.85156C13.2578 7.9401 13.3359 8.07812 13.3359 8.26562C13.3359 8.44792 13.2578 8.58594 13.1016 8.67969L8.83594 11.1641C8.66406 11.263 8.49479 11.276 8.32812 11.2031C8.16146 11.1302 8.07812 11 8.07812 10.8125ZM2.91406 9.69531C2.5599 9.69531 2.2474 9.52865 1.97656 9.19531L0.203125 7.07812C0.0677083 6.91667 0 6.72656 0 6.50781C0 6.27344 0.0833333 6.08594 0.25 5.94531C0.411458 5.79948 0.601562 5.72656 0.820312 5.72656C1.10677 5.72656 1.33333 5.85156 1.5 6.10156L2.96094 8.25781L4.84375 6.55469C4.99479 6.41406 5.17188 6.34375 5.375 6.34375C5.60938 6.34375 5.80208 6.42448 5.95312 6.58594C6.10417 6.74219 6.17969 6.92969 6.17969 7.14844C6.17969 7.4401 6.0625 7.66927 5.82812 7.83594L3.61719 9.45312C3.5026 9.53125 3.38802 9.59115 3.27344 9.63281C3.15885 9.67448 3.03906 9.69531 2.91406 9.69531ZM2.89062 9.28125C2.60417 9.28125 2.35938 9.18229 2.15625 8.98438C1.95833 8.78125 1.85938 8.53646 1.85938 8.25C1.85938 7.11458 2.07292 6.04948 2.5 5.05469C2.92708 4.05469 3.51823 3.17708 4.27344 2.42188C5.03385 1.66146 5.91146 1.06771 6.90625 0.640625C7.90625 0.213542 8.97396 0 10.1094 0C11.25 0 12.3177 0.213542 13.3125 0.640625C14.3125 1.06771 15.1901 1.66146 15.9453 2.42188C16.7005 3.17708 17.2917 4.05469 17.7188 5.05469C18.1458 6.04948 18.3594 7.11458 18.3594 8.25C18.3594 9.39062 18.1458 10.4583 17.7188 11.4531C17.2917 12.4479 16.7005 13.3229 15.9453 14.0781C15.1901 14.8385 14.3125 15.4323 13.3125 15.8594C12.3177 16.2865 11.25 16.5 10.1094 16.5C9.39062 16.5 8.71615 16.4167 8.08594 16.25C7.45573 16.0885 6.8776 15.8698 6.35156 15.5938C5.82552 15.3177 5.35677 15.0156 4.94531 14.6875C4.53906 14.3594 4.19531 14.0286 3.91406 13.6953C3.77344 13.5339 3.67448 13.375 3.61719 13.2188C3.5599 13.0625 3.53125 12.9141 3.53125 12.7734C3.53125 12.4922 3.63021 12.263 3.82812 12.0859C4.03125 11.9036 4.26042 11.8125 4.51562 11.8125C4.66667 11.8125 4.8151 11.8464 4.96094 11.9141C5.11198 11.9818 5.2474 12.0885 5.36719 12.2344C5.66406 12.5938 6.04167 12.9427 6.5 13.2812C6.96354 13.6198 7.4974 13.8984 8.10156 14.1172C8.71094 14.3359 9.38021 14.4453 10.1094 14.4453C10.9688 14.4453 11.7708 14.2839 12.5156 13.9609C13.2656 13.6432 13.9245 13.2005 14.4922 12.6328C15.0599 12.0651 15.5026 11.4089 15.8203 10.6641C16.1432 9.91406 16.3047 9.10938 16.3047 8.25C16.3047 7.39583 16.1432 6.59375 15.8203 5.84375C15.5026 5.09375 15.0599 4.4349 14.4922 3.86719C13.9245 3.29948 13.2656 2.85677 12.5156 2.53906C11.7708 2.21615 10.9688 2.05469 10.1094 2.05469C9.25 2.05469 8.44531 2.21615 7.69531 2.53906C6.95052 2.85677 6.29427 3.29948 5.72656 3.86719C5.15885 4.4349 4.71354 5.09375 4.39062 5.84375C4.07292 6.59375 3.91406 7.39583 3.91406 8.25C3.91406 8.53646 3.8125 8.78125 3.60938 8.98438C3.41146 9.18229 3.17188 9.28125 2.89062 9.28125Z" fill="white" style="fill:white;fill-opacity:1;"/>
</svg>
