<svg width="27" height="49" viewBox="0 0 27 49" fill="none" xmlns="http://www.w3.org/2000/svg">
<path fill-rule="evenodd" clip-rule="evenodd" d="M2.52317 29.1918V11.6242C2.52317 8.62407 3.98333 6.94717 6.45876 5.53264C9.13952 4.00403 10.7822 3.51351 12.5504 0.764303L13.0409 0L13.5314 0.764303C15.2996 3.5021 16.9422 4.00403 19.623 5.53264C22.0984 6.94717 23.57 8.62407 23.57 11.6242C23.57 11.6242 23.5472 29.4884 23.5472 29.6139C30.0837 38.5459 23.0453 48.596 13.0409 48.5161C3.0365 48.596 -4.00192 38.5459 2.53457 29.6139C2.53457 29.4884 2.52317 29.3515 2.52317 29.1918Z" fill="black" style="fill:black;fill-opacity:1;"/>
<path fill-rule="evenodd" clip-rule="evenodd" d="M3.10479 29.1921V11.6245C3.2645 8.49886 4.88437 7.10715 6.7552 6.04625C9.44737 4.51764 11.1813 3.9929 13.0407 1.08398C14.9116 3.98149 16.6341 4.51764 19.3263 6.04625C21.1971 7.10715 22.8056 8.51027 22.9767 11.6245V29.1921C22.9767 29.8309 23.0451 29.8993 22.3835 30.2872C19.2464 32.1352 6.83505 32.1352 3.69799 30.2872C3.03635 29.8993 3.10479 29.8309 3.10479 29.1921Z" fill="#FFEE00" style="fill:#FFEE00;fill:color(display-p3 1.0000 0.9333 0.0000);fill-opacity:1;"/>
<path fill-rule="evenodd" clip-rule="evenodd" d="M3.69775 29.5917C3.7662 29.6488 3.9259 29.7515 3.99435 29.7857C4.06279 29.8313 4.14265 29.8655 4.23391 29.9112V14.1232C4.23391 10.8036 4.17687 8.78447 6.82341 6.68549C4.84991 7.84905 3.69775 9.14951 3.69775 11.6249V29.1925C3.69775 29.2837 3.69775 29.4891 3.69775 29.5917Z" fill="black" style="fill:black;fill-opacity:1;"/>
<path fill-rule="evenodd" clip-rule="evenodd" d="M22.1889 29.4885C22.1205 29.5342 22.052 29.5684 21.9836 29.614C20.4664 30.5038 16.9757 30.7776 14.8083 30.8574L21.6756 28.8269H14.9109L21.6642 27.2983L14.9566 26.8078L21.6071 25.4959L14.9908 24.9255L21.5843 23.7163L14.9109 23.0661L21.4817 21.9938L14.8881 21.2409L21.379 20.1572L14.8653 19.4271L21.3562 18.4347L14.7512 17.6247L21.4246 16.7578L14.9452 15.9136L21.3448 15.058L14.8311 14.0884L21.322 13.21L14.6828 12.3317L21.071 11.4191L14.7969 10.7004L20.6033 9.78778L14.7512 9.11474L20.0557 8.23636L14.7284 7.76865L18.9834 7.22109L14.6372 6.70775L17.74 6.20582L14.2721 5.49856L16.1658 5.19056L13.9413 4.51751L14.9338 4.33499C16.1658 5.28182 17.5118 5.90923 18.9606 6.73057C21.014 7.89413 22.2117 9.14896 22.2003 11.6244C22.2003 11.6244 22.2003 29.3859 22.2003 29.4885H22.1889ZM14.8311 4.26655L13.5078 3.57069L13.85 3.41099L13.8272 3.36536C14.1466 3.69617 14.4889 3.99277 14.8311 4.26655Z" fill="black" style="fill:black;fill-opacity:1;"/>
<path fill-rule="evenodd" clip-rule="evenodd" d="M2.76268 30.2988C2.51172 30.6752 2.27216 31.0517 2.05542 31.4509C2.10105 31.4851 2.15809 31.5308 2.21512 31.565C3.98329 32.8312 8.51206 33.4701 13.0408 33.4701C17.5696 33.4701 22.0984 32.8312 23.878 31.565C23.935 31.5308 23.9806 31.4851 24.0377 31.4509C23.8209 31.0631 23.5814 30.6752 23.3304 30.2988C23.2049 30.4585 22.9996 30.6068 22.6916 30.7893C19.3606 32.7514 6.7439 32.7514 3.41291 30.7893C3.10491 30.6068 2.89957 30.4585 2.77409 30.2988H2.76268Z" fill="white" style="fill:white;fill-opacity:1;"/>
<path fill-rule="evenodd" clip-rule="evenodd" d="M22.4515 32.923C22.7823 33.2424 23.1245 33.5504 23.4668 33.8584C23.193 34.2235 22.8964 34.5885 22.5998 34.9421C22.2233 34.6113 21.8583 34.2805 21.4933 33.9497C21.7442 33.6303 21.9952 33.3109 22.2462 32.9915C21.8355 33.1283 21.3792 33.2424 20.9115 33.3451L20.8887 33.3793L20.8659 33.3565C20.5464 33.4249 20.2042 33.4934 19.8506 33.5618C20.0217 33.7215 20.1814 33.8812 20.3525 34.0409C20.0559 34.3946 19.7479 34.7482 19.4399 35.1133C19.0749 34.7824 18.7212 34.4402 18.3676 34.1094L18.6642 33.7558C18.4703 33.7786 17.1356 33.9269 16.9873 33.9383L17.204 34.155C16.896 34.5087 16.5766 34.8623 16.2458 35.2045C15.8922 34.8623 15.55 34.5315 15.2077 34.1778L15.3332 34.0409L13.9415 34.0866L14.0442 34.1892C13.7134 34.5315 13.3825 34.8851 13.0517 35.2273C12.7095 34.8851 12.3787 34.5429 12.0593 34.1892L12.1619 34.0866L10.7702 34.0409L10.8957 34.1778C10.5535 34.5201 10.2113 34.8623 9.85762 35.2045C9.5268 34.8509 9.20739 34.5087 8.89939 34.155L9.11613 33.9383L8.04383 33.8242C7.83849 33.8014 7.63315 33.7786 7.43923 33.7444L7.73582 34.098C7.38219 34.4402 7.02856 34.771 6.66352 35.1018C6.35551 34.7482 6.04751 34.3946 5.75092 34.0295C5.92203 33.8698 6.08174 33.7101 6.25285 33.5504C5.89922 33.4934 5.5684 33.4249 5.23758 33.3451L5.21477 33.3679L5.19195 33.3451C4.71284 33.2424 4.26794 33.1169 3.85727 32.9915C4.09683 33.3109 4.3478 33.6303 4.59876 33.9497C4.23372 34.2805 3.86868 34.6227 3.49223 34.9421C3.19564 34.5771 2.91045 34.2121 2.62526 33.8584C2.96749 33.5504 3.30971 33.2424 3.64053 32.923C3.32112 32.8203 3.03593 32.7063 2.76215 32.5808C2.54541 32.7861 2.32867 32.98 2.11193 33.174C1.92941 32.923 1.74689 32.672 1.56437 32.4211C1.42748 32.7291 1.30199 33.0371 1.19933 33.3451C1.29059 33.4706 1.38185 33.6075 1.48451 33.7329C1.30199 33.8926 1.11948 34.0524 0.936955 34.2121C0.845695 34.5429 0.777247 34.8737 0.72021 35.2159L0.674579 35.5467C0.640356 35.8319 0.617542 36.1171 0.594727 36.4137C0.743024 36.6076 0.902729 36.7902 1.06243 36.9841C0.914136 37.1096 0.754434 37.2236 0.606136 37.3491C0.617544 37.6799 0.651767 38.0108 0.708804 38.353C1.01681 38.1134 1.3134 37.8739 1.6214 37.6343C1.90659 37.9651 2.20318 38.3074 2.51119 38.6382C2.12333 38.9348 1.73548 39.2314 1.34762 39.528C1.17651 39.334 1.0054 39.1515 0.834287 38.9576C0.891325 39.22 0.95977 39.4937 1.03962 39.7561L1.07384 39.8474C1.09666 39.9272 1.11947 39.9957 1.14229 40.0755L1.18792 40.1896L1.21073 40.2466L1.23355 40.3037C1.27918 40.4177 1.32481 40.5432 1.37044 40.6459C1.40466 40.7257 1.43888 40.817 1.48451 40.8969C1.71266 41.1364 1.94081 41.376 2.16896 41.6041L1.918 41.7752C2.05489 42.0262 2.20319 42.2658 2.36289 42.5053L2.77356 42.2087C3.08156 42.5167 3.38956 42.8133 3.70897 43.1099C3.51505 43.2468 3.32112 43.3837 3.12719 43.5092C3.30971 43.7259 3.50364 43.9427 3.70897 44.148C3.92572 43.9997 4.13105 43.8628 4.3478 43.7031C4.66721 43.9997 4.98662 44.2963 5.31744 44.5815C5.10069 44.7298 4.88395 44.8781 4.67861 45.015C4.91817 45.2089 5.15773 45.3914 5.40869 45.5625C5.60262 45.437 5.79655 45.3001 5.99047 45.1633C6.32129 45.4484 6.65211 45.7336 6.98293 46.0074C6.84604 46.0987 6.70915 46.1899 6.58366 46.2698C6.86885 46.4295 7.16545 46.5778 7.47345 46.7033L7.67879 46.5664C7.87271 46.7147 8.05524 46.8744 8.24916 47.0227C8.46591 47.1025 8.69405 47.1824 8.9108 47.2508L9.61806 47.4562L9.97169 47.5474C10.12 47.5816 10.2911 47.6159 10.4394 47.6501L10.1542 47.4448C10.5307 47.1824 10.9071 46.92 11.2836 46.6462C11.6372 46.92 12.0022 47.1938 12.3559 47.4562C12.1733 47.5931 11.9794 47.7185 11.7969 47.844C12.219 47.8897 12.6525 47.9011 13.0859 47.9011C13.5194 47.9011 13.9529 47.8782 14.375 47.844C14.1925 47.7185 13.9985 47.5816 13.816 47.4562C14.1811 47.1938 14.5347 46.92 14.8883 46.6462C15.2648 46.92 15.6412 47.1824 16.0177 47.4448L15.7439 47.6501C15.8922 47.6159 16.0405 47.5931 16.1888 47.5588L16.2914 47.536H16.3257L16.9873 47.3535L17.2611 47.2736C17.4892 47.2052 17.7288 47.1253 17.9455 47.0341C18.1395 46.8858 18.322 46.7375 18.5045 46.5778L18.7098 46.7147C19.0064 46.5778 19.303 46.4295 19.5996 46.2812L19.2004 46.0188C19.5312 45.745 19.862 45.4599 20.1928 45.1747C20.3867 45.3116 20.5807 45.437 20.7746 45.5739C21.0256 45.4028 21.2651 45.2203 21.4933 45.0264C21.2765 44.8895 21.0598 44.7412 20.8545 44.5929C21.1739 44.3077 21.5047 44.0111 21.8127 43.7145C22.0294 43.8628 22.2348 44.0111 22.4515 44.1594C22.6568 43.9541 22.8508 43.7373 23.0333 43.5206C22.8394 43.3837 22.6454 43.2582 22.4515 43.1213C22.7709 42.8247 23.0789 42.5167 23.3869 42.2201L23.7976 42.5167C23.9573 42.2772 24.1056 42.0376 24.2425 41.7866L23.9915 41.6155C24.2197 41.376 24.4478 41.1478 24.676 40.9083C24.7102 40.8284 24.7444 40.7371 24.7786 40.6573L24.9611 40.1896L24.984 40.1097L25.0068 40.0413L25.041 39.95V39.9158L25.098 39.7675C25.1779 39.5051 25.2463 39.2314 25.3034 38.969C25.1323 39.1629 24.9612 39.3454 24.79 39.5394C24.4022 39.2542 24.0143 38.9576 23.6265 38.6496C23.9231 38.3188 24.2197 37.9879 24.5049 37.6457C24.8014 37.8853 25.1094 38.1248 25.4174 38.3644C25.4631 38.0336 25.4973 37.7028 25.5201 37.3605C25.3604 37.235 25.2121 37.121 25.0638 36.9955C25.2235 36.8016 25.3718 36.619 25.5315 36.4251C25.5201 36.1399 25.4973 35.8547 25.4631 35.5696V35.5467V35.5239V35.5011V35.4783V35.4327V35.4098V35.387V35.3642V35.3414L25.4403 35.2159C25.3832 34.8851 25.3148 34.5429 25.2235 34.2121C25.041 34.0524 24.8585 33.8926 24.676 33.7329C24.7672 33.6075 24.8699 33.4706 24.9611 33.3451C24.8471 33.0371 24.733 32.7177 24.5961 32.4211C24.425 32.672 24.2425 32.923 24.0485 33.1854C23.8318 32.9915 23.6151 32.7861 23.3983 32.5922C23.136 32.7177 22.8394 32.8318 22.5199 32.9344L22.4515 32.923ZM16.6907 46.9086C16.3143 46.6462 15.9264 46.3839 15.55 46.1101C15.9036 45.8363 16.2458 45.5511 16.5995 45.2659C16.9759 45.5397 17.3523 45.8135 17.7402 46.0759C17.398 46.3496 17.0443 46.6234 16.7021 46.8972L16.6907 46.9086ZM18.4132 45.5169C18.0368 45.2545 17.6489 44.9807 17.2725 44.707C17.6147 44.4218 17.9455 44.1366 18.2878 43.84C18.6642 44.1252 19.0521 44.399 19.4285 44.6727C19.0977 44.9579 18.7555 45.2431 18.4247 45.5283L18.4132 45.5169ZM20.0901 44.091C19.7023 43.8172 19.3258 43.5434 18.938 43.2582C19.2688 42.9616 19.5996 42.665 19.919 42.357C20.2955 42.6422 20.6833 42.9274 21.0712 43.2012C20.7518 43.4978 20.421 43.7944 20.0901 44.0795V44.091ZM21.6986 42.6194C21.3107 42.3456 20.9229 42.0604 20.5464 41.7752C20.8659 41.4672 21.1853 41.1592 21.4933 40.8512C21.8811 41.1478 22.2576 41.433 22.6454 41.7182C22.3374 42.0262 22.018 42.3228 21.6986 42.6308V42.6194ZM23.25 41.0908C22.8622 40.8056 22.4743 40.5204 22.0865 40.2238C22.3945 39.9044 22.7025 39.585 23.0105 39.2542C23.3983 39.5508 23.7748 39.8474 24.1626 40.144C23.866 40.4634 23.558 40.7714 23.25 41.0908ZM13.0403 46.9428C12.6753 46.6805 12.3102 46.4067 11.9566 46.1329C12.3216 45.8591 12.6867 45.5853 13.0403 45.3001C13.4053 45.5853 13.7704 45.8591 14.1354 46.1215C13.7704 46.3953 13.4053 46.669 13.0403 46.9314V46.9428ZM14.8313 45.5853C14.4662 45.3116 14.1012 45.0378 13.7248 44.7526C14.0784 44.4674 14.432 44.1822 14.7857 43.897C15.1507 44.1822 15.5157 44.4674 15.8808 44.7412C15.5271 45.0264 15.1849 45.3116 14.8313 45.5853ZM16.5652 44.1936C16.2002 43.9198 15.8237 43.6347 15.4587 43.3495C15.8009 43.0529 16.1432 42.7563 16.4854 42.4597C16.8504 42.7563 17.2269 43.0415 17.5919 43.3267C17.2497 43.6232 16.9189 43.9084 16.5652 44.1936ZM18.2421 42.7449C17.8657 42.4597 17.5006 42.1745 17.1242 41.8779C17.455 41.5699 17.7858 41.2619 18.1166 40.9539C18.4817 41.2505 18.8581 41.5471 19.2346 41.8323C18.9038 42.1403 18.5729 42.4369 18.2421 42.7335V42.7449ZM19.862 41.2505C19.4856 40.9653 19.1091 40.6687 18.7441 40.3721C19.0749 40.0527 19.3943 39.7447 19.7023 39.4253C20.0673 39.7333 20.4438 40.0299 20.8202 40.3265C20.5008 40.6345 20.1814 40.9539 19.862 41.2619V41.2505ZM21.4248 39.7105C21.0484 39.4139 20.6719 39.1173 20.2955 38.8093C20.6149 38.4785 20.9229 38.1476 21.2309 37.8168C21.6073 38.1248 21.9724 38.4328 22.3602 38.7408C22.0522 39.0717 21.7442 39.3911 21.4362 39.7105H21.4248ZM22.9306 38.1134C22.5542 37.8054 22.1777 37.4974 21.8013 37.1894C22.1093 36.8472 22.4059 36.505 22.6911 36.1627C23.0675 36.4822 23.444 36.8016 23.8204 37.1096C23.5352 37.4518 23.2272 37.7826 22.9306 38.1134ZM24.368 36.4479C23.9915 36.1399 23.6037 35.8205 23.2272 35.4897C23.5238 35.1247 23.809 34.771 24.0828 34.406C24.4592 34.7368 24.8357 35.0676 25.2235 35.387C24.9497 35.7407 24.6646 36.0943 24.368 36.4365V36.4479ZM9.40132 46.9086C9.77777 46.6462 10.1656 46.3839 10.5421 46.1101C10.1884 45.8363 9.84621 45.5511 9.49258 45.2659C9.11613 45.5397 8.73969 45.8135 8.35183 46.0759C8.69406 46.3496 9.04769 46.6234 9.38991 46.8972L9.40132 46.9086ZM11.2493 45.5853C11.6144 45.3116 11.9794 45.0378 12.3445 44.7526C11.9908 44.4674 11.6372 44.1822 11.295 43.897C10.9299 44.1822 10.5649 44.4674 10.1998 44.7412C10.5535 45.0264 10.9071 45.3116 11.2607 45.5853H11.2493ZM13.0403 44.2278C13.3939 43.9427 13.759 43.6575 14.1126 43.3723C13.759 43.0871 13.4053 42.7905 13.0403 42.4939C12.6867 42.7905 12.333 43.0871 11.9794 43.3723C12.333 43.6689 12.6867 43.9541 13.0403 44.2278ZM14.7743 42.8019C15.1165 42.5053 15.4701 42.2087 15.8123 41.9121C15.4473 41.6155 15.0937 41.3189 14.74 41.0109C14.3978 41.3189 14.0556 41.6155 13.7019 41.9235C14.0556 42.2201 14.4206 42.5167 14.7743 42.8019ZM16.4512 41.3417C16.7934 41.0337 17.1242 40.7257 17.455 40.4177C17.09 40.1211 16.7249 39.8131 16.3713 39.5051C16.0405 39.8246 15.7097 40.1326 15.3674 40.4406C15.7211 40.7486 16.0861 41.0452 16.4512 41.3417ZM18.0824 39.8245C18.4132 39.5051 18.7327 39.1857 19.0521 38.8663C18.687 38.5583 18.322 38.2503 17.9683 37.9309C17.6489 38.2617 17.3295 38.5811 16.9987 38.9005C17.3638 39.2085 17.7288 39.5165 18.0938 39.8245H18.0824ZM19.6453 38.2617C19.9647 37.9309 20.2727 37.6001 20.5807 37.2693C20.2156 36.9499 19.8506 36.6304 19.4855 36.311C19.1775 36.6533 18.8695 36.9955 18.5501 37.3263C18.9152 37.6457 19.2802 37.9537 19.6453 38.2731V38.2617ZM21.151 36.6419C21.459 36.2996 21.7556 35.946 22.0522 35.6038C21.6872 35.273 21.3107 34.9535 20.9457 34.6113C20.6491 34.965 20.3525 35.3186 20.0445 35.6722C20.4096 36.003 20.7746 36.3224 21.151 36.6419ZM7.66738 45.5169C8.04383 45.2545 8.43168 44.9807 8.81954 44.707C8.47731 44.4218 8.14649 44.1366 7.80427 43.84C7.42782 44.1252 7.03996 44.399 6.66352 44.6727C6.99433 44.9579 7.33656 45.2431 7.66738 45.5283V45.5169ZM9.5268 44.1936C9.90325 43.9198 10.2683 43.6347 10.6333 43.3495C10.2911 43.0529 9.94888 42.7563 9.60665 42.4597C9.24161 42.7563 8.86516 43.0415 8.50012 43.3267C8.84235 43.6232 9.18458 43.9084 9.5268 44.1936ZM11.3064 42.8019C11.6714 42.5167 12.025 42.2201 12.3787 41.9235C12.0365 41.6269 11.6828 41.3189 11.3406 41.0109C10.987 41.3189 10.6219 41.6155 10.2683 41.9121C10.6105 42.2087 10.9527 42.5053 11.3064 42.8019ZM13.0403 41.376C13.3939 41.0794 13.7362 40.7714 14.0898 40.4634C13.7362 40.1554 13.3939 39.8474 13.0403 39.5394C12.6981 39.8474 12.3445 40.1668 11.9908 40.4634C12.333 40.7714 12.6867 41.0794 13.0403 41.376ZM14.7286 39.893C15.0708 39.585 15.4131 39.2656 15.7439 38.9462C15.3903 38.6382 15.0366 38.3188 14.6944 37.9994C14.3636 38.3188 14.0214 38.6496 13.6791 38.969C14.0214 39.2884 14.375 39.5964 14.7286 39.9044V39.893ZM16.3485 38.353C16.6793 38.0336 17.0101 37.7028 17.3295 37.3719C16.9759 37.0525 16.6223 36.7217 16.2686 36.4023C15.9492 36.7331 15.6184 37.0753 15.2876 37.4062C15.6412 37.7256 15.9949 38.045 16.3485 38.3644V38.353ZM17.9227 36.7559C18.2421 36.4137 18.5615 36.0715 18.8695 35.7293C18.5045 35.3984 18.1509 35.0676 17.8086 34.7254C17.5006 35.079 17.1812 35.4213 16.8618 35.7749C17.2155 36.1057 17.5691 36.4365 17.9227 36.7559ZM6.00188 44.091C6.38974 43.8172 6.76618 43.5434 7.15404 43.2582C6.82322 42.9616 6.49241 42.665 6.173 42.357C5.79655 42.6422 5.40869 42.9274 5.02084 43.2012C5.34025 43.4978 5.67107 43.7944 6.00188 44.0795V44.091ZM7.8499 42.7449C8.22635 42.4597 8.59138 42.1745 8.96783 41.8779C8.63701 41.5699 8.3062 41.2733 7.97538 40.9539C7.61034 41.2505 7.23389 41.5471 6.85745 41.8323C7.18826 42.1403 7.51908 42.4369 7.8499 42.7335V42.7449ZM9.62947 41.3417C9.99451 41.0452 10.3481 40.7486 10.7132 40.4406C10.371 40.1326 10.0401 39.8131 9.70932 39.5051C9.35569 39.8131 8.99065 40.1211 8.62561 40.4177C8.95643 40.7257 9.28724 41.0337 9.62947 41.3417ZM11.3634 39.893C11.717 39.585 12.0707 39.277 12.4129 38.9576C12.0707 38.6382 11.7284 38.3188 11.3976 37.9879C11.0554 38.3074 10.7018 38.6268 10.3481 38.9348C10.679 39.2542 11.0212 39.5622 11.3634 39.8816V39.893ZM13.0403 38.3872C13.3825 38.0678 13.7248 37.7484 14.067 37.4176C13.7248 37.0867 13.3825 36.7559 13.0403 36.4251C12.7095 36.7559 12.3673 37.0867 12.025 37.4176C12.3559 37.7484 12.6981 38.0678 13.0403 38.3872ZM14.6716 36.8244C15.0024 36.4936 15.3332 36.1513 15.664 35.8205C15.3218 35.4897 14.9682 35.1475 14.6374 34.8052C14.318 35.1475 13.9871 35.4897 13.6449 35.8319C13.9871 36.1627 14.3294 36.4936 14.6716 36.8244ZM4.39343 42.6194C4.78128 42.3456 5.16913 42.0604 5.54558 41.7752C5.22617 41.4672 4.90676 41.1592 4.59876 40.8512C4.21091 41.1478 3.83446 41.433 3.4466 41.7182C3.7546 42.0262 4.07402 42.3228 4.39343 42.6308V42.6194ZM6.23003 41.2505C6.60648 40.9653 6.98293 40.6687 7.34797 40.3721C7.02856 40.0527 6.69774 39.7447 6.38974 39.4253C6.01329 39.7333 5.64825 40.0299 5.2718 40.3265C5.59121 40.6345 5.91062 40.9539 6.23003 41.2619V41.2505ZM8.0096 39.8245C8.37464 39.528 8.73969 39.22 9.10472 38.9005C8.77391 38.5811 8.45449 38.2503 8.13509 37.9195C7.77005 38.2389 7.41641 38.5469 7.05137 38.8549C7.37078 39.1743 7.69019 39.4937 8.02101 39.8131L8.0096 39.8245ZM9.74354 38.353C10.0972 38.0336 10.4508 37.7256 10.8044 37.3948C10.4736 37.0639 10.1428 36.7331 9.82339 36.3909C9.46976 36.7217 9.12754 37.0411 8.7625 37.3605C9.08191 37.6913 9.41273 38.0222 9.74354 38.3416V38.353ZM11.4204 36.8244C11.7741 36.4936 12.1163 36.1627 12.4471 35.8319C12.1163 35.4897 11.7855 35.1475 11.4547 34.8052C11.1124 35.1475 10.7702 35.4897 10.428 35.8205C10.7474 36.1627 11.0782 36.4936 11.4204 36.8244ZM2.8306 41.0908C3.21846 40.8056 3.60631 40.5204 3.99416 40.2238C3.68616 39.9044 3.37816 39.585 3.08156 39.2656C2.69371 39.5622 2.31726 39.8588 1.92941 40.1554C2.226 40.4748 2.534 40.7828 2.84201 41.1022L2.8306 41.0908ZM4.6672 39.7105C5.04365 39.4139 5.4201 39.1173 5.79655 38.8093C5.47714 38.4785 5.16913 38.1476 4.87254 37.8168C4.49609 38.1248 4.11965 38.4328 3.7432 38.7408C4.0512 39.0717 4.3592 39.3911 4.6672 39.7105ZM6.44678 38.2617C6.81182 37.9537 7.17685 37.6343 7.54189 37.3149C7.22248 36.9841 6.91448 36.6419 6.60648 36.2996C6.24144 36.619 5.8764 36.9499 5.51136 37.2579C5.81936 37.5887 6.12737 37.9195 6.44678 38.2503V38.2617ZM8.16931 36.7559C8.52294 36.4365 8.88798 36.1057 9.2302 35.7749C8.91079 35.4327 8.59139 35.079 8.28338 34.7254C7.92975 35.0676 7.57612 35.3984 7.22249 35.7293C7.53049 36.0715 7.8499 36.4137 8.16931 36.7559ZM3.16141 38.1134C3.53786 37.8054 3.91431 37.4974 4.29076 37.1894C3.98276 36.8472 3.68616 36.505 3.38956 36.1627C3.01312 36.4822 2.63667 36.8016 2.26022 37.1096C2.54541 37.4518 2.85341 37.7826 3.15001 38.1134H3.16141ZM4.92958 36.6419C5.29462 36.3224 5.67106 36.003 6.0361 35.6722C5.7281 35.3186 5.43151 34.965 5.13491 34.6113C4.76987 34.9421 4.40483 35.273 4.02839 35.6038C4.32498 35.946 4.62158 36.2996 4.92958 36.6419ZM1.71266 36.4479C2.08911 36.1399 2.47696 35.8205 2.85341 35.4897C2.55682 35.1361 2.27163 34.771 1.99785 34.406C1.6214 34.7368 1.24496 35.0676 0.868508 35.387C1.14229 35.7407 1.42748 36.0943 1.72407 36.4365L1.71266 36.4479Z" fill="#2BB752" style="fill:#2BB752;fill:color(display-p3 0.1688 0.7164 0.3227);fill-opacity:1;"/>
</svg>
