<svg width="42" height="44" viewBox="0 0 42 44" fill="none" xmlns="http://www.w3.org/2000/svg">
<path fill-rule="evenodd" clip-rule="evenodd" d="M34.6154 8.08348C38.9503 8.33698 41.2318 12.3043 39.2925 16.1955C38.4052 17.9573 39.6094 20.5684 41.2825 21.557C39.6094 22.5457 38.4052 25.1567 39.2925 26.9185C41.2191 30.8098 38.9376 34.7517 34.6154 35.0305C32.6508 35.1319 30.9777 37.5022 30.965 39.4414C29.2793 38.4908 26.402 38.757 25.3247 40.4047C22.9164 44.0171 18.3661 44.0171 15.9578 40.4047C14.8805 38.757 12.0032 38.4908 10.3174 39.4414C10.2921 37.5148 8.63168 35.1446 6.66705 35.0305C2.3322 34.7517 0.0506997 30.8098 1.98997 26.9185C2.87722 25.1567 1.6731 22.5457 0 21.557C1.6731 20.5684 2.87722 17.9573 1.98997 16.1955C0.0633746 12.3043 2.34488 8.36233 6.66705 8.08348C8.63168 7.98208 10.3048 5.61186 10.3174 3.67258C12.0032 4.62321 14.8805 4.35703 15.9578 2.70928C18.3661 -0.903094 22.9164 -0.903094 25.3247 2.70928C26.402 4.35703 29.2793 4.62321 30.965 3.67258C30.9904 5.61186 32.6508 7.96941 34.6154 8.08348Z" fill="black" style="fill:black;fill-opacity:1;"/>
<path fill-rule="evenodd" clip-rule="evenodd" d="M30.3313 5.65051C30.2679 5.46039 30.2045 5.27026 30.1538 5.08014C29.951 5.13084 29.7609 5.18154 29.5708 5.20689L27.1752 10.2515L30.344 5.65051H30.3313ZM11.7117 5.20689C11.5216 5.16886 11.3188 5.13084 11.1287 5.08014C11.078 5.28294 11.0146 5.47306 10.9512 5.65051L14.12 10.2515L11.7244 5.20689H11.7117ZM2.01534 21.114C1.88859 21.2661 1.74917 21.4182 1.60974 21.5576C1.76184 21.6971 1.88859 21.8492 2.01534 22.0013L7.57967 21.5576L2.01534 21.114ZM10.9385 37.4648C11.0146 37.6549 11.0653 37.845 11.116 38.0351C11.3188 37.9844 11.5089 37.9337 11.699 37.9084L14.0946 32.8637L10.9259 37.4648H10.9385ZM29.5708 37.9084C29.7609 37.9464 29.9637 37.9844 30.1538 38.0351C30.2045 37.8323 30.2679 37.6422 30.3313 37.4648L27.1625 32.8637L29.5581 37.9084H29.5708ZM39.2545 22.0013C39.3812 21.8492 39.5207 21.6971 39.6601 21.5576C39.508 21.4182 39.3812 21.2661 39.2545 21.114L33.6902 21.5576L39.2545 22.0013Z" fill="white" style="fill:white;fill-opacity:1;"/>
<path fill-rule="evenodd" clip-rule="evenodd" d="M16.0335 14.5223C14.2337 11.4296 10.1523 8.8439 6.71741 9.05938C3.07968 9.28753 1.24181 12.4943 2.85154 15.7518C4.38521 18.8318 8.66936 21.0753 12.2437 21.088C12.2564 20.7204 12.3071 20.3655 12.3705 20.0106C11.3818 19.8965 10.3932 19.7444 9.45521 19.4529C8.78344 19.2374 7.64269 18.7558 6.76812 18.2361C8.55529 18.9712 10.7481 19.4656 12.2437 19.098C10.9509 18.7304 9.97488 18.3882 8.77075 17.7291C10.3805 18.2614 11.1283 18.4135 12.5606 18.2107C11.5719 17.9572 10.7734 17.5897 9.41719 16.639C10.3044 16.9813 11.217 17.2348 12.1677 17.3742L12.9408 17.4883C12.1043 16.8799 11.2677 16.2715 10.4312 15.6631C11.3945 16.0433 12.3578 16.4109 13.3084 16.7911C12.4845 15.7518 11.6353 14.9406 10.596 14.1674C11.8001 14.7378 12.7761 15.2828 13.8154 16.0687C13.1436 14.6744 12.0536 13.7491 10.9002 12.8492C12.4465 13.6224 13.245 14.3829 14.4111 15.3969C13.752 13.6731 12.1043 12.2788 10.7354 11.2141C12.624 12.1901 13.9295 13.521 15.1843 15.1687C15.4505 14.9406 15.742 14.7251 16.0335 14.535V14.5223Z" fill="#FFEE00" style="fill:#FFEE00;fill:color(display-p3 1.0000 0.9333 0.0000);fill-opacity:1;"/>
<path fill-rule="evenodd" clip-rule="evenodd" d="M20.6343 14.1808C24.703 14.1808 28.0111 17.489 28.0111 21.5576C28.0111 25.6263 24.703 28.9345 20.6343 28.9345C16.5656 28.9345 13.2574 25.6263 13.2574 21.5576C13.2574 17.489 16.5656 14.1808 20.6343 14.1808Z" fill="#FF0012" style="fill:#FF0012;fill:color(display-p3 1.0000 0.0000 0.0690);fill-opacity:1;"/>
<path fill-rule="evenodd" clip-rule="evenodd" d="M24.4243 14.0542C26.2114 10.9488 26.4016 6.11964 24.5003 3.25509C22.485 0.225762 18.7839 0.225762 16.7686 3.25509C14.8673 6.11964 15.0574 10.9488 16.8446 14.0542C17.1615 13.8894 17.5037 13.75 17.8459 13.6232C17.453 12.7233 17.0854 11.7854 16.8699 10.8221C16.7178 10.1376 16.5658 8.90814 16.5784 7.88146C16.8319 9.79539 17.5037 11.9501 18.5684 13.0529C18.2389 11.7473 18.0487 10.7333 18.0234 9.35176C18.3656 11.0122 18.6191 11.7347 19.4937 12.8754C19.2275 11.8868 19.1388 11.0122 19.2909 9.36444C19.443 10.3024 19.6711 11.2277 20.026 12.1149L20.3175 12.8501C20.4189 11.8234 20.533 10.7967 20.6344 9.77004C20.7865 10.784 20.9513 11.8107 21.1034 12.8247C21.5851 11.5952 21.8766 10.4545 22.0287 9.16164C22.1428 10.4925 22.1554 11.6079 21.9907 12.9008C22.8652 11.6206 23.1187 10.2137 23.3215 8.76871C23.4229 10.4925 23.1694 11.5572 22.8652 13.0909C24.0313 11.6586 24.4116 9.54189 24.6524 7.81809C24.7538 9.93481 24.2468 11.7347 23.4483 13.6486C23.7778 13.7627 24.1074 13.9021 24.4116 14.0669L24.4243 14.0542Z" fill="#FFEE00" style="fill:#FFEE00;fill:color(display-p3 1.0000 0.9333 0.0000);fill-opacity:1;"/>
<path fill-rule="evenodd" clip-rule="evenodd" d="M29.0253 21.088C32.5997 21.088 36.8838 18.8318 38.4175 15.7518C40.0399 12.4943 38.1893 9.28753 34.5516 9.05938C31.1167 8.8439 27.0353 11.4296 25.2355 14.5223C25.5397 14.7251 25.8312 14.9406 26.1101 15.1814C26.6931 14.3829 27.3269 13.6097 28.0493 12.9379C28.569 12.4563 29.5576 11.7211 30.4449 11.2141C28.9112 12.3929 27.3902 14.0533 26.9593 15.5236C27.9352 14.5857 28.6957 13.9139 29.8872 13.2041C28.6197 14.3195 28.1127 14.9152 27.5804 16.2334C28.3028 15.511 29.0126 14.9913 30.5209 14.3068C29.7858 14.9026 29.1013 15.5743 28.5183 16.3222L28.024 16.9432C28.9619 16.525 29.9126 16.1067 30.8505 15.6757C30.0393 16.3095 29.2408 16.9686 28.4296 17.615C29.7478 17.4249 30.8758 17.0953 32.0673 16.5757C30.9772 17.3362 30.014 17.9065 28.8225 18.4135C30.3689 18.5276 31.7124 18.046 33.0686 17.5009C31.6237 18.4516 30.5717 18.7684 29.1014 19.2754C30.9266 19.567 32.9545 18.8445 34.5643 18.1854C32.7771 19.3261 30.9646 19.7951 28.9112 20.0613C28.9746 20.4035 29.0126 20.7584 29.038 21.1133L29.0253 21.088Z" fill="#FFEE00" style="fill:#FFEE00;fill:color(display-p3 1.0000 0.9333 0.0000);fill-opacity:1;"/>
<path fill-rule="evenodd" clip-rule="evenodd" d="M25.2355 28.5921C27.0353 31.6848 31.1167 34.2705 34.5516 34.0551C38.1893 33.8269 40.0272 30.6201 38.4175 27.3627C36.8838 24.2826 32.5997 22.0392 29.0253 22.0265C29.0126 22.3941 28.9619 22.749 28.8985 23.1039C29.8745 23.2179 30.8759 23.37 31.8138 23.6616C32.4856 23.877 33.6263 24.3587 34.5009 24.8784C32.7137 24.1432 30.521 23.6489 29.0253 24.0165C30.3182 24.384 31.2941 24.7263 32.4982 25.3854C30.8885 24.853 30.1407 24.7009 28.7084 24.9037C29.6971 25.1572 30.4956 25.5248 31.8518 26.4754C30.9646 26.1332 30.052 25.8797 29.1014 25.7403L28.3282 25.6262C29.1647 26.2346 30.0013 26.843 30.8378 27.4514C29.8745 27.0711 28.9112 26.7036 27.9606 26.3233C28.7845 27.3627 29.6337 28.1739 30.673 28.947C29.4562 28.3767 28.4929 27.8316 27.4536 27.0458C28.1254 28.44 29.2154 29.3653 30.3689 30.2652C28.8225 29.4921 28.024 28.7316 26.8579 27.7176C27.517 29.4414 29.1647 30.8356 30.5336 31.9003C28.6451 30.9243 27.3395 29.5935 26.0847 27.9457C25.8185 28.1739 25.5397 28.3893 25.2355 28.5795V28.5921Z" fill="#FFEE00" style="fill:#FFEE00;fill:color(display-p3 1.0000 0.9333 0.0000);fill-opacity:1;"/>
<path fill-rule="evenodd" clip-rule="evenodd" d="M16.8446 29.061C15.0574 32.1663 14.8673 36.9955 16.7686 39.8601C18.7839 42.8894 22.485 42.8894 24.5003 39.8601C26.4016 36.9955 26.2114 32.1663 24.4243 29.061C24.1074 29.2257 23.7652 29.3652 23.4229 29.4919C23.8159 30.3918 24.1834 31.3298 24.3989 32.2931C24.551 32.9775 24.7031 34.207 24.6904 35.2337C24.4369 33.3198 23.7652 31.165 22.7005 30.0623C23.03 31.3678 23.2201 32.3818 23.2455 33.7634C22.9033 32.103 22.6498 31.3805 21.7752 30.2397C22.0414 31.2284 22.1301 32.103 21.978 33.7507C21.8259 32.8128 21.5851 31.9002 21.2428 31.0002L20.9513 30.2651C20.8499 31.2918 20.7358 32.3184 20.6344 33.3451C20.4823 32.3311 20.3176 31.3044 20.1655 30.2904C19.6838 31.5199 19.3923 32.6607 19.2529 33.9535C19.1388 32.6227 19.1261 31.5072 19.2909 30.2271C18.4163 31.5072 18.1628 32.9142 17.96 34.3591C17.8586 32.6353 18.1121 31.5706 18.4163 30.0369C17.2502 31.4692 16.87 33.5859 16.6291 35.3097C16.5277 33.193 17.0347 31.3932 17.8333 29.4792C17.5037 29.3652 17.1741 29.2257 16.8699 29.061H16.8446Z" fill="#FFEE00" style="fill:#FFEE00;fill:color(display-p3 1.0000 0.9333 0.0000);fill-opacity:1;"/>
<path fill-rule="evenodd" clip-rule="evenodd" d="M12.2433 22.0265C8.66896 22.0265 4.38481 24.2826 2.85114 27.3627C1.22874 30.6201 3.07928 33.8269 6.71701 34.0551C10.1519 34.2705 14.2333 31.6848 16.0331 28.5921C15.7289 28.3893 15.4374 28.1739 15.1586 27.933C14.5755 28.7316 13.9544 29.5047 13.2193 30.1765C12.6996 30.6582 11.711 31.3933 10.8237 31.9003C12.3574 30.7215 13.8784 29.0611 14.3093 27.5908C13.3334 28.5288 12.5729 29.2005 11.3814 29.9103C12.6489 28.7949 13.1559 28.1992 13.6883 26.881C12.9658 27.6035 12.256 28.1232 10.7477 28.8076C11.4828 28.2119 12.1673 27.5401 12.7503 26.7923L13.2446 26.1839C12.3067 26.6022 11.3561 27.0204 10.4181 27.4514C11.2293 26.8176 12.0278 26.1585 12.839 25.5121C11.5208 25.7022 10.3928 26.0318 9.20132 26.5515C10.2914 25.791 11.2547 25.2206 12.4461 24.7136C10.8998 24.5995 9.5562 25.0812 8.19998 25.6262C9.64493 24.6756 10.697 24.3587 12.1673 23.8644C10.3421 23.5728 8.31406 24.2953 6.70434 24.9544C8.49151 23.8137 10.304 23.3447 12.3574 23.0785C12.294 22.7363 12.256 22.3814 12.2306 22.0265H12.2433Z" fill="#FFEE00" style="fill:#FFEE00;fill:color(display-p3 1.0000 0.9333 0.0000);fill-opacity:1;"/>
<path fill-rule="evenodd" clip-rule="evenodd" d="M21.7757 23.015C22.9291 23.053 24.5008 22.7235 25.6162 22.508C24.4628 23.2685 22.853 24.067 21.4968 24.5233C22.6629 24.4473 24.3614 23.9403 25.4768 23.6614C24.2219 24.6754 22.8657 25.4993 21.3194 26.1204C22.5488 25.9683 23.9177 25.3345 25.0458 24.9162C24.0318 26.1964 23.0558 26.9823 21.5095 27.7047C24.5261 27.2865 26.8457 24.6881 26.8457 21.57C26.8457 18.1478 24.0698 15.3719 20.6476 15.3719C20.3687 15.3719 20.0899 15.3846 19.811 15.4226C22.0672 15.6381 23.1065 16.3226 24.6275 17.6408C23.3981 17.1718 21.9658 16.7915 20.6476 16.8929C22.5995 17.2985 24.0445 18.0337 25.2486 18.8196C24.0445 18.6041 22.3587 18.3252 21.1166 18.3252C22.5995 18.7055 24.4121 19.3012 25.3373 19.9476C24.1712 19.7955 22.6376 19.6688 21.4461 19.7702C22.853 20.049 24.5895 20.5307 25.857 21.063C24.6149 21.0377 22.8911 20.9363 21.6362 21.1391C22.7643 21.2532 24.6149 21.5193 25.5401 21.7348C24.5895 22.2418 22.8277 22.7742 21.763 23.0277L21.7757 23.015Z" fill="black" style="fill:black;fill-opacity:1;"/>
</svg>
