<svg width="44" height="44" viewBox="0 0 44 44" fill="none" xmlns="http://www.w3.org/2000/svg">
<path fill-rule="evenodd" clip-rule="evenodd" d="M6.4389 6.46425C5.7798 7.12335 5.17141 7.82048 4.61371 8.54295C4.47428 8.44155 4.34752 8.34015 4.22077 8.2134C3.13072 7.12335 3.13072 5.34885 4.22077 4.24613C5.3235 3.15608 7.09801 3.15608 8.18806 4.24613C8.31481 4.37288 8.41621 4.49962 8.51761 4.63905C7.79513 5.19675 7.11067 5.80515 6.4389 6.46425ZM2.75048 11.4075C-1.66042 19.5449 -0.430948 29.9384 6.45158 36.8209C14.8424 45.1991 28.43 45.1991 36.8209 36.8209C45.1991 28.43 45.1991 14.8424 36.8209 6.46425C29.9384 -0.418274 19.5449 -1.64775 11.4075 2.76315C11.1794 2.4336 10.9259 2.11672 10.6343 1.8252C8.20073 -0.6084 4.2588 -0.6084 1.8252 1.8252C-0.6084 4.2588 -0.6084 8.20073 1.8252 10.6343C2.11672 10.9259 2.43361 11.192 2.76316 11.4075H2.75048Z" fill="black" style="fill:black;fill-opacity:1;"/>
<path fill-rule="evenodd" clip-rule="evenodd" d="M12.3449 3.18167C11.9266 5.01954 11.3436 6.92079 10.8873 8.70797C11.1154 8.11224 12.497 4.66464 13.4603 2.68734C13.1434 4.58859 12.497 6.59124 12.0787 8.46714C12.3576 7.75734 14.1828 2.96619 14.6771 2.21837C14.4109 4.23369 13.8659 6.26169 13.3843 8.18829C14.0434 6.60392 15.07 3.38447 15.9193 1.85079C15.7418 3.52389 15.0827 6.00819 14.4996 7.92212C15.0447 6.66729 16.3248 3.15632 17.2248 1.55927C16.9206 3.35912 16.2235 5.76737 15.6531 7.79537C15.9066 7.13627 17.8585 2.34512 18.3528 1.40717C17.9853 3.48587 17.3515 5.71667 16.7431 7.75734C17.06 7.07289 18.6444 2.77607 19.633 1.20437C19.2021 3.00422 18.4669 5.67864 17.8205 7.73199C18.5557 6.16029 20.1527 2.21837 20.8498 1.09029C20.4696 3.10562 19.6964 5.45049 18.9359 7.70664C19.557 6.22367 21.0273 3.04224 22.0666 1.06494C21.5216 3.33377 20.7865 5.64062 20.0133 7.84607C20.4442 6.97149 22.1807 2.89014 23.2581 1.17902C22.7004 3.27039 21.9399 5.76737 21.04 8.04887C21.6864 6.74334 23.7397 2.10429 24.3988 1.28042C23.7651 3.75204 23.0173 5.86877 22.13 8.26434C22.5356 7.47849 24.7284 2.77607 25.6156 1.48322C24.8932 4.00554 24.1833 6.22367 23.1947 8.61924C24.2087 6.79404 25.679 3.34644 26.7817 1.73672C26.1987 4.25904 25.1593 6.80672 24.2214 9.30369C25.3875 6.95882 26.6043 4.61394 27.9478 1.97754C26.2367 7.96014 23.0299 13.6132 18.3148 18.3283C13.5997 23.0434 7.94667 26.2628 1.96407 27.974C0.303648 22.7772 0.747277 17.0481 3.29495 12.1429C3.10483 12.878 2.92738 13.6132 2.80063 14.361C3.00343 13.7906 4.06812 10.6346 4.86665 9.65859C4.67652 10.7106 4.23291 12.0922 3.99208 13.0301C4.39768 11.8387 5.47506 9.16427 6.07078 8.27702C5.76658 9.56987 5.47505 10.7106 5.18352 11.9528C5.62715 10.7613 6.67917 7.74467 7.40165 6.71799C7.2749 7.57989 6.48905 10.5205 6.32428 11.1162C6.78058 9.98814 7.7819 7.11092 8.5931 5.71667C8.26355 7.44047 7.84527 8.89809 7.43967 10.4318C7.8833 9.31637 9.0494 6.04622 9.83525 4.77872C9.6578 6.19832 8.97335 8.13759 8.58043 9.72197C8.75788 9.15159 10.2789 5.28572 11.0521 3.91682C10.7479 5.80539 10.1902 7.42779 9.73386 9.20229C10 8.55587 11.6605 4.22102 12.3576 3.19434L12.3449 3.18167ZM35.3247 37.1126C27.9858 43.6276 17.1234 44.0205 9.36628 38.2787C15.7545 35.8451 21.7371 32.0553 26.8958 26.9093C31.9785 21.8266 35.7303 15.9327 38.1765 9.63324C37.2386 13.1696 35.5021 16.5791 33.7276 19.7859C35.274 17.6185 38.0625 12.6245 39.0384 10.8881C38.0625 14.399 36.1612 17.5678 34.2727 20.7112C36.0852 18.3283 38.5948 14.0188 39.7863 12.4851C38.4427 15.7679 36.5668 18.8226 34.6402 21.6998C36.1612 19.8746 39.1905 14.9948 40.3947 13.9047C39.1399 17.0228 37.0485 19.8873 35.0205 22.6378C36.5415 20.9393 40.1665 16.1862 41.0158 15.3623C39.7229 17.8973 37.2133 21.2055 35.1346 23.8166C36.4528 22.4984 40.3313 17.6565 41.396 16.8073C39.8243 19.6592 37.5301 22.3336 35.2613 24.932C36.9344 23.411 40.7242 18.9874 41.6749 18.3536C40.0778 21.0027 37.4034 23.9813 35.2233 26.3516C37.4794 24.2222 39.6976 22.004 41.8143 19.8873C41.358 21.3576 37.9991 24.7672 35.8444 26.9853C35.5148 26.7445 35.1472 26.529 34.7543 26.3516C31.7503 24.9953 28.7971 26.7445 28.1126 29.3809C27.6943 30.9779 28.0999 32.7905 29.6083 33.665C31.1546 34.5523 33.1192 34.0326 34.0065 32.4863C34.843 31.0286 34.4248 29.2034 33.0939 28.2528C33.8417 27.4796 35.0839 27.7205 35.8951 28.2782C35.4007 28.7471 35.0205 29.1147 34.8303 29.2922C35.0585 29.1147 35.4641 28.7725 35.9584 28.3415L36.0345 28.3922C36.2373 28.5443 36.4147 28.7218 36.5795 28.9246C35.9584 29.495 35.35 30.0653 34.767 30.623C35.2867 30.2048 35.9458 29.6471 36.6682 29.0387C36.833 29.2668 36.9724 29.495 37.0992 29.7611C36.1866 30.5723 35.2486 31.3455 34.336 32.1187C35.1219 31.5483 36.1486 30.7878 37.2133 29.9893C37.3147 30.2174 37.3907 30.4583 37.4541 30.7118C36.2626 31.7258 34.9318 32.7651 33.5502 33.7918C34.298 33.3355 35.9331 32.2201 37.5301 31.1047C37.5682 31.3455 37.5935 31.5863 37.6062 31.8272C36.0979 33.0186 34.4248 34.172 32.8531 35.3255C33.8671 34.7171 35.9331 33.3101 37.6062 32.1947V32.3975C37.5808 32.575 37.5682 32.7651 37.5301 32.9426C35.7683 34.3748 33.6516 35.8325 31.7883 37.0873C32.7009 36.6056 35.6289 34.7044 37.4034 33.551C37.3527 33.7664 37.2893 33.9946 37.2133 34.1974C35.2613 35.9592 32.739 37.4168 30.28 38.7857C31.9785 38.0633 35.7176 35.9465 36.6556 35.3001C34.2346 37.4802 31.8517 39.128 28.6703 40.5222C31.0405 39.5843 33.246 38.5069 35.3374 37.0619L35.3247 37.1126ZM35.8824 27.0614C37.9104 25.2615 39.875 23.411 41.8396 21.6365C40.9017 23.3983 38.354 25.9586 36.5668 27.6698C36.364 27.4543 36.1359 27.2515 35.8824 27.074V27.0614ZM36.6682 27.7585C38.4047 26.2502 40.7623 24.1588 41.8143 23.4236C40.6609 25.0967 38.937 26.7698 37.1879 28.3922C37.0358 28.1641 36.8584 27.9613 36.6682 27.7585ZM37.2893 28.557C38.9751 27.1501 40.7749 25.6291 41.5481 25.0587C40.3693 26.6431 39.0511 28.012 37.6822 29.2668C37.5681 29.026 37.4287 28.7852 37.2893 28.557ZM37.809 29.571C39.1652 28.5443 40.4707 27.5303 41.2312 26.8712C40.4834 27.9106 39.368 29.0513 38.0371 30.2301C37.9737 30.002 37.8977 29.7865 37.809 29.571ZM38.1512 30.6991C39.1779 29.9766 40.1285 29.3048 40.7496 28.8612C40.0525 29.7231 39.1906 30.547 38.2399 31.3328C38.2146 31.1174 38.1892 30.9019 38.1385 30.6991H38.1512ZM38.278 31.7891C39.0131 31.3075 39.6088 30.9272 39.9384 30.7625C39.4694 31.2695 38.9117 31.8145 38.2653 32.3595C38.2653 32.1694 38.2653 31.9793 38.2653 31.7891H38.278ZM38.2019 33.0693L38.6075 32.8158C38.4681 32.9806 38.316 33.1454 38.1639 33.3101L38.2019 33.0693Z" fill="#FFEE00" style="fill:#FFEE00;fill:color(display-p3 1.0000 0.9333 0.0000);fill-opacity:1;"/>
<path fill-rule="evenodd" clip-rule="evenodd" d="M3.66275 3.67558C2.25582 5.08251 2.25582 7.37668 3.66275 8.78361C3.81485 8.93571 3.97962 9.07513 4.14439 9.18921C4.04299 9.34131 3.92892 9.48073 3.82752 9.63283C3.63739 9.49341 3.44727 9.34131 3.26982 9.16386C2.45862 8.35266 2.05302 7.28796 2.05302 6.22326C2.05302 5.15856 2.45862 4.09386 3.26982 3.28266C4.08102 2.47146 5.14573 2.06586 6.21043 2.06586C7.27513 2.06586 8.33983 2.47146 9.15103 3.28266C9.32848 3.46011 9.48057 3.63756 9.61999 3.84036C9.46789 3.94176 9.32847 4.04316 9.17637 4.15723C9.0623 3.99246 8.92287 3.82768 8.77077 3.67558C7.36385 2.26866 5.06967 2.26866 3.66275 3.67558ZM3.51064 10.1145C3.38389 10.3046 3.25714 10.5074 3.14307 10.7102C2.86422 10.5201 2.61072 10.3046 2.36989 10.0638C0.253167 7.94706 0.253167 4.51213 2.36989 2.39541C4.48662 0.27868 7.92155 0.27868 10.0383 2.39541C10.2791 2.63623 10.4946 2.88973 10.6847 3.16858C10.4819 3.28266 10.2918 3.40941 10.089 3.53616C9.93687 3.30801 9.74675 3.09253 9.54395 2.88973C8.61867 1.96446 7.41455 1.50816 6.19775 1.50816C4.98095 1.50816 3.77682 1.96446 2.85155 2.88973C1.92627 3.81501 1.46997 5.01913 1.46997 6.23593C1.46997 7.45273 1.92627 8.65686 2.85155 9.58213C3.05435 9.78493 3.26982 9.96238 3.49797 10.1272L3.51064 10.1145Z" fill="#FF0012" style="fill:#FF0012;fill:color(display-p3 1.0000 0.0000 0.0690);fill-opacity:1;"/>
<path fill-rule="evenodd" clip-rule="evenodd" d="M37.6822 8.64424C35.2993 15.0958 31.5094 21.1545 26.3254 26.3512C21.1413 31.5353 15.0826 35.3251 8.61838 37.708C8.07336 37.2644 7.52834 36.7827 7.02134 36.2631C6.88191 36.1236 6.74249 35.9842 6.61574 35.8448C13.1941 33.6013 19.3668 29.8749 24.6142 24.6274C29.8617 19.38 33.5881 13.2072 35.8316 6.64159C35.971 6.78102 36.1105 6.90777 36.2499 7.04719C36.7696 7.56687 37.2512 8.09922 37.6948 8.64424H37.6822ZM3.1808 30.9649C2.81323 30.2298 2.48368 29.4819 2.20483 28.7214C8.30151 26.9723 14.056 23.6895 18.8725 18.8856C23.6763 14.0818 26.9591 8.32737 28.7083 2.21802C29.4688 2.49687 30.2166 2.81374 30.9517 3.19399C29.0758 9.56952 25.6156 15.5648 20.5836 20.5968C15.5516 25.6287 9.55633 29.0763 3.1808 30.9649Z" fill="#FF0012" style="fill:#FF0012;fill:color(display-p3 1.0000 0.0000 0.0690);fill-opacity:1;"/>
</svg>
