<svg width="30" height="43" viewBox="0 0 30 43" fill="none" xmlns="http://www.w3.org/2000/svg">
<g clip-path="url(#clip0_6515_1181)">
<path fill-rule="evenodd" clip-rule="evenodd" d="M0.709961 29.85V0.710022H28.34V29.85C28.34 29.85 25.46 32.4 24.15 33.57C21.48 35.94 18.82 38.3 16.12 40.64L14.52 42.05L0.709961 29.85Z" fill="white" style="fill:white;fill-opacity:1;"/>
<path d="M27.63 1.42V29.53C23.63 33.07 19.68 36.61 15.65 40.1L14.52 41.1C14.52 41.1 5.42 33.06 1.42 29.53V1.42H27.63ZM29.05 0H0V30.17L0.48 30.59L13.59 42.16L14.53 42.99L15.47 42.16L16.6 41.16C19.29 38.83 21.99 36.42 24.61 34.1C25.93 32.93 27.25 31.76 28.57 30.59L29.05 30.17V0Z" fill="white" style="fill:white;fill-opacity:1;"/>
<path fill-rule="evenodd" clip-rule="evenodd" d="M11.0999 36.13L14.5199 39.1L17.9399 36.13V18.2H26.1099V11.36H17.9399V2.95001H11.0999V11.36H2.93994V18.2H11.0999V36.13Z" fill="black" style="fill:black;fill-opacity:1;"/>
<path fill-rule="evenodd" clip-rule="evenodd" d="M11.0999 36.08L14.5199 39.1L17.9399 36.08V18.2H26.1099V11.36H17.9399V2.95001H11.0999V11.36H2.93994V18.2H11.0999V36.08Z" fill="black" style="fill:black;fill-opacity:1;"/>
<path fill-rule="evenodd" clip-rule="evenodd" d="M20.94 3.41998V3.92998H25.63V3.41998H20.94ZM20.94 4.42998V5.06998H25.63V4.42998H20.94ZM20.94 5.56998V6.20998H25.63V5.56998H20.94ZM20.94 6.70998V7.34998H25.63V6.70998H20.94ZM20.94 7.84998V8.35998H25.63V7.84998H20.94ZM8.10004 4.42998H3.42004V5.06998H8.11004V4.42998H8.10004ZM3.42004 3.92998H8.11004V3.41998H3.42004V3.92998ZM8.10004 7.84998H3.42004V8.35998H8.11004V7.84998H8.10004ZM3.42004 7.34998H8.11004V6.70998H3.42004V7.34998ZM3.42004 6.20998H8.11004V5.56998H3.42004V6.20998ZM20.44 2.91998V8.85998H26.13V2.91998H20.44ZM8.60004 8.85998V2.91998H2.92004V8.85998H8.61004H8.60004Z" fill="black" style="fill:black;fill-opacity:1;"/>
<path fill-rule="evenodd" clip-rule="evenodd" d="M8.10004 32.77V21.2H3.42004V28.63L8.11004 32.77H8.10004ZM25.63 21.2H20.94V32.76L25.63 28.62V21.19V21.2ZM8.60004 33.87V20.7H2.92004V28.85L8.61004 33.87H8.60004ZM26.13 20.7H20.44V33.87L26.13 28.85V20.7Z" fill="black" style="fill:black;fill-opacity:1;"/>
<path fill-rule="evenodd" clip-rule="evenodd" d="M9.60004 9.85998V1.91998H1.92004V9.85998H9.61004H9.60004ZM19.44 1.91998V9.85998H27.13V1.91998H19.44ZM27.13 19.7H19.44V36.09L27.13 29.3V19.7ZM15.66 40.1L14.53 41.1C14.53 41.1 5.42004 33.06 1.42004 29.53V1.41998H27.63V29.53C23.63 33.07 19.68 36.61 15.65 40.1H15.66ZM9.60004 36.09V19.7H1.92004V29.3L9.61004 36.09H9.60004ZM10.1 36.53L14.52 40.42L18.94 36.53V19.2H27.1V10.36H18.94V1.94998H10.1V10.36H1.94004V19.2H10.1V36.53Z" fill="black" style="fill:black;fill-opacity:1;"/>
<path fill-rule="evenodd" clip-rule="evenodd" d="M2.93994 11.36V18.2H11.0999V36.13L14.5199 39.1L17.9399 36.13V18.2H26.1099V11.36H17.9399V2.95001H11.0999V11.36H2.93994Z" fill="black" style="fill:black;fill-opacity:1;"/>
<path fill-rule="evenodd" clip-rule="evenodd" d="M8.28997 22.84V23.34H3.08997V22.84H8.29997H8.28997ZM8.28997 21.76V22.26H3.08997V21.76H8.29997H8.28997ZM8.28997 23.91V24.41H3.08997V23.91H8.29997H8.28997ZM8.28997 24.99V25.49H3.08997V24.99H8.29997H8.28997ZM8.28997 26.06V26.56H3.08997V26.06H8.29997H8.28997ZM8.28997 27.14V27.64H3.08997V27.14H8.29997H8.28997ZM8.28997 28.21V28.71H3.18997L3.08997 28.62V28.21H8.29997H8.28997ZM8.28997 29.29V29.79H4.35997L3.80997 29.29H8.28997ZM8.28997 30.36V30.86H5.53997L4.98997 30.36H8.28997ZM8.28997 31.44V31.94H6.71997L6.16997 31.44H8.28997Z" fill="black" style="fill:black;fill-opacity:1;"/>
<path fill-rule="evenodd" clip-rule="evenodd" d="M20.75 22.84V23.34H25.96V22.84H20.75ZM20.75 21.76V22.26H25.96V21.76H20.75ZM20.75 23.91V24.41H25.96V23.91H20.75ZM20.75 24.99V25.49H25.96V24.99H20.75ZM20.75 26.06V26.56H25.96V26.06H20.75ZM20.75 27.14V27.64H25.96V27.14H20.75ZM20.75 28.21V28.71H25.86L25.96 28.62V28.21H20.75ZM20.75 29.29V29.79H24.68L25.23 29.29H20.75ZM20.75 30.36V30.86H23.5L24.05 30.36H20.75ZM20.75 31.44V31.94H22.32L22.87 31.44H20.75Z" fill="black" style="fill:black;fill-opacity:1;"/>
<path d="M15.61 13.84V11.3H13.43V13.84H10.9V16H13.43V18.54H15.61V16H18.15V13.84H15.61Z" fill="white" style="fill:white;fill-opacity:1;"/>
</g>
<defs>
<clipPath id="clip0_6515_1181">
<rect width="29.05" height="42.99" fill="white" style="fill:white;fill-opacity:1;"/>
</clipPath>
</defs>
</svg>
