<?xml version="1.0" encoding="UTF-8" standalone="no"?>
<svg
   id="b"
   viewBox="0 0 260.22 84.92"
   version="1.1"
   sodipodi:docname="jasstrainer_goepf.svg"
   inkscape:version="1.4 (e7c3feb1, 2024-10-09)"
   xmlns:inkscape="http://www.inkscape.org/namespaces/inkscape"
   xmlns:sodipodi="http://sodipodi.sourceforge.net/DTD/sodipodi-0.dtd"
   xmlns="http://www.w3.org/2000/svg"
   xmlns:svg="http://www.w3.org/2000/svg">
  <sodipodi:namedview
     id="namedview17"
     pagecolor="#ffffff"
     bordercolor="#000000"
     borderopacity="0.25"
     inkscape:showpageshadow="2"
     inkscape:pageopacity="0.0"
     inkscape:pagecheckerboard="0"
     inkscape:deskcolor="#d1d1d1"
     inkscape:zoom="1.2205136"
     inkscape:cx="95.041956"
     inkscape:cy="45.47266"
     inkscape:window-width="1496"
     inkscape:window-height="702"
     inkscape:window-x="0"
     inkscape:window-y="33"
     inkscape:window-maximized="0"
     inkscape:current-layer="b" />
  <defs
     id="defs1">
    <style
       id="style1">.d{fill:red;fill-rule:evenodd;}.e{fill:#fff;}</style>
  </defs>
  <g
     id="c">
    <path
       class="d"
       d="M18.35,70.95c-2.89-5.63-5.22-7.07-10.05-10.28-5.13-3.42-9.29-8.99-7.41-15,2.55-8.1,12.83-9.7,17.46-2.8,4.63-6.9,14.92-5.32,17.46,2.8,1.88,6.01-2.28,11.58-7.41,15-4.82,3.21-7.16,4.65-10.05,10.28Z"
       id="path1" />
    <path
       d="M37.77,39.99c3.14-1.12,5.29-2.75,6.23-5.59.52-1.5,1.25-4.34,1.68-6.49l2.75-14.32c.17-.86.3-1.63.3-2.06,0-.52-.39-.82-.99-.95-.47-.09-1.38-.17-2.62-.21l.69-3.44c1.12.04,4.82.13,7.18.13,2.49,0,5.03-.09,6.79-.13l-.69,3.44c-2.36.13-2.84.3-3.23.69-.26.3-.47.82-.82,2.58l-2.62,13.85c-.95,4.99-1.81,7.22-3.35,9.59-1.63,2.58-5.68,4.99-10.28,6.15l-1.03-3.22Z"
       id="path2" />
    <path
       d="M63.85,36.55c-4.69,0-6.84-2.79-6.84-7.01,0-3.35,1.59-7.44,4.17-10.15,2.19-2.24,5.12-3.48,9.12-3.48,1.25,0,3.18.3,4.21.86l.95-1.42h4.56l-2.79,11.48c-.43,1.76-.69,3.18-.69,3.96,0,.86.3,1.33,1.29,1.33.43,0,1.59-.09,2.45-.39l-.82,3.57c-2.19.86-4.39,1.12-5.42,1.12-1.98,0-2.88-.73-3.31-2.06-.13-.39-.13-.86-.13-1.25-1.76,2.24-4.13,3.44-6.75,3.44ZM71.2,26.4l1.38-5.2c-.82-.47-1.68-.69-2.67-.69-1.29,0-2.8.47-3.87,1.5-1.5,1.46-2.58,4.43-2.58,6.62,0,2.02.99,3.18,2.88,3.18,1.5,0,2.97-.82,4.13-2.02.13-.95.43-2.24.73-3.4Z"
       id="path3" />
    <path
       d="M85.98,28.55c0,1.72.52,2.49.99,2.97.69.64,2.06,1.03,3.35,1.03,2.24,0,2.97-.69,2.97-1.55,0-.69-.3-1.16-1.25-1.63l-3.44-1.59c-3.48-1.59-4.34-3.48-4.34-5.42,0-5.07,4.77-6.71,9.67-6.71,1.81,0,4.04.34,5.12.95.9.52,1.2,1.16,1.2,2.49,0,.77-.3,2.67-.56,3.91h-3.05c-.09-1.55-.47-2.28-.99-2.67-.56-.39-1.38-.52-2.62-.52-1.72,0-2.62.52-2.67,1.59,0,.65.3,1.12,1.29,1.55l3.44,1.5c3.35,1.5,4.39,3.22,4.39,5.16,0,5.46-4.86,7.01-9.89,7.01-1.98,0-3.96-.34-4.99-.77-1.85-.69-2.28-1.72-2.28-3.05,0-1.42.26-2.79.6-4.26h3.05Z"
       id="path4" />
    <path
       d="M105.86,28.55c0,1.72.52,2.49.99,2.97.69.64,2.06,1.03,3.35,1.03,2.24,0,2.97-.69,2.97-1.55,0-.69-.3-1.16-1.25-1.63l-3.44-1.59c-3.48-1.59-4.34-3.48-4.34-5.42,0-5.07,4.77-6.71,9.67-6.71,1.81,0,4.04.34,5.12.95.9.52,1.2,1.16,1.2,2.49,0,.77-.3,2.67-.56,3.91h-3.05c-.09-1.55-.47-2.28-.99-2.67-.56-.39-1.38-.52-2.62-.52-1.72,0-2.62.52-2.67,1.59,0,.65.3,1.12,1.29,1.55l3.44,1.5c3.35,1.5,4.39,3.22,4.39,5.16,0,5.46-4.86,7.01-9.89,7.01-1.98,0-3.96-.34-4.99-.77-1.85-.69-2.28-1.72-2.28-3.05,0-1.42.26-2.79.6-4.26h3.05Z"
       id="path5" />
    <path
       d="M128.44,36.55c-2.88,0-4.73-1.5-4.73-4.51,0-.95.21-2.19.43-3.22.56-2.84.95-4.9,1.68-8.17h-3.57l.6-3.27c.73-.13,1.68-.3,2.62-.69.6-.26,1.08-.69,1.38-1.25.65-1.08,1.03-1.81,1.68-3.1.6-1.2,1.5-1.98,2.97-1.98,1.25,0,1.94.43,1.94,1.63,0,.43-.17,1.38-.86,4.73,1.16,0,2.71,0,4.77.13l-.69,3.78c-1.72.09-3.35.13-4.86.13l-1.03,5.07c-.3,1.55-.56,2.84-.56,4.04s.69,1.93,1.94,1.93c.86,0,1.63-.13,2.67-.39l.6,3.7c-1.94.9-4.52,1.42-6.97,1.42Z"
       id="path6" />
    <path
       d="M138.75,36.03l1.98-9.2c.34-1.55.6-3.57.6-4.82,0-1.08-.56-1.46-1.55-1.46-.56,0-1.2.09-1.59.17l.69-3.22c1.72-.86,4.39-1.72,6.32-1.72,1.46,0,2.58.56,2.58,2.45,0,.52,0,.99-.09,1.42,1.03-1.59,3.4-3.91,6.23-3.91,1.59,0,2.62.69,2.62,2.15,0,1.16-.3,2.92-.95,4.77h-3.35c-.04-1.2-.34-1.85-1.42-1.85-1.29,0-2.67,1.33-3.35,2.62-.17.86-.52,2.67-.95,4.6l-1.85,8h-5.93Z"
       id="path7" />
    <path
       d="M163.48,36.55c-4.69,0-6.84-2.79-6.84-7.01,0-3.35,1.59-7.44,4.17-10.15,2.19-2.24,5.12-3.48,9.12-3.48,1.25,0,3.18.3,4.21.86l.95-1.42h4.56l-2.79,11.48c-.43,1.76-.69,3.18-.69,3.96,0,.86.3,1.33,1.29,1.33.43,0,1.59-.09,2.45-.39l-.82,3.57c-2.19.86-4.39,1.12-5.42,1.12-1.98,0-2.88-.73-3.31-2.06-.13-.39-.13-.86-.13-1.25-1.76,2.24-4.13,3.44-6.75,3.44ZM170.83,26.4l1.38-5.2c-.82-.47-1.68-.69-2.67-.69-1.29,0-2.79.47-3.87,1.5-1.5,1.46-2.58,4.43-2.58,6.62,0,2.02.99,3.18,2.88,3.18,1.5,0,2.97-.82,4.13-2.02.13-.95.43-2.24.73-3.4Z"
       id="path8" />
    <path
       d="M192.58,35.3c-1.98.86-4.56,1.12-5.76,1.12-2.54,0-3.78-.99-3.78-2.92,0-.86.21-2.11.6-3.7l1.12-4.86c.3-1.33.6-2.45.6-3.01,0-.99-.52-1.33-1.42-1.33-.52,0-1.29.04-1.81.13l.69-3.22c1.72-.86,3.87-1.68,5.81-1.68,2.45,0,3.44.99,3.44,3.27,0,.73-.52,3.18-.9,4.82l-.82,3.27c-.34,1.29-.69,2.92-.69,3.61,0,1.03.43,1.33,1.42,1.33.6,0,1.55-.17,2.32-.39l-.82,3.57ZM189.57,12.21c-2.02,0-3.27-1.5-3.27-3.27,0-2.11,1.55-3.87,3.78-3.87s3.27,1.42,3.27,3.18c0,2.19-1.46,3.96-3.78,3.96Z"
       id="path9" />
    <path
       d="M195.93,36.03l2.06-9.63c.34-1.5.82-3.57.82-4.43,0-1.08-.6-1.42-1.59-1.42-.6,0-1.16.09-1.59.17l.69-3.22c1.72-.86,4.39-1.72,6.28-1.72,1.46,0,2.67.56,2.67,2.45,0,.52,0,1.03-.13,1.42,1.98-2.24,5.07-3.91,7.78-3.91,3.05,0,4.3,1.46,4.3,4.17,0,.6-.21,2.28-.6,3.83l-.86,3.4c-.34,1.33-.65,2.97-.65,3.65,0,1.03.43,1.33,1.38,1.33.69,0,1.59-.17,2.37-.39l-.82,3.57c-1.98.86-4.56,1.12-5.8,1.12-2.54,0-3.74-.99-3.74-2.88,0-.86.21-2.11.6-3.74l1.12-4.73c.26-1.08.39-2.11.39-2.58,0-1.08-.6-1.46-1.55-1.46-1.42,0-2.97.77-4.21,1.94-.13.9-.43,2.11-.73,3.48l-2.24,9.59h-5.93Z"
       id="path10" />
    <path
       d="M229.16,36.64c-4.9,0-8.3-2.79-8.3-8.08,0-7.31,4.51-12.9,12-12.9,5.03,0,7.05,2.32,7.05,5.33,0,3.48-2.32,6.75-12.73,6.84-.09.26-.09.47-.09.69,0,1.76,1.03,3.35,4.04,3.35,1.89,0,3.78-.52,6.67-1.93l1.68,3.44c-2.75,1.89-6.19,3.27-10.32,3.27ZM234.62,21.33c0-1.03-.69-1.5-2.06-1.5-2.45,0-4.26,1.72-4.94,4.26,5.46-.04,7.01-1.29,7.01-2.75Z"
       id="path11" />
    <path
       d="M242.41,36.03l1.98-9.2c.34-1.55.6-3.57.6-4.82,0-1.08-.56-1.46-1.55-1.46-.56,0-1.2.09-1.59.17l.69-3.22c1.72-.86,4.39-1.72,6.32-1.72,1.46,0,2.58.56,2.58,2.45,0,.52,0,.99-.09,1.42,1.03-1.59,3.4-3.91,6.23-3.91,1.59,0,2.62.69,2.62,2.15,0,1.16-.3,2.92-.95,4.77h-3.35c-.04-1.2-.34-1.85-1.42-1.85-1.29,0-2.67,1.33-3.35,2.62-.17.86-.52,2.67-.95,4.6l-1.85,8h-5.93Z"
       id="path12" />
    <path
       d="M69.07,61.05c-.22.26-.3.99-.3,1.59v5.2c0,1.38-.47,1.94-1.59,2.41-2.28.99-5.89,1.68-9.46,1.68-8.69,0-14.79-5.16-14.79-14.66s6.11-15.74,15.74-15.74c4.13,0,6.88.47,8.56,1.33,1.07.56,1.81,1.38,1.81,2.79,0,1.29-.26,3.83-.56,5.5h-3.7c-.26-1.98-.6-3.01-.99-3.57-.73-.99-2.28-1.25-4.82-1.25-4.17,0-9.16,2.02-9.16,10.49s5.2,10.15,8.73,10.15c.77,0,2.11-.09,2.54-.21.43-.09.82-.34.99-.52.3-.3.34-.77.34-1.5v-2.15c0-.99-.17-1.42-.52-1.63-.6-.26-1.89-.43-3.27-.52v-3.53c1.25.04,6.02.09,6.92.09,1.29,0,4.3-.04,5.85-.09v3.53c-1.29.09-1.98.21-2.32.6Z"
       id="path13" />
    <path
       d="M84.61,71.89c-7.27,0-10.75-4.34-10.75-10.49,0-6.62,4.56-10.71,11.09-10.71,7.14,0,10.49,4.08,10.49,10.28,0,7.22-4.77,10.92-10.84,10.92ZM78.37,44.75c0-1.46,1.03-2.71,2.71-2.71,1.59,0,2.62,1.25,2.62,2.71s-1.03,2.79-2.71,2.79c-1.51,0-2.62-1.16-2.62-2.79ZM84.65,55.33c-2.92,0-4.52,1.98-4.52,5.63,0,4.64,1.72,6.28,4.52,6.28,2.97,0,4.56-1.81,4.56-5.89,0-4.3-1.5-6.02-4.56-6.02ZM85.81,44.75c0-1.46,1.07-2.71,2.71-2.71s2.67,1.25,2.67,2.71-1.07,2.79-2.75,2.79c-1.46,0-2.62-1.16-2.62-2.79Z"
       id="path14" />
    <path
       d="M103.84,82.46c-.95,0-4.6.04-6.62.09v-3.4c1.89-.17,2.49-.39,2.79-.77.3-.34.3-1.59.3-2.45v-17.11c0-1.76-.26-2.45-.6-2.71-.34-.21-.95-.3-1.42-.3-.34,0-.69,0-1.07.04v-3.35c2.15-1.07,4.39-1.59,6.28-1.59,1.38,0,2.62.39,2.79,2.75,1.55-1.5,4-2.97,6.88-2.97,5.63,0,7.78,4.3,7.78,9.98,0,6.36-3.83,11.01-11.48,11.01-.95,0-2.11-.17-3.1-.3v4c0,1.93.13,2.58.52,3.05.3.34.82.56,3.61.73v3.4c-1.98-.04-5.59-.09-6.67-.09ZM109.73,66.81c3.27,0,4.73-2.28,4.73-5.55,0-3.61-1.29-5.63-4.21-5.63-1.29,0-2.79.47-3.91,1.2v9.55c.95.3,2.15.43,3.4.43Z"
       id="path15" />
    <path
       d="M129.86,71.24c-.95,0-4.6.04-6.62.09v-3.44c1.94-.17,2.49-.34,2.84-.73.26-.34.3-1.33.3-2.19v-8.99h-3.44v-3.31c.65-.13,1.5-.3,2.19-.82.73-.52,1.08-1.16,1.16-2.67.26-3.78,1.29-5.98,3.18-7.44,1.55-1.2,3.78-1.89,5.93-1.89,1.51,0,2.75.09,4.04.56,1.2.43,1.76,1.2,1.76,2.67,0,1.08-.17,3.23-.3,4.3h-3.53c0-1.59-.26-2.24-.73-2.58-.34-.26-.86-.34-1.42-.34-.77,0-1.72.34-2.19,1.12-.47.77-.65,1.76-.65,3.87v2.49c1.33,0,2.88,0,4.99.09v3.78c-1.89.13-3.44.17-4.99.17v8.21c0,1.93.13,2.54.47,3.01.3.34.86.56,3.61.69v3.44c-1.89-.04-5.55-.09-6.62-.09Z"
       id="path16" />
    <path
       class="d"
       d="M24.6,18.24c-1.61,0-2.91,1.62-2.91,3.62,0,2,1.3,3.62,2.91,3.62,1.61,0,2.91-1.62,2.91-3.62,0-2-1.3-3.62-2.91-3.62ZM11.05,18.24c-1.61,0-2.91,1.62-2.91,3.62,0,2,1.3,3.62,2.91,3.62,1.61,0,2.91-1.62,2.91-3.62,0-2-1.3-3.62-2.91-3.62ZM14.63,27.25c-.42,0-.68.45-.47.81.77,1.3,2.21,2.18,3.85,2.18,1.64,0,3.07-.88,3.84-2.18.21-.36-.05-.81-.47-.81h-6.75ZM24.19,4.1c.61-.66,1.64-.71,2.31-.11.67.6.72,1.63.12,2.29-.49.54-1.27.67-1.9.38l-4.7,5.14h10.37c1.55,0,2.81,1.24,2.81,2.78v2.36h1c.8,0,1.44.64,1.44,1.43v6.12c0,.79-.65,1.43-1.44,1.43h-1.42c-1.4,5.1-6.1,8.84-11.7,8.84h-6.21c-5.59,0-10.3-3.75-11.7-8.84h-1.72C.65,25.9,0,25.26,0,24.47v-6.12c0-.79.65-1.43,1.44-1.43h1.3v-2.36c0-1.53,1.26-2.78,2.81-2.78h10.22l-4.7-5.14c-.63.29-1.41.15-1.9-.38-.61-.66-.55-1.69.12-2.29.67-.6,1.71-.55,2.31.11.49.54.55,1.32.2,1.91l5.29,5.79h1.61l5.29-5.79c-.35-.59-.3-1.37.2-1.91Z"
       id="path17" />
    <polygon
       class="e"
       points="25.58 47.96 22.16 47.96 22.16 50.9 25.58 50.9 25.58 54.32 28.5 54.32 28.5 50.9 31.94 50.9 31.94 47.96 28.5 47.96 28.5 44.54 25.58 44.54 25.58 47.96"
       id="polygon17" />
  </g>
</svg>
