<?xml version="1.0" encoding="UTF-8"?>
<svg xmlns="http://www.w3.org/2000/svg" width="200" height="115" viewBox="0 0 200 115" fill="none">
  <g clip-path="url(#clip0_1060_20)">
    <path d="M17.5762 73.3092C17.5762 69.3241 14.5518 68.4044 9.07298 66.8717C3.85711 65.4703 0.350647 63.7186 0.350647 57.6314C0.350647 52.9456 3.63796 48.3911 10.1249 48.3911C13.8067 48.3911 15.9982 49.7487 17.357 49.7487C18.0145 49.7487 18.1898 49.4421 18.4528 48.8728H19.1979L19.5047 57.719H18.5404C16.7872 52.9894 14.5518 49.7487 9.73044 49.7487C6.13631 49.7487 3.94477 51.7632 3.94477 54.4783C3.94477 57.8504 7.10059 58.9452 11.2645 60.0838C16.0421 61.3538 21.1703 62.8427 21.1703 69.8496C21.1703 75.8054 17.2255 79.9658 10.7824 79.9658C6.61845 79.9658 3.68179 78.652 2.41069 78.652C1.84089 78.652 1.62174 79.1337 1.27109 79.9658H0.438308L0 69.762H0.964278C2.67368 74.7106 5.78567 78.6082 10.9577 78.6082C14.5957 78.6082 17.5762 76.6375 17.5762 73.3092Z" fill="black" style="fill:black;fill-opacity:1;"></path>
    <path d="M39.8423 67.5287C37.9576 67.5287 36.5988 66.4338 36.5988 64.3318C36.5988 63.9376 36.5988 63.3683 36.818 62.7552H38.1767C38.3082 62.3173 38.3959 61.8794 38.3959 61.4852C38.3959 60.259 37.5193 59.3394 35.6345 59.3394C32.2596 59.3394 30.7693 61.8794 30.7693 69.149C30.7693 75.7179 32.2157 78.3455 35.9852 78.3455C40.0176 78.3455 41.4202 75.1924 41.9023 72.6962L43.1296 72.8714C42.6036 75.5865 41.201 80.0096 34.2758 80.0096C27.8327 80.0096 24.2385 76.2434 24.2385 69.4993C24.2385 62.0545 28.6216 58.2884 35.3277 58.2884C36.9495 58.2884 38.4835 58.6825 39.7546 59.3832C38.9218 57.4563 37.6946 55.2229 36.9056 53.6901C35.4592 54.0405 34.1005 54.2156 33.0923 54.2156C30.5502 54.2156 28.3148 53.077 28.3148 50.3619C28.3148 48.1284 29.9365 46.8584 32.0404 46.8584C34.7579 46.8584 36.3358 49.267 37.7384 52.245C42.6036 51.0188 48.9153 48.4788 50.7123 46.7271H53.5613V62.6239C54.4818 60.478 56.3665 58.2884 60.6619 58.2884C64.9573 58.2884 67.3242 60.3028 67.3242 65.6018V78.4331H70.217V79.5717H58.6019V78.4331H61.1441V64.9449C61.1441 61.2663 60.4428 60.2152 58.6895 60.2152C55.9282 60.2152 53.5613 63.1056 53.5613 66.8718V78.4331H56.1474V79.5717H44.5322V78.4331H47.3812V50.0991C44.7952 51.3253 41.5079 52.5077 38.3082 53.3398C39.2287 55.1791 40.8066 58.0694 41.8147 60.0839C42.4283 61.3539 42.9981 62.5363 42.9981 63.8501C42.9981 66.3025 41.727 67.5287 39.8423 67.5287ZM31.9527 48.1284C30.7255 48.1284 29.805 48.9167 29.805 50.1867C29.805 52.0698 31.2953 52.9456 33.2677 52.9456C34.0566 52.9456 35.1086 52.8143 36.292 52.5515C35.503 50.8436 34.2758 48.1284 31.9527 48.1284Z" fill="black" style="fill:black;fill-opacity:1;"></path>
    <path d="M82.621 58.7263H92.9213V59.8649H90.6859L95.5073 74.0976L99.7151 59.8649H96.5592V58.7263H103.178V59.8649H101.118L95.069 79.7031H91.6064L86.6097 65.6894L81.3938 79.7031H78.0626L70.8306 59.8649H68.7705V58.7263H79.9035V59.8649H77.4052L82.0512 74.2728L85.8645 63.7625L84.5934 59.8649H82.621V58.7263Z" fill="black" style="fill:black;fill-opacity:1;"></path>
    <path d="M114.004 58.2883C120.053 58.2883 122.945 61.7042 122.682 68.2731H109.709V69.4555C109.709 75.1486 110.892 78.433 115.363 78.433C118.694 78.433 120.666 76.4624 121.543 73.1779L122.726 73.3531C121.85 77.0317 119.614 80.0096 113.697 80.0096C106.465 80.0096 103.178 75.6303 103.178 69.2803C103.178 61.6604 107.911 58.2883 114.004 58.2883ZM116.634 67.0907C116.721 61.529 116.152 59.3394 113.522 59.3394C111.067 59.3394 109.84 61.3538 109.709 67.0907H116.634Z" fill="black" style="fill:black;fill-opacity:1;"></path>
    <path d="M133.816 58.7263V78.433H136.708V79.5716H124.786V78.433H127.635V59.8649H124.699V58.7263H133.816ZM130.441 48.2598C132.544 48.2598 133.903 49.3108 133.903 51.588C133.903 53.5149 132.807 54.9601 130.397 54.9601C127.592 54.9601 126.846 53.1646 126.846 51.588C126.846 49.8363 127.942 48.2598 130.441 48.2598Z" fill="black" style="fill:black;fill-opacity:1;"></path>
    <path d="M156.739 59.8211L145.343 78.4331H148.718C153.145 78.4331 154.679 76.4186 156.082 71.47H156.958L156.388 79.5717H138.418V78.6083L150.033 59.8649H146.965C142.319 59.8649 141.179 60.6094 139.513 66.2149H138.637L139.119 58.7263H156.739V59.8211Z" fill="black" style="fill:black;fill-opacity:1;"></path>
    <path d="M170.151 58.2883C176.2 58.2883 179.093 61.7042 178.83 68.2731H165.856V69.4555C165.856 75.1486 167.039 78.433 171.51 78.433C174.841 78.433 176.813 76.4624 177.69 73.1779L178.874 73.3531C177.997 77.0317 175.762 80.0096 169.844 80.0096C162.612 80.0096 159.325 75.6303 159.325 69.2803C159.325 61.6604 164.059 58.2883 170.151 58.2883ZM172.781 67.0907C172.869 61.529 172.299 59.3394 169.669 59.3394C167.215 59.3394 165.987 61.3538 165.856 67.0907H172.781Z" fill="black" style="fill:black;fill-opacity:1;"></path>
    <path d="M189.875 67.6162V78.433H193.776V79.5717H180.846V78.433H183.695V59.8649H180.846V58.7263H189.875V62.799C190.796 59.6897 192.943 58.2883 195.485 58.2883C198.159 58.2883 200 59.9963 200 62.8428C200 65.339 198.729 66.5652 196.844 66.5652C195.091 66.5652 193.776 65.6017 193.776 63.3245C193.776 62.9304 193.82 62.4924 193.908 62.0545H195.266C195.442 61.6604 195.485 61.3538 195.485 61.0911C195.485 60.259 194.872 60.0838 194.302 60.0838C191.935 60.0838 189.875 63.6748 189.875 67.6162Z" fill="black" style="fill:black;fill-opacity:1;"></path>
    <path d="M78.3694 83.9509V85.2209H75.5204V104.315C75.5204 111.321 72.3646 115 66.0968 115C61.7575 115 59.303 113.117 59.303 109.964C59.303 107.555 60.7056 106.241 62.7218 106.241C64.5627 106.241 65.6584 107.38 65.6584 109.132C65.6584 109.657 65.5708 110.446 65.3078 111.278H63.949C63.8176 111.584 63.7299 111.847 63.7299 112.11C63.7299 113.029 64.6065 113.686 66.0091 113.686C68.3321 113.686 68.9019 112.416 68.9019 108.037V85.2209H65.1763V83.9509H78.3694Z" fill="black" style="fill:black;fill-opacity:1;"></path>
    <path d="M91.2119 104.139V100.942C91.2119 96.169 90.4667 94.3735 87.7931 94.3735C86.259 94.3735 85.0317 94.8991 85.0317 96.0815C85.0317 96.3442 85.0756 96.6508 85.1632 96.9573H86.3466C86.5658 97.5266 86.6973 98.0959 86.6973 98.7966C86.6973 100.636 85.3385 101.731 83.5415 101.731C81.4376 101.731 80.4733 100.461 80.4733 98.5339C80.4733 95.118 83.8483 93.3225 88.845 93.3225C94.9375 93.3225 97.3482 95.2494 97.3482 101.599V110.227C97.3482 112.066 97.8741 112.679 98.7069 112.679C99.5836 112.679 100.153 111.978 100.46 108.475L101.468 108.562C101.249 113.38 99.8027 115.044 96.3839 115.044C93.4472 115.044 91.8255 113.993 91.3872 111.934C90.4229 113.993 88.582 115.044 85.7768 115.044C82.5772 115.044 79.509 113.949 79.509 109.832C79.509 105.322 83.3223 104.139 89.2395 104.139H91.2119ZM91.2119 108.825V105.19H90.2038C87.0479 105.19 85.9083 106.723 85.9083 109.657C85.9083 112.241 86.5658 113.117 88.0122 113.117C89.5901 113.117 91.2119 111.54 91.2119 108.825Z" fill="black" style="fill:black;fill-opacity:1;"></path>
    <path d="M103.353 107.468H104.361C105.325 112.022 108.131 113.642 111.681 113.642C115.231 113.642 116.415 112.329 116.415 110.445C116.415 108.037 114.092 107.599 110.936 106.854C107.429 106.066 103.528 105.059 103.528 100.329C103.528 96.2566 106.509 93.3224 111.023 93.3224C112.908 93.3224 114.135 93.7604 115.407 94.3297C115.801 94.5049 116.195 94.68 116.634 94.68C117.16 94.68 117.335 94.2421 117.51 93.2349H118.387V99.8476H117.423C116.239 96.2128 114.179 94.5486 111.111 94.5486C108.394 94.5486 106.816 95.5997 106.816 97.3514C106.816 99.6724 109.358 100.154 112.295 100.811C115.757 101.643 119.614 102.738 119.614 107.905C119.614 112.372 116.634 115.044 111.681 115.044C109.402 115.044 107.736 114.518 106.158 113.686C105.895 113.511 105.588 113.336 105.413 113.336C104.931 113.336 104.668 113.686 104.273 115.044H103.353V107.468Z" fill="black" style="fill:black;fill-opacity:1;"></path>
    <path d="M122.463 107.468H123.471C124.436 112.022 127.241 113.642 130.791 113.642C134.342 113.642 135.525 112.329 135.525 110.445C135.525 108.037 133.202 107.599 130.046 106.854C126.54 106.066 122.639 105.059 122.639 100.329C122.639 96.2566 125.619 93.3224 130.134 93.3224C132.018 93.3224 133.246 93.7604 134.517 94.3297C134.911 94.5049 135.306 94.68 135.744 94.68C136.27 94.68 136.445 94.2421 136.621 93.2349H137.497V99.8476H136.533C135.35 96.2128 133.29 94.5486 130.221 94.5486C127.504 94.5486 125.926 95.5997 125.926 97.3514C125.926 99.6724 128.468 100.154 131.405 100.811C134.867 101.643 138.725 102.738 138.725 107.905C138.725 112.372 135.744 115.044 130.791 115.044C128.512 115.044 126.846 114.518 125.269 113.686C125.006 113.511 124.699 113.336 124.523 113.336C124.041 113.336 123.778 113.686 123.384 115.044H122.463V107.468Z" fill="black" style="fill:black;fill-opacity:1;"></path>
    <path d="M105.931 2.36481C110.533 0.0875859 115.223 2.80274 115.574 7.9265C115.705 10.2475 118.51 12.2182 120.789 12.262C119.65 14.2765 119.957 17.6923 121.929 18.9623C126.224 21.8088 126.224 27.2391 121.929 30.0857C119.957 31.3557 119.65 34.7715 120.789 36.786C118.51 36.786 115.705 38.8005 115.574 41.1215C115.267 46.2452 110.577 48.9604 105.931 46.6832C103.827 45.6321 100.715 47.0773 99.5753 49.048C98.3918 47.0773 95.2799 45.6321 93.2198 46.6832C88.6176 48.9604 83.9277 46.2452 83.577 41.1215C83.4455 38.8005 80.6404 36.8298 78.3612 36.786C79.5008 34.7715 79.194 31.3557 77.2216 30.0857C72.9261 27.2391 72.9261 21.8088 77.2216 18.9623C79.194 17.6923 79.5008 14.2765 78.3612 12.262C80.6404 12.262 83.4894 10.2475 83.577 7.9265C83.8838 2.80274 88.5737 0.0875859 93.2198 2.36481C95.3237 3.41584 98.4357 1.97068 99.5753 0C100.759 1.97068 103.871 3.41584 105.931 2.36481Z" fill="#E7000E" style="fill:#E7000E;fill:color(display-p3 0.9059 0.0000 0.0549);fill-opacity:1;"></path>
    <path d="M95.4675 20.4512H86V28.5529H95.4675V38.0121H103.532V28.5529H113.044V20.4512H103.532V10.9919H95.4675V20.4512Z" fill="white" style="fill:white;fill-opacity:1;"></path>
  </g>
  <defs>
    <clipPath id="clip0_1060_20">
      <rect width="200" height="115" fill="white" style="fill:white;fill-opacity:1;"></rect>
    </clipPath>
  </defs>
</svg>
