<?xml version="1.0" encoding="UTF-8" standalone="no"?>
<!-- Created with Inkscape (http://www.inkscape.org/) -->

<svg
   width="78mm"
   height="80mm"
   viewBox="0 0 78 80"
   version="1.1"
   id="svg1"
   inkscape:version="1.4 (e7c3feb1, 2024-10-09)"
   sodipodi:docname="Logo JassMeisterschaft.svg"
   xmlns:inkscape="http://www.inkscape.org/namespaces/inkscape"
   xmlns:sodipodi="http://sodipodi.sourceforge.net/DTD/sodipodi-0.dtd"
   xmlns="http://www.w3.org/2000/svg"
   xmlns:svg="http://www.w3.org/2000/svg">
  <sodipodi:namedview
     id="namedview1"
     pagecolor="#ffffff"
     bordercolor="#000000"
     borderopacity="0.25"
     inkscape:showpageshadow="2"
     inkscape:pageopacity="0.0"
     inkscape:pagecheckerboard="0"
     inkscape:deskcolor="#d1d1d1"
     inkscape:document-units="mm"
     inkscape:zoom="0.94025913"
     inkscape:cx="151.55397"
     inkscape:cy="136.13268"
     inkscape:window-width="1512"
     inkscape:window-height="673"
     inkscape:window-x="0"
     inkscape:window-y="33"
     inkscape:window-maximized="0"
     inkscape:current-layer="layer1" />
  <defs
     id="defs1" />
  <g
     inkscape:label="Ebene 1"
     inkscape:groupmode="layer"
     id="layer1">
    <path
       d="m 39.118337,60.011538 c 13.150852,0 23.811807,-10.671035 23.811807,-23.834406 0,-13.163284 -10.660955,-23.834448 -23.811807,-23.834448 -13.150983,0 -23.811811,10.671164 -23.811811,23.834448 0,13.163371 10.660828,23.834406 23.811811,23.834406 z"
       fill="#ff0000"
       style="fill-opacity:1;stroke-width:1.13013"
       id="path12" />
    <path
       d="M 34.564007,31.622718 H 23.94081 v 9.097511 h 10.623197 v 10.623242 h 9.052318 V 40.720229 H 54.284754 V 31.622718 H 43.616325 V 21.010796 h -9.052318 z"
       fill="white"
       style="fill:#ffffff;fill-opacity:1;stroke-width:1.13013"
       id="path13" />
    <path
       d="m 43.209608,69.233519 c 0.519864,1.367431 1.559598,2.395843 3.107836,3.107837 1.638704,0.734587 3.311282,0.825011 4.983899,0.282334 -1.943848,-2.610609 -4.644839,-3.740722 -8.091735,-3.390386 z m -7.944801,0 c -4.045869,-0.327615 -6.758178,0.881351 -8.136929,3.638894 1.898619,0.327612 3.582513,0.124301 5.051688,-0.576249 1.401347,-0.678077 2.429759,-1.706491 3.085241,-3.062645 z m 14.104005,-1.265774 c 0.553781,1.141434 1.796915,1.943851 3.740724,2.373291 1.989039,0.429443 3.605107,0.203308 4.836965,-0.700671 -0.892798,-0.971946 -2.147252,-1.661301 -3.729447,-2.034233 -1.75168,-0.406632 -3.356471,-0.29387 -4.848242,0.361784 z m -20.297125,0 c -1.559556,-0.655483 -3.243451,-0.768459 -5.017772,-0.361784 -1.695172,0.395527 -2.938307,1.164031 -3.729404,2.282824 1.469174,0.711993 3.141752,0.836332 5.006454,0.406634 1.808233,-0.440718 3.051368,-1.220539 3.740722,-2.339336 z M 55.155086,65.40237 c 0.768459,1.084923 2.226359,1.661301 4.407482,1.717812 2.248953,0.02132 3.695531,-0.542462 4.351013,-1.717812 -1.152753,-0.768501 -2.599288,-1.141433 -4.351013,-1.141433 -1.751683,0 -3.232177,0.384422 -4.407482,1.141433 z m -40.842889,0.440763 c 1.084924,0.813692 2.554098,1.220538 4.362333,1.186624 1.808192,0 3.266047,-0.39553 4.384886,-1.186624 -0.768502,-1.141434 -2.215039,-1.683898 -4.351014,-1.627387 -2.090742,0.02132 -3.548598,0.576333 -4.407481,1.627387 z m 23.099862,2.124612 c -0.632886,-3.458172 -2.780137,-5.447213 -6.40784,-5.96708 0.870202,3.514727 3.006134,5.515043 6.40784,5.96708 z m 9.617376,-6.170481 c -3.503405,1.084922 -5.571507,3.14175 -6.204393,6.170481 1.842104,-0.237496 3.322554,-0.904074 4.475307,-2.000316 1.209221,-1.141434 1.785596,-2.542781 1.729086,-4.170165 z m -0.214837,5.322918 c 3.073965,-0.938033 4.848245,-3.277411 5.345515,-7.02941 -3.19826,0.757185 -4.983856,3.096562 -5.345515,7.02941 z M 31.614394,66.905345 c -0.700716,-3.86502 -2.486312,-6.136567 -5.322917,-6.814644 0.04527,1.853382 0.598972,3.412981 1.638661,4.701307 1.005818,1.220538 2.248953,1.921254 3.695534,2.113337 z m 28.88609,-4.701306 c 1.525641,0.632843 3.198261,0.768458 4.972538,0.406632 1.808236,-0.350251 3.006134,-1.130158 3.571235,-2.339377 -1.503088,-0.621568 -3.141792,-0.734587 -4.916069,-0.361783 -1.751725,0.372887 -2.960946,1.141433 -3.627704,2.282866 z M 17.928495,62.00071 c -0.847606,-1.005821 -2.158527,-1.71777 -3.944124,-2.124616 -2.034232,-0.463357 -3.559959,-0.180677 -4.610968,0.870203 0.825012,0.971904 2.135975,1.627387 3.910253,1.955083 1.864744,0.339145 3.401705,0.101667 4.644839,-0.70067 z m 34.694962,2.972262 c 1.175347,-0.339145 2.181165,-1.288368 3.028728,-2.859244 0.94931,-1.751683 1.062329,-3.4243 0.384423,-5.029049 -2.938349,2.282825 -4.068463,4.916031 -3.41298,7.876974 z m -26.761435,0.214849 c 0.339145,-3.763318 -0.960628,-6.464351 -3.865063,-8.091738 -0.304975,1.853426 -0.06791,3.526002 0.700673,5.029093 0.723312,1.367431 1.774321,2.384568 3.16439,3.062645 z M 64.97578,57.751566 c 3.978039,0.384423 6.690349,-0.757181 8.136927,-3.390386 -1.853424,-0.418166 -3.526002,-0.282337 -5.051684,0.395526 -1.423984,0.666802 -2.452399,1.650026 -3.085243,2.98354 z M 13.453185,57.536717 c -2.113337,-2.915753 -4.8256456,-3.978039 -8.1482457,-3.175666 0.3617837,1.141433 1.3335591,2.056827 2.9157538,2.734906 1.7064911,0.768501 3.4468959,0.904116 5.2324919,0.44076 z m 44.707909,4.463993 c 0.949308,-0.983183 1.638662,-2.169849 2.045508,-3.548599 0.508589,-1.672575 0.463356,-3.243452 -0.112774,-4.735221 -1.231858,0.395527 -2.102061,1.593471 -2.599333,3.559874 -0.519822,1.977764 -0.293867,3.559915 0.666802,4.735262 z M 18.380533,53.490848 c -0.689354,1.570876 -0.768459,3.232177 -0.259699,4.983859 0.485953,1.740406 1.33356,2.904433 2.599289,3.526003 0.519867,-1.695173 0.531186,-3.356473 0.03417,-4.98386 -0.463356,-1.54828 -1.26573,-2.723627 -2.384567,-3.514683 z m 44.25587,-4.045867 c -0.870202,0.881523 -1.344879,2.248954 -1.43526,4.136291 -0.113195,1.853385 0.225942,3.299963 1.028415,4.362291 1.084922,-0.666799 1.706491,-2.056827 1.853381,-4.136293 0.135829,-2.056828 -0.350249,-3.514682 -1.446536,-4.362289 z m -46.380484,8.498582 c 0.711992,-1.33356 1.028414,-2.870519 0.937989,-4.622244 -0.113192,-1.853382 -0.711991,-3.14175 -1.808192,-3.876338 -0.813692,1.084924 -1.186624,2.633203 -1.062327,4.622244 0.135402,2.079422 0.791097,3.36779 1.93253,3.876338 z m 52.381479,-5.515041 c 3.887614,-0.225942 6.317416,-1.853385 7.278,-4.916071 -3.921527,0.169568 -6.34001,1.796915 -7.278,4.916071 z M 2.3213992,47.512451 c 1.1527527,3.141792 3.6502983,4.769178 7.5153605,4.916071 C 8.6614112,49.196345 6.1412275,47.568961 2.3213992,47.512451 Z m 63.9766218,5.774997 c 0.598972,-1.435304 0.791097,-3.040052 0.531141,-4.814371 -0.293866,-1.887298 -0.983221,-3.107836 -2.045507,-3.684214 -0.802415,1.288326 -1.039732,2.859203 -0.700716,4.746543 0.327615,1.909893 1.062329,3.153069 2.215082,3.752042 z M 13.249784,44.777546 c -0.938032,0.892798 -1.525684,2.192443 -1.77432,3.876338 -0.282337,1.796916 -0.03417,3.345195 0.700673,4.622243 1.118837,-0.757181 1.83083,-2.09074 2.135932,-4.011952 0.304975,-1.955128 -0.05639,-3.458216 -1.062285,-4.497906 z m 57.726949,1.672618 c 3.503407,-0.50859 5.639339,-2.508906 6.40784,-5.967081 -3.333876,0.384423 -5.481127,2.37325 -6.40784,5.967081 z M 7.4521912,46.246848 C 6.389863,43.003396 4.2426111,41.003035 1.0443501,40.279767 c 0.021357,1.570876 0.6893963,3.006137 1.9551263,4.249272 1.3222402,1.277049 2.8027338,1.853424 4.4413956,1.717809 z m 61.3999268,1.740405 c 0.429442,-1.853424 0.339148,-3.559916 -0.293867,-5.130792 -0.542462,-1.457855 -1.446538,-2.520184 -2.71231,-3.175666 -0.745865,3.571237 0.248603,6.340013 3.006177,8.306458 z M 12.187455,39.680795 c -2.6106072,2.147251 -3.53732,4.904752 -2.802733,8.306458 1.288326,-0.632885 2.271548,-1.774319 2.92703,-3.446897 0.678077,-1.774319 0.632886,-3.401706 -0.124297,-4.859561 z m 53.873249,-5.119473 c -0.203309,1.955126 0.192201,3.627704 1.175307,5.029091 0.858925,1.197902 1.966445,2.000319 3.333875,2.407165 -0.02132,-3.627704 -1.536962,-6.114015 -4.509182,-7.436256 z m -54.087969,0 c -3.2322185,2.034234 -4.5205438,4.588331 -3.8537856,7.639657 1.4126645,-0.870203 2.4975876,-1.887298 3.2434946,-3.062645 0.983222,-1.53696 1.197943,-3.051326 0.610291,-4.577012 z m 60.281047,5.729765 c 1.638703,-0.565059 2.904435,-1.435262 3.774637,-2.576694 1.084924,-1.33356 1.457856,-2.893159 1.164028,-4.667436 -3.164347,1.627387 -4.80305,4.045869 -4.938665,7.24413 z m -66.2820845,0 C 5.8589343,36.68598 4.1522294,34.278773 0.84094827,33.046957 1.010521,36.731171 2.7169264,39.138334 5.9716975,40.291087 Z M 65.235691,29.44185 c 0.248603,3.571193 2.15853,5.763636 5.752361,6.588647 -0.542461,-3.526001 -2.463673,-5.707169 -5.752361,-6.588647 z M 7.7008267,36.233898 c 3.3225573,-1.423938 5.1759823,-3.616384 5.5489573,-6.577327 -0.05638,-0.169568 -0.214849,-0.237496 -0.45208,-0.214863 -1.514365,0.474647 -2.8027341,1.333573 -3.8763384,2.621899 -1.1188381,1.401345 -1.5256844,2.802734 -1.2318581,4.170165 z M 72.253782,33.90584 c 1.401389,-0.565055 2.452398,-1.536959 3.164388,-2.8592 0.779779,-1.44658 1.028415,-3.04005 0.689354,-4.791775 -1.231815,0.293869 -2.215039,1.141434 -2.960943,2.531503 -0.734587,1.44658 -1.039692,3.15307 -0.892799,5.119472 z m -66.2820845,0 C 6.2766721,29.950399 4.9885176,27.328513 2.1179973,26.040145 1.8014901,29.893888 3.1011774,32.504496 5.9716975,33.90584 Z M 63.291886,24.751819 c 0.519822,1.604748 1.356153,2.870519 2.508864,3.842423 1.32224,1.062329 2.814009,1.480452 4.5205,1.265729 -1.616065,-3.35647 -3.955442,-5.062961 -7.029364,-5.108152 z m -48.313015,0 c -3.503407,0.15804 -5.7862744,1.921211 -6.8599216,5.300279 3.5599586,-0.180678 5.8427836,-1.955126 6.8599216,-5.300279 z m 45.73632,-4.464034 c 1.03969,2.802734 3.605107,4.226675 7.718764,4.249313 -1.220541,-3.028774 -3.797235,-4.452715 -7.718764,-4.249313 z m -50.67503,4.26059 c 1.729129,0.05638 3.300005,-0.293869 4.690074,-1.017095 1.480451,-0.791097 2.474992,-1.876021 3.006135,-3.232176 -2.022912,-0.169572 -3.763318,0.180678 -5.221173,1.017095 -1.344879,0.825012 -2.158571,1.898616 -2.475036,3.232176 z m 63.072546,-5.322919 c -0.983221,0.847608 -1.695214,2.079466 -2.135974,3.729447 -0.463357,1.842107 -0.304977,3.446897 0.452079,4.769137 1.062287,-0.734588 1.853385,-1.977721 2.339335,-3.752042 0.519867,-1.966403 0.304973,-3.548597 -0.65544,-4.746542 z M 7.0566213,27.735359 C 7.6669122,26.17576 7.768613,24.548375 7.3389575,22.830565 6.8981967,21.146711 6.095823,19.937448 4.9091986,19.225456 c -0.6893965,1.457899 -0.7685018,3.096561 -0.2823365,4.870881 0.4972709,1.6613 1.2883682,2.870521 2.4297592,3.627703 z m 5.7410827,-8.509903 c 1.876021,0.37289 3.605107,0.316508 5.175983,-0.169572 1.559599,-0.50859 2.610608,-1.378793 3.15307,-2.610608 -1.876022,-0.395528 -3.582513,-0.339146 -5.130793,0.15804 -1.54828,0.531143 -2.621884,1.390069 -3.19826,2.621884 z m 44.301061,-2.328057 c 2.04555,2.407163 4.893475,3.186984 8.532456,2.339377 -0.632844,-1.254454 -1.853384,-2.169847 -3.661617,-2.734905 -1.909895,-0.610291 -3.526004,-0.463356 -4.882158,0.395528 z m 12.160201,-3.831147 c -0.83633,0.971946 -1.322284,2.373291 -1.401389,4.192802 -0.101668,1.830787 0.225969,3.333876 0.994541,4.509225 1.118797,-0.734588 1.751683,-2.147253 1.875979,-4.215399 0.113192,-2.124656 -0.384421,-3.627702 -1.469131,-4.497905 z M 9.373403,21.768279 c 0.825012,-1.231859 1.197944,-2.768819 1.118838,-4.588331 -0.09055,-1.898616 -0.6554813,-3.277366 -1.71781,-4.113696 -0.8249689,1.084923 -1.175348,2.621926 -1.0736043,4.622244 0.1131909,2.000317 0.666758,3.379067 1.6838953,4.079783 z m 43.656899,-8.069141 c 0.768502,0.960627 2.181165,1.53696 4.271864,1.729086 2.158571,0.158467 3.650342,-0.282336 4.475312,-1.31092 -1.15271,-0.881523 -2.599291,-1.390069 -4.328377,-1.5596 -1.887295,-0.180678 -3.35647,0.192211 -4.430118,1.141434 z M 25.195221,13.461651 c -1.15271,-0.791097 -2.621885,-1.073648 -4.430077,-0.870203 -1.60479,0.192211 -2.983541,0.700672 -4.113698,1.514365 0.768503,1.062329 2.282867,1.50309 4.520544,1.310964 2.20372,-0.192211 3.537279,-0.847607 4.023231,-1.966446 z m 23.099859,-1.88734 c 1.265731,0.734587 2.859202,0.994542 4.814327,0.779821 1.932532,-0.21485 3.266091,-0.836288 3.989358,-1.84215 C 55.866908,9.6304609 54.284754,9.3253153 52.329629,9.5739508 50.408417,9.8114386 49.074858,10.478068 48.306357,11.574311 Z m -18.364594,0 C 29.252409,10.398962 27.873615,9.7208853 25.816788,9.5400364 23.793875,9.3478252 22.234276,9.7322468 21.126757,10.726704 c 0.994542,0.83633 2.361973,1.390069 4.113697,1.627428 1.921212,0.237487 3.480769,-0.01281 4.690032,-0.779821 z m 35.915455,4.882156 c 0.655482,-1.457856 0.825012,-3.085241 0.531184,-4.916028 -0.304973,-1.853468 -0.971901,-3.1079219 -2.022955,-3.7972755 -0.813692,1.3109208 -1.051009,2.9270295 -0.689352,4.8596035 0.327613,1.909893 1.051009,3.198261 2.169846,3.8537 z M 13.871351,7.7431635 c -1.039733,0.8136926 -1.695214,2.1698472 -1.977722,4.0459105 -0.327613,1.955084 -0.02136,3.514683 0.915394,4.667393 0.983222,-1.005776 1.627385,-2.373249 1.921212,-4.091059 0.304975,-1.853426 0.01281,-3.390429 -0.858884,-4.6222445 z M 35.072553,10.071222 C 32.925301,7.5284425 30.145206,6.6921115 26.720907,7.5284425 c 0.35025,1.1187955 1.435258,2.0115939 3.243451,2.6670745 1.921254,0.666802 3.616426,0.621568 5.108195,-0.124295 z m 8.329051,0.203316 c 1.729086,0.50859 3.390388,0.49727 4.983857,-0.06791 C 49.967657,9.6754414 51.097772,8.7939618 51.753254,7.5395083 49.967657,7.1100666 48.306357,7.1550865 46.7468,7.6638042 45.14201,8.1610325 44.034491,9.0312353 43.401604,10.27437 Z m -3.198259,59.173615 c 9.832097,-1.367474 17.460479,-4.91607 22.885096,-10.634514 6.67907,-7.063323 9.673888,-15.36978 8.95062,-24.896734 C 71.609618,27.780295 69.179859,22.039254 64.772335,16.693741 60.387451,11.325632 55.753929,7.9125651 50.883051,6.4773053 c 6.712985,3.7520417 11.685522,7.7301237 14.951613,11.8890117 4.3171,5.594149 6.249588,12.194073 5.786274,19.788537 -0.463357,7.481489 -3.186983,13.957117 -8.136927,19.472161 -4.71267,5.209854 -10.555411,8.656748 -17.539629,10.340646 -4.497903,1.084922 -8.769766,1.164028 -12.826955,0.214836 C 26.076742,66.555123 20.143533,63.20997 15.317887,58.203474 10.254925,52.880601 7.4182765,46.63097 6.8193048,39.432032 6.1638231,31.724588 7.9155476,24.943816 12.074436,19.112351 15.408312,14.422278 20.493913,10.15037 27.319878,6.2740315 13.012425,13.224377 5.9604211,23.508513 6.1525467,37.103974 c 0.1354022,8.509859 3.4243011,15.957434 9.8547373,22.365274 5.289002,5.266365 12.691342,8.656751 22.229616,10.171159 -4.40748,2.192442 -6.690349,5.458491 -6.859878,9.820824 0.576375,-0.463357 0.983224,-1.197944 1.231857,-2.203762 0.327613,-1.378751 0.565059,-2.215081 0.700674,-2.49759 1.118837,-2.147251 3.107836,-3.763318 5.989675,-4.85956 1.898617,0.598972 3.469491,1.864701 4.735263,3.797231 0.576333,0.90412 1.503046,2.825332 2.74618,5.763681 0.225943,-3.842468 -1.977722,-7.176344 -6.611241,-10.001672 z M 61.370632,11.788989 C 61.777691,9.9581164 61.698245,8.2855398 61.122038,6.7485363 60.545663,5.2341708 59.641543,4.205757 58.364495,3.6972096 57.94633,5.471487 58.059522,7.1101917 58.692107,8.6358762 c 0.576378,1.4013448 1.469175,2.4523968 2.678396,3.1531128 z M 19.657582,3.4824887 C 17.047016,5.742718 16.13158,8.5002608 16.866167,11.788989 18.143216,11.190017 19.12644,10.059817 19.781921,8.398517 20.516509,6.5677298 20.482593,4.9290254 19.657625,3.4824887 Z m 31.236786,2.1246139 c -0.88152,-1.197901 -2.011636,-2.0907421 -3.4243,-2.7009901 -1.695214,-0.7119919 -3.333876,-0.7345874 -4.916072,-0.07902 0.8928,1.1640292 2.034234,2.0568274 3.412983,2.6671183 1.695215,0.7006728 3.333876,0.7345444 4.927389,0.1127632 z M 35.671525,2.4201606 C 31.704764,2.0357389 29.01505,3.1773432 27.579789,5.810547 29.444533,6.1949688 31.139705,6.0591387 32.676668,5.4150199 34.145842,4.782176 35.15166,3.7989533 35.671525,2.4314796 Z M 56.228563,8.1499243 C 56.341752,4.4317972 54.849813,1.9002942 51.753254,0.49894872 51.527298,3.9345263 53.030302,6.4886243 56.228563,8.1499243 Z M 26.280144,0.49894872 c -2.723585,1.48045098 -4.13625,3.95544368 -4.283185,7.43625458 1.344879,-0.237487 2.531504,-1.118838 3.537322,-2.610608 1.084924,-1.6613002 1.344835,-3.2660902 0.745863,-4.82564658 z"
       fill="black"
       style="fill:#000000;fill-opacity:1;stroke-width:1.13013"
       id="path14" />
  </g>
</svg>
