<?xml version="1.0" encoding="UTF-8" standalone="no"?>
<svg
   width="236"
   height="281"
   viewBox="0 0 236 281"
   fill="none"
   version="1.1"
   id="svg1"
   sodipodi:docname="pfeil_unten_weiss.svg"
   inkscape:version="1.4 (e7c3feb1, 2024-10-09)"
   xmlns:inkscape="http://www.inkscape.org/namespaces/inkscape"
   xmlns:sodipodi="http://sodipodi.sourceforge.net/DTD/sodipodi-0.dtd"
   xmlns="http://www.w3.org/2000/svg"
   xmlns:svg="http://www.w3.org/2000/svg">
  <defs
     id="defs1" />
  <sodipodi:namedview
     id="namedview1"
     pagecolor="#ffffff"
     bordercolor="#000000"
     borderopacity="0.25"
     inkscape:showpageshadow="2"
     inkscape:pageopacity="0.0"
     inkscape:pagecheckerboard="0"
     inkscape:deskcolor="#d1d1d1"
     inkscape:zoom="0.09252669"
     inkscape:cx="-318.82692"
     inkscape:cy="378.26923"
     inkscape:window-width="1224"
     inkscape:window-height="407"
     inkscape:window-x="0"
     inkscape:window-y="33"
     inkscape:window-maximized="0"
     inkscape:current-layer="svg1" />
  <path
     d="M117.48 280.518C111.768 280.518 105.762 278.174 101.807 274.072L6.5918 178.711C2.19727 174.17 0 169.043 0 163.477C0 151.465 8.64258 142.969 20.0684 142.969C26.5137 142.969 31.4941 145.605 35.3027 149.561L68.2617 182.373L97.7051 216.797L96.2402 184.57V21.9727C96.2402 8.78906 104.883 0 117.48 0C130.225 0 138.721 8.78906 138.721 21.9727V184.57L137.402 216.65L166.846 182.373L199.805 149.561C203.76 145.605 208.74 142.969 215.039 142.969C226.465 142.969 235.107 151.465 235.107 163.477C235.107 169.043 232.91 174.17 228.516 178.711L133.154 274.072C129.199 278.174 123.34 280.518 117.48 280.518Z"
     fill="white"
     style="fill:white;fill-opacity:1;"
     id="path1" />
</svg>
