<svg width="90" height="55" viewBox="0 0 90 55" fill="none" xmlns="http://www.w3.org/2000/svg">
<path d="M8 0.5H82C86.1421 0.5 89.5 3.85786 89.5 8V47C89.5 51.1421 86.1421 54.5 82 54.5H8C3.85786 54.5 0.5 51.1421 0.5 47V8C0.5 3.85786 3.85786 0.5 8 0.5Z" fill="#020905"/>
<path d="M8 0.5H82C86.1421 0.5 89.5 3.85786 89.5 8V47C89.5 51.1421 86.1421 54.5 82 54.5H8C3.85786 54.5 0.5 51.1421 0.5 47V8C0.5 3.85786 3.85786 0.5 8 0.5Z" stroke="#020905"/>
<path fill-rule="evenodd" clip-rule="evenodd" d="M29.8867 12.412C29.2276 13.0711 28.6192 13.7682 28.0615 14.4907C27.922 14.3893 27.7953 14.2879 27.6685 14.1612C26.5785 13.0711 26.5785 11.2966 27.6685 10.1939C28.7713 9.10383 30.5458 9.10383 31.6358 10.1939C31.7626 10.3206 31.864 10.4474 31.9654 10.5868C31.2429 11.1445 30.5584 11.7529 29.8867 12.412ZM26.1982 17.3553C21.7873 25.4926 23.0168 35.8861 29.8993 42.7686C38.2902 51.1468 51.8778 51.1468 60.2686 42.7686C68.6468 34.3778 68.6468 20.7902 60.2686 12.412C53.3861 5.52948 42.9926 4.3 34.8553 8.7109C34.6271 8.38135 34.3736 8.06448 34.0821 7.77295C31.6485 5.33935 27.7066 5.33935 25.273 7.77295C22.8394 10.2066 22.8394 14.1485 25.273 16.5821C25.5645 16.8736 25.8814 17.1398 26.2109 17.3553H26.1982Z" fill="black"/>
<path fill-rule="evenodd" clip-rule="evenodd" d="M35.7927 9.12942C35.3744 10.9673 34.7913 12.8685 34.335 14.6557C34.5632 14.06 35.9448 10.6124 36.9081 8.63509C36.5912 10.5363 35.9448 12.539 35.5265 14.4149C35.8053 13.7051 37.6305 8.91394 38.1249 8.16612C37.8587 10.1814 37.3137 12.2094 36.832 14.136C37.4911 12.5517 38.5178 9.33222 39.367 7.79855C39.1896 9.47165 38.5305 11.9559 37.9474 13.8699C38.4924 12.615 39.7726 9.10407 40.6725 7.50702C40.3683 9.30687 39.6712 11.7151 39.1008 13.7431C39.3543 13.084 41.3063 8.29287 41.8006 7.35492C41.433 9.43362 40.7993 11.6644 40.1909 13.7051C40.5078 13.0206 42.0921 8.72382 43.0808 7.15212C42.6498 8.95197 41.9147 11.6264 41.2683 13.6797C42.0034 12.108 43.6005 8.16612 44.2976 7.03805C43.9173 9.05337 43.1442 11.3982 42.3837 13.6544C43.0047 12.1714 44.475 8.99 45.5144 7.0127C44.9694 9.28152 44.2342 11.5884 43.461 13.7938C43.892 12.9192 45.6285 8.83789 46.7058 7.12677C46.1481 9.21814 45.3876 11.7151 44.4877 13.9966C45.1341 12.6911 47.1875 8.05205 47.8466 7.22817C47.2128 9.6998 46.465 11.8165 45.5778 14.2121C45.9834 13.4262 48.1761 8.72382 49.0634 7.43097C48.3409 9.95329 47.6311 12.1714 46.6425 14.567C47.6565 12.7418 49.1268 9.29419 50.2295 7.68447C49.6464 10.2068 48.6071 12.7545 47.6691 15.2514C48.8352 12.9066 50.052 10.5617 51.3956 7.92529C49.6845 13.9079 46.4777 19.5609 41.7626 24.276C37.0475 28.9911 31.3944 32.2106 25.4118 33.9217C23.7514 28.725 24.195 22.9959 26.7427 18.0906C26.5526 18.8258 26.3751 19.5609 26.2484 20.3088C26.4512 19.7384 27.5159 16.5823 28.3144 15.6063C28.1243 16.6584 27.6807 18.0399 27.4398 18.9779C27.8454 17.7864 28.9228 15.112 29.5185 14.2248C29.2143 15.5176 28.9228 16.6584 28.6313 17.9005C29.0749 16.7091 30.1269 13.6924 30.8494 12.6657C30.7227 13.5276 29.9368 16.4682 29.772 17.064C30.2283 15.9359 31.2297 13.0587 32.0409 11.6644C31.7113 13.3882 31.293 14.8458 30.8874 16.3795C31.3311 15.2641 32.4972 11.994 33.283 10.7265C33.1056 12.1461 32.4211 14.0853 32.0282 15.6697C32.2056 15.0993 33.7266 11.2335 34.4998 9.86457C34.1956 11.7531 33.6379 13.3755 33.1816 15.15C33.4478 14.5036 35.1082 10.1688 35.8053 9.14209L35.7927 9.12942ZM58.7724 43.0604C51.4336 49.5753 40.5711 49.9683 32.814 44.2265C39.2022 41.7929 45.1848 38.0031 50.3436 32.857C55.4262 27.7743 59.178 21.8805 61.6243 15.581C60.6864 19.1173 58.9499 22.5269 57.1754 25.7337C58.7217 23.5662 61.5102 18.5723 62.4862 16.8358C61.5102 20.3468 59.609 23.5155 57.7204 26.6589C59.5329 24.276 62.0426 19.9665 63.234 18.4329C61.8905 21.7157 60.0146 24.7704 58.088 27.6476C59.609 25.8224 62.6383 20.9425 63.8424 19.8525C62.5876 22.9705 60.4962 25.8351 58.4682 28.5855C59.9892 26.8871 63.6143 22.134 64.4635 21.3101C63.1707 23.8451 60.661 27.1533 58.5823 29.7643C59.9005 28.4461 63.7791 23.6043 64.8438 22.755C63.2721 25.6069 60.9779 28.2813 58.7091 30.8797C60.3822 29.3587 64.172 24.9351 65.1226 24.3014C63.5256 26.9505 60.8511 29.9291 58.671 32.2993C60.9272 30.1699 63.1453 27.9518 65.262 25.8351C64.8057 27.3054 61.4469 30.7149 59.2921 32.9331C58.9626 32.6922 58.595 32.4768 58.2021 32.2993C55.1981 30.9431 52.2448 32.6922 51.5604 35.3286C51.1421 36.9257 51.5477 38.7382 53.056 39.6128C54.6024 40.5 56.567 39.9804 57.4542 38.434C58.2908 36.9764 57.8725 35.1512 56.5416 34.2006C57.2895 33.4274 58.5316 33.6682 59.3428 34.2259C58.8485 34.6949 58.4682 35.0625 58.2781 35.2399C58.5063 35.0625 58.9119 34.7202 59.4062 34.2893L59.4822 34.34C59.685 34.4921 59.8625 34.6695 60.0273 34.8723C59.4062 35.4427 58.7978 36.0131 58.2147 36.5708C58.7344 36.1525 59.3935 35.5948 60.116 34.9864C60.2808 35.2146 60.4202 35.4427 60.5469 35.7089C59.6343 36.5201 58.6964 37.2933 57.7838 38.0664C58.5696 37.4961 59.5963 36.7356 60.661 35.937C60.7624 36.1652 60.8385 36.406 60.9018 36.6595C59.7104 37.6735 58.3795 38.7129 56.9979 39.7395C57.7458 39.2832 59.3808 38.1678 60.9779 37.0524C61.0159 37.2933 61.0413 37.5341 61.0539 37.7749C59.5456 38.9664 57.8725 40.1198 56.3008 41.2732C57.3148 40.6648 59.3808 39.2579 61.0539 38.1425V38.3453C61.0286 38.5227 61.0159 38.7129 60.9779 38.8903C59.2161 40.3226 57.0993 41.7802 55.2361 43.035C56.1487 42.5534 59.0766 40.6521 60.8511 39.4987C60.8004 39.7142 60.7371 39.9423 60.661 40.1451C58.7091 41.907 56.1867 43.3646 53.7278 44.7335C55.4262 44.011 59.1654 41.8943 60.1033 41.2479C57.6824 43.428 55.2995 45.0757 52.1181 46.47C54.4883 45.532 56.6937 44.4546 58.7851 43.0097L58.7724 43.0604ZM59.3301 33.0091C61.3581 31.2093 63.3228 29.3587 65.2874 27.5842C64.3494 29.346 61.8018 31.9064 60.0146 33.6175C59.8118 33.402 59.5836 33.1992 59.3301 33.0218V33.0091ZM60.116 33.7062C61.8525 32.1979 64.21 30.1065 65.262 29.3714C64.1086 31.0445 62.3848 32.7176 60.6357 34.34C60.4836 34.1118 60.3061 33.909 60.116 33.7062ZM60.7371 34.5048C62.4228 33.0978 64.2227 31.5768 64.9959 31.0065C63.8171 32.5908 62.4989 33.9597 61.13 35.2146C61.0159 34.9737 60.8765 34.7329 60.7371 34.5048ZM61.2567 35.5188C62.613 34.4921 63.9185 33.4781 64.679 32.819C63.9312 33.8583 62.8158 34.9991 61.4849 36.1779C61.4215 35.9497 61.3455 35.7342 61.2567 35.5188ZM61.599 36.6468C62.6256 35.9244 63.5763 35.2526 64.1973 34.809C63.5002 35.6709 62.6383 36.4947 61.6877 37.2806C61.6623 37.0651 61.637 36.8496 61.5863 36.6468H61.599ZM61.7257 37.7369C62.4609 37.2552 63.0566 36.875 63.3861 36.7102C62.9172 37.2172 62.3595 37.7622 61.713 38.3073C61.713 38.1171 61.713 37.927 61.713 37.7369H61.7257ZM61.6497 39.0171L62.0553 38.7636C61.9158 38.9283 61.7637 39.0931 61.6116 39.2579L61.6497 39.0171Z" fill="#FFEE00"/>
<path fill-rule="evenodd" clip-rule="evenodd" d="M27.1105 9.62333C25.7036 11.0303 25.7036 13.3244 27.1105 14.7314C27.2626 14.8835 27.4274 15.0229 27.5921 15.137C27.4907 15.2891 27.3767 15.4285 27.2753 15.5806C27.0851 15.4412 26.895 15.2891 26.7176 15.1116C25.9064 14.3004 25.5008 13.2357 25.5008 12.171C25.5008 11.1063 25.9064 10.0416 26.7176 9.23041C27.5288 8.41921 28.5935 8.01361 29.6582 8.01361C30.7229 8.01361 31.7876 8.41921 32.5988 9.23041C32.7762 9.40786 32.9283 9.58531 33.0677 9.78811C32.9156 9.88951 32.7762 9.99091 32.6241 10.105C32.51 9.94021 32.3706 9.77543 32.2185 9.62333C30.8116 8.21641 28.5174 8.21641 27.1105 9.62333ZM26.9584 16.0622C26.8316 16.2524 26.7049 16.4552 26.5908 16.658C26.312 16.4678 26.0585 16.2524 25.8176 16.0115C23.7009 13.8948 23.7009 10.4599 25.8176 8.34316C27.9344 6.22643 31.3693 6.22643 33.486 8.34316C33.7269 8.58398 33.9423 8.83748 34.1325 9.11633C33.9297 9.23041 33.7395 9.35716 33.5367 9.48391C33.3846 9.25576 33.1945 9.04028 32.9917 8.83748C32.0664 7.91221 30.8623 7.45591 29.6455 7.45591C28.4287 7.45591 27.2246 7.91221 26.2993 8.83748C25.374 9.76276 24.9177 10.9669 24.9177 12.1837C24.9177 13.4005 25.374 14.6046 26.2993 15.5299C26.5021 15.7327 26.7176 15.9101 26.9457 16.0749L26.9584 16.0622Z" fill="#FF0012"/>
<path fill-rule="evenodd" clip-rule="evenodd" d="M61.1299 14.592C58.747 21.0436 54.9572 27.1022 49.7731 32.299C44.589 37.483 38.5304 41.2729 32.0661 43.6558C31.5211 43.2121 30.9761 42.7305 30.4691 42.2108C30.3297 42.0714 30.1902 41.932 30.0635 41.7925C36.6418 39.5491 42.8145 35.8226 48.062 30.5752C53.3094 25.3277 57.0359 19.155 59.2794 12.5893C59.4188 12.7288 59.5582 12.8555 59.6976 12.9949C60.2173 13.5146 60.699 14.047 61.1426 14.592H61.1299ZM26.6286 36.9127C26.261 36.1775 25.9314 35.4297 25.6526 34.6692C31.7493 32.92 37.5037 29.6372 42.3202 24.8334C47.124 20.0296 50.4069 14.2751 52.156 8.16577C52.9165 8.44462 53.6643 8.7615 54.3995 9.14175C52.5236 15.5173 49.0633 21.5125 44.0313 26.5445C38.9994 31.5765 33.0041 35.0241 26.6286 36.9127Z" fill="#FF0012"/>
</svg>
